%TF.GenerationSoftware,KiCad,Pcbnew,5.1.9-73d0e3b20d~88~ubuntu20.04.1*%
%TF.CreationDate,2021-01-10T19:14:23-05:00*%
%TF.ProjectId,OV_Power,4f565f50-6f77-4657-922e-6b696361645f,3.A*%
%TF.SameCoordinates,Original*%
%TF.FileFunction,Copper,L2,Bot*%
%TF.FilePolarity,Positive*%
%FSLAX46Y46*%
G04 Gerber Fmt 4.6, Leading zero omitted, Abs format (unit mm)*
G04 Created by KiCad (PCBNEW 5.1.9-73d0e3b20d~88~ubuntu20.04.1) date 2021-01-10 19:14:23*
%MOMM*%
%LPD*%
G01*
G04 APERTURE LIST*
%ADD10C,0.100000*%
%ADD11C,0.150000*%
%ADD12C,0.300000*%
%ADD13C,0.400000*%
%TA.AperFunction,NonConductor*%
%ADD14C,0.001000*%
%TD*%
%TA.AperFunction,ComponentPad*%
%ADD15C,2.550000*%
%TD*%
%TA.AperFunction,ComponentPad*%
%ADD16R,2.550000X2.550000*%
%TD*%
%TA.AperFunction,ComponentPad*%
%ADD17C,2.700000*%
%TD*%
%TA.AperFunction,ComponentPad*%
%ADD18O,1.800000X1.200000*%
%TD*%
%TA.AperFunction,ComponentPad*%
%ADD19O,1.740000X2.190000*%
%TD*%
%TA.AperFunction,ComponentPad*%
%ADD20C,3.200000*%
%TD*%
%TA.AperFunction,ComponentPad*%
%ADD21O,1.200000X3.300000*%
%TD*%
%TA.AperFunction,ComponentPad*%
%ADD22O,2.800000X1.600000*%
%TD*%
%TA.AperFunction,ComponentPad*%
%ADD23C,1.900000*%
%TD*%
%TA.AperFunction,ComponentPad*%
%ADD24O,1.700000X1.700000*%
%TD*%
%TA.AperFunction,ComponentPad*%
%ADD25R,1.700000X1.700000*%
%TD*%
%TA.AperFunction,ViaPad*%
%ADD26C,0.800000*%
%TD*%
%TA.AperFunction,ViaPad*%
%ADD27C,1.500000*%
%TD*%
%TA.AperFunction,ViaPad*%
%ADD28C,1.000000*%
%TD*%
%TA.AperFunction,Conductor*%
%ADD29C,0.208000*%
%TD*%
%TA.AperFunction,Conductor*%
%ADD30C,0.500000*%
%TD*%
%TA.AperFunction,Conductor*%
%ADD31C,0.750000*%
%TD*%
%TA.AperFunction,Conductor*%
%ADD32C,0.254000*%
%TD*%
%TA.AperFunction,Conductor*%
%ADD33C,0.100000*%
%TD*%
G04 APERTURE END LIST*
D10*
D11*
X177002200Y-166007200D02*
X177002200Y-198007200D01*
X285002200Y-198007200D01*
X285002200Y-166007200D01*
X177002200Y-166007200D01*
D10*
D11*
X10000000Y-10000000D02*
X10000000Y-200007200D01*
X287002200Y-200007200D01*
X287002200Y-10000000D01*
X10000000Y-10000000D01*
D10*
D11*
X12000000Y-12000000D02*
X12000000Y-198007200D01*
X285002200Y-198007200D01*
X285002200Y-12000000D01*
X12000000Y-12000000D01*
D10*
D11*
X60000000Y-12000000D02*
X60000000Y-10000000D01*
D10*
D11*
X110000000Y-12000000D02*
X110000000Y-10000000D01*
D10*
D11*
X160000000Y-12000000D02*
X160000000Y-10000000D01*
D10*
D11*
X210000000Y-12000000D02*
X210000000Y-10000000D01*
D10*
D11*
X260000000Y-12000000D02*
X260000000Y-10000000D01*
D10*
D11*
X36065476Y-11588095D02*
X35322619Y-11588095D01*
X35694047Y-11588095D02*
X35694047Y-10288095D01*
X35570238Y-10473809D01*
X35446428Y-10597619D01*
X35322619Y-10659523D01*
D10*
D11*
X85322619Y-10411904D02*
X85384523Y-10350000D01*
X85508333Y-10288095D01*
X85817857Y-10288095D01*
X85941666Y-10350000D01*
X86003571Y-10411904D01*
X86065476Y-10535714D01*
X86065476Y-10659523D01*
X86003571Y-10845238D01*
X85260714Y-11588095D01*
X86065476Y-11588095D01*
D10*
D11*
X135260714Y-10288095D02*
X136065476Y-10288095D01*
X135632142Y-10783333D01*
X135817857Y-10783333D01*
X135941666Y-10845238D01*
X136003571Y-10907142D01*
X136065476Y-11030952D01*
X136065476Y-11340476D01*
X136003571Y-11464285D01*
X135941666Y-11526190D01*
X135817857Y-11588095D01*
X135446428Y-11588095D01*
X135322619Y-11526190D01*
X135260714Y-11464285D01*
D10*
D11*
X185941666Y-10721428D02*
X185941666Y-11588095D01*
X185632142Y-10226190D02*
X185322619Y-11154761D01*
X186127380Y-11154761D01*
D10*
D11*
X236003571Y-10288095D02*
X235384523Y-10288095D01*
X235322619Y-10907142D01*
X235384523Y-10845238D01*
X235508333Y-10783333D01*
X235817857Y-10783333D01*
X235941666Y-10845238D01*
X236003571Y-10907142D01*
X236065476Y-11030952D01*
X236065476Y-11340476D01*
X236003571Y-11464285D01*
X235941666Y-11526190D01*
X235817857Y-11588095D01*
X235508333Y-11588095D01*
X235384523Y-11526190D01*
X235322619Y-11464285D01*
D10*
D11*
X285941666Y-10288095D02*
X285694047Y-10288095D01*
X285570238Y-10350000D01*
X285508333Y-10411904D01*
X285384523Y-10597619D01*
X285322619Y-10845238D01*
X285322619Y-11340476D01*
X285384523Y-11464285D01*
X285446428Y-11526190D01*
X285570238Y-11588095D01*
X285817857Y-11588095D01*
X285941666Y-11526190D01*
X286003571Y-11464285D01*
X286065476Y-11340476D01*
X286065476Y-11030952D01*
X286003571Y-10907142D01*
X285941666Y-10845238D01*
X285817857Y-10783333D01*
X285570238Y-10783333D01*
X285446428Y-10845238D01*
X285384523Y-10907142D01*
X285322619Y-11030952D01*
D10*
D11*
X60000000Y-198007200D02*
X60000000Y-200007200D01*
D10*
D11*
X110000000Y-198007200D02*
X110000000Y-200007200D01*
D10*
D11*
X160000000Y-198007200D02*
X160000000Y-200007200D01*
D10*
D11*
X210000000Y-198007200D02*
X210000000Y-200007200D01*
D10*
D11*
X260000000Y-198007200D02*
X260000000Y-200007200D01*
D10*
D11*
X36065476Y-199595295D02*
X35322619Y-199595295D01*
X35694047Y-199595295D02*
X35694047Y-198295295D01*
X35570238Y-198481009D01*
X35446428Y-198604819D01*
X35322619Y-198666723D01*
D10*
D11*
X85322619Y-198419104D02*
X85384523Y-198357200D01*
X85508333Y-198295295D01*
X85817857Y-198295295D01*
X85941666Y-198357200D01*
X86003571Y-198419104D01*
X86065476Y-198542914D01*
X86065476Y-198666723D01*
X86003571Y-198852438D01*
X85260714Y-199595295D01*
X86065476Y-199595295D01*
D10*
D11*
X135260714Y-198295295D02*
X136065476Y-198295295D01*
X135632142Y-198790533D01*
X135817857Y-198790533D01*
X135941666Y-198852438D01*
X136003571Y-198914342D01*
X136065476Y-199038152D01*
X136065476Y-199347676D01*
X136003571Y-199471485D01*
X135941666Y-199533390D01*
X135817857Y-199595295D01*
X135446428Y-199595295D01*
X135322619Y-199533390D01*
X135260714Y-199471485D01*
D10*
D11*
X185941666Y-198728628D02*
X185941666Y-199595295D01*
X185632142Y-198233390D02*
X185322619Y-199161961D01*
X186127380Y-199161961D01*
D10*
D11*
X236003571Y-198295295D02*
X235384523Y-198295295D01*
X235322619Y-198914342D01*
X235384523Y-198852438D01*
X235508333Y-198790533D01*
X235817857Y-198790533D01*
X235941666Y-198852438D01*
X236003571Y-198914342D01*
X236065476Y-199038152D01*
X236065476Y-199347676D01*
X236003571Y-199471485D01*
X235941666Y-199533390D01*
X235817857Y-199595295D01*
X235508333Y-199595295D01*
X235384523Y-199533390D01*
X235322619Y-199471485D01*
D10*
D11*
X285941666Y-198295295D02*
X285694047Y-198295295D01*
X285570238Y-198357200D01*
X285508333Y-198419104D01*
X285384523Y-198604819D01*
X285322619Y-198852438D01*
X285322619Y-199347676D01*
X285384523Y-199471485D01*
X285446428Y-199533390D01*
X285570238Y-199595295D01*
X285817857Y-199595295D01*
X285941666Y-199533390D01*
X286003571Y-199471485D01*
X286065476Y-199347676D01*
X286065476Y-199038152D01*
X286003571Y-198914342D01*
X285941666Y-198852438D01*
X285817857Y-198790533D01*
X285570238Y-198790533D01*
X285446428Y-198852438D01*
X285384523Y-198914342D01*
X285322619Y-199038152D01*
D10*
D11*
X10000000Y-60000000D02*
X12000000Y-60000000D01*
D10*
D11*
X10000000Y-110000000D02*
X12000000Y-110000000D01*
D10*
D11*
X10000000Y-160000000D02*
X12000000Y-160000000D01*
D10*
D11*
X10690476Y-35216666D02*
X11309523Y-35216666D01*
X10566666Y-35588095D02*
X11000000Y-34288095D01*
X11433333Y-35588095D01*
D10*
D11*
X11092857Y-84907142D02*
X11278571Y-84969047D01*
X11340476Y-85030952D01*
X11402380Y-85154761D01*
X11402380Y-85340476D01*
X11340476Y-85464285D01*
X11278571Y-85526190D01*
X11154761Y-85588095D01*
X10659523Y-85588095D01*
X10659523Y-84288095D01*
X11092857Y-84288095D01*
X11216666Y-84350000D01*
X11278571Y-84411904D01*
X11340476Y-84535714D01*
X11340476Y-84659523D01*
X11278571Y-84783333D01*
X11216666Y-84845238D01*
X11092857Y-84907142D01*
X10659523Y-84907142D01*
D10*
D11*
X11402380Y-135464285D02*
X11340476Y-135526190D01*
X11154761Y-135588095D01*
X11030952Y-135588095D01*
X10845238Y-135526190D01*
X10721428Y-135402380D01*
X10659523Y-135278571D01*
X10597619Y-135030952D01*
X10597619Y-134845238D01*
X10659523Y-134597619D01*
X10721428Y-134473809D01*
X10845238Y-134350000D01*
X11030952Y-134288095D01*
X11154761Y-134288095D01*
X11340476Y-134350000D01*
X11402380Y-134411904D01*
D10*
D11*
X10659523Y-185588095D02*
X10659523Y-184288095D01*
X10969047Y-184288095D01*
X11154761Y-184350000D01*
X11278571Y-184473809D01*
X11340476Y-184597619D01*
X11402380Y-184845238D01*
X11402380Y-185030952D01*
X11340476Y-185278571D01*
X11278571Y-185402380D01*
X11154761Y-185526190D01*
X10969047Y-185588095D01*
X10659523Y-185588095D01*
D10*
D11*
X287002200Y-60000000D02*
X285002200Y-60000000D01*
D10*
D11*
X287002200Y-110000000D02*
X285002200Y-110000000D01*
D10*
D11*
X287002200Y-160000000D02*
X285002200Y-160000000D01*
D10*
D11*
X285692676Y-35216666D02*
X286311723Y-35216666D01*
X285568866Y-35588095D02*
X286002200Y-34288095D01*
X286435533Y-35588095D01*
D10*
D11*
X286095057Y-84907142D02*
X286280771Y-84969047D01*
X286342676Y-85030952D01*
X286404580Y-85154761D01*
X286404580Y-85340476D01*
X286342676Y-85464285D01*
X286280771Y-85526190D01*
X286156961Y-85588095D01*
X285661723Y-85588095D01*
X285661723Y-84288095D01*
X286095057Y-84288095D01*
X286218866Y-84350000D01*
X286280771Y-84411904D01*
X286342676Y-84535714D01*
X286342676Y-84659523D01*
X286280771Y-84783333D01*
X286218866Y-84845238D01*
X286095057Y-84907142D01*
X285661723Y-84907142D01*
D10*
D11*
X286404580Y-135464285D02*
X286342676Y-135526190D01*
X286156961Y-135588095D01*
X286033152Y-135588095D01*
X285847438Y-135526190D01*
X285723628Y-135402380D01*
X285661723Y-135278571D01*
X285599819Y-135030952D01*
X285599819Y-134845238D01*
X285661723Y-134597619D01*
X285723628Y-134473809D01*
X285847438Y-134350000D01*
X286033152Y-134288095D01*
X286156961Y-134288095D01*
X286342676Y-134350000D01*
X286404580Y-134411904D01*
D10*
D11*
X285661723Y-185588095D02*
X285661723Y-184288095D01*
X285971247Y-184288095D01*
X286156961Y-184350000D01*
X286280771Y-184473809D01*
X286342676Y-184597619D01*
X286404580Y-184845238D01*
X286404580Y-185030952D01*
X286342676Y-185278571D01*
X286280771Y-185402380D01*
X286156961Y-185526190D01*
X285971247Y-185588095D01*
X285661723Y-185588095D01*
D10*
D11*
X200434342Y-193785771D02*
X200434342Y-192285771D01*
X200791485Y-192285771D01*
X201005771Y-192357200D01*
X201148628Y-192500057D01*
X201220057Y-192642914D01*
X201291485Y-192928628D01*
X201291485Y-193142914D01*
X201220057Y-193428628D01*
X201148628Y-193571485D01*
X201005771Y-193714342D01*
X200791485Y-193785771D01*
X200434342Y-193785771D01*
X202577200Y-193785771D02*
X202577200Y-193000057D01*
X202505771Y-192857200D01*
X202362914Y-192785771D01*
X202077200Y-192785771D01*
X201934342Y-192857200D01*
X202577200Y-193714342D02*
X202434342Y-193785771D01*
X202077200Y-193785771D01*
X201934342Y-193714342D01*
X201862914Y-193571485D01*
X201862914Y-193428628D01*
X201934342Y-193285771D01*
X202077200Y-193214342D01*
X202434342Y-193214342D01*
X202577200Y-193142914D01*
X203077200Y-192785771D02*
X203648628Y-192785771D01*
X203291485Y-192285771D02*
X203291485Y-193571485D01*
X203362914Y-193714342D01*
X203505771Y-193785771D01*
X203648628Y-193785771D01*
X204720057Y-193714342D02*
X204577200Y-193785771D01*
X204291485Y-193785771D01*
X204148628Y-193714342D01*
X204077200Y-193571485D01*
X204077200Y-193000057D01*
X204148628Y-192857200D01*
X204291485Y-192785771D01*
X204577200Y-192785771D01*
X204720057Y-192857200D01*
X204791485Y-193000057D01*
X204791485Y-193142914D01*
X204077200Y-193285771D01*
X205434342Y-193642914D02*
X205505771Y-193714342D01*
X205434342Y-193785771D01*
X205362914Y-193714342D01*
X205434342Y-193642914D01*
X205434342Y-193785771D01*
X205434342Y-192857200D02*
X205505771Y-192928628D01*
X205434342Y-193000057D01*
X205362914Y-192928628D01*
X205434342Y-192857200D01*
X205434342Y-193000057D01*
X207220057Y-192428628D02*
X207291485Y-192357200D01*
X207434342Y-192285771D01*
X207791485Y-192285771D01*
X207934342Y-192357200D01*
X208005771Y-192428628D01*
X208077200Y-192571485D01*
X208077200Y-192714342D01*
X208005771Y-192928628D01*
X207148628Y-193785771D01*
X208077200Y-193785771D01*
X209005771Y-192285771D02*
X209148628Y-192285771D01*
X209291485Y-192357200D01*
X209362914Y-192428628D01*
X209434342Y-192571485D01*
X209505771Y-192857200D01*
X209505771Y-193214342D01*
X209434342Y-193500057D01*
X209362914Y-193642914D01*
X209291485Y-193714342D01*
X209148628Y-193785771D01*
X209005771Y-193785771D01*
X208862914Y-193714342D01*
X208791485Y-193642914D01*
X208720057Y-193500057D01*
X208648628Y-193214342D01*
X208648628Y-192857200D01*
X208720057Y-192571485D01*
X208791485Y-192428628D01*
X208862914Y-192357200D01*
X209005771Y-192285771D01*
X210077200Y-192428628D02*
X210148628Y-192357200D01*
X210291485Y-192285771D01*
X210648628Y-192285771D01*
X210791485Y-192357200D01*
X210862914Y-192428628D01*
X210934342Y-192571485D01*
X210934342Y-192714342D01*
X210862914Y-192928628D01*
X210005771Y-193785771D01*
X210934342Y-193785771D01*
X212362914Y-193785771D02*
X211505771Y-193785771D01*
X211934342Y-193785771D02*
X211934342Y-192285771D01*
X211791485Y-192500057D01*
X211648628Y-192642914D01*
X211505771Y-192714342D01*
X213005771Y-193214342D02*
X214148628Y-193214342D01*
X215148628Y-192285771D02*
X215291485Y-192285771D01*
X215434342Y-192357200D01*
X215505771Y-192428628D01*
X215577200Y-192571485D01*
X215648628Y-192857200D01*
X215648628Y-193214342D01*
X215577200Y-193500057D01*
X215505771Y-193642914D01*
X215434342Y-193714342D01*
X215291485Y-193785771D01*
X215148628Y-193785771D01*
X215005771Y-193714342D01*
X214934342Y-193642914D01*
X214862914Y-193500057D01*
X214791485Y-193214342D01*
X214791485Y-192857200D01*
X214862914Y-192571485D01*
X214934342Y-192428628D01*
X215005771Y-192357200D01*
X215148628Y-192285771D01*
X217077200Y-193785771D02*
X216220057Y-193785771D01*
X216648628Y-193785771D02*
X216648628Y-192285771D01*
X216505771Y-192500057D01*
X216362914Y-192642914D01*
X216220057Y-192714342D01*
X217720057Y-193214342D02*
X218862914Y-193214342D01*
X220362914Y-193785771D02*
X219505771Y-193785771D01*
X219934342Y-193785771D02*
X219934342Y-192285771D01*
X219791485Y-192500057D01*
X219648628Y-192642914D01*
X219505771Y-192714342D01*
X221291485Y-192285771D02*
X221434342Y-192285771D01*
X221577200Y-192357200D01*
X221648628Y-192428628D01*
X221720057Y-192571485D01*
X221791485Y-192857200D01*
X221791485Y-193214342D01*
X221720057Y-193500057D01*
X221648628Y-193642914D01*
X221577200Y-193714342D01*
X221434342Y-193785771D01*
X221291485Y-193785771D01*
X221148628Y-193714342D01*
X221077200Y-193642914D01*
X221005771Y-193500057D01*
X220934342Y-193214342D01*
X220934342Y-192857200D01*
X221005771Y-192571485D01*
X221077200Y-192428628D01*
X221148628Y-192357200D01*
X221291485Y-192285771D01*
D10*
D11*
X177002200Y-194507200D02*
X285002200Y-194507200D01*
D10*
D11*
X178434342Y-196585771D02*
X178434342Y-195085771D01*
X179291485Y-196585771D02*
X178648628Y-195728628D01*
X179291485Y-195085771D02*
X178434342Y-195942914D01*
X179934342Y-196585771D02*
X179934342Y-195585771D01*
X179934342Y-195085771D02*
X179862914Y-195157200D01*
X179934342Y-195228628D01*
X180005771Y-195157200D01*
X179934342Y-195085771D01*
X179934342Y-195228628D01*
X181505771Y-196442914D02*
X181434342Y-196514342D01*
X181220057Y-196585771D01*
X181077200Y-196585771D01*
X180862914Y-196514342D01*
X180720057Y-196371485D01*
X180648628Y-196228628D01*
X180577200Y-195942914D01*
X180577200Y-195728628D01*
X180648628Y-195442914D01*
X180720057Y-195300057D01*
X180862914Y-195157200D01*
X181077200Y-195085771D01*
X181220057Y-195085771D01*
X181434342Y-195157200D01*
X181505771Y-195228628D01*
X182791485Y-196585771D02*
X182791485Y-195800057D01*
X182720057Y-195657200D01*
X182577200Y-195585771D01*
X182291485Y-195585771D01*
X182148628Y-195657200D01*
X182791485Y-196514342D02*
X182648628Y-196585771D01*
X182291485Y-196585771D01*
X182148628Y-196514342D01*
X182077200Y-196371485D01*
X182077200Y-196228628D01*
X182148628Y-196085771D01*
X182291485Y-196014342D01*
X182648628Y-196014342D01*
X182791485Y-195942914D01*
X184148628Y-196585771D02*
X184148628Y-195085771D01*
X184148628Y-196514342D02*
X184005771Y-196585771D01*
X183720057Y-196585771D01*
X183577200Y-196514342D01*
X183505771Y-196442914D01*
X183434342Y-196300057D01*
X183434342Y-195871485D01*
X183505771Y-195728628D01*
X183577200Y-195657200D01*
X183720057Y-195585771D01*
X184005771Y-195585771D01*
X184148628Y-195657200D01*
X186005771Y-195800057D02*
X186505771Y-195800057D01*
X186720057Y-196585771D02*
X186005771Y-196585771D01*
X186005771Y-195085771D01*
X186720057Y-195085771D01*
X187362914Y-196442914D02*
X187434342Y-196514342D01*
X187362914Y-196585771D01*
X187291485Y-196514342D01*
X187362914Y-196442914D01*
X187362914Y-196585771D01*
X188077200Y-196585771D02*
X188077200Y-195085771D01*
X188434342Y-195085771D01*
X188648628Y-195157200D01*
X188791485Y-195300057D01*
X188862914Y-195442914D01*
X188934342Y-195728628D01*
X188934342Y-195942914D01*
X188862914Y-196228628D01*
X188791485Y-196371485D01*
X188648628Y-196514342D01*
X188434342Y-196585771D01*
X188077200Y-196585771D01*
X189577200Y-196442914D02*
X189648628Y-196514342D01*
X189577200Y-196585771D01*
X189505771Y-196514342D01*
X189577200Y-196442914D01*
X189577200Y-196585771D01*
X190220057Y-196157200D02*
X190934342Y-196157200D01*
X190077200Y-196585771D02*
X190577200Y-195085771D01*
X191077200Y-196585771D01*
X191577200Y-196442914D02*
X191648628Y-196514342D01*
X191577200Y-196585771D01*
X191505771Y-196514342D01*
X191577200Y-196442914D01*
X191577200Y-196585771D01*
X194577200Y-196585771D02*
X194577200Y-195085771D01*
X194720057Y-196014342D02*
X195148628Y-196585771D01*
X195148628Y-195585771D02*
X194577200Y-196157200D01*
X195791485Y-196585771D02*
X195791485Y-195585771D01*
X195791485Y-195085771D02*
X195720057Y-195157200D01*
X195791485Y-195228628D01*
X195862914Y-195157200D01*
X195791485Y-195085771D01*
X195791485Y-195228628D01*
X197148628Y-196514342D02*
X197005771Y-196585771D01*
X196720057Y-196585771D01*
X196577200Y-196514342D01*
X196505771Y-196442914D01*
X196434342Y-196300057D01*
X196434342Y-195871485D01*
X196505771Y-195728628D01*
X196577200Y-195657200D01*
X196720057Y-195585771D01*
X197005771Y-195585771D01*
X197148628Y-195657200D01*
X198434342Y-196585771D02*
X198434342Y-195800057D01*
X198362914Y-195657200D01*
X198220057Y-195585771D01*
X197934342Y-195585771D01*
X197791485Y-195657200D01*
X198434342Y-196514342D02*
X198291485Y-196585771D01*
X197934342Y-196585771D01*
X197791485Y-196514342D01*
X197720057Y-196371485D01*
X197720057Y-196228628D01*
X197791485Y-196085771D01*
X197934342Y-196014342D01*
X198291485Y-196014342D01*
X198434342Y-195942914D01*
X199791485Y-196585771D02*
X199791485Y-195085771D01*
X199791485Y-196514342D02*
X199648628Y-196585771D01*
X199362914Y-196585771D01*
X199220057Y-196514342D01*
X199148628Y-196442914D01*
X199077200Y-196300057D01*
X199077200Y-195871485D01*
X199148628Y-195728628D01*
X199220057Y-195657200D01*
X199362914Y-195585771D01*
X199648628Y-195585771D01*
X199791485Y-195657200D01*
X202362914Y-195085771D02*
X201648628Y-195085771D01*
X201577200Y-195800057D01*
X201648628Y-195728628D01*
X201791485Y-195657200D01*
X202148628Y-195657200D01*
X202291485Y-195728628D01*
X202362914Y-195800057D01*
X202434342Y-195942914D01*
X202434342Y-196300057D01*
X202362914Y-196442914D01*
X202291485Y-196514342D01*
X202148628Y-196585771D01*
X201791485Y-196585771D01*
X201648628Y-196514342D01*
X201577200Y-196442914D01*
X203077200Y-196442914D02*
X203148628Y-196514342D01*
X203077200Y-196585771D01*
X203005771Y-196514342D01*
X203077200Y-196442914D01*
X203077200Y-196585771D01*
X204577200Y-196585771D02*
X203720057Y-196585771D01*
X204148628Y-196585771D02*
X204148628Y-195085771D01*
X204005771Y-195300057D01*
X203862914Y-195442914D01*
X203720057Y-195514342D01*
X205220057Y-196442914D02*
X205291485Y-196514342D01*
X205220057Y-196585771D01*
X205148628Y-196514342D01*
X205220057Y-196442914D01*
X205220057Y-196585771D01*
X206005771Y-196585771D02*
X206291485Y-196585771D01*
X206434342Y-196514342D01*
X206505771Y-196442914D01*
X206648628Y-196228628D01*
X206720057Y-195942914D01*
X206720057Y-195371485D01*
X206648628Y-195228628D01*
X206577200Y-195157200D01*
X206434342Y-195085771D01*
X206148628Y-195085771D01*
X206005771Y-195157200D01*
X205934342Y-195228628D01*
X205862914Y-195371485D01*
X205862914Y-195728628D01*
X205934342Y-195871485D01*
X206005771Y-195942914D01*
X206148628Y-196014342D01*
X206434342Y-196014342D01*
X206577200Y-195942914D01*
X206648628Y-195871485D01*
X206720057Y-195728628D01*
X207362914Y-196014342D02*
X208505771Y-196014342D01*
X209077200Y-195085771D02*
X210077200Y-195085771D01*
X209434342Y-196585771D01*
X210505771Y-195085771D02*
X211434342Y-195085771D01*
X210934342Y-195657200D01*
X211148628Y-195657200D01*
X211291485Y-195728628D01*
X211362914Y-195800057D01*
X211434342Y-195942914D01*
X211434342Y-196300057D01*
X211362914Y-196442914D01*
X211291485Y-196514342D01*
X211148628Y-196585771D01*
X210720057Y-196585771D01*
X210577200Y-196514342D01*
X210505771Y-196442914D01*
X212720057Y-196585771D02*
X212720057Y-195085771D01*
X212720057Y-196514342D02*
X212577200Y-196585771D01*
X212291485Y-196585771D01*
X212148628Y-196514342D01*
X212077200Y-196442914D01*
X212005771Y-196300057D01*
X212005771Y-195871485D01*
X212077200Y-195728628D01*
X212148628Y-195657200D01*
X212291485Y-195585771D01*
X212577200Y-195585771D01*
X212720057Y-195657200D01*
X213720057Y-195085771D02*
X213862914Y-195085771D01*
X214005771Y-195157200D01*
X214077200Y-195228628D01*
X214148628Y-195371485D01*
X214220057Y-195657200D01*
X214220057Y-196014342D01*
X214148628Y-196300057D01*
X214077200Y-196442914D01*
X214005771Y-196514342D01*
X213862914Y-196585771D01*
X213720057Y-196585771D01*
X213577200Y-196514342D01*
X213505771Y-196442914D01*
X213434342Y-196300057D01*
X213362914Y-196014342D01*
X213362914Y-195657200D01*
X213434342Y-195371485D01*
X213505771Y-195228628D01*
X213577200Y-195157200D01*
X213720057Y-195085771D01*
X215434342Y-196514342D02*
X215291485Y-196585771D01*
X215005771Y-196585771D01*
X214862914Y-196514342D01*
X214791485Y-196371485D01*
X214791485Y-195800057D01*
X214862914Y-195657200D01*
X215005771Y-195585771D01*
X215291485Y-195585771D01*
X215434342Y-195657200D01*
X215505771Y-195800057D01*
X215505771Y-195942914D01*
X214791485Y-196085771D01*
X216005771Y-195085771D02*
X216934342Y-195085771D01*
X216434342Y-195657200D01*
X216648628Y-195657200D01*
X216791485Y-195728628D01*
X216862914Y-195800057D01*
X216934342Y-195942914D01*
X216934342Y-196300057D01*
X216862914Y-196442914D01*
X216791485Y-196514342D01*
X216648628Y-196585771D01*
X216220057Y-196585771D01*
X216077200Y-196514342D01*
X216005771Y-196442914D01*
X217577200Y-196585771D02*
X217577200Y-195085771D01*
X217577200Y-195657200D02*
X217720057Y-195585771D01*
X218005771Y-195585771D01*
X218148628Y-195657200D01*
X218220057Y-195728628D01*
X218291485Y-195871485D01*
X218291485Y-196300057D01*
X218220057Y-196442914D01*
X218148628Y-196514342D01*
X218005771Y-196585771D01*
X217720057Y-196585771D01*
X217577200Y-196514342D01*
X218862914Y-195228628D02*
X218934342Y-195157200D01*
X219077200Y-195085771D01*
X219434342Y-195085771D01*
X219577200Y-195157200D01*
X219648628Y-195228628D01*
X219720057Y-195371485D01*
X219720057Y-195514342D01*
X219648628Y-195728628D01*
X218791485Y-196585771D01*
X219720057Y-196585771D01*
X220648628Y-195085771D02*
X220791485Y-195085771D01*
X220934342Y-195157200D01*
X221005771Y-195228628D01*
X221077200Y-195371485D01*
X221148628Y-195657200D01*
X221148628Y-196014342D01*
X221077200Y-196300057D01*
X221005771Y-196442914D01*
X220934342Y-196514342D01*
X220791485Y-196585771D01*
X220648628Y-196585771D01*
X220505771Y-196514342D01*
X220434342Y-196442914D01*
X220362914Y-196300057D01*
X220291485Y-196014342D01*
X220291485Y-195657200D01*
X220362914Y-195371485D01*
X220434342Y-195228628D01*
X220505771Y-195157200D01*
X220648628Y-195085771D01*
X222434342Y-196585771D02*
X222434342Y-195085771D01*
X222434342Y-196514342D02*
X222291485Y-196585771D01*
X222005771Y-196585771D01*
X221862914Y-196514342D01*
X221791485Y-196442914D01*
X221720057Y-196300057D01*
X221720057Y-195871485D01*
X221791485Y-195728628D01*
X221862914Y-195657200D01*
X222005771Y-195585771D01*
X222291485Y-195585771D01*
X222434342Y-195657200D01*
X222791485Y-194677200D02*
X224220057Y-194677200D01*
X223362914Y-195728628D02*
X223220057Y-195657200D01*
X223148628Y-195585771D01*
X223077200Y-195442914D01*
X223077200Y-195371485D01*
X223148628Y-195228628D01*
X223220057Y-195157200D01*
X223362914Y-195085771D01*
X223648628Y-195085771D01*
X223791485Y-195157200D01*
X223862914Y-195228628D01*
X223934342Y-195371485D01*
X223934342Y-195442914D01*
X223862914Y-195585771D01*
X223791485Y-195657200D01*
X223648628Y-195728628D01*
X223362914Y-195728628D01*
X223220057Y-195800057D01*
X223148628Y-195871485D01*
X223077200Y-196014342D01*
X223077200Y-196300057D01*
X223148628Y-196442914D01*
X223220057Y-196514342D01*
X223362914Y-196585771D01*
X223648628Y-196585771D01*
X223791485Y-196514342D01*
X223862914Y-196442914D01*
X223934342Y-196300057D01*
X223934342Y-196014342D01*
X223862914Y-195871485D01*
X223791485Y-195800057D01*
X223648628Y-195728628D01*
X224220057Y-194677200D02*
X225648628Y-194677200D01*
X224791485Y-195728628D02*
X224648628Y-195657200D01*
X224577200Y-195585771D01*
X224505771Y-195442914D01*
X224505771Y-195371485D01*
X224577200Y-195228628D01*
X224648628Y-195157200D01*
X224791485Y-195085771D01*
X225077200Y-195085771D01*
X225220057Y-195157200D01*
X225291485Y-195228628D01*
X225362914Y-195371485D01*
X225362914Y-195442914D01*
X225291485Y-195585771D01*
X225220057Y-195657200D01*
X225077200Y-195728628D01*
X224791485Y-195728628D01*
X224648628Y-195800057D01*
X224577200Y-195871485D01*
X224505771Y-196014342D01*
X224505771Y-196300057D01*
X224577200Y-196442914D01*
X224648628Y-196514342D01*
X224791485Y-196585771D01*
X225077200Y-196585771D01*
X225220057Y-196514342D01*
X225291485Y-196442914D01*
X225362914Y-196300057D01*
X225362914Y-196014342D01*
X225291485Y-195871485D01*
X225220057Y-195800057D01*
X225077200Y-195728628D01*
X226648628Y-195585771D02*
X226648628Y-196585771D01*
X226005771Y-195585771D02*
X226005771Y-196371485D01*
X226077199Y-196514342D01*
X226220057Y-196585771D01*
X226434342Y-196585771D01*
X226577199Y-196514342D01*
X226648628Y-196442914D01*
X227362914Y-196585771D02*
X227362914Y-195085771D01*
X227362914Y-195657200D02*
X227505771Y-195585771D01*
X227791485Y-195585771D01*
X227934342Y-195657200D01*
X228005771Y-195728628D01*
X228077200Y-195871485D01*
X228077200Y-196300057D01*
X228005771Y-196442914D01*
X227934342Y-196514342D01*
X227791485Y-196585771D01*
X227505771Y-196585771D01*
X227362914Y-196514342D01*
X229362914Y-195585771D02*
X229362914Y-196585771D01*
X228720057Y-195585771D02*
X228720057Y-196371485D01*
X228791485Y-196514342D01*
X228934342Y-196585771D01*
X229148628Y-196585771D01*
X229291485Y-196514342D01*
X229362914Y-196442914D01*
X230077200Y-195585771D02*
X230077200Y-196585771D01*
X230077200Y-195728628D02*
X230148628Y-195657200D01*
X230291485Y-195585771D01*
X230505771Y-195585771D01*
X230648628Y-195657200D01*
X230720057Y-195800057D01*
X230720057Y-196585771D01*
X231220057Y-195585771D02*
X231791485Y-195585771D01*
X231434342Y-195085771D02*
X231434342Y-196371485D01*
X231505771Y-196514342D01*
X231648628Y-196585771D01*
X231791485Y-196585771D01*
X232934342Y-195585771D02*
X232934342Y-196585771D01*
X232291485Y-195585771D02*
X232291485Y-196371485D01*
X232362914Y-196514342D01*
X232505771Y-196585771D01*
X232720057Y-196585771D01*
X232862914Y-196514342D01*
X232934342Y-196442914D01*
X233577200Y-195228628D02*
X233648628Y-195157200D01*
X233791485Y-195085771D01*
X234148628Y-195085771D01*
X234291485Y-195157200D01*
X234362914Y-195228628D01*
X234434342Y-195371485D01*
X234434342Y-195514342D01*
X234362914Y-195728628D01*
X233505771Y-196585771D01*
X234434342Y-196585771D01*
X235362914Y-195085771D02*
X235505771Y-195085771D01*
X235648628Y-195157200D01*
X235720057Y-195228628D01*
X235791485Y-195371485D01*
X235862914Y-195657200D01*
X235862914Y-196014342D01*
X235791485Y-196300057D01*
X235720057Y-196442914D01*
X235648628Y-196514342D01*
X235505771Y-196585771D01*
X235362914Y-196585771D01*
X235220057Y-196514342D01*
X235148628Y-196442914D01*
X235077200Y-196300057D01*
X235005771Y-196014342D01*
X235005771Y-195657200D01*
X235077200Y-195371485D01*
X235148628Y-195228628D01*
X235220057Y-195157200D01*
X235362914Y-195085771D01*
X236505771Y-196442914D02*
X236577199Y-196514342D01*
X236505771Y-196585771D01*
X236434342Y-196514342D01*
X236505771Y-196442914D01*
X236505771Y-196585771D01*
X237505771Y-195085771D02*
X237648628Y-195085771D01*
X237791485Y-195157200D01*
X237862914Y-195228628D01*
X237934342Y-195371485D01*
X238005771Y-195657200D01*
X238005771Y-196014342D01*
X237934342Y-196300057D01*
X237862914Y-196442914D01*
X237791485Y-196514342D01*
X237648628Y-196585771D01*
X237505771Y-196585771D01*
X237362914Y-196514342D01*
X237291485Y-196442914D01*
X237220057Y-196300057D01*
X237148628Y-196014342D01*
X237148628Y-195657200D01*
X237220057Y-195371485D01*
X237291485Y-195228628D01*
X237362914Y-195157200D01*
X237505771Y-195085771D01*
X239291485Y-195585771D02*
X239291485Y-196585771D01*
X238934342Y-195014342D02*
X238577199Y-196085771D01*
X239505771Y-196085771D01*
X240077199Y-196442914D02*
X240148628Y-196514342D01*
X240077199Y-196585771D01*
X240005771Y-196514342D01*
X240077199Y-196442914D01*
X240077199Y-196585771D01*
X241577199Y-196585771D02*
X240720057Y-196585771D01*
X241148628Y-196585771D02*
X241148628Y-195085771D01*
X241005771Y-195300057D01*
X240862914Y-195442914D01*
X240720057Y-195514342D01*
D10*
D11*
X177002200Y-191507200D02*
X285002200Y-191507200D01*
D10*
D12*
X264411485Y-193785771D02*
X263911485Y-193071485D01*
X263554342Y-193785771D02*
X263554342Y-192285771D01*
X264125771Y-192285771D01*
X264268628Y-192357200D01*
X264340057Y-192428628D01*
X264411485Y-192571485D01*
X264411485Y-192785771D01*
X264340057Y-192928628D01*
X264268628Y-193000057D01*
X264125771Y-193071485D01*
X263554342Y-193071485D01*
X265625771Y-193714342D02*
X265482914Y-193785771D01*
X265197200Y-193785771D01*
X265054342Y-193714342D01*
X264982914Y-193571485D01*
X264982914Y-193000057D01*
X265054342Y-192857200D01*
X265197200Y-192785771D01*
X265482914Y-192785771D01*
X265625771Y-192857200D01*
X265697200Y-193000057D01*
X265697200Y-193142914D01*
X264982914Y-193285771D01*
X266197200Y-192785771D02*
X266554342Y-193785771D01*
X266911485Y-192785771D01*
X267482914Y-193642914D02*
X267554342Y-193714342D01*
X267482914Y-193785771D01*
X267411485Y-193714342D01*
X267482914Y-193642914D01*
X267482914Y-193785771D01*
X267482914Y-192857200D02*
X267554342Y-192928628D01*
X267482914Y-193000057D01*
X267411485Y-192928628D01*
X267482914Y-192857200D01*
X267482914Y-193000057D01*
X269197200Y-192285771D02*
X270125771Y-192285771D01*
X269625771Y-192857200D01*
X269840057Y-192857200D01*
X269982914Y-192928628D01*
X270054342Y-193000057D01*
X270125771Y-193142914D01*
X270125771Y-193500057D01*
X270054342Y-193642914D01*
X269982914Y-193714342D01*
X269840057Y-193785771D01*
X269411485Y-193785771D01*
X269268628Y-193714342D01*
X269197200Y-193642914D01*
X270768628Y-193642914D02*
X270840057Y-193714342D01*
X270768628Y-193785771D01*
X270697200Y-193714342D01*
X270768628Y-193642914D01*
X270768628Y-193785771D01*
X271411485Y-193357200D02*
X272125771Y-193357200D01*
X271268628Y-193785771D02*
X271768628Y-192285771D01*
X272268628Y-193785771D01*
D10*
D11*
X178362914Y-193714342D02*
X178577200Y-193785771D01*
X178934342Y-193785771D01*
X179077200Y-193714342D01*
X179148628Y-193642914D01*
X179220057Y-193500057D01*
X179220057Y-193357200D01*
X179148628Y-193214342D01*
X179077200Y-193142914D01*
X178934342Y-193071485D01*
X178648628Y-193000057D01*
X178505771Y-192928628D01*
X178434342Y-192857200D01*
X178362914Y-192714342D01*
X178362914Y-192571485D01*
X178434342Y-192428628D01*
X178505771Y-192357200D01*
X178648628Y-192285771D01*
X179005771Y-192285771D01*
X179220057Y-192357200D01*
X179862914Y-193785771D02*
X179862914Y-192785771D01*
X179862914Y-192285771D02*
X179791485Y-192357200D01*
X179862914Y-192428628D01*
X179934342Y-192357200D01*
X179862914Y-192285771D01*
X179862914Y-192428628D01*
X180434342Y-192785771D02*
X181220057Y-192785771D01*
X180434342Y-193785771D01*
X181220057Y-193785771D01*
X182362914Y-193714342D02*
X182220057Y-193785771D01*
X181934342Y-193785771D01*
X181791485Y-193714342D01*
X181720057Y-193571485D01*
X181720057Y-193000057D01*
X181791485Y-192857200D01*
X181934342Y-192785771D01*
X182220057Y-192785771D01*
X182362914Y-192857200D01*
X182434342Y-193000057D01*
X182434342Y-193142914D01*
X181720057Y-193285771D01*
X183077200Y-193642914D02*
X183148628Y-193714342D01*
X183077200Y-193785771D01*
X183005771Y-193714342D01*
X183077200Y-193642914D01*
X183077200Y-193785771D01*
X183077200Y-192857200D02*
X183148628Y-192928628D01*
X183077200Y-193000057D01*
X183005771Y-192928628D01*
X183077200Y-192857200D01*
X183077200Y-193000057D01*
X184862914Y-193357200D02*
X185577200Y-193357200D01*
X184720057Y-193785771D02*
X185220057Y-192285771D01*
X185720057Y-193785771D01*
X186862914Y-192785771D02*
X186862914Y-193785771D01*
X186505771Y-192214342D02*
X186148628Y-193285771D01*
X187077200Y-193285771D01*
D10*
D11*
X263434342Y-196585771D02*
X263434342Y-195085771D01*
X264791485Y-196585771D02*
X264791485Y-195085771D01*
X264791485Y-196514342D02*
X264648628Y-196585771D01*
X264362914Y-196585771D01*
X264220057Y-196514342D01*
X264148628Y-196442914D01*
X264077200Y-196300057D01*
X264077200Y-195871485D01*
X264148628Y-195728628D01*
X264220057Y-195657200D01*
X264362914Y-195585771D01*
X264648628Y-195585771D01*
X264791485Y-195657200D01*
X265505771Y-196442914D02*
X265577200Y-196514342D01*
X265505771Y-196585771D01*
X265434342Y-196514342D01*
X265505771Y-196442914D01*
X265505771Y-196585771D01*
X265505771Y-195657200D02*
X265577200Y-195728628D01*
X265505771Y-195800057D01*
X265434342Y-195728628D01*
X265505771Y-195657200D01*
X265505771Y-195800057D01*
X268148628Y-196585771D02*
X267291485Y-196585771D01*
X267720057Y-196585771D02*
X267720057Y-195085771D01*
X267577200Y-195300057D01*
X267434342Y-195442914D01*
X267291485Y-195514342D01*
X269862914Y-195014342D02*
X268577200Y-196942914D01*
X271148628Y-196585771D02*
X270291485Y-196585771D01*
X270720057Y-196585771D02*
X270720057Y-195085771D01*
X270577200Y-195300057D01*
X270434342Y-195442914D01*
X270291485Y-195514342D01*
D10*
D11*
X177002200Y-187507200D02*
X285002200Y-187507200D01*
D10*
D13*
X178714580Y-188211961D02*
X179857438Y-188211961D01*
X179036009Y-190211961D02*
X179286009Y-188211961D01*
X180274104Y-190211961D02*
X180440771Y-188878628D01*
X180524104Y-188211961D02*
X180416961Y-188307200D01*
X180500295Y-188402438D01*
X180607438Y-188307200D01*
X180524104Y-188211961D01*
X180500295Y-188402438D01*
X181107438Y-188878628D02*
X181869342Y-188878628D01*
X181476485Y-188211961D02*
X181262200Y-189926247D01*
X181333628Y-190116723D01*
X181512200Y-190211961D01*
X181702676Y-190211961D01*
X182655057Y-190211961D02*
X182476485Y-190116723D01*
X182405057Y-189926247D01*
X182619342Y-188211961D01*
X184190771Y-190116723D02*
X183988390Y-190211961D01*
X183607438Y-190211961D01*
X183428866Y-190116723D01*
X183357438Y-189926247D01*
X183452676Y-189164342D01*
X183571723Y-188973866D01*
X183774104Y-188878628D01*
X184155057Y-188878628D01*
X184333628Y-188973866D01*
X184405057Y-189164342D01*
X184381247Y-189354819D01*
X183405057Y-189545295D01*
X185155057Y-190021485D02*
X185238390Y-190116723D01*
X185131247Y-190211961D01*
X185047914Y-190116723D01*
X185155057Y-190021485D01*
X185131247Y-190211961D01*
X185286009Y-188973866D02*
X185369342Y-189069104D01*
X185262200Y-189164342D01*
X185178866Y-189069104D01*
X185286009Y-188973866D01*
X185262200Y-189164342D01*
X187607438Y-190211961D02*
X187857438Y-188211961D01*
X188619342Y-188211961D01*
X188797914Y-188307200D01*
X188881247Y-188402438D01*
X188952676Y-188592914D01*
X188916961Y-188878628D01*
X188797914Y-189069104D01*
X188690771Y-189164342D01*
X188488390Y-189259580D01*
X187726485Y-189259580D01*
X189893152Y-190211961D02*
X189714580Y-190116723D01*
X189631247Y-190021485D01*
X189559819Y-189831009D01*
X189631247Y-189259580D01*
X189750295Y-189069104D01*
X189857438Y-188973866D01*
X190059819Y-188878628D01*
X190345533Y-188878628D01*
X190524104Y-188973866D01*
X190607438Y-189069104D01*
X190678866Y-189259580D01*
X190607438Y-189831009D01*
X190488390Y-190021485D01*
X190381247Y-190116723D01*
X190178866Y-190211961D01*
X189893152Y-190211961D01*
X191393152Y-188878628D02*
X191607438Y-190211961D01*
X192107438Y-189259580D01*
X192369342Y-190211961D01*
X192916961Y-188878628D01*
X194286009Y-190116723D02*
X194083628Y-190211961D01*
X193702676Y-190211961D01*
X193524104Y-190116723D01*
X193452676Y-189926247D01*
X193547914Y-189164342D01*
X193666961Y-188973866D01*
X193869342Y-188878628D01*
X194250295Y-188878628D01*
X194428866Y-188973866D01*
X194500295Y-189164342D01*
X194476485Y-189354819D01*
X193500295Y-189545295D01*
X195226485Y-190211961D02*
X195393152Y-188878628D01*
X195345533Y-189259580D02*
X195464580Y-189069104D01*
X195571723Y-188973866D01*
X195774104Y-188878628D01*
X195964580Y-188878628D01*
X198786009Y-189164342D02*
X199059819Y-189259580D01*
X199143152Y-189354819D01*
X199214580Y-189545295D01*
X199178866Y-189831009D01*
X199059819Y-190021485D01*
X198952676Y-190116723D01*
X198750295Y-190211961D01*
X197988390Y-190211961D01*
X198238390Y-188211961D01*
X198905057Y-188211961D01*
X199083628Y-188307200D01*
X199166961Y-188402438D01*
X199238390Y-188592914D01*
X199214580Y-188783390D01*
X199095533Y-188973866D01*
X198988390Y-189069104D01*
X198786009Y-189164342D01*
X198119342Y-189164342D01*
X200274104Y-190211961D02*
X200095533Y-190116723D01*
X200012200Y-190021485D01*
X199940771Y-189831009D01*
X200012200Y-189259580D01*
X200131247Y-189069104D01*
X200238390Y-188973866D01*
X200440771Y-188878628D01*
X200726485Y-188878628D01*
X200905057Y-188973866D01*
X200988390Y-189069104D01*
X201059819Y-189259580D01*
X200988390Y-189831009D01*
X200869342Y-190021485D01*
X200762200Y-190116723D01*
X200559819Y-190211961D01*
X200274104Y-190211961D01*
X202655057Y-190211961D02*
X202786009Y-189164342D01*
X202714580Y-188973866D01*
X202536009Y-188878628D01*
X202155057Y-188878628D01*
X201952676Y-188973866D01*
X202666961Y-190116723D02*
X202464580Y-190211961D01*
X201988390Y-190211961D01*
X201809819Y-190116723D01*
X201738390Y-189926247D01*
X201762200Y-189735771D01*
X201881247Y-189545295D01*
X202083628Y-189450057D01*
X202559819Y-189450057D01*
X202762200Y-189354819D01*
X203607438Y-190211961D02*
X203774104Y-188878628D01*
X203726485Y-189259580D02*
X203845533Y-189069104D01*
X203952676Y-188973866D01*
X204155057Y-188878628D01*
X204345533Y-188878628D01*
X205702676Y-190211961D02*
X205952676Y-188211961D01*
X205714580Y-190116723D02*
X205512200Y-190211961D01*
X205131247Y-190211961D01*
X204952676Y-190116723D01*
X204869342Y-190021485D01*
X204797914Y-189831009D01*
X204869342Y-189259580D01*
X204988390Y-189069104D01*
X205095533Y-188973866D01*
X205297914Y-188878628D01*
X205678866Y-188878628D01*
X205857438Y-188973866D01*
D10*
D11*
X178934342Y-185600057D02*
X178434342Y-185600057D01*
X178434342Y-186385771D02*
X178434342Y-184885771D01*
X179148628Y-184885771D01*
X179720057Y-186385771D02*
X179720057Y-185385771D01*
X179720057Y-184885771D02*
X179648628Y-184957200D01*
X179720057Y-185028628D01*
X179791485Y-184957200D01*
X179720057Y-184885771D01*
X179720057Y-185028628D01*
X180648628Y-186385771D02*
X180505771Y-186314342D01*
X180434342Y-186171485D01*
X180434342Y-184885771D01*
X181791485Y-186314342D02*
X181648628Y-186385771D01*
X181362914Y-186385771D01*
X181220057Y-186314342D01*
X181148628Y-186171485D01*
X181148628Y-185600057D01*
X181220057Y-185457200D01*
X181362914Y-185385771D01*
X181648628Y-185385771D01*
X181791485Y-185457200D01*
X181862914Y-185600057D01*
X181862914Y-185742914D01*
X181148628Y-185885771D01*
X182505771Y-186242914D02*
X182577200Y-186314342D01*
X182505771Y-186385771D01*
X182434342Y-186314342D01*
X182505771Y-186242914D01*
X182505771Y-186385771D01*
X182505771Y-185457200D02*
X182577200Y-185528628D01*
X182505771Y-185600057D01*
X182434342Y-185528628D01*
X182505771Y-185457200D01*
X182505771Y-185600057D01*
X184648628Y-184885771D02*
X184934342Y-184885771D01*
X185077200Y-184957200D01*
X185220057Y-185100057D01*
X185291485Y-185385771D01*
X185291485Y-185885771D01*
X185220057Y-186171485D01*
X185077200Y-186314342D01*
X184934342Y-186385771D01*
X184648628Y-186385771D01*
X184505771Y-186314342D01*
X184362914Y-186171485D01*
X184291485Y-185885771D01*
X184291485Y-185385771D01*
X184362914Y-185100057D01*
X184505771Y-184957200D01*
X184648628Y-184885771D01*
X185720057Y-184885771D02*
X186220057Y-186385771D01*
X186720057Y-184885771D01*
X186862914Y-186528628D02*
X188005771Y-186528628D01*
X188362914Y-186385771D02*
X188362914Y-184885771D01*
X188934342Y-184885771D01*
X189077200Y-184957200D01*
X189148628Y-185028628D01*
X189220057Y-185171485D01*
X189220057Y-185385771D01*
X189148628Y-185528628D01*
X189077200Y-185600057D01*
X188934342Y-185671485D01*
X188362914Y-185671485D01*
X190077200Y-186385771D02*
X189934342Y-186314342D01*
X189862914Y-186242914D01*
X189791485Y-186100057D01*
X189791485Y-185671485D01*
X189862914Y-185528628D01*
X189934342Y-185457200D01*
X190077200Y-185385771D01*
X190291485Y-185385771D01*
X190434342Y-185457200D01*
X190505771Y-185528628D01*
X190577200Y-185671485D01*
X190577200Y-186100057D01*
X190505771Y-186242914D01*
X190434342Y-186314342D01*
X190291485Y-186385771D01*
X190077200Y-186385771D01*
X191077200Y-185385771D02*
X191362914Y-186385771D01*
X191648628Y-185671485D01*
X191934342Y-186385771D01*
X192220057Y-185385771D01*
X193362914Y-186314342D02*
X193220057Y-186385771D01*
X192934342Y-186385771D01*
X192791485Y-186314342D01*
X192720057Y-186171485D01*
X192720057Y-185600057D01*
X192791485Y-185457200D01*
X192934342Y-185385771D01*
X193220057Y-185385771D01*
X193362914Y-185457200D01*
X193434342Y-185600057D01*
X193434342Y-185742914D01*
X192720057Y-185885771D01*
X194077200Y-186385771D02*
X194077200Y-185385771D01*
X194077200Y-185671485D02*
X194148628Y-185528628D01*
X194220057Y-185457200D01*
X194362914Y-185385771D01*
X194505771Y-185385771D01*
X195005771Y-186242914D02*
X195077200Y-186314342D01*
X195005771Y-186385771D01*
X194934342Y-186314342D01*
X195005771Y-186242914D01*
X195005771Y-186385771D01*
X195720057Y-186385771D02*
X195720057Y-184885771D01*
X195862914Y-185814342D02*
X196291485Y-186385771D01*
X196291485Y-185385771D02*
X195720057Y-185957200D01*
X196934342Y-186385771D02*
X196934342Y-185385771D01*
X196934342Y-184885771D02*
X196862914Y-184957200D01*
X196934342Y-185028628D01*
X197005771Y-184957200D01*
X196934342Y-184885771D01*
X196934342Y-185028628D01*
X198291485Y-186314342D02*
X198148628Y-186385771D01*
X197862914Y-186385771D01*
X197720057Y-186314342D01*
X197648628Y-186242914D01*
X197577200Y-186100057D01*
X197577200Y-185671485D01*
X197648628Y-185528628D01*
X197720057Y-185457200D01*
X197862914Y-185385771D01*
X198148628Y-185385771D01*
X198291485Y-185457200D01*
X199577200Y-186385771D02*
X199577200Y-185600057D01*
X199505771Y-185457200D01*
X199362914Y-185385771D01*
X199077200Y-185385771D01*
X198934342Y-185457200D01*
X199577200Y-186314342D02*
X199434342Y-186385771D01*
X199077200Y-186385771D01*
X198934342Y-186314342D01*
X198862914Y-186171485D01*
X198862914Y-186028628D01*
X198934342Y-185885771D01*
X199077200Y-185814342D01*
X199434342Y-185814342D01*
X199577200Y-185742914D01*
X200934342Y-186385771D02*
X200934342Y-184885771D01*
X200934342Y-186314342D02*
X200791485Y-186385771D01*
X200505771Y-186385771D01*
X200362914Y-186314342D01*
X200291485Y-186242914D01*
X200220057Y-186100057D01*
X200220057Y-185671485D01*
X200291485Y-185528628D01*
X200362914Y-185457200D01*
X200505771Y-185385771D01*
X200791485Y-185385771D01*
X200934342Y-185457200D01*
X201291485Y-186528628D02*
X202434342Y-186528628D01*
X202791485Y-185385771D02*
X202791485Y-186885771D01*
X202791485Y-185457200D02*
X202934342Y-185385771D01*
X203220057Y-185385771D01*
X203362914Y-185457200D01*
X203434342Y-185528628D01*
X203505771Y-185671485D01*
X203505771Y-186100057D01*
X203434342Y-186242914D01*
X203362914Y-186314342D01*
X203220057Y-186385771D01*
X202934342Y-186385771D01*
X202791485Y-186314342D01*
X204791485Y-186314342D02*
X204648628Y-186385771D01*
X204362914Y-186385771D01*
X204220057Y-186314342D01*
X204148628Y-186242914D01*
X204077200Y-186100057D01*
X204077200Y-185671485D01*
X204148628Y-185528628D01*
X204220057Y-185457200D01*
X204362914Y-185385771D01*
X204648628Y-185385771D01*
X204791485Y-185457200D01*
X205434342Y-186385771D02*
X205434342Y-184885771D01*
X205434342Y-185457200D02*
X205577200Y-185385771D01*
X205862914Y-185385771D01*
X206005771Y-185457200D01*
X206077200Y-185528628D01*
X206148628Y-185671485D01*
X206148628Y-186100057D01*
X206077200Y-186242914D01*
X206005771Y-186314342D01*
X205862914Y-186385771D01*
X205577200Y-186385771D01*
X205434342Y-186314342D01*
D10*
D11*
X177002200Y-181507200D02*
X285002200Y-181507200D01*
D10*
D11*
X178362914Y-183614342D02*
X178577200Y-183685771D01*
X178934342Y-183685771D01*
X179077200Y-183614342D01*
X179148628Y-183542914D01*
X179220057Y-183400057D01*
X179220057Y-183257200D01*
X179148628Y-183114342D01*
X179077200Y-183042914D01*
X178934342Y-182971485D01*
X178648628Y-182900057D01*
X178505771Y-182828628D01*
X178434342Y-182757200D01*
X178362914Y-182614342D01*
X178362914Y-182471485D01*
X178434342Y-182328628D01*
X178505771Y-182257200D01*
X178648628Y-182185771D01*
X179005771Y-182185771D01*
X179220057Y-182257200D01*
X179862914Y-183685771D02*
X179862914Y-182185771D01*
X180505771Y-183685771D02*
X180505771Y-182900057D01*
X180434342Y-182757200D01*
X180291485Y-182685771D01*
X180077200Y-182685771D01*
X179934342Y-182757200D01*
X179862914Y-182828628D01*
X181791485Y-183614342D02*
X181648628Y-183685771D01*
X181362914Y-183685771D01*
X181220057Y-183614342D01*
X181148628Y-183471485D01*
X181148628Y-182900057D01*
X181220057Y-182757200D01*
X181362914Y-182685771D01*
X181648628Y-182685771D01*
X181791485Y-182757200D01*
X181862914Y-182900057D01*
X181862914Y-183042914D01*
X181148628Y-183185771D01*
X183077200Y-183614342D02*
X182934342Y-183685771D01*
X182648628Y-183685771D01*
X182505771Y-183614342D01*
X182434342Y-183471485D01*
X182434342Y-182900057D01*
X182505771Y-182757200D01*
X182648628Y-182685771D01*
X182934342Y-182685771D01*
X183077200Y-182757200D01*
X183148628Y-182900057D01*
X183148628Y-183042914D01*
X182434342Y-183185771D01*
X183577200Y-182685771D02*
X184148628Y-182685771D01*
X183791485Y-182185771D02*
X183791485Y-183471485D01*
X183862914Y-183614342D01*
X184005771Y-183685771D01*
X184148628Y-183685771D01*
X184648628Y-183542914D02*
X184720057Y-183614342D01*
X184648628Y-183685771D01*
X184577200Y-183614342D01*
X184648628Y-183542914D01*
X184648628Y-183685771D01*
X184648628Y-182757200D02*
X184720057Y-182828628D01*
X184648628Y-182900057D01*
X184577200Y-182828628D01*
X184648628Y-182757200D01*
X184648628Y-182900057D01*
D10*
D12*
X178840057Y-179185771D02*
X179125771Y-179185771D01*
X179268628Y-179257200D01*
X179411485Y-179400057D01*
X179482914Y-179685771D01*
X179482914Y-180185771D01*
X179411485Y-180471485D01*
X179268628Y-180614342D01*
X179125771Y-180685771D01*
X178840057Y-180685771D01*
X178697200Y-180614342D01*
X178554342Y-180471485D01*
X178482914Y-180185771D01*
X178482914Y-179685771D01*
X178554342Y-179400057D01*
X178697200Y-179257200D01*
X178840057Y-179185771D01*
X180125771Y-179685771D02*
X180125771Y-181185771D01*
X180125771Y-179757200D02*
X180268628Y-179685771D01*
X180554342Y-179685771D01*
X180697200Y-179757200D01*
X180768628Y-179828628D01*
X180840057Y-179971485D01*
X180840057Y-180400057D01*
X180768628Y-180542914D01*
X180697200Y-180614342D01*
X180554342Y-180685771D01*
X180268628Y-180685771D01*
X180125771Y-180614342D01*
X182054342Y-180614342D02*
X181911485Y-180685771D01*
X181625771Y-180685771D01*
X181482914Y-180614342D01*
X181411485Y-180471485D01*
X181411485Y-179900057D01*
X181482914Y-179757200D01*
X181625771Y-179685771D01*
X181911485Y-179685771D01*
X182054342Y-179757200D01*
X182125771Y-179900057D01*
X182125771Y-180042914D01*
X181411485Y-180185771D01*
X182768628Y-179685771D02*
X182768628Y-180685771D01*
X182768628Y-179828628D02*
X182840057Y-179757200D01*
X182982914Y-179685771D01*
X183197200Y-179685771D01*
X183340057Y-179757200D01*
X183411485Y-179900057D01*
X183411485Y-180685771D01*
X183911485Y-179185771D02*
X184411485Y-180685771D01*
X184911485Y-179185771D01*
X185982914Y-180614342D02*
X185840057Y-180685771D01*
X185554342Y-180685771D01*
X185411485Y-180614342D01*
X185340057Y-180471485D01*
X185340057Y-179900057D01*
X185411485Y-179757200D01*
X185554342Y-179685771D01*
X185840057Y-179685771D01*
X185982914Y-179757200D01*
X186054342Y-179900057D01*
X186054342Y-180042914D01*
X185340057Y-180185771D01*
X186697200Y-179685771D02*
X186697200Y-180685771D01*
X186697200Y-179828628D02*
X186768628Y-179757200D01*
X186911485Y-179685771D01*
X187125771Y-179685771D01*
X187268628Y-179757200D01*
X187340057Y-179900057D01*
X187340057Y-180685771D01*
X187840057Y-179685771D02*
X188411485Y-179685771D01*
X188054342Y-179185771D02*
X188054342Y-180471485D01*
X188125771Y-180614342D01*
X188268628Y-180685771D01*
X188411485Y-180685771D01*
X190554342Y-179900057D02*
X190768628Y-179971485D01*
X190840057Y-180042914D01*
X190911485Y-180185771D01*
X190911485Y-180400057D01*
X190840057Y-180542914D01*
X190768628Y-180614342D01*
X190625771Y-180685771D01*
X190054342Y-180685771D01*
X190054342Y-179185771D01*
X190554342Y-179185771D01*
X190697200Y-179257200D01*
X190768628Y-179328628D01*
X190840057Y-179471485D01*
X190840057Y-179614342D01*
X190768628Y-179757200D01*
X190697200Y-179828628D01*
X190554342Y-179900057D01*
X190054342Y-179900057D01*
X191554342Y-180685771D02*
X191554342Y-179685771D01*
X191554342Y-179971485D02*
X191625771Y-179828628D01*
X191697200Y-179757200D01*
X191840057Y-179685771D01*
X191982914Y-179685771D01*
X192482914Y-180685771D02*
X192482914Y-179685771D01*
X192482914Y-179185771D02*
X192411485Y-179257200D01*
X192482914Y-179328628D01*
X192554342Y-179257200D01*
X192482914Y-179185771D01*
X192482914Y-179328628D01*
X193125771Y-180614342D02*
X193268628Y-180685771D01*
X193554342Y-180685771D01*
X193697200Y-180614342D01*
X193768628Y-180471485D01*
X193768628Y-180400057D01*
X193697200Y-180257200D01*
X193554342Y-180185771D01*
X193340057Y-180185771D01*
X193197200Y-180114342D01*
X193125771Y-179971485D01*
X193125771Y-179900057D01*
X193197200Y-179757200D01*
X193340057Y-179685771D01*
X193554342Y-179685771D01*
X193697200Y-179757200D01*
X194197200Y-179685771D02*
X194768628Y-179685771D01*
X194411485Y-179185771D02*
X194411485Y-180471485D01*
X194482914Y-180614342D01*
X194625771Y-180685771D01*
X194768628Y-180685771D01*
X195482914Y-180685771D02*
X195340057Y-180614342D01*
X195268628Y-180542914D01*
X195197200Y-180400057D01*
X195197200Y-179971485D01*
X195268628Y-179828628D01*
X195340057Y-179757200D01*
X195482914Y-179685771D01*
X195697200Y-179685771D01*
X195840057Y-179757200D01*
X195911485Y-179828628D01*
X195982914Y-179971485D01*
X195982914Y-180400057D01*
X195911485Y-180542914D01*
X195840057Y-180614342D01*
X195697200Y-180685771D01*
X195482914Y-180685771D01*
X196840057Y-180685771D02*
X196697200Y-180614342D01*
X196625771Y-180471485D01*
X196625771Y-179185771D01*
D10*
D11*
X197002200Y-191507200D02*
X197002200Y-194507200D01*
D10*
D11*
X261002200Y-191507200D02*
X261002200Y-198007200D01*
D14*
X38200000Y-82500000D02*
G75*
G03*
X38200000Y-82500000I-3000000J0D01*
G01*
X38200000Y-35200000D02*
G75*
G03*
X38200000Y-35200000I-3000000J0D01*
G01*
X120000000Y-58750000D02*
G75*
G03*
X120000000Y-58750000I-3000000J0D01*
G01*
X202000000Y-82500000D02*
G75*
G03*
X202000000Y-82500000I-3000000J0D01*
G01*
X202000000Y-35200000D02*
G75*
G03*
X202000000Y-35200000I-3000000J0D01*
G01*
D15*
X116260000Y-48700000D03*
X112300000Y-48700000D03*
D16*
X108340000Y-48700000D03*
D17*
X188649600Y-80286400D03*
X192609600Y-80286400D03*
D18*
X36908800Y-74030400D03*
X36908800Y-72030400D03*
X36908800Y-70030400D03*
X36908800Y-68030400D03*
X36908800Y-66030400D03*
%TA.AperFunction,ComponentPad*%
G36*
G01*
X36258799Y-63430400D02*
X37558801Y-63430400D01*
G75*
G02*
X37808800Y-63680399I0J-249999D01*
G01*
X37808800Y-64380401D01*
G75*
G02*
X37558801Y-64630400I-249999J0D01*
G01*
X36258799Y-64630400D01*
G75*
G02*
X36008800Y-64380401I0J249999D01*
G01*
X36008800Y-63680399D01*
G75*
G02*
X36258799Y-63430400I249999J0D01*
G01*
G37*
%TD.AperFunction*%
D19*
X54300000Y-83600000D03*
%TA.AperFunction,ComponentPad*%
G36*
G01*
X57710000Y-82754999D02*
X57710000Y-84445001D01*
G75*
G02*
X57460001Y-84695000I-249999J0D01*
G01*
X56219999Y-84695000D01*
G75*
G02*
X55970000Y-84445001I0J249999D01*
G01*
X55970000Y-82754999D01*
G75*
G02*
X56219999Y-82505000I249999J0D01*
G01*
X57460001Y-82505000D01*
G75*
G02*
X57710000Y-82754999I0J-249999D01*
G01*
G37*
%TD.AperFunction*%
D20*
X55200000Y-33800000D03*
X70800000Y-33800000D03*
D21*
X55200000Y-42300000D03*
X70800000Y-42300000D03*
D22*
X63000000Y-31800000D03*
D21*
X60500000Y-37300000D03*
X65500000Y-37300000D03*
X60100000Y-40950000D03*
X65900000Y-40950000D03*
D19*
X61660000Y-83600000D03*
%TA.AperFunction,ComponentPad*%
G36*
G01*
X65070000Y-82754999D02*
X65070000Y-84445001D01*
G75*
G02*
X64820001Y-84695000I-249999J0D01*
G01*
X63579999Y-84695000D01*
G75*
G02*
X63330000Y-84445001I0J249999D01*
G01*
X63330000Y-82754999D01*
G75*
G02*
X63579999Y-82505000I249999J0D01*
G01*
X64820001Y-82505000D01*
G75*
G02*
X65070000Y-82754999I0J-249999D01*
G01*
G37*
%TD.AperFunction*%
D23*
X102150000Y-41700000D03*
X107250000Y-42900000D03*
D24*
X42560000Y-47540000D03*
X45100000Y-47540000D03*
X42560000Y-50080000D03*
X45100000Y-50080000D03*
X42560000Y-52620000D03*
X45100000Y-52620000D03*
X42560000Y-55160000D03*
X45100000Y-55160000D03*
X42560000Y-57700000D03*
X45100000Y-57700000D03*
X42560000Y-60240000D03*
X45100000Y-60240000D03*
X42560000Y-62780000D03*
X45100000Y-62780000D03*
X42560000Y-65320000D03*
X45100000Y-65320000D03*
X42560000Y-67860000D03*
X45100000Y-67860000D03*
X42560000Y-70400000D03*
D25*
X45100000Y-70400000D03*
D26*
X121000000Y-40200000D03*
X97100000Y-46300000D03*
X80900000Y-53800000D03*
X74350000Y-70550000D03*
X79100000Y-72600000D03*
X56539025Y-51623959D03*
X63900000Y-59300000D03*
X64025000Y-53325000D03*
X58425000Y-46525000D03*
X69300000Y-58400000D03*
X67200000Y-58400000D03*
X69100000Y-52800000D03*
X67200000Y-52800000D03*
X53450000Y-59150000D03*
X59100000Y-59000000D03*
X62500000Y-61300000D03*
X68600000Y-65900000D03*
X71800000Y-70200000D03*
X52000000Y-71800000D03*
X59100000Y-77100000D03*
X51500000Y-77100000D03*
X98825000Y-82425000D03*
D27*
X190620800Y-44189600D03*
D26*
X78500000Y-56300000D03*
X78500000Y-53100000D03*
X75675000Y-47575000D03*
X88525000Y-68375000D03*
X104500000Y-59800000D03*
D28*
X104450000Y-55450000D03*
D27*
X172708000Y-32033600D03*
X161308000Y-32033600D03*
X139188800Y-46988000D03*
X139188800Y-57988000D03*
X107100000Y-40700000D03*
X105300000Y-40700000D03*
D26*
X161368800Y-47573000D03*
D28*
X163903200Y-71348000D03*
X162903200Y-71348000D03*
X161903200Y-71348000D03*
X171903200Y-71348000D03*
X170903200Y-71348000D03*
X169903200Y-71348000D03*
D27*
X194388800Y-58239200D03*
D26*
X68300000Y-58400000D03*
X68201600Y-52800000D03*
X87700000Y-86600000D03*
X89100000Y-86100000D03*
X86200000Y-85812010D03*
X165940800Y-48790400D03*
X169903200Y-47876000D03*
X93400000Y-83500000D03*
X170919200Y-47876000D03*
X93400000Y-86100000D03*
X164903200Y-49523200D03*
X100600000Y-85400000D03*
X167963542Y-48283210D03*
X99600000Y-42300000D03*
X100300000Y-46000000D03*
X65900000Y-75800000D03*
X62600000Y-75800000D03*
X62500000Y-52400000D03*
X65700000Y-49200000D03*
X39200000Y-58100000D03*
D28*
X159903200Y-49448000D03*
X158403200Y-61248000D03*
X173903200Y-49248000D03*
X175403200Y-61148000D03*
D29*
X42500000Y-57700000D02*
X42560000Y-57700000D01*
X33111159Y-75167959D02*
X33111159Y-62934729D01*
X45036800Y-87093600D02*
X33111159Y-75167959D01*
X87206400Y-87093600D02*
X45036800Y-87093600D01*
X87700000Y-86600000D02*
X87206400Y-87093600D01*
X35122544Y-60923344D02*
X39203056Y-60923344D01*
X33111159Y-62934729D02*
X35122544Y-60923344D01*
X42426400Y-57700000D02*
X42560000Y-57700000D01*
X39203056Y-60923344D02*
X42426400Y-57700000D01*
X43884400Y-58915600D02*
X45100000Y-57700000D01*
X33527168Y-63107048D02*
X35264308Y-61369908D01*
X41820400Y-58915600D02*
X43884400Y-58915600D01*
X33527168Y-74995640D02*
X33527168Y-63107048D01*
X45209117Y-86677589D02*
X33527168Y-74995640D01*
X86499211Y-86677589D02*
X45209117Y-86677589D01*
X39366092Y-61369908D02*
X41820400Y-58915600D01*
X35264308Y-61369908D02*
X39366092Y-61369908D01*
X87476799Y-85700001D02*
X86499211Y-86677589D01*
X88700001Y-85700001D02*
X87476799Y-85700001D01*
X89100000Y-86100000D02*
X88700001Y-85700001D01*
X45381433Y-86261577D02*
X33943179Y-74823323D01*
X35436625Y-61785919D02*
X41014081Y-61785919D01*
X33943179Y-74823323D02*
X33943179Y-63279365D01*
X41014081Y-61785919D02*
X42560000Y-60240000D01*
X85750432Y-86261578D02*
X45381433Y-86261577D01*
X86200000Y-85812010D02*
X85750432Y-86261578D01*
X33943179Y-63279365D02*
X35436625Y-61785919D01*
X43849600Y-61490400D02*
X45100000Y-60240000D01*
X41897928Y-61490400D02*
X43849600Y-61490400D01*
X41186400Y-62201928D02*
X41897928Y-61490400D01*
X34359190Y-63451682D02*
X35608944Y-62201928D01*
X120322400Y-86585600D02*
X95085600Y-86585600D01*
X121643200Y-85264800D02*
X120322400Y-86585600D01*
X34359190Y-74651006D02*
X34359190Y-63451682D01*
X93600000Y-85100000D02*
X85638400Y-85100000D01*
X165940800Y-48790400D02*
X164518400Y-48790400D01*
X35608944Y-62201928D02*
X41186400Y-62201928D01*
X160556000Y-84655200D02*
X158611200Y-86600000D01*
X164518400Y-48790400D02*
X164112000Y-49196800D01*
X45553751Y-85845567D02*
X34359190Y-74651006D01*
X160556000Y-68094400D02*
X160556000Y-84655200D01*
X158611200Y-86600000D02*
X135272000Y-86600000D01*
X164112000Y-49196800D02*
X164112000Y-64538400D01*
X164112000Y-64538400D02*
X160556000Y-68094400D01*
X135272000Y-86600000D02*
X133428800Y-84756800D01*
X133428800Y-84756800D02*
X133428800Y-77746400D01*
X85638400Y-85100000D02*
X84892833Y-85845567D01*
X132282400Y-76600000D02*
X122789600Y-76600000D01*
X84892833Y-85845567D02*
X45553751Y-85845567D01*
X95085600Y-86585600D02*
X93600000Y-85100000D01*
X122789600Y-76600000D02*
X121643200Y-77746400D01*
X133428800Y-77746400D02*
X132282400Y-76600000D01*
X121643200Y-77746400D02*
X121643200Y-85264800D01*
X42560000Y-62840000D02*
X42560000Y-62780000D01*
X86332800Y-84600000D02*
X85600000Y-84600000D01*
X40941600Y-62780000D02*
X42560000Y-62780000D01*
X40699200Y-62780000D02*
X40941600Y-62780000D01*
X85224000Y-84600000D02*
X86332800Y-84600000D01*
X45827668Y-85429556D02*
X84394444Y-85429556D01*
X36197600Y-75816000D02*
X36214112Y-75816000D01*
X34775200Y-63725600D02*
X34775200Y-74393600D01*
X36214112Y-75816000D02*
X45827668Y-85429556D01*
X35720800Y-62780000D02*
X34775200Y-63725600D01*
X84394444Y-85429556D02*
X85224000Y-84600000D01*
X34775200Y-74393600D02*
X36197600Y-75816000D01*
X40941600Y-62780000D02*
X35720800Y-62780000D01*
X100900000Y-84600000D02*
X86332800Y-84600000D01*
X120017600Y-85569600D02*
X101869600Y-85569600D01*
X120627200Y-77340000D02*
X120627200Y-84960000D01*
X135796482Y-85680810D02*
X134444800Y-84329128D01*
X163096000Y-48892000D02*
X163096000Y-64335200D01*
X159540000Y-84471220D02*
X158330410Y-85680810D01*
X120627200Y-84960000D02*
X120017600Y-85569600D01*
X132730400Y-75600000D02*
X122367200Y-75600000D01*
X163096000Y-64335200D02*
X159540000Y-67891200D01*
X159540000Y-67891200D02*
X159540000Y-84471220D01*
X134444800Y-84329128D02*
X134444800Y-77314400D01*
X158330410Y-85680810D02*
X135796482Y-85680810D01*
X134444800Y-77314400D02*
X132730400Y-75600000D01*
X101869600Y-85569600D02*
X100900000Y-84600000D01*
X122367200Y-75600000D02*
X120627200Y-77340000D01*
X164416800Y-47571200D02*
X163096000Y-48892000D01*
X168684000Y-47571200D02*
X168988800Y-47876000D01*
X164416800Y-47571200D02*
X168684000Y-47571200D01*
X168988800Y-47876000D02*
X169903200Y-47876000D01*
X102034400Y-85061600D02*
X101120000Y-84147200D01*
X120119200Y-77238400D02*
X120119200Y-84858400D01*
X170919200Y-47876000D02*
X170106400Y-47063200D01*
X170106400Y-47063200D02*
X164315200Y-47063200D01*
X164315200Y-47063200D02*
X162588000Y-48790400D01*
X162588000Y-48790400D02*
X162588000Y-64233600D01*
X158117600Y-85264800D02*
X135968800Y-85264800D01*
X101120000Y-84147200D02*
X94047200Y-84147200D01*
X162588000Y-64233600D02*
X159032000Y-67789600D01*
X159032000Y-84350400D02*
X158117600Y-85264800D01*
X94047200Y-84147200D02*
X93400000Y-83500000D01*
X159032000Y-67789600D02*
X159032000Y-84350400D01*
X134952800Y-84248800D02*
X134952800Y-77136800D01*
X122252800Y-75104800D02*
X120119200Y-77238400D01*
X135968800Y-85264800D02*
X134952800Y-84248800D01*
X120119200Y-84858400D02*
X119916000Y-85061600D01*
X134952800Y-77136800D02*
X132920800Y-75104800D01*
X119916000Y-85061600D02*
X102034400Y-85061600D01*
X132920800Y-75104800D02*
X122252800Y-75104800D01*
X94393600Y-87093600D02*
X93400000Y-86100000D01*
X122151200Y-85366400D02*
X120424000Y-87093600D01*
X164903200Y-49523200D02*
X164903200Y-50844000D01*
X164903200Y-50844000D02*
X164620000Y-51127200D01*
X120424000Y-87093600D02*
X94393600Y-87093600D01*
X122900506Y-77162990D02*
X122151200Y-77912296D01*
X164620000Y-51127200D02*
X164620000Y-64640000D01*
X161064000Y-68196000D02*
X161064000Y-84756800D01*
X161064000Y-84756800D02*
X158720800Y-87100000D01*
X164620000Y-64640000D02*
X161064000Y-68196000D01*
X158720800Y-87100000D02*
X135060800Y-87100000D01*
X135060800Y-87100000D02*
X132920800Y-84960000D01*
X132920800Y-84960000D02*
X132920800Y-77894452D01*
X132920800Y-77894452D02*
X132189338Y-77162990D01*
X132189338Y-77162990D02*
X122900506Y-77162990D01*
X122151200Y-77912296D02*
X122151200Y-85366400D01*
X101277600Y-86077600D02*
X120119200Y-86077600D01*
X121135200Y-77543200D02*
X122578400Y-76100000D01*
X120119200Y-86077600D02*
X121135200Y-85061600D01*
X121135200Y-85061600D02*
X121135200Y-77543200D01*
X133936800Y-77543200D02*
X133936800Y-84553600D01*
X135483200Y-86100000D02*
X158501600Y-86100000D01*
X158501600Y-86100000D02*
X160048000Y-84553600D01*
X160048000Y-67992800D02*
X163604000Y-64436800D01*
X122578400Y-76100000D02*
X132493600Y-76100000D01*
X163604000Y-64436800D02*
X163604000Y-49095200D01*
X100600000Y-85400000D02*
X101277600Y-86077600D01*
X163604000Y-49095200D02*
X164620801Y-48078399D01*
X160048000Y-84553600D02*
X160048000Y-67992800D01*
X133936800Y-84553600D02*
X135483200Y-86100000D01*
X132493600Y-76100000D02*
X133936800Y-77543200D01*
X166754401Y-48078399D02*
X166754401Y-48080001D01*
X164620801Y-48078399D02*
X166754401Y-48078399D01*
X166957610Y-48283210D02*
X167963542Y-48283210D01*
X166754401Y-48080001D02*
X166957610Y-48283210D01*
X99600000Y-42300000D02*
X99600000Y-45300000D01*
X99600000Y-45300000D02*
X100300000Y-46000000D01*
D30*
X65900000Y-75800000D02*
X62600000Y-75800000D01*
D29*
X62500000Y-52400000D02*
X65700000Y-49200000D01*
X39200000Y-58100000D02*
X40900000Y-56400000D01*
X43860000Y-56400000D02*
X45100000Y-55160000D01*
X40900000Y-56400000D02*
X43860000Y-56400000D01*
X43849600Y-64030400D02*
X45100000Y-62780000D01*
X36908800Y-64030400D02*
X43849600Y-64030400D01*
X36908800Y-66030400D02*
X38972800Y-66030400D01*
X39683200Y-65320000D02*
X42560000Y-65320000D01*
X38972800Y-66030400D02*
X39683200Y-65320000D01*
X36908800Y-68030400D02*
X38700000Y-68030400D01*
X38700000Y-68030400D02*
X40058400Y-66672000D01*
X43748000Y-66672000D02*
X45100000Y-65320000D01*
X40058400Y-66672000D02*
X43748000Y-66672000D01*
D31*
X158403200Y-50748000D02*
X159903200Y-49448000D01*
X158403200Y-61248000D02*
X158403200Y-50748000D01*
X175403200Y-50648000D02*
X173903200Y-49248000D01*
X175403200Y-61148000D02*
X175403200Y-50648000D01*
D32*
X203594000Y-87094000D02*
X159412693Y-87094000D01*
X161390099Y-85116594D01*
X161408606Y-85101406D01*
X161454979Y-85044900D01*
X161469213Y-85027556D01*
X161501835Y-84966523D01*
X161514249Y-84943299D01*
X161541982Y-84851876D01*
X161549000Y-84780620D01*
X161549000Y-84780618D01*
X161551346Y-84756801D01*
X161549000Y-84732984D01*
X161549000Y-82166595D01*
X195614879Y-82166595D01*
X195614879Y-82833405D01*
X195744967Y-83487403D01*
X196000145Y-84103456D01*
X196370605Y-84657889D01*
X196842111Y-85129395D01*
X197396544Y-85499855D01*
X198012597Y-85755033D01*
X198666595Y-85885121D01*
X199333405Y-85885121D01*
X199987403Y-85755033D01*
X200603456Y-85499855D01*
X201157889Y-85129395D01*
X201629395Y-84657889D01*
X201999855Y-84103456D01*
X202255033Y-83487403D01*
X202385121Y-82833405D01*
X202385121Y-82166595D01*
X202255033Y-81512597D01*
X201999855Y-80896544D01*
X201629395Y-80342111D01*
X201157889Y-79870605D01*
X200603456Y-79500145D01*
X199987403Y-79244967D01*
X199333405Y-79114879D01*
X198666595Y-79114879D01*
X198012597Y-79244967D01*
X197396544Y-79500145D01*
X196842111Y-79870605D01*
X196370605Y-80342111D01*
X196000145Y-80896544D01*
X195744967Y-81512597D01*
X195614879Y-82166595D01*
X161549000Y-82166595D01*
X161549000Y-80115911D01*
X186918600Y-80115911D01*
X186918600Y-80456889D01*
X186985121Y-80791314D01*
X187115607Y-81106336D01*
X187305044Y-81389848D01*
X187546152Y-81630956D01*
X187829664Y-81820393D01*
X188144686Y-81950879D01*
X188479111Y-82017400D01*
X188820089Y-82017400D01*
X189154514Y-81950879D01*
X189469536Y-81820393D01*
X189753048Y-81630956D01*
X189994156Y-81389848D01*
X190183593Y-81106336D01*
X190314079Y-80791314D01*
X190380600Y-80456889D01*
X190380600Y-80115911D01*
X190878600Y-80115911D01*
X190878600Y-80456889D01*
X190945121Y-80791314D01*
X191075607Y-81106336D01*
X191265044Y-81389848D01*
X191506152Y-81630956D01*
X191789664Y-81820393D01*
X192104686Y-81950879D01*
X192439111Y-82017400D01*
X192780089Y-82017400D01*
X193114514Y-81950879D01*
X193429536Y-81820393D01*
X193713048Y-81630956D01*
X193954156Y-81389848D01*
X194143593Y-81106336D01*
X194274079Y-80791314D01*
X194340600Y-80456889D01*
X194340600Y-80115911D01*
X194274079Y-79781486D01*
X194143593Y-79466464D01*
X193954156Y-79182952D01*
X193713048Y-78941844D01*
X193429536Y-78752407D01*
X193114514Y-78621921D01*
X192780089Y-78555400D01*
X192439111Y-78555400D01*
X192104686Y-78621921D01*
X191789664Y-78752407D01*
X191506152Y-78941844D01*
X191265044Y-79182952D01*
X191075607Y-79466464D01*
X190945121Y-79781486D01*
X190878600Y-80115911D01*
X190380600Y-80115911D01*
X190314079Y-79781486D01*
X190183593Y-79466464D01*
X189994156Y-79182952D01*
X189753048Y-78941844D01*
X189469536Y-78752407D01*
X189154514Y-78621921D01*
X188820089Y-78555400D01*
X188479111Y-78555400D01*
X188144686Y-78621921D01*
X187829664Y-78752407D01*
X187546152Y-78941844D01*
X187305044Y-79182952D01*
X187115607Y-79466464D01*
X186985121Y-79781486D01*
X186918600Y-80115911D01*
X161549000Y-80115911D01*
X161549000Y-68396893D01*
X164946099Y-64999794D01*
X164964606Y-64984606D01*
X165025213Y-64910755D01*
X165070249Y-64826499D01*
X165097982Y-64735076D01*
X165105000Y-64663820D01*
X165105000Y-64663818D01*
X165107346Y-64640001D01*
X165105000Y-64616184D01*
X165105000Y-51328092D01*
X165229294Y-51203798D01*
X165247806Y-51188606D01*
X165308413Y-51114755D01*
X165353449Y-51030499D01*
X165381182Y-50939076D01*
X165388200Y-50867820D01*
X165388200Y-50867818D01*
X165390546Y-50844001D01*
X165388200Y-50820184D01*
X165388200Y-50138434D01*
X165401059Y-50129842D01*
X165509842Y-50021059D01*
X165595313Y-49893142D01*
X165654187Y-49751009D01*
X165684200Y-49600122D01*
X165684200Y-49529461D01*
X165712991Y-49541387D01*
X165863878Y-49571400D01*
X166017722Y-49571400D01*
X166168609Y-49541387D01*
X166310742Y-49482513D01*
X166438659Y-49397042D01*
X166547442Y-49288259D01*
X166632320Y-49161229D01*
X173022200Y-49161229D01*
X173022200Y-49334771D01*
X173056056Y-49504978D01*
X173122468Y-49665310D01*
X173218882Y-49809605D01*
X173341595Y-49932318D01*
X173485890Y-50028732D01*
X173646222Y-50095144D01*
X173718211Y-50109463D01*
X174647201Y-50976522D01*
X174647200Y-60693676D01*
X174622468Y-60730690D01*
X174556056Y-60891022D01*
X174522200Y-61061229D01*
X174522200Y-61234771D01*
X174556056Y-61404978D01*
X174622468Y-61565310D01*
X174718882Y-61709605D01*
X174841595Y-61832318D01*
X174985890Y-61928732D01*
X175146222Y-61995144D01*
X175316429Y-62029000D01*
X175489971Y-62029000D01*
X175660178Y-61995144D01*
X175820510Y-61928732D01*
X175964805Y-61832318D01*
X176087518Y-61709605D01*
X176183932Y-61565310D01*
X176250344Y-61404978D01*
X176284200Y-61234771D01*
X176284200Y-61061229D01*
X176250344Y-60891022D01*
X176183932Y-60730690D01*
X176159200Y-60693676D01*
X176159200Y-50672064D01*
X176162405Y-50621820D01*
X176154282Y-50560941D01*
X176148260Y-50499798D01*
X176144447Y-50487228D01*
X176142710Y-50474209D01*
X176122865Y-50416080D01*
X176105032Y-50357292D01*
X176098839Y-50345706D01*
X176094596Y-50333277D01*
X176063796Y-50280144D01*
X176034832Y-50225957D01*
X176026496Y-50215799D01*
X176019911Y-50204440D01*
X175979343Y-50158343D01*
X175940359Y-50110841D01*
X175901429Y-50078892D01*
X174753648Y-49007630D01*
X174750344Y-48991022D01*
X174683932Y-48830690D01*
X174587518Y-48686395D01*
X174464805Y-48563682D01*
X174320510Y-48467268D01*
X174160178Y-48400856D01*
X173989971Y-48367000D01*
X173816429Y-48367000D01*
X173646222Y-48400856D01*
X173485890Y-48467268D01*
X173341595Y-48563682D01*
X173218882Y-48686395D01*
X173122468Y-48830690D01*
X173056056Y-48991022D01*
X173022200Y-49161229D01*
X166632320Y-49161229D01*
X166632913Y-49160342D01*
X166691787Y-49018209D01*
X166721800Y-48867322D01*
X166721800Y-48713478D01*
X166720381Y-48706343D01*
X166771111Y-48733459D01*
X166862534Y-48761192D01*
X166933790Y-48768210D01*
X166933793Y-48768210D01*
X166957610Y-48770556D01*
X166981427Y-48768210D01*
X167348308Y-48768210D01*
X167356900Y-48781069D01*
X167465683Y-48889852D01*
X167593600Y-48975323D01*
X167735733Y-49034197D01*
X167886620Y-49064210D01*
X168040464Y-49064210D01*
X168191351Y-49034197D01*
X168333484Y-48975323D01*
X168461401Y-48889852D01*
X168570184Y-48781069D01*
X168655655Y-48653152D01*
X168714529Y-48511019D01*
X168744542Y-48360132D01*
X168744542Y-48295376D01*
X168802301Y-48326249D01*
X168893724Y-48353982D01*
X168964980Y-48361000D01*
X168964982Y-48361000D01*
X168988799Y-48363346D01*
X169012616Y-48361000D01*
X169287966Y-48361000D01*
X169296558Y-48373859D01*
X169405341Y-48482642D01*
X169533258Y-48568113D01*
X169675391Y-48626987D01*
X169826278Y-48657000D01*
X169980122Y-48657000D01*
X170131009Y-48626987D01*
X170273142Y-48568113D01*
X170401059Y-48482642D01*
X170411200Y-48472501D01*
X170421341Y-48482642D01*
X170549258Y-48568113D01*
X170691391Y-48626987D01*
X170842278Y-48657000D01*
X170996122Y-48657000D01*
X171147009Y-48626987D01*
X171289142Y-48568113D01*
X171417059Y-48482642D01*
X171525842Y-48373859D01*
X171611313Y-48245942D01*
X171670187Y-48103809D01*
X171700200Y-47952922D01*
X171700200Y-47799078D01*
X171670187Y-47648191D01*
X171611313Y-47506058D01*
X171525842Y-47378141D01*
X171417059Y-47269358D01*
X171289142Y-47183887D01*
X171147009Y-47125013D01*
X170996122Y-47095000D01*
X170842278Y-47095000D01*
X170827110Y-47098017D01*
X170466194Y-46737101D01*
X170451006Y-46718594D01*
X170377155Y-46657987D01*
X170292899Y-46612951D01*
X170201476Y-46585218D01*
X170130220Y-46578200D01*
X170130217Y-46578200D01*
X170106400Y-46575854D01*
X170082583Y-46578200D01*
X164339017Y-46578200D01*
X164315200Y-46575854D01*
X164291383Y-46578200D01*
X164291380Y-46578200D01*
X164220124Y-46585218D01*
X164149979Y-46606497D01*
X164128700Y-46612951D01*
X164044444Y-46657987D01*
X163989096Y-46703410D01*
X163970594Y-46718594D01*
X163955410Y-46737096D01*
X162261901Y-48430606D01*
X162243394Y-48445794D01*
X162182787Y-48519645D01*
X162137751Y-48603902D01*
X162110018Y-48695325D01*
X162103286Y-48763682D01*
X162100654Y-48790400D01*
X162103000Y-48814217D01*
X162103001Y-64032706D01*
X158705901Y-67429806D01*
X158687394Y-67444994D01*
X158626787Y-67518845D01*
X158581751Y-67603102D01*
X158554018Y-67694525D01*
X158547000Y-67765780D01*
X158544654Y-67789600D01*
X158547000Y-67813417D01*
X158547001Y-84149505D01*
X157916707Y-84779800D01*
X136169694Y-84779800D01*
X135437800Y-84047907D01*
X135437800Y-77160617D01*
X135440146Y-77136800D01*
X135436509Y-77099875D01*
X135430782Y-77041724D01*
X135403049Y-76950301D01*
X135370684Y-76889751D01*
X135358013Y-76866044D01*
X135312590Y-76810696D01*
X135297406Y-76792194D01*
X135278904Y-76777010D01*
X133280594Y-74778701D01*
X133265406Y-74760194D01*
X133191555Y-74699587D01*
X133107299Y-74654551D01*
X133015876Y-74626818D01*
X132944620Y-74619800D01*
X132944617Y-74619800D01*
X132920800Y-74617454D01*
X132896983Y-74619800D01*
X122276616Y-74619800D01*
X122252799Y-74617454D01*
X122228982Y-74619800D01*
X122228980Y-74619800D01*
X122157724Y-74626818D01*
X122066301Y-74654551D01*
X122028371Y-74674825D01*
X121982044Y-74699587D01*
X121947122Y-74728247D01*
X121908194Y-74760194D01*
X121893010Y-74778696D01*
X119793101Y-76878606D01*
X119774594Y-76893794D01*
X119713987Y-76967645D01*
X119668951Y-77051902D01*
X119641218Y-77143325D01*
X119635053Y-77205921D01*
X119631854Y-77238400D01*
X119634200Y-77262217D01*
X119634201Y-84576600D01*
X102235294Y-84576600D01*
X101479794Y-83821101D01*
X101464606Y-83802594D01*
X101390755Y-83741987D01*
X101306499Y-83696951D01*
X101215076Y-83669218D01*
X101143820Y-83662200D01*
X101143817Y-83662200D01*
X101120000Y-83659854D01*
X101096183Y-83662200D01*
X94248094Y-83662200D01*
X94177983Y-83592089D01*
X94181000Y-83576922D01*
X94181000Y-83423078D01*
X94150987Y-83272191D01*
X94092113Y-83130058D01*
X94006642Y-83002141D01*
X93897859Y-82893358D01*
X93769942Y-82807887D01*
X93627809Y-82749013D01*
X93476922Y-82719000D01*
X93323078Y-82719000D01*
X93172191Y-82749013D01*
X93030058Y-82807887D01*
X92902141Y-82893358D01*
X92793358Y-83002141D01*
X92707887Y-83130058D01*
X92649013Y-83272191D01*
X92619000Y-83423078D01*
X92619000Y-83576922D01*
X92649013Y-83727809D01*
X92707887Y-83869942D01*
X92793358Y-83997859D01*
X92902141Y-84106642D01*
X92914650Y-84115000D01*
X85247816Y-84115000D01*
X85223999Y-84112654D01*
X85200182Y-84115000D01*
X85200180Y-84115000D01*
X85128924Y-84122018D01*
X85037501Y-84149751D01*
X84953245Y-84194787D01*
X84879394Y-84255394D01*
X84864206Y-84273901D01*
X84193551Y-84944556D01*
X65204043Y-84944556D01*
X65267488Y-84892488D01*
X65346190Y-84796589D01*
X65404671Y-84687179D01*
X65440683Y-84568462D01*
X65452843Y-84445001D01*
X65452843Y-82754999D01*
X65440683Y-82631538D01*
X65404671Y-82512821D01*
X65346190Y-82403411D01*
X65267488Y-82307512D01*
X65171589Y-82228810D01*
X65062179Y-82170329D01*
X64943462Y-82134317D01*
X64820001Y-82122157D01*
X63579999Y-82122157D01*
X63456538Y-82134317D01*
X63337821Y-82170329D01*
X63228411Y-82228810D01*
X63132512Y-82307512D01*
X63053810Y-82403411D01*
X62995329Y-82512821D01*
X62959317Y-82631538D01*
X62947157Y-82754999D01*
X62947157Y-84445001D01*
X62959317Y-84568462D01*
X62995329Y-84687179D01*
X63053810Y-84796589D01*
X63132512Y-84892488D01*
X63195957Y-84944556D01*
X62219272Y-84944556D01*
X62358380Y-84870201D01*
X62548871Y-84713871D01*
X62705201Y-84523381D01*
X62821366Y-84306053D01*
X62892899Y-84070239D01*
X62911000Y-83886457D01*
X62911000Y-83313544D01*
X62892899Y-83129762D01*
X62821366Y-82893948D01*
X62705201Y-82676619D01*
X62548871Y-82486129D01*
X62358381Y-82329799D01*
X62141053Y-82213634D01*
X61905239Y-82142101D01*
X61660000Y-82117947D01*
X61414762Y-82142101D01*
X61178948Y-82213634D01*
X60961620Y-82329799D01*
X60771130Y-82486129D01*
X60614800Y-82676619D01*
X60498634Y-82893947D01*
X60427101Y-83129761D01*
X60409000Y-83313543D01*
X60409000Y-83886456D01*
X60427101Y-84070238D01*
X60498634Y-84306052D01*
X60614799Y-84523380D01*
X60771129Y-84713871D01*
X60961619Y-84870201D01*
X61100727Y-84944556D01*
X57844043Y-84944556D01*
X57907488Y-84892488D01*
X57986190Y-84796589D01*
X58044671Y-84687179D01*
X58080683Y-84568462D01*
X58092843Y-84445001D01*
X58092843Y-82754999D01*
X58080683Y-82631538D01*
X58044671Y-82512821D01*
X57986190Y-82403411D01*
X57907488Y-82307512D01*
X57811589Y-82228810D01*
X57702179Y-82170329D01*
X57583462Y-82134317D01*
X57460001Y-82122157D01*
X56219999Y-82122157D01*
X56096538Y-82134317D01*
X55977821Y-82170329D01*
X55868411Y-82228810D01*
X55772512Y-82307512D01*
X55693810Y-82403411D01*
X55635329Y-82512821D01*
X55599317Y-82631538D01*
X55587157Y-82754999D01*
X55587157Y-84445001D01*
X55599317Y-84568462D01*
X55635329Y-84687179D01*
X55693810Y-84796589D01*
X55772512Y-84892488D01*
X55835957Y-84944556D01*
X54859272Y-84944556D01*
X54998380Y-84870201D01*
X55188871Y-84713871D01*
X55345201Y-84523381D01*
X55461366Y-84306053D01*
X55532899Y-84070239D01*
X55551000Y-83886457D01*
X55551000Y-83313544D01*
X55532899Y-83129762D01*
X55461366Y-82893948D01*
X55345201Y-82676619D01*
X55188871Y-82486129D01*
X54998381Y-82329799D01*
X54781053Y-82213634D01*
X54545239Y-82142101D01*
X54300000Y-82117947D01*
X54054762Y-82142101D01*
X53818948Y-82213634D01*
X53601620Y-82329799D01*
X53411130Y-82486129D01*
X53254800Y-82676619D01*
X53138634Y-82893947D01*
X53067101Y-83129761D01*
X53049000Y-83313543D01*
X53049000Y-83886456D01*
X53067101Y-84070238D01*
X53138634Y-84306052D01*
X53254799Y-84523380D01*
X53411129Y-84713871D01*
X53601619Y-84870201D01*
X53740727Y-84944556D01*
X46028561Y-84944556D01*
X40241205Y-79157200D01*
X42224000Y-79157200D01*
X42224000Y-79522800D01*
X42295325Y-79881375D01*
X42435234Y-80219145D01*
X42638351Y-80523131D01*
X42896869Y-80781649D01*
X43200855Y-80984766D01*
X43538625Y-81124675D01*
X43897200Y-81196000D01*
X44262800Y-81196000D01*
X44621375Y-81124675D01*
X44959145Y-80984766D01*
X45263131Y-80781649D01*
X45521649Y-80523131D01*
X45724766Y-80219145D01*
X45864675Y-79881375D01*
X45936000Y-79522800D01*
X45936000Y-79157200D01*
X45864675Y-78798625D01*
X45724766Y-78460855D01*
X45521649Y-78156869D01*
X45263131Y-77898351D01*
X44959145Y-77695234D01*
X44621375Y-77555325D01*
X44262800Y-77484000D01*
X43897200Y-77484000D01*
X43538625Y-77555325D01*
X43200855Y-77695234D01*
X42896869Y-77898351D01*
X42638351Y-78156869D01*
X42435234Y-78460855D01*
X42295325Y-78798625D01*
X42224000Y-79157200D01*
X40241205Y-79157200D01*
X36807083Y-75723078D01*
X61819000Y-75723078D01*
X61819000Y-75876922D01*
X61849013Y-76027809D01*
X61907887Y-76169942D01*
X61993358Y-76297859D01*
X62102141Y-76406642D01*
X62230058Y-76492113D01*
X62372191Y-76550987D01*
X62523078Y-76581000D01*
X62676922Y-76581000D01*
X62827809Y-76550987D01*
X62969942Y-76492113D01*
X63061405Y-76431000D01*
X65438595Y-76431000D01*
X65530058Y-76492113D01*
X65672191Y-76550987D01*
X65823078Y-76581000D01*
X65976922Y-76581000D01*
X66127809Y-76550987D01*
X66269942Y-76492113D01*
X66397859Y-76406642D01*
X66506642Y-76297859D01*
X66592113Y-76169942D01*
X66650987Y-76027809D01*
X66681000Y-75876922D01*
X66681000Y-75723078D01*
X66650987Y-75572191D01*
X66592113Y-75430058D01*
X66506642Y-75302141D01*
X66397859Y-75193358D01*
X66269942Y-75107887D01*
X66127809Y-75049013D01*
X65976922Y-75019000D01*
X65823078Y-75019000D01*
X65672191Y-75049013D01*
X65530058Y-75107887D01*
X65438595Y-75169000D01*
X63061405Y-75169000D01*
X62969942Y-75107887D01*
X62827809Y-75049013D01*
X62676922Y-75019000D01*
X62523078Y-75019000D01*
X62372191Y-75049013D01*
X62230058Y-75107887D01*
X62102141Y-75193358D01*
X61993358Y-75302141D01*
X61907887Y-75430058D01*
X61849013Y-75572191D01*
X61819000Y-75723078D01*
X36807083Y-75723078D01*
X36573906Y-75489901D01*
X36558718Y-75471394D01*
X36484867Y-75410787D01*
X36470716Y-75403223D01*
X35375500Y-74308007D01*
X35667898Y-74308007D01*
X35722571Y-74469818D01*
X35825326Y-74634269D01*
X35958189Y-74775514D01*
X36116055Y-74888125D01*
X36292857Y-74967774D01*
X36481800Y-75011400D01*
X36781800Y-75011400D01*
X36781800Y-74157400D01*
X37035800Y-74157400D01*
X37035800Y-75011400D01*
X37335800Y-75011400D01*
X37524743Y-74967774D01*
X37701545Y-74888125D01*
X37859411Y-74775514D01*
X37992274Y-74634269D01*
X38095029Y-74469818D01*
X38149702Y-74308007D01*
X38085398Y-74157400D01*
X37035800Y-74157400D01*
X36781800Y-74157400D01*
X35732202Y-74157400D01*
X35667898Y-74308007D01*
X35375500Y-74308007D01*
X35260200Y-74192707D01*
X35260200Y-73752793D01*
X35667898Y-73752793D01*
X35732202Y-73903400D01*
X36781800Y-73903400D01*
X36781800Y-73049400D01*
X37035800Y-73049400D01*
X37035800Y-73903400D01*
X38085398Y-73903400D01*
X38149702Y-73752793D01*
X38095029Y-73590982D01*
X37992274Y-73426531D01*
X37859411Y-73285286D01*
X37701545Y-73172675D01*
X37524743Y-73093026D01*
X37335800Y-73049400D01*
X37035800Y-73049400D01*
X36781800Y-73049400D01*
X36481800Y-73049400D01*
X36292857Y-73093026D01*
X36116055Y-73172675D01*
X35958189Y-73285286D01*
X35825326Y-73426531D01*
X35722571Y-73590982D01*
X35667898Y-73752793D01*
X35260200Y-73752793D01*
X35260200Y-72308007D01*
X35667898Y-72308007D01*
X35722571Y-72469818D01*
X35825326Y-72634269D01*
X35958189Y-72775514D01*
X36116055Y-72888125D01*
X36292857Y-72967774D01*
X36481800Y-73011400D01*
X36781800Y-73011400D01*
X36781800Y-72157400D01*
X37035800Y-72157400D01*
X37035800Y-73011400D01*
X37335800Y-73011400D01*
X37524743Y-72967774D01*
X37701545Y-72888125D01*
X37859411Y-72775514D01*
X37992274Y-72634269D01*
X38095029Y-72469818D01*
X38149702Y-72308007D01*
X38085398Y-72157400D01*
X37035800Y-72157400D01*
X36781800Y-72157400D01*
X35732202Y-72157400D01*
X35667898Y-72308007D01*
X35260200Y-72308007D01*
X35260200Y-71752793D01*
X35667898Y-71752793D01*
X35732202Y-71903400D01*
X36781800Y-71903400D01*
X36781800Y-71049400D01*
X37035800Y-71049400D01*
X37035800Y-71903400D01*
X38085398Y-71903400D01*
X38149702Y-71752793D01*
X38095029Y-71590982D01*
X37992274Y-71426531D01*
X37859411Y-71285286D01*
X37701545Y-71172675D01*
X37524743Y-71093026D01*
X37335800Y-71049400D01*
X37035800Y-71049400D01*
X36781800Y-71049400D01*
X36481800Y-71049400D01*
X36292857Y-71093026D01*
X36116055Y-71172675D01*
X35958189Y-71285286D01*
X35825326Y-71426531D01*
X35722571Y-71590982D01*
X35667898Y-71752793D01*
X35260200Y-71752793D01*
X35260200Y-70308007D01*
X35667898Y-70308007D01*
X35722571Y-70469818D01*
X35825326Y-70634269D01*
X35958189Y-70775514D01*
X36116055Y-70888125D01*
X36292857Y-70967774D01*
X36481800Y-71011400D01*
X36781800Y-71011400D01*
X36781800Y-70157400D01*
X37035800Y-70157400D01*
X37035800Y-71011400D01*
X37335800Y-71011400D01*
X37524743Y-70967774D01*
X37701545Y-70888125D01*
X37859411Y-70775514D01*
X37992274Y-70634269D01*
X38095029Y-70469818D01*
X38149702Y-70308007D01*
X38137214Y-70278757D01*
X41329000Y-70278757D01*
X41329000Y-70521243D01*
X41376307Y-70759069D01*
X41469102Y-70983097D01*
X41603820Y-71184717D01*
X41775283Y-71356180D01*
X41976903Y-71490898D01*
X42200931Y-71583693D01*
X42438757Y-71631000D01*
X42681243Y-71631000D01*
X42919069Y-71583693D01*
X43143097Y-71490898D01*
X43344717Y-71356180D01*
X43450897Y-71250000D01*
X43867157Y-71250000D01*
X43874513Y-71324689D01*
X43896299Y-71396508D01*
X43931678Y-71462696D01*
X43979289Y-71520711D01*
X44037304Y-71568322D01*
X44103492Y-71603701D01*
X44175311Y-71625487D01*
X44250000Y-71632843D01*
X44877750Y-71631000D01*
X44973000Y-71535750D01*
X44973000Y-70527000D01*
X45227000Y-70527000D01*
X45227000Y-71535750D01*
X45322250Y-71631000D01*
X45950000Y-71632843D01*
X46024689Y-71625487D01*
X46096508Y-71603701D01*
X46162696Y-71568322D01*
X46220711Y-71520711D01*
X46268322Y-71462696D01*
X46303701Y-71396508D01*
X46325487Y-71324689D01*
X46332843Y-71250000D01*
X46331000Y-70622250D01*
X46235750Y-70527000D01*
X45227000Y-70527000D01*
X44973000Y-70527000D01*
X43964250Y-70527000D01*
X43869000Y-70622250D01*
X43867157Y-71250000D01*
X43450897Y-71250000D01*
X43516180Y-71184717D01*
X43650898Y-70983097D01*
X43743693Y-70759069D01*
X43791000Y-70521243D01*
X43791000Y-70278757D01*
X43743693Y-70040931D01*
X43650898Y-69816903D01*
X43516180Y-69615283D01*
X43450897Y-69550000D01*
X43867157Y-69550000D01*
X43869000Y-70177750D01*
X43964250Y-70273000D01*
X44973000Y-70273000D01*
X44973000Y-69264250D01*
X45227000Y-69264250D01*
X45227000Y-70273000D01*
X46235750Y-70273000D01*
X46331000Y-70177750D01*
X46332843Y-69550000D01*
X46325487Y-69475311D01*
X46303701Y-69403492D01*
X46268322Y-69337304D01*
X46220711Y-69279289D01*
X46162696Y-69231678D01*
X46096508Y-69196299D01*
X46024689Y-69174513D01*
X45950000Y-69167157D01*
X45322250Y-69169000D01*
X45227000Y-69264250D01*
X44973000Y-69264250D01*
X44877750Y-69169000D01*
X44250000Y-69167157D01*
X44175311Y-69174513D01*
X44103492Y-69196299D01*
X44037304Y-69231678D01*
X43979289Y-69279289D01*
X43931678Y-69337304D01*
X43896299Y-69403492D01*
X43874513Y-69475311D01*
X43867157Y-69550000D01*
X43450897Y-69550000D01*
X43344717Y-69443820D01*
X43143097Y-69309102D01*
X42919069Y-69216307D01*
X42681243Y-69169000D01*
X42438757Y-69169000D01*
X42200931Y-69216307D01*
X41976903Y-69309102D01*
X41775283Y-69443820D01*
X41603820Y-69615283D01*
X41469102Y-69816903D01*
X41376307Y-70040931D01*
X41329000Y-70278757D01*
X38137214Y-70278757D01*
X38085398Y-70157400D01*
X37035800Y-70157400D01*
X36781800Y-70157400D01*
X35732202Y-70157400D01*
X35667898Y-70308007D01*
X35260200Y-70308007D01*
X35260200Y-69752793D01*
X35667898Y-69752793D01*
X35732202Y-69903400D01*
X36781800Y-69903400D01*
X36781800Y-69049400D01*
X37035800Y-69049400D01*
X37035800Y-69903400D01*
X38085398Y-69903400D01*
X38149702Y-69752793D01*
X38095029Y-69590982D01*
X37992274Y-69426531D01*
X37859411Y-69285286D01*
X37701545Y-69172675D01*
X37524743Y-69093026D01*
X37335800Y-69049400D01*
X37035800Y-69049400D01*
X36781800Y-69049400D01*
X36481800Y-69049400D01*
X36292857Y-69093026D01*
X36116055Y-69172675D01*
X35958189Y-69285286D01*
X35825326Y-69426531D01*
X35722571Y-69590982D01*
X35667898Y-69752793D01*
X35260200Y-69752793D01*
X35260200Y-63926493D01*
X35641758Y-63544935D01*
X35638117Y-63556938D01*
X35625957Y-63680399D01*
X35625957Y-64380401D01*
X35638117Y-64503862D01*
X35674129Y-64622579D01*
X35732610Y-64731989D01*
X35811312Y-64827888D01*
X35907211Y-64906590D01*
X36016621Y-64965071D01*
X36135338Y-65001083D01*
X36258799Y-65013243D01*
X37558801Y-65013243D01*
X37682262Y-65001083D01*
X37800979Y-64965071D01*
X37910389Y-64906590D01*
X38006288Y-64827888D01*
X38084990Y-64731989D01*
X38143471Y-64622579D01*
X38175983Y-64515400D01*
X41623703Y-64515400D01*
X41603820Y-64535283D01*
X41469102Y-64736903D01*
X41428469Y-64835000D01*
X39707016Y-64835000D01*
X39683199Y-64832654D01*
X39659382Y-64835000D01*
X39659380Y-64835000D01*
X39588124Y-64842018D01*
X39496701Y-64869751D01*
X39412445Y-64914787D01*
X39338594Y-64975394D01*
X39323406Y-64993901D01*
X38771907Y-65545400D01*
X38061906Y-65545400D01*
X38028418Y-65482749D01*
X37905828Y-65333372D01*
X37756451Y-65210782D01*
X37586029Y-65119689D01*
X37401110Y-65063595D01*
X37256987Y-65049400D01*
X36560613Y-65049400D01*
X36416490Y-65063595D01*
X36231571Y-65119689D01*
X36061149Y-65210782D01*
X35911772Y-65333372D01*
X35789182Y-65482749D01*
X35698089Y-65653171D01*
X35641995Y-65838090D01*
X35623054Y-66030400D01*
X35641995Y-66222710D01*
X35698089Y-66407629D01*
X35789182Y-66578051D01*
X35911772Y-66727428D01*
X36061149Y-66850018D01*
X36231571Y-66941111D01*
X36416490Y-66997205D01*
X36560613Y-67011400D01*
X37256987Y-67011400D01*
X37401110Y-66997205D01*
X37586029Y-66941111D01*
X37756451Y-66850018D01*
X37905828Y-66727428D01*
X38028418Y-66578051D01*
X38061906Y-66515400D01*
X38948983Y-66515400D01*
X38972800Y-66517746D01*
X38996617Y-66515400D01*
X38996620Y-66515400D01*
X39067876Y-66508382D01*
X39159299Y-66480649D01*
X39243555Y-66435613D01*
X39317406Y-66375006D01*
X39332594Y-66356499D01*
X39884093Y-65805000D01*
X41428469Y-65805000D01*
X41469102Y-65903097D01*
X41603820Y-66104717D01*
X41686103Y-66187000D01*
X40082217Y-66187000D01*
X40058400Y-66184654D01*
X40034583Y-66187000D01*
X40034580Y-66187000D01*
X39963324Y-66194018D01*
X39893179Y-66215297D01*
X39871900Y-66221751D01*
X39787644Y-66266787D01*
X39776199Y-66276180D01*
X39713794Y-66327394D01*
X39698610Y-66345896D01*
X38499107Y-67545400D01*
X38061906Y-67545400D01*
X38028418Y-67482749D01*
X37905828Y-67333372D01*
X37756451Y-67210782D01*
X37586029Y-67119689D01*
X37401110Y-67063595D01*
X37256987Y-67049400D01*
X36560613Y-67049400D01*
X36416490Y-67063595D01*
X36231571Y-67119689D01*
X36061149Y-67210782D01*
X35911772Y-67333372D01*
X35789182Y-67482749D01*
X35698089Y-67653171D01*
X35641995Y-67838090D01*
X35623054Y-68030400D01*
X35641995Y-68222710D01*
X35698089Y-68407629D01*
X35789182Y-68578051D01*
X35911772Y-68727428D01*
X36061149Y-68850018D01*
X36231571Y-68941111D01*
X36416490Y-68997205D01*
X36560613Y-69011400D01*
X37256987Y-69011400D01*
X37401110Y-68997205D01*
X37586029Y-68941111D01*
X37756451Y-68850018D01*
X37905828Y-68727428D01*
X38028418Y-68578051D01*
X38061906Y-68515400D01*
X38676183Y-68515400D01*
X38700000Y-68517746D01*
X38723817Y-68515400D01*
X38723820Y-68515400D01*
X38795076Y-68508382D01*
X38886499Y-68480649D01*
X38970755Y-68435613D01*
X39044606Y-68375006D01*
X39059794Y-68356499D01*
X40259294Y-67157000D01*
X41549219Y-67157000D01*
X41469102Y-67276903D01*
X41376307Y-67500931D01*
X41329000Y-67738757D01*
X41329000Y-67981243D01*
X41376307Y-68219069D01*
X41469102Y-68443097D01*
X41603820Y-68644717D01*
X41775283Y-68816180D01*
X41976903Y-68950898D01*
X42200931Y-69043693D01*
X42438757Y-69091000D01*
X42681243Y-69091000D01*
X42919069Y-69043693D01*
X43143097Y-68950898D01*
X43344717Y-68816180D01*
X43516180Y-68644717D01*
X43650898Y-68443097D01*
X43743693Y-68219069D01*
X43791000Y-67981243D01*
X43791000Y-67738757D01*
X43869000Y-67738757D01*
X43869000Y-67981243D01*
X43916307Y-68219069D01*
X44009102Y-68443097D01*
X44143820Y-68644717D01*
X44315283Y-68816180D01*
X44516903Y-68950898D01*
X44740931Y-69043693D01*
X44978757Y-69091000D01*
X45221243Y-69091000D01*
X45459069Y-69043693D01*
X45683097Y-68950898D01*
X45884717Y-68816180D01*
X46056180Y-68644717D01*
X46190898Y-68443097D01*
X46283693Y-68219069D01*
X46331000Y-67981243D01*
X46331000Y-67738757D01*
X46283693Y-67500931D01*
X46190898Y-67276903D01*
X46056180Y-67075283D01*
X45884717Y-66903820D01*
X45683097Y-66769102D01*
X45459069Y-66676307D01*
X45221243Y-66629000D01*
X44978757Y-66629000D01*
X44740931Y-66676307D01*
X44516903Y-66769102D01*
X44315283Y-66903820D01*
X44143820Y-67075283D01*
X44009102Y-67276903D01*
X43916307Y-67500931D01*
X43869000Y-67738757D01*
X43791000Y-67738757D01*
X43743693Y-67500931D01*
X43650898Y-67276903D01*
X43570781Y-67157000D01*
X43724183Y-67157000D01*
X43748000Y-67159346D01*
X43771817Y-67157000D01*
X43771820Y-67157000D01*
X43843076Y-67149982D01*
X43934499Y-67122249D01*
X44018755Y-67077213D01*
X44092606Y-67016606D01*
X44107794Y-66998099D01*
X44642834Y-66463060D01*
X44740931Y-66503693D01*
X44978757Y-66551000D01*
X45221243Y-66551000D01*
X45459069Y-66503693D01*
X45683097Y-66410898D01*
X45884717Y-66276180D01*
X46056180Y-66104717D01*
X46190898Y-65903097D01*
X46283693Y-65679069D01*
X46331000Y-65441243D01*
X46331000Y-65198757D01*
X46283693Y-64960931D01*
X46190898Y-64736903D01*
X46056180Y-64535283D01*
X45884717Y-64363820D01*
X45683097Y-64229102D01*
X45459069Y-64136307D01*
X45221243Y-64089000D01*
X44978757Y-64089000D01*
X44740931Y-64136307D01*
X44516903Y-64229102D01*
X44315283Y-64363820D01*
X44143820Y-64535283D01*
X44009102Y-64736903D01*
X43916307Y-64960931D01*
X43869000Y-65198757D01*
X43869000Y-65441243D01*
X43916307Y-65679069D01*
X43956940Y-65777166D01*
X43547107Y-66187000D01*
X43433897Y-66187000D01*
X43516180Y-66104717D01*
X43650898Y-65903097D01*
X43743693Y-65679069D01*
X43791000Y-65441243D01*
X43791000Y-65198757D01*
X43743693Y-64960931D01*
X43650898Y-64736903D01*
X43516180Y-64535283D01*
X43496297Y-64515400D01*
X43825783Y-64515400D01*
X43849600Y-64517746D01*
X43873417Y-64515400D01*
X43873420Y-64515400D01*
X43944676Y-64508382D01*
X44036099Y-64480649D01*
X44120355Y-64435613D01*
X44194206Y-64375006D01*
X44209394Y-64356499D01*
X44642833Y-63923060D01*
X44740931Y-63963693D01*
X44978757Y-64011000D01*
X45221243Y-64011000D01*
X45459069Y-63963693D01*
X45683097Y-63870898D01*
X45884717Y-63736180D01*
X46056180Y-63564717D01*
X46190898Y-63363097D01*
X46283693Y-63139069D01*
X46331000Y-62901243D01*
X46331000Y-62658757D01*
X46283693Y-62420931D01*
X46190898Y-62196903D01*
X46056180Y-61995283D01*
X45884717Y-61823820D01*
X45683097Y-61689102D01*
X45459069Y-61596307D01*
X45221243Y-61549000D01*
X44978757Y-61549000D01*
X44740931Y-61596307D01*
X44516903Y-61689102D01*
X44315283Y-61823820D01*
X44143820Y-61995283D01*
X44009102Y-62196903D01*
X43916307Y-62420931D01*
X43869000Y-62658757D01*
X43869000Y-62901243D01*
X43916307Y-63139069D01*
X43956940Y-63237167D01*
X43648707Y-63545400D01*
X43529087Y-63545400D01*
X43650898Y-63363097D01*
X43743693Y-63139069D01*
X43791000Y-62901243D01*
X43791000Y-62658757D01*
X43743693Y-62420931D01*
X43650898Y-62196903D01*
X43516180Y-61995283D01*
X43496297Y-61975400D01*
X43825783Y-61975400D01*
X43849600Y-61977746D01*
X43873417Y-61975400D01*
X43873420Y-61975400D01*
X43944676Y-61968382D01*
X44036099Y-61940649D01*
X44120355Y-61895613D01*
X44194206Y-61835006D01*
X44209394Y-61816499D01*
X44642833Y-61383060D01*
X44740931Y-61423693D01*
X44978757Y-61471000D01*
X45221243Y-61471000D01*
X45459069Y-61423693D01*
X45683097Y-61330898D01*
X45884717Y-61196180D01*
X46056180Y-61024717D01*
X46190898Y-60823097D01*
X46283693Y-60599069D01*
X46331000Y-60361243D01*
X46331000Y-60118757D01*
X46283693Y-59880931D01*
X46190898Y-59656903D01*
X46056180Y-59455283D01*
X45884717Y-59283820D01*
X45683097Y-59149102D01*
X45459069Y-59056307D01*
X45221243Y-59009000D01*
X44978757Y-59009000D01*
X44740931Y-59056307D01*
X44516903Y-59149102D01*
X44315283Y-59283820D01*
X44143820Y-59455283D01*
X44009102Y-59656903D01*
X43916307Y-59880931D01*
X43869000Y-60118757D01*
X43869000Y-60361243D01*
X43916307Y-60599069D01*
X43956940Y-60697167D01*
X43648707Y-61005400D01*
X43529087Y-61005400D01*
X43650898Y-60823097D01*
X43743693Y-60599069D01*
X43791000Y-60361243D01*
X43791000Y-60118757D01*
X43743693Y-59880931D01*
X43650898Y-59656903D01*
X43516180Y-59455283D01*
X43461497Y-59400600D01*
X43860583Y-59400600D01*
X43884400Y-59402946D01*
X43908217Y-59400600D01*
X43908220Y-59400600D01*
X43979476Y-59393582D01*
X44070899Y-59365849D01*
X44155155Y-59320813D01*
X44229006Y-59260206D01*
X44244194Y-59241699D01*
X44642833Y-58843060D01*
X44740931Y-58883693D01*
X44978757Y-58931000D01*
X45221243Y-58931000D01*
X45459069Y-58883693D01*
X45683097Y-58790898D01*
X45884717Y-58656180D01*
X46056180Y-58484717D01*
X46101697Y-58416595D01*
X113614879Y-58416595D01*
X113614879Y-59083405D01*
X113744967Y-59737403D01*
X114000145Y-60353456D01*
X114370605Y-60907889D01*
X114842111Y-61379395D01*
X115396544Y-61749855D01*
X116012597Y-62005033D01*
X116666595Y-62135121D01*
X117333405Y-62135121D01*
X117987403Y-62005033D01*
X118603456Y-61749855D01*
X119157889Y-61379395D01*
X119376055Y-61161229D01*
X157522200Y-61161229D01*
X157522200Y-61334771D01*
X157556056Y-61504978D01*
X157622468Y-61665310D01*
X157718882Y-61809605D01*
X157841595Y-61932318D01*
X157985890Y-62028732D01*
X158146222Y-62095144D01*
X158316429Y-62129000D01*
X158489971Y-62129000D01*
X158660178Y-62095144D01*
X158820510Y-62028732D01*
X158964805Y-61932318D01*
X159087518Y-61809605D01*
X159183932Y-61665310D01*
X159250344Y-61504978D01*
X159284200Y-61334771D01*
X159284200Y-61161229D01*
X159250344Y-60991022D01*
X159183932Y-60830690D01*
X159159200Y-60793676D01*
X159159200Y-51093210D01*
X160056178Y-50315831D01*
X160160178Y-50295144D01*
X160320510Y-50228732D01*
X160464805Y-50132318D01*
X160587518Y-50009605D01*
X160683932Y-49865310D01*
X160750344Y-49704978D01*
X160784200Y-49534771D01*
X160784200Y-49361229D01*
X160750344Y-49191022D01*
X160683932Y-49030690D01*
X160587518Y-48886395D01*
X160464805Y-48763682D01*
X160320510Y-48667268D01*
X160160178Y-48600856D01*
X159989971Y-48567000D01*
X159816429Y-48567000D01*
X159646222Y-48600856D01*
X159485890Y-48667268D01*
X159341595Y-48763682D01*
X159218882Y-48886395D01*
X159122468Y-49030690D01*
X159062028Y-49176605D01*
X157915725Y-50170067D01*
X157866042Y-50210841D01*
X157835908Y-50247560D01*
X157803243Y-50282029D01*
X157788782Y-50304983D01*
X157771569Y-50325957D01*
X157749183Y-50367838D01*
X157723864Y-50408027D01*
X157714156Y-50433369D01*
X157701369Y-50457292D01*
X157687585Y-50502731D01*
X157670592Y-50547092D01*
X157666014Y-50573844D01*
X157658141Y-50599798D01*
X157653488Y-50647042D01*
X157645473Y-50693877D01*
X157647201Y-50758170D01*
X157647200Y-60793676D01*
X157622468Y-60830690D01*
X157556056Y-60991022D01*
X157522200Y-61161229D01*
X119376055Y-61161229D01*
X119629395Y-60907889D01*
X119999855Y-60353456D01*
X120255033Y-59737403D01*
X120385121Y-59083405D01*
X120385121Y-58416595D01*
X120255033Y-57762597D01*
X119999855Y-57146544D01*
X119629395Y-56592111D01*
X119157889Y-56120605D01*
X118603456Y-55750145D01*
X117987403Y-55494967D01*
X117333405Y-55364879D01*
X116666595Y-55364879D01*
X116012597Y-55494967D01*
X115396544Y-55750145D01*
X114842111Y-56120605D01*
X114370605Y-56592111D01*
X114000145Y-57146544D01*
X113744967Y-57762597D01*
X113614879Y-58416595D01*
X46101697Y-58416595D01*
X46190898Y-58283097D01*
X46283693Y-58059069D01*
X46331000Y-57821243D01*
X46331000Y-57578757D01*
X46283693Y-57340931D01*
X46190898Y-57116903D01*
X46056180Y-56915283D01*
X45884717Y-56743820D01*
X45683097Y-56609102D01*
X45459069Y-56516307D01*
X45221243Y-56469000D01*
X44978757Y-56469000D01*
X44740931Y-56516307D01*
X44516903Y-56609102D01*
X44315283Y-56743820D01*
X44143820Y-56915283D01*
X44009102Y-57116903D01*
X43916307Y-57340931D01*
X43869000Y-57578757D01*
X43869000Y-57821243D01*
X43916307Y-58059069D01*
X43956940Y-58157167D01*
X43683507Y-58430600D01*
X43552340Y-58430600D01*
X43650898Y-58283097D01*
X43743693Y-58059069D01*
X43791000Y-57821243D01*
X43791000Y-57578757D01*
X43743693Y-57340931D01*
X43650898Y-57116903D01*
X43516180Y-56915283D01*
X43485897Y-56885000D01*
X43836183Y-56885000D01*
X43860000Y-56887346D01*
X43883817Y-56885000D01*
X43883820Y-56885000D01*
X43955076Y-56877982D01*
X44046499Y-56850249D01*
X44130755Y-56805213D01*
X44204606Y-56744606D01*
X44219794Y-56726099D01*
X44642833Y-56303060D01*
X44740931Y-56343693D01*
X44978757Y-56391000D01*
X45221243Y-56391000D01*
X45459069Y-56343693D01*
X45683097Y-56250898D01*
X45884717Y-56116180D01*
X46056180Y-55944717D01*
X46190898Y-55743097D01*
X46283693Y-55519069D01*
X46331000Y-55281243D01*
X46331000Y-55038757D01*
X46283693Y-54800931D01*
X46190898Y-54576903D01*
X46056180Y-54375283D01*
X45884717Y-54203820D01*
X45683097Y-54069102D01*
X45459069Y-53976307D01*
X45221243Y-53929000D01*
X44978757Y-53929000D01*
X44740931Y-53976307D01*
X44516903Y-54069102D01*
X44315283Y-54203820D01*
X44143820Y-54375283D01*
X44009102Y-54576903D01*
X43916307Y-54800931D01*
X43869000Y-55038757D01*
X43869000Y-55281243D01*
X43916307Y-55519069D01*
X43956940Y-55617167D01*
X43659107Y-55915000D01*
X43536036Y-55915000D01*
X43650898Y-55743097D01*
X43743693Y-55519069D01*
X43791000Y-55281243D01*
X43791000Y-55038757D01*
X43743693Y-54800931D01*
X43650898Y-54576903D01*
X43516180Y-54375283D01*
X43344717Y-54203820D01*
X43143097Y-54069102D01*
X42919069Y-53976307D01*
X42681243Y-53929000D01*
X42438757Y-53929000D01*
X42200931Y-53976307D01*
X41976903Y-54069102D01*
X41775283Y-54203820D01*
X41603820Y-54375283D01*
X41469102Y-54576903D01*
X41376307Y-54800931D01*
X41329000Y-55038757D01*
X41329000Y-55281243D01*
X41376307Y-55519069D01*
X41469102Y-55743097D01*
X41583964Y-55915000D01*
X40923816Y-55915000D01*
X40899999Y-55912654D01*
X40876182Y-55915000D01*
X40876180Y-55915000D01*
X40804924Y-55922018D01*
X40713501Y-55949751D01*
X40674280Y-55970715D01*
X40629244Y-55994787D01*
X40573896Y-56040210D01*
X40555394Y-56055394D01*
X40540210Y-56073896D01*
X39292090Y-57322017D01*
X39276922Y-57319000D01*
X39123078Y-57319000D01*
X38972191Y-57349013D01*
X38830058Y-57407887D01*
X38702141Y-57493358D01*
X38593358Y-57602141D01*
X38507887Y-57730058D01*
X38449013Y-57872191D01*
X38419000Y-58023078D01*
X38419000Y-58176922D01*
X38449013Y-58327809D01*
X38507887Y-58469942D01*
X38593358Y-58597859D01*
X38702141Y-58706642D01*
X38830058Y-58792113D01*
X38972191Y-58850987D01*
X39123078Y-58881000D01*
X39276922Y-58881000D01*
X39427809Y-58850987D01*
X39569942Y-58792113D01*
X39697859Y-58706642D01*
X39806642Y-58597859D01*
X39892113Y-58469942D01*
X39950987Y-58327809D01*
X39981000Y-58176922D01*
X39981000Y-58023078D01*
X39977983Y-58007910D01*
X41100894Y-56885000D01*
X41634103Y-56885000D01*
X41603820Y-56915283D01*
X41469102Y-57116903D01*
X41376307Y-57340931D01*
X41329000Y-57578757D01*
X41329000Y-57821243D01*
X41376307Y-58059069D01*
X41377810Y-58062697D01*
X39002163Y-60438344D01*
X35146361Y-60438344D01*
X35122544Y-60435998D01*
X35098727Y-60438344D01*
X35098724Y-60438344D01*
X35027468Y-60445362D01*
X34936045Y-60473095D01*
X34896824Y-60494059D01*
X34851788Y-60518131D01*
X34796440Y-60563554D01*
X34777938Y-60578738D01*
X34762754Y-60597240D01*
X32785056Y-62574939D01*
X32766554Y-62590123D01*
X32751370Y-62608625D01*
X32751369Y-62608626D01*
X32705946Y-62663974D01*
X32660911Y-62748230D01*
X32633178Y-62839653D01*
X32623813Y-62934729D01*
X32626160Y-62958556D01*
X32626159Y-75144142D01*
X32623813Y-75167959D01*
X32626159Y-75191776D01*
X32626159Y-75191778D01*
X32633177Y-75263034D01*
X32660910Y-75354457D01*
X32705946Y-75438714D01*
X32766553Y-75512565D01*
X32785060Y-75527753D01*
X36724922Y-79467615D01*
X36187403Y-79244967D01*
X35533405Y-79114879D01*
X34866595Y-79114879D01*
X34212597Y-79244967D01*
X33596544Y-79500145D01*
X33042111Y-79870605D01*
X32570605Y-80342111D01*
X32200145Y-80896544D01*
X31944967Y-81512597D01*
X31814879Y-82166595D01*
X31814879Y-82833405D01*
X31944967Y-83487403D01*
X32200145Y-84103456D01*
X32570605Y-84657889D01*
X33042111Y-85129395D01*
X33596544Y-85499855D01*
X34212597Y-85755033D01*
X34866595Y-85885121D01*
X35533405Y-85885121D01*
X36187403Y-85755033D01*
X36803456Y-85499855D01*
X37357889Y-85129395D01*
X37829395Y-84657889D01*
X38199855Y-84103456D01*
X38455033Y-83487403D01*
X38585121Y-82833405D01*
X38585121Y-82166595D01*
X38455033Y-81512597D01*
X38232385Y-80975078D01*
X44351307Y-87094000D01*
X30406000Y-87094000D01*
X30406000Y-52498757D01*
X41329000Y-52498757D01*
X41329000Y-52741243D01*
X41376307Y-52979069D01*
X41469102Y-53203097D01*
X41603820Y-53404717D01*
X41775283Y-53576180D01*
X41976903Y-53710898D01*
X42200931Y-53803693D01*
X42438757Y-53851000D01*
X42681243Y-53851000D01*
X42919069Y-53803693D01*
X43143097Y-53710898D01*
X43344717Y-53576180D01*
X43516180Y-53404717D01*
X43650898Y-53203097D01*
X43743693Y-52979069D01*
X43791000Y-52741243D01*
X43791000Y-52498757D01*
X43869000Y-52498757D01*
X43869000Y-52741243D01*
X43916307Y-52979069D01*
X44009102Y-53203097D01*
X44143820Y-53404717D01*
X44315283Y-53576180D01*
X44516903Y-53710898D01*
X44740931Y-53803693D01*
X44978757Y-53851000D01*
X45221243Y-53851000D01*
X45459069Y-53803693D01*
X45683097Y-53710898D01*
X45884717Y-53576180D01*
X46056180Y-53404717D01*
X46190898Y-53203097D01*
X46283693Y-52979069D01*
X46331000Y-52741243D01*
X46331000Y-52498757D01*
X46296055Y-52323078D01*
X61719000Y-52323078D01*
X61719000Y-52476922D01*
X61749013Y-52627809D01*
X61807887Y-52769942D01*
X61893358Y-52897859D01*
X62002141Y-53006642D01*
X62130058Y-53092113D01*
X62272191Y-53150987D01*
X62423078Y-53181000D01*
X62576922Y-53181000D01*
X62727809Y-53150987D01*
X62869942Y-53092113D01*
X62997859Y-53006642D01*
X63106642Y-52897859D01*
X63192113Y-52769942D01*
X63250987Y-52627809D01*
X63281000Y-52476922D01*
X63281000Y-52323078D01*
X63277983Y-52307910D01*
X65607910Y-49977983D01*
X65623078Y-49981000D01*
X65776922Y-49981000D01*
X65807086Y-49975000D01*
X106682157Y-49975000D01*
X106689513Y-50049689D01*
X106711299Y-50121508D01*
X106746678Y-50187696D01*
X106794289Y-50245711D01*
X106852304Y-50293322D01*
X106918492Y-50328701D01*
X106990311Y-50350487D01*
X107065000Y-50357843D01*
X108117750Y-50356000D01*
X108213000Y-50260750D01*
X108213000Y-48827000D01*
X108467000Y-48827000D01*
X108467000Y-50260750D01*
X108562250Y-50356000D01*
X109615000Y-50357843D01*
X109689689Y-50350487D01*
X109761508Y-50328701D01*
X109827696Y-50293322D01*
X109885711Y-50245711D01*
X109933322Y-50187696D01*
X109968701Y-50121508D01*
X109990487Y-50049689D01*
X109997843Y-49975000D01*
X109996000Y-48922250D01*
X109900750Y-48827000D01*
X108467000Y-48827000D01*
X108213000Y-48827000D01*
X106779250Y-48827000D01*
X106684000Y-48922250D01*
X106682157Y-49975000D01*
X65807086Y-49975000D01*
X65927809Y-49950987D01*
X66069942Y-49892113D01*
X66197859Y-49806642D01*
X66306642Y-49697859D01*
X66392113Y-49569942D01*
X66450987Y-49427809D01*
X66481000Y-49276922D01*
X66481000Y-49123078D01*
X66450987Y-48972191D01*
X66392113Y-48830058D01*
X66306642Y-48702141D01*
X66197859Y-48593358D01*
X66069942Y-48507887D01*
X65927809Y-48449013D01*
X65776922Y-48419000D01*
X65623078Y-48419000D01*
X65472191Y-48449013D01*
X65330058Y-48507887D01*
X65202141Y-48593358D01*
X65093358Y-48702141D01*
X65007887Y-48830058D01*
X64949013Y-48972191D01*
X64919000Y-49123078D01*
X64919000Y-49276922D01*
X64922017Y-49292090D01*
X62592090Y-51622017D01*
X62576922Y-51619000D01*
X62423078Y-51619000D01*
X62272191Y-51649013D01*
X62130058Y-51707887D01*
X62002141Y-51793358D01*
X61893358Y-51902141D01*
X61807887Y-52030058D01*
X61749013Y-52172191D01*
X61719000Y-52323078D01*
X46296055Y-52323078D01*
X46283693Y-52260931D01*
X46190898Y-52036903D01*
X46056180Y-51835283D01*
X45884717Y-51663820D01*
X45683097Y-51529102D01*
X45459069Y-51436307D01*
X45221243Y-51389000D01*
X44978757Y-51389000D01*
X44740931Y-51436307D01*
X44516903Y-51529102D01*
X44315283Y-51663820D01*
X44143820Y-51835283D01*
X44009102Y-52036903D01*
X43916307Y-52260931D01*
X43869000Y-52498757D01*
X43791000Y-52498757D01*
X43743693Y-52260931D01*
X43650898Y-52036903D01*
X43516180Y-51835283D01*
X43344717Y-51663820D01*
X43143097Y-51529102D01*
X42919069Y-51436307D01*
X42681243Y-51389000D01*
X42438757Y-51389000D01*
X42200931Y-51436307D01*
X41976903Y-51529102D01*
X41775283Y-51663820D01*
X41603820Y-51835283D01*
X41469102Y-52036903D01*
X41376307Y-52260931D01*
X41329000Y-52498757D01*
X30406000Y-52498757D01*
X30406000Y-49958757D01*
X41329000Y-49958757D01*
X41329000Y-50201243D01*
X41376307Y-50439069D01*
X41469102Y-50663097D01*
X41603820Y-50864717D01*
X41775283Y-51036180D01*
X41976903Y-51170898D01*
X42200931Y-51263693D01*
X42438757Y-51311000D01*
X42681243Y-51311000D01*
X42919069Y-51263693D01*
X43143097Y-51170898D01*
X43344717Y-51036180D01*
X43516180Y-50864717D01*
X43650898Y-50663097D01*
X43743693Y-50439069D01*
X43791000Y-50201243D01*
X43791000Y-49958757D01*
X43869000Y-49958757D01*
X43869000Y-50201243D01*
X43916307Y-50439069D01*
X44009102Y-50663097D01*
X44143820Y-50864717D01*
X44315283Y-51036180D01*
X44516903Y-51170898D01*
X44740931Y-51263693D01*
X44978757Y-51311000D01*
X45221243Y-51311000D01*
X45459069Y-51263693D01*
X45683097Y-51170898D01*
X45884717Y-51036180D01*
X46056180Y-50864717D01*
X46190898Y-50663097D01*
X46283693Y-50439069D01*
X46331000Y-50201243D01*
X46331000Y-49958757D01*
X46283693Y-49720931D01*
X46190898Y-49496903D01*
X46056180Y-49295283D01*
X45884717Y-49123820D01*
X45683097Y-48989102D01*
X45459069Y-48896307D01*
X45221243Y-48849000D01*
X44978757Y-48849000D01*
X44740931Y-48896307D01*
X44516903Y-48989102D01*
X44315283Y-49123820D01*
X44143820Y-49295283D01*
X44009102Y-49496903D01*
X43916307Y-49720931D01*
X43869000Y-49958757D01*
X43791000Y-49958757D01*
X43743693Y-49720931D01*
X43650898Y-49496903D01*
X43516180Y-49295283D01*
X43344717Y-49123820D01*
X43143097Y-48989102D01*
X42919069Y-48896307D01*
X42681243Y-48849000D01*
X42438757Y-48849000D01*
X42200931Y-48896307D01*
X41976903Y-48989102D01*
X41775283Y-49123820D01*
X41603820Y-49295283D01*
X41469102Y-49496903D01*
X41376307Y-49720931D01*
X41329000Y-49958757D01*
X30406000Y-49958757D01*
X30406000Y-47856980D01*
X41370511Y-47856980D01*
X41394866Y-47937288D01*
X41494761Y-48156961D01*
X41635592Y-48352924D01*
X41811948Y-48517647D01*
X42017051Y-48644799D01*
X42243019Y-48729495D01*
X42433000Y-48669187D01*
X42433000Y-47667000D01*
X42687000Y-47667000D01*
X42687000Y-48669187D01*
X42876981Y-48729495D01*
X43102949Y-48644799D01*
X43308052Y-48517647D01*
X43484408Y-48352924D01*
X43625239Y-48156961D01*
X43725134Y-47937288D01*
X43749489Y-47856980D01*
X43688627Y-47667000D01*
X42687000Y-47667000D01*
X42433000Y-47667000D01*
X41431373Y-47667000D01*
X41370511Y-47856980D01*
X30406000Y-47856980D01*
X30406000Y-47418757D01*
X43869000Y-47418757D01*
X43869000Y-47661243D01*
X43916307Y-47899069D01*
X44009102Y-48123097D01*
X44143820Y-48324717D01*
X44315283Y-48496180D01*
X44516903Y-48630898D01*
X44740931Y-48723693D01*
X44978757Y-48771000D01*
X45221243Y-48771000D01*
X45459069Y-48723693D01*
X45683097Y-48630898D01*
X45884717Y-48496180D01*
X46056180Y-48324717D01*
X46190898Y-48123097D01*
X46283693Y-47899069D01*
X46331000Y-47661243D01*
X46331000Y-47425000D01*
X106682157Y-47425000D01*
X106684000Y-48477750D01*
X106779250Y-48573000D01*
X108213000Y-48573000D01*
X108213000Y-47139250D01*
X108467000Y-47139250D01*
X108467000Y-48573000D01*
X109900750Y-48573000D01*
X109936852Y-48536898D01*
X110644000Y-48536898D01*
X110644000Y-48863102D01*
X110707639Y-49183037D01*
X110832472Y-49484410D01*
X111013701Y-49755639D01*
X111244361Y-49986299D01*
X111515590Y-50167528D01*
X111816963Y-50292361D01*
X112136898Y-50356000D01*
X112463102Y-50356000D01*
X112783037Y-50292361D01*
X113084410Y-50167528D01*
X113355639Y-49986299D01*
X113446493Y-49895445D01*
X115244160Y-49895445D01*
X115387515Y-50116937D01*
X115680711Y-50259925D01*
X115996168Y-50342965D01*
X116321764Y-50362867D01*
X116644986Y-50318866D01*
X116953413Y-50212653D01*
X117132485Y-50116937D01*
X117275840Y-49895445D01*
X116260000Y-48879605D01*
X115244160Y-49895445D01*
X113446493Y-49895445D01*
X113586299Y-49755639D01*
X113767528Y-49484410D01*
X113892361Y-49183037D01*
X113956000Y-48863102D01*
X113956000Y-48761764D01*
X114597133Y-48761764D01*
X114641134Y-49084986D01*
X114747347Y-49393413D01*
X114843063Y-49572485D01*
X115064555Y-49715840D01*
X116080395Y-48700000D01*
X116439605Y-48700000D01*
X117455445Y-49715840D01*
X117676937Y-49572485D01*
X117819925Y-49279289D01*
X117902965Y-48963832D01*
X117922867Y-48638236D01*
X117878866Y-48315014D01*
X117772653Y-48006587D01*
X117676937Y-47827515D01*
X117455445Y-47684160D01*
X116439605Y-48700000D01*
X116080395Y-48700000D01*
X115064555Y-47684160D01*
X114843063Y-47827515D01*
X114700075Y-48120711D01*
X114617035Y-48436168D01*
X114597133Y-48761764D01*
X113956000Y-48761764D01*
X113956000Y-48536898D01*
X113892361Y-48216963D01*
X113767528Y-47915590D01*
X113586299Y-47644361D01*
X113446493Y-47504555D01*
X115244160Y-47504555D01*
X116260000Y-48520395D01*
X117275840Y-47504555D01*
X117132485Y-47283063D01*
X116839289Y-47140075D01*
X116523832Y-47057035D01*
X116198236Y-47037133D01*
X115875014Y-47081134D01*
X115566587Y-47187347D01*
X115387515Y-47283063D01*
X115244160Y-47504555D01*
X113446493Y-47504555D01*
X113355639Y-47413701D01*
X113084410Y-47232472D01*
X112783037Y-47107639D01*
X112463102Y-47044000D01*
X112136898Y-47044000D01*
X111816963Y-47107639D01*
X111515590Y-47232472D01*
X111244361Y-47413701D01*
X111013701Y-47644361D01*
X110832472Y-47915590D01*
X110707639Y-48216963D01*
X110644000Y-48536898D01*
X109936852Y-48536898D01*
X109996000Y-48477750D01*
X109997843Y-47425000D01*
X109990487Y-47350311D01*
X109968701Y-47278492D01*
X109933322Y-47212304D01*
X109885711Y-47154289D01*
X109827696Y-47106678D01*
X109761508Y-47071299D01*
X109689689Y-47049513D01*
X109615000Y-47042157D01*
X108562250Y-47044000D01*
X108467000Y-47139250D01*
X108213000Y-47139250D01*
X108117750Y-47044000D01*
X107065000Y-47042157D01*
X106990311Y-47049513D01*
X106918492Y-47071299D01*
X106852304Y-47106678D01*
X106794289Y-47154289D01*
X106746678Y-47212304D01*
X106711299Y-47278492D01*
X106689513Y-47350311D01*
X106682157Y-47425000D01*
X46331000Y-47425000D01*
X46331000Y-47418757D01*
X46283693Y-47180931D01*
X46190898Y-46956903D01*
X46056180Y-46755283D01*
X45884717Y-46583820D01*
X45683097Y-46449102D01*
X45459069Y-46356307D01*
X45221243Y-46309000D01*
X44978757Y-46309000D01*
X44740931Y-46356307D01*
X44516903Y-46449102D01*
X44315283Y-46583820D01*
X44143820Y-46755283D01*
X44009102Y-46956903D01*
X43916307Y-47180931D01*
X43869000Y-47418757D01*
X30406000Y-47418757D01*
X30406000Y-47223020D01*
X41370511Y-47223020D01*
X41431373Y-47413000D01*
X42433000Y-47413000D01*
X42433000Y-46410813D01*
X42687000Y-46410813D01*
X42687000Y-47413000D01*
X43688627Y-47413000D01*
X43749489Y-47223020D01*
X43725134Y-47142712D01*
X43625239Y-46923039D01*
X43484408Y-46727076D01*
X43308052Y-46562353D01*
X43102949Y-46435201D01*
X42876981Y-46350505D01*
X42687000Y-46410813D01*
X42433000Y-46410813D01*
X42243019Y-46350505D01*
X42017051Y-46435201D01*
X41811948Y-46562353D01*
X41635592Y-46727076D01*
X41494761Y-46923039D01*
X41394866Y-47142712D01*
X41370511Y-47223020D01*
X30406000Y-47223020D01*
X30406000Y-42427000D01*
X54219000Y-42427000D01*
X54219000Y-43477000D01*
X54262626Y-43665943D01*
X54342275Y-43842745D01*
X54454886Y-44000611D01*
X54596131Y-44133474D01*
X54760582Y-44236229D01*
X54922393Y-44290902D01*
X55073000Y-44226598D01*
X55073000Y-42427000D01*
X55327000Y-42427000D01*
X55327000Y-44226598D01*
X55477607Y-44290902D01*
X55639418Y-44236229D01*
X55803869Y-44133474D01*
X55945114Y-44000611D01*
X56057725Y-43842745D01*
X56137374Y-43665943D01*
X56181000Y-43477000D01*
X56181000Y-42427000D01*
X55327000Y-42427000D01*
X55073000Y-42427000D01*
X54219000Y-42427000D01*
X30406000Y-42427000D01*
X30406000Y-41123000D01*
X54219000Y-41123000D01*
X54219000Y-42173000D01*
X55073000Y-42173000D01*
X55073000Y-40373402D01*
X55327000Y-40373402D01*
X55327000Y-42173000D01*
X56181000Y-42173000D01*
X56181000Y-41123000D01*
X56137374Y-40934057D01*
X56057725Y-40757255D01*
X55945114Y-40599389D01*
X55803869Y-40466526D01*
X55639418Y-40363771D01*
X55477607Y-40309098D01*
X55327000Y-40373402D01*
X55073000Y-40373402D01*
X54922393Y-40309098D01*
X54760582Y-40363771D01*
X54596131Y-40466526D01*
X54454886Y-40599389D01*
X54342275Y-40757255D01*
X54262626Y-40934057D01*
X54219000Y-41123000D01*
X30406000Y-41123000D01*
X30406000Y-34866595D01*
X31814879Y-34866595D01*
X31814879Y-35533405D01*
X31944967Y-36187403D01*
X32200145Y-36803456D01*
X32570605Y-37357889D01*
X33042111Y-37829395D01*
X33596544Y-38199855D01*
X34212597Y-38455033D01*
X34866595Y-38585121D01*
X35533405Y-38585121D01*
X36187403Y-38455033D01*
X36278739Y-38417200D01*
X42224000Y-38417200D01*
X42224000Y-38782800D01*
X42295325Y-39141375D01*
X42435234Y-39479145D01*
X42638351Y-39783131D01*
X42896869Y-40041649D01*
X43200855Y-40244766D01*
X43538625Y-40384675D01*
X43897200Y-40456000D01*
X44262800Y-40456000D01*
X44621375Y-40384675D01*
X44959145Y-40244766D01*
X45263131Y-40041649D01*
X45452966Y-39851814D01*
X59119000Y-39851814D01*
X59119001Y-42048187D01*
X59133196Y-42192310D01*
X59189290Y-42377229D01*
X59280383Y-42547651D01*
X59402973Y-42697028D01*
X59552350Y-42819618D01*
X59722772Y-42910711D01*
X59907691Y-42966805D01*
X60100000Y-42985746D01*
X60292310Y-42966805D01*
X60477229Y-42910711D01*
X60647651Y-42819618D01*
X60797028Y-42697028D01*
X60919618Y-42547651D01*
X61010711Y-42377229D01*
X61066805Y-42192310D01*
X61081000Y-42048187D01*
X61081000Y-39851813D01*
X61066805Y-39707690D01*
X61010711Y-39522771D01*
X60919618Y-39352349D01*
X60849308Y-39266676D01*
X60939418Y-39236229D01*
X61103869Y-39133474D01*
X61245114Y-39000611D01*
X61357725Y-38842745D01*
X61437374Y-38665943D01*
X61481000Y-38477000D01*
X61481000Y-37427000D01*
X64519000Y-37427000D01*
X64519000Y-38477000D01*
X64562626Y-38665943D01*
X64642275Y-38842745D01*
X64754886Y-39000611D01*
X64896131Y-39133474D01*
X65060582Y-39236229D01*
X65150692Y-39266676D01*
X65080382Y-39352349D01*
X64989289Y-39522772D01*
X64933195Y-39707691D01*
X64919000Y-39851814D01*
X64919001Y-42048187D01*
X64933196Y-42192310D01*
X64989290Y-42377229D01*
X65080383Y-42547651D01*
X65202973Y-42697028D01*
X65352350Y-42819618D01*
X65522772Y-42910711D01*
X65707691Y-42966805D01*
X65900000Y-42985746D01*
X66092310Y-42966805D01*
X66277229Y-42910711D01*
X66447651Y-42819618D01*
X66597028Y-42697028D01*
X66719618Y-42547651D01*
X66784107Y-42427000D01*
X69819000Y-42427000D01*
X69819000Y-43477000D01*
X69862626Y-43665943D01*
X69942275Y-43842745D01*
X70054886Y-44000611D01*
X70196131Y-44133474D01*
X70360582Y-44236229D01*
X70522393Y-44290902D01*
X70673000Y-44226598D01*
X70673000Y-42427000D01*
X70927000Y-42427000D01*
X70927000Y-44226598D01*
X71077607Y-44290902D01*
X71239418Y-44236229D01*
X71403869Y-44133474D01*
X71545114Y-44000611D01*
X71657725Y-43842745D01*
X71737374Y-43665943D01*
X71781000Y-43477000D01*
X71781000Y-42427000D01*
X70927000Y-42427000D01*
X70673000Y-42427000D01*
X69819000Y-42427000D01*
X66784107Y-42427000D01*
X66810711Y-42377229D01*
X66857471Y-42223078D01*
X98819000Y-42223078D01*
X98819000Y-42376922D01*
X98849013Y-42527809D01*
X98907887Y-42669942D01*
X98993358Y-42797859D01*
X99102141Y-42906642D01*
X99115000Y-42915234D01*
X99115001Y-45276173D01*
X99112654Y-45300000D01*
X99122019Y-45395076D01*
X99149752Y-45486499D01*
X99194787Y-45570755D01*
X99240210Y-45626103D01*
X99255395Y-45644606D01*
X99273897Y-45659790D01*
X99522017Y-45907910D01*
X99519000Y-45923078D01*
X99519000Y-46076922D01*
X99549013Y-46227809D01*
X99607887Y-46369942D01*
X99693358Y-46497859D01*
X99802141Y-46606642D01*
X99930058Y-46692113D01*
X100072191Y-46750987D01*
X100223078Y-46781000D01*
X100376922Y-46781000D01*
X100527809Y-46750987D01*
X100669942Y-46692113D01*
X100797859Y-46606642D01*
X100906642Y-46497859D01*
X100992113Y-46369942D01*
X101050987Y-46227809D01*
X101081000Y-46076922D01*
X101081000Y-45923078D01*
X101050987Y-45772191D01*
X100992113Y-45630058D01*
X100906642Y-45502141D01*
X100797859Y-45393358D01*
X100669942Y-45307887D01*
X100527809Y-45249013D01*
X100376922Y-45219000D01*
X100223078Y-45219000D01*
X100207910Y-45222017D01*
X100085000Y-45099107D01*
X100085000Y-42915234D01*
X100097859Y-42906642D01*
X100206642Y-42797859D01*
X100292113Y-42669942D01*
X100350987Y-42527809D01*
X100381000Y-42376922D01*
X100381000Y-42223078D01*
X100350987Y-42072191D01*
X100292113Y-41930058D01*
X100206642Y-41802141D01*
X100097859Y-41693358D01*
X99969942Y-41607887D01*
X99875840Y-41568908D01*
X100819000Y-41568908D01*
X100819000Y-41831092D01*
X100870150Y-42088238D01*
X100970483Y-42330465D01*
X101116145Y-42548463D01*
X101301537Y-42733855D01*
X101519535Y-42879517D01*
X101761762Y-42979850D01*
X102018908Y-43031000D01*
X102281092Y-43031000D01*
X102538238Y-42979850D01*
X102780465Y-42879517D01*
X102946002Y-42768908D01*
X105919000Y-42768908D01*
X105919000Y-43031092D01*
X105970150Y-43288238D01*
X106070483Y-43530465D01*
X106216145Y-43748463D01*
X106401537Y-43933855D01*
X106619535Y-44079517D01*
X106861762Y-44179850D01*
X107118908Y-44231000D01*
X107381092Y-44231000D01*
X107638238Y-44179850D01*
X107880465Y-44079517D01*
X108098463Y-43933855D01*
X108283855Y-43748463D01*
X108429517Y-43530465D01*
X108529850Y-43288238D01*
X108581000Y-43031092D01*
X108581000Y-42768908D01*
X108529850Y-42511762D01*
X108429517Y-42269535D01*
X108283855Y-42051537D01*
X108098463Y-41866145D01*
X107880465Y-41720483D01*
X107638238Y-41620150D01*
X107381092Y-41569000D01*
X107118908Y-41569000D01*
X106861762Y-41620150D01*
X106619535Y-41720483D01*
X106401537Y-41866145D01*
X106216145Y-42051537D01*
X106070483Y-42269535D01*
X105970150Y-42511762D01*
X105919000Y-42768908D01*
X102946002Y-42768908D01*
X102998463Y-42733855D01*
X103183855Y-42548463D01*
X103329517Y-42330465D01*
X103429850Y-42088238D01*
X103481000Y-41831092D01*
X103481000Y-41568908D01*
X103429850Y-41311762D01*
X103329517Y-41069535D01*
X103183855Y-40851537D01*
X102998463Y-40666145D01*
X102780465Y-40520483D01*
X102538238Y-40420150D01*
X102281092Y-40369000D01*
X102018908Y-40369000D01*
X101761762Y-40420150D01*
X101519535Y-40520483D01*
X101301537Y-40666145D01*
X101116145Y-40851537D01*
X100970483Y-41069535D01*
X100870150Y-41311762D01*
X100819000Y-41568908D01*
X99875840Y-41568908D01*
X99827809Y-41549013D01*
X99676922Y-41519000D01*
X99523078Y-41519000D01*
X99372191Y-41549013D01*
X99230058Y-41607887D01*
X99102141Y-41693358D01*
X98993358Y-41802141D01*
X98907887Y-41930058D01*
X98849013Y-42072191D01*
X98819000Y-42223078D01*
X66857471Y-42223078D01*
X66866805Y-42192310D01*
X66881000Y-42048187D01*
X66881000Y-41123000D01*
X69819000Y-41123000D01*
X69819000Y-42173000D01*
X70673000Y-42173000D01*
X70673000Y-40373402D01*
X70927000Y-40373402D01*
X70927000Y-42173000D01*
X71781000Y-42173000D01*
X71781000Y-41123000D01*
X71737374Y-40934057D01*
X71657725Y-40757255D01*
X71545114Y-40599389D01*
X71403869Y-40466526D01*
X71239418Y-40363771D01*
X71077607Y-40309098D01*
X70927000Y-40373402D01*
X70673000Y-40373402D01*
X70522393Y-40309098D01*
X70360582Y-40363771D01*
X70196131Y-40466526D01*
X70054886Y-40599389D01*
X69942275Y-40757255D01*
X69862626Y-40934057D01*
X69819000Y-41123000D01*
X66881000Y-41123000D01*
X66881000Y-39851813D01*
X66866805Y-39707690D01*
X66810711Y-39522771D01*
X66719618Y-39352349D01*
X66597028Y-39202972D01*
X66447651Y-39080382D01*
X66277228Y-38989289D01*
X66257466Y-38983294D01*
X66357725Y-38842745D01*
X66437374Y-38665943D01*
X66481000Y-38477000D01*
X66481000Y-37427000D01*
X65627000Y-37427000D01*
X65627000Y-37447000D01*
X65373000Y-37447000D01*
X65373000Y-37427000D01*
X64519000Y-37427000D01*
X61481000Y-37427000D01*
X60627000Y-37427000D01*
X60627000Y-37447000D01*
X60373000Y-37447000D01*
X60373000Y-37427000D01*
X59519000Y-37427000D01*
X59519000Y-38477000D01*
X59562626Y-38665943D01*
X59642275Y-38842745D01*
X59742533Y-38983294D01*
X59722771Y-38989289D01*
X59552349Y-39080382D01*
X59402972Y-39202972D01*
X59280382Y-39352349D01*
X59189289Y-39522772D01*
X59133195Y-39707691D01*
X59119000Y-39851814D01*
X45452966Y-39851814D01*
X45521649Y-39783131D01*
X45724766Y-39479145D01*
X45864675Y-39141375D01*
X45936000Y-38782800D01*
X45936000Y-38417200D01*
X45864675Y-38058625D01*
X45724766Y-37720855D01*
X45521649Y-37416869D01*
X45263131Y-37158351D01*
X44959145Y-36955234D01*
X44621375Y-36815325D01*
X44262800Y-36744000D01*
X43897200Y-36744000D01*
X43538625Y-36815325D01*
X43200855Y-36955234D01*
X42896869Y-37158351D01*
X42638351Y-37416869D01*
X42435234Y-37720855D01*
X42295325Y-38058625D01*
X42224000Y-38417200D01*
X36278739Y-38417200D01*
X36803456Y-38199855D01*
X37357889Y-37829395D01*
X37829395Y-37357889D01*
X38199855Y-36803456D01*
X38455033Y-36187403D01*
X38467843Y-36123000D01*
X59519000Y-36123000D01*
X59519000Y-37173000D01*
X60373000Y-37173000D01*
X60373000Y-35373402D01*
X60627000Y-35373402D01*
X60627000Y-37173000D01*
X61481000Y-37173000D01*
X61481000Y-36123000D01*
X64519000Y-36123000D01*
X64519000Y-37173000D01*
X65373000Y-37173000D01*
X65373000Y-35373402D01*
X65627000Y-35373402D01*
X65627000Y-37173000D01*
X66481000Y-37173000D01*
X66481000Y-36123000D01*
X66437374Y-35934057D01*
X66357725Y-35757255D01*
X66245114Y-35599389D01*
X66103869Y-35466526D01*
X65939418Y-35363771D01*
X65777607Y-35309098D01*
X65627000Y-35373402D01*
X65373000Y-35373402D01*
X65222393Y-35309098D01*
X65060582Y-35363771D01*
X64896131Y-35466526D01*
X64754886Y-35599389D01*
X64642275Y-35757255D01*
X64562626Y-35934057D01*
X64519000Y-36123000D01*
X61481000Y-36123000D01*
X61437374Y-35934057D01*
X61357725Y-35757255D01*
X61245114Y-35599389D01*
X61103869Y-35466526D01*
X60939418Y-35363771D01*
X60777607Y-35309098D01*
X60627000Y-35373402D01*
X60373000Y-35373402D01*
X60222393Y-35309098D01*
X60060582Y-35363771D01*
X59896131Y-35466526D01*
X59754886Y-35599389D01*
X59642275Y-35757255D01*
X59562626Y-35934057D01*
X59519000Y-36123000D01*
X38467843Y-36123000D01*
X38585121Y-35533405D01*
X38585121Y-35226995D01*
X53952611Y-35226995D01*
X54135092Y-35481785D01*
X54483654Y-35657223D01*
X54859744Y-35761289D01*
X55248911Y-35789984D01*
X55636198Y-35742205D01*
X56006722Y-35619788D01*
X56264908Y-35481785D01*
X56447389Y-35226995D01*
X69552611Y-35226995D01*
X69735092Y-35481785D01*
X70083654Y-35657223D01*
X70459744Y-35761289D01*
X70848911Y-35789984D01*
X71236198Y-35742205D01*
X71606722Y-35619788D01*
X71864908Y-35481785D01*
X72047389Y-35226995D01*
X70800000Y-33979605D01*
X69552611Y-35226995D01*
X56447389Y-35226995D01*
X55200000Y-33979605D01*
X53952611Y-35226995D01*
X38585121Y-35226995D01*
X38585121Y-34866595D01*
X38455033Y-34212597D01*
X38304390Y-33848911D01*
X53210016Y-33848911D01*
X53257795Y-34236198D01*
X53380212Y-34606722D01*
X53518215Y-34864908D01*
X53773005Y-35047389D01*
X55020395Y-33800000D01*
X55379605Y-33800000D01*
X56626995Y-35047389D01*
X56881785Y-34864908D01*
X57057223Y-34516346D01*
X57161289Y-34140256D01*
X57189984Y-33751089D01*
X57181061Y-33678757D01*
X59269000Y-33678757D01*
X59269000Y-33921243D01*
X59316307Y-34159069D01*
X59409102Y-34383097D01*
X59543820Y-34584717D01*
X59715283Y-34756180D01*
X59916903Y-34890898D01*
X60140931Y-34983693D01*
X60378757Y-35031000D01*
X60621243Y-35031000D01*
X60859069Y-34983693D01*
X61083097Y-34890898D01*
X61284717Y-34756180D01*
X61456180Y-34584717D01*
X61590898Y-34383097D01*
X61683693Y-34159069D01*
X61731000Y-33921243D01*
X61731000Y-33678757D01*
X64269000Y-33678757D01*
X64269000Y-33921243D01*
X64316307Y-34159069D01*
X64409102Y-34383097D01*
X64543820Y-34584717D01*
X64715283Y-34756180D01*
X64916903Y-34890898D01*
X65140931Y-34983693D01*
X65378757Y-35031000D01*
X65621243Y-35031000D01*
X65859069Y-34983693D01*
X66083097Y-34890898D01*
X66284717Y-34756180D01*
X66456180Y-34584717D01*
X66590898Y-34383097D01*
X66683693Y-34159069D01*
X66731000Y-33921243D01*
X66731000Y-33848911D01*
X68810016Y-33848911D01*
X68857795Y-34236198D01*
X68980212Y-34606722D01*
X69118215Y-34864908D01*
X69373005Y-35047389D01*
X70620395Y-33800000D01*
X70979605Y-33800000D01*
X72226995Y-35047389D01*
X72479429Y-34866595D01*
X195614879Y-34866595D01*
X195614879Y-35533405D01*
X195744967Y-36187403D01*
X196000145Y-36803456D01*
X196370605Y-37357889D01*
X196842111Y-37829395D01*
X197396544Y-38199855D01*
X198012597Y-38455033D01*
X198666595Y-38585121D01*
X199333405Y-38585121D01*
X199987403Y-38455033D01*
X200603456Y-38199855D01*
X201157889Y-37829395D01*
X201629395Y-37357889D01*
X201999855Y-36803456D01*
X202255033Y-36187403D01*
X202385121Y-35533405D01*
X202385121Y-34866595D01*
X202255033Y-34212597D01*
X201999855Y-33596544D01*
X201629395Y-33042111D01*
X201157889Y-32570605D01*
X200603456Y-32200145D01*
X199987403Y-31944967D01*
X199333405Y-31814879D01*
X198666595Y-31814879D01*
X198012597Y-31944967D01*
X197396544Y-32200145D01*
X196842111Y-32570605D01*
X196370605Y-33042111D01*
X196000145Y-33596544D01*
X195744967Y-34212597D01*
X195614879Y-34866595D01*
X72479429Y-34866595D01*
X72481785Y-34864908D01*
X72657223Y-34516346D01*
X72761289Y-34140256D01*
X72789984Y-33751089D01*
X72742205Y-33363802D01*
X72619788Y-32993278D01*
X72481785Y-32735092D01*
X72226995Y-32552611D01*
X70979605Y-33800000D01*
X70620395Y-33800000D01*
X69373005Y-32552611D01*
X69118215Y-32735092D01*
X68942777Y-33083654D01*
X68838711Y-33459744D01*
X68810016Y-33848911D01*
X66731000Y-33848911D01*
X66731000Y-33678757D01*
X66683693Y-33440931D01*
X66590898Y-33216903D01*
X66456180Y-33015283D01*
X66284717Y-32843820D01*
X66083097Y-32709102D01*
X65859069Y-32616307D01*
X65621243Y-32569000D01*
X65378757Y-32569000D01*
X65140931Y-32616307D01*
X64916903Y-32709102D01*
X64715283Y-32843820D01*
X64543820Y-33015283D01*
X64409102Y-33216903D01*
X64316307Y-33440931D01*
X64269000Y-33678757D01*
X61731000Y-33678757D01*
X61683693Y-33440931D01*
X61590898Y-33216903D01*
X61456180Y-33015283D01*
X61284717Y-32843820D01*
X61083097Y-32709102D01*
X60859069Y-32616307D01*
X60621243Y-32569000D01*
X60378757Y-32569000D01*
X60140931Y-32616307D01*
X59916903Y-32709102D01*
X59715283Y-32843820D01*
X59543820Y-33015283D01*
X59409102Y-33216903D01*
X59316307Y-33440931D01*
X59269000Y-33678757D01*
X57181061Y-33678757D01*
X57142205Y-33363802D01*
X57019788Y-32993278D01*
X56881785Y-32735092D01*
X56626995Y-32552611D01*
X55379605Y-33800000D01*
X55020395Y-33800000D01*
X53773005Y-32552611D01*
X53518215Y-32735092D01*
X53342777Y-33083654D01*
X53238711Y-33459744D01*
X53210016Y-33848911D01*
X38304390Y-33848911D01*
X38199855Y-33596544D01*
X37829395Y-33042111D01*
X37357889Y-32570605D01*
X37062160Y-32373005D01*
X53952611Y-32373005D01*
X55200000Y-33620395D01*
X56447389Y-32373005D01*
X56264908Y-32118215D01*
X55916346Y-31942777D01*
X55540256Y-31838711D01*
X55151089Y-31810016D01*
X54763802Y-31857795D01*
X54393278Y-31980212D01*
X54135092Y-32118215D01*
X53952611Y-32373005D01*
X37062160Y-32373005D01*
X36803456Y-32200145D01*
X36187403Y-31944967D01*
X35533405Y-31814879D01*
X34866595Y-31814879D01*
X34212597Y-31944967D01*
X33596544Y-32200145D01*
X33042111Y-32570605D01*
X32570605Y-33042111D01*
X32200145Y-33596544D01*
X31944967Y-34212597D01*
X31814879Y-34866595D01*
X30406000Y-34866595D01*
X30406000Y-31800000D01*
X61213286Y-31800000D01*
X61236088Y-32031516D01*
X61303619Y-32254136D01*
X61413283Y-32459303D01*
X61560866Y-32639134D01*
X61740697Y-32786717D01*
X61945864Y-32896381D01*
X62168484Y-32963912D01*
X62341984Y-32981000D01*
X63658016Y-32981000D01*
X63831516Y-32963912D01*
X64054136Y-32896381D01*
X64259303Y-32786717D01*
X64439134Y-32639134D01*
X64586717Y-32459303D01*
X64632844Y-32373005D01*
X69552611Y-32373005D01*
X70800000Y-33620395D01*
X72047389Y-32373005D01*
X71864908Y-32118215D01*
X71516346Y-31942777D01*
X71140256Y-31838711D01*
X70751089Y-31810016D01*
X70363802Y-31857795D01*
X69993278Y-31980212D01*
X69735092Y-32118215D01*
X69552611Y-32373005D01*
X64632844Y-32373005D01*
X64696381Y-32254136D01*
X64763912Y-32031516D01*
X64786714Y-31800000D01*
X64763912Y-31568484D01*
X64696381Y-31345864D01*
X64586717Y-31140697D01*
X64439134Y-30960866D01*
X64259303Y-30813283D01*
X64054136Y-30703619D01*
X63831516Y-30636088D01*
X63658016Y-30619000D01*
X62341984Y-30619000D01*
X62168484Y-30636088D01*
X61945864Y-30703619D01*
X61740697Y-30813283D01*
X61560866Y-30960866D01*
X61413283Y-31140697D01*
X61303619Y-31345864D01*
X61236088Y-31568484D01*
X61213286Y-31800000D01*
X30406000Y-31800000D01*
X30406000Y-30406000D01*
X203594001Y-30406000D01*
X203594000Y-87094000D01*
%TA.AperFunction,Conductor*%
D33*
G36*
X203594000Y-87094000D02*
G01*
X159412693Y-87094000D01*
X161390099Y-85116594D01*
X161408606Y-85101406D01*
X161454979Y-85044900D01*
X161469213Y-85027556D01*
X161501835Y-84966523D01*
X161514249Y-84943299D01*
X161541982Y-84851876D01*
X161549000Y-84780620D01*
X161549000Y-84780618D01*
X161551346Y-84756801D01*
X161549000Y-84732984D01*
X161549000Y-82166595D01*
X195614879Y-82166595D01*
X195614879Y-82833405D01*
X195744967Y-83487403D01*
X196000145Y-84103456D01*
X196370605Y-84657889D01*
X196842111Y-85129395D01*
X197396544Y-85499855D01*
X198012597Y-85755033D01*
X198666595Y-85885121D01*
X199333405Y-85885121D01*
X199987403Y-85755033D01*
X200603456Y-85499855D01*
X201157889Y-85129395D01*
X201629395Y-84657889D01*
X201999855Y-84103456D01*
X202255033Y-83487403D01*
X202385121Y-82833405D01*
X202385121Y-82166595D01*
X202255033Y-81512597D01*
X201999855Y-80896544D01*
X201629395Y-80342111D01*
X201157889Y-79870605D01*
X200603456Y-79500145D01*
X199987403Y-79244967D01*
X199333405Y-79114879D01*
X198666595Y-79114879D01*
X198012597Y-79244967D01*
X197396544Y-79500145D01*
X196842111Y-79870605D01*
X196370605Y-80342111D01*
X196000145Y-80896544D01*
X195744967Y-81512597D01*
X195614879Y-82166595D01*
X161549000Y-82166595D01*
X161549000Y-80115911D01*
X186918600Y-80115911D01*
X186918600Y-80456889D01*
X186985121Y-80791314D01*
X187115607Y-81106336D01*
X187305044Y-81389848D01*
X187546152Y-81630956D01*
X187829664Y-81820393D01*
X188144686Y-81950879D01*
X188479111Y-82017400D01*
X188820089Y-82017400D01*
X189154514Y-81950879D01*
X189469536Y-81820393D01*
X189753048Y-81630956D01*
X189994156Y-81389848D01*
X190183593Y-81106336D01*
X190314079Y-80791314D01*
X190380600Y-80456889D01*
X190380600Y-80115911D01*
X190878600Y-80115911D01*
X190878600Y-80456889D01*
X190945121Y-80791314D01*
X191075607Y-81106336D01*
X191265044Y-81389848D01*
X191506152Y-81630956D01*
X191789664Y-81820393D01*
X192104686Y-81950879D01*
X192439111Y-82017400D01*
X192780089Y-82017400D01*
X193114514Y-81950879D01*
X193429536Y-81820393D01*
X193713048Y-81630956D01*
X193954156Y-81389848D01*
X194143593Y-81106336D01*
X194274079Y-80791314D01*
X194340600Y-80456889D01*
X194340600Y-80115911D01*
X194274079Y-79781486D01*
X194143593Y-79466464D01*
X193954156Y-79182952D01*
X193713048Y-78941844D01*
X193429536Y-78752407D01*
X193114514Y-78621921D01*
X192780089Y-78555400D01*
X192439111Y-78555400D01*
X192104686Y-78621921D01*
X191789664Y-78752407D01*
X191506152Y-78941844D01*
X191265044Y-79182952D01*
X191075607Y-79466464D01*
X190945121Y-79781486D01*
X190878600Y-80115911D01*
X190380600Y-80115911D01*
X190314079Y-79781486D01*
X190183593Y-79466464D01*
X189994156Y-79182952D01*
X189753048Y-78941844D01*
X189469536Y-78752407D01*
X189154514Y-78621921D01*
X188820089Y-78555400D01*
X188479111Y-78555400D01*
X188144686Y-78621921D01*
X187829664Y-78752407D01*
X187546152Y-78941844D01*
X187305044Y-79182952D01*
X187115607Y-79466464D01*
X186985121Y-79781486D01*
X186918600Y-80115911D01*
X161549000Y-80115911D01*
X161549000Y-68396893D01*
X164946099Y-64999794D01*
X164964606Y-64984606D01*
X165025213Y-64910755D01*
X165070249Y-64826499D01*
X165097982Y-64735076D01*
X165105000Y-64663820D01*
X165105000Y-64663818D01*
X165107346Y-64640001D01*
X165105000Y-64616184D01*
X165105000Y-51328092D01*
X165229294Y-51203798D01*
X165247806Y-51188606D01*
X165308413Y-51114755D01*
X165353449Y-51030499D01*
X165381182Y-50939076D01*
X165388200Y-50867820D01*
X165388200Y-50867818D01*
X165390546Y-50844001D01*
X165388200Y-50820184D01*
X165388200Y-50138434D01*
X165401059Y-50129842D01*
X165509842Y-50021059D01*
X165595313Y-49893142D01*
X165654187Y-49751009D01*
X165684200Y-49600122D01*
X165684200Y-49529461D01*
X165712991Y-49541387D01*
X165863878Y-49571400D01*
X166017722Y-49571400D01*
X166168609Y-49541387D01*
X166310742Y-49482513D01*
X166438659Y-49397042D01*
X166547442Y-49288259D01*
X166632320Y-49161229D01*
X173022200Y-49161229D01*
X173022200Y-49334771D01*
X173056056Y-49504978D01*
X173122468Y-49665310D01*
X173218882Y-49809605D01*
X173341595Y-49932318D01*
X173485890Y-50028732D01*
X173646222Y-50095144D01*
X173718211Y-50109463D01*
X174647201Y-50976522D01*
X174647200Y-60693676D01*
X174622468Y-60730690D01*
X174556056Y-60891022D01*
X174522200Y-61061229D01*
X174522200Y-61234771D01*
X174556056Y-61404978D01*
X174622468Y-61565310D01*
X174718882Y-61709605D01*
X174841595Y-61832318D01*
X174985890Y-61928732D01*
X175146222Y-61995144D01*
X175316429Y-62029000D01*
X175489971Y-62029000D01*
X175660178Y-61995144D01*
X175820510Y-61928732D01*
X175964805Y-61832318D01*
X176087518Y-61709605D01*
X176183932Y-61565310D01*
X176250344Y-61404978D01*
X176284200Y-61234771D01*
X176284200Y-61061229D01*
X176250344Y-60891022D01*
X176183932Y-60730690D01*
X176159200Y-60693676D01*
X176159200Y-50672064D01*
X176162405Y-50621820D01*
X176154282Y-50560941D01*
X176148260Y-50499798D01*
X176144447Y-50487228D01*
X176142710Y-50474209D01*
X176122865Y-50416080D01*
X176105032Y-50357292D01*
X176098839Y-50345706D01*
X176094596Y-50333277D01*
X176063796Y-50280144D01*
X176034832Y-50225957D01*
X176026496Y-50215799D01*
X176019911Y-50204440D01*
X175979343Y-50158343D01*
X175940359Y-50110841D01*
X175901429Y-50078892D01*
X174753648Y-49007630D01*
X174750344Y-48991022D01*
X174683932Y-48830690D01*
X174587518Y-48686395D01*
X174464805Y-48563682D01*
X174320510Y-48467268D01*
X174160178Y-48400856D01*
X173989971Y-48367000D01*
X173816429Y-48367000D01*
X173646222Y-48400856D01*
X173485890Y-48467268D01*
X173341595Y-48563682D01*
X173218882Y-48686395D01*
X173122468Y-48830690D01*
X173056056Y-48991022D01*
X173022200Y-49161229D01*
X166632320Y-49161229D01*
X166632913Y-49160342D01*
X166691787Y-49018209D01*
X166721800Y-48867322D01*
X166721800Y-48713478D01*
X166720381Y-48706343D01*
X166771111Y-48733459D01*
X166862534Y-48761192D01*
X166933790Y-48768210D01*
X166933793Y-48768210D01*
X166957610Y-48770556D01*
X166981427Y-48768210D01*
X167348308Y-48768210D01*
X167356900Y-48781069D01*
X167465683Y-48889852D01*
X167593600Y-48975323D01*
X167735733Y-49034197D01*
X167886620Y-49064210D01*
X168040464Y-49064210D01*
X168191351Y-49034197D01*
X168333484Y-48975323D01*
X168461401Y-48889852D01*
X168570184Y-48781069D01*
X168655655Y-48653152D01*
X168714529Y-48511019D01*
X168744542Y-48360132D01*
X168744542Y-48295376D01*
X168802301Y-48326249D01*
X168893724Y-48353982D01*
X168964980Y-48361000D01*
X168964982Y-48361000D01*
X168988799Y-48363346D01*
X169012616Y-48361000D01*
X169287966Y-48361000D01*
X169296558Y-48373859D01*
X169405341Y-48482642D01*
X169533258Y-48568113D01*
X169675391Y-48626987D01*
X169826278Y-48657000D01*
X169980122Y-48657000D01*
X170131009Y-48626987D01*
X170273142Y-48568113D01*
X170401059Y-48482642D01*
X170411200Y-48472501D01*
X170421341Y-48482642D01*
X170549258Y-48568113D01*
X170691391Y-48626987D01*
X170842278Y-48657000D01*
X170996122Y-48657000D01*
X171147009Y-48626987D01*
X171289142Y-48568113D01*
X171417059Y-48482642D01*
X171525842Y-48373859D01*
X171611313Y-48245942D01*
X171670187Y-48103809D01*
X171700200Y-47952922D01*
X171700200Y-47799078D01*
X171670187Y-47648191D01*
X171611313Y-47506058D01*
X171525842Y-47378141D01*
X171417059Y-47269358D01*
X171289142Y-47183887D01*
X171147009Y-47125013D01*
X170996122Y-47095000D01*
X170842278Y-47095000D01*
X170827110Y-47098017D01*
X170466194Y-46737101D01*
X170451006Y-46718594D01*
X170377155Y-46657987D01*
X170292899Y-46612951D01*
X170201476Y-46585218D01*
X170130220Y-46578200D01*
X170130217Y-46578200D01*
X170106400Y-46575854D01*
X170082583Y-46578200D01*
X164339017Y-46578200D01*
X164315200Y-46575854D01*
X164291383Y-46578200D01*
X164291380Y-46578200D01*
X164220124Y-46585218D01*
X164149979Y-46606497D01*
X164128700Y-46612951D01*
X164044444Y-46657987D01*
X163989096Y-46703410D01*
X163970594Y-46718594D01*
X163955410Y-46737096D01*
X162261901Y-48430606D01*
X162243394Y-48445794D01*
X162182787Y-48519645D01*
X162137751Y-48603902D01*
X162110018Y-48695325D01*
X162103286Y-48763682D01*
X162100654Y-48790400D01*
X162103000Y-48814217D01*
X162103001Y-64032706D01*
X158705901Y-67429806D01*
X158687394Y-67444994D01*
X158626787Y-67518845D01*
X158581751Y-67603102D01*
X158554018Y-67694525D01*
X158547000Y-67765780D01*
X158544654Y-67789600D01*
X158547000Y-67813417D01*
X158547001Y-84149505D01*
X157916707Y-84779800D01*
X136169694Y-84779800D01*
X135437800Y-84047907D01*
X135437800Y-77160617D01*
X135440146Y-77136800D01*
X135436509Y-77099875D01*
X135430782Y-77041724D01*
X135403049Y-76950301D01*
X135370684Y-76889751D01*
X135358013Y-76866044D01*
X135312590Y-76810696D01*
X135297406Y-76792194D01*
X135278904Y-76777010D01*
X133280594Y-74778701D01*
X133265406Y-74760194D01*
X133191555Y-74699587D01*
X133107299Y-74654551D01*
X133015876Y-74626818D01*
X132944620Y-74619800D01*
X132944617Y-74619800D01*
X132920800Y-74617454D01*
X132896983Y-74619800D01*
X122276616Y-74619800D01*
X122252799Y-74617454D01*
X122228982Y-74619800D01*
X122228980Y-74619800D01*
X122157724Y-74626818D01*
X122066301Y-74654551D01*
X122028371Y-74674825D01*
X121982044Y-74699587D01*
X121947122Y-74728247D01*
X121908194Y-74760194D01*
X121893010Y-74778696D01*
X119793101Y-76878606D01*
X119774594Y-76893794D01*
X119713987Y-76967645D01*
X119668951Y-77051902D01*
X119641218Y-77143325D01*
X119635053Y-77205921D01*
X119631854Y-77238400D01*
X119634200Y-77262217D01*
X119634201Y-84576600D01*
X102235294Y-84576600D01*
X101479794Y-83821101D01*
X101464606Y-83802594D01*
X101390755Y-83741987D01*
X101306499Y-83696951D01*
X101215076Y-83669218D01*
X101143820Y-83662200D01*
X101143817Y-83662200D01*
X101120000Y-83659854D01*
X101096183Y-83662200D01*
X94248094Y-83662200D01*
X94177983Y-83592089D01*
X94181000Y-83576922D01*
X94181000Y-83423078D01*
X94150987Y-83272191D01*
X94092113Y-83130058D01*
X94006642Y-83002141D01*
X93897859Y-82893358D01*
X93769942Y-82807887D01*
X93627809Y-82749013D01*
X93476922Y-82719000D01*
X93323078Y-82719000D01*
X93172191Y-82749013D01*
X93030058Y-82807887D01*
X92902141Y-82893358D01*
X92793358Y-83002141D01*
X92707887Y-83130058D01*
X92649013Y-83272191D01*
X92619000Y-83423078D01*
X92619000Y-83576922D01*
X92649013Y-83727809D01*
X92707887Y-83869942D01*
X92793358Y-83997859D01*
X92902141Y-84106642D01*
X92914650Y-84115000D01*
X85247816Y-84115000D01*
X85223999Y-84112654D01*
X85200182Y-84115000D01*
X85200180Y-84115000D01*
X85128924Y-84122018D01*
X85037501Y-84149751D01*
X84953245Y-84194787D01*
X84879394Y-84255394D01*
X84864206Y-84273901D01*
X84193551Y-84944556D01*
X65204043Y-84944556D01*
X65267488Y-84892488D01*
X65346190Y-84796589D01*
X65404671Y-84687179D01*
X65440683Y-84568462D01*
X65452843Y-84445001D01*
X65452843Y-82754999D01*
X65440683Y-82631538D01*
X65404671Y-82512821D01*
X65346190Y-82403411D01*
X65267488Y-82307512D01*
X65171589Y-82228810D01*
X65062179Y-82170329D01*
X64943462Y-82134317D01*
X64820001Y-82122157D01*
X63579999Y-82122157D01*
X63456538Y-82134317D01*
X63337821Y-82170329D01*
X63228411Y-82228810D01*
X63132512Y-82307512D01*
X63053810Y-82403411D01*
X62995329Y-82512821D01*
X62959317Y-82631538D01*
X62947157Y-82754999D01*
X62947157Y-84445001D01*
X62959317Y-84568462D01*
X62995329Y-84687179D01*
X63053810Y-84796589D01*
X63132512Y-84892488D01*
X63195957Y-84944556D01*
X62219272Y-84944556D01*
X62358380Y-84870201D01*
X62548871Y-84713871D01*
X62705201Y-84523381D01*
X62821366Y-84306053D01*
X62892899Y-84070239D01*
X62911000Y-83886457D01*
X62911000Y-83313544D01*
X62892899Y-83129762D01*
X62821366Y-82893948D01*
X62705201Y-82676619D01*
X62548871Y-82486129D01*
X62358381Y-82329799D01*
X62141053Y-82213634D01*
X61905239Y-82142101D01*
X61660000Y-82117947D01*
X61414762Y-82142101D01*
X61178948Y-82213634D01*
X60961620Y-82329799D01*
X60771130Y-82486129D01*
X60614800Y-82676619D01*
X60498634Y-82893947D01*
X60427101Y-83129761D01*
X60409000Y-83313543D01*
X60409000Y-83886456D01*
X60427101Y-84070238D01*
X60498634Y-84306052D01*
X60614799Y-84523380D01*
X60771129Y-84713871D01*
X60961619Y-84870201D01*
X61100727Y-84944556D01*
X57844043Y-84944556D01*
X57907488Y-84892488D01*
X57986190Y-84796589D01*
X58044671Y-84687179D01*
X58080683Y-84568462D01*
X58092843Y-84445001D01*
X58092843Y-82754999D01*
X58080683Y-82631538D01*
X58044671Y-82512821D01*
X57986190Y-82403411D01*
X57907488Y-82307512D01*
X57811589Y-82228810D01*
X57702179Y-82170329D01*
X57583462Y-82134317D01*
X57460001Y-82122157D01*
X56219999Y-82122157D01*
X56096538Y-82134317D01*
X55977821Y-82170329D01*
X55868411Y-82228810D01*
X55772512Y-82307512D01*
X55693810Y-82403411D01*
X55635329Y-82512821D01*
X55599317Y-82631538D01*
X55587157Y-82754999D01*
X55587157Y-84445001D01*
X55599317Y-84568462D01*
X55635329Y-84687179D01*
X55693810Y-84796589D01*
X55772512Y-84892488D01*
X55835957Y-84944556D01*
X54859272Y-84944556D01*
X54998380Y-84870201D01*
X55188871Y-84713871D01*
X55345201Y-84523381D01*
X55461366Y-84306053D01*
X55532899Y-84070239D01*
X55551000Y-83886457D01*
X55551000Y-83313544D01*
X55532899Y-83129762D01*
X55461366Y-82893948D01*
X55345201Y-82676619D01*
X55188871Y-82486129D01*
X54998381Y-82329799D01*
X54781053Y-82213634D01*
X54545239Y-82142101D01*
X54300000Y-82117947D01*
X54054762Y-82142101D01*
X53818948Y-82213634D01*
X53601620Y-82329799D01*
X53411130Y-82486129D01*
X53254800Y-82676619D01*
X53138634Y-82893947D01*
X53067101Y-83129761D01*
X53049000Y-83313543D01*
X53049000Y-83886456D01*
X53067101Y-84070238D01*
X53138634Y-84306052D01*
X53254799Y-84523380D01*
X53411129Y-84713871D01*
X53601619Y-84870201D01*
X53740727Y-84944556D01*
X46028561Y-84944556D01*
X40241205Y-79157200D01*
X42224000Y-79157200D01*
X42224000Y-79522800D01*
X42295325Y-79881375D01*
X42435234Y-80219145D01*
X42638351Y-80523131D01*
X42896869Y-80781649D01*
X43200855Y-80984766D01*
X43538625Y-81124675D01*
X43897200Y-81196000D01*
X44262800Y-81196000D01*
X44621375Y-81124675D01*
X44959145Y-80984766D01*
X45263131Y-80781649D01*
X45521649Y-80523131D01*
X45724766Y-80219145D01*
X45864675Y-79881375D01*
X45936000Y-79522800D01*
X45936000Y-79157200D01*
X45864675Y-78798625D01*
X45724766Y-78460855D01*
X45521649Y-78156869D01*
X45263131Y-77898351D01*
X44959145Y-77695234D01*
X44621375Y-77555325D01*
X44262800Y-77484000D01*
X43897200Y-77484000D01*
X43538625Y-77555325D01*
X43200855Y-77695234D01*
X42896869Y-77898351D01*
X42638351Y-78156869D01*
X42435234Y-78460855D01*
X42295325Y-78798625D01*
X42224000Y-79157200D01*
X40241205Y-79157200D01*
X36807083Y-75723078D01*
X61819000Y-75723078D01*
X61819000Y-75876922D01*
X61849013Y-76027809D01*
X61907887Y-76169942D01*
X61993358Y-76297859D01*
X62102141Y-76406642D01*
X62230058Y-76492113D01*
X62372191Y-76550987D01*
X62523078Y-76581000D01*
X62676922Y-76581000D01*
X62827809Y-76550987D01*
X62969942Y-76492113D01*
X63061405Y-76431000D01*
X65438595Y-76431000D01*
X65530058Y-76492113D01*
X65672191Y-76550987D01*
X65823078Y-76581000D01*
X65976922Y-76581000D01*
X66127809Y-76550987D01*
X66269942Y-76492113D01*
X66397859Y-76406642D01*
X66506642Y-76297859D01*
X66592113Y-76169942D01*
X66650987Y-76027809D01*
X66681000Y-75876922D01*
X66681000Y-75723078D01*
X66650987Y-75572191D01*
X66592113Y-75430058D01*
X66506642Y-75302141D01*
X66397859Y-75193358D01*
X66269942Y-75107887D01*
X66127809Y-75049013D01*
X65976922Y-75019000D01*
X65823078Y-75019000D01*
X65672191Y-75049013D01*
X65530058Y-75107887D01*
X65438595Y-75169000D01*
X63061405Y-75169000D01*
X62969942Y-75107887D01*
X62827809Y-75049013D01*
X62676922Y-75019000D01*
X62523078Y-75019000D01*
X62372191Y-75049013D01*
X62230058Y-75107887D01*
X62102141Y-75193358D01*
X61993358Y-75302141D01*
X61907887Y-75430058D01*
X61849013Y-75572191D01*
X61819000Y-75723078D01*
X36807083Y-75723078D01*
X36573906Y-75489901D01*
X36558718Y-75471394D01*
X36484867Y-75410787D01*
X36470716Y-75403223D01*
X35375500Y-74308007D01*
X35667898Y-74308007D01*
X35722571Y-74469818D01*
X35825326Y-74634269D01*
X35958189Y-74775514D01*
X36116055Y-74888125D01*
X36292857Y-74967774D01*
X36481800Y-75011400D01*
X36781800Y-75011400D01*
X36781800Y-74157400D01*
X37035800Y-74157400D01*
X37035800Y-75011400D01*
X37335800Y-75011400D01*
X37524743Y-74967774D01*
X37701545Y-74888125D01*
X37859411Y-74775514D01*
X37992274Y-74634269D01*
X38095029Y-74469818D01*
X38149702Y-74308007D01*
X38085398Y-74157400D01*
X37035800Y-74157400D01*
X36781800Y-74157400D01*
X35732202Y-74157400D01*
X35667898Y-74308007D01*
X35375500Y-74308007D01*
X35260200Y-74192707D01*
X35260200Y-73752793D01*
X35667898Y-73752793D01*
X35732202Y-73903400D01*
X36781800Y-73903400D01*
X36781800Y-73049400D01*
X37035800Y-73049400D01*
X37035800Y-73903400D01*
X38085398Y-73903400D01*
X38149702Y-73752793D01*
X38095029Y-73590982D01*
X37992274Y-73426531D01*
X37859411Y-73285286D01*
X37701545Y-73172675D01*
X37524743Y-73093026D01*
X37335800Y-73049400D01*
X37035800Y-73049400D01*
X36781800Y-73049400D01*
X36481800Y-73049400D01*
X36292857Y-73093026D01*
X36116055Y-73172675D01*
X35958189Y-73285286D01*
X35825326Y-73426531D01*
X35722571Y-73590982D01*
X35667898Y-73752793D01*
X35260200Y-73752793D01*
X35260200Y-72308007D01*
X35667898Y-72308007D01*
X35722571Y-72469818D01*
X35825326Y-72634269D01*
X35958189Y-72775514D01*
X36116055Y-72888125D01*
X36292857Y-72967774D01*
X36481800Y-73011400D01*
X36781800Y-73011400D01*
X36781800Y-72157400D01*
X37035800Y-72157400D01*
X37035800Y-73011400D01*
X37335800Y-73011400D01*
X37524743Y-72967774D01*
X37701545Y-72888125D01*
X37859411Y-72775514D01*
X37992274Y-72634269D01*
X38095029Y-72469818D01*
X38149702Y-72308007D01*
X38085398Y-72157400D01*
X37035800Y-72157400D01*
X36781800Y-72157400D01*
X35732202Y-72157400D01*
X35667898Y-72308007D01*
X35260200Y-72308007D01*
X35260200Y-71752793D01*
X35667898Y-71752793D01*
X35732202Y-71903400D01*
X36781800Y-71903400D01*
X36781800Y-71049400D01*
X37035800Y-71049400D01*
X37035800Y-71903400D01*
X38085398Y-71903400D01*
X38149702Y-71752793D01*
X38095029Y-71590982D01*
X37992274Y-71426531D01*
X37859411Y-71285286D01*
X37701545Y-71172675D01*
X37524743Y-71093026D01*
X37335800Y-71049400D01*
X37035800Y-71049400D01*
X36781800Y-71049400D01*
X36481800Y-71049400D01*
X36292857Y-71093026D01*
X36116055Y-71172675D01*
X35958189Y-71285286D01*
X35825326Y-71426531D01*
X35722571Y-71590982D01*
X35667898Y-71752793D01*
X35260200Y-71752793D01*
X35260200Y-70308007D01*
X35667898Y-70308007D01*
X35722571Y-70469818D01*
X35825326Y-70634269D01*
X35958189Y-70775514D01*
X36116055Y-70888125D01*
X36292857Y-70967774D01*
X36481800Y-71011400D01*
X36781800Y-71011400D01*
X36781800Y-70157400D01*
X37035800Y-70157400D01*
X37035800Y-71011400D01*
X37335800Y-71011400D01*
X37524743Y-70967774D01*
X37701545Y-70888125D01*
X37859411Y-70775514D01*
X37992274Y-70634269D01*
X38095029Y-70469818D01*
X38149702Y-70308007D01*
X38137214Y-70278757D01*
X41329000Y-70278757D01*
X41329000Y-70521243D01*
X41376307Y-70759069D01*
X41469102Y-70983097D01*
X41603820Y-71184717D01*
X41775283Y-71356180D01*
X41976903Y-71490898D01*
X42200931Y-71583693D01*
X42438757Y-71631000D01*
X42681243Y-71631000D01*
X42919069Y-71583693D01*
X43143097Y-71490898D01*
X43344717Y-71356180D01*
X43450897Y-71250000D01*
X43867157Y-71250000D01*
X43874513Y-71324689D01*
X43896299Y-71396508D01*
X43931678Y-71462696D01*
X43979289Y-71520711D01*
X44037304Y-71568322D01*
X44103492Y-71603701D01*
X44175311Y-71625487D01*
X44250000Y-71632843D01*
X44877750Y-71631000D01*
X44973000Y-71535750D01*
X44973000Y-70527000D01*
X45227000Y-70527000D01*
X45227000Y-71535750D01*
X45322250Y-71631000D01*
X45950000Y-71632843D01*
X46024689Y-71625487D01*
X46096508Y-71603701D01*
X46162696Y-71568322D01*
X46220711Y-71520711D01*
X46268322Y-71462696D01*
X46303701Y-71396508D01*
X46325487Y-71324689D01*
X46332843Y-71250000D01*
X46331000Y-70622250D01*
X46235750Y-70527000D01*
X45227000Y-70527000D01*
X44973000Y-70527000D01*
X43964250Y-70527000D01*
X43869000Y-70622250D01*
X43867157Y-71250000D01*
X43450897Y-71250000D01*
X43516180Y-71184717D01*
X43650898Y-70983097D01*
X43743693Y-70759069D01*
X43791000Y-70521243D01*
X43791000Y-70278757D01*
X43743693Y-70040931D01*
X43650898Y-69816903D01*
X43516180Y-69615283D01*
X43450897Y-69550000D01*
X43867157Y-69550000D01*
X43869000Y-70177750D01*
X43964250Y-70273000D01*
X44973000Y-70273000D01*
X44973000Y-69264250D01*
X45227000Y-69264250D01*
X45227000Y-70273000D01*
X46235750Y-70273000D01*
X46331000Y-70177750D01*
X46332843Y-69550000D01*
X46325487Y-69475311D01*
X46303701Y-69403492D01*
X46268322Y-69337304D01*
X46220711Y-69279289D01*
X46162696Y-69231678D01*
X46096508Y-69196299D01*
X46024689Y-69174513D01*
X45950000Y-69167157D01*
X45322250Y-69169000D01*
X45227000Y-69264250D01*
X44973000Y-69264250D01*
X44877750Y-69169000D01*
X44250000Y-69167157D01*
X44175311Y-69174513D01*
X44103492Y-69196299D01*
X44037304Y-69231678D01*
X43979289Y-69279289D01*
X43931678Y-69337304D01*
X43896299Y-69403492D01*
X43874513Y-69475311D01*
X43867157Y-69550000D01*
X43450897Y-69550000D01*
X43344717Y-69443820D01*
X43143097Y-69309102D01*
X42919069Y-69216307D01*
X42681243Y-69169000D01*
X42438757Y-69169000D01*
X42200931Y-69216307D01*
X41976903Y-69309102D01*
X41775283Y-69443820D01*
X41603820Y-69615283D01*
X41469102Y-69816903D01*
X41376307Y-70040931D01*
X41329000Y-70278757D01*
X38137214Y-70278757D01*
X38085398Y-70157400D01*
X37035800Y-70157400D01*
X36781800Y-70157400D01*
X35732202Y-70157400D01*
X35667898Y-70308007D01*
X35260200Y-70308007D01*
X35260200Y-69752793D01*
X35667898Y-69752793D01*
X35732202Y-69903400D01*
X36781800Y-69903400D01*
X36781800Y-69049400D01*
X37035800Y-69049400D01*
X37035800Y-69903400D01*
X38085398Y-69903400D01*
X38149702Y-69752793D01*
X38095029Y-69590982D01*
X37992274Y-69426531D01*
X37859411Y-69285286D01*
X37701545Y-69172675D01*
X37524743Y-69093026D01*
X37335800Y-69049400D01*
X37035800Y-69049400D01*
X36781800Y-69049400D01*
X36481800Y-69049400D01*
X36292857Y-69093026D01*
X36116055Y-69172675D01*
X35958189Y-69285286D01*
X35825326Y-69426531D01*
X35722571Y-69590982D01*
X35667898Y-69752793D01*
X35260200Y-69752793D01*
X35260200Y-63926493D01*
X35641758Y-63544935D01*
X35638117Y-63556938D01*
X35625957Y-63680399D01*
X35625957Y-64380401D01*
X35638117Y-64503862D01*
X35674129Y-64622579D01*
X35732610Y-64731989D01*
X35811312Y-64827888D01*
X35907211Y-64906590D01*
X36016621Y-64965071D01*
X36135338Y-65001083D01*
X36258799Y-65013243D01*
X37558801Y-65013243D01*
X37682262Y-65001083D01*
X37800979Y-64965071D01*
X37910389Y-64906590D01*
X38006288Y-64827888D01*
X38084990Y-64731989D01*
X38143471Y-64622579D01*
X38175983Y-64515400D01*
X41623703Y-64515400D01*
X41603820Y-64535283D01*
X41469102Y-64736903D01*
X41428469Y-64835000D01*
X39707016Y-64835000D01*
X39683199Y-64832654D01*
X39659382Y-64835000D01*
X39659380Y-64835000D01*
X39588124Y-64842018D01*
X39496701Y-64869751D01*
X39412445Y-64914787D01*
X39338594Y-64975394D01*
X39323406Y-64993901D01*
X38771907Y-65545400D01*
X38061906Y-65545400D01*
X38028418Y-65482749D01*
X37905828Y-65333372D01*
X37756451Y-65210782D01*
X37586029Y-65119689D01*
X37401110Y-65063595D01*
X37256987Y-65049400D01*
X36560613Y-65049400D01*
X36416490Y-65063595D01*
X36231571Y-65119689D01*
X36061149Y-65210782D01*
X35911772Y-65333372D01*
X35789182Y-65482749D01*
X35698089Y-65653171D01*
X35641995Y-65838090D01*
X35623054Y-66030400D01*
X35641995Y-66222710D01*
X35698089Y-66407629D01*
X35789182Y-66578051D01*
X35911772Y-66727428D01*
X36061149Y-66850018D01*
X36231571Y-66941111D01*
X36416490Y-66997205D01*
X36560613Y-67011400D01*
X37256987Y-67011400D01*
X37401110Y-66997205D01*
X37586029Y-66941111D01*
X37756451Y-66850018D01*
X37905828Y-66727428D01*
X38028418Y-66578051D01*
X38061906Y-66515400D01*
X38948983Y-66515400D01*
X38972800Y-66517746D01*
X38996617Y-66515400D01*
X38996620Y-66515400D01*
X39067876Y-66508382D01*
X39159299Y-66480649D01*
X39243555Y-66435613D01*
X39317406Y-66375006D01*
X39332594Y-66356499D01*
X39884093Y-65805000D01*
X41428469Y-65805000D01*
X41469102Y-65903097D01*
X41603820Y-66104717D01*
X41686103Y-66187000D01*
X40082217Y-66187000D01*
X40058400Y-66184654D01*
X40034583Y-66187000D01*
X40034580Y-66187000D01*
X39963324Y-66194018D01*
X39893179Y-66215297D01*
X39871900Y-66221751D01*
X39787644Y-66266787D01*
X39776199Y-66276180D01*
X39713794Y-66327394D01*
X39698610Y-66345896D01*
X38499107Y-67545400D01*
X38061906Y-67545400D01*
X38028418Y-67482749D01*
X37905828Y-67333372D01*
X37756451Y-67210782D01*
X37586029Y-67119689D01*
X37401110Y-67063595D01*
X37256987Y-67049400D01*
X36560613Y-67049400D01*
X36416490Y-67063595D01*
X36231571Y-67119689D01*
X36061149Y-67210782D01*
X35911772Y-67333372D01*
X35789182Y-67482749D01*
X35698089Y-67653171D01*
X35641995Y-67838090D01*
X35623054Y-68030400D01*
X35641995Y-68222710D01*
X35698089Y-68407629D01*
X35789182Y-68578051D01*
X35911772Y-68727428D01*
X36061149Y-68850018D01*
X36231571Y-68941111D01*
X36416490Y-68997205D01*
X36560613Y-69011400D01*
X37256987Y-69011400D01*
X37401110Y-68997205D01*
X37586029Y-68941111D01*
X37756451Y-68850018D01*
X37905828Y-68727428D01*
X38028418Y-68578051D01*
X38061906Y-68515400D01*
X38676183Y-68515400D01*
X38700000Y-68517746D01*
X38723817Y-68515400D01*
X38723820Y-68515400D01*
X38795076Y-68508382D01*
X38886499Y-68480649D01*
X38970755Y-68435613D01*
X39044606Y-68375006D01*
X39059794Y-68356499D01*
X40259294Y-67157000D01*
X41549219Y-67157000D01*
X41469102Y-67276903D01*
X41376307Y-67500931D01*
X41329000Y-67738757D01*
X41329000Y-67981243D01*
X41376307Y-68219069D01*
X41469102Y-68443097D01*
X41603820Y-68644717D01*
X41775283Y-68816180D01*
X41976903Y-68950898D01*
X42200931Y-69043693D01*
X42438757Y-69091000D01*
X42681243Y-69091000D01*
X42919069Y-69043693D01*
X43143097Y-68950898D01*
X43344717Y-68816180D01*
X43516180Y-68644717D01*
X43650898Y-68443097D01*
X43743693Y-68219069D01*
X43791000Y-67981243D01*
X43791000Y-67738757D01*
X43869000Y-67738757D01*
X43869000Y-67981243D01*
X43916307Y-68219069D01*
X44009102Y-68443097D01*
X44143820Y-68644717D01*
X44315283Y-68816180D01*
X44516903Y-68950898D01*
X44740931Y-69043693D01*
X44978757Y-69091000D01*
X45221243Y-69091000D01*
X45459069Y-69043693D01*
X45683097Y-68950898D01*
X45884717Y-68816180D01*
X46056180Y-68644717D01*
X46190898Y-68443097D01*
X46283693Y-68219069D01*
X46331000Y-67981243D01*
X46331000Y-67738757D01*
X46283693Y-67500931D01*
X46190898Y-67276903D01*
X46056180Y-67075283D01*
X45884717Y-66903820D01*
X45683097Y-66769102D01*
X45459069Y-66676307D01*
X45221243Y-66629000D01*
X44978757Y-66629000D01*
X44740931Y-66676307D01*
X44516903Y-66769102D01*
X44315283Y-66903820D01*
X44143820Y-67075283D01*
X44009102Y-67276903D01*
X43916307Y-67500931D01*
X43869000Y-67738757D01*
X43791000Y-67738757D01*
X43743693Y-67500931D01*
X43650898Y-67276903D01*
X43570781Y-67157000D01*
X43724183Y-67157000D01*
X43748000Y-67159346D01*
X43771817Y-67157000D01*
X43771820Y-67157000D01*
X43843076Y-67149982D01*
X43934499Y-67122249D01*
X44018755Y-67077213D01*
X44092606Y-67016606D01*
X44107794Y-66998099D01*
X44642834Y-66463060D01*
X44740931Y-66503693D01*
X44978757Y-66551000D01*
X45221243Y-66551000D01*
X45459069Y-66503693D01*
X45683097Y-66410898D01*
X45884717Y-66276180D01*
X46056180Y-66104717D01*
X46190898Y-65903097D01*
X46283693Y-65679069D01*
X46331000Y-65441243D01*
X46331000Y-65198757D01*
X46283693Y-64960931D01*
X46190898Y-64736903D01*
X46056180Y-64535283D01*
X45884717Y-64363820D01*
X45683097Y-64229102D01*
X45459069Y-64136307D01*
X45221243Y-64089000D01*
X44978757Y-64089000D01*
X44740931Y-64136307D01*
X44516903Y-64229102D01*
X44315283Y-64363820D01*
X44143820Y-64535283D01*
X44009102Y-64736903D01*
X43916307Y-64960931D01*
X43869000Y-65198757D01*
X43869000Y-65441243D01*
X43916307Y-65679069D01*
X43956940Y-65777166D01*
X43547107Y-66187000D01*
X43433897Y-66187000D01*
X43516180Y-66104717D01*
X43650898Y-65903097D01*
X43743693Y-65679069D01*
X43791000Y-65441243D01*
X43791000Y-65198757D01*
X43743693Y-64960931D01*
X43650898Y-64736903D01*
X43516180Y-64535283D01*
X43496297Y-64515400D01*
X43825783Y-64515400D01*
X43849600Y-64517746D01*
X43873417Y-64515400D01*
X43873420Y-64515400D01*
X43944676Y-64508382D01*
X44036099Y-64480649D01*
X44120355Y-64435613D01*
X44194206Y-64375006D01*
X44209394Y-64356499D01*
X44642833Y-63923060D01*
X44740931Y-63963693D01*
X44978757Y-64011000D01*
X45221243Y-64011000D01*
X45459069Y-63963693D01*
X45683097Y-63870898D01*
X45884717Y-63736180D01*
X46056180Y-63564717D01*
X46190898Y-63363097D01*
X46283693Y-63139069D01*
X46331000Y-62901243D01*
X46331000Y-62658757D01*
X46283693Y-62420931D01*
X46190898Y-62196903D01*
X46056180Y-61995283D01*
X45884717Y-61823820D01*
X45683097Y-61689102D01*
X45459069Y-61596307D01*
X45221243Y-61549000D01*
X44978757Y-61549000D01*
X44740931Y-61596307D01*
X44516903Y-61689102D01*
X44315283Y-61823820D01*
X44143820Y-61995283D01*
X44009102Y-62196903D01*
X43916307Y-62420931D01*
X43869000Y-62658757D01*
X43869000Y-62901243D01*
X43916307Y-63139069D01*
X43956940Y-63237167D01*
X43648707Y-63545400D01*
X43529087Y-63545400D01*
X43650898Y-63363097D01*
X43743693Y-63139069D01*
X43791000Y-62901243D01*
X43791000Y-62658757D01*
X43743693Y-62420931D01*
X43650898Y-62196903D01*
X43516180Y-61995283D01*
X43496297Y-61975400D01*
X43825783Y-61975400D01*
X43849600Y-61977746D01*
X43873417Y-61975400D01*
X43873420Y-61975400D01*
X43944676Y-61968382D01*
X44036099Y-61940649D01*
X44120355Y-61895613D01*
X44194206Y-61835006D01*
X44209394Y-61816499D01*
X44642833Y-61383060D01*
X44740931Y-61423693D01*
X44978757Y-61471000D01*
X45221243Y-61471000D01*
X45459069Y-61423693D01*
X45683097Y-61330898D01*
X45884717Y-61196180D01*
X46056180Y-61024717D01*
X46190898Y-60823097D01*
X46283693Y-60599069D01*
X46331000Y-60361243D01*
X46331000Y-60118757D01*
X46283693Y-59880931D01*
X46190898Y-59656903D01*
X46056180Y-59455283D01*
X45884717Y-59283820D01*
X45683097Y-59149102D01*
X45459069Y-59056307D01*
X45221243Y-59009000D01*
X44978757Y-59009000D01*
X44740931Y-59056307D01*
X44516903Y-59149102D01*
X44315283Y-59283820D01*
X44143820Y-59455283D01*
X44009102Y-59656903D01*
X43916307Y-59880931D01*
X43869000Y-60118757D01*
X43869000Y-60361243D01*
X43916307Y-60599069D01*
X43956940Y-60697167D01*
X43648707Y-61005400D01*
X43529087Y-61005400D01*
X43650898Y-60823097D01*
X43743693Y-60599069D01*
X43791000Y-60361243D01*
X43791000Y-60118757D01*
X43743693Y-59880931D01*
X43650898Y-59656903D01*
X43516180Y-59455283D01*
X43461497Y-59400600D01*
X43860583Y-59400600D01*
X43884400Y-59402946D01*
X43908217Y-59400600D01*
X43908220Y-59400600D01*
X43979476Y-59393582D01*
X44070899Y-59365849D01*
X44155155Y-59320813D01*
X44229006Y-59260206D01*
X44244194Y-59241699D01*
X44642833Y-58843060D01*
X44740931Y-58883693D01*
X44978757Y-58931000D01*
X45221243Y-58931000D01*
X45459069Y-58883693D01*
X45683097Y-58790898D01*
X45884717Y-58656180D01*
X46056180Y-58484717D01*
X46101697Y-58416595D01*
X113614879Y-58416595D01*
X113614879Y-59083405D01*
X113744967Y-59737403D01*
X114000145Y-60353456D01*
X114370605Y-60907889D01*
X114842111Y-61379395D01*
X115396544Y-61749855D01*
X116012597Y-62005033D01*
X116666595Y-62135121D01*
X117333405Y-62135121D01*
X117987403Y-62005033D01*
X118603456Y-61749855D01*
X119157889Y-61379395D01*
X119376055Y-61161229D01*
X157522200Y-61161229D01*
X157522200Y-61334771D01*
X157556056Y-61504978D01*
X157622468Y-61665310D01*
X157718882Y-61809605D01*
X157841595Y-61932318D01*
X157985890Y-62028732D01*
X158146222Y-62095144D01*
X158316429Y-62129000D01*
X158489971Y-62129000D01*
X158660178Y-62095144D01*
X158820510Y-62028732D01*
X158964805Y-61932318D01*
X159087518Y-61809605D01*
X159183932Y-61665310D01*
X159250344Y-61504978D01*
X159284200Y-61334771D01*
X159284200Y-61161229D01*
X159250344Y-60991022D01*
X159183932Y-60830690D01*
X159159200Y-60793676D01*
X159159200Y-51093210D01*
X160056178Y-50315831D01*
X160160178Y-50295144D01*
X160320510Y-50228732D01*
X160464805Y-50132318D01*
X160587518Y-50009605D01*
X160683932Y-49865310D01*
X160750344Y-49704978D01*
X160784200Y-49534771D01*
X160784200Y-49361229D01*
X160750344Y-49191022D01*
X160683932Y-49030690D01*
X160587518Y-48886395D01*
X160464805Y-48763682D01*
X160320510Y-48667268D01*
X160160178Y-48600856D01*
X159989971Y-48567000D01*
X159816429Y-48567000D01*
X159646222Y-48600856D01*
X159485890Y-48667268D01*
X159341595Y-48763682D01*
X159218882Y-48886395D01*
X159122468Y-49030690D01*
X159062028Y-49176605D01*
X157915725Y-50170067D01*
X157866042Y-50210841D01*
X157835908Y-50247560D01*
X157803243Y-50282029D01*
X157788782Y-50304983D01*
X157771569Y-50325957D01*
X157749183Y-50367838D01*
X157723864Y-50408027D01*
X157714156Y-50433369D01*
X157701369Y-50457292D01*
X157687585Y-50502731D01*
X157670592Y-50547092D01*
X157666014Y-50573844D01*
X157658141Y-50599798D01*
X157653488Y-50647042D01*
X157645473Y-50693877D01*
X157647201Y-50758170D01*
X157647200Y-60793676D01*
X157622468Y-60830690D01*
X157556056Y-60991022D01*
X157522200Y-61161229D01*
X119376055Y-61161229D01*
X119629395Y-60907889D01*
X119999855Y-60353456D01*
X120255033Y-59737403D01*
X120385121Y-59083405D01*
X120385121Y-58416595D01*
X120255033Y-57762597D01*
X119999855Y-57146544D01*
X119629395Y-56592111D01*
X119157889Y-56120605D01*
X118603456Y-55750145D01*
X117987403Y-55494967D01*
X117333405Y-55364879D01*
X116666595Y-55364879D01*
X116012597Y-55494967D01*
X115396544Y-55750145D01*
X114842111Y-56120605D01*
X114370605Y-56592111D01*
X114000145Y-57146544D01*
X113744967Y-57762597D01*
X113614879Y-58416595D01*
X46101697Y-58416595D01*
X46190898Y-58283097D01*
X46283693Y-58059069D01*
X46331000Y-57821243D01*
X46331000Y-57578757D01*
X46283693Y-57340931D01*
X46190898Y-57116903D01*
X46056180Y-56915283D01*
X45884717Y-56743820D01*
X45683097Y-56609102D01*
X45459069Y-56516307D01*
X45221243Y-56469000D01*
X44978757Y-56469000D01*
X44740931Y-56516307D01*
X44516903Y-56609102D01*
X44315283Y-56743820D01*
X44143820Y-56915283D01*
X44009102Y-57116903D01*
X43916307Y-57340931D01*
X43869000Y-57578757D01*
X43869000Y-57821243D01*
X43916307Y-58059069D01*
X43956940Y-58157167D01*
X43683507Y-58430600D01*
X43552340Y-58430600D01*
X43650898Y-58283097D01*
X43743693Y-58059069D01*
X43791000Y-57821243D01*
X43791000Y-57578757D01*
X43743693Y-57340931D01*
X43650898Y-57116903D01*
X43516180Y-56915283D01*
X43485897Y-56885000D01*
X43836183Y-56885000D01*
X43860000Y-56887346D01*
X43883817Y-56885000D01*
X43883820Y-56885000D01*
X43955076Y-56877982D01*
X44046499Y-56850249D01*
X44130755Y-56805213D01*
X44204606Y-56744606D01*
X44219794Y-56726099D01*
X44642833Y-56303060D01*
X44740931Y-56343693D01*
X44978757Y-56391000D01*
X45221243Y-56391000D01*
X45459069Y-56343693D01*
X45683097Y-56250898D01*
X45884717Y-56116180D01*
X46056180Y-55944717D01*
X46190898Y-55743097D01*
X46283693Y-55519069D01*
X46331000Y-55281243D01*
X46331000Y-55038757D01*
X46283693Y-54800931D01*
X46190898Y-54576903D01*
X46056180Y-54375283D01*
X45884717Y-54203820D01*
X45683097Y-54069102D01*
X45459069Y-53976307D01*
X45221243Y-53929000D01*
X44978757Y-53929000D01*
X44740931Y-53976307D01*
X44516903Y-54069102D01*
X44315283Y-54203820D01*
X44143820Y-54375283D01*
X44009102Y-54576903D01*
X43916307Y-54800931D01*
X43869000Y-55038757D01*
X43869000Y-55281243D01*
X43916307Y-55519069D01*
X43956940Y-55617167D01*
X43659107Y-55915000D01*
X43536036Y-55915000D01*
X43650898Y-55743097D01*
X43743693Y-55519069D01*
X43791000Y-55281243D01*
X43791000Y-55038757D01*
X43743693Y-54800931D01*
X43650898Y-54576903D01*
X43516180Y-54375283D01*
X43344717Y-54203820D01*
X43143097Y-54069102D01*
X42919069Y-53976307D01*
X42681243Y-53929000D01*
X42438757Y-53929000D01*
X42200931Y-53976307D01*
X41976903Y-54069102D01*
X41775283Y-54203820D01*
X41603820Y-54375283D01*
X41469102Y-54576903D01*
X41376307Y-54800931D01*
X41329000Y-55038757D01*
X41329000Y-55281243D01*
X41376307Y-55519069D01*
X41469102Y-55743097D01*
X41583964Y-55915000D01*
X40923816Y-55915000D01*
X40899999Y-55912654D01*
X40876182Y-55915000D01*
X40876180Y-55915000D01*
X40804924Y-55922018D01*
X40713501Y-55949751D01*
X40674280Y-55970715D01*
X40629244Y-55994787D01*
X40573896Y-56040210D01*
X40555394Y-56055394D01*
X40540210Y-56073896D01*
X39292090Y-57322017D01*
X39276922Y-57319000D01*
X39123078Y-57319000D01*
X38972191Y-57349013D01*
X38830058Y-57407887D01*
X38702141Y-57493358D01*
X38593358Y-57602141D01*
X38507887Y-57730058D01*
X38449013Y-57872191D01*
X38419000Y-58023078D01*
X38419000Y-58176922D01*
X38449013Y-58327809D01*
X38507887Y-58469942D01*
X38593358Y-58597859D01*
X38702141Y-58706642D01*
X38830058Y-58792113D01*
X38972191Y-58850987D01*
X39123078Y-58881000D01*
X39276922Y-58881000D01*
X39427809Y-58850987D01*
X39569942Y-58792113D01*
X39697859Y-58706642D01*
X39806642Y-58597859D01*
X39892113Y-58469942D01*
X39950987Y-58327809D01*
X39981000Y-58176922D01*
X39981000Y-58023078D01*
X39977983Y-58007910D01*
X41100894Y-56885000D01*
X41634103Y-56885000D01*
X41603820Y-56915283D01*
X41469102Y-57116903D01*
X41376307Y-57340931D01*
X41329000Y-57578757D01*
X41329000Y-57821243D01*
X41376307Y-58059069D01*
X41377810Y-58062697D01*
X39002163Y-60438344D01*
X35146361Y-60438344D01*
X35122544Y-60435998D01*
X35098727Y-60438344D01*
X35098724Y-60438344D01*
X35027468Y-60445362D01*
X34936045Y-60473095D01*
X34896824Y-60494059D01*
X34851788Y-60518131D01*
X34796440Y-60563554D01*
X34777938Y-60578738D01*
X34762754Y-60597240D01*
X32785056Y-62574939D01*
X32766554Y-62590123D01*
X32751370Y-62608625D01*
X32751369Y-62608626D01*
X32705946Y-62663974D01*
X32660911Y-62748230D01*
X32633178Y-62839653D01*
X32623813Y-62934729D01*
X32626160Y-62958556D01*
X32626159Y-75144142D01*
X32623813Y-75167959D01*
X32626159Y-75191776D01*
X32626159Y-75191778D01*
X32633177Y-75263034D01*
X32660910Y-75354457D01*
X32705946Y-75438714D01*
X32766553Y-75512565D01*
X32785060Y-75527753D01*
X36724922Y-79467615D01*
X36187403Y-79244967D01*
X35533405Y-79114879D01*
X34866595Y-79114879D01*
X34212597Y-79244967D01*
X33596544Y-79500145D01*
X33042111Y-79870605D01*
X32570605Y-80342111D01*
X32200145Y-80896544D01*
X31944967Y-81512597D01*
X31814879Y-82166595D01*
X31814879Y-82833405D01*
X31944967Y-83487403D01*
X32200145Y-84103456D01*
X32570605Y-84657889D01*
X33042111Y-85129395D01*
X33596544Y-85499855D01*
X34212597Y-85755033D01*
X34866595Y-85885121D01*
X35533405Y-85885121D01*
X36187403Y-85755033D01*
X36803456Y-85499855D01*
X37357889Y-85129395D01*
X37829395Y-84657889D01*
X38199855Y-84103456D01*
X38455033Y-83487403D01*
X38585121Y-82833405D01*
X38585121Y-82166595D01*
X38455033Y-81512597D01*
X38232385Y-80975078D01*
X44351307Y-87094000D01*
X30406000Y-87094000D01*
X30406000Y-52498757D01*
X41329000Y-52498757D01*
X41329000Y-52741243D01*
X41376307Y-52979069D01*
X41469102Y-53203097D01*
X41603820Y-53404717D01*
X41775283Y-53576180D01*
X41976903Y-53710898D01*
X42200931Y-53803693D01*
X42438757Y-53851000D01*
X42681243Y-53851000D01*
X42919069Y-53803693D01*
X43143097Y-53710898D01*
X43344717Y-53576180D01*
X43516180Y-53404717D01*
X43650898Y-53203097D01*
X43743693Y-52979069D01*
X43791000Y-52741243D01*
X43791000Y-52498757D01*
X43869000Y-52498757D01*
X43869000Y-52741243D01*
X43916307Y-52979069D01*
X44009102Y-53203097D01*
X44143820Y-53404717D01*
X44315283Y-53576180D01*
X44516903Y-53710898D01*
X44740931Y-53803693D01*
X44978757Y-53851000D01*
X45221243Y-53851000D01*
X45459069Y-53803693D01*
X45683097Y-53710898D01*
X45884717Y-53576180D01*
X46056180Y-53404717D01*
X46190898Y-53203097D01*
X46283693Y-52979069D01*
X46331000Y-52741243D01*
X46331000Y-52498757D01*
X46296055Y-52323078D01*
X61719000Y-52323078D01*
X61719000Y-52476922D01*
X61749013Y-52627809D01*
X61807887Y-52769942D01*
X61893358Y-52897859D01*
X62002141Y-53006642D01*
X62130058Y-53092113D01*
X62272191Y-53150987D01*
X62423078Y-53181000D01*
X62576922Y-53181000D01*
X62727809Y-53150987D01*
X62869942Y-53092113D01*
X62997859Y-53006642D01*
X63106642Y-52897859D01*
X63192113Y-52769942D01*
X63250987Y-52627809D01*
X63281000Y-52476922D01*
X63281000Y-52323078D01*
X63277983Y-52307910D01*
X65607910Y-49977983D01*
X65623078Y-49981000D01*
X65776922Y-49981000D01*
X65807086Y-49975000D01*
X106682157Y-49975000D01*
X106689513Y-50049689D01*
X106711299Y-50121508D01*
X106746678Y-50187696D01*
X106794289Y-50245711D01*
X106852304Y-50293322D01*
X106918492Y-50328701D01*
X106990311Y-50350487D01*
X107065000Y-50357843D01*
X108117750Y-50356000D01*
X108213000Y-50260750D01*
X108213000Y-48827000D01*
X108467000Y-48827000D01*
X108467000Y-50260750D01*
X108562250Y-50356000D01*
X109615000Y-50357843D01*
X109689689Y-50350487D01*
X109761508Y-50328701D01*
X109827696Y-50293322D01*
X109885711Y-50245711D01*
X109933322Y-50187696D01*
X109968701Y-50121508D01*
X109990487Y-50049689D01*
X109997843Y-49975000D01*
X109996000Y-48922250D01*
X109900750Y-48827000D01*
X108467000Y-48827000D01*
X108213000Y-48827000D01*
X106779250Y-48827000D01*
X106684000Y-48922250D01*
X106682157Y-49975000D01*
X65807086Y-49975000D01*
X65927809Y-49950987D01*
X66069942Y-49892113D01*
X66197859Y-49806642D01*
X66306642Y-49697859D01*
X66392113Y-49569942D01*
X66450987Y-49427809D01*
X66481000Y-49276922D01*
X66481000Y-49123078D01*
X66450987Y-48972191D01*
X66392113Y-48830058D01*
X66306642Y-48702141D01*
X66197859Y-48593358D01*
X66069942Y-48507887D01*
X65927809Y-48449013D01*
X65776922Y-48419000D01*
X65623078Y-48419000D01*
X65472191Y-48449013D01*
X65330058Y-48507887D01*
X65202141Y-48593358D01*
X65093358Y-48702141D01*
X65007887Y-48830058D01*
X64949013Y-48972191D01*
X64919000Y-49123078D01*
X64919000Y-49276922D01*
X64922017Y-49292090D01*
X62592090Y-51622017D01*
X62576922Y-51619000D01*
X62423078Y-51619000D01*
X62272191Y-51649013D01*
X62130058Y-51707887D01*
X62002141Y-51793358D01*
X61893358Y-51902141D01*
X61807887Y-52030058D01*
X61749013Y-52172191D01*
X61719000Y-52323078D01*
X46296055Y-52323078D01*
X46283693Y-52260931D01*
X46190898Y-52036903D01*
X46056180Y-51835283D01*
X45884717Y-51663820D01*
X45683097Y-51529102D01*
X45459069Y-51436307D01*
X45221243Y-51389000D01*
X44978757Y-51389000D01*
X44740931Y-51436307D01*
X44516903Y-51529102D01*
X44315283Y-51663820D01*
X44143820Y-51835283D01*
X44009102Y-52036903D01*
X43916307Y-52260931D01*
X43869000Y-52498757D01*
X43791000Y-52498757D01*
X43743693Y-52260931D01*
X43650898Y-52036903D01*
X43516180Y-51835283D01*
X43344717Y-51663820D01*
X43143097Y-51529102D01*
X42919069Y-51436307D01*
X42681243Y-51389000D01*
X42438757Y-51389000D01*
X42200931Y-51436307D01*
X41976903Y-51529102D01*
X41775283Y-51663820D01*
X41603820Y-51835283D01*
X41469102Y-52036903D01*
X41376307Y-52260931D01*
X41329000Y-52498757D01*
X30406000Y-52498757D01*
X30406000Y-49958757D01*
X41329000Y-49958757D01*
X41329000Y-50201243D01*
X41376307Y-50439069D01*
X41469102Y-50663097D01*
X41603820Y-50864717D01*
X41775283Y-51036180D01*
X41976903Y-51170898D01*
X42200931Y-51263693D01*
X42438757Y-51311000D01*
X42681243Y-51311000D01*
X42919069Y-51263693D01*
X43143097Y-51170898D01*
X43344717Y-51036180D01*
X43516180Y-50864717D01*
X43650898Y-50663097D01*
X43743693Y-50439069D01*
X43791000Y-50201243D01*
X43791000Y-49958757D01*
X43869000Y-49958757D01*
X43869000Y-50201243D01*
X43916307Y-50439069D01*
X44009102Y-50663097D01*
X44143820Y-50864717D01*
X44315283Y-51036180D01*
X44516903Y-51170898D01*
X44740931Y-51263693D01*
X44978757Y-51311000D01*
X45221243Y-51311000D01*
X45459069Y-51263693D01*
X45683097Y-51170898D01*
X45884717Y-51036180D01*
X46056180Y-50864717D01*
X46190898Y-50663097D01*
X46283693Y-50439069D01*
X46331000Y-50201243D01*
X46331000Y-49958757D01*
X46283693Y-49720931D01*
X46190898Y-49496903D01*
X46056180Y-49295283D01*
X45884717Y-49123820D01*
X45683097Y-48989102D01*
X45459069Y-48896307D01*
X45221243Y-48849000D01*
X44978757Y-48849000D01*
X44740931Y-48896307D01*
X44516903Y-48989102D01*
X44315283Y-49123820D01*
X44143820Y-49295283D01*
X44009102Y-49496903D01*
X43916307Y-49720931D01*
X43869000Y-49958757D01*
X43791000Y-49958757D01*
X43743693Y-49720931D01*
X43650898Y-49496903D01*
X43516180Y-49295283D01*
X43344717Y-49123820D01*
X43143097Y-48989102D01*
X42919069Y-48896307D01*
X42681243Y-48849000D01*
X42438757Y-48849000D01*
X42200931Y-48896307D01*
X41976903Y-48989102D01*
X41775283Y-49123820D01*
X41603820Y-49295283D01*
X41469102Y-49496903D01*
X41376307Y-49720931D01*
X41329000Y-49958757D01*
X30406000Y-49958757D01*
X30406000Y-47856980D01*
X41370511Y-47856980D01*
X41394866Y-47937288D01*
X41494761Y-48156961D01*
X41635592Y-48352924D01*
X41811948Y-48517647D01*
X42017051Y-48644799D01*
X42243019Y-48729495D01*
X42433000Y-48669187D01*
X42433000Y-47667000D01*
X42687000Y-47667000D01*
X42687000Y-48669187D01*
X42876981Y-48729495D01*
X43102949Y-48644799D01*
X43308052Y-48517647D01*
X43484408Y-48352924D01*
X43625239Y-48156961D01*
X43725134Y-47937288D01*
X43749489Y-47856980D01*
X43688627Y-47667000D01*
X42687000Y-47667000D01*
X42433000Y-47667000D01*
X41431373Y-47667000D01*
X41370511Y-47856980D01*
X30406000Y-47856980D01*
X30406000Y-47418757D01*
X43869000Y-47418757D01*
X43869000Y-47661243D01*
X43916307Y-47899069D01*
X44009102Y-48123097D01*
X44143820Y-48324717D01*
X44315283Y-48496180D01*
X44516903Y-48630898D01*
X44740931Y-48723693D01*
X44978757Y-48771000D01*
X45221243Y-48771000D01*
X45459069Y-48723693D01*
X45683097Y-48630898D01*
X45884717Y-48496180D01*
X46056180Y-48324717D01*
X46190898Y-48123097D01*
X46283693Y-47899069D01*
X46331000Y-47661243D01*
X46331000Y-47425000D01*
X106682157Y-47425000D01*
X106684000Y-48477750D01*
X106779250Y-48573000D01*
X108213000Y-48573000D01*
X108213000Y-47139250D01*
X108467000Y-47139250D01*
X108467000Y-48573000D01*
X109900750Y-48573000D01*
X109936852Y-48536898D01*
X110644000Y-48536898D01*
X110644000Y-48863102D01*
X110707639Y-49183037D01*
X110832472Y-49484410D01*
X111013701Y-49755639D01*
X111244361Y-49986299D01*
X111515590Y-50167528D01*
X111816963Y-50292361D01*
X112136898Y-50356000D01*
X112463102Y-50356000D01*
X112783037Y-50292361D01*
X113084410Y-50167528D01*
X113355639Y-49986299D01*
X113446493Y-49895445D01*
X115244160Y-49895445D01*
X115387515Y-50116937D01*
X115680711Y-50259925D01*
X115996168Y-50342965D01*
X116321764Y-50362867D01*
X116644986Y-50318866D01*
X116953413Y-50212653D01*
X117132485Y-50116937D01*
X117275840Y-49895445D01*
X116260000Y-48879605D01*
X115244160Y-49895445D01*
X113446493Y-49895445D01*
X113586299Y-49755639D01*
X113767528Y-49484410D01*
X113892361Y-49183037D01*
X113956000Y-48863102D01*
X113956000Y-48761764D01*
X114597133Y-48761764D01*
X114641134Y-49084986D01*
X114747347Y-49393413D01*
X114843063Y-49572485D01*
X115064555Y-49715840D01*
X116080395Y-48700000D01*
X116439605Y-48700000D01*
X117455445Y-49715840D01*
X117676937Y-49572485D01*
X117819925Y-49279289D01*
X117902965Y-48963832D01*
X117922867Y-48638236D01*
X117878866Y-48315014D01*
X117772653Y-48006587D01*
X117676937Y-47827515D01*
X117455445Y-47684160D01*
X116439605Y-48700000D01*
X116080395Y-48700000D01*
X115064555Y-47684160D01*
X114843063Y-47827515D01*
X114700075Y-48120711D01*
X114617035Y-48436168D01*
X114597133Y-48761764D01*
X113956000Y-48761764D01*
X113956000Y-48536898D01*
X113892361Y-48216963D01*
X113767528Y-47915590D01*
X113586299Y-47644361D01*
X113446493Y-47504555D01*
X115244160Y-47504555D01*
X116260000Y-48520395D01*
X117275840Y-47504555D01*
X117132485Y-47283063D01*
X116839289Y-47140075D01*
X116523832Y-47057035D01*
X116198236Y-47037133D01*
X115875014Y-47081134D01*
X115566587Y-47187347D01*
X115387515Y-47283063D01*
X115244160Y-47504555D01*
X113446493Y-47504555D01*
X113355639Y-47413701D01*
X113084410Y-47232472D01*
X112783037Y-47107639D01*
X112463102Y-47044000D01*
X112136898Y-47044000D01*
X111816963Y-47107639D01*
X111515590Y-47232472D01*
X111244361Y-47413701D01*
X111013701Y-47644361D01*
X110832472Y-47915590D01*
X110707639Y-48216963D01*
X110644000Y-48536898D01*
X109936852Y-48536898D01*
X109996000Y-48477750D01*
X109997843Y-47425000D01*
X109990487Y-47350311D01*
X109968701Y-47278492D01*
X109933322Y-47212304D01*
X109885711Y-47154289D01*
X109827696Y-47106678D01*
X109761508Y-47071299D01*
X109689689Y-47049513D01*
X109615000Y-47042157D01*
X108562250Y-47044000D01*
X108467000Y-47139250D01*
X108213000Y-47139250D01*
X108117750Y-47044000D01*
X107065000Y-47042157D01*
X106990311Y-47049513D01*
X106918492Y-47071299D01*
X106852304Y-47106678D01*
X106794289Y-47154289D01*
X106746678Y-47212304D01*
X106711299Y-47278492D01*
X106689513Y-47350311D01*
X106682157Y-47425000D01*
X46331000Y-47425000D01*
X46331000Y-47418757D01*
X46283693Y-47180931D01*
X46190898Y-46956903D01*
X46056180Y-46755283D01*
X45884717Y-46583820D01*
X45683097Y-46449102D01*
X45459069Y-46356307D01*
X45221243Y-46309000D01*
X44978757Y-46309000D01*
X44740931Y-46356307D01*
X44516903Y-46449102D01*
X44315283Y-46583820D01*
X44143820Y-46755283D01*
X44009102Y-46956903D01*
X43916307Y-47180931D01*
X43869000Y-47418757D01*
X30406000Y-47418757D01*
X30406000Y-47223020D01*
X41370511Y-47223020D01*
X41431373Y-47413000D01*
X42433000Y-47413000D01*
X42433000Y-46410813D01*
X42687000Y-46410813D01*
X42687000Y-47413000D01*
X43688627Y-47413000D01*
X43749489Y-47223020D01*
X43725134Y-47142712D01*
X43625239Y-46923039D01*
X43484408Y-46727076D01*
X43308052Y-46562353D01*
X43102949Y-46435201D01*
X42876981Y-46350505D01*
X42687000Y-46410813D01*
X42433000Y-46410813D01*
X42243019Y-46350505D01*
X42017051Y-46435201D01*
X41811948Y-46562353D01*
X41635592Y-46727076D01*
X41494761Y-46923039D01*
X41394866Y-47142712D01*
X41370511Y-47223020D01*
X30406000Y-47223020D01*
X30406000Y-42427000D01*
X54219000Y-42427000D01*
X54219000Y-43477000D01*
X54262626Y-43665943D01*
X54342275Y-43842745D01*
X54454886Y-44000611D01*
X54596131Y-44133474D01*
X54760582Y-44236229D01*
X54922393Y-44290902D01*
X55073000Y-44226598D01*
X55073000Y-42427000D01*
X55327000Y-42427000D01*
X55327000Y-44226598D01*
X55477607Y-44290902D01*
X55639418Y-44236229D01*
X55803869Y-44133474D01*
X55945114Y-44000611D01*
X56057725Y-43842745D01*
X56137374Y-43665943D01*
X56181000Y-43477000D01*
X56181000Y-42427000D01*
X55327000Y-42427000D01*
X55073000Y-42427000D01*
X54219000Y-42427000D01*
X30406000Y-42427000D01*
X30406000Y-41123000D01*
X54219000Y-41123000D01*
X54219000Y-42173000D01*
X55073000Y-42173000D01*
X55073000Y-40373402D01*
X55327000Y-40373402D01*
X55327000Y-42173000D01*
X56181000Y-42173000D01*
X56181000Y-41123000D01*
X56137374Y-40934057D01*
X56057725Y-40757255D01*
X55945114Y-40599389D01*
X55803869Y-40466526D01*
X55639418Y-40363771D01*
X55477607Y-40309098D01*
X55327000Y-40373402D01*
X55073000Y-40373402D01*
X54922393Y-40309098D01*
X54760582Y-40363771D01*
X54596131Y-40466526D01*
X54454886Y-40599389D01*
X54342275Y-40757255D01*
X54262626Y-40934057D01*
X54219000Y-41123000D01*
X30406000Y-41123000D01*
X30406000Y-34866595D01*
X31814879Y-34866595D01*
X31814879Y-35533405D01*
X31944967Y-36187403D01*
X32200145Y-36803456D01*
X32570605Y-37357889D01*
X33042111Y-37829395D01*
X33596544Y-38199855D01*
X34212597Y-38455033D01*
X34866595Y-38585121D01*
X35533405Y-38585121D01*
X36187403Y-38455033D01*
X36278739Y-38417200D01*
X42224000Y-38417200D01*
X42224000Y-38782800D01*
X42295325Y-39141375D01*
X42435234Y-39479145D01*
X42638351Y-39783131D01*
X42896869Y-40041649D01*
X43200855Y-40244766D01*
X43538625Y-40384675D01*
X43897200Y-40456000D01*
X44262800Y-40456000D01*
X44621375Y-40384675D01*
X44959145Y-40244766D01*
X45263131Y-40041649D01*
X45452966Y-39851814D01*
X59119000Y-39851814D01*
X59119001Y-42048187D01*
X59133196Y-42192310D01*
X59189290Y-42377229D01*
X59280383Y-42547651D01*
X59402973Y-42697028D01*
X59552350Y-42819618D01*
X59722772Y-42910711D01*
X59907691Y-42966805D01*
X60100000Y-42985746D01*
X60292310Y-42966805D01*
X60477229Y-42910711D01*
X60647651Y-42819618D01*
X60797028Y-42697028D01*
X60919618Y-42547651D01*
X61010711Y-42377229D01*
X61066805Y-42192310D01*
X61081000Y-42048187D01*
X61081000Y-39851813D01*
X61066805Y-39707690D01*
X61010711Y-39522771D01*
X60919618Y-39352349D01*
X60849308Y-39266676D01*
X60939418Y-39236229D01*
X61103869Y-39133474D01*
X61245114Y-39000611D01*
X61357725Y-38842745D01*
X61437374Y-38665943D01*
X61481000Y-38477000D01*
X61481000Y-37427000D01*
X64519000Y-37427000D01*
X64519000Y-38477000D01*
X64562626Y-38665943D01*
X64642275Y-38842745D01*
X64754886Y-39000611D01*
X64896131Y-39133474D01*
X65060582Y-39236229D01*
X65150692Y-39266676D01*
X65080382Y-39352349D01*
X64989289Y-39522772D01*
X64933195Y-39707691D01*
X64919000Y-39851814D01*
X64919001Y-42048187D01*
X64933196Y-42192310D01*
X64989290Y-42377229D01*
X65080383Y-42547651D01*
X65202973Y-42697028D01*
X65352350Y-42819618D01*
X65522772Y-42910711D01*
X65707691Y-42966805D01*
X65900000Y-42985746D01*
X66092310Y-42966805D01*
X66277229Y-42910711D01*
X66447651Y-42819618D01*
X66597028Y-42697028D01*
X66719618Y-42547651D01*
X66784107Y-42427000D01*
X69819000Y-42427000D01*
X69819000Y-43477000D01*
X69862626Y-43665943D01*
X69942275Y-43842745D01*
X70054886Y-44000611D01*
X70196131Y-44133474D01*
X70360582Y-44236229D01*
X70522393Y-44290902D01*
X70673000Y-44226598D01*
X70673000Y-42427000D01*
X70927000Y-42427000D01*
X70927000Y-44226598D01*
X71077607Y-44290902D01*
X71239418Y-44236229D01*
X71403869Y-44133474D01*
X71545114Y-44000611D01*
X71657725Y-43842745D01*
X71737374Y-43665943D01*
X71781000Y-43477000D01*
X71781000Y-42427000D01*
X70927000Y-42427000D01*
X70673000Y-42427000D01*
X69819000Y-42427000D01*
X66784107Y-42427000D01*
X66810711Y-42377229D01*
X66857471Y-42223078D01*
X98819000Y-42223078D01*
X98819000Y-42376922D01*
X98849013Y-42527809D01*
X98907887Y-42669942D01*
X98993358Y-42797859D01*
X99102141Y-42906642D01*
X99115000Y-42915234D01*
X99115001Y-45276173D01*
X99112654Y-45300000D01*
X99122019Y-45395076D01*
X99149752Y-45486499D01*
X99194787Y-45570755D01*
X99240210Y-45626103D01*
X99255395Y-45644606D01*
X99273897Y-45659790D01*
X99522017Y-45907910D01*
X99519000Y-45923078D01*
X99519000Y-46076922D01*
X99549013Y-46227809D01*
X99607887Y-46369942D01*
X99693358Y-46497859D01*
X99802141Y-46606642D01*
X99930058Y-46692113D01*
X100072191Y-46750987D01*
X100223078Y-46781000D01*
X100376922Y-46781000D01*
X100527809Y-46750987D01*
X100669942Y-46692113D01*
X100797859Y-46606642D01*
X100906642Y-46497859D01*
X100992113Y-46369942D01*
X101050987Y-46227809D01*
X101081000Y-46076922D01*
X101081000Y-45923078D01*
X101050987Y-45772191D01*
X100992113Y-45630058D01*
X100906642Y-45502141D01*
X100797859Y-45393358D01*
X100669942Y-45307887D01*
X100527809Y-45249013D01*
X100376922Y-45219000D01*
X100223078Y-45219000D01*
X100207910Y-45222017D01*
X100085000Y-45099107D01*
X100085000Y-42915234D01*
X100097859Y-42906642D01*
X100206642Y-42797859D01*
X100292113Y-42669942D01*
X100350987Y-42527809D01*
X100381000Y-42376922D01*
X100381000Y-42223078D01*
X100350987Y-42072191D01*
X100292113Y-41930058D01*
X100206642Y-41802141D01*
X100097859Y-41693358D01*
X99969942Y-41607887D01*
X99875840Y-41568908D01*
X100819000Y-41568908D01*
X100819000Y-41831092D01*
X100870150Y-42088238D01*
X100970483Y-42330465D01*
X101116145Y-42548463D01*
X101301537Y-42733855D01*
X101519535Y-42879517D01*
X101761762Y-42979850D01*
X102018908Y-43031000D01*
X102281092Y-43031000D01*
X102538238Y-42979850D01*
X102780465Y-42879517D01*
X102946002Y-42768908D01*
X105919000Y-42768908D01*
X105919000Y-43031092D01*
X105970150Y-43288238D01*
X106070483Y-43530465D01*
X106216145Y-43748463D01*
X106401537Y-43933855D01*
X106619535Y-44079517D01*
X106861762Y-44179850D01*
X107118908Y-44231000D01*
X107381092Y-44231000D01*
X107638238Y-44179850D01*
X107880465Y-44079517D01*
X108098463Y-43933855D01*
X108283855Y-43748463D01*
X108429517Y-43530465D01*
X108529850Y-43288238D01*
X108581000Y-43031092D01*
X108581000Y-42768908D01*
X108529850Y-42511762D01*
X108429517Y-42269535D01*
X108283855Y-42051537D01*
X108098463Y-41866145D01*
X107880465Y-41720483D01*
X107638238Y-41620150D01*
X107381092Y-41569000D01*
X107118908Y-41569000D01*
X106861762Y-41620150D01*
X106619535Y-41720483D01*
X106401537Y-41866145D01*
X106216145Y-42051537D01*
X106070483Y-42269535D01*
X105970150Y-42511762D01*
X105919000Y-42768908D01*
X102946002Y-42768908D01*
X102998463Y-42733855D01*
X103183855Y-42548463D01*
X103329517Y-42330465D01*
X103429850Y-42088238D01*
X103481000Y-41831092D01*
X103481000Y-41568908D01*
X103429850Y-41311762D01*
X103329517Y-41069535D01*
X103183855Y-40851537D01*
X102998463Y-40666145D01*
X102780465Y-40520483D01*
X102538238Y-40420150D01*
X102281092Y-40369000D01*
X102018908Y-40369000D01*
X101761762Y-40420150D01*
X101519535Y-40520483D01*
X101301537Y-40666145D01*
X101116145Y-40851537D01*
X100970483Y-41069535D01*
X100870150Y-41311762D01*
X100819000Y-41568908D01*
X99875840Y-41568908D01*
X99827809Y-41549013D01*
X99676922Y-41519000D01*
X99523078Y-41519000D01*
X99372191Y-41549013D01*
X99230058Y-41607887D01*
X99102141Y-41693358D01*
X98993358Y-41802141D01*
X98907887Y-41930058D01*
X98849013Y-42072191D01*
X98819000Y-42223078D01*
X66857471Y-42223078D01*
X66866805Y-42192310D01*
X66881000Y-42048187D01*
X66881000Y-41123000D01*
X69819000Y-41123000D01*
X69819000Y-42173000D01*
X70673000Y-42173000D01*
X70673000Y-40373402D01*
X70927000Y-40373402D01*
X70927000Y-42173000D01*
X71781000Y-42173000D01*
X71781000Y-41123000D01*
X71737374Y-40934057D01*
X71657725Y-40757255D01*
X71545114Y-40599389D01*
X71403869Y-40466526D01*
X71239418Y-40363771D01*
X71077607Y-40309098D01*
X70927000Y-40373402D01*
X70673000Y-40373402D01*
X70522393Y-40309098D01*
X70360582Y-40363771D01*
X70196131Y-40466526D01*
X70054886Y-40599389D01*
X69942275Y-40757255D01*
X69862626Y-40934057D01*
X69819000Y-41123000D01*
X66881000Y-41123000D01*
X66881000Y-39851813D01*
X66866805Y-39707690D01*
X66810711Y-39522771D01*
X66719618Y-39352349D01*
X66597028Y-39202972D01*
X66447651Y-39080382D01*
X66277228Y-38989289D01*
X66257466Y-38983294D01*
X66357725Y-38842745D01*
X66437374Y-38665943D01*
X66481000Y-38477000D01*
X66481000Y-37427000D01*
X65627000Y-37427000D01*
X65627000Y-37447000D01*
X65373000Y-37447000D01*
X65373000Y-37427000D01*
X64519000Y-37427000D01*
X61481000Y-37427000D01*
X60627000Y-37427000D01*
X60627000Y-37447000D01*
X60373000Y-37447000D01*
X60373000Y-37427000D01*
X59519000Y-37427000D01*
X59519000Y-38477000D01*
X59562626Y-38665943D01*
X59642275Y-38842745D01*
X59742533Y-38983294D01*
X59722771Y-38989289D01*
X59552349Y-39080382D01*
X59402972Y-39202972D01*
X59280382Y-39352349D01*
X59189289Y-39522772D01*
X59133195Y-39707691D01*
X59119000Y-39851814D01*
X45452966Y-39851814D01*
X45521649Y-39783131D01*
X45724766Y-39479145D01*
X45864675Y-39141375D01*
X45936000Y-38782800D01*
X45936000Y-38417200D01*
X45864675Y-38058625D01*
X45724766Y-37720855D01*
X45521649Y-37416869D01*
X45263131Y-37158351D01*
X44959145Y-36955234D01*
X44621375Y-36815325D01*
X44262800Y-36744000D01*
X43897200Y-36744000D01*
X43538625Y-36815325D01*
X43200855Y-36955234D01*
X42896869Y-37158351D01*
X42638351Y-37416869D01*
X42435234Y-37720855D01*
X42295325Y-38058625D01*
X42224000Y-38417200D01*
X36278739Y-38417200D01*
X36803456Y-38199855D01*
X37357889Y-37829395D01*
X37829395Y-37357889D01*
X38199855Y-36803456D01*
X38455033Y-36187403D01*
X38467843Y-36123000D01*
X59519000Y-36123000D01*
X59519000Y-37173000D01*
X60373000Y-37173000D01*
X60373000Y-35373402D01*
X60627000Y-35373402D01*
X60627000Y-37173000D01*
X61481000Y-37173000D01*
X61481000Y-36123000D01*
X64519000Y-36123000D01*
X64519000Y-37173000D01*
X65373000Y-37173000D01*
X65373000Y-35373402D01*
X65627000Y-35373402D01*
X65627000Y-37173000D01*
X66481000Y-37173000D01*
X66481000Y-36123000D01*
X66437374Y-35934057D01*
X66357725Y-35757255D01*
X66245114Y-35599389D01*
X66103869Y-35466526D01*
X65939418Y-35363771D01*
X65777607Y-35309098D01*
X65627000Y-35373402D01*
X65373000Y-35373402D01*
X65222393Y-35309098D01*
X65060582Y-35363771D01*
X64896131Y-35466526D01*
X64754886Y-35599389D01*
X64642275Y-35757255D01*
X64562626Y-35934057D01*
X64519000Y-36123000D01*
X61481000Y-36123000D01*
X61437374Y-35934057D01*
X61357725Y-35757255D01*
X61245114Y-35599389D01*
X61103869Y-35466526D01*
X60939418Y-35363771D01*
X60777607Y-35309098D01*
X60627000Y-35373402D01*
X60373000Y-35373402D01*
X60222393Y-35309098D01*
X60060582Y-35363771D01*
X59896131Y-35466526D01*
X59754886Y-35599389D01*
X59642275Y-35757255D01*
X59562626Y-35934057D01*
X59519000Y-36123000D01*
X38467843Y-36123000D01*
X38585121Y-35533405D01*
X38585121Y-35226995D01*
X53952611Y-35226995D01*
X54135092Y-35481785D01*
X54483654Y-35657223D01*
X54859744Y-35761289D01*
X55248911Y-35789984D01*
X55636198Y-35742205D01*
X56006722Y-35619788D01*
X56264908Y-35481785D01*
X56447389Y-35226995D01*
X69552611Y-35226995D01*
X69735092Y-35481785D01*
X70083654Y-35657223D01*
X70459744Y-35761289D01*
X70848911Y-35789984D01*
X71236198Y-35742205D01*
X71606722Y-35619788D01*
X71864908Y-35481785D01*
X72047389Y-35226995D01*
X70800000Y-33979605D01*
X69552611Y-35226995D01*
X56447389Y-35226995D01*
X55200000Y-33979605D01*
X53952611Y-35226995D01*
X38585121Y-35226995D01*
X38585121Y-34866595D01*
X38455033Y-34212597D01*
X38304390Y-33848911D01*
X53210016Y-33848911D01*
X53257795Y-34236198D01*
X53380212Y-34606722D01*
X53518215Y-34864908D01*
X53773005Y-35047389D01*
X55020395Y-33800000D01*
X55379605Y-33800000D01*
X56626995Y-35047389D01*
X56881785Y-34864908D01*
X57057223Y-34516346D01*
X57161289Y-34140256D01*
X57189984Y-33751089D01*
X57181061Y-33678757D01*
X59269000Y-33678757D01*
X59269000Y-33921243D01*
X59316307Y-34159069D01*
X59409102Y-34383097D01*
X59543820Y-34584717D01*
X59715283Y-34756180D01*
X59916903Y-34890898D01*
X60140931Y-34983693D01*
X60378757Y-35031000D01*
X60621243Y-35031000D01*
X60859069Y-34983693D01*
X61083097Y-34890898D01*
X61284717Y-34756180D01*
X61456180Y-34584717D01*
X61590898Y-34383097D01*
X61683693Y-34159069D01*
X61731000Y-33921243D01*
X61731000Y-33678757D01*
X64269000Y-33678757D01*
X64269000Y-33921243D01*
X64316307Y-34159069D01*
X64409102Y-34383097D01*
X64543820Y-34584717D01*
X64715283Y-34756180D01*
X64916903Y-34890898D01*
X65140931Y-34983693D01*
X65378757Y-35031000D01*
X65621243Y-35031000D01*
X65859069Y-34983693D01*
X66083097Y-34890898D01*
X66284717Y-34756180D01*
X66456180Y-34584717D01*
X66590898Y-34383097D01*
X66683693Y-34159069D01*
X66731000Y-33921243D01*
X66731000Y-33848911D01*
X68810016Y-33848911D01*
X68857795Y-34236198D01*
X68980212Y-34606722D01*
X69118215Y-34864908D01*
X69373005Y-35047389D01*
X70620395Y-33800000D01*
X70979605Y-33800000D01*
X72226995Y-35047389D01*
X72479429Y-34866595D01*
X195614879Y-34866595D01*
X195614879Y-35533405D01*
X195744967Y-36187403D01*
X196000145Y-36803456D01*
X196370605Y-37357889D01*
X196842111Y-37829395D01*
X197396544Y-38199855D01*
X198012597Y-38455033D01*
X198666595Y-38585121D01*
X199333405Y-38585121D01*
X199987403Y-38455033D01*
X200603456Y-38199855D01*
X201157889Y-37829395D01*
X201629395Y-37357889D01*
X201999855Y-36803456D01*
X202255033Y-36187403D01*
X202385121Y-35533405D01*
X202385121Y-34866595D01*
X202255033Y-34212597D01*
X201999855Y-33596544D01*
X201629395Y-33042111D01*
X201157889Y-32570605D01*
X200603456Y-32200145D01*
X199987403Y-31944967D01*
X199333405Y-31814879D01*
X198666595Y-31814879D01*
X198012597Y-31944967D01*
X197396544Y-32200145D01*
X196842111Y-32570605D01*
X196370605Y-33042111D01*
X196000145Y-33596544D01*
X195744967Y-34212597D01*
X195614879Y-34866595D01*
X72479429Y-34866595D01*
X72481785Y-34864908D01*
X72657223Y-34516346D01*
X72761289Y-34140256D01*
X72789984Y-33751089D01*
X72742205Y-33363802D01*
X72619788Y-32993278D01*
X72481785Y-32735092D01*
X72226995Y-32552611D01*
X70979605Y-33800000D01*
X70620395Y-33800000D01*
X69373005Y-32552611D01*
X69118215Y-32735092D01*
X68942777Y-33083654D01*
X68838711Y-33459744D01*
X68810016Y-33848911D01*
X66731000Y-33848911D01*
X66731000Y-33678757D01*
X66683693Y-33440931D01*
X66590898Y-33216903D01*
X66456180Y-33015283D01*
X66284717Y-32843820D01*
X66083097Y-32709102D01*
X65859069Y-32616307D01*
X65621243Y-32569000D01*
X65378757Y-32569000D01*
X65140931Y-32616307D01*
X64916903Y-32709102D01*
X64715283Y-32843820D01*
X64543820Y-33015283D01*
X64409102Y-33216903D01*
X64316307Y-33440931D01*
X64269000Y-33678757D01*
X61731000Y-33678757D01*
X61683693Y-33440931D01*
X61590898Y-33216903D01*
X61456180Y-33015283D01*
X61284717Y-32843820D01*
X61083097Y-32709102D01*
X60859069Y-32616307D01*
X60621243Y-32569000D01*
X60378757Y-32569000D01*
X60140931Y-32616307D01*
X59916903Y-32709102D01*
X59715283Y-32843820D01*
X59543820Y-33015283D01*
X59409102Y-33216903D01*
X59316307Y-33440931D01*
X59269000Y-33678757D01*
X57181061Y-33678757D01*
X57142205Y-33363802D01*
X57019788Y-32993278D01*
X56881785Y-32735092D01*
X56626995Y-32552611D01*
X55379605Y-33800000D01*
X55020395Y-33800000D01*
X53773005Y-32552611D01*
X53518215Y-32735092D01*
X53342777Y-33083654D01*
X53238711Y-33459744D01*
X53210016Y-33848911D01*
X38304390Y-33848911D01*
X38199855Y-33596544D01*
X37829395Y-33042111D01*
X37357889Y-32570605D01*
X37062160Y-32373005D01*
X53952611Y-32373005D01*
X55200000Y-33620395D01*
X56447389Y-32373005D01*
X56264908Y-32118215D01*
X55916346Y-31942777D01*
X55540256Y-31838711D01*
X55151089Y-31810016D01*
X54763802Y-31857795D01*
X54393278Y-31980212D01*
X54135092Y-32118215D01*
X53952611Y-32373005D01*
X37062160Y-32373005D01*
X36803456Y-32200145D01*
X36187403Y-31944967D01*
X35533405Y-31814879D01*
X34866595Y-31814879D01*
X34212597Y-31944967D01*
X33596544Y-32200145D01*
X33042111Y-32570605D01*
X32570605Y-33042111D01*
X32200145Y-33596544D01*
X31944967Y-34212597D01*
X31814879Y-34866595D01*
X30406000Y-34866595D01*
X30406000Y-31800000D01*
X61213286Y-31800000D01*
X61236088Y-32031516D01*
X61303619Y-32254136D01*
X61413283Y-32459303D01*
X61560866Y-32639134D01*
X61740697Y-32786717D01*
X61945864Y-32896381D01*
X62168484Y-32963912D01*
X62341984Y-32981000D01*
X63658016Y-32981000D01*
X63831516Y-32963912D01*
X64054136Y-32896381D01*
X64259303Y-32786717D01*
X64439134Y-32639134D01*
X64586717Y-32459303D01*
X64632844Y-32373005D01*
X69552611Y-32373005D01*
X70800000Y-33620395D01*
X72047389Y-32373005D01*
X71864908Y-32118215D01*
X71516346Y-31942777D01*
X71140256Y-31838711D01*
X70751089Y-31810016D01*
X70363802Y-31857795D01*
X69993278Y-31980212D01*
X69735092Y-32118215D01*
X69552611Y-32373005D01*
X64632844Y-32373005D01*
X64696381Y-32254136D01*
X64763912Y-32031516D01*
X64786714Y-31800000D01*
X64763912Y-31568484D01*
X64696381Y-31345864D01*
X64586717Y-31140697D01*
X64439134Y-30960866D01*
X64259303Y-30813283D01*
X64054136Y-30703619D01*
X63831516Y-30636088D01*
X63658016Y-30619000D01*
X62341984Y-30619000D01*
X62168484Y-30636088D01*
X61945864Y-30703619D01*
X61740697Y-30813283D01*
X61560866Y-30960866D01*
X61413283Y-31140697D01*
X61303619Y-31345864D01*
X61236088Y-31568484D01*
X61213286Y-31800000D01*
X30406000Y-31800000D01*
X30406000Y-30406000D01*
X203594001Y-30406000D01*
X203594000Y-87094000D01*
G37*
%TD.AperFunction*%
M02*
