%FSLAX45Y45*%
G04 Gerber Fmt 4.5, Leading zero omitted, Abs format (unit mm)*
G04 Created by KiCad (PCBNEW 5.1.9-73d0e3b20d~88~ubuntu20.04.1) date 2020-12-31 12:36:15*
%MOMM*%
%LPD*%
G01*
G04 APERTURE LIST*
%TA.AperFunction,Profile*%
%ADD10C,0.050000*%
%TD*%
%ADD11C,0.200000*%
%ADD12C,0.300000*%
G04 APERTURE END LIST*
D10*
X13250000Y-8750000D02*
X20400000Y-8750000D01*
X12250000Y-7870000D02*
G75*
G02*
X12370000Y-7750000I120000J0D01*
G01*
X13130000Y-7750000D02*
G75*
G02*
X13250000Y-7870000I0J-120000D01*
G01*
X13250000Y-7870000D02*
X13250000Y-8750000D01*
X12370000Y-7750000D02*
X13130000Y-7750000D01*
X12250000Y-8750000D02*
X12250000Y-7870000D01*
X3000000Y-8750000D02*
X12250000Y-8750000D01*
X3000000Y-3000000D02*
X3000000Y-8750000D01*
X20400000Y-3000000D02*
X3000000Y-3000000D01*
X20400000Y-8750000D02*
X20400000Y-3000000D01*
D11*
X3900000Y-5790000D02*
X3940000Y-5830000D01*
X3940000Y-5790000D02*
X3900000Y-5830000D01*
X4091201Y-7210000D02*
X4131201Y-7250000D01*
X4131201Y-7210000D02*
X4091201Y-7250000D01*
X5130000Y-7690000D02*
X5170000Y-7730000D01*
X5170000Y-7690000D02*
X5130000Y-7730000D01*
X5180000Y-7160000D02*
X5220000Y-7200000D01*
X5220000Y-7160000D02*
X5180000Y-7200000D01*
X5325000Y-5895000D02*
X5365000Y-5935000D01*
X5365000Y-5895000D02*
X5325000Y-5935000D01*
X5633902Y-5142396D02*
X5673902Y-5182396D01*
X5673902Y-5142396D02*
X5633902Y-5182396D01*
X5822500Y-4632500D02*
X5862500Y-4672500D01*
X5862500Y-4632500D02*
X5822500Y-4672500D01*
X5890000Y-5880000D02*
X5930000Y-5920000D01*
X5930000Y-5880000D02*
X5890000Y-5920000D01*
X5890000Y-7690000D02*
X5930000Y-7730000D01*
X5930000Y-7690000D02*
X5890000Y-7730000D01*
X6230000Y-5220000D02*
X6270000Y-5260000D01*
X6270000Y-5220000D02*
X6230000Y-5260000D01*
X6230000Y-6110000D02*
X6270000Y-6150000D01*
X6270000Y-6110000D02*
X6230000Y-6150000D01*
X6240000Y-7560000D02*
X6280000Y-7600000D01*
X6280000Y-7560000D02*
X6240000Y-7600000D01*
X6370000Y-5910000D02*
X6410000Y-5950000D01*
X6410000Y-5910000D02*
X6370000Y-5950000D01*
X6382500Y-5312500D02*
X6422500Y-5352500D01*
X6422500Y-5312500D02*
X6382500Y-5352500D01*
X6550000Y-4900000D02*
X6590000Y-4940000D01*
X6590000Y-4900000D02*
X6550000Y-4940000D01*
X6570000Y-7560000D02*
X6610000Y-7600000D01*
X6610000Y-7560000D02*
X6570000Y-7600000D01*
X6700000Y-5260000D02*
X6740000Y-5300000D01*
X6740000Y-5260000D02*
X6700000Y-5300000D01*
X6700000Y-5820000D02*
X6740000Y-5860000D01*
X6740000Y-5820000D02*
X6700000Y-5860000D01*
X6810000Y-5260000D02*
X6850000Y-5300000D01*
X6850000Y-5260000D02*
X6810000Y-5300000D01*
X6810000Y-5820000D02*
X6850000Y-5860000D01*
X6850000Y-5820000D02*
X6810000Y-5860000D01*
X6840000Y-6570000D02*
X6880000Y-6610000D01*
X6880000Y-6570000D02*
X6840000Y-6610000D01*
X6890000Y-5260000D02*
X6930000Y-5300000D01*
X6930000Y-5260000D02*
X6890000Y-5300000D01*
X6910000Y-5820000D02*
X6950000Y-5860000D01*
X6950000Y-5820000D02*
X6910000Y-5860000D01*
X7160000Y-7000000D02*
X7200000Y-7040000D01*
X7200000Y-7000000D02*
X7160000Y-7040000D01*
X7415000Y-7035000D02*
X7455000Y-7075000D01*
X7455000Y-7035000D02*
X7415000Y-7075000D01*
X7547500Y-4737500D02*
X7587500Y-4777500D01*
X7587500Y-4737500D02*
X7547500Y-4777500D01*
X7830000Y-5290000D02*
X7870000Y-5330000D01*
X7870000Y-5290000D02*
X7830000Y-5330000D01*
X7830000Y-5610000D02*
X7870000Y-5650000D01*
X7870000Y-5610000D02*
X7830000Y-5650000D01*
X7890000Y-7240000D02*
X7930000Y-7280000D01*
X7930000Y-7240000D02*
X7890000Y-7280000D01*
X8070000Y-5360000D02*
X8110000Y-5400000D01*
X8110000Y-5360000D02*
X8070000Y-5400000D01*
X8600000Y-8561201D02*
X8640000Y-8601201D01*
X8640000Y-8561201D02*
X8600000Y-8601201D01*
X8750000Y-8640000D02*
X8790000Y-8680000D01*
X8790000Y-8640000D02*
X8750000Y-8680000D01*
X8832500Y-6817500D02*
X8872500Y-6857500D01*
X8872500Y-6817500D02*
X8832500Y-6857500D01*
X8890000Y-8590000D02*
X8930000Y-8630000D01*
X8930000Y-8590000D02*
X8890000Y-8630000D01*
X9320000Y-8330000D02*
X9360000Y-8370000D01*
X9360000Y-8330000D02*
X9320000Y-8370000D01*
X9320000Y-8590000D02*
X9360000Y-8630000D01*
X9360000Y-8590000D02*
X9320000Y-8630000D01*
X9690000Y-4610000D02*
X9730000Y-4650000D01*
X9730000Y-4610000D02*
X9690000Y-4650000D01*
X9862500Y-8222500D02*
X9902500Y-8262500D01*
X9902500Y-8222500D02*
X9862500Y-8262500D01*
X9940000Y-4210000D02*
X9980000Y-4250000D01*
X9980000Y-4210000D02*
X9940000Y-4250000D01*
X10010000Y-4580000D02*
X10050000Y-4620000D01*
X10050000Y-4580000D02*
X10010000Y-4620000D01*
X10040000Y-8520000D02*
X10080000Y-8560000D01*
X10080000Y-8520000D02*
X10040000Y-8560000D01*
X10430000Y-5960000D02*
X10470000Y-6000000D01*
X10470000Y-5960000D02*
X10430000Y-6000000D01*
X12080000Y-4000000D02*
X12120000Y-4040000D01*
X12120000Y-4000000D02*
X12080000Y-4040000D01*
X17268560Y-5780000D02*
X17308560Y-5820000D01*
X17308560Y-5780000D02*
X17268560Y-5820000D01*
X17279653Y-6280347D02*
X17319653Y-6320347D01*
X17319653Y-6280347D02*
X17279653Y-6320347D01*
X17280000Y-5980000D02*
X17320000Y-6020000D01*
X17320000Y-5980000D02*
X17280000Y-6020000D01*
X17280002Y-6179546D02*
X17320002Y-6219546D01*
X17320002Y-6179546D02*
X17280002Y-6219546D01*
X17280017Y-5679852D02*
X17320017Y-5719852D01*
X17320017Y-5679852D02*
X17280017Y-5719852D01*
X17447500Y-5607500D02*
X17487500Y-5647500D01*
X17487500Y-5607500D02*
X17447500Y-5647500D01*
X10470000Y-5545000D02*
G75*
G03*
X10470000Y-5545000I-25000J0D01*
G01*
X15115000Y-5400000D02*
G75*
G03*
X15115000Y-5400000I-25000J0D01*
G01*
X15115000Y-5500000D02*
G75*
G03*
X15115000Y-5500000I-25000J0D01*
G01*
X15115000Y-5600000D02*
G75*
G03*
X15115000Y-5600000I-25000J0D01*
G01*
X15115000Y-6200000D02*
G75*
G03*
X15115000Y-6200000I-25000J0D01*
G01*
X15115000Y-6300000D02*
G75*
G03*
X15115000Y-6300000I-25000J0D01*
G01*
X15115000Y-6400000D02*
G75*
G03*
X15115000Y-6400000I-25000J0D01*
G01*
X16125000Y-5050000D02*
G75*
G03*
X16125000Y-5050000I-25000J0D01*
G01*
X16135000Y-6750000D02*
G75*
G03*
X16135000Y-6750000I-25000J0D01*
G01*
X17305000Y-5200000D02*
G75*
G03*
X17305000Y-5200000I-25000J0D01*
G01*
X17325000Y-6600000D02*
G75*
G03*
X17325000Y-6600000I-25000J0D01*
G01*
X5520000Y-4200000D02*
X5520000Y-4260000D01*
X5490000Y-4230000D02*
X5550000Y-4230000D01*
X5500000Y-4125000D02*
X5500000Y-4335000D01*
X5540000Y-4125000D02*
X5540000Y-4335000D01*
X5500000Y-4335000D02*
G75*
G03*
X5540000Y-4335000I20000J0D01*
G01*
X5540000Y-4125000D02*
G75*
G03*
X5500000Y-4125000I-20000J0D01*
G01*
X6010000Y-4065000D02*
X6010000Y-4125000D01*
X5980000Y-4095000D02*
X6040000Y-4095000D01*
X5990000Y-3990000D02*
X5990000Y-4200000D01*
X6030000Y-3990000D02*
X6030000Y-4200000D01*
X5990000Y-4200000D02*
G75*
G03*
X6030000Y-4200000I20000J0D01*
G01*
X6030000Y-3990000D02*
G75*
G03*
X5990000Y-3990000I-20000J0D01*
G01*
X6050000Y-3700000D02*
X6050000Y-3760000D01*
X6020000Y-3730000D02*
X6080000Y-3730000D01*
X6030000Y-3625000D02*
X6030000Y-3835000D01*
X6070000Y-3625000D02*
X6070000Y-3835000D01*
X6030000Y-3835000D02*
G75*
G03*
X6070000Y-3835000I20000J0D01*
G01*
X6070000Y-3625000D02*
G75*
G03*
X6030000Y-3625000I-20000J0D01*
G01*
X6550000Y-3700000D02*
X6550000Y-3760000D01*
X6520000Y-3730000D02*
X6580000Y-3730000D01*
X6530000Y-3625000D02*
X6530000Y-3835000D01*
X6570000Y-3625000D02*
X6570000Y-3835000D01*
X6530000Y-3835000D02*
G75*
G03*
X6570000Y-3835000I20000J0D01*
G01*
X6570000Y-3625000D02*
G75*
G03*
X6530000Y-3625000I-20000J0D01*
G01*
X6590000Y-4065000D02*
X6590000Y-4125000D01*
X6560000Y-4095000D02*
X6620000Y-4095000D01*
X6570000Y-3990000D02*
X6570000Y-4200000D01*
X6610000Y-3990000D02*
X6610000Y-4200000D01*
X6570000Y-4200000D02*
G75*
G03*
X6610000Y-4200000I20000J0D01*
G01*
X6610000Y-3990000D02*
G75*
G03*
X6570000Y-3990000I-20000J0D01*
G01*
X7080000Y-4200000D02*
X7080000Y-4260000D01*
X7050000Y-4230000D02*
X7110000Y-4230000D01*
X7060000Y-4125000D02*
X7060000Y-4335000D01*
X7100000Y-4125000D02*
X7100000Y-4335000D01*
X7060000Y-4335000D02*
G75*
G03*
X7100000Y-4335000I20000J0D01*
G01*
X7100000Y-4125000D02*
G75*
G03*
X7060000Y-4125000I-20000J0D01*
G01*
X10556941Y-4096941D02*
X10556941Y-4043059D01*
X10503059Y-4043059D01*
X10503059Y-4096941D01*
X10556941Y-4096941D01*
X10736941Y-4096941D02*
X10736941Y-4043059D01*
X10683059Y-4043059D01*
X10683059Y-4096941D01*
X10736941Y-4096941D01*
X16566941Y-8156941D02*
X16566941Y-8103059D01*
X16513059Y-8103059D01*
X16513059Y-8156941D01*
X16566941Y-8156941D01*
X16856941Y-3326941D02*
X16856941Y-3273059D01*
X16803059Y-3273059D01*
X16803059Y-3326941D01*
X16856941Y-3326941D01*
X17956941Y-3326941D02*
X17956941Y-3273059D01*
X17903059Y-3273059D01*
X17903059Y-3326941D01*
X17956941Y-3326941D01*
X18256941Y-8166941D02*
X18256941Y-8113059D01*
X18203059Y-8113059D01*
X18203059Y-8166941D01*
X18256941Y-8166941D01*
X19056941Y-5346941D02*
X19056941Y-5293059D01*
X19003059Y-5293059D01*
X19003059Y-5346941D01*
X19056941Y-5346941D01*
X19056941Y-6486941D02*
X19056941Y-6433059D01*
X19003059Y-6433059D01*
X19003059Y-6486941D01*
X19056941Y-6486941D01*
X7140000Y-8100000D02*
X7180000Y-8060000D01*
X7140000Y-8020000D01*
X7100000Y-8060000D01*
X7140000Y-8100000D01*
X7340000Y-8100000D02*
X7380000Y-8060000D01*
X7340000Y-8020000D01*
X7300000Y-8060000D01*
X7340000Y-8100000D01*
X7540000Y-8100000D02*
X7580000Y-8060000D01*
X7540000Y-8020000D01*
X7500000Y-8060000D01*
X7540000Y-8100000D01*
X7740000Y-8100000D02*
X7780000Y-8060000D01*
X7740000Y-8020000D01*
X7700000Y-8060000D01*
X7740000Y-8100000D01*
X7940000Y-8100000D02*
X7980000Y-8060000D01*
X7940000Y-8020000D01*
X7900000Y-8060000D01*
X7940000Y-8100000D01*
X8140000Y-8100000D02*
X8180000Y-8060000D01*
X8140000Y-8020000D01*
X8100000Y-8060000D01*
X8140000Y-8100000D01*
X10170000Y-4125000D02*
X10260000Y-4215000D01*
X10260000Y-4125000D02*
X10170000Y-4215000D01*
X10260000Y-4170000D02*
G75*
G03*
X10260000Y-4170000I-45000J0D01*
G01*
X10680000Y-4245000D02*
X10770000Y-4335000D01*
X10770000Y-4245000D02*
X10680000Y-4335000D01*
X10770000Y-4290000D02*
G75*
G03*
X10770000Y-4290000I-45000J0D01*
G01*
X4206000Y-4704000D02*
X4306000Y-4804000D01*
X4306000Y-4704000D02*
X4206000Y-4804000D01*
X4256000Y-4704000D02*
X4256000Y-4804000D01*
X4206000Y-4754000D02*
X4306000Y-4754000D01*
X4206000Y-4958000D02*
X4306000Y-5058000D01*
X4306000Y-4958000D02*
X4206000Y-5058000D01*
X4256000Y-4958000D02*
X4256000Y-5058000D01*
X4206000Y-5008000D02*
X4306000Y-5008000D01*
X4206000Y-5212000D02*
X4306000Y-5312000D01*
X4306000Y-5212000D02*
X4206000Y-5312000D01*
X4256000Y-5212000D02*
X4256000Y-5312000D01*
X4206000Y-5262000D02*
X4306000Y-5262000D01*
X4206000Y-5466000D02*
X4306000Y-5566000D01*
X4306000Y-5466000D02*
X4206000Y-5566000D01*
X4256000Y-5466000D02*
X4256000Y-5566000D01*
X4206000Y-5516000D02*
X4306000Y-5516000D01*
X4206000Y-5720000D02*
X4306000Y-5820000D01*
X4306000Y-5720000D02*
X4206000Y-5820000D01*
X4256000Y-5720000D02*
X4256000Y-5820000D01*
X4206000Y-5770000D02*
X4306000Y-5770000D01*
X4206000Y-5974000D02*
X4306000Y-6074000D01*
X4306000Y-5974000D02*
X4206000Y-6074000D01*
X4256000Y-5974000D02*
X4256000Y-6074000D01*
X4206000Y-6024000D02*
X4306000Y-6024000D01*
X4206000Y-6228000D02*
X4306000Y-6328000D01*
X4306000Y-6228000D02*
X4206000Y-6328000D01*
X4256000Y-6228000D02*
X4256000Y-6328000D01*
X4206000Y-6278000D02*
X4306000Y-6278000D01*
X4206000Y-6482000D02*
X4306000Y-6582000D01*
X4306000Y-6482000D02*
X4206000Y-6582000D01*
X4256000Y-6482000D02*
X4256000Y-6582000D01*
X4206000Y-6532000D02*
X4306000Y-6532000D01*
X4206000Y-6736000D02*
X4306000Y-6836000D01*
X4306000Y-6736000D02*
X4206000Y-6836000D01*
X4256000Y-6736000D02*
X4256000Y-6836000D01*
X4206000Y-6786000D02*
X4306000Y-6786000D01*
X4206000Y-6990000D02*
X4306000Y-7090000D01*
X4306000Y-6990000D02*
X4206000Y-7090000D01*
X4256000Y-6990000D02*
X4256000Y-7090000D01*
X4206000Y-7040000D02*
X4306000Y-7040000D01*
X4460000Y-4704000D02*
X4560000Y-4804000D01*
X4560000Y-4704000D02*
X4460000Y-4804000D01*
X4510000Y-4704000D02*
X4510000Y-4804000D01*
X4460000Y-4754000D02*
X4560000Y-4754000D01*
X4460000Y-4958000D02*
X4560000Y-5058000D01*
X4560000Y-4958000D02*
X4460000Y-5058000D01*
X4510000Y-4958000D02*
X4510000Y-5058000D01*
X4460000Y-5008000D02*
X4560000Y-5008000D01*
X4460000Y-5212000D02*
X4560000Y-5312000D01*
X4560000Y-5212000D02*
X4460000Y-5312000D01*
X4510000Y-5212000D02*
X4510000Y-5312000D01*
X4460000Y-5262000D02*
X4560000Y-5262000D01*
X4460000Y-5466000D02*
X4560000Y-5566000D01*
X4560000Y-5466000D02*
X4460000Y-5566000D01*
X4510000Y-5466000D02*
X4510000Y-5566000D01*
X4460000Y-5516000D02*
X4560000Y-5516000D01*
X4460000Y-5720000D02*
X4560000Y-5820000D01*
X4560000Y-5720000D02*
X4460000Y-5820000D01*
X4510000Y-5720000D02*
X4510000Y-5820000D01*
X4460000Y-5770000D02*
X4560000Y-5770000D01*
X4460000Y-5974000D02*
X4560000Y-6074000D01*
X4560000Y-5974000D02*
X4460000Y-6074000D01*
X4510000Y-5974000D02*
X4510000Y-6074000D01*
X4460000Y-6024000D02*
X4560000Y-6024000D01*
X4460000Y-6228000D02*
X4560000Y-6328000D01*
X4560000Y-6228000D02*
X4460000Y-6328000D01*
X4510000Y-6228000D02*
X4510000Y-6328000D01*
X4460000Y-6278000D02*
X4560000Y-6278000D01*
X4460000Y-6482000D02*
X4560000Y-6582000D01*
X4560000Y-6482000D02*
X4460000Y-6582000D01*
X4510000Y-6482000D02*
X4510000Y-6582000D01*
X4460000Y-6532000D02*
X4560000Y-6532000D01*
X4460000Y-6736000D02*
X4560000Y-6836000D01*
X4560000Y-6736000D02*
X4460000Y-6836000D01*
X4510000Y-6736000D02*
X4510000Y-6836000D01*
X4460000Y-6786000D02*
X4560000Y-6786000D01*
X4460000Y-6990000D02*
X4560000Y-7090000D01*
X4560000Y-6990000D02*
X4460000Y-7090000D01*
X4510000Y-6990000D02*
X4510000Y-7090000D01*
X4460000Y-7040000D02*
X4560000Y-7040000D01*
X6250000Y-3130000D02*
X6350000Y-3230000D01*
X6350000Y-3130000D02*
X6250000Y-3230000D01*
X6300000Y-3130000D02*
X6300000Y-3230000D01*
X6250000Y-3180000D02*
X6350000Y-3180000D01*
X6240000Y-3220000D02*
X6360000Y-3220000D01*
X6240000Y-3140000D02*
X6360000Y-3140000D01*
X6360000Y-3220000D02*
G75*
G03*
X6360000Y-3140000I0J40000D01*
G01*
X6240000Y-3140000D02*
G75*
G03*
X6240000Y-3220000I0J-40000D01*
G01*
X10965390Y-7785390D02*
X11074610Y-7894610D01*
X11074610Y-7785390D02*
X10965390Y-7894610D01*
X11058616Y-7878615D02*
X11058616Y-7801384D01*
X10981385Y-7801384D01*
X10981385Y-7878615D01*
X11058616Y-7878615D01*
X11215390Y-7785390D02*
X11324610Y-7894610D01*
X11324610Y-7785390D02*
X11215390Y-7894610D01*
X11308615Y-7878615D02*
X11308615Y-7801384D01*
X11231384Y-7801384D01*
X11231384Y-7878615D01*
X11308615Y-7878615D01*
X5370500Y-8300500D02*
X5489500Y-8419500D01*
X5489500Y-8300500D02*
X5370500Y-8419500D01*
X5430000Y-8419500D02*
X5489500Y-8360000D01*
X5430000Y-8300500D01*
X5370500Y-8360000D01*
X5430000Y-8419500D01*
X5624500Y-8300500D02*
X5743500Y-8419500D01*
X5743500Y-8300500D02*
X5624500Y-8419500D01*
X5684000Y-8419500D02*
X5743500Y-8360000D01*
X5684000Y-8300500D01*
X5624500Y-8360000D01*
X5684000Y-8419500D01*
X6106500Y-8300500D02*
X6225500Y-8419500D01*
X6225500Y-8300500D02*
X6106500Y-8419500D01*
X6166000Y-8419500D02*
X6225500Y-8360000D01*
X6166000Y-8300500D01*
X6106500Y-8360000D01*
X6166000Y-8419500D01*
X6360500Y-8300500D02*
X6479500Y-8419500D01*
X6479500Y-8300500D02*
X6360500Y-8419500D01*
X6420000Y-8419500D02*
X6479500Y-8360000D01*
X6420000Y-8300500D01*
X6360500Y-8360000D01*
X6420000Y-8419500D01*
X7856000Y-3300000D02*
X7856000Y-3440000D01*
X7786000Y-3370000D02*
X7926000Y-3370000D01*
X7926000Y-3370000D02*
G75*
G03*
X7926000Y-3370000I-70000J0D01*
G01*
X8364000Y-3300000D02*
X8364000Y-3440000D01*
X8294000Y-3370000D02*
X8434000Y-3370000D01*
X8434000Y-3370000D02*
G75*
G03*
X8434000Y-3370000I-70000J0D01*
G01*
X10920000Y-4976000D02*
X10920000Y-5116000D01*
X10850000Y-5046000D02*
X10990000Y-5046000D01*
X10990000Y-5046000D02*
G75*
G03*
X10990000Y-5046000I-70000J0D01*
G01*
X10920000Y-5484000D02*
X10920000Y-5624000D01*
X10850000Y-5554000D02*
X10990000Y-5554000D01*
X10990000Y-5554000D02*
G75*
G03*
X10990000Y-5554000I-70000J0D01*
G01*
X5597782Y-3457782D02*
X5597782Y-3302217D01*
X5442218Y-3302217D01*
X5442218Y-3457782D01*
X5597782Y-3457782D01*
X5630000Y-3380000D02*
G75*
G03*
X5630000Y-3380000I-110000J0D01*
G01*
X7157782Y-3457782D02*
X7157782Y-3302217D01*
X7002217Y-3302217D01*
X7002217Y-3457782D01*
X7157782Y-3457782D01*
X7190000Y-3380000D02*
G75*
G03*
X7190000Y-3380000I-110000J0D01*
G01*
D12*
X3283928Y-9218214D02*
X3283928Y-8918214D01*
X3355357Y-8918214D01*
X3398214Y-8932500D01*
X3426786Y-8961072D01*
X3441071Y-8989643D01*
X3455357Y-9046786D01*
X3455357Y-9089643D01*
X3441071Y-9146786D01*
X3426786Y-9175357D01*
X3398214Y-9203929D01*
X3355357Y-9218214D01*
X3283928Y-9218214D01*
X3583928Y-9218214D02*
X3583928Y-9018214D01*
X3583928Y-9075357D02*
X3598214Y-9046786D01*
X3612500Y-9032500D01*
X3641071Y-9018214D01*
X3669643Y-9018214D01*
X3769643Y-9218214D02*
X3769643Y-9018214D01*
X3769643Y-8918214D02*
X3755357Y-8932500D01*
X3769643Y-8946786D01*
X3783928Y-8932500D01*
X3769643Y-8918214D01*
X3769643Y-8946786D01*
X3955357Y-9218214D02*
X3926786Y-9203929D01*
X3912500Y-9175357D01*
X3912500Y-8918214D01*
X4112500Y-9218214D02*
X4083928Y-9203929D01*
X4069643Y-9175357D01*
X4069643Y-8918214D01*
X4455357Y-9218214D02*
X4455357Y-8918214D01*
X4555357Y-9132500D01*
X4655357Y-8918214D01*
X4655357Y-9218214D01*
X4926786Y-9218214D02*
X4926786Y-9061072D01*
X4912500Y-9032500D01*
X4883928Y-9018214D01*
X4826786Y-9018214D01*
X4798214Y-9032500D01*
X4926786Y-9203929D02*
X4898214Y-9218214D01*
X4826786Y-9218214D01*
X4798214Y-9203929D01*
X4783928Y-9175357D01*
X4783928Y-9146786D01*
X4798214Y-9118214D01*
X4826786Y-9103929D01*
X4898214Y-9103929D01*
X4926786Y-9089643D01*
X5069643Y-9018214D02*
X5069643Y-9318214D01*
X5069643Y-9032500D02*
X5098214Y-9018214D01*
X5155357Y-9018214D01*
X5183928Y-9032500D01*
X5198214Y-9046786D01*
X5212500Y-9075357D01*
X5212500Y-9161072D01*
X5198214Y-9189643D01*
X5183928Y-9203929D01*
X5155357Y-9218214D01*
X5098214Y-9218214D01*
X5069643Y-9203929D01*
X5341071Y-9189643D02*
X5355357Y-9203929D01*
X5341071Y-9218214D01*
X5326786Y-9203929D01*
X5341071Y-9189643D01*
X5341071Y-9218214D01*
X5341071Y-9032500D02*
X5355357Y-9046786D01*
X5341071Y-9061072D01*
X5326786Y-9046786D01*
X5341071Y-9032500D01*
X5341071Y-9061072D01*
X2957500Y-9692500D02*
X2997500Y-9732500D01*
X2997500Y-9692500D02*
X2957500Y-9732500D01*
X3341071Y-9548214D02*
X3369643Y-9548214D01*
X3398214Y-9562500D01*
X3412500Y-9576786D01*
X3426786Y-9605357D01*
X3441071Y-9662500D01*
X3441071Y-9733929D01*
X3426786Y-9791072D01*
X3412500Y-9819643D01*
X3398214Y-9833929D01*
X3369643Y-9848214D01*
X3341071Y-9848214D01*
X3312500Y-9833929D01*
X3298214Y-9819643D01*
X3283928Y-9791072D01*
X3269643Y-9733929D01*
X3269643Y-9662500D01*
X3283928Y-9605357D01*
X3298214Y-9576786D01*
X3312500Y-9562500D01*
X3341071Y-9548214D01*
X3569643Y-9819643D02*
X3583928Y-9833929D01*
X3569643Y-9848214D01*
X3555357Y-9833929D01*
X3569643Y-9819643D01*
X3569643Y-9848214D01*
X3841071Y-9648214D02*
X3841071Y-9848214D01*
X3769643Y-9533929D02*
X3698214Y-9748214D01*
X3883928Y-9748214D01*
X4055357Y-9548214D02*
X4083928Y-9548214D01*
X4112500Y-9562500D01*
X4126786Y-9576786D01*
X4141071Y-9605357D01*
X4155357Y-9662500D01*
X4155357Y-9733929D01*
X4141071Y-9791072D01*
X4126786Y-9819643D01*
X4112500Y-9833929D01*
X4083928Y-9848214D01*
X4055357Y-9848214D01*
X4026786Y-9833929D01*
X4012500Y-9819643D01*
X3998214Y-9791072D01*
X3983928Y-9733929D01*
X3983928Y-9662500D01*
X3998214Y-9605357D01*
X4012500Y-9576786D01*
X4026786Y-9562500D01*
X4055357Y-9548214D01*
X4283928Y-9848214D02*
X4283928Y-9648214D01*
X4283928Y-9676786D02*
X4298214Y-9662500D01*
X4326786Y-9648214D01*
X4369643Y-9648214D01*
X4398214Y-9662500D01*
X4412500Y-9691072D01*
X4412500Y-9848214D01*
X4412500Y-9691072D02*
X4426786Y-9662500D01*
X4455357Y-9648214D01*
X4498214Y-9648214D01*
X4526786Y-9662500D01*
X4541071Y-9691072D01*
X4541071Y-9848214D01*
X4683928Y-9848214D02*
X4683928Y-9648214D01*
X4683928Y-9676786D02*
X4698214Y-9662500D01*
X4726786Y-9648214D01*
X4769643Y-9648214D01*
X4798214Y-9662500D01*
X4812500Y-9691072D01*
X4812500Y-9848214D01*
X4812500Y-9691072D02*
X4826786Y-9662500D01*
X4855357Y-9648214D01*
X4898214Y-9648214D01*
X4926786Y-9662500D01*
X4941071Y-9691072D01*
X4941071Y-9848214D01*
X5526786Y-9533929D02*
X5269643Y-9919643D01*
X5912500Y-9548214D02*
X5941071Y-9548214D01*
X5969643Y-9562500D01*
X5983928Y-9576786D01*
X5998214Y-9605357D01*
X6012500Y-9662500D01*
X6012500Y-9733929D01*
X5998214Y-9791072D01*
X5983928Y-9819643D01*
X5969643Y-9833929D01*
X5941071Y-9848214D01*
X5912500Y-9848214D01*
X5883928Y-9833929D01*
X5869643Y-9819643D01*
X5855357Y-9791072D01*
X5841071Y-9733929D01*
X5841071Y-9662500D01*
X5855357Y-9605357D01*
X5869643Y-9576786D01*
X5883928Y-9562500D01*
X5912500Y-9548214D01*
X6141071Y-9819643D02*
X6155357Y-9833929D01*
X6141071Y-9848214D01*
X6126786Y-9833929D01*
X6141071Y-9819643D01*
X6141071Y-9848214D01*
X6341071Y-9548214D02*
X6369643Y-9548214D01*
X6398214Y-9562500D01*
X6412500Y-9576786D01*
X6426786Y-9605357D01*
X6441071Y-9662500D01*
X6441071Y-9733929D01*
X6426786Y-9791072D01*
X6412500Y-9819643D01*
X6398214Y-9833929D01*
X6369643Y-9848214D01*
X6341071Y-9848214D01*
X6312500Y-9833929D01*
X6298214Y-9819643D01*
X6283928Y-9791072D01*
X6269643Y-9733929D01*
X6269643Y-9662500D01*
X6283928Y-9605357D01*
X6298214Y-9576786D01*
X6312500Y-9562500D01*
X6341071Y-9548214D01*
X6726786Y-9848214D02*
X6555357Y-9848214D01*
X6641071Y-9848214D02*
X6641071Y-9548214D01*
X6612500Y-9591072D01*
X6583928Y-9619643D01*
X6555357Y-9633929D01*
X6983928Y-9548214D02*
X6926786Y-9548214D01*
X6898214Y-9562500D01*
X6883928Y-9576786D01*
X6855357Y-9619643D01*
X6841071Y-9676786D01*
X6841071Y-9791072D01*
X6855357Y-9819643D01*
X6869643Y-9833929D01*
X6898214Y-9848214D01*
X6955357Y-9848214D01*
X6983928Y-9833929D01*
X6998214Y-9819643D01*
X7012500Y-9791072D01*
X7012500Y-9719643D01*
X6998214Y-9691072D01*
X6983928Y-9676786D01*
X6955357Y-9662500D01*
X6898214Y-9662500D01*
X6869643Y-9676786D01*
X6855357Y-9691072D01*
X6841071Y-9719643D01*
X7126786Y-9548214D02*
X7126786Y-9605357D01*
X7241071Y-9548214D02*
X7241071Y-9605357D01*
X7683928Y-9962500D02*
X7669643Y-9948214D01*
X7641071Y-9905357D01*
X7626786Y-9876786D01*
X7612500Y-9833929D01*
X7598214Y-9762500D01*
X7598214Y-9705357D01*
X7612500Y-9633929D01*
X7626786Y-9591072D01*
X7641071Y-9562500D01*
X7669643Y-9519643D01*
X7683928Y-9505357D01*
X7926786Y-9648214D02*
X7926786Y-9848214D01*
X7855357Y-9533929D02*
X7783928Y-9748214D01*
X7969643Y-9748214D01*
X8098214Y-9848214D02*
X8155357Y-9848214D01*
X8183928Y-9833929D01*
X8198214Y-9819643D01*
X8226786Y-9776786D01*
X8241071Y-9719643D01*
X8241071Y-9605357D01*
X8226786Y-9576786D01*
X8212500Y-9562500D01*
X8183928Y-9548214D01*
X8126786Y-9548214D01*
X8098214Y-9562500D01*
X8083928Y-9576786D01*
X8069643Y-9605357D01*
X8069643Y-9676786D01*
X8083928Y-9705357D01*
X8098214Y-9719643D01*
X8126786Y-9733929D01*
X8183928Y-9733929D01*
X8212500Y-9719643D01*
X8226786Y-9705357D01*
X8241071Y-9676786D01*
X8598214Y-9848214D02*
X8598214Y-9548214D01*
X8726786Y-9848214D02*
X8726786Y-9691072D01*
X8712500Y-9662500D01*
X8683928Y-9648214D01*
X8641071Y-9648214D01*
X8612500Y-9662500D01*
X8598214Y-9676786D01*
X8912500Y-9848214D02*
X8883928Y-9833929D01*
X8869643Y-9819643D01*
X8855357Y-9791072D01*
X8855357Y-9705357D01*
X8869643Y-9676786D01*
X8883928Y-9662500D01*
X8912500Y-9648214D01*
X8955357Y-9648214D01*
X8983928Y-9662500D01*
X8998214Y-9676786D01*
X9012500Y-9705357D01*
X9012500Y-9791072D01*
X8998214Y-9819643D01*
X8983928Y-9833929D01*
X8955357Y-9848214D01*
X8912500Y-9848214D01*
X9183928Y-9848214D02*
X9155357Y-9833929D01*
X9141071Y-9805357D01*
X9141071Y-9548214D01*
X9412500Y-9833929D02*
X9383928Y-9848214D01*
X9326786Y-9848214D01*
X9298214Y-9833929D01*
X9283928Y-9805357D01*
X9283928Y-9691072D01*
X9298214Y-9662500D01*
X9326786Y-9648214D01*
X9383928Y-9648214D01*
X9412500Y-9662500D01*
X9426786Y-9691072D01*
X9426786Y-9719643D01*
X9283928Y-9748214D01*
X9541071Y-9833929D02*
X9569643Y-9848214D01*
X9626786Y-9848214D01*
X9655357Y-9833929D01*
X9669643Y-9805357D01*
X9669643Y-9791072D01*
X9655357Y-9762500D01*
X9626786Y-9748214D01*
X9583928Y-9748214D01*
X9555357Y-9733929D01*
X9541071Y-9705357D01*
X9541071Y-9691072D01*
X9555357Y-9662500D01*
X9583928Y-9648214D01*
X9626786Y-9648214D01*
X9655357Y-9662500D01*
X9769643Y-9962500D02*
X9783928Y-9948214D01*
X9812500Y-9905357D01*
X9826786Y-9876786D01*
X9841071Y-9833929D01*
X9855357Y-9762500D01*
X9855357Y-9705357D01*
X9841071Y-9633929D01*
X9826786Y-9591072D01*
X9812500Y-9562500D01*
X9783928Y-9519643D01*
X9769643Y-9505357D01*
X2997500Y-10108500D02*
G75*
G03*
X2997500Y-10108500I-25000J0D01*
G01*
X3341071Y-9944214D02*
X3369643Y-9944214D01*
X3398214Y-9958500D01*
X3412500Y-9972786D01*
X3426786Y-10001357D01*
X3441071Y-10058500D01*
X3441071Y-10129929D01*
X3426786Y-10187072D01*
X3412500Y-10215643D01*
X3398214Y-10229929D01*
X3369643Y-10244214D01*
X3341071Y-10244214D01*
X3312500Y-10229929D01*
X3298214Y-10215643D01*
X3283928Y-10187072D01*
X3269643Y-10129929D01*
X3269643Y-10058500D01*
X3283928Y-10001357D01*
X3298214Y-9972786D01*
X3312500Y-9958500D01*
X3341071Y-9944214D01*
X3569643Y-10215643D02*
X3583928Y-10229929D01*
X3569643Y-10244214D01*
X3555357Y-10229929D01*
X3569643Y-10215643D01*
X3569643Y-10244214D01*
X3855357Y-9944214D02*
X3712500Y-9944214D01*
X3698214Y-10087072D01*
X3712500Y-10072786D01*
X3741071Y-10058500D01*
X3812500Y-10058500D01*
X3841071Y-10072786D01*
X3855357Y-10087072D01*
X3869643Y-10115643D01*
X3869643Y-10187072D01*
X3855357Y-10215643D01*
X3841071Y-10229929D01*
X3812500Y-10244214D01*
X3741071Y-10244214D01*
X3712500Y-10229929D01*
X3698214Y-10215643D01*
X4055357Y-9944214D02*
X4083928Y-9944214D01*
X4112500Y-9958500D01*
X4126786Y-9972786D01*
X4141071Y-10001357D01*
X4155357Y-10058500D01*
X4155357Y-10129929D01*
X4141071Y-10187072D01*
X4126786Y-10215643D01*
X4112500Y-10229929D01*
X4083928Y-10244214D01*
X4055357Y-10244214D01*
X4026786Y-10229929D01*
X4012500Y-10215643D01*
X3998214Y-10187072D01*
X3983928Y-10129929D01*
X3983928Y-10058500D01*
X3998214Y-10001357D01*
X4012500Y-9972786D01*
X4026786Y-9958500D01*
X4055357Y-9944214D01*
X4283928Y-10244214D02*
X4283928Y-10044214D01*
X4283928Y-10072786D02*
X4298214Y-10058500D01*
X4326786Y-10044214D01*
X4369643Y-10044214D01*
X4398214Y-10058500D01*
X4412500Y-10087072D01*
X4412500Y-10244214D01*
X4412500Y-10087072D02*
X4426786Y-10058500D01*
X4455357Y-10044214D01*
X4498214Y-10044214D01*
X4526786Y-10058500D01*
X4541071Y-10087072D01*
X4541071Y-10244214D01*
X4683928Y-10244214D02*
X4683928Y-10044214D01*
X4683928Y-10072786D02*
X4698214Y-10058500D01*
X4726786Y-10044214D01*
X4769643Y-10044214D01*
X4798214Y-10058500D01*
X4812500Y-10087072D01*
X4812500Y-10244214D01*
X4812500Y-10087072D02*
X4826786Y-10058500D01*
X4855357Y-10044214D01*
X4898214Y-10044214D01*
X4926786Y-10058500D01*
X4941071Y-10087072D01*
X4941071Y-10244214D01*
X5526786Y-9929929D02*
X5269643Y-10315643D01*
X5912500Y-9944214D02*
X5941071Y-9944214D01*
X5969643Y-9958500D01*
X5983928Y-9972786D01*
X5998214Y-10001357D01*
X6012500Y-10058500D01*
X6012500Y-10129929D01*
X5998214Y-10187072D01*
X5983928Y-10215643D01*
X5969643Y-10229929D01*
X5941071Y-10244214D01*
X5912500Y-10244214D01*
X5883928Y-10229929D01*
X5869643Y-10215643D01*
X5855357Y-10187072D01*
X5841071Y-10129929D01*
X5841071Y-10058500D01*
X5855357Y-10001357D01*
X5869643Y-9972786D01*
X5883928Y-9958500D01*
X5912500Y-9944214D01*
X6141071Y-10215643D02*
X6155357Y-10229929D01*
X6141071Y-10244214D01*
X6126786Y-10229929D01*
X6141071Y-10215643D01*
X6141071Y-10244214D01*
X6341071Y-9944214D02*
X6369643Y-9944214D01*
X6398214Y-9958500D01*
X6412500Y-9972786D01*
X6426786Y-10001357D01*
X6441071Y-10058500D01*
X6441071Y-10129929D01*
X6426786Y-10187072D01*
X6412500Y-10215643D01*
X6398214Y-10229929D01*
X6369643Y-10244214D01*
X6341071Y-10244214D01*
X6312500Y-10229929D01*
X6298214Y-10215643D01*
X6283928Y-10187072D01*
X6269643Y-10129929D01*
X6269643Y-10058500D01*
X6283928Y-10001357D01*
X6298214Y-9972786D01*
X6312500Y-9958500D01*
X6341071Y-9944214D01*
X6555357Y-9972786D02*
X6569643Y-9958500D01*
X6598214Y-9944214D01*
X6669643Y-9944214D01*
X6698214Y-9958500D01*
X6712500Y-9972786D01*
X6726786Y-10001357D01*
X6726786Y-10029929D01*
X6712500Y-10072786D01*
X6541071Y-10244214D01*
X6726786Y-10244214D01*
X6912500Y-9944214D02*
X6941071Y-9944214D01*
X6969643Y-9958500D01*
X6983928Y-9972786D01*
X6998214Y-10001357D01*
X7012500Y-10058500D01*
X7012500Y-10129929D01*
X6998214Y-10187072D01*
X6983928Y-10215643D01*
X6969643Y-10229929D01*
X6941071Y-10244214D01*
X6912500Y-10244214D01*
X6883928Y-10229929D01*
X6869643Y-10215643D01*
X6855357Y-10187072D01*
X6841071Y-10129929D01*
X6841071Y-10058500D01*
X6855357Y-10001357D01*
X6869643Y-9972786D01*
X6883928Y-9958500D01*
X6912500Y-9944214D01*
X7126786Y-9944214D02*
X7126786Y-10001357D01*
X7241071Y-9944214D02*
X7241071Y-10001357D01*
X7683928Y-10358500D02*
X7669643Y-10344214D01*
X7641071Y-10301357D01*
X7626786Y-10272786D01*
X7612500Y-10229929D01*
X7598214Y-10158500D01*
X7598214Y-10101357D01*
X7612500Y-10029929D01*
X7626786Y-9987072D01*
X7641071Y-9958500D01*
X7669643Y-9915643D01*
X7683928Y-9901357D01*
X7955357Y-10244214D02*
X7783928Y-10244214D01*
X7869643Y-10244214D02*
X7869643Y-9944214D01*
X7841071Y-9987072D01*
X7812500Y-10015643D01*
X7783928Y-10029929D01*
X8241071Y-10244214D02*
X8069643Y-10244214D01*
X8155357Y-10244214D02*
X8155357Y-9944214D01*
X8126786Y-9987072D01*
X8098214Y-10015643D01*
X8069643Y-10029929D01*
X8598214Y-10244214D02*
X8598214Y-9944214D01*
X8726786Y-10244214D02*
X8726786Y-10087072D01*
X8712500Y-10058500D01*
X8683928Y-10044214D01*
X8641071Y-10044214D01*
X8612500Y-10058500D01*
X8598214Y-10072786D01*
X8912500Y-10244214D02*
X8883928Y-10229929D01*
X8869643Y-10215643D01*
X8855357Y-10187072D01*
X8855357Y-10101357D01*
X8869643Y-10072786D01*
X8883928Y-10058500D01*
X8912500Y-10044214D01*
X8955357Y-10044214D01*
X8983928Y-10058500D01*
X8998214Y-10072786D01*
X9012500Y-10101357D01*
X9012500Y-10187072D01*
X8998214Y-10215643D01*
X8983928Y-10229929D01*
X8955357Y-10244214D01*
X8912500Y-10244214D01*
X9183928Y-10244214D02*
X9155357Y-10229929D01*
X9141071Y-10201357D01*
X9141071Y-9944214D01*
X9412500Y-10229929D02*
X9383928Y-10244214D01*
X9326786Y-10244214D01*
X9298214Y-10229929D01*
X9283928Y-10201357D01*
X9283928Y-10087072D01*
X9298214Y-10058500D01*
X9326786Y-10044214D01*
X9383928Y-10044214D01*
X9412500Y-10058500D01*
X9426786Y-10087072D01*
X9426786Y-10115643D01*
X9283928Y-10144214D01*
X9541071Y-10229929D02*
X9569643Y-10244214D01*
X9626786Y-10244214D01*
X9655357Y-10229929D01*
X9669643Y-10201357D01*
X9669643Y-10187072D01*
X9655357Y-10158500D01*
X9626786Y-10144214D01*
X9583928Y-10144214D01*
X9555357Y-10129929D01*
X9541071Y-10101357D01*
X9541071Y-10087072D01*
X9555357Y-10058500D01*
X9583928Y-10044214D01*
X9626786Y-10044214D01*
X9655357Y-10058500D01*
X9769643Y-10358500D02*
X9783928Y-10344214D01*
X9812500Y-10301357D01*
X9826786Y-10272786D01*
X9841071Y-10229929D01*
X9855357Y-10158500D01*
X9855357Y-10101357D01*
X9841071Y-10029929D01*
X9826786Y-9987072D01*
X9812500Y-9958500D01*
X9783928Y-9915643D01*
X9769643Y-9901357D01*
X2967500Y-10474500D02*
X2967500Y-10534500D01*
X2937500Y-10504500D02*
X2997500Y-10504500D01*
X3341071Y-10340214D02*
X3369643Y-10340214D01*
X3398214Y-10354500D01*
X3412500Y-10368786D01*
X3426786Y-10397357D01*
X3441071Y-10454500D01*
X3441071Y-10525929D01*
X3426786Y-10583072D01*
X3412500Y-10611643D01*
X3398214Y-10625929D01*
X3369643Y-10640214D01*
X3341071Y-10640214D01*
X3312500Y-10625929D01*
X3298214Y-10611643D01*
X3283928Y-10583072D01*
X3269643Y-10525929D01*
X3269643Y-10454500D01*
X3283928Y-10397357D01*
X3298214Y-10368786D01*
X3312500Y-10354500D01*
X3341071Y-10340214D01*
X3569643Y-10611643D02*
X3583928Y-10625929D01*
X3569643Y-10640214D01*
X3555357Y-10625929D01*
X3569643Y-10611643D01*
X3569643Y-10640214D01*
X3841071Y-10340214D02*
X3783928Y-10340214D01*
X3755357Y-10354500D01*
X3741071Y-10368786D01*
X3712500Y-10411643D01*
X3698214Y-10468786D01*
X3698214Y-10583072D01*
X3712500Y-10611643D01*
X3726786Y-10625929D01*
X3755357Y-10640214D01*
X3812500Y-10640214D01*
X3841071Y-10625929D01*
X3855357Y-10611643D01*
X3869643Y-10583072D01*
X3869643Y-10511643D01*
X3855357Y-10483072D01*
X3841071Y-10468786D01*
X3812500Y-10454500D01*
X3755357Y-10454500D01*
X3726786Y-10468786D01*
X3712500Y-10483072D01*
X3698214Y-10511643D01*
X4055357Y-10340214D02*
X4083928Y-10340214D01*
X4112500Y-10354500D01*
X4126786Y-10368786D01*
X4141071Y-10397357D01*
X4155357Y-10454500D01*
X4155357Y-10525929D01*
X4141071Y-10583072D01*
X4126786Y-10611643D01*
X4112500Y-10625929D01*
X4083928Y-10640214D01*
X4055357Y-10640214D01*
X4026786Y-10625929D01*
X4012500Y-10611643D01*
X3998214Y-10583072D01*
X3983928Y-10525929D01*
X3983928Y-10454500D01*
X3998214Y-10397357D01*
X4012500Y-10368786D01*
X4026786Y-10354500D01*
X4055357Y-10340214D01*
X4283928Y-10640214D02*
X4283928Y-10440214D01*
X4283928Y-10468786D02*
X4298214Y-10454500D01*
X4326786Y-10440214D01*
X4369643Y-10440214D01*
X4398214Y-10454500D01*
X4412500Y-10483072D01*
X4412500Y-10640214D01*
X4412500Y-10483072D02*
X4426786Y-10454500D01*
X4455357Y-10440214D01*
X4498214Y-10440214D01*
X4526786Y-10454500D01*
X4541071Y-10483072D01*
X4541071Y-10640214D01*
X4683928Y-10640214D02*
X4683928Y-10440214D01*
X4683928Y-10468786D02*
X4698214Y-10454500D01*
X4726786Y-10440214D01*
X4769643Y-10440214D01*
X4798214Y-10454500D01*
X4812500Y-10483072D01*
X4812500Y-10640214D01*
X4812500Y-10483072D02*
X4826786Y-10454500D01*
X4855357Y-10440214D01*
X4898214Y-10440214D01*
X4926786Y-10454500D01*
X4941071Y-10483072D01*
X4941071Y-10640214D01*
X5526786Y-10325929D02*
X5269643Y-10711643D01*
X5912500Y-10340214D02*
X5941071Y-10340214D01*
X5969643Y-10354500D01*
X5983928Y-10368786D01*
X5998214Y-10397357D01*
X6012500Y-10454500D01*
X6012500Y-10525929D01*
X5998214Y-10583072D01*
X5983928Y-10611643D01*
X5969643Y-10625929D01*
X5941071Y-10640214D01*
X5912500Y-10640214D01*
X5883928Y-10625929D01*
X5869643Y-10611643D01*
X5855357Y-10583072D01*
X5841071Y-10525929D01*
X5841071Y-10454500D01*
X5855357Y-10397357D01*
X5869643Y-10368786D01*
X5883928Y-10354500D01*
X5912500Y-10340214D01*
X6141071Y-10611643D02*
X6155357Y-10625929D01*
X6141071Y-10640214D01*
X6126786Y-10625929D01*
X6141071Y-10611643D01*
X6141071Y-10640214D01*
X6341071Y-10340214D02*
X6369643Y-10340214D01*
X6398214Y-10354500D01*
X6412500Y-10368786D01*
X6426786Y-10397357D01*
X6441071Y-10454500D01*
X6441071Y-10525929D01*
X6426786Y-10583072D01*
X6412500Y-10611643D01*
X6398214Y-10625929D01*
X6369643Y-10640214D01*
X6341071Y-10640214D01*
X6312500Y-10625929D01*
X6298214Y-10611643D01*
X6283928Y-10583072D01*
X6269643Y-10525929D01*
X6269643Y-10454500D01*
X6283928Y-10397357D01*
X6298214Y-10368786D01*
X6312500Y-10354500D01*
X6341071Y-10340214D01*
X6555357Y-10368786D02*
X6569643Y-10354500D01*
X6598214Y-10340214D01*
X6669643Y-10340214D01*
X6698214Y-10354500D01*
X6712500Y-10368786D01*
X6726786Y-10397357D01*
X6726786Y-10425929D01*
X6712500Y-10468786D01*
X6541071Y-10640214D01*
X6726786Y-10640214D01*
X6983928Y-10440214D02*
X6983928Y-10640214D01*
X6912500Y-10325929D02*
X6841071Y-10540214D01*
X7026786Y-10540214D01*
X7126786Y-10340214D02*
X7126786Y-10397357D01*
X7241071Y-10340214D02*
X7241071Y-10397357D01*
X7683928Y-10754500D02*
X7669643Y-10740214D01*
X7641071Y-10697357D01*
X7626786Y-10668786D01*
X7612500Y-10625929D01*
X7598214Y-10554500D01*
X7598214Y-10497357D01*
X7612500Y-10425929D01*
X7626786Y-10383072D01*
X7641071Y-10354500D01*
X7669643Y-10311643D01*
X7683928Y-10297357D01*
X7855357Y-10340214D02*
X7883928Y-10340214D01*
X7912500Y-10354500D01*
X7926786Y-10368786D01*
X7941071Y-10397357D01*
X7955357Y-10454500D01*
X7955357Y-10525929D01*
X7941071Y-10583072D01*
X7926786Y-10611643D01*
X7912500Y-10625929D01*
X7883928Y-10640214D01*
X7855357Y-10640214D01*
X7826786Y-10625929D01*
X7812500Y-10611643D01*
X7798214Y-10583072D01*
X7783928Y-10525929D01*
X7783928Y-10454500D01*
X7798214Y-10397357D01*
X7812500Y-10368786D01*
X7826786Y-10354500D01*
X7855357Y-10340214D01*
X8312500Y-10640214D02*
X8312500Y-10340214D01*
X8441071Y-10640214D02*
X8441071Y-10483072D01*
X8426786Y-10454500D01*
X8398214Y-10440214D01*
X8355357Y-10440214D01*
X8326786Y-10454500D01*
X8312500Y-10468786D01*
X8626786Y-10640214D02*
X8598214Y-10625929D01*
X8583928Y-10611643D01*
X8569643Y-10583072D01*
X8569643Y-10497357D01*
X8583928Y-10468786D01*
X8598214Y-10454500D01*
X8626786Y-10440214D01*
X8669643Y-10440214D01*
X8698214Y-10454500D01*
X8712500Y-10468786D01*
X8726786Y-10497357D01*
X8726786Y-10583072D01*
X8712500Y-10611643D01*
X8698214Y-10625929D01*
X8669643Y-10640214D01*
X8626786Y-10640214D01*
X8898214Y-10640214D02*
X8869643Y-10625929D01*
X8855357Y-10597357D01*
X8855357Y-10340214D01*
X9126786Y-10625929D02*
X9098214Y-10640214D01*
X9041071Y-10640214D01*
X9012500Y-10625929D01*
X8998214Y-10597357D01*
X8998214Y-10483072D01*
X9012500Y-10454500D01*
X9041071Y-10440214D01*
X9098214Y-10440214D01*
X9126786Y-10454500D01*
X9141071Y-10483072D01*
X9141071Y-10511643D01*
X8998214Y-10540214D01*
X9255357Y-10625929D02*
X9283928Y-10640214D01*
X9341071Y-10640214D01*
X9369643Y-10625929D01*
X9383928Y-10597357D01*
X9383928Y-10583072D01*
X9369643Y-10554500D01*
X9341071Y-10540214D01*
X9298214Y-10540214D01*
X9269643Y-10525929D01*
X9255357Y-10497357D01*
X9255357Y-10483072D01*
X9269643Y-10454500D01*
X9298214Y-10440214D01*
X9341071Y-10440214D01*
X9369643Y-10454500D01*
X9741071Y-10525929D02*
X9969643Y-10525929D01*
X9855357Y-10640214D02*
X9855357Y-10411643D01*
X10469643Y-10340214D02*
X10412500Y-10340214D01*
X10383928Y-10354500D01*
X10369643Y-10368786D01*
X10341071Y-10411643D01*
X10326786Y-10468786D01*
X10326786Y-10583072D01*
X10341071Y-10611643D01*
X10355357Y-10625929D01*
X10383928Y-10640214D01*
X10441071Y-10640214D01*
X10469643Y-10625929D01*
X10483928Y-10611643D01*
X10498214Y-10583072D01*
X10498214Y-10511643D01*
X10483928Y-10483072D01*
X10469643Y-10468786D01*
X10441071Y-10454500D01*
X10383928Y-10454500D01*
X10355357Y-10468786D01*
X10341071Y-10483072D01*
X10326786Y-10511643D01*
X10841071Y-10625929D02*
X10869643Y-10640214D01*
X10926786Y-10640214D01*
X10955357Y-10625929D01*
X10969643Y-10597357D01*
X10969643Y-10583072D01*
X10955357Y-10554500D01*
X10926786Y-10540214D01*
X10883928Y-10540214D01*
X10855357Y-10525929D01*
X10841071Y-10497357D01*
X10841071Y-10483072D01*
X10855357Y-10454500D01*
X10883928Y-10440214D01*
X10926786Y-10440214D01*
X10955357Y-10454500D01*
X11141071Y-10640214D02*
X11112500Y-10625929D01*
X11098214Y-10597357D01*
X11098214Y-10340214D01*
X11298214Y-10640214D02*
X11269643Y-10625929D01*
X11255357Y-10611643D01*
X11241071Y-10583072D01*
X11241071Y-10497357D01*
X11255357Y-10468786D01*
X11269643Y-10454500D01*
X11298214Y-10440214D01*
X11341071Y-10440214D01*
X11369643Y-10454500D01*
X11383928Y-10468786D01*
X11398214Y-10497357D01*
X11398214Y-10583072D01*
X11383928Y-10611643D01*
X11369643Y-10625929D01*
X11341071Y-10640214D01*
X11298214Y-10640214D01*
X11483928Y-10440214D02*
X11598214Y-10440214D01*
X11526786Y-10340214D02*
X11526786Y-10597357D01*
X11541071Y-10625929D01*
X11569643Y-10640214D01*
X11598214Y-10640214D01*
X11683928Y-10625929D02*
X11712500Y-10640214D01*
X11769643Y-10640214D01*
X11798214Y-10625929D01*
X11812500Y-10597357D01*
X11812500Y-10583072D01*
X11798214Y-10554500D01*
X11769643Y-10540214D01*
X11726786Y-10540214D01*
X11698214Y-10525929D01*
X11683928Y-10497357D01*
X11683928Y-10483072D01*
X11698214Y-10454500D01*
X11726786Y-10440214D01*
X11769643Y-10440214D01*
X11798214Y-10454500D01*
X11912500Y-10754500D02*
X11926786Y-10740214D01*
X11955357Y-10697357D01*
X11969643Y-10668786D01*
X11983928Y-10625929D01*
X11998214Y-10554500D01*
X11998214Y-10497357D01*
X11983928Y-10425929D01*
X11969643Y-10383072D01*
X11955357Y-10354500D01*
X11926786Y-10311643D01*
X11912500Y-10297357D01*
X2986341Y-10927441D02*
X2986341Y-10873559D01*
X2932459Y-10873559D01*
X2932459Y-10927441D01*
X2986341Y-10927441D01*
X3341071Y-10736214D02*
X3369643Y-10736214D01*
X3398214Y-10750500D01*
X3412500Y-10764786D01*
X3426786Y-10793357D01*
X3441071Y-10850500D01*
X3441071Y-10921929D01*
X3426786Y-10979072D01*
X3412500Y-11007643D01*
X3398214Y-11021929D01*
X3369643Y-11036214D01*
X3341071Y-11036214D01*
X3312500Y-11021929D01*
X3298214Y-11007643D01*
X3283928Y-10979072D01*
X3269643Y-10921929D01*
X3269643Y-10850500D01*
X3283928Y-10793357D01*
X3298214Y-10764786D01*
X3312500Y-10750500D01*
X3341071Y-10736214D01*
X3569643Y-11007643D02*
X3583928Y-11021929D01*
X3569643Y-11036214D01*
X3555357Y-11021929D01*
X3569643Y-11007643D01*
X3569643Y-11036214D01*
X3683928Y-10736214D02*
X3883928Y-10736214D01*
X3755357Y-11036214D01*
X4126786Y-10736214D02*
X4069643Y-10736214D01*
X4041071Y-10750500D01*
X4026786Y-10764786D01*
X3998214Y-10807643D01*
X3983928Y-10864786D01*
X3983928Y-10979072D01*
X3998214Y-11007643D01*
X4012500Y-11021929D01*
X4041071Y-11036214D01*
X4098214Y-11036214D01*
X4126786Y-11021929D01*
X4141071Y-11007643D01*
X4155357Y-10979072D01*
X4155357Y-10907643D01*
X4141071Y-10879072D01*
X4126786Y-10864786D01*
X4098214Y-10850500D01*
X4041071Y-10850500D01*
X4012500Y-10864786D01*
X3998214Y-10879072D01*
X3983928Y-10907643D01*
X4283928Y-11036214D02*
X4283928Y-10836214D01*
X4283928Y-10864786D02*
X4298214Y-10850500D01*
X4326786Y-10836214D01*
X4369643Y-10836214D01*
X4398214Y-10850500D01*
X4412500Y-10879072D01*
X4412500Y-11036214D01*
X4412500Y-10879072D02*
X4426786Y-10850500D01*
X4455357Y-10836214D01*
X4498214Y-10836214D01*
X4526786Y-10850500D01*
X4541071Y-10879072D01*
X4541071Y-11036214D01*
X4683928Y-11036214D02*
X4683928Y-10836214D01*
X4683928Y-10864786D02*
X4698214Y-10850500D01*
X4726786Y-10836214D01*
X4769643Y-10836214D01*
X4798214Y-10850500D01*
X4812500Y-10879072D01*
X4812500Y-11036214D01*
X4812500Y-10879072D02*
X4826786Y-10850500D01*
X4855357Y-10836214D01*
X4898214Y-10836214D01*
X4926786Y-10850500D01*
X4941071Y-10879072D01*
X4941071Y-11036214D01*
X5526786Y-10721929D02*
X5269643Y-11107643D01*
X5912500Y-10736214D02*
X5941071Y-10736214D01*
X5969643Y-10750500D01*
X5983928Y-10764786D01*
X5998214Y-10793357D01*
X6012500Y-10850500D01*
X6012500Y-10921929D01*
X5998214Y-10979072D01*
X5983928Y-11007643D01*
X5969643Y-11021929D01*
X5941071Y-11036214D01*
X5912500Y-11036214D01*
X5883928Y-11021929D01*
X5869643Y-11007643D01*
X5855357Y-10979072D01*
X5841071Y-10921929D01*
X5841071Y-10850500D01*
X5855357Y-10793357D01*
X5869643Y-10764786D01*
X5883928Y-10750500D01*
X5912500Y-10736214D01*
X6141071Y-11007643D02*
X6155357Y-11021929D01*
X6141071Y-11036214D01*
X6126786Y-11021929D01*
X6141071Y-11007643D01*
X6141071Y-11036214D01*
X6341071Y-10736214D02*
X6369643Y-10736214D01*
X6398214Y-10750500D01*
X6412500Y-10764786D01*
X6426786Y-10793357D01*
X6441071Y-10850500D01*
X6441071Y-10921929D01*
X6426786Y-10979072D01*
X6412500Y-11007643D01*
X6398214Y-11021929D01*
X6369643Y-11036214D01*
X6341071Y-11036214D01*
X6312500Y-11021929D01*
X6298214Y-11007643D01*
X6283928Y-10979072D01*
X6269643Y-10921929D01*
X6269643Y-10850500D01*
X6283928Y-10793357D01*
X6298214Y-10764786D01*
X6312500Y-10750500D01*
X6341071Y-10736214D01*
X6541071Y-10736214D02*
X6726786Y-10736214D01*
X6626786Y-10850500D01*
X6669643Y-10850500D01*
X6698214Y-10864786D01*
X6712500Y-10879072D01*
X6726786Y-10907643D01*
X6726786Y-10979072D01*
X6712500Y-11007643D01*
X6698214Y-11021929D01*
X6669643Y-11036214D01*
X6583928Y-11036214D01*
X6555357Y-11021929D01*
X6541071Y-11007643D01*
X6912500Y-10736214D02*
X6941071Y-10736214D01*
X6969643Y-10750500D01*
X6983928Y-10764786D01*
X6998214Y-10793357D01*
X7012500Y-10850500D01*
X7012500Y-10921929D01*
X6998214Y-10979072D01*
X6983928Y-11007643D01*
X6969643Y-11021929D01*
X6941071Y-11036214D01*
X6912500Y-11036214D01*
X6883928Y-11021929D01*
X6869643Y-11007643D01*
X6855357Y-10979072D01*
X6841071Y-10921929D01*
X6841071Y-10850500D01*
X6855357Y-10793357D01*
X6869643Y-10764786D01*
X6883928Y-10750500D01*
X6912500Y-10736214D01*
X7126786Y-10736214D02*
X7126786Y-10793357D01*
X7241071Y-10736214D02*
X7241071Y-10793357D01*
X7683928Y-11150500D02*
X7669643Y-11136214D01*
X7641071Y-11093357D01*
X7626786Y-11064786D01*
X7612500Y-11021929D01*
X7598214Y-10950500D01*
X7598214Y-10893357D01*
X7612500Y-10821929D01*
X7626786Y-10779072D01*
X7641071Y-10750500D01*
X7669643Y-10707643D01*
X7683928Y-10693357D01*
X7841071Y-10864786D02*
X7812500Y-10850500D01*
X7798214Y-10836214D01*
X7783928Y-10807643D01*
X7783928Y-10793357D01*
X7798214Y-10764786D01*
X7812500Y-10750500D01*
X7841071Y-10736214D01*
X7898214Y-10736214D01*
X7926786Y-10750500D01*
X7941071Y-10764786D01*
X7955357Y-10793357D01*
X7955357Y-10807643D01*
X7941071Y-10836214D01*
X7926786Y-10850500D01*
X7898214Y-10864786D01*
X7841071Y-10864786D01*
X7812500Y-10879072D01*
X7798214Y-10893357D01*
X7783928Y-10921929D01*
X7783928Y-10979072D01*
X7798214Y-11007643D01*
X7812500Y-11021929D01*
X7841071Y-11036214D01*
X7898214Y-11036214D01*
X7926786Y-11021929D01*
X7941071Y-11007643D01*
X7955357Y-10979072D01*
X7955357Y-10921929D01*
X7941071Y-10893357D01*
X7926786Y-10879072D01*
X7898214Y-10864786D01*
X8312500Y-11036214D02*
X8312500Y-10736214D01*
X8441071Y-11036214D02*
X8441071Y-10879072D01*
X8426786Y-10850500D01*
X8398214Y-10836214D01*
X8355357Y-10836214D01*
X8326786Y-10850500D01*
X8312500Y-10864786D01*
X8626786Y-11036214D02*
X8598214Y-11021929D01*
X8583928Y-11007643D01*
X8569643Y-10979072D01*
X8569643Y-10893357D01*
X8583928Y-10864786D01*
X8598214Y-10850500D01*
X8626786Y-10836214D01*
X8669643Y-10836214D01*
X8698214Y-10850500D01*
X8712500Y-10864786D01*
X8726786Y-10893357D01*
X8726786Y-10979072D01*
X8712500Y-11007643D01*
X8698214Y-11021929D01*
X8669643Y-11036214D01*
X8626786Y-11036214D01*
X8898214Y-11036214D02*
X8869643Y-11021929D01*
X8855357Y-10993357D01*
X8855357Y-10736214D01*
X9126786Y-11021929D02*
X9098214Y-11036214D01*
X9041071Y-11036214D01*
X9012500Y-11021929D01*
X8998214Y-10993357D01*
X8998214Y-10879072D01*
X9012500Y-10850500D01*
X9041071Y-10836214D01*
X9098214Y-10836214D01*
X9126786Y-10850500D01*
X9141071Y-10879072D01*
X9141071Y-10907643D01*
X8998214Y-10936214D01*
X9255357Y-11021929D02*
X9283928Y-11036214D01*
X9341071Y-11036214D01*
X9369643Y-11021929D01*
X9383928Y-10993357D01*
X9383928Y-10979072D01*
X9369643Y-10950500D01*
X9341071Y-10936214D01*
X9298214Y-10936214D01*
X9269643Y-10921929D01*
X9255357Y-10893357D01*
X9255357Y-10879072D01*
X9269643Y-10850500D01*
X9298214Y-10836214D01*
X9341071Y-10836214D01*
X9369643Y-10850500D01*
X9483928Y-11150500D02*
X9498214Y-11136214D01*
X9526786Y-11093357D01*
X9541071Y-11064786D01*
X9555357Y-11021929D01*
X9569643Y-10950500D01*
X9569643Y-10893357D01*
X9555357Y-10821929D01*
X9541071Y-10779072D01*
X9526786Y-10750500D01*
X9498214Y-10707643D01*
X9483928Y-10693357D01*
X2957500Y-11336500D02*
X2997500Y-11296500D01*
X2957500Y-11256500D01*
X2917500Y-11296500D01*
X2957500Y-11336500D01*
X3341071Y-11132214D02*
X3369643Y-11132214D01*
X3398214Y-11146500D01*
X3412500Y-11160786D01*
X3426786Y-11189357D01*
X3441071Y-11246500D01*
X3441071Y-11317929D01*
X3426786Y-11375071D01*
X3412500Y-11403643D01*
X3398214Y-11417929D01*
X3369643Y-11432214D01*
X3341071Y-11432214D01*
X3312500Y-11417929D01*
X3298214Y-11403643D01*
X3283928Y-11375071D01*
X3269643Y-11317929D01*
X3269643Y-11246500D01*
X3283928Y-11189357D01*
X3298214Y-11160786D01*
X3312500Y-11146500D01*
X3341071Y-11132214D01*
X3569643Y-11403643D02*
X3583928Y-11417929D01*
X3569643Y-11432214D01*
X3555357Y-11417929D01*
X3569643Y-11403643D01*
X3569643Y-11432214D01*
X3755357Y-11260786D02*
X3726786Y-11246500D01*
X3712500Y-11232214D01*
X3698214Y-11203643D01*
X3698214Y-11189357D01*
X3712500Y-11160786D01*
X3726786Y-11146500D01*
X3755357Y-11132214D01*
X3812500Y-11132214D01*
X3841071Y-11146500D01*
X3855357Y-11160786D01*
X3869643Y-11189357D01*
X3869643Y-11203643D01*
X3855357Y-11232214D01*
X3841071Y-11246500D01*
X3812500Y-11260786D01*
X3755357Y-11260786D01*
X3726786Y-11275071D01*
X3712500Y-11289357D01*
X3698214Y-11317929D01*
X3698214Y-11375071D01*
X3712500Y-11403643D01*
X3726786Y-11417929D01*
X3755357Y-11432214D01*
X3812500Y-11432214D01*
X3841071Y-11417929D01*
X3855357Y-11403643D01*
X3869643Y-11375071D01*
X3869643Y-11317929D01*
X3855357Y-11289357D01*
X3841071Y-11275071D01*
X3812500Y-11260786D01*
X4055357Y-11132214D02*
X4083928Y-11132214D01*
X4112500Y-11146500D01*
X4126786Y-11160786D01*
X4141071Y-11189357D01*
X4155357Y-11246500D01*
X4155357Y-11317929D01*
X4141071Y-11375071D01*
X4126786Y-11403643D01*
X4112500Y-11417929D01*
X4083928Y-11432214D01*
X4055357Y-11432214D01*
X4026786Y-11417929D01*
X4012500Y-11403643D01*
X3998214Y-11375071D01*
X3983928Y-11317929D01*
X3983928Y-11246500D01*
X3998214Y-11189357D01*
X4012500Y-11160786D01*
X4026786Y-11146500D01*
X4055357Y-11132214D01*
X4283928Y-11432214D02*
X4283928Y-11232214D01*
X4283928Y-11260786D02*
X4298214Y-11246500D01*
X4326786Y-11232214D01*
X4369643Y-11232214D01*
X4398214Y-11246500D01*
X4412500Y-11275071D01*
X4412500Y-11432214D01*
X4412500Y-11275071D02*
X4426786Y-11246500D01*
X4455357Y-11232214D01*
X4498214Y-11232214D01*
X4526786Y-11246500D01*
X4541071Y-11275071D01*
X4541071Y-11432214D01*
X4683928Y-11432214D02*
X4683928Y-11232214D01*
X4683928Y-11260786D02*
X4698214Y-11246500D01*
X4726786Y-11232214D01*
X4769643Y-11232214D01*
X4798214Y-11246500D01*
X4812500Y-11275071D01*
X4812500Y-11432214D01*
X4812500Y-11275071D02*
X4826786Y-11246500D01*
X4855357Y-11232214D01*
X4898214Y-11232214D01*
X4926786Y-11246500D01*
X4941071Y-11275071D01*
X4941071Y-11432214D01*
X5526786Y-11117929D02*
X5269643Y-11503643D01*
X5912500Y-11132214D02*
X5941071Y-11132214D01*
X5969643Y-11146500D01*
X5983928Y-11160786D01*
X5998214Y-11189357D01*
X6012500Y-11246500D01*
X6012500Y-11317929D01*
X5998214Y-11375071D01*
X5983928Y-11403643D01*
X5969643Y-11417929D01*
X5941071Y-11432214D01*
X5912500Y-11432214D01*
X5883928Y-11417929D01*
X5869643Y-11403643D01*
X5855357Y-11375071D01*
X5841071Y-11317929D01*
X5841071Y-11246500D01*
X5855357Y-11189357D01*
X5869643Y-11160786D01*
X5883928Y-11146500D01*
X5912500Y-11132214D01*
X6141071Y-11403643D02*
X6155357Y-11417929D01*
X6141071Y-11432214D01*
X6126786Y-11417929D01*
X6141071Y-11403643D01*
X6141071Y-11432214D01*
X6341071Y-11132214D02*
X6369643Y-11132214D01*
X6398214Y-11146500D01*
X6412500Y-11160786D01*
X6426786Y-11189357D01*
X6441071Y-11246500D01*
X6441071Y-11317929D01*
X6426786Y-11375071D01*
X6412500Y-11403643D01*
X6398214Y-11417929D01*
X6369643Y-11432214D01*
X6341071Y-11432214D01*
X6312500Y-11417929D01*
X6298214Y-11403643D01*
X6283928Y-11375071D01*
X6269643Y-11317929D01*
X6269643Y-11246500D01*
X6283928Y-11189357D01*
X6298214Y-11160786D01*
X6312500Y-11146500D01*
X6341071Y-11132214D01*
X6541071Y-11132214D02*
X6726786Y-11132214D01*
X6626786Y-11246500D01*
X6669643Y-11246500D01*
X6698214Y-11260786D01*
X6712500Y-11275071D01*
X6726786Y-11303643D01*
X6726786Y-11375071D01*
X6712500Y-11403643D01*
X6698214Y-11417929D01*
X6669643Y-11432214D01*
X6583928Y-11432214D01*
X6555357Y-11417929D01*
X6541071Y-11403643D01*
X7012500Y-11432214D02*
X6841071Y-11432214D01*
X6926786Y-11432214D02*
X6926786Y-11132214D01*
X6898214Y-11175072D01*
X6869643Y-11203643D01*
X6841071Y-11217929D01*
X7126786Y-11132214D02*
X7126786Y-11189357D01*
X7241071Y-11132214D02*
X7241071Y-11189357D01*
X7683928Y-11546500D02*
X7669643Y-11532214D01*
X7641071Y-11489357D01*
X7626786Y-11460786D01*
X7612500Y-11417929D01*
X7598214Y-11346500D01*
X7598214Y-11289357D01*
X7612500Y-11217929D01*
X7626786Y-11175072D01*
X7641071Y-11146500D01*
X7669643Y-11103643D01*
X7683928Y-11089357D01*
X7926786Y-11132214D02*
X7869643Y-11132214D01*
X7841071Y-11146500D01*
X7826786Y-11160786D01*
X7798214Y-11203643D01*
X7783928Y-11260786D01*
X7783928Y-11375071D01*
X7798214Y-11403643D01*
X7812500Y-11417929D01*
X7841071Y-11432214D01*
X7898214Y-11432214D01*
X7926786Y-11417929D01*
X7941071Y-11403643D01*
X7955357Y-11375071D01*
X7955357Y-11303643D01*
X7941071Y-11275071D01*
X7926786Y-11260786D01*
X7898214Y-11246500D01*
X7841071Y-11246500D01*
X7812500Y-11260786D01*
X7798214Y-11275071D01*
X7783928Y-11303643D01*
X8312500Y-11432214D02*
X8312500Y-11132214D01*
X8441071Y-11432214D02*
X8441071Y-11275071D01*
X8426786Y-11246500D01*
X8398214Y-11232214D01*
X8355357Y-11232214D01*
X8326786Y-11246500D01*
X8312500Y-11260786D01*
X8626786Y-11432214D02*
X8598214Y-11417929D01*
X8583928Y-11403643D01*
X8569643Y-11375071D01*
X8569643Y-11289357D01*
X8583928Y-11260786D01*
X8598214Y-11246500D01*
X8626786Y-11232214D01*
X8669643Y-11232214D01*
X8698214Y-11246500D01*
X8712500Y-11260786D01*
X8726786Y-11289357D01*
X8726786Y-11375071D01*
X8712500Y-11403643D01*
X8698214Y-11417929D01*
X8669643Y-11432214D01*
X8626786Y-11432214D01*
X8898214Y-11432214D02*
X8869643Y-11417929D01*
X8855357Y-11389357D01*
X8855357Y-11132214D01*
X9126786Y-11417929D02*
X9098214Y-11432214D01*
X9041071Y-11432214D01*
X9012500Y-11417929D01*
X8998214Y-11389357D01*
X8998214Y-11275071D01*
X9012500Y-11246500D01*
X9041071Y-11232214D01*
X9098214Y-11232214D01*
X9126786Y-11246500D01*
X9141071Y-11275071D01*
X9141071Y-11303643D01*
X8998214Y-11332214D01*
X9255357Y-11417929D02*
X9283928Y-11432214D01*
X9341071Y-11432214D01*
X9369643Y-11417929D01*
X9383928Y-11389357D01*
X9383928Y-11375071D01*
X9369643Y-11346500D01*
X9341071Y-11332214D01*
X9298214Y-11332214D01*
X9269643Y-11317929D01*
X9255357Y-11289357D01*
X9255357Y-11275071D01*
X9269643Y-11246500D01*
X9298214Y-11232214D01*
X9341071Y-11232214D01*
X9369643Y-11246500D01*
X9483928Y-11546500D02*
X9498214Y-11532214D01*
X9526786Y-11489357D01*
X9541071Y-11460786D01*
X9555357Y-11417929D01*
X9569643Y-11346500D01*
X9569643Y-11289357D01*
X9555357Y-11217929D01*
X9541071Y-11175072D01*
X9526786Y-11146500D01*
X9498214Y-11103643D01*
X9483928Y-11089357D01*
X2907500Y-11647500D02*
X2997500Y-11737500D01*
X2997500Y-11647500D02*
X2907500Y-11737500D01*
X2997500Y-11692500D02*
G75*
G03*
X2997500Y-11692500I-45000J0D01*
G01*
X3341071Y-11528214D02*
X3369643Y-11528214D01*
X3398214Y-11542500D01*
X3412500Y-11556786D01*
X3426786Y-11585357D01*
X3441071Y-11642500D01*
X3441071Y-11713929D01*
X3426786Y-11771071D01*
X3412500Y-11799643D01*
X3398214Y-11813929D01*
X3369643Y-11828214D01*
X3341071Y-11828214D01*
X3312500Y-11813929D01*
X3298214Y-11799643D01*
X3283928Y-11771071D01*
X3269643Y-11713929D01*
X3269643Y-11642500D01*
X3283928Y-11585357D01*
X3298214Y-11556786D01*
X3312500Y-11542500D01*
X3341071Y-11528214D01*
X3569643Y-11799643D02*
X3583928Y-11813929D01*
X3569643Y-11828214D01*
X3555357Y-11813929D01*
X3569643Y-11799643D01*
X3569643Y-11828214D01*
X3726786Y-11828214D02*
X3783928Y-11828214D01*
X3812500Y-11813929D01*
X3826786Y-11799643D01*
X3855357Y-11756786D01*
X3869643Y-11699643D01*
X3869643Y-11585357D01*
X3855357Y-11556786D01*
X3841071Y-11542500D01*
X3812500Y-11528214D01*
X3755357Y-11528214D01*
X3726786Y-11542500D01*
X3712500Y-11556786D01*
X3698214Y-11585357D01*
X3698214Y-11656786D01*
X3712500Y-11685357D01*
X3726786Y-11699643D01*
X3755357Y-11713929D01*
X3812500Y-11713929D01*
X3841071Y-11699643D01*
X3855357Y-11685357D01*
X3869643Y-11656786D01*
X4055357Y-11528214D02*
X4083928Y-11528214D01*
X4112500Y-11542500D01*
X4126786Y-11556786D01*
X4141071Y-11585357D01*
X4155357Y-11642500D01*
X4155357Y-11713929D01*
X4141071Y-11771071D01*
X4126786Y-11799643D01*
X4112500Y-11813929D01*
X4083928Y-11828214D01*
X4055357Y-11828214D01*
X4026786Y-11813929D01*
X4012500Y-11799643D01*
X3998214Y-11771071D01*
X3983928Y-11713929D01*
X3983928Y-11642500D01*
X3998214Y-11585357D01*
X4012500Y-11556786D01*
X4026786Y-11542500D01*
X4055357Y-11528214D01*
X4283928Y-11828214D02*
X4283928Y-11628214D01*
X4283928Y-11656786D02*
X4298214Y-11642500D01*
X4326786Y-11628214D01*
X4369643Y-11628214D01*
X4398214Y-11642500D01*
X4412500Y-11671071D01*
X4412500Y-11828214D01*
X4412500Y-11671071D02*
X4426786Y-11642500D01*
X4455357Y-11628214D01*
X4498214Y-11628214D01*
X4526786Y-11642500D01*
X4541071Y-11671071D01*
X4541071Y-11828214D01*
X4683928Y-11828214D02*
X4683928Y-11628214D01*
X4683928Y-11656786D02*
X4698214Y-11642500D01*
X4726786Y-11628214D01*
X4769643Y-11628214D01*
X4798214Y-11642500D01*
X4812500Y-11671071D01*
X4812500Y-11828214D01*
X4812500Y-11671071D02*
X4826786Y-11642500D01*
X4855357Y-11628214D01*
X4898214Y-11628214D01*
X4926786Y-11642500D01*
X4941071Y-11671071D01*
X4941071Y-11828214D01*
X5526786Y-11513929D02*
X5269643Y-11899643D01*
X5912500Y-11528214D02*
X5941071Y-11528214D01*
X5969643Y-11542500D01*
X5983928Y-11556786D01*
X5998214Y-11585357D01*
X6012500Y-11642500D01*
X6012500Y-11713929D01*
X5998214Y-11771071D01*
X5983928Y-11799643D01*
X5969643Y-11813929D01*
X5941071Y-11828214D01*
X5912500Y-11828214D01*
X5883928Y-11813929D01*
X5869643Y-11799643D01*
X5855357Y-11771071D01*
X5841071Y-11713929D01*
X5841071Y-11642500D01*
X5855357Y-11585357D01*
X5869643Y-11556786D01*
X5883928Y-11542500D01*
X5912500Y-11528214D01*
X6141071Y-11799643D02*
X6155357Y-11813929D01*
X6141071Y-11828214D01*
X6126786Y-11813929D01*
X6141071Y-11799643D01*
X6141071Y-11828214D01*
X6341071Y-11528214D02*
X6369643Y-11528214D01*
X6398214Y-11542500D01*
X6412500Y-11556786D01*
X6426786Y-11585357D01*
X6441071Y-11642500D01*
X6441071Y-11713929D01*
X6426786Y-11771071D01*
X6412500Y-11799643D01*
X6398214Y-11813929D01*
X6369643Y-11828214D01*
X6341071Y-11828214D01*
X6312500Y-11813929D01*
X6298214Y-11799643D01*
X6283928Y-11771071D01*
X6269643Y-11713929D01*
X6269643Y-11642500D01*
X6283928Y-11585357D01*
X6298214Y-11556786D01*
X6312500Y-11542500D01*
X6341071Y-11528214D01*
X6541071Y-11528214D02*
X6726786Y-11528214D01*
X6626786Y-11642500D01*
X6669643Y-11642500D01*
X6698214Y-11656786D01*
X6712500Y-11671071D01*
X6726786Y-11699643D01*
X6726786Y-11771071D01*
X6712500Y-11799643D01*
X6698214Y-11813929D01*
X6669643Y-11828214D01*
X6583928Y-11828214D01*
X6555357Y-11813929D01*
X6541071Y-11799643D01*
X6998214Y-11528214D02*
X6855357Y-11528214D01*
X6841071Y-11671071D01*
X6855357Y-11656786D01*
X6883928Y-11642500D01*
X6955357Y-11642500D01*
X6983928Y-11656786D01*
X6998214Y-11671071D01*
X7012500Y-11699643D01*
X7012500Y-11771071D01*
X6998214Y-11799643D01*
X6983928Y-11813929D01*
X6955357Y-11828214D01*
X6883928Y-11828214D01*
X6855357Y-11813929D01*
X6841071Y-11799643D01*
X7126786Y-11528214D02*
X7126786Y-11585357D01*
X7241071Y-11528214D02*
X7241071Y-11585357D01*
X7683928Y-11942500D02*
X7669643Y-11928214D01*
X7641071Y-11885357D01*
X7626786Y-11856786D01*
X7612500Y-11813929D01*
X7598214Y-11742500D01*
X7598214Y-11685357D01*
X7612500Y-11613929D01*
X7626786Y-11571071D01*
X7641071Y-11542500D01*
X7669643Y-11499643D01*
X7683928Y-11485357D01*
X7783928Y-11556786D02*
X7798214Y-11542500D01*
X7826786Y-11528214D01*
X7898214Y-11528214D01*
X7926786Y-11542500D01*
X7941071Y-11556786D01*
X7955357Y-11585357D01*
X7955357Y-11613929D01*
X7941071Y-11656786D01*
X7769643Y-11828214D01*
X7955357Y-11828214D01*
X8312500Y-11828214D02*
X8312500Y-11528214D01*
X8441071Y-11828214D02*
X8441071Y-11671071D01*
X8426786Y-11642500D01*
X8398214Y-11628214D01*
X8355357Y-11628214D01*
X8326786Y-11642500D01*
X8312500Y-11656786D01*
X8626786Y-11828214D02*
X8598214Y-11813929D01*
X8583928Y-11799643D01*
X8569643Y-11771071D01*
X8569643Y-11685357D01*
X8583928Y-11656786D01*
X8598214Y-11642500D01*
X8626786Y-11628214D01*
X8669643Y-11628214D01*
X8698214Y-11642500D01*
X8712500Y-11656786D01*
X8726786Y-11685357D01*
X8726786Y-11771071D01*
X8712500Y-11799643D01*
X8698214Y-11813929D01*
X8669643Y-11828214D01*
X8626786Y-11828214D01*
X8898214Y-11828214D02*
X8869643Y-11813929D01*
X8855357Y-11785357D01*
X8855357Y-11528214D01*
X9126786Y-11813929D02*
X9098214Y-11828214D01*
X9041071Y-11828214D01*
X9012500Y-11813929D01*
X8998214Y-11785357D01*
X8998214Y-11671071D01*
X9012500Y-11642500D01*
X9041071Y-11628214D01*
X9098214Y-11628214D01*
X9126786Y-11642500D01*
X9141071Y-11671071D01*
X9141071Y-11699643D01*
X8998214Y-11728214D01*
X9255357Y-11813929D02*
X9283928Y-11828214D01*
X9341071Y-11828214D01*
X9369643Y-11813929D01*
X9383928Y-11785357D01*
X9383928Y-11771071D01*
X9369643Y-11742500D01*
X9341071Y-11728214D01*
X9298214Y-11728214D01*
X9269643Y-11713929D01*
X9255357Y-11685357D01*
X9255357Y-11671071D01*
X9269643Y-11642500D01*
X9298214Y-11628214D01*
X9341071Y-11628214D01*
X9369643Y-11642500D01*
X9483928Y-11942500D02*
X9498214Y-11928214D01*
X9526786Y-11885357D01*
X9541071Y-11856786D01*
X9555357Y-11813929D01*
X9569643Y-11742500D01*
X9569643Y-11685357D01*
X9555357Y-11613929D01*
X9541071Y-11571071D01*
X9526786Y-11542500D01*
X9498214Y-11499643D01*
X9483928Y-11485357D01*
X2897500Y-12038500D02*
X2997500Y-12138500D01*
X2997500Y-12038500D02*
X2897500Y-12138500D01*
X2947500Y-12038500D02*
X2947500Y-12138500D01*
X2897500Y-12088500D02*
X2997500Y-12088500D01*
X3441071Y-12224214D02*
X3269643Y-12224214D01*
X3355357Y-12224214D02*
X3355357Y-11924214D01*
X3326786Y-11967071D01*
X3298214Y-11995643D01*
X3269643Y-12009929D01*
X3569643Y-12195643D02*
X3583928Y-12209929D01*
X3569643Y-12224214D01*
X3555357Y-12209929D01*
X3569643Y-12195643D01*
X3569643Y-12224214D01*
X3769643Y-11924214D02*
X3798214Y-11924214D01*
X3826786Y-11938500D01*
X3841071Y-11952786D01*
X3855357Y-11981357D01*
X3869643Y-12038500D01*
X3869643Y-12109929D01*
X3855357Y-12167071D01*
X3841071Y-12195643D01*
X3826786Y-12209929D01*
X3798214Y-12224214D01*
X3769643Y-12224214D01*
X3741071Y-12209929D01*
X3726786Y-12195643D01*
X3712500Y-12167071D01*
X3698214Y-12109929D01*
X3698214Y-12038500D01*
X3712500Y-11981357D01*
X3726786Y-11952786D01*
X3741071Y-11938500D01*
X3769643Y-11924214D01*
X4055357Y-11924214D02*
X4083928Y-11924214D01*
X4112500Y-11938500D01*
X4126786Y-11952786D01*
X4141071Y-11981357D01*
X4155357Y-12038500D01*
X4155357Y-12109929D01*
X4141071Y-12167071D01*
X4126786Y-12195643D01*
X4112500Y-12209929D01*
X4083928Y-12224214D01*
X4055357Y-12224214D01*
X4026786Y-12209929D01*
X4012500Y-12195643D01*
X3998214Y-12167071D01*
X3983928Y-12109929D01*
X3983928Y-12038500D01*
X3998214Y-11981357D01*
X4012500Y-11952786D01*
X4026786Y-11938500D01*
X4055357Y-11924214D01*
X4283928Y-12224214D02*
X4283928Y-12024214D01*
X4283928Y-12052786D02*
X4298214Y-12038500D01*
X4326786Y-12024214D01*
X4369643Y-12024214D01*
X4398214Y-12038500D01*
X4412500Y-12067071D01*
X4412500Y-12224214D01*
X4412500Y-12067071D02*
X4426786Y-12038500D01*
X4455357Y-12024214D01*
X4498214Y-12024214D01*
X4526786Y-12038500D01*
X4541071Y-12067071D01*
X4541071Y-12224214D01*
X4683928Y-12224214D02*
X4683928Y-12024214D01*
X4683928Y-12052786D02*
X4698214Y-12038500D01*
X4726786Y-12024214D01*
X4769643Y-12024214D01*
X4798214Y-12038500D01*
X4812500Y-12067071D01*
X4812500Y-12224214D01*
X4812500Y-12067071D02*
X4826786Y-12038500D01*
X4855357Y-12024214D01*
X4898214Y-12024214D01*
X4926786Y-12038500D01*
X4941071Y-12067071D01*
X4941071Y-12224214D01*
X5526786Y-11909929D02*
X5269643Y-12295643D01*
X5912500Y-11924214D02*
X5941071Y-11924214D01*
X5969643Y-11938500D01*
X5983928Y-11952786D01*
X5998214Y-11981357D01*
X6012500Y-12038500D01*
X6012500Y-12109929D01*
X5998214Y-12167071D01*
X5983928Y-12195643D01*
X5969643Y-12209929D01*
X5941071Y-12224214D01*
X5912500Y-12224214D01*
X5883928Y-12209929D01*
X5869643Y-12195643D01*
X5855357Y-12167071D01*
X5841071Y-12109929D01*
X5841071Y-12038500D01*
X5855357Y-11981357D01*
X5869643Y-11952786D01*
X5883928Y-11938500D01*
X5912500Y-11924214D01*
X6141071Y-12195643D02*
X6155357Y-12209929D01*
X6141071Y-12224214D01*
X6126786Y-12209929D01*
X6141071Y-12195643D01*
X6141071Y-12224214D01*
X6341071Y-11924214D02*
X6369643Y-11924214D01*
X6398214Y-11938500D01*
X6412500Y-11952786D01*
X6426786Y-11981357D01*
X6441071Y-12038500D01*
X6441071Y-12109929D01*
X6426786Y-12167071D01*
X6412500Y-12195643D01*
X6398214Y-12209929D01*
X6369643Y-12224214D01*
X6341071Y-12224214D01*
X6312500Y-12209929D01*
X6298214Y-12195643D01*
X6283928Y-12167071D01*
X6269643Y-12109929D01*
X6269643Y-12038500D01*
X6283928Y-11981357D01*
X6298214Y-11952786D01*
X6312500Y-11938500D01*
X6341071Y-11924214D01*
X6541071Y-11924214D02*
X6726786Y-11924214D01*
X6626786Y-12038500D01*
X6669643Y-12038500D01*
X6698214Y-12052786D01*
X6712500Y-12067071D01*
X6726786Y-12095643D01*
X6726786Y-12167071D01*
X6712500Y-12195643D01*
X6698214Y-12209929D01*
X6669643Y-12224214D01*
X6583928Y-12224214D01*
X6555357Y-12209929D01*
X6541071Y-12195643D01*
X6869643Y-12224214D02*
X6926786Y-12224214D01*
X6955357Y-12209929D01*
X6969643Y-12195643D01*
X6998214Y-12152786D01*
X7012500Y-12095643D01*
X7012500Y-11981357D01*
X6998214Y-11952786D01*
X6983928Y-11938500D01*
X6955357Y-11924214D01*
X6898214Y-11924214D01*
X6869643Y-11938500D01*
X6855357Y-11952786D01*
X6841071Y-11981357D01*
X6841071Y-12052786D01*
X6855357Y-12081357D01*
X6869643Y-12095643D01*
X6898214Y-12109929D01*
X6955357Y-12109929D01*
X6983928Y-12095643D01*
X6998214Y-12081357D01*
X7012500Y-12052786D01*
X7126786Y-11924214D02*
X7126786Y-11981357D01*
X7241071Y-11924214D02*
X7241071Y-11981357D01*
X7683928Y-12338500D02*
X7669643Y-12324214D01*
X7641071Y-12281357D01*
X7626786Y-12252786D01*
X7612500Y-12209929D01*
X7598214Y-12138500D01*
X7598214Y-12081357D01*
X7612500Y-12009929D01*
X7626786Y-11967071D01*
X7641071Y-11938500D01*
X7669643Y-11895643D01*
X7683928Y-11881357D01*
X7783928Y-11952786D02*
X7798214Y-11938500D01*
X7826786Y-11924214D01*
X7898214Y-11924214D01*
X7926786Y-11938500D01*
X7941071Y-11952786D01*
X7955357Y-11981357D01*
X7955357Y-12009929D01*
X7941071Y-12052786D01*
X7769643Y-12224214D01*
X7955357Y-12224214D01*
X8141071Y-11924214D02*
X8169643Y-11924214D01*
X8198214Y-11938500D01*
X8212500Y-11952786D01*
X8226786Y-11981357D01*
X8241071Y-12038500D01*
X8241071Y-12109929D01*
X8226786Y-12167071D01*
X8212500Y-12195643D01*
X8198214Y-12209929D01*
X8169643Y-12224214D01*
X8141071Y-12224214D01*
X8112500Y-12209929D01*
X8098214Y-12195643D01*
X8083928Y-12167071D01*
X8069643Y-12109929D01*
X8069643Y-12038500D01*
X8083928Y-11981357D01*
X8098214Y-11952786D01*
X8112500Y-11938500D01*
X8141071Y-11924214D01*
X8598214Y-12224214D02*
X8598214Y-11924214D01*
X8726786Y-12224214D02*
X8726786Y-12067071D01*
X8712500Y-12038500D01*
X8683928Y-12024214D01*
X8641071Y-12024214D01*
X8612500Y-12038500D01*
X8598214Y-12052786D01*
X8912500Y-12224214D02*
X8883928Y-12209929D01*
X8869643Y-12195643D01*
X8855357Y-12167071D01*
X8855357Y-12081357D01*
X8869643Y-12052786D01*
X8883928Y-12038500D01*
X8912500Y-12024214D01*
X8955357Y-12024214D01*
X8983928Y-12038500D01*
X8998214Y-12052786D01*
X9012500Y-12081357D01*
X9012500Y-12167071D01*
X8998214Y-12195643D01*
X8983928Y-12209929D01*
X8955357Y-12224214D01*
X8912500Y-12224214D01*
X9183928Y-12224214D02*
X9155357Y-12209929D01*
X9141071Y-12181357D01*
X9141071Y-11924214D01*
X9412500Y-12209929D02*
X9383928Y-12224214D01*
X9326786Y-12224214D01*
X9298214Y-12209929D01*
X9283928Y-12181357D01*
X9283928Y-12067071D01*
X9298214Y-12038500D01*
X9326786Y-12024214D01*
X9383928Y-12024214D01*
X9412500Y-12038500D01*
X9426786Y-12067071D01*
X9426786Y-12095643D01*
X9283928Y-12124214D01*
X9541071Y-12209929D02*
X9569643Y-12224214D01*
X9626786Y-12224214D01*
X9655357Y-12209929D01*
X9669643Y-12181357D01*
X9669643Y-12167071D01*
X9655357Y-12138500D01*
X9626786Y-12124214D01*
X9583928Y-12124214D01*
X9555357Y-12109929D01*
X9541071Y-12081357D01*
X9541071Y-12067071D01*
X9555357Y-12038500D01*
X9583928Y-12024214D01*
X9626786Y-12024214D01*
X9655357Y-12038500D01*
X10026786Y-12109929D02*
X10255357Y-12109929D01*
X10141071Y-12224214D02*
X10141071Y-11995643D01*
X10783928Y-12224214D02*
X10612500Y-12224214D01*
X10698214Y-12224214D02*
X10698214Y-11924214D01*
X10669643Y-11967071D01*
X10641071Y-11995643D01*
X10612500Y-12009929D01*
X11126786Y-12209929D02*
X11155357Y-12224214D01*
X11212500Y-12224214D01*
X11241071Y-12209929D01*
X11255357Y-12181357D01*
X11255357Y-12167071D01*
X11241071Y-12138500D01*
X11212500Y-12124214D01*
X11169643Y-12124214D01*
X11141071Y-12109929D01*
X11126786Y-12081357D01*
X11126786Y-12067071D01*
X11141071Y-12038500D01*
X11169643Y-12024214D01*
X11212500Y-12024214D01*
X11241071Y-12038500D01*
X11426786Y-12224214D02*
X11398214Y-12209929D01*
X11383928Y-12181357D01*
X11383928Y-11924214D01*
X11583928Y-12224214D02*
X11555357Y-12209929D01*
X11541071Y-12195643D01*
X11526786Y-12167071D01*
X11526786Y-12081357D01*
X11541071Y-12052786D01*
X11555357Y-12038500D01*
X11583928Y-12024214D01*
X11626786Y-12024214D01*
X11655357Y-12038500D01*
X11669643Y-12052786D01*
X11683928Y-12081357D01*
X11683928Y-12167071D01*
X11669643Y-12195643D01*
X11655357Y-12209929D01*
X11626786Y-12224214D01*
X11583928Y-12224214D01*
X11769643Y-12024214D02*
X11883928Y-12024214D01*
X11812500Y-11924214D02*
X11812500Y-12181357D01*
X11826786Y-12209929D01*
X11855357Y-12224214D01*
X11883928Y-12224214D01*
X11955357Y-12338500D02*
X11969643Y-12324214D01*
X11998214Y-12281357D01*
X12012500Y-12252786D01*
X12026786Y-12209929D01*
X12041071Y-12138500D01*
X12041071Y-12081357D01*
X12026786Y-12009929D01*
X12012500Y-11967071D01*
X11998214Y-11938500D01*
X11969643Y-11895643D01*
X11955357Y-11881357D01*
X2888280Y-12429890D02*
X2997500Y-12539110D01*
X2997500Y-12429890D02*
X2888280Y-12539110D01*
X2981505Y-12523116D02*
X2981505Y-12445885D01*
X2904274Y-12445885D01*
X2904274Y-12523116D01*
X2981505Y-12523116D01*
X3441071Y-12620214D02*
X3269643Y-12620214D01*
X3355357Y-12620214D02*
X3355357Y-12320214D01*
X3326786Y-12363071D01*
X3298214Y-12391643D01*
X3269643Y-12405929D01*
X3569643Y-12591643D02*
X3583928Y-12605929D01*
X3569643Y-12620214D01*
X3555357Y-12605929D01*
X3569643Y-12591643D01*
X3569643Y-12620214D01*
X3769643Y-12320214D02*
X3798214Y-12320214D01*
X3826786Y-12334500D01*
X3841071Y-12348786D01*
X3855357Y-12377357D01*
X3869643Y-12434500D01*
X3869643Y-12505929D01*
X3855357Y-12563071D01*
X3841071Y-12591643D01*
X3826786Y-12605929D01*
X3798214Y-12620214D01*
X3769643Y-12620214D01*
X3741071Y-12605929D01*
X3726786Y-12591643D01*
X3712500Y-12563071D01*
X3698214Y-12505929D01*
X3698214Y-12434500D01*
X3712500Y-12377357D01*
X3726786Y-12348786D01*
X3741071Y-12334500D01*
X3769643Y-12320214D01*
X4012500Y-12620214D02*
X4069643Y-12620214D01*
X4098214Y-12605929D01*
X4112500Y-12591643D01*
X4141071Y-12548786D01*
X4155357Y-12491643D01*
X4155357Y-12377357D01*
X4141071Y-12348786D01*
X4126786Y-12334500D01*
X4098214Y-12320214D01*
X4041071Y-12320214D01*
X4012500Y-12334500D01*
X3998214Y-12348786D01*
X3983928Y-12377357D01*
X3983928Y-12448786D01*
X3998214Y-12477357D01*
X4012500Y-12491643D01*
X4041071Y-12505929D01*
X4098214Y-12505929D01*
X4126786Y-12491643D01*
X4141071Y-12477357D01*
X4155357Y-12448786D01*
X4283928Y-12620214D02*
X4283928Y-12420214D01*
X4283928Y-12448786D02*
X4298214Y-12434500D01*
X4326786Y-12420214D01*
X4369643Y-12420214D01*
X4398214Y-12434500D01*
X4412500Y-12463071D01*
X4412500Y-12620214D01*
X4412500Y-12463071D02*
X4426786Y-12434500D01*
X4455357Y-12420214D01*
X4498214Y-12420214D01*
X4526786Y-12434500D01*
X4541071Y-12463071D01*
X4541071Y-12620214D01*
X4683928Y-12620214D02*
X4683928Y-12420214D01*
X4683928Y-12448786D02*
X4698214Y-12434500D01*
X4726786Y-12420214D01*
X4769643Y-12420214D01*
X4798214Y-12434500D01*
X4812500Y-12463071D01*
X4812500Y-12620214D01*
X4812500Y-12463071D02*
X4826786Y-12434500D01*
X4855357Y-12420214D01*
X4898214Y-12420214D01*
X4926786Y-12434500D01*
X4941071Y-12463071D01*
X4941071Y-12620214D01*
X5526786Y-12305929D02*
X5269643Y-12691643D01*
X5912500Y-12320214D02*
X5941071Y-12320214D01*
X5969643Y-12334500D01*
X5983928Y-12348786D01*
X5998214Y-12377357D01*
X6012500Y-12434500D01*
X6012500Y-12505929D01*
X5998214Y-12563071D01*
X5983928Y-12591643D01*
X5969643Y-12605929D01*
X5941071Y-12620214D01*
X5912500Y-12620214D01*
X5883928Y-12605929D01*
X5869643Y-12591643D01*
X5855357Y-12563071D01*
X5841071Y-12505929D01*
X5841071Y-12434500D01*
X5855357Y-12377357D01*
X5869643Y-12348786D01*
X5883928Y-12334500D01*
X5912500Y-12320214D01*
X6141071Y-12591643D02*
X6155357Y-12605929D01*
X6141071Y-12620214D01*
X6126786Y-12605929D01*
X6141071Y-12591643D01*
X6141071Y-12620214D01*
X6341071Y-12320214D02*
X6369643Y-12320214D01*
X6398214Y-12334500D01*
X6412500Y-12348786D01*
X6426786Y-12377357D01*
X6441071Y-12434500D01*
X6441071Y-12505929D01*
X6426786Y-12563071D01*
X6412500Y-12591643D01*
X6398214Y-12605929D01*
X6369643Y-12620214D01*
X6341071Y-12620214D01*
X6312500Y-12605929D01*
X6298214Y-12591643D01*
X6283928Y-12563071D01*
X6269643Y-12505929D01*
X6269643Y-12434500D01*
X6283928Y-12377357D01*
X6298214Y-12348786D01*
X6312500Y-12334500D01*
X6341071Y-12320214D01*
X6698214Y-12420214D02*
X6698214Y-12620214D01*
X6626786Y-12305929D02*
X6555357Y-12520214D01*
X6741071Y-12520214D01*
X6826786Y-12320214D02*
X7012500Y-12320214D01*
X6912500Y-12434500D01*
X6955357Y-12434500D01*
X6983928Y-12448786D01*
X6998214Y-12463071D01*
X7012500Y-12491643D01*
X7012500Y-12563071D01*
X6998214Y-12591643D01*
X6983928Y-12605929D01*
X6955357Y-12620214D01*
X6869643Y-12620214D01*
X6841071Y-12605929D01*
X6826786Y-12591643D01*
X7126786Y-12320214D02*
X7126786Y-12377357D01*
X7241071Y-12320214D02*
X7241071Y-12377357D01*
X7683928Y-12734500D02*
X7669643Y-12720214D01*
X7641071Y-12677357D01*
X7626786Y-12648786D01*
X7612500Y-12605929D01*
X7598214Y-12534500D01*
X7598214Y-12477357D01*
X7612500Y-12405929D01*
X7626786Y-12363071D01*
X7641071Y-12334500D01*
X7669643Y-12291643D01*
X7683928Y-12277357D01*
X7783928Y-12348786D02*
X7798214Y-12334500D01*
X7826786Y-12320214D01*
X7898214Y-12320214D01*
X7926786Y-12334500D01*
X7941071Y-12348786D01*
X7955357Y-12377357D01*
X7955357Y-12405929D01*
X7941071Y-12448786D01*
X7769643Y-12620214D01*
X7955357Y-12620214D01*
X8312500Y-12620214D02*
X8312500Y-12320214D01*
X8441071Y-12620214D02*
X8441071Y-12463071D01*
X8426786Y-12434500D01*
X8398214Y-12420214D01*
X8355357Y-12420214D01*
X8326786Y-12434500D01*
X8312500Y-12448786D01*
X8626786Y-12620214D02*
X8598214Y-12605929D01*
X8583928Y-12591643D01*
X8569643Y-12563071D01*
X8569643Y-12477357D01*
X8583928Y-12448786D01*
X8598214Y-12434500D01*
X8626786Y-12420214D01*
X8669643Y-12420214D01*
X8698214Y-12434500D01*
X8712500Y-12448786D01*
X8726786Y-12477357D01*
X8726786Y-12563071D01*
X8712500Y-12591643D01*
X8698214Y-12605929D01*
X8669643Y-12620214D01*
X8626786Y-12620214D01*
X8898214Y-12620214D02*
X8869643Y-12605929D01*
X8855357Y-12577357D01*
X8855357Y-12320214D01*
X9126786Y-12605929D02*
X9098214Y-12620214D01*
X9041071Y-12620214D01*
X9012500Y-12605929D01*
X8998214Y-12577357D01*
X8998214Y-12463071D01*
X9012500Y-12434500D01*
X9041071Y-12420214D01*
X9098214Y-12420214D01*
X9126786Y-12434500D01*
X9141071Y-12463071D01*
X9141071Y-12491643D01*
X8998214Y-12520214D01*
X9255357Y-12605929D02*
X9283928Y-12620214D01*
X9341071Y-12620214D01*
X9369643Y-12605929D01*
X9383928Y-12577357D01*
X9383928Y-12563071D01*
X9369643Y-12534500D01*
X9341071Y-12520214D01*
X9298214Y-12520214D01*
X9269643Y-12505929D01*
X9255357Y-12477357D01*
X9255357Y-12463071D01*
X9269643Y-12434500D01*
X9298214Y-12420214D01*
X9341071Y-12420214D01*
X9369643Y-12434500D01*
X9483928Y-12734500D02*
X9498214Y-12720214D01*
X9526786Y-12677357D01*
X9541071Y-12648786D01*
X9555357Y-12605929D01*
X9569643Y-12534500D01*
X9569643Y-12477357D01*
X9555357Y-12405929D01*
X9541071Y-12363071D01*
X9526786Y-12334500D01*
X9498214Y-12291643D01*
X9483928Y-12277357D01*
X2878500Y-12821000D02*
X2997500Y-12940000D01*
X2997500Y-12821000D02*
X2878500Y-12940000D01*
X2938000Y-12940000D02*
X2997500Y-12880500D01*
X2938000Y-12821000D01*
X2878500Y-12880500D01*
X2938000Y-12940000D01*
X3441071Y-13016214D02*
X3269643Y-13016214D01*
X3355357Y-13016214D02*
X3355357Y-12716214D01*
X3326786Y-12759071D01*
X3298214Y-12787643D01*
X3269643Y-12801929D01*
X3569643Y-12987643D02*
X3583928Y-13001929D01*
X3569643Y-13016214D01*
X3555357Y-13001929D01*
X3569643Y-12987643D01*
X3569643Y-13016214D01*
X3869643Y-13016214D02*
X3698214Y-13016214D01*
X3783928Y-13016214D02*
X3783928Y-12716214D01*
X3755357Y-12759071D01*
X3726786Y-12787643D01*
X3698214Y-12801929D01*
X4012500Y-13016214D02*
X4069643Y-13016214D01*
X4098214Y-13001929D01*
X4112500Y-12987643D01*
X4141071Y-12944786D01*
X4155357Y-12887643D01*
X4155357Y-12773357D01*
X4141071Y-12744786D01*
X4126786Y-12730500D01*
X4098214Y-12716214D01*
X4041071Y-12716214D01*
X4012500Y-12730500D01*
X3998214Y-12744786D01*
X3983928Y-12773357D01*
X3983928Y-12844786D01*
X3998214Y-12873357D01*
X4012500Y-12887643D01*
X4041071Y-12901929D01*
X4098214Y-12901929D01*
X4126786Y-12887643D01*
X4141071Y-12873357D01*
X4155357Y-12844786D01*
X4283928Y-13016214D02*
X4283928Y-12816214D01*
X4283928Y-12844786D02*
X4298214Y-12830500D01*
X4326786Y-12816214D01*
X4369643Y-12816214D01*
X4398214Y-12830500D01*
X4412500Y-12859071D01*
X4412500Y-13016214D01*
X4412500Y-12859071D02*
X4426786Y-12830500D01*
X4455357Y-12816214D01*
X4498214Y-12816214D01*
X4526786Y-12830500D01*
X4541071Y-12859071D01*
X4541071Y-13016214D01*
X4683928Y-13016214D02*
X4683928Y-12816214D01*
X4683928Y-12844786D02*
X4698214Y-12830500D01*
X4726786Y-12816214D01*
X4769643Y-12816214D01*
X4798214Y-12830500D01*
X4812500Y-12859071D01*
X4812500Y-13016214D01*
X4812500Y-12859071D02*
X4826786Y-12830500D01*
X4855357Y-12816214D01*
X4898214Y-12816214D01*
X4926786Y-12830500D01*
X4941071Y-12859071D01*
X4941071Y-13016214D01*
X5526786Y-12701929D02*
X5269643Y-13087643D01*
X5912500Y-12716214D02*
X5941071Y-12716214D01*
X5969643Y-12730500D01*
X5983928Y-12744786D01*
X5998214Y-12773357D01*
X6012500Y-12830500D01*
X6012500Y-12901929D01*
X5998214Y-12959071D01*
X5983928Y-12987643D01*
X5969643Y-13001929D01*
X5941071Y-13016214D01*
X5912500Y-13016214D01*
X5883928Y-13001929D01*
X5869643Y-12987643D01*
X5855357Y-12959071D01*
X5841071Y-12901929D01*
X5841071Y-12830500D01*
X5855357Y-12773357D01*
X5869643Y-12744786D01*
X5883928Y-12730500D01*
X5912500Y-12716214D01*
X6141071Y-12987643D02*
X6155357Y-13001929D01*
X6141071Y-13016214D01*
X6126786Y-13001929D01*
X6141071Y-12987643D01*
X6141071Y-13016214D01*
X6341071Y-12716214D02*
X6369643Y-12716214D01*
X6398214Y-12730500D01*
X6412500Y-12744786D01*
X6426786Y-12773357D01*
X6441071Y-12830500D01*
X6441071Y-12901929D01*
X6426786Y-12959071D01*
X6412500Y-12987643D01*
X6398214Y-13001929D01*
X6369643Y-13016214D01*
X6341071Y-13016214D01*
X6312500Y-13001929D01*
X6298214Y-12987643D01*
X6283928Y-12959071D01*
X6269643Y-12901929D01*
X6269643Y-12830500D01*
X6283928Y-12773357D01*
X6298214Y-12744786D01*
X6312500Y-12730500D01*
X6341071Y-12716214D01*
X6698214Y-12816214D02*
X6698214Y-13016214D01*
X6626786Y-12701929D02*
X6555357Y-12916214D01*
X6741071Y-12916214D01*
X6826786Y-12716214D02*
X7026786Y-12716214D01*
X6898214Y-13016214D01*
X7126786Y-12716214D02*
X7126786Y-12773357D01*
X7241071Y-12716214D02*
X7241071Y-12773357D01*
X7683928Y-13130500D02*
X7669643Y-13116214D01*
X7641071Y-13073357D01*
X7626786Y-13044786D01*
X7612500Y-13001929D01*
X7598214Y-12930500D01*
X7598214Y-12873357D01*
X7612500Y-12801929D01*
X7626786Y-12759071D01*
X7641071Y-12730500D01*
X7669643Y-12687643D01*
X7683928Y-12673357D01*
X7926786Y-12816214D02*
X7926786Y-13016214D01*
X7855357Y-12701929D02*
X7783928Y-12916214D01*
X7969643Y-12916214D01*
X8312500Y-13016214D02*
X8312500Y-12716214D01*
X8441071Y-13016214D02*
X8441071Y-12859071D01*
X8426786Y-12830500D01*
X8398214Y-12816214D01*
X8355357Y-12816214D01*
X8326786Y-12830500D01*
X8312500Y-12844786D01*
X8626786Y-13016214D02*
X8598214Y-13001929D01*
X8583928Y-12987643D01*
X8569643Y-12959071D01*
X8569643Y-12873357D01*
X8583928Y-12844786D01*
X8598214Y-12830500D01*
X8626786Y-12816214D01*
X8669643Y-12816214D01*
X8698214Y-12830500D01*
X8712500Y-12844786D01*
X8726786Y-12873357D01*
X8726786Y-12959071D01*
X8712500Y-12987643D01*
X8698214Y-13001929D01*
X8669643Y-13016214D01*
X8626786Y-13016214D01*
X8898214Y-13016214D02*
X8869643Y-13001929D01*
X8855357Y-12973357D01*
X8855357Y-12716214D01*
X9126786Y-13001929D02*
X9098214Y-13016214D01*
X9041071Y-13016214D01*
X9012500Y-13001929D01*
X8998214Y-12973357D01*
X8998214Y-12859071D01*
X9012500Y-12830500D01*
X9041071Y-12816214D01*
X9098214Y-12816214D01*
X9126786Y-12830500D01*
X9141071Y-12859071D01*
X9141071Y-12887643D01*
X8998214Y-12916214D01*
X9255357Y-13001929D02*
X9283928Y-13016214D01*
X9341071Y-13016214D01*
X9369643Y-13001929D01*
X9383928Y-12973357D01*
X9383928Y-12959071D01*
X9369643Y-12930500D01*
X9341071Y-12916214D01*
X9298214Y-12916214D01*
X9269643Y-12901929D01*
X9255357Y-12873357D01*
X9255357Y-12859071D01*
X9269643Y-12830500D01*
X9298214Y-12816214D01*
X9341071Y-12816214D01*
X9369643Y-12830500D01*
X9483928Y-13130500D02*
X9498214Y-13116214D01*
X9526786Y-13073357D01*
X9541071Y-13044786D01*
X9555357Y-13001929D01*
X9569643Y-12930500D01*
X9569643Y-12873357D01*
X9555357Y-12801929D01*
X9541071Y-12759071D01*
X9526786Y-12730500D01*
X9498214Y-12687643D01*
X9483928Y-12673357D01*
X2927500Y-13206500D02*
X2927500Y-13346500D01*
X2857500Y-13276500D02*
X2997500Y-13276500D01*
X2997500Y-13276500D02*
G75*
G03*
X2997500Y-13276500I-70000J0D01*
G01*
X3441071Y-13412214D02*
X3269643Y-13412214D01*
X3355357Y-13412214D02*
X3355357Y-13112214D01*
X3326786Y-13155071D01*
X3298214Y-13183643D01*
X3269643Y-13197929D01*
X3569643Y-13383643D02*
X3583928Y-13397929D01*
X3569643Y-13412214D01*
X3555357Y-13397929D01*
X3569643Y-13383643D01*
X3569643Y-13412214D01*
X3841071Y-13212214D02*
X3841071Y-13412214D01*
X3769643Y-13097929D02*
X3698214Y-13312214D01*
X3883928Y-13312214D01*
X4055357Y-13112214D02*
X4083928Y-13112214D01*
X4112500Y-13126500D01*
X4126786Y-13140786D01*
X4141071Y-13169357D01*
X4155357Y-13226500D01*
X4155357Y-13297929D01*
X4141071Y-13355071D01*
X4126786Y-13383643D01*
X4112500Y-13397929D01*
X4083928Y-13412214D01*
X4055357Y-13412214D01*
X4026786Y-13397929D01*
X4012500Y-13383643D01*
X3998214Y-13355071D01*
X3983928Y-13297929D01*
X3983928Y-13226500D01*
X3998214Y-13169357D01*
X4012500Y-13140786D01*
X4026786Y-13126500D01*
X4055357Y-13112214D01*
X4283928Y-13412214D02*
X4283928Y-13212214D01*
X4283928Y-13240786D02*
X4298214Y-13226500D01*
X4326786Y-13212214D01*
X4369643Y-13212214D01*
X4398214Y-13226500D01*
X4412500Y-13255071D01*
X4412500Y-13412214D01*
X4412500Y-13255071D02*
X4426786Y-13226500D01*
X4455357Y-13212214D01*
X4498214Y-13212214D01*
X4526786Y-13226500D01*
X4541071Y-13255071D01*
X4541071Y-13412214D01*
X4683928Y-13412214D02*
X4683928Y-13212214D01*
X4683928Y-13240786D02*
X4698214Y-13226500D01*
X4726786Y-13212214D01*
X4769643Y-13212214D01*
X4798214Y-13226500D01*
X4812500Y-13255071D01*
X4812500Y-13412214D01*
X4812500Y-13255071D02*
X4826786Y-13226500D01*
X4855357Y-13212214D01*
X4898214Y-13212214D01*
X4926786Y-13226500D01*
X4941071Y-13255071D01*
X4941071Y-13412214D01*
X5526786Y-13097929D02*
X5269643Y-13483643D01*
X5912500Y-13112214D02*
X5941071Y-13112214D01*
X5969643Y-13126500D01*
X5983928Y-13140786D01*
X5998214Y-13169357D01*
X6012500Y-13226500D01*
X6012500Y-13297929D01*
X5998214Y-13355071D01*
X5983928Y-13383643D01*
X5969643Y-13397929D01*
X5941071Y-13412214D01*
X5912500Y-13412214D01*
X5883928Y-13397929D01*
X5869643Y-13383643D01*
X5855357Y-13355071D01*
X5841071Y-13297929D01*
X5841071Y-13226500D01*
X5855357Y-13169357D01*
X5869643Y-13140786D01*
X5883928Y-13126500D01*
X5912500Y-13112214D01*
X6141071Y-13383643D02*
X6155357Y-13397929D01*
X6141071Y-13412214D01*
X6126786Y-13397929D01*
X6141071Y-13383643D01*
X6141071Y-13412214D01*
X6341071Y-13112214D02*
X6369643Y-13112214D01*
X6398214Y-13126500D01*
X6412500Y-13140786D01*
X6426786Y-13169357D01*
X6441071Y-13226500D01*
X6441071Y-13297929D01*
X6426786Y-13355071D01*
X6412500Y-13383643D01*
X6398214Y-13397929D01*
X6369643Y-13412214D01*
X6341071Y-13412214D01*
X6312500Y-13397929D01*
X6298214Y-13383643D01*
X6283928Y-13355071D01*
X6269643Y-13297929D01*
X6269643Y-13226500D01*
X6283928Y-13169357D01*
X6298214Y-13140786D01*
X6312500Y-13126500D01*
X6341071Y-13112214D01*
X6712500Y-13112214D02*
X6569643Y-13112214D01*
X6555357Y-13255071D01*
X6569643Y-13240786D01*
X6598214Y-13226500D01*
X6669643Y-13226500D01*
X6698214Y-13240786D01*
X6712500Y-13255071D01*
X6726786Y-13283643D01*
X6726786Y-13355071D01*
X6712500Y-13383643D01*
X6698214Y-13397929D01*
X6669643Y-13412214D01*
X6598214Y-13412214D01*
X6569643Y-13397929D01*
X6555357Y-13383643D01*
X6998214Y-13112214D02*
X6855357Y-13112214D01*
X6841071Y-13255071D01*
X6855357Y-13240786D01*
X6883928Y-13226500D01*
X6955357Y-13226500D01*
X6983928Y-13240786D01*
X6998214Y-13255071D01*
X7012500Y-13283643D01*
X7012500Y-13355071D01*
X6998214Y-13383643D01*
X6983928Y-13397929D01*
X6955357Y-13412214D01*
X6883928Y-13412214D01*
X6855357Y-13397929D01*
X6841071Y-13383643D01*
X7126786Y-13112214D02*
X7126786Y-13169357D01*
X7241071Y-13112214D02*
X7241071Y-13169357D01*
X7683928Y-13526500D02*
X7669643Y-13512214D01*
X7641071Y-13469357D01*
X7626786Y-13440786D01*
X7612500Y-13397929D01*
X7598214Y-13326500D01*
X7598214Y-13269357D01*
X7612500Y-13197929D01*
X7626786Y-13155071D01*
X7641071Y-13126500D01*
X7669643Y-13083643D01*
X7683928Y-13069357D01*
X7926786Y-13212214D02*
X7926786Y-13412214D01*
X7855357Y-13097929D02*
X7783928Y-13312214D01*
X7969643Y-13312214D01*
X8312500Y-13412214D02*
X8312500Y-13112214D01*
X8441071Y-13412214D02*
X8441071Y-13255071D01*
X8426786Y-13226500D01*
X8398214Y-13212214D01*
X8355357Y-13212214D01*
X8326786Y-13226500D01*
X8312500Y-13240786D01*
X8626786Y-13412214D02*
X8598214Y-13397929D01*
X8583928Y-13383643D01*
X8569643Y-13355071D01*
X8569643Y-13269357D01*
X8583928Y-13240786D01*
X8598214Y-13226500D01*
X8626786Y-13212214D01*
X8669643Y-13212214D01*
X8698214Y-13226500D01*
X8712500Y-13240786D01*
X8726786Y-13269357D01*
X8726786Y-13355071D01*
X8712500Y-13383643D01*
X8698214Y-13397929D01*
X8669643Y-13412214D01*
X8626786Y-13412214D01*
X8898214Y-13412214D02*
X8869643Y-13397929D01*
X8855357Y-13369357D01*
X8855357Y-13112214D01*
X9126786Y-13397929D02*
X9098214Y-13412214D01*
X9041071Y-13412214D01*
X9012500Y-13397929D01*
X8998214Y-13369357D01*
X8998214Y-13255071D01*
X9012500Y-13226500D01*
X9041071Y-13212214D01*
X9098214Y-13212214D01*
X9126786Y-13226500D01*
X9141071Y-13255071D01*
X9141071Y-13283643D01*
X8998214Y-13312214D01*
X9255357Y-13397929D02*
X9283928Y-13412214D01*
X9341071Y-13412214D01*
X9369643Y-13397929D01*
X9383928Y-13369357D01*
X9383928Y-13355071D01*
X9369643Y-13326500D01*
X9341071Y-13312214D01*
X9298214Y-13312214D01*
X9269643Y-13297929D01*
X9255357Y-13269357D01*
X9255357Y-13255071D01*
X9269643Y-13226500D01*
X9298214Y-13212214D01*
X9341071Y-13212214D01*
X9369643Y-13226500D01*
X9483928Y-13526500D02*
X9498214Y-13512214D01*
X9526786Y-13469357D01*
X9541071Y-13440786D01*
X9555357Y-13397929D01*
X9569643Y-13326500D01*
X9569643Y-13269357D01*
X9555357Y-13197929D01*
X9541071Y-13155071D01*
X9526786Y-13126500D01*
X9498214Y-13083643D01*
X9483928Y-13069357D01*
X2965282Y-13750283D02*
X2965282Y-13594718D01*
X2809717Y-13594718D01*
X2809717Y-13750283D01*
X2965282Y-13750283D01*
X2997500Y-13672500D02*
G75*
G03*
X2997500Y-13672500I-110000J0D01*
G01*
X3269643Y-13536786D02*
X3283928Y-13522500D01*
X3312500Y-13508214D01*
X3383928Y-13508214D01*
X3412500Y-13522500D01*
X3426786Y-13536786D01*
X3441071Y-13565357D01*
X3441071Y-13593929D01*
X3426786Y-13636786D01*
X3255357Y-13808214D01*
X3441071Y-13808214D01*
X3569643Y-13779643D02*
X3583928Y-13793929D01*
X3569643Y-13808214D01*
X3555357Y-13793929D01*
X3569643Y-13779643D01*
X3569643Y-13808214D01*
X3698214Y-13536786D02*
X3712500Y-13522500D01*
X3741071Y-13508214D01*
X3812500Y-13508214D01*
X3841071Y-13522500D01*
X3855357Y-13536786D01*
X3869643Y-13565357D01*
X3869643Y-13593929D01*
X3855357Y-13636786D01*
X3683928Y-13808214D01*
X3869643Y-13808214D01*
X4055357Y-13508214D02*
X4083928Y-13508214D01*
X4112500Y-13522500D01*
X4126786Y-13536786D01*
X4141071Y-13565357D01*
X4155357Y-13622500D01*
X4155357Y-13693929D01*
X4141071Y-13751071D01*
X4126786Y-13779643D01*
X4112500Y-13793929D01*
X4083928Y-13808214D01*
X4055357Y-13808214D01*
X4026786Y-13793929D01*
X4012500Y-13779643D01*
X3998214Y-13751071D01*
X3983928Y-13693929D01*
X3983928Y-13622500D01*
X3998214Y-13565357D01*
X4012500Y-13536786D01*
X4026786Y-13522500D01*
X4055357Y-13508214D01*
X4283928Y-13808214D02*
X4283928Y-13608214D01*
X4283928Y-13636786D02*
X4298214Y-13622500D01*
X4326786Y-13608214D01*
X4369643Y-13608214D01*
X4398214Y-13622500D01*
X4412500Y-13651071D01*
X4412500Y-13808214D01*
X4412500Y-13651071D02*
X4426786Y-13622500D01*
X4455357Y-13608214D01*
X4498214Y-13608214D01*
X4526786Y-13622500D01*
X4541071Y-13651071D01*
X4541071Y-13808214D01*
X4683928Y-13808214D02*
X4683928Y-13608214D01*
X4683928Y-13636786D02*
X4698214Y-13622500D01*
X4726786Y-13608214D01*
X4769643Y-13608214D01*
X4798214Y-13622500D01*
X4812500Y-13651071D01*
X4812500Y-13808214D01*
X4812500Y-13651071D02*
X4826786Y-13622500D01*
X4855357Y-13608214D01*
X4898214Y-13608214D01*
X4926786Y-13622500D01*
X4941071Y-13651071D01*
X4941071Y-13808214D01*
X5526786Y-13493929D02*
X5269643Y-13879643D01*
X5912500Y-13508214D02*
X5941071Y-13508214D01*
X5969643Y-13522500D01*
X5983928Y-13536786D01*
X5998214Y-13565357D01*
X6012500Y-13622500D01*
X6012500Y-13693929D01*
X5998214Y-13751071D01*
X5983928Y-13779643D01*
X5969643Y-13793929D01*
X5941071Y-13808214D01*
X5912500Y-13808214D01*
X5883928Y-13793929D01*
X5869643Y-13779643D01*
X5855357Y-13751071D01*
X5841071Y-13693929D01*
X5841071Y-13622500D01*
X5855357Y-13565357D01*
X5869643Y-13536786D01*
X5883928Y-13522500D01*
X5912500Y-13508214D01*
X6141071Y-13779643D02*
X6155357Y-13793929D01*
X6141071Y-13808214D01*
X6126786Y-13793929D01*
X6141071Y-13779643D01*
X6141071Y-13808214D01*
X6341071Y-13508214D02*
X6369643Y-13508214D01*
X6398214Y-13522500D01*
X6412500Y-13536786D01*
X6426786Y-13565357D01*
X6441071Y-13622500D01*
X6441071Y-13693929D01*
X6426786Y-13751071D01*
X6412500Y-13779643D01*
X6398214Y-13793929D01*
X6369643Y-13808214D01*
X6341071Y-13808214D01*
X6312500Y-13793929D01*
X6298214Y-13779643D01*
X6283928Y-13751071D01*
X6269643Y-13693929D01*
X6269643Y-13622500D01*
X6283928Y-13565357D01*
X6298214Y-13536786D01*
X6312500Y-13522500D01*
X6341071Y-13508214D01*
X6612500Y-13636786D02*
X6583928Y-13622500D01*
X6569643Y-13608214D01*
X6555357Y-13579643D01*
X6555357Y-13565357D01*
X6569643Y-13536786D01*
X6583928Y-13522500D01*
X6612500Y-13508214D01*
X6669643Y-13508214D01*
X6698214Y-13522500D01*
X6712500Y-13536786D01*
X6726786Y-13565357D01*
X6726786Y-13579643D01*
X6712500Y-13608214D01*
X6698214Y-13622500D01*
X6669643Y-13636786D01*
X6612500Y-13636786D01*
X6583928Y-13651071D01*
X6569643Y-13665357D01*
X6555357Y-13693929D01*
X6555357Y-13751071D01*
X6569643Y-13779643D01*
X6583928Y-13793929D01*
X6612500Y-13808214D01*
X6669643Y-13808214D01*
X6698214Y-13793929D01*
X6712500Y-13779643D01*
X6726786Y-13751071D01*
X6726786Y-13693929D01*
X6712500Y-13665357D01*
X6698214Y-13651071D01*
X6669643Y-13636786D01*
X6826786Y-13508214D02*
X7026786Y-13508214D01*
X6898214Y-13808214D01*
X7126786Y-13508214D02*
X7126786Y-13565357D01*
X7241071Y-13508214D02*
X7241071Y-13565357D01*
X7683928Y-13922500D02*
X7669643Y-13908214D01*
X7641071Y-13865357D01*
X7626786Y-13836786D01*
X7612500Y-13793929D01*
X7598214Y-13722500D01*
X7598214Y-13665357D01*
X7612500Y-13593929D01*
X7626786Y-13551071D01*
X7641071Y-13522500D01*
X7669643Y-13479643D01*
X7683928Y-13465357D01*
X7783928Y-13536786D02*
X7798214Y-13522500D01*
X7826786Y-13508214D01*
X7898214Y-13508214D01*
X7926786Y-13522500D01*
X7941071Y-13536786D01*
X7955357Y-13565357D01*
X7955357Y-13593929D01*
X7941071Y-13636786D01*
X7769643Y-13808214D01*
X7955357Y-13808214D01*
X8312500Y-13808214D02*
X8312500Y-13508214D01*
X8441071Y-13808214D02*
X8441071Y-13651071D01*
X8426786Y-13622500D01*
X8398214Y-13608214D01*
X8355357Y-13608214D01*
X8326786Y-13622500D01*
X8312500Y-13636786D01*
X8626786Y-13808214D02*
X8598214Y-13793929D01*
X8583928Y-13779643D01*
X8569643Y-13751071D01*
X8569643Y-13665357D01*
X8583928Y-13636786D01*
X8598214Y-13622500D01*
X8626786Y-13608214D01*
X8669643Y-13608214D01*
X8698214Y-13622500D01*
X8712500Y-13636786D01*
X8726786Y-13665357D01*
X8726786Y-13751071D01*
X8712500Y-13779643D01*
X8698214Y-13793929D01*
X8669643Y-13808214D01*
X8626786Y-13808214D01*
X8898214Y-13808214D02*
X8869643Y-13793929D01*
X8855357Y-13765357D01*
X8855357Y-13508214D01*
X9126786Y-13793929D02*
X9098214Y-13808214D01*
X9041071Y-13808214D01*
X9012500Y-13793929D01*
X8998214Y-13765357D01*
X8998214Y-13651071D01*
X9012500Y-13622500D01*
X9041071Y-13608214D01*
X9098214Y-13608214D01*
X9126786Y-13622500D01*
X9141071Y-13651071D01*
X9141071Y-13679643D01*
X8998214Y-13708214D01*
X9255357Y-13793929D02*
X9283928Y-13808214D01*
X9341071Y-13808214D01*
X9369643Y-13793929D01*
X9383928Y-13765357D01*
X9383928Y-13751071D01*
X9369643Y-13722500D01*
X9341071Y-13708214D01*
X9298214Y-13708214D01*
X9269643Y-13693929D01*
X9255357Y-13665357D01*
X9255357Y-13651071D01*
X9269643Y-13622500D01*
X9298214Y-13608214D01*
X9341071Y-13608214D01*
X9369643Y-13622500D01*
X9483928Y-13922500D02*
X9498214Y-13908214D01*
X9526786Y-13865357D01*
X9541071Y-13836786D01*
X9555357Y-13793929D01*
X9569643Y-13722500D01*
X9569643Y-13665357D01*
X9555357Y-13593929D01*
X9541071Y-13551071D01*
X9526786Y-13522500D01*
X9498214Y-13479643D01*
X9483928Y-13465357D01*
M02*
