M48
; DRILL file {KiCad 5.1.9-73d0e3b20d~88~ubuntu20.04.1} date Wed Mar 10 23:11:32 2021
; FORMAT={-:-/ absolute / metric / decimal}
; #@! TF.CreationDate,2021-03-10T23:11:32+08:00
; #@! TF.GenerationSoftware,Kicad,Pcbnew,5.1.9-73d0e3b20d~88~ubuntu20.04.1
; #@! TF.FileFunction,Plated,1,2,PTH
FMAT,2
METRIC
T1C0.400
T2C0.500
T3C0.600
T4C0.762
T5C0.800
T6C0.900
T7C1.000
T8C1.190
T9C1.700
T10C2.200
%
G90
G05
T1
X39.2Y-58.1
X51.5Y-77.1
X52.0Y-71.8
X53.45Y-59.15
X56.539Y-51.624
X58.425Y-46.525
X59.1Y-59.0
X59.1Y-77.1
X62.5Y-52.4
X62.5Y-61.3
X62.6Y-75.8
X63.9Y-59.3
X64.025Y-53.325
X65.7Y-49.2
X65.9Y-75.8
X67.2Y-52.8
X67.2Y-58.4
X68.202Y-52.8
X68.3Y-58.4
X68.6Y-65.9
X69.1Y-52.8
X69.3Y-58.4
X71.8Y-70.2
X74.35Y-70.55
X75.675Y-47.575
X77.1Y-74.639
X78.5Y-53.1
X78.5Y-56.3
X79.1Y-72.334
X80.9Y-53.8
X86.2Y-85.812
X87.7Y-86.6
X88.525Y-68.375
X89.1Y-86.1
X93.4Y-83.5
X93.4Y-86.1
X97.1Y-46.3
X98.825Y-82.425
X99.6Y-42.3
X100.3Y-46.0
X100.6Y-85.4
X104.5Y-59.8
X121.0Y-40.2
X161.369Y-47.573
X164.903Y-49.523
X165.941Y-48.79
X167.964Y-48.283
X169.903Y-47.876
X170.919Y-47.876
T2
X104.45Y-55.45
X158.403Y-61.248
X159.903Y-49.448
X161.903Y-71.348
X162.903Y-71.348
X163.903Y-71.348
X169.903Y-71.348
X170.903Y-71.348
X171.903Y-71.348
X173.903Y-49.248
X175.403Y-61.148
T4
X105.3Y-40.7
X107.1Y-40.7
X139.189Y-46.988
X139.189Y-57.988
X161.308Y-32.034
X172.708Y-32.034
X190.621Y-44.19
X194.389Y-58.239
T5
X36.909Y-64.03
X36.909Y-66.03
X36.909Y-68.03
X36.909Y-70.03
X36.909Y-72.03
X36.909Y-74.03
T6
X102.15Y-41.7
X107.25Y-42.9
T7
X42.56Y-47.54
X42.56Y-50.08
X42.56Y-52.62
X42.56Y-55.16
X42.56Y-57.7
X42.56Y-60.24
X42.56Y-62.78
X42.56Y-65.32
X42.56Y-67.86
X42.56Y-70.4
X45.1Y-47.54
X45.1Y-50.08
X45.1Y-52.62
X45.1Y-55.16
X45.1Y-57.7
X45.1Y-60.24
X45.1Y-62.78
X45.1Y-65.32
X45.1Y-67.86
X45.1Y-70.4
T8
X54.3Y-83.6
X56.84Y-83.6
X61.66Y-83.6
X64.2Y-83.6
T9
X108.34Y-48.7
X112.3Y-48.7
X116.26Y-48.7
X188.65Y-80.286
X192.61Y-80.286
T10
X55.2Y-33.8
X70.8Y-33.8
T3
G00X55.2Y-41.25
M15
G01X55.2Y-43.35
M16
G05
G00X60.1Y-39.9
M15
G01X60.1Y-42.0
M16
G05
G00X60.5Y-36.25
M15
G01X60.5Y-38.35
M16
G05
G00X65.5Y-36.25
M15
G01X65.5Y-38.35
M16
G05
G00X65.9Y-39.9
M15
G01X65.9Y-42.0
M16
G05
G00X70.8Y-41.25
M15
G01X70.8Y-43.35
M16
G05
T7
G00X62.4Y-31.8
M15
G01X63.6Y-31.8
M16
G05
T0
M30
