  0
SECTION
  2
HEADER
  9
$ANGBASE
  50
0.0
  9
$ANGDIR
  70
1
  9
$MEASUREMENT
  70
1
  0
ENDSEC
  0
SECTION
  2
TABLES
  0
TABLE
  2
LTYPE
  70
4
  0
LTYPE
  5
40F
  2
CONTINUOUS
  70
0
  3
Solid line
  72
65
  73
0
  40
0.0
  0
LTYPE
  5
410
  2
DASHDOT
 70
0
  3
Dash Dot ____ _ ____ _
 72
65
 73
4
 40
2.0
 49
1.25
 49
-0.25
 49
0.25
 49
-0.25
  0
LTYPE
  5
411
  2
DASHED
 70
0
  3
Dashed __ __ __ __ __
 72
65
 73
2
 40
0.75
 49
0.5
 49
-0.25
  0
LTYPE
  5
43B
  2
DOTTED
 70
0
  3
Dotted .  .  .  .
 72
65
 73
2
 40
0.2
 49
0.0
 49
-0.2
  0
ENDTAB
  0
TABLE
  2
STYLE
  70
4
  0
STYLE
  2
KICAD
  70
0
  40
0
  41
1
  42
1
  50
0
  71
0
  3
isocp.shx
  0
STYLE
  2
KICADB
  70
0
  40
0
  41
1
  42
1
  50
0
  71
0
  3
isocp.shx
  0
STYLE
  2
KICADI
  70
0
  40
0
  41
1
  42
1
  50
15
  71
0
  3
isocp.shx
  0
STYLE
  2
KICADBI
  70
0
  40
0
  41
1
  42
1
  50
15
  71
0
  3
isocp.shx
  0
ENDTAB
  0
TABLE
  2
LAYER
  70
1
  0
LAYER
  2
BLACK
  70
0
  62
7
  6
CONTINUOUS
  0
ENDTAB
  0
ENDSEC
  0
SECTION
  2
ENTITIES
0
LINE
8
BLACK
6
CONTINUOUS
10
132.5
20
-87.5
11
204
21
-87.5
0
ARC
8
BLACK
10
123.7
20
-78.7
40
1.2
50
90
51
180
0
ARC
8
BLACK
10
131.3
20
-78.7
40
1.2
50
-0
51
90
0
LINE
8
BLACK
6
CONTINUOUS
10
132.5
20
-78.7
11
132.5
21
-87.5
0
LINE
8
BLACK
6
CONTINUOUS
10
123.7
20
-77.5
11
131.3
21
-77.5
0
LINE
8
BLACK
6
CONTINUOUS
10
122.5
20
-87.5
11
122.5
21
-78.7
0
LINE
8
BLACK
6
CONTINUOUS
10
30
20
-87.5
11
122.5
21
-87.5
0
LINE
8
BLACK
6
CONTINUOUS
10
30
20
-30
11
30
21
-87.5
0
LINE
8
BLACK
6
CONTINUOUS
10
204
20
-30
11
30
21
-30
0
LINE
8
BLACK
6
CONTINUOUS
10
204
20
-87.5
11
204
21
-30
0
LINE
8
BLACK
6
CONTINUOUS
10
59.65
20
-32.95
11
61.35
21
-34.65
0
LINE
8
BLACK
6
CONTINUOUS
10
61.35
20
-32.95
11
59.65
21
-34.65
0
LINE
8
BLACK
6
CONTINUOUS
10
64.65
20
-32.95
11
66.35
21
-34.65
0
LINE
8
BLACK
6
CONTINUOUS
10
66.35
20
-32.95
11
64.65
21
-34.65
0
CIRCLE
8
BLACK
10
44.08
20
-38.6
40
1.475
0
CIRCLE
8
BLACK
10
44.08
20
-79.34
40
1.475
0
LINE
8
BLACK
6
CONTINUOUS
10
35.2
20
-33.5
11
35.2
21
-36.9
0
LINE
8
BLACK
6
CONTINUOUS
10
33.5
20
-35.2
11
36.9
21
-35.2
0
LINE
8
BLACK
6
CONTINUOUS
10
35.2
20
-80.8
11
35.2
21
-84.2
0
LINE
8
BLACK
6
CONTINUOUS
10
33.5
20
-82.5
11
36.9
21
-82.5
0
LINE
8
BLACK
6
CONTINUOUS
10
117
20
-57.05
11
117
21
-60.45
0
LINE
8
BLACK
6
CONTINUOUS
10
115.3
20
-58.75
11
118.7
21
-58.75
0
LINE
8
BLACK
6
CONTINUOUS
10
199
20
-33.5
11
199
21
-36.9
0
LINE
8
BLACK
6
CONTINUOUS
10
197.3
20
-35.2
11
200.7
21
-35.2
0
LINE
8
BLACK
6
CONTINUOUS
10
199
20
-80.8
11
199
21
-84.2
0
LINE
8
BLACK
6
CONTINUOUS
10
197.3
20
-82.5
11
200.7
21
-82.5
0
LINE
8
BLACK
6
CONTINUOUS
10
32.8393
20
-92.1821
11
32.8393
21
-89.1821
0
LINE
8
BLACK
6
CONTINUOUS
10
32.8393
20
-89.1821
11
33.5536
21
-89.1821
0
LINE
8
BLACK
6
CONTINUOUS
10
33.5536
20
-89.1821
11
33.9821
21
-89.325
0
LINE
8
BLACK
6
CONTINUOUS
10
33.9821
20
-89.325
11
34.2679
21
-89.6107
0
LINE
8
BLACK
6
CONTINUOUS
10
34.2679
20
-89.6107
11
34.4107
21
-89.8964
0
LINE
8
BLACK
6
CONTINUOUS
10
34.4107
20
-89.8964
11
34.5536
21
-90.4679
0
LINE
8
BLACK
6
CONTINUOUS
10
34.5536
20
-90.4679
11
34.5536
21
-90.8964
0
LINE
8
BLACK
6
CONTINUOUS
10
34.5536
20
-90.8964
11
34.4107
21
-91.4679
0
LINE
8
BLACK
6
CONTINUOUS
10
34.4107
20
-91.4679
11
34.2679
21
-91.7536
0
LINE
8
BLACK
6
CONTINUOUS
10
34.2679
20
-91.7536
11
33.9821
21
-92.0393
0
LINE
8
BLACK
6
CONTINUOUS
10
33.9821
20
-92.0393
11
33.5536
21
-92.1821
0
LINE
8
BLACK
6
CONTINUOUS
10
33.5536
20
-92.1821
11
32.8393
21
-92.1821
0
LINE
8
BLACK
6
CONTINUOUS
10
35.8393
20
-92.1821
11
35.8393
21
-90.1821
0
LINE
8
BLACK
6
CONTINUOUS
10
35.8393
20
-90.7536
11
35.9821
21
-90.4679
0
LINE
8
BLACK
6
CONTINUOUS
10
35.9821
20
-90.4679
11
36.125
21
-90.325
0
LINE
8
BLACK
6
CONTINUOUS
10
36.125
20
-90.325
11
36.4107
21
-90.1821
0
LINE
8
BLACK
6
CONTINUOUS
10
36.4107
20
-90.1821
11
36.6964
21
-90.1821
0
LINE
8
BLACK
6
CONTINUOUS
10
37.6964
20
-92.1821
11
37.6964
21
-90.1821
0
LINE
8
BLACK
6
CONTINUOUS
10
37.6964
20
-89.1821
11
37.5536
21
-89.325
0
LINE
8
BLACK
6
CONTINUOUS
10
37.5536
20
-89.325
11
37.6964
21
-89.4679
0
LINE
8
BLACK
6
CONTINUOUS
10
37.6964
20
-89.4679
11
37.8393
21
-89.325
0
LINE
8
BLACK
6
CONTINUOUS
10
37.8393
20
-89.325
11
37.6964
21
-89.1821
0
LINE
8
BLACK
6
CONTINUOUS
10
37.6964
20
-89.1821
11
37.6964
21
-89.4679
0
LINE
8
BLACK
6
CONTINUOUS
10
39.5536
20
-92.1821
11
39.2679
21
-92.0393
0
LINE
8
BLACK
6
CONTINUOUS
10
39.2679
20
-92.0393
11
39.125
21
-91.7536
0
LINE
8
BLACK
6
CONTINUOUS
10
39.125
20
-91.7536
11
39.125
21
-89.1821
0
LINE
8
BLACK
6
CONTINUOUS
10
41.125
20
-92.1821
11
40.8393
21
-92.0393
0
LINE
8
BLACK
6
CONTINUOUS
10
40.8393
20
-92.0393
11
40.6964
21
-91.7536
0
LINE
8
BLACK
6
CONTINUOUS
10
40.6964
20
-91.7536
11
40.6964
21
-89.1821
0
LINE
8
BLACK
6
CONTINUOUS
10
44.5536
20
-92.1821
11
44.5536
21
-89.1821
0
LINE
8
BLACK
6
CONTINUOUS
10
44.5536
20
-89.1821
11
45.5536
21
-91.325
0
LINE
8
BLACK
6
CONTINUOUS
10
45.5536
20
-91.325
11
46.5536
21
-89.1821
0
LINE
8
BLACK
6
CONTINUOUS
10
46.5536
20
-89.1821
11
46.5536
21
-92.1821
0
LINE
8
BLACK
6
CONTINUOUS
10
49.2679
20
-92.1821
11
49.2679
21
-90.6107
0
LINE
8
BLACK
6
CONTINUOUS
10
49.2679
20
-90.6107
11
49.125
21
-90.325
0
LINE
8
BLACK
6
CONTINUOUS
10
49.125
20
-90.325
11
48.8393
21
-90.1821
0
LINE
8
BLACK
6
CONTINUOUS
10
48.8393
20
-90.1821
11
48.2679
21
-90.1821
0
LINE
8
BLACK
6
CONTINUOUS
10
48.2679
20
-90.1821
11
47.9821
21
-90.325
0
LINE
8
BLACK
6
CONTINUOUS
10
49.2679
20
-92.0393
11
48.9821
21
-92.1821
0
LINE
8
BLACK
6
CONTINUOUS
10
48.9821
20
-92.1821
11
48.2679
21
-92.1821
0
LINE
8
BLACK
6
CONTINUOUS
10
48.2679
20
-92.1821
11
47.9821
21
-92.0393
0
LINE
8
BLACK
6
CONTINUOUS
10
47.9821
20
-92.0393
11
47.8393
21
-91.7536
0
LINE
8
BLACK
6
CONTINUOUS
10
47.8393
20
-91.7536
11
47.8393
21
-91.4679
0
LINE
8
BLACK
6
CONTINUOUS
10
47.8393
20
-91.4679
11
47.9821
21
-91.1821
0
LINE
8
BLACK
6
CONTINUOUS
10
47.9821
20
-91.1821
11
48.2679
21
-91.0393
0
LINE
8
BLACK
6
CONTINUOUS
10
48.2679
20
-91.0393
11
48.9821
21
-91.0393
0
LINE
8
BLACK
6
CONTINUOUS
10
48.9821
20
-91.0393
11
49.2679
21
-90.8964
0
LINE
8
BLACK
6
CONTINUOUS
10
50.6964
20
-90.1821
11
50.6964
21
-93.1821
0
LINE
8
BLACK
6
CONTINUOUS
10
50.6964
20
-90.325
11
50.9821
21
-90.1821
0
LINE
8
BLACK
6
CONTINUOUS
10
50.9821
20
-90.1821
11
51.5536
21
-90.1821
0
LINE
8
BLACK
6
CONTINUOUS
10
51.5536
20
-90.1821
11
51.8393
21
-90.325
0
LINE
8
BLACK
6
CONTINUOUS
10
51.8393
20
-90.325
11
51.9821
21
-90.4679
0
LINE
8
BLACK
6
CONTINUOUS
10
51.9821
20
-90.4679
11
52.125
21
-90.7536
0
LINE
8
BLACK
6
CONTINUOUS
10
52.125
20
-90.7536
11
52.125
21
-91.6107
0
LINE
8
BLACK
6
CONTINUOUS
10
52.125
20
-91.6107
11
51.9821
21
-91.8964
0
LINE
8
BLACK
6
CONTINUOUS
10
51.9821
20
-91.8964
11
51.8393
21
-92.0393
0
LINE
8
BLACK
6
CONTINUOUS
10
51.8393
20
-92.0393
11
51.5536
21
-92.1821
0
LINE
8
BLACK
6
CONTINUOUS
10
51.5536
20
-92.1821
11
50.9821
21
-92.1821
0
LINE
8
BLACK
6
CONTINUOUS
10
50.9821
20
-92.1821
11
50.6964
21
-92.0393
0
LINE
8
BLACK
6
CONTINUOUS
10
53.4107
20
-91.8964
11
53.5536
21
-92.0393
0
LINE
8
BLACK
6
CONTINUOUS
10
53.5536
20
-92.0393
11
53.4107
21
-92.1821
0
LINE
8
BLACK
6
CONTINUOUS
10
53.4107
20
-92.1821
11
53.2679
21
-92.0393
0
LINE
8
BLACK
6
CONTINUOUS
10
53.2679
20
-92.0393
11
53.4107
21
-91.8964
0
LINE
8
BLACK
6
CONTINUOUS
10
53.4107
20
-91.8964
11
53.4107
21
-92.1821
0
LINE
8
BLACK
6
CONTINUOUS
10
53.4107
20
-90.325
11
53.5536
21
-90.4679
0
LINE
8
BLACK
6
CONTINUOUS
10
53.5536
20
-90.4679
11
53.4107
21
-90.6107
0
LINE
8
BLACK
6
CONTINUOUS
10
53.4107
20
-90.6107
11
53.2679
21
-90.4679
0
LINE
8
BLACK
6
CONTINUOUS
10
53.2679
20
-90.4679
11
53.4107
21
-90.325
0
LINE
8
BLACK
6
CONTINUOUS
10
53.4107
20
-90.325
11
53.4107
21
-90.6107
0
LINE
8
BLACK
6
CONTINUOUS
10
28.275
20
-96.275
11
29.975
21
-97.975
0
LINE
8
BLACK
6
CONTINUOUS
10
29.975
20
-96.275
11
28.275
21
-97.975
0
LINE
8
BLACK
6
CONTINUOUS
10
34.4107
20
-98.4821
11
32.6964
21
-98.4821
0
LINE
8
BLACK
6
CONTINUOUS
10
33.5536
20
-98.4821
11
33.5536
21
-95.4821
0
LINE
8
BLACK
6
CONTINUOUS
10
33.5536
20
-95.4821
11
33.2679
21
-95.9107
0
LINE
8
BLACK
6
CONTINUOUS
10
33.2679
20
-95.9107
11
32.9821
21
-96.1964
0
LINE
8
BLACK
6
CONTINUOUS
10
32.9821
20
-96.1964
11
32.6964
21
-96.3393
0
LINE
8
BLACK
6
CONTINUOUS
10
35.6964
20
-98.1964
11
35.8393
21
-98.3393
0
LINE
8
BLACK
6
CONTINUOUS
10
35.8393
20
-98.3393
11
35.6964
21
-98.4821
0
LINE
8
BLACK
6
CONTINUOUS
10
35.6964
20
-98.4821
11
35.5536
21
-98.3393
0
LINE
8
BLACK
6
CONTINUOUS
10
35.5536
20
-98.3393
11
35.6964
21
-98.1964
0
LINE
8
BLACK
6
CONTINUOUS
10
35.6964
20
-98.1964
11
35.6964
21
-98.4821
0
LINE
8
BLACK
6
CONTINUOUS
10
36.8393
20
-95.4821
11
38.8393
21
-95.4821
0
LINE
8
BLACK
6
CONTINUOUS
10
38.8393
20
-95.4821
11
37.5536
21
-98.4821
0
LINE
8
BLACK
6
CONTINUOUS
10
40.5536
20
-95.4821
11
40.8393
21
-95.4821
0
LINE
8
BLACK
6
CONTINUOUS
10
40.8393
20
-95.4821
11
41.125
21
-95.625
0
LINE
8
BLACK
6
CONTINUOUS
10
41.125
20
-95.625
11
41.2679
21
-95.7679
0
LINE
8
BLACK
6
CONTINUOUS
10
41.2679
20
-95.7679
11
41.4107
21
-96.0536
0
LINE
8
BLACK
6
CONTINUOUS
10
41.4107
20
-96.0536
11
41.5536
21
-96.625
0
LINE
8
BLACK
6
CONTINUOUS
10
41.5536
20
-96.625
11
41.5536
21
-97.3393
0
LINE
8
BLACK
6
CONTINUOUS
10
41.5536
20
-97.3393
11
41.4107
21
-97.9107
0
LINE
8
BLACK
6
CONTINUOUS
10
41.4107
20
-97.9107
11
41.2679
21
-98.1964
0
LINE
8
BLACK
6
CONTINUOUS
10
41.2679
20
-98.1964
11
41.125
21
-98.3393
0
LINE
8
BLACK
6
CONTINUOUS
10
41.125
20
-98.3393
11
40.8393
21
-98.4821
0
LINE
8
BLACK
6
CONTINUOUS
10
40.8393
20
-98.4821
11
40.5536
21
-98.4821
0
LINE
8
BLACK
6
CONTINUOUS
10
40.5536
20
-98.4821
11
40.2679
21
-98.3393
0
LINE
8
BLACK
6
CONTINUOUS
10
40.2679
20
-98.3393
11
40.125
21
-98.1964
0
LINE
8
BLACK
6
CONTINUOUS
10
40.125
20
-98.1964
11
39.9821
21
-97.9107
0
LINE
8
BLACK
6
CONTINUOUS
10
39.9821
20
-97.9107
11
39.8393
21
-97.3393
0
LINE
8
BLACK
6
CONTINUOUS
10
39.8393
20
-97.3393
11
39.8393
21
-96.625
0
LINE
8
BLACK
6
CONTINUOUS
10
39.8393
20
-96.625
11
39.9821
21
-96.0536
0
LINE
8
BLACK
6
CONTINUOUS
10
39.9821
20
-96.0536
11
40.125
21
-95.7679
0
LINE
8
BLACK
6
CONTINUOUS
10
40.125
20
-95.7679
11
40.2679
21
-95.625
0
LINE
8
BLACK
6
CONTINUOUS
10
40.2679
20
-95.625
11
40.5536
21
-95.4821
0
LINE
8
BLACK
6
CONTINUOUS
10
42.8393
20
-98.4821
11
42.8393
21
-96.4821
0
LINE
8
BLACK
6
CONTINUOUS
10
42.8393
20
-96.7679
11
42.9821
21
-96.625
0
LINE
8
BLACK
6
CONTINUOUS
10
42.9821
20
-96.625
11
43.2679
21
-96.4821
0
LINE
8
BLACK
6
CONTINUOUS
10
43.2679
20
-96.4821
11
43.6964
21
-96.4821
0
LINE
8
BLACK
6
CONTINUOUS
10
43.6964
20
-96.4821
11
43.9821
21
-96.625
0
LINE
8
BLACK
6
CONTINUOUS
10
43.9821
20
-96.625
11
44.125
21
-96.9107
0
LINE
8
BLACK
6
CONTINUOUS
10
44.125
20
-96.9107
11
44.125
21
-98.4821
0
LINE
8
BLACK
6
CONTINUOUS
10
44.125
20
-96.9107
11
44.2679
21
-96.625
0
LINE
8
BLACK
6
CONTINUOUS
10
44.2679
20
-96.625
11
44.5536
21
-96.4821
0
LINE
8
BLACK
6
CONTINUOUS
10
44.5536
20
-96.4821
11
44.9821
21
-96.4821
0
LINE
8
BLACK
6
CONTINUOUS
10
44.9821
20
-96.4821
11
45.2679
21
-96.625
0
LINE
8
BLACK
6
CONTINUOUS
10
45.2679
20
-96.625
11
45.4107
21
-96.9107
0
LINE
8
BLACK
6
CONTINUOUS
10
45.4107
20
-96.9107
11
45.4107
21
-98.4821
0
LINE
8
BLACK
6
CONTINUOUS
10
46.8393
20
-98.4821
11
46.8393
21
-96.4821
0
LINE
8
BLACK
6
CONTINUOUS
10
46.8393
20
-96.7679
11
46.9821
21
-96.625
0
LINE
8
BLACK
6
CONTINUOUS
10
46.9821
20
-96.625
11
47.2679
21
-96.4821
0
LINE
8
BLACK
6
CONTINUOUS
10
47.2679
20
-96.4821
11
47.6964
21
-96.4821
0
LINE
8
BLACK
6
CONTINUOUS
10
47.6964
20
-96.4821
11
47.9821
21
-96.625
0
LINE
8
BLACK
6
CONTINUOUS
10
47.9821
20
-96.625
11
48.125
21
-96.9107
0
LINE
8
BLACK
6
CONTINUOUS
10
48.125
20
-96.9107
11
48.125
21
-98.4821
0
LINE
8
BLACK
6
CONTINUOUS
10
48.125
20
-96.9107
11
48.2679
21
-96.625
0
LINE
8
BLACK
6
CONTINUOUS
10
48.2679
20
-96.625
11
48.5536
21
-96.4821
0
LINE
8
BLACK
6
CONTINUOUS
10
48.5536
20
-96.4821
11
48.9821
21
-96.4821
0
LINE
8
BLACK
6
CONTINUOUS
10
48.9821
20
-96.4821
11
49.2679
21
-96.625
0
LINE
8
BLACK
6
CONTINUOUS
10
49.2679
20
-96.625
11
49.4107
21
-96.9107
0
LINE
8
BLACK
6
CONTINUOUS
10
49.4107
20
-96.9107
11
49.4107
21
-98.4821
0
LINE
8
BLACK
6
CONTINUOUS
10
55.2679
20
-95.3393
11
52.6964
21
-99.1964
0
LINE
8
BLACK
6
CONTINUOUS
10
59.125
20
-95.4821
11
59.4107
21
-95.4821
0
LINE
8
BLACK
6
CONTINUOUS
10
59.4107
20
-95.4821
11
59.6964
21
-95.625
0
LINE
8
BLACK
6
CONTINUOUS
10
59.6964
20
-95.625
11
59.8393
21
-95.7679
0
LINE
8
BLACK
6
CONTINUOUS
10
59.8393
20
-95.7679
11
59.9821
21
-96.0536
0
LINE
8
BLACK
6
CONTINUOUS
10
59.9821
20
-96.0536
11
60.125
21
-96.625
0
LINE
8
BLACK
6
CONTINUOUS
10
60.125
20
-96.625
11
60.125
21
-97.3393
0
LINE
8
BLACK
6
CONTINUOUS
10
60.125
20
-97.3393
11
59.9821
21
-97.9107
0
LINE
8
BLACK
6
CONTINUOUS
10
59.9821
20
-97.9107
11
59.8393
21
-98.1964
0
LINE
8
BLACK
6
CONTINUOUS
10
59.8393
20
-98.1964
11
59.6964
21
-98.3393
0
LINE
8
BLACK
6
CONTINUOUS
10
59.6964
20
-98.3393
11
59.4107
21
-98.4821
0
LINE
8
BLACK
6
CONTINUOUS
10
59.4107
20
-98.4821
11
59.125
21
-98.4821
0
LINE
8
BLACK
6
CONTINUOUS
10
59.125
20
-98.4821
11
58.8393
21
-98.3393
0
LINE
8
BLACK
6
CONTINUOUS
10
58.8393
20
-98.3393
11
58.6964
21
-98.1964
0
LINE
8
BLACK
6
CONTINUOUS
10
58.6964
20
-98.1964
11
58.5536
21
-97.9107
0
LINE
8
BLACK
6
CONTINUOUS
10
58.5536
20
-97.9107
11
58.4107
21
-97.3393
0
LINE
8
BLACK
6
CONTINUOUS
10
58.4107
20
-97.3393
11
58.4107
21
-96.625
0
LINE
8
BLACK
6
CONTINUOUS
10
58.4107
20
-96.625
11
58.5536
21
-96.0536
0
LINE
8
BLACK
6
CONTINUOUS
10
58.5536
20
-96.0536
11
58.6964
21
-95.7679
0
LINE
8
BLACK
6
CONTINUOUS
10
58.6964
20
-95.7679
11
58.8393
21
-95.625
0
LINE
8
BLACK
6
CONTINUOUS
10
58.8393
20
-95.625
11
59.125
21
-95.4821
0
LINE
8
BLACK
6
CONTINUOUS
10
61.4107
20
-98.1964
11
61.5536
21
-98.3393
0
LINE
8
BLACK
6
CONTINUOUS
10
61.5536
20
-98.3393
11
61.4107
21
-98.4821
0
LINE
8
BLACK
6
CONTINUOUS
10
61.4107
20
-98.4821
11
61.2679
21
-98.3393
0
LINE
8
BLACK
6
CONTINUOUS
10
61.2679
20
-98.3393
11
61.4107
21
-98.1964
0
LINE
8
BLACK
6
CONTINUOUS
10
61.4107
20
-98.1964
11
61.4107
21
-98.4821
0
LINE
8
BLACK
6
CONTINUOUS
10
63.4107
20
-95.4821
11
63.6964
21
-95.4821
0
LINE
8
BLACK
6
CONTINUOUS
10
63.6964
20
-95.4821
11
63.9821
21
-95.625
0
LINE
8
BLACK
6
CONTINUOUS
10
63.9821
20
-95.625
11
64.125
21
-95.7679
0
LINE
8
BLACK
6
CONTINUOUS
10
64.125
20
-95.7679
11
64.2679
21
-96.0536
0
LINE
8
BLACK
6
CONTINUOUS
10
64.2679
20
-96.0536
11
64.4107
21
-96.625
0
LINE
8
BLACK
6
CONTINUOUS
10
64.4107
20
-96.625
11
64.4107
21
-97.3393
0
LINE
8
BLACK
6
CONTINUOUS
10
64.4107
20
-97.3393
11
64.2679
21
-97.9107
0
LINE
8
BLACK
6
CONTINUOUS
10
64.2679
20
-97.9107
11
64.125
21
-98.1964
0
LINE
8
BLACK
6
CONTINUOUS
10
64.125
20
-98.1964
11
63.9821
21
-98.3393
0
LINE
8
BLACK
6
CONTINUOUS
10
63.9821
20
-98.3393
11
63.6964
21
-98.4821
0
LINE
8
BLACK
6
CONTINUOUS
10
63.6964
20
-98.4821
11
63.4107
21
-98.4821
0
LINE
8
BLACK
6
CONTINUOUS
10
63.4107
20
-98.4821
11
63.125
21
-98.3393
0
LINE
8
BLACK
6
CONTINUOUS
10
63.125
20
-98.3393
11
62.9821
21
-98.1964
0
LINE
8
BLACK
6
CONTINUOUS
10
62.9821
20
-98.1964
11
62.8393
21
-97.9107
0
LINE
8
BLACK
6
CONTINUOUS
10
62.8393
20
-97.9107
11
62.6964
21
-97.3393
0
LINE
8
BLACK
6
CONTINUOUS
10
62.6964
20
-97.3393
11
62.6964
21
-96.625
0
LINE
8
BLACK
6
CONTINUOUS
10
62.6964
20
-96.625
11
62.8393
21
-96.0536
0
LINE
8
BLACK
6
CONTINUOUS
10
62.8393
20
-96.0536
11
62.9821
21
-95.7679
0
LINE
8
BLACK
6
CONTINUOUS
10
62.9821
20
-95.7679
11
63.125
21
-95.625
0
LINE
8
BLACK
6
CONTINUOUS
10
63.125
20
-95.625
11
63.4107
21
-95.4821
0
LINE
8
BLACK
6
CONTINUOUS
10
66.9821
20
-95.4821
11
66.4107
21
-95.4821
0
LINE
8
BLACK
6
CONTINUOUS
10
66.4107
20
-95.4821
11
66.125
21
-95.625
0
LINE
8
BLACK
6
CONTINUOUS
10
66.125
20
-95.625
11
65.9821
21
-95.7679
0
LINE
8
BLACK
6
CONTINUOUS
10
65.9821
20
-95.7679
11
65.6964
21
-96.1964
0
LINE
8
BLACK
6
CONTINUOUS
10
65.6964
20
-96.1964
11
65.5536
21
-96.7679
0
LINE
8
BLACK
6
CONTINUOUS
10
65.5536
20
-96.7679
11
65.5536
21
-97.9107
0
LINE
8
BLACK
6
CONTINUOUS
10
65.5536
20
-97.9107
11
65.6964
21
-98.1964
0
LINE
8
BLACK
6
CONTINUOUS
10
65.6964
20
-98.1964
11
65.8393
21
-98.3393
0
LINE
8
BLACK
6
CONTINUOUS
10
65.8393
20
-98.3393
11
66.125
21
-98.4821
0
LINE
8
BLACK
6
CONTINUOUS
10
66.125
20
-98.4821
11
66.6964
21
-98.4821
0
LINE
8
BLACK
6
CONTINUOUS
10
66.6964
20
-98.4821
11
66.9821
21
-98.3393
0
LINE
8
BLACK
6
CONTINUOUS
10
66.9821
20
-98.3393
11
67.125
21
-98.1964
0
LINE
8
BLACK
6
CONTINUOUS
10
67.125
20
-98.1964
11
67.2679
21
-97.9107
0
LINE
8
BLACK
6
CONTINUOUS
10
67.2679
20
-97.9107
11
67.2679
21
-97.1964
0
LINE
8
BLACK
6
CONTINUOUS
10
67.2679
20
-97.1964
11
67.125
21
-96.9107
0
LINE
8
BLACK
6
CONTINUOUS
10
67.125
20
-96.9107
11
66.9821
21
-96.7679
0
LINE
8
BLACK
6
CONTINUOUS
10
66.9821
20
-96.7679
11
66.6964
21
-96.625
0
LINE
8
BLACK
6
CONTINUOUS
10
66.6964
20
-96.625
11
66.125
21
-96.625
0
LINE
8
BLACK
6
CONTINUOUS
10
66.125
20
-96.625
11
65.8393
21
-96.7679
0
LINE
8
BLACK
6
CONTINUOUS
10
65.8393
20
-96.7679
11
65.6964
21
-96.9107
0
LINE
8
BLACK
6
CONTINUOUS
10
65.6964
20
-96.9107
11
65.5536
21
-97.1964
0
LINE
8
BLACK
6
CONTINUOUS
10
68.2679
20
-95.4821
11
70.2679
21
-95.4821
0
LINE
8
BLACK
6
CONTINUOUS
10
70.2679
20
-95.4821
11
68.9821
21
-98.4821
0
LINE
8
BLACK
6
CONTINUOUS
10
71.2679
20
-95.4821
11
71.2679
21
-96.0536
0
LINE
8
BLACK
6
CONTINUOUS
10
72.4107
20
-95.4821
11
72.4107
21
-96.0536
0
LINE
8
BLACK
6
CONTINUOUS
10
76.8393
20
-99.625
11
76.6964
21
-99.4821
0
LINE
8
BLACK
6
CONTINUOUS
10
76.6964
20
-99.4821
11
76.4107
21
-99.0536
0
LINE
8
BLACK
6
CONTINUOUS
10
76.4107
20
-99.0536
11
76.2679
21
-98.7679
0
LINE
8
BLACK
6
CONTINUOUS
10
76.2679
20
-98.7679
11
76.125
21
-98.3393
0
LINE
8
BLACK
6
CONTINUOUS
10
76.125
20
-98.3393
11
75.9821
21
-97.625
0
LINE
8
BLACK
6
CONTINUOUS
10
75.9821
20
-97.625
11
75.9821
21
-97.0536
0
LINE
8
BLACK
6
CONTINUOUS
10
75.9821
20
-97.0536
11
76.125
21
-96.3393
0
LINE
8
BLACK
6
CONTINUOUS
10
76.125
20
-96.3393
11
76.2679
21
-95.9107
0
LINE
8
BLACK
6
CONTINUOUS
10
76.2679
20
-95.9107
11
76.4107
21
-95.625
0
LINE
8
BLACK
6
CONTINUOUS
10
76.4107
20
-95.625
11
76.6964
21
-95.1964
0
LINE
8
BLACK
6
CONTINUOUS
10
76.6964
20
-95.1964
11
76.8393
21
-95.0536
0
LINE
8
BLACK
6
CONTINUOUS
10
77.8393
20
-95.7679
11
77.9821
21
-95.625
0
LINE
8
BLACK
6
CONTINUOUS
10
77.9821
20
-95.625
11
78.2679
21
-95.4821
0
LINE
8
BLACK
6
CONTINUOUS
10
78.2679
20
-95.4821
11
78.9821
21
-95.4821
0
LINE
8
BLACK
6
CONTINUOUS
10
78.9821
20
-95.4821
11
79.2679
21
-95.625
0
LINE
8
BLACK
6
CONTINUOUS
10
79.2679
20
-95.625
11
79.4107
21
-95.7679
0
LINE
8
BLACK
6
CONTINUOUS
10
79.4107
20
-95.7679
11
79.5536
21
-96.0536
0
LINE
8
BLACK
6
CONTINUOUS
10
79.5536
20
-96.0536
11
79.5536
21
-96.3393
0
LINE
8
BLACK
6
CONTINUOUS
10
79.5536
20
-96.3393
11
79.4107
21
-96.7679
0
LINE
8
BLACK
6
CONTINUOUS
10
79.4107
20
-96.7679
11
77.6964
21
-98.4821
0
LINE
8
BLACK
6
CONTINUOUS
10
77.6964
20
-98.4821
11
79.5536
21
-98.4821
0
LINE
8
BLACK
6
CONTINUOUS
10
83.125
20
-98.4821
11
83.125
21
-95.4821
0
LINE
8
BLACK
6
CONTINUOUS
10
84.4107
20
-98.4821
11
84.4107
21
-96.9107
0
LINE
8
BLACK
6
CONTINUOUS
10
84.4107
20
-96.9107
11
84.2679
21
-96.625
0
LINE
8
BLACK
6
CONTINUOUS
10
84.2679
20
-96.625
11
83.9821
21
-96.4821
0
LINE
8
BLACK
6
CONTINUOUS
10
83.9821
20
-96.4821
11
83.5536
21
-96.4821
0
LINE
8
BLACK
6
CONTINUOUS
10
83.5536
20
-96.4821
11
83.2679
21
-96.625
0
LINE
8
BLACK
6
CONTINUOUS
10
83.2679
20
-96.625
11
83.125
21
-96.7679
0
LINE
8
BLACK
6
CONTINUOUS
10
86.2679
20
-98.4821
11
85.9821
21
-98.3393
0
LINE
8
BLACK
6
CONTINUOUS
10
85.9821
20
-98.3393
11
85.8393
21
-98.1964
0
LINE
8
BLACK
6
CONTINUOUS
10
85.8393
20
-98.1964
11
85.6964
21
-97.9107
0
LINE
8
BLACK
6
CONTINUOUS
10
85.6964
20
-97.9107
11
85.6964
21
-97.0536
0
LINE
8
BLACK
6
CONTINUOUS
10
85.6964
20
-97.0536
11
85.8393
21
-96.7679
0
LINE
8
BLACK
6
CONTINUOUS
10
85.8393
20
-96.7679
11
85.9821
21
-96.625
0
LINE
8
BLACK
6
CONTINUOUS
10
85.9821
20
-96.625
11
86.2679
21
-96.4821
0
LINE
8
BLACK
6
CONTINUOUS
10
86.2679
20
-96.4821
11
86.6964
21
-96.4821
0
LINE
8
BLACK
6
CONTINUOUS
10
86.6964
20
-96.4821
11
86.9821
21
-96.625
0
LINE
8
BLACK
6
CONTINUOUS
10
86.9821
20
-96.625
11
87.125
21
-96.7679
0
LINE
8
BLACK
6
CONTINUOUS
10
87.125
20
-96.7679
11
87.2679
21
-97.0536
0
LINE
8
BLACK
6
CONTINUOUS
10
87.2679
20
-97.0536
11
87.2679
21
-97.9107
0
LINE
8
BLACK
6
CONTINUOUS
10
87.2679
20
-97.9107
11
87.125
21
-98.1964
0
LINE
8
BLACK
6
CONTINUOUS
10
87.125
20
-98.1964
11
86.9821
21
-98.3393
0
LINE
8
BLACK
6
CONTINUOUS
10
86.9821
20
-98.3393
11
86.6964
21
-98.4821
0
LINE
8
BLACK
6
CONTINUOUS
10
86.6964
20
-98.4821
11
86.2679
21
-98.4821
0
LINE
8
BLACK
6
CONTINUOUS
10
88.9821
20
-98.4821
11
88.6964
21
-98.3393
0
LINE
8
BLACK
6
CONTINUOUS
10
88.6964
20
-98.3393
11
88.5536
21
-98.0536
0
LINE
8
BLACK
6
CONTINUOUS
10
88.5536
20
-98.0536
11
88.5536
21
-95.4821
0
LINE
8
BLACK
6
CONTINUOUS
10
91.2679
20
-98.3393
11
90.9821
21
-98.4821
0
LINE
8
BLACK
6
CONTINUOUS
10
90.9821
20
-98.4821
11
90.4107
21
-98.4821
0
LINE
8
BLACK
6
CONTINUOUS
10
90.4107
20
-98.4821
11
90.125
21
-98.3393
0
LINE
8
BLACK
6
CONTINUOUS
10
90.125
20
-98.3393
11
89.9821
21
-98.0536
0
LINE
8
BLACK
6
CONTINUOUS
10
89.9821
20
-98.0536
11
89.9821
21
-96.9107
0
LINE
8
BLACK
6
CONTINUOUS
10
89.9821
20
-96.9107
11
90.125
21
-96.625
0
LINE
8
BLACK
6
CONTINUOUS
10
90.125
20
-96.625
11
90.4107
21
-96.4821
0
LINE
8
BLACK
6
CONTINUOUS
10
90.4107
20
-96.4821
11
90.9821
21
-96.4821
0
LINE
8
BLACK
6
CONTINUOUS
10
90.9821
20
-96.4821
11
91.2679
21
-96.625
0
LINE
8
BLACK
6
CONTINUOUS
10
91.2679
20
-96.625
11
91.4107
21
-96.9107
0
LINE
8
BLACK
6
CONTINUOUS
10
91.4107
20
-96.9107
11
91.4107
21
-97.1964
0
LINE
8
BLACK
6
CONTINUOUS
10
91.4107
20
-97.1964
11
89.9821
21
-97.4821
0
LINE
8
BLACK
6
CONTINUOUS
10
92.5536
20
-98.3393
11
92.8393
21
-98.4821
0
LINE
8
BLACK
6
CONTINUOUS
10
92.8393
20
-98.4821
11
93.4107
21
-98.4821
0
LINE
8
BLACK
6
CONTINUOUS
10
93.4107
20
-98.4821
11
93.6964
21
-98.3393
0
LINE
8
BLACK
6
CONTINUOUS
10
93.6964
20
-98.3393
11
93.8393
21
-98.0536
0
LINE
8
BLACK
6
CONTINUOUS
10
93.8393
20
-98.0536
11
93.8393
21
-97.9107
0
LINE
8
BLACK
6
CONTINUOUS
10
93.8393
20
-97.9107
11
93.6964
21
-97.625
0
LINE
8
BLACK
6
CONTINUOUS
10
93.6964
20
-97.625
11
93.4107
21
-97.4821
0
LINE
8
BLACK
6
CONTINUOUS
10
93.4107
20
-97.4821
11
92.9821
21
-97.4821
0
LINE
8
BLACK
6
CONTINUOUS
10
92.9821
20
-97.4821
11
92.6964
21
-97.3393
0
LINE
8
BLACK
6
CONTINUOUS
10
92.6964
20
-97.3393
11
92.5536
21
-97.0536
0
LINE
8
BLACK
6
CONTINUOUS
10
92.5536
20
-97.0536
11
92.5536
21
-96.9107
0
LINE
8
BLACK
6
CONTINUOUS
10
92.5536
20
-96.9107
11
92.6964
21
-96.625
0
LINE
8
BLACK
6
CONTINUOUS
10
92.6964
20
-96.625
11
92.9821
21
-96.4821
0
LINE
8
BLACK
6
CONTINUOUS
10
92.9821
20
-96.4821
11
93.4107
21
-96.4821
0
LINE
8
BLACK
6
CONTINUOUS
10
93.4107
20
-96.4821
11
93.6964
21
-96.625
0
LINE
8
BLACK
6
CONTINUOUS
10
94.8393
20
-99.625
11
94.9821
21
-99.4821
0
LINE
8
BLACK
6
CONTINUOUS
10
94.9821
20
-99.4821
11
95.2679
21
-99.0536
0
LINE
8
BLACK
6
CONTINUOUS
10
95.2679
20
-99.0536
11
95.4107
21
-98.7679
0
LINE
8
BLACK
6
CONTINUOUS
10
95.4107
20
-98.7679
11
95.5536
21
-98.3393
0
LINE
8
BLACK
6
CONTINUOUS
10
95.5536
20
-98.3393
11
95.6964
21
-97.625
0
LINE
8
BLACK
6
CONTINUOUS
10
95.6964
20
-97.625
11
95.6964
21
-97.0536
0
LINE
8
BLACK
6
CONTINUOUS
10
95.6964
20
-97.0536
11
95.5536
21
-96.3393
0
LINE
8
BLACK
6
CONTINUOUS
10
95.5536
20
-96.3393
11
95.4107
21
-95.9107
0
LINE
8
BLACK
6
CONTINUOUS
10
95.4107
20
-95.9107
11
95.2679
21
-95.625
0
LINE
8
BLACK
6
CONTINUOUS
10
95.2679
20
-95.625
11
94.9821
21
-95.1964
0
LINE
8
BLACK
6
CONTINUOUS
10
94.9821
20
-95.1964
11
94.8393
21
-95.0536
0
LINE
8
BLACK
6
CONTINUOUS
10
100.268
20
-99.625
11
100.125
21
-99.4821
0
LINE
8
BLACK
6
CONTINUOUS
10
100.125
20
-99.4821
11
99.8393
21
-99.0536
0
LINE
8
BLACK
6
CONTINUOUS
10
99.8393
20
-99.0536
11
99.6964
21
-98.7679
0
LINE
8
BLACK
6
CONTINUOUS
10
99.6964
20
-98.7679
11
99.5536
21
-98.3393
0
LINE
8
BLACK
6
CONTINUOUS
10
99.5536
20
-98.3393
11
99.4107
21
-97.625
0
LINE
8
BLACK
6
CONTINUOUS
10
99.4107
20
-97.625
11
99.4107
21
-97.0536
0
LINE
8
BLACK
6
CONTINUOUS
10
99.4107
20
-97.0536
11
99.5536
21
-96.3393
0
LINE
8
BLACK
6
CONTINUOUS
10
99.5536
20
-96.3393
11
99.6964
21
-95.9107
0
LINE
8
BLACK
6
CONTINUOUS
10
99.6964
20
-95.9107
11
99.8393
21
-95.625
0
LINE
8
BLACK
6
CONTINUOUS
10
99.8393
20
-95.625
11
100.125
21
-95.1964
0
LINE
8
BLACK
6
CONTINUOUS
10
100.125
20
-95.1964
11
100.268
21
-95.0536
0
LINE
8
BLACK
6
CONTINUOUS
10
101.411
20
-96.4821
11
101.411
21
-98.4821
0
LINE
8
BLACK
6
CONTINUOUS
10
101.411
20
-96.7679
11
101.554
21
-96.625
0
LINE
8
BLACK
6
CONTINUOUS
10
101.554
20
-96.625
11
101.839
21
-96.4821
0
LINE
8
BLACK
6
CONTINUOUS
10
101.839
20
-96.4821
11
102.268
21
-96.4821
0
LINE
8
BLACK
6
CONTINUOUS
10
102.268
20
-96.4821
11
102.554
21
-96.625
0
LINE
8
BLACK
6
CONTINUOUS
10
102.554
20
-96.625
11
102.696
21
-96.9107
0
LINE
8
BLACK
6
CONTINUOUS
10
102.696
20
-96.9107
11
102.696
21
-98.4821
0
LINE
8
BLACK
6
CONTINUOUS
10
104.554
20
-98.4821
11
104.268
21
-98.3393
0
LINE
8
BLACK
6
CONTINUOUS
10
104.268
20
-98.3393
11
104.125
21
-98.1964
0
LINE
8
BLACK
6
CONTINUOUS
10
104.125
20
-98.1964
11
103.982
21
-97.9107
0
LINE
8
BLACK
6
CONTINUOUS
10
103.982
20
-97.9107
11
103.982
21
-97.0536
0
LINE
8
BLACK
6
CONTINUOUS
10
103.982
20
-97.0536
11
104.125
21
-96.7679
0
LINE
8
BLACK
6
CONTINUOUS
10
104.125
20
-96.7679
11
104.268
21
-96.625
0
LINE
8
BLACK
6
CONTINUOUS
10
104.268
20
-96.625
11
104.554
21
-96.4821
0
LINE
8
BLACK
6
CONTINUOUS
10
104.554
20
-96.4821
11
104.982
21
-96.4821
0
LINE
8
BLACK
6
CONTINUOUS
10
104.982
20
-96.4821
11
105.268
21
-96.625
0
LINE
8
BLACK
6
CONTINUOUS
10
105.268
20
-96.625
11
105.411
21
-96.7679
0
LINE
8
BLACK
6
CONTINUOUS
10
105.411
20
-96.7679
11
105.554
21
-97.0536
0
LINE
8
BLACK
6
CONTINUOUS
10
105.554
20
-97.0536
11
105.554
21
-97.9107
0
LINE
8
BLACK
6
CONTINUOUS
10
105.554
20
-97.9107
11
105.411
21
-98.1964
0
LINE
8
BLACK
6
CONTINUOUS
10
105.411
20
-98.1964
11
105.268
21
-98.3393
0
LINE
8
BLACK
6
CONTINUOUS
10
105.268
20
-98.3393
11
104.982
21
-98.4821
0
LINE
8
BLACK
6
CONTINUOUS
10
104.982
20
-98.4821
11
104.554
21
-98.4821
0
LINE
8
BLACK
6
CONTINUOUS
10
106.411
20
-96.4821
11
107.554
21
-96.4821
0
LINE
8
BLACK
6
CONTINUOUS
10
106.839
20
-95.4821
11
106.839
21
-98.0536
0
LINE
8
BLACK
6
CONTINUOUS
10
106.839
20
-98.0536
11
106.982
21
-98.3393
0
LINE
8
BLACK
6
CONTINUOUS
10
106.982
20
-98.3393
11
107.268
21
-98.4821
0
LINE
8
BLACK
6
CONTINUOUS
10
107.268
20
-98.4821
11
107.554
21
-98.4821
0
LINE
8
BLACK
6
CONTINUOUS
10
110.839
20
-96.4821
11
110.839
21
-99.4821
0
LINE
8
BLACK
6
CONTINUOUS
10
110.839
20
-96.625
11
111.125
21
-96.4821
0
LINE
8
BLACK
6
CONTINUOUS
10
111.125
20
-96.4821
11
111.696
21
-96.4821
0
LINE
8
BLACK
6
CONTINUOUS
10
111.696
20
-96.4821
11
111.982
21
-96.625
0
LINE
8
BLACK
6
CONTINUOUS
10
111.982
20
-96.625
11
112.125
21
-96.7679
0
LINE
8
BLACK
6
CONTINUOUS
10
112.125
20
-96.7679
11
112.268
21
-97.0536
0
LINE
8
BLACK
6
CONTINUOUS
10
112.268
20
-97.0536
11
112.268
21
-97.9107
0
LINE
8
BLACK
6
CONTINUOUS
10
112.268
20
-97.9107
11
112.125
21
-98.1964
0
LINE
8
BLACK
6
CONTINUOUS
10
112.125
20
-98.1964
11
111.982
21
-98.3393
0
LINE
8
BLACK
6
CONTINUOUS
10
111.982
20
-98.3393
11
111.696
21
-98.4821
0
LINE
8
BLACK
6
CONTINUOUS
10
111.696
20
-98.4821
11
111.125
21
-98.4821
0
LINE
8
BLACK
6
CONTINUOUS
10
111.125
20
-98.4821
11
110.839
21
-98.3393
0
LINE
8
BLACK
6
CONTINUOUS
10
113.982
20
-98.4821
11
113.696
21
-98.3393
0
LINE
8
BLACK
6
CONTINUOUS
10
113.696
20
-98.3393
11
113.554
21
-98.0536
0
LINE
8
BLACK
6
CONTINUOUS
10
113.554
20
-98.0536
11
113.554
21
-95.4821
0
LINE
8
BLACK
6
CONTINUOUS
10
116.411
20
-98.4821
11
116.411
21
-96.9107
0
LINE
8
BLACK
6
CONTINUOUS
10
116.411
20
-96.9107
11
116.268
21
-96.625
0
LINE
8
BLACK
6
CONTINUOUS
10
116.268
20
-96.625
11
115.982
21
-96.4821
0
LINE
8
BLACK
6
CONTINUOUS
10
115.982
20
-96.4821
11
115.411
21
-96.4821
0
LINE
8
BLACK
6
CONTINUOUS
10
115.411
20
-96.4821
11
115.125
21
-96.625
0
LINE
8
BLACK
6
CONTINUOUS
10
116.411
20
-98.3393
11
116.125
21
-98.4821
0
LINE
8
BLACK
6
CONTINUOUS
10
116.125
20
-98.4821
11
115.411
21
-98.4821
0
LINE
8
BLACK
6
CONTINUOUS
10
115.411
20
-98.4821
11
115.125
21
-98.3393
0
LINE
8
BLACK
6
CONTINUOUS
10
115.125
20
-98.3393
11
114.982
21
-98.0536
0
LINE
8
BLACK
6
CONTINUOUS
10
114.982
20
-98.0536
11
114.982
21
-97.7679
0
LINE
8
BLACK
6
CONTINUOUS
10
114.982
20
-97.7679
11
115.125
21
-97.4821
0
LINE
8
BLACK
6
CONTINUOUS
10
115.125
20
-97.4821
11
115.411
21
-97.3393
0
LINE
8
BLACK
6
CONTINUOUS
10
115.411
20
-97.3393
11
116.125
21
-97.3393
0
LINE
8
BLACK
6
CONTINUOUS
10
116.125
20
-97.3393
11
116.411
21
-97.1964
0
LINE
8
BLACK
6
CONTINUOUS
10
117.411
20
-96.4821
11
118.554
21
-96.4821
0
LINE
8
BLACK
6
CONTINUOUS
10
117.839
20
-95.4821
11
117.839
21
-98.0536
0
LINE
8
BLACK
6
CONTINUOUS
10
117.839
20
-98.0536
11
117.982
21
-98.3393
0
LINE
8
BLACK
6
CONTINUOUS
10
117.982
20
-98.3393
11
118.268
21
-98.4821
0
LINE
8
BLACK
6
CONTINUOUS
10
118.268
20
-98.4821
11
118.554
21
-98.4821
0
LINE
8
BLACK
6
CONTINUOUS
10
120.696
20
-98.3393
11
120.411
21
-98.4821
0
LINE
8
BLACK
6
CONTINUOUS
10
120.411
20
-98.4821
11
119.839
21
-98.4821
0
LINE
8
BLACK
6
CONTINUOUS
10
119.839
20
-98.4821
11
119.554
21
-98.3393
0
LINE
8
BLACK
6
CONTINUOUS
10
119.554
20
-98.3393
11
119.411
21
-98.0536
0
LINE
8
BLACK
6
CONTINUOUS
10
119.411
20
-98.0536
11
119.411
21
-96.9107
0
LINE
8
BLACK
6
CONTINUOUS
10
119.411
20
-96.9107
11
119.554
21
-96.625
0
LINE
8
BLACK
6
CONTINUOUS
10
119.554
20
-96.625
11
119.839
21
-96.4821
0
LINE
8
BLACK
6
CONTINUOUS
10
119.839
20
-96.4821
11
120.411
21
-96.4821
0
LINE
8
BLACK
6
CONTINUOUS
10
120.411
20
-96.4821
11
120.696
21
-96.625
0
LINE
8
BLACK
6
CONTINUOUS
10
120.696
20
-96.625
11
120.839
21
-96.9107
0
LINE
8
BLACK
6
CONTINUOUS
10
120.839
20
-96.9107
11
120.839
21
-97.1964
0
LINE
8
BLACK
6
CONTINUOUS
10
120.839
20
-97.1964
11
119.411
21
-97.4821
0
LINE
8
BLACK
6
CONTINUOUS
10
123.411
20
-98.4821
11
123.411
21
-95.4821
0
LINE
8
BLACK
6
CONTINUOUS
10
123.411
20
-98.3393
11
123.125
21
-98.4821
0
LINE
8
BLACK
6
CONTINUOUS
10
123.125
20
-98.4821
11
122.554
21
-98.4821
0
LINE
8
BLACK
6
CONTINUOUS
10
122.554
20
-98.4821
11
122.268
21
-98.3393
0
LINE
8
BLACK
6
CONTINUOUS
10
122.268
20
-98.3393
11
122.125
21
-98.1964
0
LINE
8
BLACK
6
CONTINUOUS
10
122.125
20
-98.1964
11
121.982
21
-97.9107
0
LINE
8
BLACK
6
CONTINUOUS
10
121.982
20
-97.9107
11
121.982
21
-97.0536
0
LINE
8
BLACK
6
CONTINUOUS
10
121.982
20
-97.0536
11
122.125
21
-96.7679
0
LINE
8
BLACK
6
CONTINUOUS
10
122.125
20
-96.7679
11
122.268
21
-96.625
0
LINE
8
BLACK
6
CONTINUOUS
10
122.268
20
-96.625
11
122.554
21
-96.4821
0
LINE
8
BLACK
6
CONTINUOUS
10
122.554
20
-96.4821
11
123.125
21
-96.4821
0
LINE
8
BLACK
6
CONTINUOUS
10
123.125
20
-96.4821
11
123.411
21
-96.625
0
LINE
8
BLACK
6
CONTINUOUS
10
124.554
20
-99.625
11
124.696
21
-99.4821
0
LINE
8
BLACK
6
CONTINUOUS
10
124.696
20
-99.4821
11
124.982
21
-99.0536
0
LINE
8
BLACK
6
CONTINUOUS
10
124.982
20
-99.0536
11
125.125
21
-98.7679
0
LINE
8
BLACK
6
CONTINUOUS
10
125.125
20
-98.7679
11
125.268
21
-98.3393
0
LINE
8
BLACK
6
CONTINUOUS
10
125.268
20
-98.3393
11
125.411
21
-97.625
0
LINE
8
BLACK
6
CONTINUOUS
10
125.411
20
-97.625
11
125.411
21
-97.0536
0
LINE
8
BLACK
6
CONTINUOUS
10
125.411
20
-97.0536
11
125.268
21
-96.3393
0
LINE
8
BLACK
6
CONTINUOUS
10
125.268
20
-96.3393
11
125.125
21
-95.9107
0
LINE
8
BLACK
6
CONTINUOUS
10
125.125
20
-95.9107
11
124.982
21
-95.625
0
LINE
8
BLACK
6
CONTINUOUS
10
124.982
20
-95.625
11
124.696
21
-95.1964
0
LINE
8
BLACK
6
CONTINUOUS
10
124.696
20
-95.1964
11
124.554
21
-95.0536
0
CIRCLE
8
BLACK
10
28.5
20
-101.085
40
1.475
0
LINE
8
BLACK
6
CONTINUOUS
10
32.6964
20
-99.7279
11
32.8393
21
-99.585
0
LINE
8
BLACK
6
CONTINUOUS
10
32.8393
20
-99.585
11
33.125
21
-99.4421
0
LINE
8
BLACK
6
CONTINUOUS
10
33.125
20
-99.4421
11
33.8393
21
-99.4421
0
LINE
8
BLACK
6
CONTINUOUS
10
33.8393
20
-99.4421
11
34.125
21
-99.585
0
LINE
8
BLACK
6
CONTINUOUS
10
34.125
20
-99.585
11
34.2679
21
-99.7279
0
LINE
8
BLACK
6
CONTINUOUS
10
34.2679
20
-99.7279
11
34.4107
21
-100.014
0
LINE
8
BLACK
6
CONTINUOUS
10
34.4107
20
-100.014
11
34.4107
21
-100.299
0
LINE
8
BLACK
6
CONTINUOUS
10
34.4107
20
-100.299
11
34.2679
21
-100.728
0
LINE
8
BLACK
6
CONTINUOUS
10
34.2679
20
-100.728
11
32.5536
21
-102.442
0
LINE
8
BLACK
6
CONTINUOUS
10
32.5536
20
-102.442
11
34.4107
21
-102.442
0
LINE
8
BLACK
6
CONTINUOUS
10
35.6964
20
-102.156
11
35.8393
21
-102.299
0
LINE
8
BLACK
6
CONTINUOUS
10
35.8393
20
-102.299
11
35.6964
21
-102.442
0
LINE
8
BLACK
6
CONTINUOUS
10
35.6964
20
-102.442
11
35.5536
21
-102.299
0
LINE
8
BLACK
6
CONTINUOUS
10
35.5536
20
-102.299
11
35.6964
21
-102.156
0
LINE
8
BLACK
6
CONTINUOUS
10
35.6964
20
-102.156
11
35.6964
21
-102.442
0
LINE
8
BLACK
6
CONTINUOUS
10
37.2679
20
-102.442
11
37.8393
21
-102.442
0
LINE
8
BLACK
6
CONTINUOUS
10
37.8393
20
-102.442
11
38.125
21
-102.299
0
LINE
8
BLACK
6
CONTINUOUS
10
38.125
20
-102.299
11
38.2679
21
-102.156
0
LINE
8
BLACK
6
CONTINUOUS
10
38.2679
20
-102.156
11
38.5536
21
-101.728
0
LINE
8
BLACK
6
CONTINUOUS
10
38.5536
20
-101.728
11
38.6964
21
-101.156
0
LINE
8
BLACK
6
CONTINUOUS
10
38.6964
20
-101.156
11
38.6964
21
-100.014
0
LINE
8
BLACK
6
CONTINUOUS
10
38.6964
20
-100.014
11
38.5536
21
-99.7279
0
LINE
8
BLACK
6
CONTINUOUS
10
38.5536
20
-99.7279
11
38.4107
21
-99.585
0
LINE
8
BLACK
6
CONTINUOUS
10
38.4107
20
-99.585
11
38.125
21
-99.4421
0
LINE
8
BLACK
6
CONTINUOUS
10
38.125
20
-99.4421
11
37.5536
21
-99.4421
0
LINE
8
BLACK
6
CONTINUOUS
10
37.5536
20
-99.4421
11
37.2679
21
-99.585
0
LINE
8
BLACK
6
CONTINUOUS
10
37.2679
20
-99.585
11
37.125
21
-99.7279
0
LINE
8
BLACK
6
CONTINUOUS
10
37.125
20
-99.7279
11
36.9821
21
-100.014
0
LINE
8
BLACK
6
CONTINUOUS
10
36.9821
20
-100.014
11
36.9821
21
-100.728
0
LINE
8
BLACK
6
CONTINUOUS
10
36.9821
20
-100.728
11
37.125
21
-101.014
0
LINE
8
BLACK
6
CONTINUOUS
10
37.125
20
-101.014
11
37.2679
21
-101.156
0
LINE
8
BLACK
6
CONTINUOUS
10
37.2679
20
-101.156
11
37.5536
21
-101.299
0
LINE
8
BLACK
6
CONTINUOUS
10
37.5536
20
-101.299
11
38.125
21
-101.299
0
LINE
8
BLACK
6
CONTINUOUS
10
38.125
20
-101.299
11
38.4107
21
-101.156
0
LINE
8
BLACK
6
CONTINUOUS
10
38.4107
20
-101.156
11
38.5536
21
-101.014
0
LINE
8
BLACK
6
CONTINUOUS
10
38.5536
20
-101.014
11
38.6964
21
-100.728
0
LINE
8
BLACK
6
CONTINUOUS
10
41.4107
20
-99.4421
11
39.9821
21
-99.4421
0
LINE
8
BLACK
6
CONTINUOUS
10
39.9821
20
-99.4421
11
39.8393
21
-100.871
0
LINE
8
BLACK
6
CONTINUOUS
10
39.8393
20
-100.871
11
39.9821
21
-100.728
0
LINE
8
BLACK
6
CONTINUOUS
10
39.9821
20
-100.728
11
40.2679
21
-100.585
0
LINE
8
BLACK
6
CONTINUOUS
10
40.2679
20
-100.585
11
40.9821
21
-100.585
0
LINE
8
BLACK
6
CONTINUOUS
10
40.9821
20
-100.585
11
41.2679
21
-100.728
0
LINE
8
BLACK
6
CONTINUOUS
10
41.2679
20
-100.728
11
41.4107
21
-100.871
0
LINE
8
BLACK
6
CONTINUOUS
10
41.4107
20
-100.871
11
41.5536
21
-101.156
0
LINE
8
BLACK
6
CONTINUOUS
10
41.5536
20
-101.156
11
41.5536
21
-101.871
0
LINE
8
BLACK
6
CONTINUOUS
10
41.5536
20
-101.871
11
41.4107
21
-102.156
0
LINE
8
BLACK
6
CONTINUOUS
10
41.4107
20
-102.156
11
41.2679
21
-102.299
0
LINE
8
BLACK
6
CONTINUOUS
10
41.2679
20
-102.299
11
40.9821
21
-102.442
0
LINE
8
BLACK
6
CONTINUOUS
10
40.9821
20
-102.442
11
40.2679
21
-102.442
0
LINE
8
BLACK
6
CONTINUOUS
10
40.2679
20
-102.442
11
39.9821
21
-102.299
0
LINE
8
BLACK
6
CONTINUOUS
10
39.9821
20
-102.299
11
39.8393
21
-102.156
0
LINE
8
BLACK
6
CONTINUOUS
10
42.8393
20
-102.442
11
42.8393
21
-100.442
0
LINE
8
BLACK
6
CONTINUOUS
10
42.8393
20
-100.728
11
42.9821
21
-100.585
0
LINE
8
BLACK
6
CONTINUOUS
10
42.9821
20
-100.585
11
43.2679
21
-100.442
0
LINE
8
BLACK
6
CONTINUOUS
10
43.2679
20
-100.442
11
43.6964
21
-100.442
0
LINE
8
BLACK
6
CONTINUOUS
10
43.6964
20
-100.442
11
43.9821
21
-100.585
0
LINE
8
BLACK
6
CONTINUOUS
10
43.9821
20
-100.585
11
44.125
21
-100.871
0
LINE
8
BLACK
6
CONTINUOUS
10
44.125
20
-100.871
11
44.125
21
-102.442
0
LINE
8
BLACK
6
CONTINUOUS
10
44.125
20
-100.871
11
44.2679
21
-100.585
0
LINE
8
BLACK
6
CONTINUOUS
10
44.2679
20
-100.585
11
44.5536
21
-100.442
0
LINE
8
BLACK
6
CONTINUOUS
10
44.5536
20
-100.442
11
44.9821
21
-100.442
0
LINE
8
BLACK
6
CONTINUOUS
10
44.9821
20
-100.442
11
45.2679
21
-100.585
0
LINE
8
BLACK
6
CONTINUOUS
10
45.2679
20
-100.585
11
45.4107
21
-100.871
0
LINE
8
BLACK
6
CONTINUOUS
10
45.4107
20
-100.871
11
45.4107
21
-102.442
0
LINE
8
BLACK
6
CONTINUOUS
10
46.8393
20
-102.442
11
46.8393
21
-100.442
0
LINE
8
BLACK
6
CONTINUOUS
10
46.8393
20
-100.728
11
46.9821
21
-100.585
0
LINE
8
BLACK
6
CONTINUOUS
10
46.9821
20
-100.585
11
47.2679
21
-100.442
0
LINE
8
BLACK
6
CONTINUOUS
10
47.2679
20
-100.442
11
47.6964
21
-100.442
0
LINE
8
BLACK
6
CONTINUOUS
10
47.6964
20
-100.442
11
47.9821
21
-100.585
0
LINE
8
BLACK
6
CONTINUOUS
10
47.9821
20
-100.585
11
48.125
21
-100.871
0
LINE
8
BLACK
6
CONTINUOUS
10
48.125
20
-100.871
11
48.125
21
-102.442
0
LINE
8
BLACK
6
CONTINUOUS
10
48.125
20
-100.871
11
48.2679
21
-100.585
0
LINE
8
BLACK
6
CONTINUOUS
10
48.2679
20
-100.585
11
48.5536
21
-100.442
0
LINE
8
BLACK
6
CONTINUOUS
10
48.5536
20
-100.442
11
48.9821
21
-100.442
0
LINE
8
BLACK
6
CONTINUOUS
10
48.9821
20
-100.442
11
49.2679
21
-100.585
0
LINE
8
BLACK
6
CONTINUOUS
10
49.2679
20
-100.585
11
49.4107
21
-100.871
0
LINE
8
BLACK
6
CONTINUOUS
10
49.4107
20
-100.871
11
49.4107
21
-102.442
0
LINE
8
BLACK
6
CONTINUOUS
10
55.2679
20
-99.2993
11
52.6964
21
-103.156
0
LINE
8
BLACK
6
CONTINUOUS
10
59.125
20
-99.4421
11
59.4107
21
-99.4421
0
LINE
8
BLACK
6
CONTINUOUS
10
59.4107
20
-99.4421
11
59.6964
21
-99.585
0
LINE
8
BLACK
6
CONTINUOUS
10
59.6964
20
-99.585
11
59.8393
21
-99.7279
0
LINE
8
BLACK
6
CONTINUOUS
10
59.8393
20
-99.7279
11
59.9821
21
-100.014
0
LINE
8
BLACK
6
CONTINUOUS
10
59.9821
20
-100.014
11
60.125
21
-100.585
0
LINE
8
BLACK
6
CONTINUOUS
10
60.125
20
-100.585
11
60.125
21
-101.299
0
LINE
8
BLACK
6
CONTINUOUS
10
60.125
20
-101.299
11
59.9821
21
-101.871
0
LINE
8
BLACK
6
CONTINUOUS
10
59.9821
20
-101.871
11
59.8393
21
-102.156
0
LINE
8
BLACK
6
CONTINUOUS
10
59.8393
20
-102.156
11
59.6964
21
-102.299
0
LINE
8
BLACK
6
CONTINUOUS
10
59.6964
20
-102.299
11
59.4107
21
-102.442
0
LINE
8
BLACK
6
CONTINUOUS
10
59.4107
20
-102.442
11
59.125
21
-102.442
0
LINE
8
BLACK
6
CONTINUOUS
10
59.125
20
-102.442
11
58.8393
21
-102.299
0
LINE
8
BLACK
6
CONTINUOUS
10
58.8393
20
-102.299
11
58.6964
21
-102.156
0
LINE
8
BLACK
6
CONTINUOUS
10
58.6964
20
-102.156
11
58.5536
21
-101.871
0
LINE
8
BLACK
6
CONTINUOUS
10
58.5536
20
-101.871
11
58.4107
21
-101.299
0
LINE
8
BLACK
6
CONTINUOUS
10
58.4107
20
-101.299
11
58.4107
21
-100.585
0
LINE
8
BLACK
6
CONTINUOUS
10
58.4107
20
-100.585
11
58.5536
21
-100.014
0
LINE
8
BLACK
6
CONTINUOUS
10
58.5536
20
-100.014
11
58.6964
21
-99.7279
0
LINE
8
BLACK
6
CONTINUOUS
10
58.6964
20
-99.7279
11
58.8393
21
-99.585
0
LINE
8
BLACK
6
CONTINUOUS
10
58.8393
20
-99.585
11
59.125
21
-99.4421
0
LINE
8
BLACK
6
CONTINUOUS
10
61.4107
20
-102.156
11
61.5536
21
-102.299
0
LINE
8
BLACK
6
CONTINUOUS
10
61.5536
20
-102.299
11
61.4107
21
-102.442
0
LINE
8
BLACK
6
CONTINUOUS
10
61.4107
20
-102.442
11
61.2679
21
-102.299
0
LINE
8
BLACK
6
CONTINUOUS
10
61.2679
20
-102.299
11
61.4107
21
-102.156
0
LINE
8
BLACK
6
CONTINUOUS
10
61.4107
20
-102.156
11
61.4107
21
-102.442
0
LINE
8
BLACK
6
CONTINUOUS
10
64.4107
20
-102.442
11
62.6964
21
-102.442
0
LINE
8
BLACK
6
CONTINUOUS
10
63.5536
20
-102.442
11
63.5536
21
-99.4421
0
LINE
8
BLACK
6
CONTINUOUS
10
63.5536
20
-99.4421
11
63.2679
21
-99.8707
0
LINE
8
BLACK
6
CONTINUOUS
10
63.2679
20
-99.8707
11
62.9821
21
-100.156
0
LINE
8
BLACK
6
CONTINUOUS
10
62.9821
20
-100.156
11
62.6964
21
-100.299
0
LINE
8
BLACK
6
CONTINUOUS
10
67.2679
20
-102.442
11
65.5536
21
-102.442
0
LINE
8
BLACK
6
CONTINUOUS
10
66.4107
20
-102.442
11
66.4107
21
-99.4421
0
LINE
8
BLACK
6
CONTINUOUS
10
66.4107
20
-99.4421
11
66.125
21
-99.8707
0
LINE
8
BLACK
6
CONTINUOUS
10
66.125
20
-99.8707
11
65.8393
21
-100.156
0
LINE
8
BLACK
6
CONTINUOUS
10
65.8393
20
-100.156
11
65.5536
21
-100.299
0
LINE
8
BLACK
6
CONTINUOUS
10
69.8393
20
-99.4421
11
69.2679
21
-99.4421
0
LINE
8
BLACK
6
CONTINUOUS
10
69.2679
20
-99.4421
11
68.9821
21
-99.585
0
LINE
8
BLACK
6
CONTINUOUS
10
68.9821
20
-99.585
11
68.8393
21
-99.7279
0
LINE
8
BLACK
6
CONTINUOUS
10
68.8393
20
-99.7279
11
68.5536
21
-100.156
0
LINE
8
BLACK
6
CONTINUOUS
10
68.5536
20
-100.156
11
68.4107
21
-100.728
0
LINE
8
BLACK
6
CONTINUOUS
10
68.4107
20
-100.728
11
68.4107
21
-101.871
0
LINE
8
BLACK
6
CONTINUOUS
10
68.4107
20
-101.871
11
68.5536
21
-102.156
0
LINE
8
BLACK
6
CONTINUOUS
10
68.5536
20
-102.156
11
68.6964
21
-102.299
0
LINE
8
BLACK
6
CONTINUOUS
10
68.6964
20
-102.299
11
68.9821
21
-102.442
0
LINE
8
BLACK
6
CONTINUOUS
10
68.9821
20
-102.442
11
69.5536
21
-102.442
0
LINE
8
BLACK
6
CONTINUOUS
10
69.5536
20
-102.442
11
69.8393
21
-102.299
0
LINE
8
BLACK
6
CONTINUOUS
10
69.8393
20
-102.299
11
69.9821
21
-102.156
0
LINE
8
BLACK
6
CONTINUOUS
10
69.9821
20
-102.156
11
70.125
21
-101.871
0
LINE
8
BLACK
6
CONTINUOUS
10
70.125
20
-101.871
11
70.125
21
-101.156
0
LINE
8
BLACK
6
CONTINUOUS
10
70.125
20
-101.156
11
69.9821
21
-100.871
0
LINE
8
BLACK
6
CONTINUOUS
10
69.9821
20
-100.871
11
69.8393
21
-100.728
0
LINE
8
BLACK
6
CONTINUOUS
10
69.8393
20
-100.728
11
69.5536
21
-100.585
0
LINE
8
BLACK
6
CONTINUOUS
10
69.5536
20
-100.585
11
68.9821
21
-100.585
0
LINE
8
BLACK
6
CONTINUOUS
10
68.9821
20
-100.585
11
68.6964
21
-100.728
0
LINE
8
BLACK
6
CONTINUOUS
10
68.6964
20
-100.728
11
68.5536
21
-100.871
0
LINE
8
BLACK
6
CONTINUOUS
10
68.5536
20
-100.871
11
68.4107
21
-101.156
0
LINE
8
BLACK
6
CONTINUOUS
10
71.2679
20
-99.4421
11
71.2679
21
-100.014
0
LINE
8
BLACK
6
CONTINUOUS
10
72.4107
20
-99.4421
11
72.4107
21
-100.014
0
LINE
8
BLACK
6
CONTINUOUS
10
76.8393
20
-103.585
11
76.6964
21
-103.442
0
LINE
8
BLACK
6
CONTINUOUS
10
76.6964
20
-103.442
11
76.4107
21
-103.014
0
LINE
8
BLACK
6
CONTINUOUS
10
76.4107
20
-103.014
11
76.2679
21
-102.728
0
LINE
8
BLACK
6
CONTINUOUS
10
76.2679
20
-102.728
11
76.125
21
-102.299
0
LINE
8
BLACK
6
CONTINUOUS
10
76.125
20
-102.299
11
75.9821
21
-101.585
0
LINE
8
BLACK
6
CONTINUOUS
10
75.9821
20
-101.585
11
75.9821
21
-101.014
0
LINE
8
BLACK
6
CONTINUOUS
10
75.9821
20
-101.014
11
76.125
21
-100.299
0
LINE
8
BLACK
6
CONTINUOUS
10
76.125
20
-100.299
11
76.2679
21
-99.8707
0
LINE
8
BLACK
6
CONTINUOUS
10
76.2679
20
-99.8707
11
76.4107
21
-99.585
0
LINE
8
BLACK
6
CONTINUOUS
10
76.4107
20
-99.585
11
76.6964
21
-99.1564
0
LINE
8
BLACK
6
CONTINUOUS
10
76.6964
20
-99.1564
11
76.8393
21
-99.0136
0
LINE
8
BLACK
6
CONTINUOUS
10
77.8393
20
-99.7279
11
77.9821
21
-99.585
0
LINE
8
BLACK
6
CONTINUOUS
10
77.9821
20
-99.585
11
78.2679
21
-99.4421
0
LINE
8
BLACK
6
CONTINUOUS
10
78.2679
20
-99.4421
11
78.9821
21
-99.4421
0
LINE
8
BLACK
6
CONTINUOUS
10
78.9821
20
-99.4421
11
79.2679
21
-99.585
0
LINE
8
BLACK
6
CONTINUOUS
10
79.2679
20
-99.585
11
79.4107
21
-99.7279
0
LINE
8
BLACK
6
CONTINUOUS
10
79.4107
20
-99.7279
11
79.5536
21
-100.014
0
LINE
8
BLACK
6
CONTINUOUS
10
79.5536
20
-100.014
11
79.5536
21
-100.299
0
LINE
8
BLACK
6
CONTINUOUS
10
79.5536
20
-100.299
11
79.4107
21
-100.728
0
LINE
8
BLACK
6
CONTINUOUS
10
79.4107
20
-100.728
11
77.6964
21
-102.442
0
LINE
8
BLACK
6
CONTINUOUS
10
77.6964
20
-102.442
11
79.5536
21
-102.442
0
LINE
8
BLACK
6
CONTINUOUS
10
83.125
20
-102.442
11
83.125
21
-99.4421
0
LINE
8
BLACK
6
CONTINUOUS
10
84.4107
20
-102.442
11
84.4107
21
-100.871
0
LINE
8
BLACK
6
CONTINUOUS
10
84.4107
20
-100.871
11
84.2679
21
-100.585
0
LINE
8
BLACK
6
CONTINUOUS
10
84.2679
20
-100.585
11
83.9821
21
-100.442
0
LINE
8
BLACK
6
CONTINUOUS
10
83.9821
20
-100.442
11
83.5536
21
-100.442
0
LINE
8
BLACK
6
CONTINUOUS
10
83.5536
20
-100.442
11
83.2679
21
-100.585
0
LINE
8
BLACK
6
CONTINUOUS
10
83.2679
20
-100.585
11
83.125
21
-100.728
0
LINE
8
BLACK
6
CONTINUOUS
10
86.2679
20
-102.442
11
85.9821
21
-102.299
0
LINE
8
BLACK
6
CONTINUOUS
10
85.9821
20
-102.299
11
85.8393
21
-102.156
0
LINE
8
BLACK
6
CONTINUOUS
10
85.8393
20
-102.156
11
85.6964
21
-101.871
0
LINE
8
BLACK
6
CONTINUOUS
10
85.6964
20
-101.871
11
85.6964
21
-101.014
0
LINE
8
BLACK
6
CONTINUOUS
10
85.6964
20
-101.014
11
85.8393
21
-100.728
0
LINE
8
BLACK
6
CONTINUOUS
10
85.8393
20
-100.728
11
85.9821
21
-100.585
0
LINE
8
BLACK
6
CONTINUOUS
10
85.9821
20
-100.585
11
86.2679
21
-100.442
0
LINE
8
BLACK
6
CONTINUOUS
10
86.2679
20
-100.442
11
86.6964
21
-100.442
0
LINE
8
BLACK
6
CONTINUOUS
10
86.6964
20
-100.442
11
86.9821
21
-100.585
0
LINE
8
BLACK
6
CONTINUOUS
10
86.9821
20
-100.585
11
87.125
21
-100.728
0
LINE
8
BLACK
6
CONTINUOUS
10
87.125
20
-100.728
11
87.2679
21
-101.014
0
LINE
8
BLACK
6
CONTINUOUS
10
87.2679
20
-101.014
11
87.2679
21
-101.871
0
LINE
8
BLACK
6
CONTINUOUS
10
87.2679
20
-101.871
11
87.125
21
-102.156
0
LINE
8
BLACK
6
CONTINUOUS
10
87.125
20
-102.156
11
86.9821
21
-102.299
0
LINE
8
BLACK
6
CONTINUOUS
10
86.9821
20
-102.299
11
86.6964
21
-102.442
0
LINE
8
BLACK
6
CONTINUOUS
10
86.6964
20
-102.442
11
86.2679
21
-102.442
0
LINE
8
BLACK
6
CONTINUOUS
10
88.9821
20
-102.442
11
88.6964
21
-102.299
0
LINE
8
BLACK
6
CONTINUOUS
10
88.6964
20
-102.299
11
88.5536
21
-102.014
0
LINE
8
BLACK
6
CONTINUOUS
10
88.5536
20
-102.014
11
88.5536
21
-99.4421
0
LINE
8
BLACK
6
CONTINUOUS
10
91.2679
20
-102.299
11
90.9821
21
-102.442
0
LINE
8
BLACK
6
CONTINUOUS
10
90.9821
20
-102.442
11
90.4107
21
-102.442
0
LINE
8
BLACK
6
CONTINUOUS
10
90.4107
20
-102.442
11
90.125
21
-102.299
0
LINE
8
BLACK
6
CONTINUOUS
10
90.125
20
-102.299
11
89.9821
21
-102.014
0
LINE
8
BLACK
6
CONTINUOUS
10
89.9821
20
-102.014
11
89.9821
21
-100.871
0
LINE
8
BLACK
6
CONTINUOUS
10
89.9821
20
-100.871
11
90.125
21
-100.585
0
LINE
8
BLACK
6
CONTINUOUS
10
90.125
20
-100.585
11
90.4107
21
-100.442
0
LINE
8
BLACK
6
CONTINUOUS
10
90.4107
20
-100.442
11
90.9821
21
-100.442
0
LINE
8
BLACK
6
CONTINUOUS
10
90.9821
20
-100.442
11
91.2679
21
-100.585
0
LINE
8
BLACK
6
CONTINUOUS
10
91.2679
20
-100.585
11
91.4107
21
-100.871
0
LINE
8
BLACK
6
CONTINUOUS
10
91.4107
20
-100.871
11
91.4107
21
-101.156
0
LINE
8
BLACK
6
CONTINUOUS
10
91.4107
20
-101.156
11
89.9821
21
-101.442
0
LINE
8
BLACK
6
CONTINUOUS
10
92.5536
20
-102.299
11
92.8393
21
-102.442
0
LINE
8
BLACK
6
CONTINUOUS
10
92.8393
20
-102.442
11
93.4107
21
-102.442
0
LINE
8
BLACK
6
CONTINUOUS
10
93.4107
20
-102.442
11
93.6964
21
-102.299
0
LINE
8
BLACK
6
CONTINUOUS
10
93.6964
20
-102.299
11
93.8393
21
-102.014
0
LINE
8
BLACK
6
CONTINUOUS
10
93.8393
20
-102.014
11
93.8393
21
-101.871
0
LINE
8
BLACK
6
CONTINUOUS
10
93.8393
20
-101.871
11
93.6964
21
-101.585
0
LINE
8
BLACK
6
CONTINUOUS
10
93.6964
20
-101.585
11
93.4107
21
-101.442
0
LINE
8
BLACK
6
CONTINUOUS
10
93.4107
20
-101.442
11
92.9821
21
-101.442
0
LINE
8
BLACK
6
CONTINUOUS
10
92.9821
20
-101.442
11
92.6964
21
-101.299
0
LINE
8
BLACK
6
CONTINUOUS
10
92.6964
20
-101.299
11
92.5536
21
-101.014
0
LINE
8
BLACK
6
CONTINUOUS
10
92.5536
20
-101.014
11
92.5536
21
-100.871
0
LINE
8
BLACK
6
CONTINUOUS
10
92.5536
20
-100.871
11
92.6964
21
-100.585
0
LINE
8
BLACK
6
CONTINUOUS
10
92.6964
20
-100.585
11
92.9821
21
-100.442
0
LINE
8
BLACK
6
CONTINUOUS
10
92.9821
20
-100.442
11
93.4107
21
-100.442
0
LINE
8
BLACK
6
CONTINUOUS
10
93.4107
20
-100.442
11
93.6964
21
-100.585
0
LINE
8
BLACK
6
CONTINUOUS
10
94.8393
20
-103.585
11
94.9821
21
-103.442
0
LINE
8
BLACK
6
CONTINUOUS
10
94.9821
20
-103.442
11
95.2679
21
-103.014
0
LINE
8
BLACK
6
CONTINUOUS
10
95.2679
20
-103.014
11
95.4107
21
-102.728
0
LINE
8
BLACK
6
CONTINUOUS
10
95.4107
20
-102.728
11
95.5536
21
-102.299
0
LINE
8
BLACK
6
CONTINUOUS
10
95.5536
20
-102.299
11
95.6964
21
-101.585
0
LINE
8
BLACK
6
CONTINUOUS
10
95.6964
20
-101.585
11
95.6964
21
-101.014
0
LINE
8
BLACK
6
CONTINUOUS
10
95.6964
20
-101.014
11
95.5536
21
-100.299
0
LINE
8
BLACK
6
CONTINUOUS
10
95.5536
20
-100.299
11
95.4107
21
-99.8707
0
LINE
8
BLACK
6
CONTINUOUS
10
95.4107
20
-99.8707
11
95.2679
21
-99.585
0
LINE
8
BLACK
6
CONTINUOUS
10
95.2679
20
-99.585
11
94.9821
21
-99.1564
0
LINE
8
BLACK
6
CONTINUOUS
10
94.9821
20
-99.1564
11
94.8393
21
-99.0136
0
LINE
8
BLACK
6
CONTINUOUS
10
100.268
20
-103.585
11
100.125
21
-103.442
0
LINE
8
BLACK
6
CONTINUOUS
10
100.125
20
-103.442
11
99.8393
21
-103.014
0
LINE
8
BLACK
6
CONTINUOUS
10
99.8393
20
-103.014
11
99.6964
21
-102.728
0
LINE
8
BLACK
6
CONTINUOUS
10
99.6964
20
-102.728
11
99.5536
21
-102.299
0
LINE
8
BLACK
6
CONTINUOUS
10
99.5536
20
-102.299
11
99.4107
21
-101.585
0
LINE
8
BLACK
6
CONTINUOUS
10
99.4107
20
-101.585
11
99.4107
21
-101.014
0
LINE
8
BLACK
6
CONTINUOUS
10
99.4107
20
-101.014
11
99.5536
21
-100.299
0
LINE
8
BLACK
6
CONTINUOUS
10
99.5536
20
-100.299
11
99.6964
21
-99.8707
0
LINE
8
BLACK
6
CONTINUOUS
10
99.6964
20
-99.8707
11
99.8393
21
-99.585
0
LINE
8
BLACK
6
CONTINUOUS
10
99.8393
20
-99.585
11
100.125
21
-99.1564
0
LINE
8
BLACK
6
CONTINUOUS
10
100.125
20
-99.1564
11
100.268
21
-99.0136
0
LINE
8
BLACK
6
CONTINUOUS
10
101.411
20
-100.442
11
101.411
21
-102.442
0
LINE
8
BLACK
6
CONTINUOUS
10
101.411
20
-100.728
11
101.554
21
-100.585
0
LINE
8
BLACK
6
CONTINUOUS
10
101.554
20
-100.585
11
101.839
21
-100.442
0
LINE
8
BLACK
6
CONTINUOUS
10
101.839
20
-100.442
11
102.268
21
-100.442
0
LINE
8
BLACK
6
CONTINUOUS
10
102.268
20
-100.442
11
102.554
21
-100.585
0
LINE
8
BLACK
6
CONTINUOUS
10
102.554
20
-100.585
11
102.696
21
-100.871
0
LINE
8
BLACK
6
CONTINUOUS
10
102.696
20
-100.871
11
102.696
21
-102.442
0
LINE
8
BLACK
6
CONTINUOUS
10
104.554
20
-102.442
11
104.268
21
-102.299
0
LINE
8
BLACK
6
CONTINUOUS
10
104.268
20
-102.299
11
104.125
21
-102.156
0
LINE
8
BLACK
6
CONTINUOUS
10
104.125
20
-102.156
11
103.982
21
-101.871
0
LINE
8
BLACK
6
CONTINUOUS
10
103.982
20
-101.871
11
103.982
21
-101.014
0
LINE
8
BLACK
6
CONTINUOUS
10
103.982
20
-101.014
11
104.125
21
-100.728
0
LINE
8
BLACK
6
CONTINUOUS
10
104.125
20
-100.728
11
104.268
21
-100.585
0
LINE
8
BLACK
6
CONTINUOUS
10
104.268
20
-100.585
11
104.554
21
-100.442
0
LINE
8
BLACK
6
CONTINUOUS
10
104.554
20
-100.442
11
104.982
21
-100.442
0
LINE
8
BLACK
6
CONTINUOUS
10
104.982
20
-100.442
11
105.268
21
-100.585
0
LINE
8
BLACK
6
CONTINUOUS
10
105.268
20
-100.585
11
105.411
21
-100.728
0
LINE
8
BLACK
6
CONTINUOUS
10
105.411
20
-100.728
11
105.554
21
-101.014
0
LINE
8
BLACK
6
CONTINUOUS
10
105.554
20
-101.014
11
105.554
21
-101.871
0
LINE
8
BLACK
6
CONTINUOUS
10
105.554
20
-101.871
11
105.411
21
-102.156
0
LINE
8
BLACK
6
CONTINUOUS
10
105.411
20
-102.156
11
105.268
21
-102.299
0
LINE
8
BLACK
6
CONTINUOUS
10
105.268
20
-102.299
11
104.982
21
-102.442
0
LINE
8
BLACK
6
CONTINUOUS
10
104.982
20
-102.442
11
104.554
21
-102.442
0
LINE
8
BLACK
6
CONTINUOUS
10
106.411
20
-100.442
11
107.554
21
-100.442
0
LINE
8
BLACK
6
CONTINUOUS
10
106.839
20
-99.4421
11
106.839
21
-102.014
0
LINE
8
BLACK
6
CONTINUOUS
10
106.839
20
-102.014
11
106.982
21
-102.299
0
LINE
8
BLACK
6
CONTINUOUS
10
106.982
20
-102.299
11
107.268
21
-102.442
0
LINE
8
BLACK
6
CONTINUOUS
10
107.268
20
-102.442
11
107.554
21
-102.442
0
LINE
8
BLACK
6
CONTINUOUS
10
110.839
20
-100.442
11
110.839
21
-103.442
0
LINE
8
BLACK
6
CONTINUOUS
10
110.839
20
-100.585
11
111.125
21
-100.442
0
LINE
8
BLACK
6
CONTINUOUS
10
111.125
20
-100.442
11
111.696
21
-100.442
0
LINE
8
BLACK
6
CONTINUOUS
10
111.696
20
-100.442
11
111.982
21
-100.585
0
LINE
8
BLACK
6
CONTINUOUS
10
111.982
20
-100.585
11
112.125
21
-100.728
0
LINE
8
BLACK
6
CONTINUOUS
10
112.125
20
-100.728
11
112.268
21
-101.014
0
LINE
8
BLACK
6
CONTINUOUS
10
112.268
20
-101.014
11
112.268
21
-101.871
0
LINE
8
BLACK
6
CONTINUOUS
10
112.268
20
-101.871
11
112.125
21
-102.156
0
LINE
8
BLACK
6
CONTINUOUS
10
112.125
20
-102.156
11
111.982
21
-102.299
0
LINE
8
BLACK
6
CONTINUOUS
10
111.982
20
-102.299
11
111.696
21
-102.442
0
LINE
8
BLACK
6
CONTINUOUS
10
111.696
20
-102.442
11
111.125
21
-102.442
0
LINE
8
BLACK
6
CONTINUOUS
10
111.125
20
-102.442
11
110.839
21
-102.299
0
LINE
8
BLACK
6
CONTINUOUS
10
113.982
20
-102.442
11
113.696
21
-102.299
0
LINE
8
BLACK
6
CONTINUOUS
10
113.696
20
-102.299
11
113.554
21
-102.014
0
LINE
8
BLACK
6
CONTINUOUS
10
113.554
20
-102.014
11
113.554
21
-99.4421
0
LINE
8
BLACK
6
CONTINUOUS
10
116.411
20
-102.442
11
116.411
21
-100.871
0
LINE
8
BLACK
6
CONTINUOUS
10
116.411
20
-100.871
11
116.268
21
-100.585
0
LINE
8
BLACK
6
CONTINUOUS
10
116.268
20
-100.585
11
115.982
21
-100.442
0
LINE
8
BLACK
6
CONTINUOUS
10
115.982
20
-100.442
11
115.411
21
-100.442
0
LINE
8
BLACK
6
CONTINUOUS
10
115.411
20
-100.442
11
115.125
21
-100.585
0
LINE
8
BLACK
6
CONTINUOUS
10
116.411
20
-102.299
11
116.125
21
-102.442
0
LINE
8
BLACK
6
CONTINUOUS
10
116.125
20
-102.442
11
115.411
21
-102.442
0
LINE
8
BLACK
6
CONTINUOUS
10
115.411
20
-102.442
11
115.125
21
-102.299
0
LINE
8
BLACK
6
CONTINUOUS
10
115.125
20
-102.299
11
114.982
21
-102.014
0
LINE
8
BLACK
6
CONTINUOUS
10
114.982
20
-102.014
11
114.982
21
-101.728
0
LINE
8
BLACK
6
CONTINUOUS
10
114.982
20
-101.728
11
115.125
21
-101.442
0
LINE
8
BLACK
6
CONTINUOUS
10
115.125
20
-101.442
11
115.411
21
-101.299
0
LINE
8
BLACK
6
CONTINUOUS
10
115.411
20
-101.299
11
116.125
21
-101.299
0
LINE
8
BLACK
6
CONTINUOUS
10
116.125
20
-101.299
11
116.411
21
-101.156
0
LINE
8
BLACK
6
CONTINUOUS
10
117.411
20
-100.442
11
118.554
21
-100.442
0
LINE
8
BLACK
6
CONTINUOUS
10
117.839
20
-99.4421
11
117.839
21
-102.014
0
LINE
8
BLACK
6
CONTINUOUS
10
117.839
20
-102.014
11
117.982
21
-102.299
0
LINE
8
BLACK
6
CONTINUOUS
10
117.982
20
-102.299
11
118.268
21
-102.442
0
LINE
8
BLACK
6
CONTINUOUS
10
118.268
20
-102.442
11
118.554
21
-102.442
0
LINE
8
BLACK
6
CONTINUOUS
10
120.696
20
-102.299
11
120.411
21
-102.442
0
LINE
8
BLACK
6
CONTINUOUS
10
120.411
20
-102.442
11
119.839
21
-102.442
0
LINE
8
BLACK
6
CONTINUOUS
10
119.839
20
-102.442
11
119.554
21
-102.299
0
LINE
8
BLACK
6
CONTINUOUS
10
119.554
20
-102.299
11
119.411
21
-102.014
0
LINE
8
BLACK
6
CONTINUOUS
10
119.411
20
-102.014
11
119.411
21
-100.871
0
LINE
8
BLACK
6
CONTINUOUS
10
119.411
20
-100.871
11
119.554
21
-100.585
0
LINE
8
BLACK
6
CONTINUOUS
10
119.554
20
-100.585
11
119.839
21
-100.442
0
LINE
8
BLACK
6
CONTINUOUS
10
119.839
20
-100.442
11
120.411
21
-100.442
0
LINE
8
BLACK
6
CONTINUOUS
10
120.411
20
-100.442
11
120.696
21
-100.585
0
LINE
8
BLACK
6
CONTINUOUS
10
120.696
20
-100.585
11
120.839
21
-100.871
0
LINE
8
BLACK
6
CONTINUOUS
10
120.839
20
-100.871
11
120.839
21
-101.156
0
LINE
8
BLACK
6
CONTINUOUS
10
120.839
20
-101.156
11
119.411
21
-101.442
0
LINE
8
BLACK
6
CONTINUOUS
10
123.411
20
-102.442
11
123.411
21
-99.4421
0
LINE
8
BLACK
6
CONTINUOUS
10
123.411
20
-102.299
11
123.125
21
-102.442
0
LINE
8
BLACK
6
CONTINUOUS
10
123.125
20
-102.442
11
122.554
21
-102.442
0
LINE
8
BLACK
6
CONTINUOUS
10
122.554
20
-102.442
11
122.268
21
-102.299
0
LINE
8
BLACK
6
CONTINUOUS
10
122.268
20
-102.299
11
122.125
21
-102.156
0
LINE
8
BLACK
6
CONTINUOUS
10
122.125
20
-102.156
11
121.982
21
-101.871
0
LINE
8
BLACK
6
CONTINUOUS
10
121.982
20
-101.871
11
121.982
21
-101.014
0
LINE
8
BLACK
6
CONTINUOUS
10
121.982
20
-101.014
11
122.125
21
-100.728
0
LINE
8
BLACK
6
CONTINUOUS
10
122.125
20
-100.728
11
122.268
21
-100.585
0
LINE
8
BLACK
6
CONTINUOUS
10
122.268
20
-100.585
11
122.554
21
-100.442
0
LINE
8
BLACK
6
CONTINUOUS
10
122.554
20
-100.442
11
123.125
21
-100.442
0
LINE
8
BLACK
6
CONTINUOUS
10
123.125
20
-100.442
11
123.411
21
-100.585
0
LINE
8
BLACK
6
CONTINUOUS
10
124.554
20
-103.585
11
124.696
21
-103.442
0
LINE
8
BLACK
6
CONTINUOUS
10
124.696
20
-103.442
11
124.982
21
-103.014
0
LINE
8
BLACK
6
CONTINUOUS
10
124.982
20
-103.014
11
125.125
21
-102.728
0
LINE
8
BLACK
6
CONTINUOUS
10
125.125
20
-102.728
11
125.268
21
-102.299
0
LINE
8
BLACK
6
CONTINUOUS
10
125.268
20
-102.299
11
125.411
21
-101.585
0
LINE
8
BLACK
6
CONTINUOUS
10
125.411
20
-101.585
11
125.411
21
-101.014
0
LINE
8
BLACK
6
CONTINUOUS
10
125.411
20
-101.014
11
125.268
21
-100.299
0
LINE
8
BLACK
6
CONTINUOUS
10
125.268
20
-100.299
11
125.125
21
-99.8707
0
LINE
8
BLACK
6
CONTINUOUS
10
125.125
20
-99.8707
11
124.982
21
-99.585
0
LINE
8
BLACK
6
CONTINUOUS
10
124.982
20
-99.585
11
124.696
21
-99.1564
0
LINE
8
BLACK
6
CONTINUOUS
10
124.696
20
-99.1564
11
124.554
21
-99.0136
0
LINE
8
BLACK
6
CONTINUOUS
10
28.275
20
-103.635
11
28.275
21
-107.035
0
LINE
8
BLACK
6
CONTINUOUS
10
26.575
20
-105.335
11
29.975
21
-105.335
0
LINE
8
BLACK
6
CONTINUOUS
10
32.5536
20
-103.692
11
34.4107
21
-103.692
0
LINE
8
BLACK
6
CONTINUOUS
10
34.4107
20
-103.692
11
33.4107
21
-104.835
0
LINE
8
BLACK
6
CONTINUOUS
10
33.4107
20
-104.835
11
33.8393
21
-104.835
0
LINE
8
BLACK
6
CONTINUOUS
10
33.8393
20
-104.835
11
34.125
21
-104.978
0
LINE
8
BLACK
6
CONTINUOUS
10
34.125
20
-104.978
11
34.2679
21
-105.121
0
LINE
8
BLACK
6
CONTINUOUS
10
34.2679
20
-105.121
11
34.4107
21
-105.406
0
LINE
8
BLACK
6
CONTINUOUS
10
34.4107
20
-105.406
11
34.4107
21
-106.121
0
LINE
8
BLACK
6
CONTINUOUS
10
34.4107
20
-106.121
11
34.2679
21
-106.406
0
LINE
8
BLACK
6
CONTINUOUS
10
34.2679
20
-106.406
11
34.125
21
-106.549
0
LINE
8
BLACK
6
CONTINUOUS
10
34.125
20
-106.549
11
33.8393
21
-106.692
0
LINE
8
BLACK
6
CONTINUOUS
10
33.8393
20
-106.692
11
32.9821
21
-106.692
0
LINE
8
BLACK
6
CONTINUOUS
10
32.9821
20
-106.692
11
32.6964
21
-106.549
0
LINE
8
BLACK
6
CONTINUOUS
10
32.6964
20
-106.549
11
32.5536
21
-106.406
0
LINE
8
BLACK
6
CONTINUOUS
10
35.6964
20
-106.406
11
35.8393
21
-106.549
0
LINE
8
BLACK
6
CONTINUOUS
10
35.8393
20
-106.549
11
35.6964
21
-106.692
0
LINE
8
BLACK
6
CONTINUOUS
10
35.6964
20
-106.692
11
35.5536
21
-106.549
0
LINE
8
BLACK
6
CONTINUOUS
10
35.5536
20
-106.549
11
35.6964
21
-106.406
0
LINE
8
BLACK
6
CONTINUOUS
10
35.6964
20
-106.406
11
35.6964
21
-106.692
0
LINE
8
BLACK
6
CONTINUOUS
10
38.4107
20
-104.692
11
38.4107
21
-106.692
0
LINE
8
BLACK
6
CONTINUOUS
10
37.6964
20
-103.549
11
36.9821
21
-105.692
0
LINE
8
BLACK
6
CONTINUOUS
10
36.9821
20
-105.692
11
38.8393
21
-105.692
0
LINE
8
BLACK
6
CONTINUOUS
10
40.5536
20
-103.692
11
40.8393
21
-103.692
0
LINE
8
BLACK
6
CONTINUOUS
10
40.8393
20
-103.692
11
41.125
21
-103.835
0
LINE
8
BLACK
6
CONTINUOUS
10
41.125
20
-103.835
11
41.2679
21
-103.978
0
LINE
8
BLACK
6
CONTINUOUS
10
41.2679
20
-103.978
11
41.4107
21
-104.264
0
LINE
8
BLACK
6
CONTINUOUS
10
41.4107
20
-104.264
11
41.5536
21
-104.835
0
LINE
8
BLACK
6
CONTINUOUS
10
41.5536
20
-104.835
11
41.5536
21
-105.549
0
LINE
8
BLACK
6
CONTINUOUS
10
41.5536
20
-105.549
11
41.4107
21
-106.121
0
LINE
8
BLACK
6
CONTINUOUS
10
41.4107
20
-106.121
11
41.2679
21
-106.406
0
LINE
8
BLACK
6
CONTINUOUS
10
41.2679
20
-106.406
11
41.125
21
-106.549
0
LINE
8
BLACK
6
CONTINUOUS
10
41.125
20
-106.549
11
40.8393
21
-106.692
0
LINE
8
BLACK
6
CONTINUOUS
10
40.8393
20
-106.692
11
40.5536
21
-106.692
0
LINE
8
BLACK
6
CONTINUOUS
10
40.5536
20
-106.692
11
40.2679
21
-106.549
0
LINE
8
BLACK
6
CONTINUOUS
10
40.2679
20
-106.549
11
40.125
21
-106.406
0
LINE
8
BLACK
6
CONTINUOUS
10
40.125
20
-106.406
11
39.9821
21
-106.121
0
LINE
8
BLACK
6
CONTINUOUS
10
39.9821
20
-106.121
11
39.8393
21
-105.549
0
LINE
8
BLACK
6
CONTINUOUS
10
39.8393
20
-105.549
11
39.8393
21
-104.835
0
LINE
8
BLACK
6
CONTINUOUS
10
39.8393
20
-104.835
11
39.9821
21
-104.264
0
LINE
8
BLACK
6
CONTINUOUS
10
39.9821
20
-104.264
11
40.125
21
-103.978
0
LINE
8
BLACK
6
CONTINUOUS
10
40.125
20
-103.978
11
40.2679
21
-103.835
0
LINE
8
BLACK
6
CONTINUOUS
10
40.2679
20
-103.835
11
40.5536
21
-103.692
0
LINE
8
BLACK
6
CONTINUOUS
10
42.8393
20
-106.692
11
42.8393
21
-104.692
0
LINE
8
BLACK
6
CONTINUOUS
10
42.8393
20
-104.978
11
42.9821
21
-104.835
0
LINE
8
BLACK
6
CONTINUOUS
10
42.9821
20
-104.835
11
43.2679
21
-104.692
0
LINE
8
BLACK
6
CONTINUOUS
10
43.2679
20
-104.692
11
43.6964
21
-104.692
0
LINE
8
BLACK
6
CONTINUOUS
10
43.6964
20
-104.692
11
43.9821
21
-104.835
0
LINE
8
BLACK
6
CONTINUOUS
10
43.9821
20
-104.835
11
44.125
21
-105.121
0
LINE
8
BLACK
6
CONTINUOUS
10
44.125
20
-105.121
11
44.125
21
-106.692
0
LINE
8
BLACK
6
CONTINUOUS
10
44.125
20
-105.121
11
44.2679
21
-104.835
0
LINE
8
BLACK
6
CONTINUOUS
10
44.2679
20
-104.835
11
44.5536
21
-104.692
0
LINE
8
BLACK
6
CONTINUOUS
10
44.5536
20
-104.692
11
44.9821
21
-104.692
0
LINE
8
BLACK
6
CONTINUOUS
10
44.9821
20
-104.692
11
45.2679
21
-104.835
0
LINE
8
BLACK
6
CONTINUOUS
10
45.2679
20
-104.835
11
45.4107
21
-105.121
0
LINE
8
BLACK
6
CONTINUOUS
10
45.4107
20
-105.121
11
45.4107
21
-106.692
0
LINE
8
BLACK
6
CONTINUOUS
10
46.8393
20
-106.692
11
46.8393
21
-104.692
0
LINE
8
BLACK
6
CONTINUOUS
10
46.8393
20
-104.978
11
46.9821
21
-104.835
0
LINE
8
BLACK
6
CONTINUOUS
10
46.9821
20
-104.835
11
47.2679
21
-104.692
0
LINE
8
BLACK
6
CONTINUOUS
10
47.2679
20
-104.692
11
47.6964
21
-104.692
0
LINE
8
BLACK
6
CONTINUOUS
10
47.6964
20
-104.692
11
47.9821
21
-104.835
0
LINE
8
BLACK
6
CONTINUOUS
10
47.9821
20
-104.835
11
48.125
21
-105.121
0
LINE
8
BLACK
6
CONTINUOUS
10
48.125
20
-105.121
11
48.125
21
-106.692
0
LINE
8
BLACK
6
CONTINUOUS
10
48.125
20
-105.121
11
48.2679
21
-104.835
0
LINE
8
BLACK
6
CONTINUOUS
10
48.2679
20
-104.835
11
48.5536
21
-104.692
0
LINE
8
BLACK
6
CONTINUOUS
10
48.5536
20
-104.692
11
48.9821
21
-104.692
0
LINE
8
BLACK
6
CONTINUOUS
10
48.9821
20
-104.692
11
49.2679
21
-104.835
0
LINE
8
BLACK
6
CONTINUOUS
10
49.2679
20
-104.835
11
49.4107
21
-105.121
0
LINE
8
BLACK
6
CONTINUOUS
10
49.4107
20
-105.121
11
49.4107
21
-106.692
0
LINE
8
BLACK
6
CONTINUOUS
10
55.2679
20
-103.549
11
52.6964
21
-107.406
0
LINE
8
BLACK
6
CONTINUOUS
10
59.125
20
-103.692
11
59.4107
21
-103.692
0
LINE
8
BLACK
6
CONTINUOUS
10
59.4107
20
-103.692
11
59.6964
21
-103.835
0
LINE
8
BLACK
6
CONTINUOUS
10
59.6964
20
-103.835
11
59.8393
21
-103.978
0
LINE
8
BLACK
6
CONTINUOUS
10
59.8393
20
-103.978
11
59.9821
21
-104.264
0
LINE
8
BLACK
6
CONTINUOUS
10
59.9821
20
-104.264
11
60.125
21
-104.835
0
LINE
8
BLACK
6
CONTINUOUS
10
60.125
20
-104.835
11
60.125
21
-105.549
0
LINE
8
BLACK
6
CONTINUOUS
10
60.125
20
-105.549
11
59.9821
21
-106.121
0
LINE
8
BLACK
6
CONTINUOUS
10
59.9821
20
-106.121
11
59.8393
21
-106.406
0
LINE
8
BLACK
6
CONTINUOUS
10
59.8393
20
-106.406
11
59.6964
21
-106.549
0
LINE
8
BLACK
6
CONTINUOUS
10
59.6964
20
-106.549
11
59.4107
21
-106.692
0
LINE
8
BLACK
6
CONTINUOUS
10
59.4107
20
-106.692
11
59.125
21
-106.692
0
LINE
8
BLACK
6
CONTINUOUS
10
59.125
20
-106.692
11
58.8393
21
-106.549
0
LINE
8
BLACK
6
CONTINUOUS
10
58.8393
20
-106.549
11
58.6964
21
-106.406
0
LINE
8
BLACK
6
CONTINUOUS
10
58.6964
20
-106.406
11
58.5536
21
-106.121
0
LINE
8
BLACK
6
CONTINUOUS
10
58.5536
20
-106.121
11
58.4107
21
-105.549
0
LINE
8
BLACK
6
CONTINUOUS
10
58.4107
20
-105.549
11
58.4107
21
-104.835
0
LINE
8
BLACK
6
CONTINUOUS
10
58.4107
20
-104.835
11
58.5536
21
-104.264
0
LINE
8
BLACK
6
CONTINUOUS
10
58.5536
20
-104.264
11
58.6964
21
-103.978
0
LINE
8
BLACK
6
CONTINUOUS
10
58.6964
20
-103.978
11
58.8393
21
-103.835
0
LINE
8
BLACK
6
CONTINUOUS
10
58.8393
20
-103.835
11
59.125
21
-103.692
0
LINE
8
BLACK
6
CONTINUOUS
10
61.4107
20
-106.406
11
61.5536
21
-106.549
0
LINE
8
BLACK
6
CONTINUOUS
10
61.5536
20
-106.549
11
61.4107
21
-106.692
0
LINE
8
BLACK
6
CONTINUOUS
10
61.4107
20
-106.692
11
61.2679
21
-106.549
0
LINE
8
BLACK
6
CONTINUOUS
10
61.2679
20
-106.549
11
61.4107
21
-106.406
0
LINE
8
BLACK
6
CONTINUOUS
10
61.4107
20
-106.406
11
61.4107
21
-106.692
0
LINE
8
BLACK
6
CONTINUOUS
10
64.4107
20
-106.692
11
62.6964
21
-106.692
0
LINE
8
BLACK
6
CONTINUOUS
10
63.5536
20
-106.692
11
63.5536
21
-103.692
0
LINE
8
BLACK
6
CONTINUOUS
10
63.5536
20
-103.692
11
63.2679
21
-104.121
0
LINE
8
BLACK
6
CONTINUOUS
10
63.2679
20
-104.121
11
62.9821
21
-104.406
0
LINE
8
BLACK
6
CONTINUOUS
10
62.9821
20
-104.406
11
62.6964
21
-104.549
0
LINE
8
BLACK
6
CONTINUOUS
10
65.4107
20
-103.692
11
67.2679
21
-103.692
0
LINE
8
BLACK
6
CONTINUOUS
10
67.2679
20
-103.692
11
66.2679
21
-104.835
0
LINE
8
BLACK
6
CONTINUOUS
10
66.2679
20
-104.835
11
66.6964
21
-104.835
0
LINE
8
BLACK
6
CONTINUOUS
10
66.6964
20
-104.835
11
66.9821
21
-104.978
0
LINE
8
BLACK
6
CONTINUOUS
10
66.9821
20
-104.978
11
67.125
21
-105.121
0
LINE
8
BLACK
6
CONTINUOUS
10
67.125
20
-105.121
11
67.2679
21
-105.406
0
LINE
8
BLACK
6
CONTINUOUS
10
67.2679
20
-105.406
11
67.2679
21
-106.121
0
LINE
8
BLACK
6
CONTINUOUS
10
67.2679
20
-106.121
11
67.125
21
-106.406
0
LINE
8
BLACK
6
CONTINUOUS
10
67.125
20
-106.406
11
66.9821
21
-106.549
0
LINE
8
BLACK
6
CONTINUOUS
10
66.9821
20
-106.549
11
66.6964
21
-106.692
0
LINE
8
BLACK
6
CONTINUOUS
10
66.6964
20
-106.692
11
65.8393
21
-106.692
0
LINE
8
BLACK
6
CONTINUOUS
10
65.8393
20
-106.692
11
65.5536
21
-106.549
0
LINE
8
BLACK
6
CONTINUOUS
10
65.5536
20
-106.549
11
65.4107
21
-106.406
0
LINE
8
BLACK
6
CONTINUOUS
10
69.8393
20
-104.692
11
69.8393
21
-106.692
0
LINE
8
BLACK
6
CONTINUOUS
10
69.125
20
-103.549
11
68.4107
21
-105.692
0
LINE
8
BLACK
6
CONTINUOUS
10
68.4107
20
-105.692
11
70.2679
21
-105.692
0
LINE
8
BLACK
6
CONTINUOUS
10
71.2679
20
-103.692
11
71.2679
21
-104.264
0
LINE
8
BLACK
6
CONTINUOUS
10
72.4107
20
-103.692
11
72.4107
21
-104.264
0
LINE
8
BLACK
6
CONTINUOUS
10
76.8393
20
-107.835
11
76.6964
21
-107.692
0
LINE
8
BLACK
6
CONTINUOUS
10
76.6964
20
-107.692
11
76.4107
21
-107.264
0
LINE
8
BLACK
6
CONTINUOUS
10
76.4107
20
-107.264
11
76.2679
21
-106.978
0
LINE
8
BLACK
6
CONTINUOUS
10
76.2679
20
-106.978
11
76.125
21
-106.549
0
LINE
8
BLACK
6
CONTINUOUS
10
76.125
20
-106.549
11
75.9821
21
-105.835
0
LINE
8
BLACK
6
CONTINUOUS
10
75.9821
20
-105.835
11
75.9821
21
-105.264
0
LINE
8
BLACK
6
CONTINUOUS
10
75.9821
20
-105.264
11
76.125
21
-104.549
0
LINE
8
BLACK
6
CONTINUOUS
10
76.125
20
-104.549
11
76.2679
21
-104.121
0
LINE
8
BLACK
6
CONTINUOUS
10
76.2679
20
-104.121
11
76.4107
21
-103.835
0
LINE
8
BLACK
6
CONTINUOUS
10
76.4107
20
-103.835
11
76.6964
21
-103.406
0
LINE
8
BLACK
6
CONTINUOUS
10
76.6964
20
-103.406
11
76.8393
21
-103.264
0
LINE
8
BLACK
6
CONTINUOUS
10
79.4107
20
-103.692
11
77.9821
21
-103.692
0
LINE
8
BLACK
6
CONTINUOUS
10
77.9821
20
-103.692
11
77.8393
21
-105.121
0
LINE
8
BLACK
6
CONTINUOUS
10
77.8393
20
-105.121
11
77.9821
21
-104.978
0
LINE
8
BLACK
6
CONTINUOUS
10
77.9821
20
-104.978
11
78.2679
21
-104.835
0
LINE
8
BLACK
6
CONTINUOUS
10
78.2679
20
-104.835
11
78.9821
21
-104.835
0
LINE
8
BLACK
6
CONTINUOUS
10
78.9821
20
-104.835
11
79.2679
21
-104.978
0
LINE
8
BLACK
6
CONTINUOUS
10
79.2679
20
-104.978
11
79.4107
21
-105.121
0
LINE
8
BLACK
6
CONTINUOUS
10
79.4107
20
-105.121
11
79.5536
21
-105.406
0
LINE
8
BLACK
6
CONTINUOUS
10
79.5536
20
-105.406
11
79.5536
21
-106.121
0
LINE
8
BLACK
6
CONTINUOUS
10
79.5536
20
-106.121
11
79.4107
21
-106.406
0
LINE
8
BLACK
6
CONTINUOUS
10
79.4107
20
-106.406
11
79.2679
21
-106.549
0
LINE
8
BLACK
6
CONTINUOUS
10
79.2679
20
-106.549
11
78.9821
21
-106.692
0
LINE
8
BLACK
6
CONTINUOUS
10
78.9821
20
-106.692
11
78.2679
21
-106.692
0
LINE
8
BLACK
6
CONTINUOUS
10
78.2679
20
-106.692
11
77.9821
21
-106.549
0
LINE
8
BLACK
6
CONTINUOUS
10
77.9821
20
-106.549
11
77.8393
21
-106.406
0
LINE
8
BLACK
6
CONTINUOUS
10
83.125
20
-106.692
11
83.125
21
-103.692
0
LINE
8
BLACK
6
CONTINUOUS
10
84.4107
20
-106.692
11
84.4107
21
-105.121
0
LINE
8
BLACK
6
CONTINUOUS
10
84.4107
20
-105.121
11
84.2679
21
-104.835
0
LINE
8
BLACK
6
CONTINUOUS
10
84.2679
20
-104.835
11
83.9821
21
-104.692
0
LINE
8
BLACK
6
CONTINUOUS
10
83.9821
20
-104.692
11
83.5536
21
-104.692
0
LINE
8
BLACK
6
CONTINUOUS
10
83.5536
20
-104.692
11
83.2679
21
-104.835
0
LINE
8
BLACK
6
CONTINUOUS
10
83.2679
20
-104.835
11
83.125
21
-104.978
0
LINE
8
BLACK
6
CONTINUOUS
10
86.2679
20
-106.692
11
85.9821
21
-106.549
0
LINE
8
BLACK
6
CONTINUOUS
10
85.9821
20
-106.549
11
85.8393
21
-106.406
0
LINE
8
BLACK
6
CONTINUOUS
10
85.8393
20
-106.406
11
85.6964
21
-106.121
0
LINE
8
BLACK
6
CONTINUOUS
10
85.6964
20
-106.121
11
85.6964
21
-105.264
0
LINE
8
BLACK
6
CONTINUOUS
10
85.6964
20
-105.264
11
85.8393
21
-104.978
0
LINE
8
BLACK
6
CONTINUOUS
10
85.8393
20
-104.978
11
85.9821
21
-104.835
0
LINE
8
BLACK
6
CONTINUOUS
10
85.9821
20
-104.835
11
86.2679
21
-104.692
0
LINE
8
BLACK
6
CONTINUOUS
10
86.2679
20
-104.692
11
86.6964
21
-104.692
0
LINE
8
BLACK
6
CONTINUOUS
10
86.6964
20
-104.692
11
86.9821
21
-104.835
0
LINE
8
BLACK
6
CONTINUOUS
10
86.9821
20
-104.835
11
87.125
21
-104.978
0
LINE
8
BLACK
6
CONTINUOUS
10
87.125
20
-104.978
11
87.2679
21
-105.264
0
LINE
8
BLACK
6
CONTINUOUS
10
87.2679
20
-105.264
11
87.2679
21
-106.121
0
LINE
8
BLACK
6
CONTINUOUS
10
87.2679
20
-106.121
11
87.125
21
-106.406
0
LINE
8
BLACK
6
CONTINUOUS
10
87.125
20
-106.406
11
86.9821
21
-106.549
0
LINE
8
BLACK
6
CONTINUOUS
10
86.9821
20
-106.549
11
86.6964
21
-106.692
0
LINE
8
BLACK
6
CONTINUOUS
10
86.6964
20
-106.692
11
86.2679
21
-106.692
0
LINE
8
BLACK
6
CONTINUOUS
10
88.9821
20
-106.692
11
88.6964
21
-106.549
0
LINE
8
BLACK
6
CONTINUOUS
10
88.6964
20
-106.549
11
88.5536
21
-106.264
0
LINE
8
BLACK
6
CONTINUOUS
10
88.5536
20
-106.264
11
88.5536
21
-103.692
0
LINE
8
BLACK
6
CONTINUOUS
10
91.2679
20
-106.549
11
90.9821
21
-106.692
0
LINE
8
BLACK
6
CONTINUOUS
10
90.9821
20
-106.692
11
90.4107
21
-106.692
0
LINE
8
BLACK
6
CONTINUOUS
10
90.4107
20
-106.692
11
90.125
21
-106.549
0
LINE
8
BLACK
6
CONTINUOUS
10
90.125
20
-106.549
11
89.9821
21
-106.264
0
LINE
8
BLACK
6
CONTINUOUS
10
89.9821
20
-106.264
11
89.9821
21
-105.121
0
LINE
8
BLACK
6
CONTINUOUS
10
89.9821
20
-105.121
11
90.125
21
-104.835
0
LINE
8
BLACK
6
CONTINUOUS
10
90.125
20
-104.835
11
90.4107
21
-104.692
0
LINE
8
BLACK
6
CONTINUOUS
10
90.4107
20
-104.692
11
90.9821
21
-104.692
0
LINE
8
BLACK
6
CONTINUOUS
10
90.9821
20
-104.692
11
91.2679
21
-104.835
0
LINE
8
BLACK
6
CONTINUOUS
10
91.2679
20
-104.835
11
91.4107
21
-105.121
0
LINE
8
BLACK
6
CONTINUOUS
10
91.4107
20
-105.121
11
91.4107
21
-105.406
0
LINE
8
BLACK
6
CONTINUOUS
10
91.4107
20
-105.406
11
89.9821
21
-105.692
0
LINE
8
BLACK
6
CONTINUOUS
10
92.5536
20
-106.549
11
92.8393
21
-106.692
0
LINE
8
BLACK
6
CONTINUOUS
10
92.8393
20
-106.692
11
93.4107
21
-106.692
0
LINE
8
BLACK
6
CONTINUOUS
10
93.4107
20
-106.692
11
93.6964
21
-106.549
0
LINE
8
BLACK
6
CONTINUOUS
10
93.6964
20
-106.549
11
93.8393
21
-106.264
0
LINE
8
BLACK
6
CONTINUOUS
10
93.8393
20
-106.264
11
93.8393
21
-106.121
0
LINE
8
BLACK
6
CONTINUOUS
10
93.8393
20
-106.121
11
93.6964
21
-105.835
0
LINE
8
BLACK
6
CONTINUOUS
10
93.6964
20
-105.835
11
93.4107
21
-105.692
0
LINE
8
BLACK
6
CONTINUOUS
10
93.4107
20
-105.692
11
92.9821
21
-105.692
0
LINE
8
BLACK
6
CONTINUOUS
10
92.9821
20
-105.692
11
92.6964
21
-105.549
0
LINE
8
BLACK
6
CONTINUOUS
10
92.6964
20
-105.549
11
92.5536
21
-105.264
0
LINE
8
BLACK
6
CONTINUOUS
10
92.5536
20
-105.264
11
92.5536
21
-105.121
0
LINE
8
BLACK
6
CONTINUOUS
10
92.5536
20
-105.121
11
92.6964
21
-104.835
0
LINE
8
BLACK
6
CONTINUOUS
10
92.6964
20
-104.835
11
92.9821
21
-104.692
0
LINE
8
BLACK
6
CONTINUOUS
10
92.9821
20
-104.692
11
93.4107
21
-104.692
0
LINE
8
BLACK
6
CONTINUOUS
10
93.4107
20
-104.692
11
93.6964
21
-104.835
0
LINE
8
BLACK
6
CONTINUOUS
10
94.8393
20
-107.835
11
94.9821
21
-107.692
0
LINE
8
BLACK
6
CONTINUOUS
10
94.9821
20
-107.692
11
95.2679
21
-107.264
0
LINE
8
BLACK
6
CONTINUOUS
10
95.2679
20
-107.264
11
95.4107
21
-106.978
0
LINE
8
BLACK
6
CONTINUOUS
10
95.4107
20
-106.978
11
95.5536
21
-106.549
0
LINE
8
BLACK
6
CONTINUOUS
10
95.5536
20
-106.549
11
95.6964
21
-105.835
0
LINE
8
BLACK
6
CONTINUOUS
10
95.6964
20
-105.835
11
95.6964
21
-105.264
0
LINE
8
BLACK
6
CONTINUOUS
10
95.6964
20
-105.264
11
95.5536
21
-104.549
0
LINE
8
BLACK
6
CONTINUOUS
10
95.5536
20
-104.549
11
95.4107
21
-104.121
0
LINE
8
BLACK
6
CONTINUOUS
10
95.4107
20
-104.121
11
95.2679
21
-103.835
0
LINE
8
BLACK
6
CONTINUOUS
10
95.2679
20
-103.835
11
94.9821
21
-103.406
0
LINE
8
BLACK
6
CONTINUOUS
10
94.9821
20
-103.406
11
94.8393
21
-103.264
0
LINE
8
BLACK
6
CONTINUOUS
10
100.268
20
-107.835
11
100.125
21
-107.692
0
LINE
8
BLACK
6
CONTINUOUS
10
100.125
20
-107.692
11
99.8393
21
-107.264
0
LINE
8
BLACK
6
CONTINUOUS
10
99.8393
20
-107.264
11
99.6964
21
-106.978
0
LINE
8
BLACK
6
CONTINUOUS
10
99.6964
20
-106.978
11
99.5536
21
-106.549
0
LINE
8
BLACK
6
CONTINUOUS
10
99.5536
20
-106.549
11
99.4107
21
-105.835
0
LINE
8
BLACK
6
CONTINUOUS
10
99.4107
20
-105.835
11
99.4107
21
-105.264
0
LINE
8
BLACK
6
CONTINUOUS
10
99.4107
20
-105.264
11
99.5536
21
-104.549
0
LINE
8
BLACK
6
CONTINUOUS
10
99.5536
20
-104.549
11
99.6964
21
-104.121
0
LINE
8
BLACK
6
CONTINUOUS
10
99.6964
20
-104.121
11
99.8393
21
-103.835
0
LINE
8
BLACK
6
CONTINUOUS
10
99.8393
20
-103.835
11
100.125
21
-103.406
0
LINE
8
BLACK
6
CONTINUOUS
10
100.125
20
-103.406
11
100.268
21
-103.264
0
LINE
8
BLACK
6
CONTINUOUS
10
101.411
20
-104.692
11
101.411
21
-106.692
0
LINE
8
BLACK
6
CONTINUOUS
10
101.411
20
-104.978
11
101.554
21
-104.835
0
LINE
8
BLACK
6
CONTINUOUS
10
101.554
20
-104.835
11
101.839
21
-104.692
0
LINE
8
BLACK
6
CONTINUOUS
10
101.839
20
-104.692
11
102.268
21
-104.692
0
LINE
8
BLACK
6
CONTINUOUS
10
102.268
20
-104.692
11
102.554
21
-104.835
0
LINE
8
BLACK
6
CONTINUOUS
10
102.554
20
-104.835
11
102.696
21
-105.121
0
LINE
8
BLACK
6
CONTINUOUS
10
102.696
20
-105.121
11
102.696
21
-106.692
0
LINE
8
BLACK
6
CONTINUOUS
10
104.554
20
-106.692
11
104.268
21
-106.549
0
LINE
8
BLACK
6
CONTINUOUS
10
104.268
20
-106.549
11
104.125
21
-106.406
0
LINE
8
BLACK
6
CONTINUOUS
10
104.125
20
-106.406
11
103.982
21
-106.121
0
LINE
8
BLACK
6
CONTINUOUS
10
103.982
20
-106.121
11
103.982
21
-105.264
0
LINE
8
BLACK
6
CONTINUOUS
10
103.982
20
-105.264
11
104.125
21
-104.978
0
LINE
8
BLACK
6
CONTINUOUS
10
104.125
20
-104.978
11
104.268
21
-104.835
0
LINE
8
BLACK
6
CONTINUOUS
10
104.268
20
-104.835
11
104.554
21
-104.692
0
LINE
8
BLACK
6
CONTINUOUS
10
104.554
20
-104.692
11
104.982
21
-104.692
0
LINE
8
BLACK
6
CONTINUOUS
10
104.982
20
-104.692
11
105.268
21
-104.835
0
LINE
8
BLACK
6
CONTINUOUS
10
105.268
20
-104.835
11
105.411
21
-104.978
0
LINE
8
BLACK
6
CONTINUOUS
10
105.411
20
-104.978
11
105.554
21
-105.264
0
LINE
8
BLACK
6
CONTINUOUS
10
105.554
20
-105.264
11
105.554
21
-106.121
0
LINE
8
BLACK
6
CONTINUOUS
10
105.554
20
-106.121
11
105.411
21
-106.406
0
LINE
8
BLACK
6
CONTINUOUS
10
105.411
20
-106.406
11
105.268
21
-106.549
0
LINE
8
BLACK
6
CONTINUOUS
10
105.268
20
-106.549
11
104.982
21
-106.692
0
LINE
8
BLACK
6
CONTINUOUS
10
104.982
20
-106.692
11
104.554
21
-106.692
0
LINE
8
BLACK
6
CONTINUOUS
10
106.411
20
-104.692
11
107.554
21
-104.692
0
LINE
8
BLACK
6
CONTINUOUS
10
106.839
20
-103.692
11
106.839
21
-106.264
0
LINE
8
BLACK
6
CONTINUOUS
10
106.839
20
-106.264
11
106.982
21
-106.549
0
LINE
8
BLACK
6
CONTINUOUS
10
106.982
20
-106.549
11
107.268
21
-106.692
0
LINE
8
BLACK
6
CONTINUOUS
10
107.268
20
-106.692
11
107.554
21
-106.692
0
LINE
8
BLACK
6
CONTINUOUS
10
110.839
20
-104.692
11
110.839
21
-107.692
0
LINE
8
BLACK
6
CONTINUOUS
10
110.839
20
-104.835
11
111.125
21
-104.692
0
LINE
8
BLACK
6
CONTINUOUS
10
111.125
20
-104.692
11
111.696
21
-104.692
0
LINE
8
BLACK
6
CONTINUOUS
10
111.696
20
-104.692
11
111.982
21
-104.835
0
LINE
8
BLACK
6
CONTINUOUS
10
111.982
20
-104.835
11
112.125
21
-104.978
0
LINE
8
BLACK
6
CONTINUOUS
10
112.125
20
-104.978
11
112.268
21
-105.264
0
LINE
8
BLACK
6
CONTINUOUS
10
112.268
20
-105.264
11
112.268
21
-106.121
0
LINE
8
BLACK
6
CONTINUOUS
10
112.268
20
-106.121
11
112.125
21
-106.406
0
LINE
8
BLACK
6
CONTINUOUS
10
112.125
20
-106.406
11
111.982
21
-106.549
0
LINE
8
BLACK
6
CONTINUOUS
10
111.982
20
-106.549
11
111.696
21
-106.692
0
LINE
8
BLACK
6
CONTINUOUS
10
111.696
20
-106.692
11
111.125
21
-106.692
0
LINE
8
BLACK
6
CONTINUOUS
10
111.125
20
-106.692
11
110.839
21
-106.549
0
LINE
8
BLACK
6
CONTINUOUS
10
113.982
20
-106.692
11
113.696
21
-106.549
0
LINE
8
BLACK
6
CONTINUOUS
10
113.696
20
-106.549
11
113.554
21
-106.264
0
LINE
8
BLACK
6
CONTINUOUS
10
113.554
20
-106.264
11
113.554
21
-103.692
0
LINE
8
BLACK
6
CONTINUOUS
10
116.411
20
-106.692
11
116.411
21
-105.121
0
LINE
8
BLACK
6
CONTINUOUS
10
116.411
20
-105.121
11
116.268
21
-104.835
0
LINE
8
BLACK
6
CONTINUOUS
10
116.268
20
-104.835
11
115.982
21
-104.692
0
LINE
8
BLACK
6
CONTINUOUS
10
115.982
20
-104.692
11
115.411
21
-104.692
0
LINE
8
BLACK
6
CONTINUOUS
10
115.411
20
-104.692
11
115.125
21
-104.835
0
LINE
8
BLACK
6
CONTINUOUS
10
116.411
20
-106.549
11
116.125
21
-106.692
0
LINE
8
BLACK
6
CONTINUOUS
10
116.125
20
-106.692
11
115.411
21
-106.692
0
LINE
8
BLACK
6
CONTINUOUS
10
115.411
20
-106.692
11
115.125
21
-106.549
0
LINE
8
BLACK
6
CONTINUOUS
10
115.125
20
-106.549
11
114.982
21
-106.264
0
LINE
8
BLACK
6
CONTINUOUS
10
114.982
20
-106.264
11
114.982
21
-105.978
0
LINE
8
BLACK
6
CONTINUOUS
10
114.982
20
-105.978
11
115.125
21
-105.692
0
LINE
8
BLACK
6
CONTINUOUS
10
115.125
20
-105.692
11
115.411
21
-105.549
0
LINE
8
BLACK
6
CONTINUOUS
10
115.411
20
-105.549
11
116.125
21
-105.549
0
LINE
8
BLACK
6
CONTINUOUS
10
116.125
20
-105.549
11
116.411
21
-105.406
0
LINE
8
BLACK
6
CONTINUOUS
10
117.411
20
-104.692
11
118.554
21
-104.692
0
LINE
8
BLACK
6
CONTINUOUS
10
117.839
20
-103.692
11
117.839
21
-106.264
0
LINE
8
BLACK
6
CONTINUOUS
10
117.839
20
-106.264
11
117.982
21
-106.549
0
LINE
8
BLACK
6
CONTINUOUS
10
117.982
20
-106.549
11
118.268
21
-106.692
0
LINE
8
BLACK
6
CONTINUOUS
10
118.268
20
-106.692
11
118.554
21
-106.692
0
LINE
8
BLACK
6
CONTINUOUS
10
120.696
20
-106.549
11
120.411
21
-106.692
0
LINE
8
BLACK
6
CONTINUOUS
10
120.411
20
-106.692
11
119.839
21
-106.692
0
LINE
8
BLACK
6
CONTINUOUS
10
119.839
20
-106.692
11
119.554
21
-106.549
0
LINE
8
BLACK
6
CONTINUOUS
10
119.554
20
-106.549
11
119.411
21
-106.264
0
LINE
8
BLACK
6
CONTINUOUS
10
119.411
20
-106.264
11
119.411
21
-105.121
0
LINE
8
BLACK
6
CONTINUOUS
10
119.411
20
-105.121
11
119.554
21
-104.835
0
LINE
8
BLACK
6
CONTINUOUS
10
119.554
20
-104.835
11
119.839
21
-104.692
0
LINE
8
BLACK
6
CONTINUOUS
10
119.839
20
-104.692
11
120.411
21
-104.692
0
LINE
8
BLACK
6
CONTINUOUS
10
120.411
20
-104.692
11
120.696
21
-104.835
0
LINE
8
BLACK
6
CONTINUOUS
10
120.696
20
-104.835
11
120.839
21
-105.121
0
LINE
8
BLACK
6
CONTINUOUS
10
120.839
20
-105.121
11
120.839
21
-105.406
0
LINE
8
BLACK
6
CONTINUOUS
10
120.839
20
-105.406
11
119.411
21
-105.692
0
LINE
8
BLACK
6
CONTINUOUS
10
123.411
20
-106.692
11
123.411
21
-103.692
0
LINE
8
BLACK
6
CONTINUOUS
10
123.411
20
-106.549
11
123.125
21
-106.692
0
LINE
8
BLACK
6
CONTINUOUS
10
123.125
20
-106.692
11
122.554
21
-106.692
0
LINE
8
BLACK
6
CONTINUOUS
10
122.554
20
-106.692
11
122.268
21
-106.549
0
LINE
8
BLACK
6
CONTINUOUS
10
122.268
20
-106.549
11
122.125
21
-106.406
0
LINE
8
BLACK
6
CONTINUOUS
10
122.125
20
-106.406
11
121.982
21
-106.121
0
LINE
8
BLACK
6
CONTINUOUS
10
121.982
20
-106.121
11
121.982
21
-105.264
0
LINE
8
BLACK
6
CONTINUOUS
10
121.982
20
-105.264
11
122.125
21
-104.978
0
LINE
8
BLACK
6
CONTINUOUS
10
122.125
20
-104.978
11
122.268
21
-104.835
0
LINE
8
BLACK
6
CONTINUOUS
10
122.268
20
-104.835
11
122.554
21
-104.692
0
LINE
8
BLACK
6
CONTINUOUS
10
122.554
20
-104.692
11
123.125
21
-104.692
0
LINE
8
BLACK
6
CONTINUOUS
10
123.125
20
-104.692
11
123.411
21
-104.835
0
LINE
8
BLACK
6
CONTINUOUS
10
124.554
20
-107.835
11
124.696
21
-107.692
0
LINE
8
BLACK
6
CONTINUOUS
10
124.696
20
-107.692
11
124.982
21
-107.264
0
LINE
8
BLACK
6
CONTINUOUS
10
124.982
20
-107.264
11
125.125
21
-106.978
0
LINE
8
BLACK
6
CONTINUOUS
10
125.125
20
-106.978
11
125.268
21
-106.549
0
LINE
8
BLACK
6
CONTINUOUS
10
125.268
20
-106.549
11
125.411
21
-105.835
0
LINE
8
BLACK
6
CONTINUOUS
10
125.411
20
-105.835
11
125.411
21
-105.264
0
LINE
8
BLACK
6
CONTINUOUS
10
125.411
20
-105.264
11
125.268
21
-104.549
0
LINE
8
BLACK
6
CONTINUOUS
10
125.268
20
-104.549
11
125.125
21
-104.121
0
LINE
8
BLACK
6
CONTINUOUS
10
125.125
20
-104.121
11
124.982
21
-103.835
0
LINE
8
BLACK
6
CONTINUOUS
10
124.982
20
-103.835
11
124.696
21
-103.406
0
LINE
8
BLACK
6
CONTINUOUS
10
124.696
20
-103.406
11
124.554
21
-103.264
  0
ENDSEC
  0
EOF
