M48
; DRILL file {KiCad 5.1.9-73d0e3b20d~88~ubuntu20.04.1} date Thu Dec 31 12:29:34 2020
; FORMAT={-:-/ absolute / metric / decimal}
; #@! TF.CreationDate,2020-12-31T12:29:34-05:00
; #@! TF.GenerationSoftware,Kicad,Pcbnew,5.1.9-73d0e3b20d~88~ubuntu20.04.1
; #@! TF.FileFunction,Plated,1,2,PTH
FMAT,2
METRIC
T1C0.400
T2C0.500
T3C0.600
T4C0.762
T5C0.800
T6C0.900
T7C1.000
T8C1.092
T9C1.190
T10C1.400
T11C2.200
%
G90
G05
T1
X39.2Y-58.1
X41.112Y-72.3
X51.5Y-77.1
X52.0Y-71.8
X53.45Y-59.15
X56.539Y-51.624
X58.425Y-46.525
X59.1Y-59.0
X59.1Y-77.1
X62.5Y-52.4
X62.5Y-61.3
X62.6Y-75.8
X63.9Y-59.3
X64.025Y-53.325
X65.7Y-49.2
X65.9Y-75.8
X67.2Y-52.8
X67.2Y-58.4
X68.3Y-52.8
X68.3Y-58.4
X68.6Y-65.9
X69.1Y-52.8
X69.3Y-58.4
X71.8Y-70.2
X74.35Y-70.55
X75.675Y-47.575
X78.5Y-53.1
X78.5Y-56.3
X79.1Y-72.6
X80.9Y-53.8
X86.2Y-85.812
X87.7Y-86.6
X88.525Y-68.375
X89.1Y-86.1
X93.4Y-83.5
X93.4Y-86.1
X97.1Y-46.3
X98.825Y-82.425
X99.6Y-42.3
X100.3Y-46.0
X100.6Y-85.4
X104.5Y-59.8
X121.0Y-40.2
X172.886Y-58.0
X172.997Y-63.003
X173.0Y-60.0
X173.0Y-61.995
X173.0Y-56.999
X174.675Y-56.275
T2
X104.45Y-55.45
X150.9Y-54.0
X150.9Y-55.0
X150.9Y-56.0
X150.9Y-62.0
X150.9Y-63.0
X150.9Y-64.0
X161.0Y-50.5
X161.1Y-67.5
X172.8Y-52.0
X173.0Y-66.0
T4
X105.3Y-40.7
X107.1Y-40.7
X165.4Y-81.3
X168.3Y-33.0
X179.3Y-33.0
X182.3Y-81.4
X190.3Y-53.2
X190.3Y-64.6
T5
X71.4Y-80.6
X73.4Y-80.6
X75.4Y-80.6
X77.4Y-80.6
X79.4Y-80.6
X81.4Y-80.6
T6
X102.15Y-41.7
X107.25Y-42.9
T7
X42.56Y-47.54
X42.56Y-50.08
X42.56Y-52.62
X42.56Y-55.16
X42.56Y-57.7
X42.56Y-60.24
X42.56Y-62.78
X42.56Y-65.32
X42.56Y-67.86
X42.56Y-70.4
X45.1Y-47.54
X45.1Y-50.08
X45.1Y-52.62
X45.1Y-55.16
X45.1Y-57.7
X45.1Y-60.24
X45.1Y-62.78
X45.1Y-65.32
X45.1Y-67.86
X45.1Y-70.4
T8
X110.2Y-78.4
X112.7Y-78.4
T9
X54.3Y-83.6
X56.84Y-83.6
X61.66Y-83.6
X64.2Y-83.6
T10
X78.56Y-33.7
X83.64Y-33.7
X109.2Y-50.46
X109.2Y-55.54
T11
X55.2Y-33.8
X70.8Y-33.8
T3
G00X55.2Y-41.25
M15
G01X55.2Y-43.35
M16
G05
G00X60.1Y-39.9
M15
G01X60.1Y-42.0
M16
G05
G00X60.5Y-36.25
M15
G01X60.5Y-38.35
M16
G05
G00X65.5Y-36.25
M15
G01X65.5Y-38.35
M16
G05
G00X65.9Y-39.9
M15
G01X65.9Y-42.0
M16
G05
G00X70.8Y-41.25
M15
G01X70.8Y-43.35
M16
G05
T7
G00X62.4Y-31.8
M15
G01X63.6Y-31.8
M16
G05
T0
M30
