%TF.GenerationSoftware,KiCad,Pcbnew,5.1.9-73d0e3b20d~88~ubuntu20.04.1*%
%TF.CreationDate,2021-03-10T23:10:45+08:00*%
%TF.ProjectId,OV_Power,4f565f50-6f77-4657-922e-6b696361645f,3.A*%
%TF.SameCoordinates,Original*%
%TF.FileFunction,Other,Fab,Top*%
%FSLAX46Y46*%
G04 Gerber Fmt 4.6, Leading zero omitted, Abs format (unit mm)*
G04 Created by KiCad (PCBNEW 5.1.9-73d0e3b20d~88~ubuntu20.04.1) date 2021-03-10 23:10:45*
%MOMM*%
%LPD*%
G01*
G04 APERTURE LIST*
%ADD10C,0.100000*%
%ADD11C,0.150000*%
%ADD12C,0.300000*%
%ADD13C,0.400000*%
%TA.AperFunction,Profile*%
%ADD14C,0.050000*%
%TD*%
%ADD15C,0.120000*%
%ADD16C,0.127000*%
%ADD17C,0.060000*%
%ADD18C,0.075000*%
%ADD19C,0.080000*%
G04 APERTURE END LIST*
D10*
D11*
X177002200Y-166007200D02*
X177002200Y-198007200D01*
X285002200Y-198007200D01*
X285002200Y-166007200D01*
X177002200Y-166007200D01*
D10*
D11*
X10000000Y-10000000D02*
X10000000Y-200007200D01*
X287002200Y-200007200D01*
X287002200Y-10000000D01*
X10000000Y-10000000D01*
D10*
D11*
X12000000Y-12000000D02*
X12000000Y-198007200D01*
X285002200Y-198007200D01*
X285002200Y-12000000D01*
X12000000Y-12000000D01*
D10*
D11*
X60000000Y-12000000D02*
X60000000Y-10000000D01*
D10*
D11*
X110000000Y-12000000D02*
X110000000Y-10000000D01*
D10*
D11*
X160000000Y-12000000D02*
X160000000Y-10000000D01*
D10*
D11*
X210000000Y-12000000D02*
X210000000Y-10000000D01*
D10*
D11*
X260000000Y-12000000D02*
X260000000Y-10000000D01*
D10*
D11*
X36065476Y-11588095D02*
X35322619Y-11588095D01*
X35694047Y-11588095D02*
X35694047Y-10288095D01*
X35570238Y-10473809D01*
X35446428Y-10597619D01*
X35322619Y-10659523D01*
D10*
D11*
X85322619Y-10411904D02*
X85384523Y-10350000D01*
X85508333Y-10288095D01*
X85817857Y-10288095D01*
X85941666Y-10350000D01*
X86003571Y-10411904D01*
X86065476Y-10535714D01*
X86065476Y-10659523D01*
X86003571Y-10845238D01*
X85260714Y-11588095D01*
X86065476Y-11588095D01*
D10*
D11*
X135260714Y-10288095D02*
X136065476Y-10288095D01*
X135632142Y-10783333D01*
X135817857Y-10783333D01*
X135941666Y-10845238D01*
X136003571Y-10907142D01*
X136065476Y-11030952D01*
X136065476Y-11340476D01*
X136003571Y-11464285D01*
X135941666Y-11526190D01*
X135817857Y-11588095D01*
X135446428Y-11588095D01*
X135322619Y-11526190D01*
X135260714Y-11464285D01*
D10*
D11*
X185941666Y-10721428D02*
X185941666Y-11588095D01*
X185632142Y-10226190D02*
X185322619Y-11154761D01*
X186127380Y-11154761D01*
D10*
D11*
X236003571Y-10288095D02*
X235384523Y-10288095D01*
X235322619Y-10907142D01*
X235384523Y-10845238D01*
X235508333Y-10783333D01*
X235817857Y-10783333D01*
X235941666Y-10845238D01*
X236003571Y-10907142D01*
X236065476Y-11030952D01*
X236065476Y-11340476D01*
X236003571Y-11464285D01*
X235941666Y-11526190D01*
X235817857Y-11588095D01*
X235508333Y-11588095D01*
X235384523Y-11526190D01*
X235322619Y-11464285D01*
D10*
D11*
X285941666Y-10288095D02*
X285694047Y-10288095D01*
X285570238Y-10350000D01*
X285508333Y-10411904D01*
X285384523Y-10597619D01*
X285322619Y-10845238D01*
X285322619Y-11340476D01*
X285384523Y-11464285D01*
X285446428Y-11526190D01*
X285570238Y-11588095D01*
X285817857Y-11588095D01*
X285941666Y-11526190D01*
X286003571Y-11464285D01*
X286065476Y-11340476D01*
X286065476Y-11030952D01*
X286003571Y-10907142D01*
X285941666Y-10845238D01*
X285817857Y-10783333D01*
X285570238Y-10783333D01*
X285446428Y-10845238D01*
X285384523Y-10907142D01*
X285322619Y-11030952D01*
D10*
D11*
X60000000Y-198007200D02*
X60000000Y-200007200D01*
D10*
D11*
X110000000Y-198007200D02*
X110000000Y-200007200D01*
D10*
D11*
X160000000Y-198007200D02*
X160000000Y-200007200D01*
D10*
D11*
X210000000Y-198007200D02*
X210000000Y-200007200D01*
D10*
D11*
X260000000Y-198007200D02*
X260000000Y-200007200D01*
D10*
D11*
X36065476Y-199595295D02*
X35322619Y-199595295D01*
X35694047Y-199595295D02*
X35694047Y-198295295D01*
X35570238Y-198481009D01*
X35446428Y-198604819D01*
X35322619Y-198666723D01*
D10*
D11*
X85322619Y-198419104D02*
X85384523Y-198357200D01*
X85508333Y-198295295D01*
X85817857Y-198295295D01*
X85941666Y-198357200D01*
X86003571Y-198419104D01*
X86065476Y-198542914D01*
X86065476Y-198666723D01*
X86003571Y-198852438D01*
X85260714Y-199595295D01*
X86065476Y-199595295D01*
D10*
D11*
X135260714Y-198295295D02*
X136065476Y-198295295D01*
X135632142Y-198790533D01*
X135817857Y-198790533D01*
X135941666Y-198852438D01*
X136003571Y-198914342D01*
X136065476Y-199038152D01*
X136065476Y-199347676D01*
X136003571Y-199471485D01*
X135941666Y-199533390D01*
X135817857Y-199595295D01*
X135446428Y-199595295D01*
X135322619Y-199533390D01*
X135260714Y-199471485D01*
D10*
D11*
X185941666Y-198728628D02*
X185941666Y-199595295D01*
X185632142Y-198233390D02*
X185322619Y-199161961D01*
X186127380Y-199161961D01*
D10*
D11*
X236003571Y-198295295D02*
X235384523Y-198295295D01*
X235322619Y-198914342D01*
X235384523Y-198852438D01*
X235508333Y-198790533D01*
X235817857Y-198790533D01*
X235941666Y-198852438D01*
X236003571Y-198914342D01*
X236065476Y-199038152D01*
X236065476Y-199347676D01*
X236003571Y-199471485D01*
X235941666Y-199533390D01*
X235817857Y-199595295D01*
X235508333Y-199595295D01*
X235384523Y-199533390D01*
X235322619Y-199471485D01*
D10*
D11*
X285941666Y-198295295D02*
X285694047Y-198295295D01*
X285570238Y-198357200D01*
X285508333Y-198419104D01*
X285384523Y-198604819D01*
X285322619Y-198852438D01*
X285322619Y-199347676D01*
X285384523Y-199471485D01*
X285446428Y-199533390D01*
X285570238Y-199595295D01*
X285817857Y-199595295D01*
X285941666Y-199533390D01*
X286003571Y-199471485D01*
X286065476Y-199347676D01*
X286065476Y-199038152D01*
X286003571Y-198914342D01*
X285941666Y-198852438D01*
X285817857Y-198790533D01*
X285570238Y-198790533D01*
X285446428Y-198852438D01*
X285384523Y-198914342D01*
X285322619Y-199038152D01*
D10*
D11*
X10000000Y-60000000D02*
X12000000Y-60000000D01*
D10*
D11*
X10000000Y-110000000D02*
X12000000Y-110000000D01*
D10*
D11*
X10000000Y-160000000D02*
X12000000Y-160000000D01*
D10*
D11*
X10690476Y-35216666D02*
X11309523Y-35216666D01*
X10566666Y-35588095D02*
X11000000Y-34288095D01*
X11433333Y-35588095D01*
D10*
D11*
X11092857Y-84907142D02*
X11278571Y-84969047D01*
X11340476Y-85030952D01*
X11402380Y-85154761D01*
X11402380Y-85340476D01*
X11340476Y-85464285D01*
X11278571Y-85526190D01*
X11154761Y-85588095D01*
X10659523Y-85588095D01*
X10659523Y-84288095D01*
X11092857Y-84288095D01*
X11216666Y-84350000D01*
X11278571Y-84411904D01*
X11340476Y-84535714D01*
X11340476Y-84659523D01*
X11278571Y-84783333D01*
X11216666Y-84845238D01*
X11092857Y-84907142D01*
X10659523Y-84907142D01*
D10*
D11*
X11402380Y-135464285D02*
X11340476Y-135526190D01*
X11154761Y-135588095D01*
X11030952Y-135588095D01*
X10845238Y-135526190D01*
X10721428Y-135402380D01*
X10659523Y-135278571D01*
X10597619Y-135030952D01*
X10597619Y-134845238D01*
X10659523Y-134597619D01*
X10721428Y-134473809D01*
X10845238Y-134350000D01*
X11030952Y-134288095D01*
X11154761Y-134288095D01*
X11340476Y-134350000D01*
X11402380Y-134411904D01*
D10*
D11*
X10659523Y-185588095D02*
X10659523Y-184288095D01*
X10969047Y-184288095D01*
X11154761Y-184350000D01*
X11278571Y-184473809D01*
X11340476Y-184597619D01*
X11402380Y-184845238D01*
X11402380Y-185030952D01*
X11340476Y-185278571D01*
X11278571Y-185402380D01*
X11154761Y-185526190D01*
X10969047Y-185588095D01*
X10659523Y-185588095D01*
D10*
D11*
X287002200Y-60000000D02*
X285002200Y-60000000D01*
D10*
D11*
X287002200Y-110000000D02*
X285002200Y-110000000D01*
D10*
D11*
X287002200Y-160000000D02*
X285002200Y-160000000D01*
D10*
D11*
X285692676Y-35216666D02*
X286311723Y-35216666D01*
X285568866Y-35588095D02*
X286002200Y-34288095D01*
X286435533Y-35588095D01*
D10*
D11*
X286095057Y-84907142D02*
X286280771Y-84969047D01*
X286342676Y-85030952D01*
X286404580Y-85154761D01*
X286404580Y-85340476D01*
X286342676Y-85464285D01*
X286280771Y-85526190D01*
X286156961Y-85588095D01*
X285661723Y-85588095D01*
X285661723Y-84288095D01*
X286095057Y-84288095D01*
X286218866Y-84350000D01*
X286280771Y-84411904D01*
X286342676Y-84535714D01*
X286342676Y-84659523D01*
X286280771Y-84783333D01*
X286218866Y-84845238D01*
X286095057Y-84907142D01*
X285661723Y-84907142D01*
D10*
D11*
X286404580Y-135464285D02*
X286342676Y-135526190D01*
X286156961Y-135588095D01*
X286033152Y-135588095D01*
X285847438Y-135526190D01*
X285723628Y-135402380D01*
X285661723Y-135278571D01*
X285599819Y-135030952D01*
X285599819Y-134845238D01*
X285661723Y-134597619D01*
X285723628Y-134473809D01*
X285847438Y-134350000D01*
X286033152Y-134288095D01*
X286156961Y-134288095D01*
X286342676Y-134350000D01*
X286404580Y-134411904D01*
D10*
D11*
X285661723Y-185588095D02*
X285661723Y-184288095D01*
X285971247Y-184288095D01*
X286156961Y-184350000D01*
X286280771Y-184473809D01*
X286342676Y-184597619D01*
X286404580Y-184845238D01*
X286404580Y-185030952D01*
X286342676Y-185278571D01*
X286280771Y-185402380D01*
X286156961Y-185526190D01*
X285971247Y-185588095D01*
X285661723Y-185588095D01*
D10*
D11*
X200434342Y-193785771D02*
X200434342Y-192285771D01*
X200791485Y-192285771D01*
X201005771Y-192357200D01*
X201148628Y-192500057D01*
X201220057Y-192642914D01*
X201291485Y-192928628D01*
X201291485Y-193142914D01*
X201220057Y-193428628D01*
X201148628Y-193571485D01*
X201005771Y-193714342D01*
X200791485Y-193785771D01*
X200434342Y-193785771D01*
X202577200Y-193785771D02*
X202577200Y-193000057D01*
X202505771Y-192857200D01*
X202362914Y-192785771D01*
X202077200Y-192785771D01*
X201934342Y-192857200D01*
X202577200Y-193714342D02*
X202434342Y-193785771D01*
X202077200Y-193785771D01*
X201934342Y-193714342D01*
X201862914Y-193571485D01*
X201862914Y-193428628D01*
X201934342Y-193285771D01*
X202077200Y-193214342D01*
X202434342Y-193214342D01*
X202577200Y-193142914D01*
X203077200Y-192785771D02*
X203648628Y-192785771D01*
X203291485Y-192285771D02*
X203291485Y-193571485D01*
X203362914Y-193714342D01*
X203505771Y-193785771D01*
X203648628Y-193785771D01*
X204720057Y-193714342D02*
X204577200Y-193785771D01*
X204291485Y-193785771D01*
X204148628Y-193714342D01*
X204077200Y-193571485D01*
X204077200Y-193000057D01*
X204148628Y-192857200D01*
X204291485Y-192785771D01*
X204577200Y-192785771D01*
X204720057Y-192857200D01*
X204791485Y-193000057D01*
X204791485Y-193142914D01*
X204077200Y-193285771D01*
X205434342Y-193642914D02*
X205505771Y-193714342D01*
X205434342Y-193785771D01*
X205362914Y-193714342D01*
X205434342Y-193642914D01*
X205434342Y-193785771D01*
X205434342Y-192857200D02*
X205505771Y-192928628D01*
X205434342Y-193000057D01*
X205362914Y-192928628D01*
X205434342Y-192857200D01*
X205434342Y-193000057D01*
X207220057Y-192428628D02*
X207291485Y-192357200D01*
X207434342Y-192285771D01*
X207791485Y-192285771D01*
X207934342Y-192357200D01*
X208005771Y-192428628D01*
X208077200Y-192571485D01*
X208077200Y-192714342D01*
X208005771Y-192928628D01*
X207148628Y-193785771D01*
X208077200Y-193785771D01*
X209005771Y-192285771D02*
X209148628Y-192285771D01*
X209291485Y-192357200D01*
X209362914Y-192428628D01*
X209434342Y-192571485D01*
X209505771Y-192857200D01*
X209505771Y-193214342D01*
X209434342Y-193500057D01*
X209362914Y-193642914D01*
X209291485Y-193714342D01*
X209148628Y-193785771D01*
X209005771Y-193785771D01*
X208862914Y-193714342D01*
X208791485Y-193642914D01*
X208720057Y-193500057D01*
X208648628Y-193214342D01*
X208648628Y-192857200D01*
X208720057Y-192571485D01*
X208791485Y-192428628D01*
X208862914Y-192357200D01*
X209005771Y-192285771D01*
X210077200Y-192428628D02*
X210148628Y-192357200D01*
X210291485Y-192285771D01*
X210648628Y-192285771D01*
X210791485Y-192357200D01*
X210862914Y-192428628D01*
X210934342Y-192571485D01*
X210934342Y-192714342D01*
X210862914Y-192928628D01*
X210005771Y-193785771D01*
X210934342Y-193785771D01*
X212362914Y-193785771D02*
X211505771Y-193785771D01*
X211934342Y-193785771D02*
X211934342Y-192285771D01*
X211791485Y-192500057D01*
X211648628Y-192642914D01*
X211505771Y-192714342D01*
X213005771Y-193214342D02*
X214148628Y-193214342D01*
X215148628Y-192285771D02*
X215291485Y-192285771D01*
X215434342Y-192357200D01*
X215505771Y-192428628D01*
X215577200Y-192571485D01*
X215648628Y-192857200D01*
X215648628Y-193214342D01*
X215577200Y-193500057D01*
X215505771Y-193642914D01*
X215434342Y-193714342D01*
X215291485Y-193785771D01*
X215148628Y-193785771D01*
X215005771Y-193714342D01*
X214934342Y-193642914D01*
X214862914Y-193500057D01*
X214791485Y-193214342D01*
X214791485Y-192857200D01*
X214862914Y-192571485D01*
X214934342Y-192428628D01*
X215005771Y-192357200D01*
X215148628Y-192285771D01*
X217077200Y-193785771D02*
X216220057Y-193785771D01*
X216648628Y-193785771D02*
X216648628Y-192285771D01*
X216505771Y-192500057D01*
X216362914Y-192642914D01*
X216220057Y-192714342D01*
X217720057Y-193214342D02*
X218862914Y-193214342D01*
X220362914Y-193785771D02*
X219505771Y-193785771D01*
X219934342Y-193785771D02*
X219934342Y-192285771D01*
X219791485Y-192500057D01*
X219648628Y-192642914D01*
X219505771Y-192714342D01*
X221291485Y-192285771D02*
X221434342Y-192285771D01*
X221577200Y-192357200D01*
X221648628Y-192428628D01*
X221720057Y-192571485D01*
X221791485Y-192857200D01*
X221791485Y-193214342D01*
X221720057Y-193500057D01*
X221648628Y-193642914D01*
X221577200Y-193714342D01*
X221434342Y-193785771D01*
X221291485Y-193785771D01*
X221148628Y-193714342D01*
X221077200Y-193642914D01*
X221005771Y-193500057D01*
X220934342Y-193214342D01*
X220934342Y-192857200D01*
X221005771Y-192571485D01*
X221077200Y-192428628D01*
X221148628Y-192357200D01*
X221291485Y-192285771D01*
D10*
D11*
X177002200Y-194507200D02*
X285002200Y-194507200D01*
D10*
D11*
X178434342Y-196585771D02*
X178434342Y-195085771D01*
X179291485Y-196585771D02*
X178648628Y-195728628D01*
X179291485Y-195085771D02*
X178434342Y-195942914D01*
X179934342Y-196585771D02*
X179934342Y-195585771D01*
X179934342Y-195085771D02*
X179862914Y-195157200D01*
X179934342Y-195228628D01*
X180005771Y-195157200D01*
X179934342Y-195085771D01*
X179934342Y-195228628D01*
X181505771Y-196442914D02*
X181434342Y-196514342D01*
X181220057Y-196585771D01*
X181077200Y-196585771D01*
X180862914Y-196514342D01*
X180720057Y-196371485D01*
X180648628Y-196228628D01*
X180577200Y-195942914D01*
X180577200Y-195728628D01*
X180648628Y-195442914D01*
X180720057Y-195300057D01*
X180862914Y-195157200D01*
X181077200Y-195085771D01*
X181220057Y-195085771D01*
X181434342Y-195157200D01*
X181505771Y-195228628D01*
X182791485Y-196585771D02*
X182791485Y-195800057D01*
X182720057Y-195657200D01*
X182577200Y-195585771D01*
X182291485Y-195585771D01*
X182148628Y-195657200D01*
X182791485Y-196514342D02*
X182648628Y-196585771D01*
X182291485Y-196585771D01*
X182148628Y-196514342D01*
X182077200Y-196371485D01*
X182077200Y-196228628D01*
X182148628Y-196085771D01*
X182291485Y-196014342D01*
X182648628Y-196014342D01*
X182791485Y-195942914D01*
X184148628Y-196585771D02*
X184148628Y-195085771D01*
X184148628Y-196514342D02*
X184005771Y-196585771D01*
X183720057Y-196585771D01*
X183577200Y-196514342D01*
X183505771Y-196442914D01*
X183434342Y-196300057D01*
X183434342Y-195871485D01*
X183505771Y-195728628D01*
X183577200Y-195657200D01*
X183720057Y-195585771D01*
X184005771Y-195585771D01*
X184148628Y-195657200D01*
X186005771Y-195800057D02*
X186505771Y-195800057D01*
X186720057Y-196585771D02*
X186005771Y-196585771D01*
X186005771Y-195085771D01*
X186720057Y-195085771D01*
X187362914Y-196442914D02*
X187434342Y-196514342D01*
X187362914Y-196585771D01*
X187291485Y-196514342D01*
X187362914Y-196442914D01*
X187362914Y-196585771D01*
X188077200Y-196585771D02*
X188077200Y-195085771D01*
X188434342Y-195085771D01*
X188648628Y-195157200D01*
X188791485Y-195300057D01*
X188862914Y-195442914D01*
X188934342Y-195728628D01*
X188934342Y-195942914D01*
X188862914Y-196228628D01*
X188791485Y-196371485D01*
X188648628Y-196514342D01*
X188434342Y-196585771D01*
X188077200Y-196585771D01*
X189577200Y-196442914D02*
X189648628Y-196514342D01*
X189577200Y-196585771D01*
X189505771Y-196514342D01*
X189577200Y-196442914D01*
X189577200Y-196585771D01*
X190220057Y-196157200D02*
X190934342Y-196157200D01*
X190077200Y-196585771D02*
X190577200Y-195085771D01*
X191077200Y-196585771D01*
X191577200Y-196442914D02*
X191648628Y-196514342D01*
X191577200Y-196585771D01*
X191505771Y-196514342D01*
X191577200Y-196442914D01*
X191577200Y-196585771D01*
X194577200Y-196585771D02*
X194577200Y-195085771D01*
X194720057Y-196014342D02*
X195148628Y-196585771D01*
X195148628Y-195585771D02*
X194577200Y-196157200D01*
X195791485Y-196585771D02*
X195791485Y-195585771D01*
X195791485Y-195085771D02*
X195720057Y-195157200D01*
X195791485Y-195228628D01*
X195862914Y-195157200D01*
X195791485Y-195085771D01*
X195791485Y-195228628D01*
X197148628Y-196514342D02*
X197005771Y-196585771D01*
X196720057Y-196585771D01*
X196577200Y-196514342D01*
X196505771Y-196442914D01*
X196434342Y-196300057D01*
X196434342Y-195871485D01*
X196505771Y-195728628D01*
X196577200Y-195657200D01*
X196720057Y-195585771D01*
X197005771Y-195585771D01*
X197148628Y-195657200D01*
X198434342Y-196585771D02*
X198434342Y-195800057D01*
X198362914Y-195657200D01*
X198220057Y-195585771D01*
X197934342Y-195585771D01*
X197791485Y-195657200D01*
X198434342Y-196514342D02*
X198291485Y-196585771D01*
X197934342Y-196585771D01*
X197791485Y-196514342D01*
X197720057Y-196371485D01*
X197720057Y-196228628D01*
X197791485Y-196085771D01*
X197934342Y-196014342D01*
X198291485Y-196014342D01*
X198434342Y-195942914D01*
X199791485Y-196585771D02*
X199791485Y-195085771D01*
X199791485Y-196514342D02*
X199648628Y-196585771D01*
X199362914Y-196585771D01*
X199220057Y-196514342D01*
X199148628Y-196442914D01*
X199077200Y-196300057D01*
X199077200Y-195871485D01*
X199148628Y-195728628D01*
X199220057Y-195657200D01*
X199362914Y-195585771D01*
X199648628Y-195585771D01*
X199791485Y-195657200D01*
X202362914Y-195085771D02*
X201648628Y-195085771D01*
X201577200Y-195800057D01*
X201648628Y-195728628D01*
X201791485Y-195657200D01*
X202148628Y-195657200D01*
X202291485Y-195728628D01*
X202362914Y-195800057D01*
X202434342Y-195942914D01*
X202434342Y-196300057D01*
X202362914Y-196442914D01*
X202291485Y-196514342D01*
X202148628Y-196585771D01*
X201791485Y-196585771D01*
X201648628Y-196514342D01*
X201577200Y-196442914D01*
X203077200Y-196442914D02*
X203148628Y-196514342D01*
X203077200Y-196585771D01*
X203005771Y-196514342D01*
X203077200Y-196442914D01*
X203077200Y-196585771D01*
X204577200Y-196585771D02*
X203720057Y-196585771D01*
X204148628Y-196585771D02*
X204148628Y-195085771D01*
X204005771Y-195300057D01*
X203862914Y-195442914D01*
X203720057Y-195514342D01*
X205220057Y-196442914D02*
X205291485Y-196514342D01*
X205220057Y-196585771D01*
X205148628Y-196514342D01*
X205220057Y-196442914D01*
X205220057Y-196585771D01*
X206005771Y-196585771D02*
X206291485Y-196585771D01*
X206434342Y-196514342D01*
X206505771Y-196442914D01*
X206648628Y-196228628D01*
X206720057Y-195942914D01*
X206720057Y-195371485D01*
X206648628Y-195228628D01*
X206577200Y-195157200D01*
X206434342Y-195085771D01*
X206148628Y-195085771D01*
X206005771Y-195157200D01*
X205934342Y-195228628D01*
X205862914Y-195371485D01*
X205862914Y-195728628D01*
X205934342Y-195871485D01*
X206005771Y-195942914D01*
X206148628Y-196014342D01*
X206434342Y-196014342D01*
X206577200Y-195942914D01*
X206648628Y-195871485D01*
X206720057Y-195728628D01*
X207362914Y-196014342D02*
X208505771Y-196014342D01*
X209077200Y-195085771D02*
X210077200Y-195085771D01*
X209434342Y-196585771D01*
X210505771Y-195085771D02*
X211434342Y-195085771D01*
X210934342Y-195657200D01*
X211148628Y-195657200D01*
X211291485Y-195728628D01*
X211362914Y-195800057D01*
X211434342Y-195942914D01*
X211434342Y-196300057D01*
X211362914Y-196442914D01*
X211291485Y-196514342D01*
X211148628Y-196585771D01*
X210720057Y-196585771D01*
X210577200Y-196514342D01*
X210505771Y-196442914D01*
X212720057Y-196585771D02*
X212720057Y-195085771D01*
X212720057Y-196514342D02*
X212577200Y-196585771D01*
X212291485Y-196585771D01*
X212148628Y-196514342D01*
X212077200Y-196442914D01*
X212005771Y-196300057D01*
X212005771Y-195871485D01*
X212077200Y-195728628D01*
X212148628Y-195657200D01*
X212291485Y-195585771D01*
X212577200Y-195585771D01*
X212720057Y-195657200D01*
X213720057Y-195085771D02*
X213862914Y-195085771D01*
X214005771Y-195157200D01*
X214077200Y-195228628D01*
X214148628Y-195371485D01*
X214220057Y-195657200D01*
X214220057Y-196014342D01*
X214148628Y-196300057D01*
X214077200Y-196442914D01*
X214005771Y-196514342D01*
X213862914Y-196585771D01*
X213720057Y-196585771D01*
X213577200Y-196514342D01*
X213505771Y-196442914D01*
X213434342Y-196300057D01*
X213362914Y-196014342D01*
X213362914Y-195657200D01*
X213434342Y-195371485D01*
X213505771Y-195228628D01*
X213577200Y-195157200D01*
X213720057Y-195085771D01*
X215434342Y-196514342D02*
X215291485Y-196585771D01*
X215005771Y-196585771D01*
X214862914Y-196514342D01*
X214791485Y-196371485D01*
X214791485Y-195800057D01*
X214862914Y-195657200D01*
X215005771Y-195585771D01*
X215291485Y-195585771D01*
X215434342Y-195657200D01*
X215505771Y-195800057D01*
X215505771Y-195942914D01*
X214791485Y-196085771D01*
X216005771Y-195085771D02*
X216934342Y-195085771D01*
X216434342Y-195657200D01*
X216648628Y-195657200D01*
X216791485Y-195728628D01*
X216862914Y-195800057D01*
X216934342Y-195942914D01*
X216934342Y-196300057D01*
X216862914Y-196442914D01*
X216791485Y-196514342D01*
X216648628Y-196585771D01*
X216220057Y-196585771D01*
X216077200Y-196514342D01*
X216005771Y-196442914D01*
X217577200Y-196585771D02*
X217577200Y-195085771D01*
X217577200Y-195657200D02*
X217720057Y-195585771D01*
X218005771Y-195585771D01*
X218148628Y-195657200D01*
X218220057Y-195728628D01*
X218291485Y-195871485D01*
X218291485Y-196300057D01*
X218220057Y-196442914D01*
X218148628Y-196514342D01*
X218005771Y-196585771D01*
X217720057Y-196585771D01*
X217577200Y-196514342D01*
X218862914Y-195228628D02*
X218934342Y-195157200D01*
X219077200Y-195085771D01*
X219434342Y-195085771D01*
X219577200Y-195157200D01*
X219648628Y-195228628D01*
X219720057Y-195371485D01*
X219720057Y-195514342D01*
X219648628Y-195728628D01*
X218791485Y-196585771D01*
X219720057Y-196585771D01*
X220648628Y-195085771D02*
X220791485Y-195085771D01*
X220934342Y-195157200D01*
X221005771Y-195228628D01*
X221077200Y-195371485D01*
X221148628Y-195657200D01*
X221148628Y-196014342D01*
X221077200Y-196300057D01*
X221005771Y-196442914D01*
X220934342Y-196514342D01*
X220791485Y-196585771D01*
X220648628Y-196585771D01*
X220505771Y-196514342D01*
X220434342Y-196442914D01*
X220362914Y-196300057D01*
X220291485Y-196014342D01*
X220291485Y-195657200D01*
X220362914Y-195371485D01*
X220434342Y-195228628D01*
X220505771Y-195157200D01*
X220648628Y-195085771D01*
X222434342Y-196585771D02*
X222434342Y-195085771D01*
X222434342Y-196514342D02*
X222291485Y-196585771D01*
X222005771Y-196585771D01*
X221862914Y-196514342D01*
X221791485Y-196442914D01*
X221720057Y-196300057D01*
X221720057Y-195871485D01*
X221791485Y-195728628D01*
X221862914Y-195657200D01*
X222005771Y-195585771D01*
X222291485Y-195585771D01*
X222434342Y-195657200D01*
X222791485Y-194677200D02*
X224220057Y-194677200D01*
X223362914Y-195728628D02*
X223220057Y-195657200D01*
X223148628Y-195585771D01*
X223077200Y-195442914D01*
X223077200Y-195371485D01*
X223148628Y-195228628D01*
X223220057Y-195157200D01*
X223362914Y-195085771D01*
X223648628Y-195085771D01*
X223791485Y-195157200D01*
X223862914Y-195228628D01*
X223934342Y-195371485D01*
X223934342Y-195442914D01*
X223862914Y-195585771D01*
X223791485Y-195657200D01*
X223648628Y-195728628D01*
X223362914Y-195728628D01*
X223220057Y-195800057D01*
X223148628Y-195871485D01*
X223077200Y-196014342D01*
X223077200Y-196300057D01*
X223148628Y-196442914D01*
X223220057Y-196514342D01*
X223362914Y-196585771D01*
X223648628Y-196585771D01*
X223791485Y-196514342D01*
X223862914Y-196442914D01*
X223934342Y-196300057D01*
X223934342Y-196014342D01*
X223862914Y-195871485D01*
X223791485Y-195800057D01*
X223648628Y-195728628D01*
X224220057Y-194677200D02*
X225648628Y-194677200D01*
X224791485Y-195728628D02*
X224648628Y-195657200D01*
X224577200Y-195585771D01*
X224505771Y-195442914D01*
X224505771Y-195371485D01*
X224577200Y-195228628D01*
X224648628Y-195157200D01*
X224791485Y-195085771D01*
X225077200Y-195085771D01*
X225220057Y-195157200D01*
X225291485Y-195228628D01*
X225362914Y-195371485D01*
X225362914Y-195442914D01*
X225291485Y-195585771D01*
X225220057Y-195657200D01*
X225077200Y-195728628D01*
X224791485Y-195728628D01*
X224648628Y-195800057D01*
X224577200Y-195871485D01*
X224505771Y-196014342D01*
X224505771Y-196300057D01*
X224577200Y-196442914D01*
X224648628Y-196514342D01*
X224791485Y-196585771D01*
X225077200Y-196585771D01*
X225220057Y-196514342D01*
X225291485Y-196442914D01*
X225362914Y-196300057D01*
X225362914Y-196014342D01*
X225291485Y-195871485D01*
X225220057Y-195800057D01*
X225077200Y-195728628D01*
X226648628Y-195585771D02*
X226648628Y-196585771D01*
X226005771Y-195585771D02*
X226005771Y-196371485D01*
X226077199Y-196514342D01*
X226220057Y-196585771D01*
X226434342Y-196585771D01*
X226577199Y-196514342D01*
X226648628Y-196442914D01*
X227362914Y-196585771D02*
X227362914Y-195085771D01*
X227362914Y-195657200D02*
X227505771Y-195585771D01*
X227791485Y-195585771D01*
X227934342Y-195657200D01*
X228005771Y-195728628D01*
X228077200Y-195871485D01*
X228077200Y-196300057D01*
X228005771Y-196442914D01*
X227934342Y-196514342D01*
X227791485Y-196585771D01*
X227505771Y-196585771D01*
X227362914Y-196514342D01*
X229362914Y-195585771D02*
X229362914Y-196585771D01*
X228720057Y-195585771D02*
X228720057Y-196371485D01*
X228791485Y-196514342D01*
X228934342Y-196585771D01*
X229148628Y-196585771D01*
X229291485Y-196514342D01*
X229362914Y-196442914D01*
X230077200Y-195585771D02*
X230077200Y-196585771D01*
X230077200Y-195728628D02*
X230148628Y-195657200D01*
X230291485Y-195585771D01*
X230505771Y-195585771D01*
X230648628Y-195657200D01*
X230720057Y-195800057D01*
X230720057Y-196585771D01*
X231220057Y-195585771D02*
X231791485Y-195585771D01*
X231434342Y-195085771D02*
X231434342Y-196371485D01*
X231505771Y-196514342D01*
X231648628Y-196585771D01*
X231791485Y-196585771D01*
X232934342Y-195585771D02*
X232934342Y-196585771D01*
X232291485Y-195585771D02*
X232291485Y-196371485D01*
X232362914Y-196514342D01*
X232505771Y-196585771D01*
X232720057Y-196585771D01*
X232862914Y-196514342D01*
X232934342Y-196442914D01*
X233577200Y-195228628D02*
X233648628Y-195157200D01*
X233791485Y-195085771D01*
X234148628Y-195085771D01*
X234291485Y-195157200D01*
X234362914Y-195228628D01*
X234434342Y-195371485D01*
X234434342Y-195514342D01*
X234362914Y-195728628D01*
X233505771Y-196585771D01*
X234434342Y-196585771D01*
X235362914Y-195085771D02*
X235505771Y-195085771D01*
X235648628Y-195157200D01*
X235720057Y-195228628D01*
X235791485Y-195371485D01*
X235862914Y-195657200D01*
X235862914Y-196014342D01*
X235791485Y-196300057D01*
X235720057Y-196442914D01*
X235648628Y-196514342D01*
X235505771Y-196585771D01*
X235362914Y-196585771D01*
X235220057Y-196514342D01*
X235148628Y-196442914D01*
X235077200Y-196300057D01*
X235005771Y-196014342D01*
X235005771Y-195657200D01*
X235077200Y-195371485D01*
X235148628Y-195228628D01*
X235220057Y-195157200D01*
X235362914Y-195085771D01*
X236505771Y-196442914D02*
X236577199Y-196514342D01*
X236505771Y-196585771D01*
X236434342Y-196514342D01*
X236505771Y-196442914D01*
X236505771Y-196585771D01*
X237505771Y-195085771D02*
X237648628Y-195085771D01*
X237791485Y-195157200D01*
X237862914Y-195228628D01*
X237934342Y-195371485D01*
X238005771Y-195657200D01*
X238005771Y-196014342D01*
X237934342Y-196300057D01*
X237862914Y-196442914D01*
X237791485Y-196514342D01*
X237648628Y-196585771D01*
X237505771Y-196585771D01*
X237362914Y-196514342D01*
X237291485Y-196442914D01*
X237220057Y-196300057D01*
X237148628Y-196014342D01*
X237148628Y-195657200D01*
X237220057Y-195371485D01*
X237291485Y-195228628D01*
X237362914Y-195157200D01*
X237505771Y-195085771D01*
X239291485Y-195585771D02*
X239291485Y-196585771D01*
X238934342Y-195014342D02*
X238577199Y-196085771D01*
X239505771Y-196085771D01*
X240077199Y-196442914D02*
X240148628Y-196514342D01*
X240077199Y-196585771D01*
X240005771Y-196514342D01*
X240077199Y-196442914D01*
X240077199Y-196585771D01*
X241577199Y-196585771D02*
X240720057Y-196585771D01*
X241148628Y-196585771D02*
X241148628Y-195085771D01*
X241005771Y-195300057D01*
X240862914Y-195442914D01*
X240720057Y-195514342D01*
D10*
D11*
X177002200Y-191507200D02*
X285002200Y-191507200D01*
D10*
D12*
X264411485Y-193785771D02*
X263911485Y-193071485D01*
X263554342Y-193785771D02*
X263554342Y-192285771D01*
X264125771Y-192285771D01*
X264268628Y-192357200D01*
X264340057Y-192428628D01*
X264411485Y-192571485D01*
X264411485Y-192785771D01*
X264340057Y-192928628D01*
X264268628Y-193000057D01*
X264125771Y-193071485D01*
X263554342Y-193071485D01*
X265625771Y-193714342D02*
X265482914Y-193785771D01*
X265197200Y-193785771D01*
X265054342Y-193714342D01*
X264982914Y-193571485D01*
X264982914Y-193000057D01*
X265054342Y-192857200D01*
X265197200Y-192785771D01*
X265482914Y-192785771D01*
X265625771Y-192857200D01*
X265697200Y-193000057D01*
X265697200Y-193142914D01*
X264982914Y-193285771D01*
X266197200Y-192785771D02*
X266554342Y-193785771D01*
X266911485Y-192785771D01*
X267482914Y-193642914D02*
X267554342Y-193714342D01*
X267482914Y-193785771D01*
X267411485Y-193714342D01*
X267482914Y-193642914D01*
X267482914Y-193785771D01*
X267482914Y-192857200D02*
X267554342Y-192928628D01*
X267482914Y-193000057D01*
X267411485Y-192928628D01*
X267482914Y-192857200D01*
X267482914Y-193000057D01*
X269197200Y-192285771D02*
X270125771Y-192285771D01*
X269625771Y-192857200D01*
X269840057Y-192857200D01*
X269982914Y-192928628D01*
X270054342Y-193000057D01*
X270125771Y-193142914D01*
X270125771Y-193500057D01*
X270054342Y-193642914D01*
X269982914Y-193714342D01*
X269840057Y-193785771D01*
X269411485Y-193785771D01*
X269268628Y-193714342D01*
X269197200Y-193642914D01*
X270768628Y-193642914D02*
X270840057Y-193714342D01*
X270768628Y-193785771D01*
X270697200Y-193714342D01*
X270768628Y-193642914D01*
X270768628Y-193785771D01*
X271411485Y-193357200D02*
X272125771Y-193357200D01*
X271268628Y-193785771D02*
X271768628Y-192285771D01*
X272268628Y-193785771D01*
D10*
D11*
X178362914Y-193714342D02*
X178577200Y-193785771D01*
X178934342Y-193785771D01*
X179077200Y-193714342D01*
X179148628Y-193642914D01*
X179220057Y-193500057D01*
X179220057Y-193357200D01*
X179148628Y-193214342D01*
X179077200Y-193142914D01*
X178934342Y-193071485D01*
X178648628Y-193000057D01*
X178505771Y-192928628D01*
X178434342Y-192857200D01*
X178362914Y-192714342D01*
X178362914Y-192571485D01*
X178434342Y-192428628D01*
X178505771Y-192357200D01*
X178648628Y-192285771D01*
X179005771Y-192285771D01*
X179220057Y-192357200D01*
X179862914Y-193785771D02*
X179862914Y-192785771D01*
X179862914Y-192285771D02*
X179791485Y-192357200D01*
X179862914Y-192428628D01*
X179934342Y-192357200D01*
X179862914Y-192285771D01*
X179862914Y-192428628D01*
X180434342Y-192785771D02*
X181220057Y-192785771D01*
X180434342Y-193785771D01*
X181220057Y-193785771D01*
X182362914Y-193714342D02*
X182220057Y-193785771D01*
X181934342Y-193785771D01*
X181791485Y-193714342D01*
X181720057Y-193571485D01*
X181720057Y-193000057D01*
X181791485Y-192857200D01*
X181934342Y-192785771D01*
X182220057Y-192785771D01*
X182362914Y-192857200D01*
X182434342Y-193000057D01*
X182434342Y-193142914D01*
X181720057Y-193285771D01*
X183077200Y-193642914D02*
X183148628Y-193714342D01*
X183077200Y-193785771D01*
X183005771Y-193714342D01*
X183077200Y-193642914D01*
X183077200Y-193785771D01*
X183077200Y-192857200D02*
X183148628Y-192928628D01*
X183077200Y-193000057D01*
X183005771Y-192928628D01*
X183077200Y-192857200D01*
X183077200Y-193000057D01*
X184862914Y-193357200D02*
X185577200Y-193357200D01*
X184720057Y-193785771D02*
X185220057Y-192285771D01*
X185720057Y-193785771D01*
X186862914Y-192785771D02*
X186862914Y-193785771D01*
X186505771Y-192214342D02*
X186148628Y-193285771D01*
X187077200Y-193285771D01*
D10*
D11*
X263434342Y-196585771D02*
X263434342Y-195085771D01*
X264791485Y-196585771D02*
X264791485Y-195085771D01*
X264791485Y-196514342D02*
X264648628Y-196585771D01*
X264362914Y-196585771D01*
X264220057Y-196514342D01*
X264148628Y-196442914D01*
X264077200Y-196300057D01*
X264077200Y-195871485D01*
X264148628Y-195728628D01*
X264220057Y-195657200D01*
X264362914Y-195585771D01*
X264648628Y-195585771D01*
X264791485Y-195657200D01*
X265505771Y-196442914D02*
X265577200Y-196514342D01*
X265505771Y-196585771D01*
X265434342Y-196514342D01*
X265505771Y-196442914D01*
X265505771Y-196585771D01*
X265505771Y-195657200D02*
X265577200Y-195728628D01*
X265505771Y-195800057D01*
X265434342Y-195728628D01*
X265505771Y-195657200D01*
X265505771Y-195800057D01*
X268148628Y-196585771D02*
X267291485Y-196585771D01*
X267720057Y-196585771D02*
X267720057Y-195085771D01*
X267577200Y-195300057D01*
X267434342Y-195442914D01*
X267291485Y-195514342D01*
X269862914Y-195014342D02*
X268577200Y-196942914D01*
X271148628Y-196585771D02*
X270291485Y-196585771D01*
X270720057Y-196585771D02*
X270720057Y-195085771D01*
X270577200Y-195300057D01*
X270434342Y-195442914D01*
X270291485Y-195514342D01*
D10*
D11*
X177002200Y-187507200D02*
X285002200Y-187507200D01*
D10*
D13*
X178714580Y-188211961D02*
X179857438Y-188211961D01*
X179036009Y-190211961D02*
X179286009Y-188211961D01*
X180274104Y-190211961D02*
X180440771Y-188878628D01*
X180524104Y-188211961D02*
X180416961Y-188307200D01*
X180500295Y-188402438D01*
X180607438Y-188307200D01*
X180524104Y-188211961D01*
X180500295Y-188402438D01*
X181107438Y-188878628D02*
X181869342Y-188878628D01*
X181476485Y-188211961D02*
X181262200Y-189926247D01*
X181333628Y-190116723D01*
X181512200Y-190211961D01*
X181702676Y-190211961D01*
X182655057Y-190211961D02*
X182476485Y-190116723D01*
X182405057Y-189926247D01*
X182619342Y-188211961D01*
X184190771Y-190116723D02*
X183988390Y-190211961D01*
X183607438Y-190211961D01*
X183428866Y-190116723D01*
X183357438Y-189926247D01*
X183452676Y-189164342D01*
X183571723Y-188973866D01*
X183774104Y-188878628D01*
X184155057Y-188878628D01*
X184333628Y-188973866D01*
X184405057Y-189164342D01*
X184381247Y-189354819D01*
X183405057Y-189545295D01*
X185155057Y-190021485D02*
X185238390Y-190116723D01*
X185131247Y-190211961D01*
X185047914Y-190116723D01*
X185155057Y-190021485D01*
X185131247Y-190211961D01*
X185286009Y-188973866D02*
X185369342Y-189069104D01*
X185262200Y-189164342D01*
X185178866Y-189069104D01*
X185286009Y-188973866D01*
X185262200Y-189164342D01*
X187607438Y-190211961D02*
X187857438Y-188211961D01*
X188619342Y-188211961D01*
X188797914Y-188307200D01*
X188881247Y-188402438D01*
X188952676Y-188592914D01*
X188916961Y-188878628D01*
X188797914Y-189069104D01*
X188690771Y-189164342D01*
X188488390Y-189259580D01*
X187726485Y-189259580D01*
X189893152Y-190211961D02*
X189714580Y-190116723D01*
X189631247Y-190021485D01*
X189559819Y-189831009D01*
X189631247Y-189259580D01*
X189750295Y-189069104D01*
X189857438Y-188973866D01*
X190059819Y-188878628D01*
X190345533Y-188878628D01*
X190524104Y-188973866D01*
X190607438Y-189069104D01*
X190678866Y-189259580D01*
X190607438Y-189831009D01*
X190488390Y-190021485D01*
X190381247Y-190116723D01*
X190178866Y-190211961D01*
X189893152Y-190211961D01*
X191393152Y-188878628D02*
X191607438Y-190211961D01*
X192107438Y-189259580D01*
X192369342Y-190211961D01*
X192916961Y-188878628D01*
X194286009Y-190116723D02*
X194083628Y-190211961D01*
X193702676Y-190211961D01*
X193524104Y-190116723D01*
X193452676Y-189926247D01*
X193547914Y-189164342D01*
X193666961Y-188973866D01*
X193869342Y-188878628D01*
X194250295Y-188878628D01*
X194428866Y-188973866D01*
X194500295Y-189164342D01*
X194476485Y-189354819D01*
X193500295Y-189545295D01*
X195226485Y-190211961D02*
X195393152Y-188878628D01*
X195345533Y-189259580D02*
X195464580Y-189069104D01*
X195571723Y-188973866D01*
X195774104Y-188878628D01*
X195964580Y-188878628D01*
X198786009Y-189164342D02*
X199059819Y-189259580D01*
X199143152Y-189354819D01*
X199214580Y-189545295D01*
X199178866Y-189831009D01*
X199059819Y-190021485D01*
X198952676Y-190116723D01*
X198750295Y-190211961D01*
X197988390Y-190211961D01*
X198238390Y-188211961D01*
X198905057Y-188211961D01*
X199083628Y-188307200D01*
X199166961Y-188402438D01*
X199238390Y-188592914D01*
X199214580Y-188783390D01*
X199095533Y-188973866D01*
X198988390Y-189069104D01*
X198786009Y-189164342D01*
X198119342Y-189164342D01*
X200274104Y-190211961D02*
X200095533Y-190116723D01*
X200012200Y-190021485D01*
X199940771Y-189831009D01*
X200012200Y-189259580D01*
X200131247Y-189069104D01*
X200238390Y-188973866D01*
X200440771Y-188878628D01*
X200726485Y-188878628D01*
X200905057Y-188973866D01*
X200988390Y-189069104D01*
X201059819Y-189259580D01*
X200988390Y-189831009D01*
X200869342Y-190021485D01*
X200762200Y-190116723D01*
X200559819Y-190211961D01*
X200274104Y-190211961D01*
X202655057Y-190211961D02*
X202786009Y-189164342D01*
X202714580Y-188973866D01*
X202536009Y-188878628D01*
X202155057Y-188878628D01*
X201952676Y-188973866D01*
X202666961Y-190116723D02*
X202464580Y-190211961D01*
X201988390Y-190211961D01*
X201809819Y-190116723D01*
X201738390Y-189926247D01*
X201762200Y-189735771D01*
X201881247Y-189545295D01*
X202083628Y-189450057D01*
X202559819Y-189450057D01*
X202762200Y-189354819D01*
X203607438Y-190211961D02*
X203774104Y-188878628D01*
X203726485Y-189259580D02*
X203845533Y-189069104D01*
X203952676Y-188973866D01*
X204155057Y-188878628D01*
X204345533Y-188878628D01*
X205702676Y-190211961D02*
X205952676Y-188211961D01*
X205714580Y-190116723D02*
X205512200Y-190211961D01*
X205131247Y-190211961D01*
X204952676Y-190116723D01*
X204869342Y-190021485D01*
X204797914Y-189831009D01*
X204869342Y-189259580D01*
X204988390Y-189069104D01*
X205095533Y-188973866D01*
X205297914Y-188878628D01*
X205678866Y-188878628D01*
X205857438Y-188973866D01*
D10*
D11*
X178934342Y-185600057D02*
X178434342Y-185600057D01*
X178434342Y-186385771D02*
X178434342Y-184885771D01*
X179148628Y-184885771D01*
X179720057Y-186385771D02*
X179720057Y-185385771D01*
X179720057Y-184885771D02*
X179648628Y-184957200D01*
X179720057Y-185028628D01*
X179791485Y-184957200D01*
X179720057Y-184885771D01*
X179720057Y-185028628D01*
X180648628Y-186385771D02*
X180505771Y-186314342D01*
X180434342Y-186171485D01*
X180434342Y-184885771D01*
X181791485Y-186314342D02*
X181648628Y-186385771D01*
X181362914Y-186385771D01*
X181220057Y-186314342D01*
X181148628Y-186171485D01*
X181148628Y-185600057D01*
X181220057Y-185457200D01*
X181362914Y-185385771D01*
X181648628Y-185385771D01*
X181791485Y-185457200D01*
X181862914Y-185600057D01*
X181862914Y-185742914D01*
X181148628Y-185885771D01*
X182505771Y-186242914D02*
X182577200Y-186314342D01*
X182505771Y-186385771D01*
X182434342Y-186314342D01*
X182505771Y-186242914D01*
X182505771Y-186385771D01*
X182505771Y-185457200D02*
X182577200Y-185528628D01*
X182505771Y-185600057D01*
X182434342Y-185528628D01*
X182505771Y-185457200D01*
X182505771Y-185600057D01*
X184648628Y-184885771D02*
X184934342Y-184885771D01*
X185077200Y-184957200D01*
X185220057Y-185100057D01*
X185291485Y-185385771D01*
X185291485Y-185885771D01*
X185220057Y-186171485D01*
X185077200Y-186314342D01*
X184934342Y-186385771D01*
X184648628Y-186385771D01*
X184505771Y-186314342D01*
X184362914Y-186171485D01*
X184291485Y-185885771D01*
X184291485Y-185385771D01*
X184362914Y-185100057D01*
X184505771Y-184957200D01*
X184648628Y-184885771D01*
X185720057Y-184885771D02*
X186220057Y-186385771D01*
X186720057Y-184885771D01*
X186862914Y-186528628D02*
X188005771Y-186528628D01*
X188362914Y-186385771D02*
X188362914Y-184885771D01*
X188934342Y-184885771D01*
X189077200Y-184957200D01*
X189148628Y-185028628D01*
X189220057Y-185171485D01*
X189220057Y-185385771D01*
X189148628Y-185528628D01*
X189077200Y-185600057D01*
X188934342Y-185671485D01*
X188362914Y-185671485D01*
X190077200Y-186385771D02*
X189934342Y-186314342D01*
X189862914Y-186242914D01*
X189791485Y-186100057D01*
X189791485Y-185671485D01*
X189862914Y-185528628D01*
X189934342Y-185457200D01*
X190077200Y-185385771D01*
X190291485Y-185385771D01*
X190434342Y-185457200D01*
X190505771Y-185528628D01*
X190577200Y-185671485D01*
X190577200Y-186100057D01*
X190505771Y-186242914D01*
X190434342Y-186314342D01*
X190291485Y-186385771D01*
X190077200Y-186385771D01*
X191077200Y-185385771D02*
X191362914Y-186385771D01*
X191648628Y-185671485D01*
X191934342Y-186385771D01*
X192220057Y-185385771D01*
X193362914Y-186314342D02*
X193220057Y-186385771D01*
X192934342Y-186385771D01*
X192791485Y-186314342D01*
X192720057Y-186171485D01*
X192720057Y-185600057D01*
X192791485Y-185457200D01*
X192934342Y-185385771D01*
X193220057Y-185385771D01*
X193362914Y-185457200D01*
X193434342Y-185600057D01*
X193434342Y-185742914D01*
X192720057Y-185885771D01*
X194077200Y-186385771D02*
X194077200Y-185385771D01*
X194077200Y-185671485D02*
X194148628Y-185528628D01*
X194220057Y-185457200D01*
X194362914Y-185385771D01*
X194505771Y-185385771D01*
X195005771Y-186242914D02*
X195077200Y-186314342D01*
X195005771Y-186385771D01*
X194934342Y-186314342D01*
X195005771Y-186242914D01*
X195005771Y-186385771D01*
X195720057Y-186385771D02*
X195720057Y-184885771D01*
X195862914Y-185814342D02*
X196291485Y-186385771D01*
X196291485Y-185385771D02*
X195720057Y-185957200D01*
X196934342Y-186385771D02*
X196934342Y-185385771D01*
X196934342Y-184885771D02*
X196862914Y-184957200D01*
X196934342Y-185028628D01*
X197005771Y-184957200D01*
X196934342Y-184885771D01*
X196934342Y-185028628D01*
X198291485Y-186314342D02*
X198148628Y-186385771D01*
X197862914Y-186385771D01*
X197720057Y-186314342D01*
X197648628Y-186242914D01*
X197577200Y-186100057D01*
X197577200Y-185671485D01*
X197648628Y-185528628D01*
X197720057Y-185457200D01*
X197862914Y-185385771D01*
X198148628Y-185385771D01*
X198291485Y-185457200D01*
X199577200Y-186385771D02*
X199577200Y-185600057D01*
X199505771Y-185457200D01*
X199362914Y-185385771D01*
X199077200Y-185385771D01*
X198934342Y-185457200D01*
X199577200Y-186314342D02*
X199434342Y-186385771D01*
X199077200Y-186385771D01*
X198934342Y-186314342D01*
X198862914Y-186171485D01*
X198862914Y-186028628D01*
X198934342Y-185885771D01*
X199077200Y-185814342D01*
X199434342Y-185814342D01*
X199577200Y-185742914D01*
X200934342Y-186385771D02*
X200934342Y-184885771D01*
X200934342Y-186314342D02*
X200791485Y-186385771D01*
X200505771Y-186385771D01*
X200362914Y-186314342D01*
X200291485Y-186242914D01*
X200220057Y-186100057D01*
X200220057Y-185671485D01*
X200291485Y-185528628D01*
X200362914Y-185457200D01*
X200505771Y-185385771D01*
X200791485Y-185385771D01*
X200934342Y-185457200D01*
X201291485Y-186528628D02*
X202434342Y-186528628D01*
X202791485Y-185385771D02*
X202791485Y-186885771D01*
X202791485Y-185457200D02*
X202934342Y-185385771D01*
X203220057Y-185385771D01*
X203362914Y-185457200D01*
X203434342Y-185528628D01*
X203505771Y-185671485D01*
X203505771Y-186100057D01*
X203434342Y-186242914D01*
X203362914Y-186314342D01*
X203220057Y-186385771D01*
X202934342Y-186385771D01*
X202791485Y-186314342D01*
X204791485Y-186314342D02*
X204648628Y-186385771D01*
X204362914Y-186385771D01*
X204220057Y-186314342D01*
X204148628Y-186242914D01*
X204077200Y-186100057D01*
X204077200Y-185671485D01*
X204148628Y-185528628D01*
X204220057Y-185457200D01*
X204362914Y-185385771D01*
X204648628Y-185385771D01*
X204791485Y-185457200D01*
X205434342Y-186385771D02*
X205434342Y-184885771D01*
X205434342Y-185457200D02*
X205577200Y-185385771D01*
X205862914Y-185385771D01*
X206005771Y-185457200D01*
X206077200Y-185528628D01*
X206148628Y-185671485D01*
X206148628Y-186100057D01*
X206077200Y-186242914D01*
X206005771Y-186314342D01*
X205862914Y-186385771D01*
X205577200Y-186385771D01*
X205434342Y-186314342D01*
D10*
D11*
X177002200Y-181507200D02*
X285002200Y-181507200D01*
D10*
D11*
X178362914Y-183614342D02*
X178577200Y-183685771D01*
X178934342Y-183685771D01*
X179077200Y-183614342D01*
X179148628Y-183542914D01*
X179220057Y-183400057D01*
X179220057Y-183257200D01*
X179148628Y-183114342D01*
X179077200Y-183042914D01*
X178934342Y-182971485D01*
X178648628Y-182900057D01*
X178505771Y-182828628D01*
X178434342Y-182757200D01*
X178362914Y-182614342D01*
X178362914Y-182471485D01*
X178434342Y-182328628D01*
X178505771Y-182257200D01*
X178648628Y-182185771D01*
X179005771Y-182185771D01*
X179220057Y-182257200D01*
X179862914Y-183685771D02*
X179862914Y-182185771D01*
X180505771Y-183685771D02*
X180505771Y-182900057D01*
X180434342Y-182757200D01*
X180291485Y-182685771D01*
X180077200Y-182685771D01*
X179934342Y-182757200D01*
X179862914Y-182828628D01*
X181791485Y-183614342D02*
X181648628Y-183685771D01*
X181362914Y-183685771D01*
X181220057Y-183614342D01*
X181148628Y-183471485D01*
X181148628Y-182900057D01*
X181220057Y-182757200D01*
X181362914Y-182685771D01*
X181648628Y-182685771D01*
X181791485Y-182757200D01*
X181862914Y-182900057D01*
X181862914Y-183042914D01*
X181148628Y-183185771D01*
X183077200Y-183614342D02*
X182934342Y-183685771D01*
X182648628Y-183685771D01*
X182505771Y-183614342D01*
X182434342Y-183471485D01*
X182434342Y-182900057D01*
X182505771Y-182757200D01*
X182648628Y-182685771D01*
X182934342Y-182685771D01*
X183077200Y-182757200D01*
X183148628Y-182900057D01*
X183148628Y-183042914D01*
X182434342Y-183185771D01*
X183577200Y-182685771D02*
X184148628Y-182685771D01*
X183791485Y-182185771D02*
X183791485Y-183471485D01*
X183862914Y-183614342D01*
X184005771Y-183685771D01*
X184148628Y-183685771D01*
X184648628Y-183542914D02*
X184720057Y-183614342D01*
X184648628Y-183685771D01*
X184577200Y-183614342D01*
X184648628Y-183542914D01*
X184648628Y-183685771D01*
X184648628Y-182757200D02*
X184720057Y-182828628D01*
X184648628Y-182900057D01*
X184577200Y-182828628D01*
X184648628Y-182757200D01*
X184648628Y-182900057D01*
D10*
D12*
X178840057Y-179185771D02*
X179125771Y-179185771D01*
X179268628Y-179257200D01*
X179411485Y-179400057D01*
X179482914Y-179685771D01*
X179482914Y-180185771D01*
X179411485Y-180471485D01*
X179268628Y-180614342D01*
X179125771Y-180685771D01*
X178840057Y-180685771D01*
X178697200Y-180614342D01*
X178554342Y-180471485D01*
X178482914Y-180185771D01*
X178482914Y-179685771D01*
X178554342Y-179400057D01*
X178697200Y-179257200D01*
X178840057Y-179185771D01*
X180125771Y-179685771D02*
X180125771Y-181185771D01*
X180125771Y-179757200D02*
X180268628Y-179685771D01*
X180554342Y-179685771D01*
X180697200Y-179757200D01*
X180768628Y-179828628D01*
X180840057Y-179971485D01*
X180840057Y-180400057D01*
X180768628Y-180542914D01*
X180697200Y-180614342D01*
X180554342Y-180685771D01*
X180268628Y-180685771D01*
X180125771Y-180614342D01*
X182054342Y-180614342D02*
X181911485Y-180685771D01*
X181625771Y-180685771D01*
X181482914Y-180614342D01*
X181411485Y-180471485D01*
X181411485Y-179900057D01*
X181482914Y-179757200D01*
X181625771Y-179685771D01*
X181911485Y-179685771D01*
X182054342Y-179757200D01*
X182125771Y-179900057D01*
X182125771Y-180042914D01*
X181411485Y-180185771D01*
X182768628Y-179685771D02*
X182768628Y-180685771D01*
X182768628Y-179828628D02*
X182840057Y-179757200D01*
X182982914Y-179685771D01*
X183197200Y-179685771D01*
X183340057Y-179757200D01*
X183411485Y-179900057D01*
X183411485Y-180685771D01*
X183911485Y-179185771D02*
X184411485Y-180685771D01*
X184911485Y-179185771D01*
X185982914Y-180614342D02*
X185840057Y-180685771D01*
X185554342Y-180685771D01*
X185411485Y-180614342D01*
X185340057Y-180471485D01*
X185340057Y-179900057D01*
X185411485Y-179757200D01*
X185554342Y-179685771D01*
X185840057Y-179685771D01*
X185982914Y-179757200D01*
X186054342Y-179900057D01*
X186054342Y-180042914D01*
X185340057Y-180185771D01*
X186697200Y-179685771D02*
X186697200Y-180685771D01*
X186697200Y-179828628D02*
X186768628Y-179757200D01*
X186911485Y-179685771D01*
X187125771Y-179685771D01*
X187268628Y-179757200D01*
X187340057Y-179900057D01*
X187340057Y-180685771D01*
X187840057Y-179685771D02*
X188411485Y-179685771D01*
X188054342Y-179185771D02*
X188054342Y-180471485D01*
X188125771Y-180614342D01*
X188268628Y-180685771D01*
X188411485Y-180685771D01*
X190554342Y-179900057D02*
X190768628Y-179971485D01*
X190840057Y-180042914D01*
X190911485Y-180185771D01*
X190911485Y-180400057D01*
X190840057Y-180542914D01*
X190768628Y-180614342D01*
X190625771Y-180685771D01*
X190054342Y-180685771D01*
X190054342Y-179185771D01*
X190554342Y-179185771D01*
X190697200Y-179257200D01*
X190768628Y-179328628D01*
X190840057Y-179471485D01*
X190840057Y-179614342D01*
X190768628Y-179757200D01*
X190697200Y-179828628D01*
X190554342Y-179900057D01*
X190054342Y-179900057D01*
X191554342Y-180685771D02*
X191554342Y-179685771D01*
X191554342Y-179971485D02*
X191625771Y-179828628D01*
X191697200Y-179757200D01*
X191840057Y-179685771D01*
X191982914Y-179685771D01*
X192482914Y-180685771D02*
X192482914Y-179685771D01*
X192482914Y-179185771D02*
X192411485Y-179257200D01*
X192482914Y-179328628D01*
X192554342Y-179257200D01*
X192482914Y-179185771D01*
X192482914Y-179328628D01*
X193125771Y-180614342D02*
X193268628Y-180685771D01*
X193554342Y-180685771D01*
X193697200Y-180614342D01*
X193768628Y-180471485D01*
X193768628Y-180400057D01*
X193697200Y-180257200D01*
X193554342Y-180185771D01*
X193340057Y-180185771D01*
X193197200Y-180114342D01*
X193125771Y-179971485D01*
X193125771Y-179900057D01*
X193197200Y-179757200D01*
X193340057Y-179685771D01*
X193554342Y-179685771D01*
X193697200Y-179757200D01*
X194197200Y-179685771D02*
X194768628Y-179685771D01*
X194411485Y-179185771D02*
X194411485Y-180471485D01*
X194482914Y-180614342D01*
X194625771Y-180685771D01*
X194768628Y-180685771D01*
X195482914Y-180685771D02*
X195340057Y-180614342D01*
X195268628Y-180542914D01*
X195197200Y-180400057D01*
X195197200Y-179971485D01*
X195268628Y-179828628D01*
X195340057Y-179757200D01*
X195482914Y-179685771D01*
X195697200Y-179685771D01*
X195840057Y-179757200D01*
X195911485Y-179828628D01*
X195982914Y-179971485D01*
X195982914Y-180400057D01*
X195911485Y-180542914D01*
X195840057Y-180614342D01*
X195697200Y-180685771D01*
X195482914Y-180685771D01*
X196840057Y-180685771D02*
X196697200Y-180614342D01*
X196625771Y-180471485D01*
X196625771Y-179185771D01*
D10*
D11*
X197002200Y-191507200D02*
X197002200Y-194507200D01*
D10*
D11*
X261002200Y-191507200D02*
X261002200Y-198007200D01*
D14*
X132500000Y-87500000D02*
X204000000Y-87500000D01*
X122500000Y-78700000D02*
G75*
G02*
X123700000Y-77500000I1200000J0D01*
G01*
X131300000Y-77500000D02*
G75*
G02*
X132500000Y-78700000I0J-1200000D01*
G01*
X132500000Y-78700000D02*
X132500000Y-87500000D01*
X123700000Y-77500000D02*
X131300000Y-77500000D01*
X122500000Y-87500000D02*
X122500000Y-78700000D01*
X30000000Y-87500000D02*
X122500000Y-87500000D01*
X30000000Y-30000000D02*
X30000000Y-87500000D01*
X204000000Y-30000000D02*
X30000000Y-30000000D01*
X204000000Y-87500000D02*
X204000000Y-30000000D01*
D15*
X194629600Y-78286400D02*
X186629600Y-78286400D01*
X194629600Y-93686400D02*
X194629600Y-78286400D01*
X186629600Y-93686400D02*
X194629600Y-93686400D01*
X186629600Y-78286400D02*
X186629600Y-93686400D01*
D10*
X38408800Y-62030400D02*
X34758800Y-62030400D01*
X34758800Y-62030400D02*
X34758800Y-76030400D01*
X34758800Y-76030400D02*
X38408800Y-76030400D01*
X38408800Y-76030400D02*
X38408800Y-62030400D01*
X38408800Y-63530400D02*
X37701693Y-64030400D01*
X37701693Y-64030400D02*
X38408800Y-64530400D01*
X58110000Y-86520000D02*
X58110000Y-80720000D01*
X58110000Y-80720000D02*
X53030000Y-80720000D01*
X53030000Y-80720000D02*
X53030000Y-86520000D01*
X53030000Y-86520000D02*
X58110000Y-86520000D01*
X58110000Y-84100000D02*
X57402893Y-83600000D01*
X57402893Y-83600000D02*
X58110000Y-83100000D01*
X177708000Y-39933600D02*
G75*
G03*
X177708000Y-39933600I-5000000J0D01*
G01*
X167558000Y-34783600D02*
X177858000Y-34783600D01*
X167558000Y-44083600D02*
X167558000Y-34783600D01*
X177858000Y-44083600D02*
X177858000Y-34783600D01*
X168558000Y-45083600D02*
X176858000Y-45083600D01*
X168558000Y-45083600D02*
X167558000Y-44083600D01*
X176858000Y-45083600D02*
X177858000Y-44083600D01*
X171008000Y-44491925D02*
X171008000Y-43491925D01*
X170508000Y-43991925D02*
X171508000Y-43991925D01*
X166308000Y-39933600D02*
G75*
G03*
X166308000Y-39933600I-5000000J0D01*
G01*
X156158000Y-34783600D02*
X166458000Y-34783600D01*
X156158000Y-44083600D02*
X156158000Y-34783600D01*
X166458000Y-44083600D02*
X166458000Y-34783600D01*
X157158000Y-45083600D02*
X165458000Y-45083600D01*
X157158000Y-45083600D02*
X156158000Y-44083600D01*
X165458000Y-45083600D02*
X166458000Y-44083600D01*
X159608000Y-44491925D02*
X159608000Y-43491925D01*
X159108000Y-43991925D02*
X160108000Y-43991925D01*
X191520800Y-47189600D02*
G75*
G03*
X191520800Y-47189600I-5000000J0D01*
G01*
X191670800Y-42039600D02*
X191670800Y-52339600D01*
X182370800Y-42039600D02*
X191670800Y-42039600D01*
X182370800Y-52339600D02*
X191670800Y-52339600D01*
X181370800Y-43039600D02*
X181370800Y-51339600D01*
X181370800Y-43039600D02*
X182370800Y-42039600D01*
X181370800Y-51339600D02*
X182370800Y-52339600D01*
X181962475Y-45489600D02*
X182962475Y-45489600D01*
X182462475Y-44989600D02*
X182462475Y-45989600D01*
X151888800Y-46988000D02*
G75*
G03*
X151888800Y-46988000I-5000000J0D01*
G01*
X141738800Y-52138000D02*
X141738800Y-41838000D01*
X151038800Y-52138000D02*
X141738800Y-52138000D01*
X151038800Y-41838000D02*
X141738800Y-41838000D01*
X152038800Y-51138000D02*
X152038800Y-42838000D01*
X152038800Y-51138000D02*
X151038800Y-52138000D01*
X152038800Y-42838000D02*
X151038800Y-41838000D01*
X151447125Y-48688000D02*
X150447125Y-48688000D01*
X150947125Y-49188000D02*
X150947125Y-48188000D01*
D15*
X56500000Y-30300000D02*
X54950000Y-30300000D01*
X56500000Y-26300000D02*
X56500000Y-30300000D01*
X69500000Y-26300000D02*
X56500000Y-26300000D01*
X69500000Y-30300000D02*
X69500000Y-26300000D01*
X71050000Y-30300000D02*
X69500000Y-30300000D01*
X71050000Y-43700000D02*
X71050000Y-30300000D01*
X54950000Y-43700000D02*
X71050000Y-43700000D01*
X54950000Y-30300000D02*
X54950000Y-43700000D01*
D10*
X75500000Y-56700000D02*
X75500000Y-55900000D01*
X75500000Y-55900000D02*
X77100000Y-55900000D01*
X77100000Y-55900000D02*
X77100000Y-56700000D01*
X77100000Y-56700000D02*
X75500000Y-56700000D01*
X75500000Y-50787500D02*
X75500000Y-51612500D01*
X75500000Y-51612500D02*
X73900000Y-51612500D01*
X73900000Y-51612500D02*
X73900000Y-50787500D01*
X73900000Y-50787500D02*
X75500000Y-50787500D01*
X163303200Y-49148000D02*
X162503200Y-49148000D01*
X162503200Y-49148000D02*
X162503200Y-47548000D01*
X162503200Y-47548000D02*
X163303200Y-47548000D01*
X163303200Y-47548000D02*
X163303200Y-49148000D01*
X117850000Y-34600000D02*
X117850000Y-31400000D01*
X117850000Y-31400000D02*
X124150000Y-31400000D01*
X124150000Y-31400000D02*
X124150000Y-34600000D01*
X124150000Y-34600000D02*
X117850000Y-34600000D01*
X119400000Y-41812500D02*
X119400000Y-40987500D01*
X119400000Y-40987500D02*
X121000000Y-40987500D01*
X121000000Y-40987500D02*
X121000000Y-41812500D01*
X121000000Y-41812500D02*
X119400000Y-41812500D01*
X119950000Y-38500000D02*
X119550000Y-38100000D01*
X122450000Y-38500000D02*
X119950000Y-38500000D01*
X122450000Y-36900000D02*
X122450000Y-38500000D01*
X119550000Y-36900000D02*
X122450000Y-36900000D01*
X119550000Y-38100000D02*
X119550000Y-36900000D01*
X56812500Y-46500000D02*
X56812500Y-48100000D01*
X55987500Y-46500000D02*
X56812500Y-46500000D01*
X55987500Y-48100000D02*
X55987500Y-46500000D01*
X56812500Y-48100000D02*
X55987500Y-48100000D01*
X118000000Y-39212500D02*
X116400000Y-39212500D01*
X118000000Y-38387500D02*
X118000000Y-39212500D01*
X116400000Y-38387500D02*
X118000000Y-38387500D01*
X116400000Y-39212500D02*
X116400000Y-38387500D01*
X62650000Y-77400000D02*
X60200000Y-77400000D01*
X63220000Y-77950000D02*
X63220000Y-78800000D01*
X62650000Y-77400000D02*
X63220000Y-77950000D01*
X63220000Y-78800000D02*
X60180000Y-78800000D01*
X60180000Y-77400000D02*
X60180000Y-78800000D01*
X55250000Y-77400000D02*
X52800000Y-77400000D01*
X55820000Y-77950000D02*
X55820000Y-78800000D01*
X55250000Y-77400000D02*
X55820000Y-77950000D01*
X55820000Y-78800000D02*
X52780000Y-78800000D01*
X52780000Y-77400000D02*
X52780000Y-78800000D01*
X65470000Y-86520000D02*
X65470000Y-80720000D01*
X65470000Y-80720000D02*
X60390000Y-80720000D01*
X60390000Y-80720000D02*
X60390000Y-86520000D01*
X60390000Y-86520000D02*
X65470000Y-86520000D01*
X65470000Y-84100000D02*
X64762893Y-83600000D01*
X64762893Y-83600000D02*
X65470000Y-83100000D01*
X100100000Y-64800000D02*
X104700000Y-64800000D01*
X104700000Y-64800000D02*
X104700000Y-67800000D01*
X100100000Y-67800000D02*
X100100000Y-64800000D01*
X100100000Y-67800000D02*
X104700000Y-67800000D01*
X103049440Y-66298980D02*
X103951140Y-66298980D01*
X101898820Y-66298980D02*
X100900600Y-66298980D01*
X103049440Y-67099080D02*
X103049440Y-65498880D01*
X101898820Y-65549680D02*
X101898820Y-67099080D01*
X103049440Y-66298980D02*
X101898820Y-65549680D01*
X103049440Y-66298980D02*
X101898820Y-67099080D01*
D15*
X112950000Y-43800000D02*
X112950000Y-40800000D01*
X112950000Y-40800000D02*
X96450000Y-40800000D01*
X96450000Y-40800000D02*
X96450000Y-43800000D01*
X96450000Y-43800000D02*
X112950000Y-43800000D01*
D16*
X82400000Y-61000000D02*
X82400000Y-53400000D01*
X88700000Y-61000000D02*
X88700000Y-53400000D01*
X82400000Y-61000000D02*
X88700000Y-61000000D01*
X82400000Y-53400000D02*
X88700000Y-53400000D01*
D15*
X90100000Y-63400000D02*
X102500000Y-63400000D01*
X102500000Y-63400000D02*
X102500000Y-51000000D01*
X102500000Y-51000000D02*
X90100000Y-51000000D01*
X90100000Y-51000000D02*
X90100000Y-63400000D01*
X64450000Y-74900000D02*
X67350000Y-72000000D01*
X67350000Y-72000000D02*
X67350000Y-67800000D01*
X67350000Y-67800000D02*
X64450000Y-64900000D01*
X64450000Y-64900000D02*
X60250000Y-64900000D01*
X60250000Y-64900000D02*
X57350000Y-67800000D01*
X57350000Y-67800000D02*
X57350000Y-72000000D01*
X57350000Y-72000000D02*
X60250000Y-74900000D01*
X60250000Y-74900000D02*
X64450000Y-74900000D01*
D10*
X99000000Y-36975000D02*
X99000000Y-34050000D01*
X99000000Y-34050000D02*
X103900000Y-34050000D01*
X103900000Y-34050000D02*
X103900000Y-37950000D01*
X103900000Y-37950000D02*
X99975000Y-37950000D01*
X99975000Y-37950000D02*
X99000000Y-36975000D01*
X93250000Y-36975000D02*
X93250000Y-34050000D01*
X93250000Y-34050000D02*
X98150000Y-34050000D01*
X98150000Y-34050000D02*
X98150000Y-37950000D01*
X98150000Y-37950000D02*
X94225000Y-37950000D01*
X94225000Y-37950000D02*
X93250000Y-36975000D01*
D11*
X100300000Y-44800000D02*
X102300000Y-44800000D01*
X102300000Y-44800000D02*
X102300000Y-47800000D01*
X102300000Y-47800000D02*
X99300000Y-47800000D01*
X99300000Y-47800000D02*
X99300000Y-45800000D01*
X99300000Y-45800000D02*
X100300000Y-44800000D01*
D10*
X158303200Y-52248000D02*
X158303200Y-68248000D01*
X158303200Y-68248000D02*
X175503200Y-68248000D01*
X175503200Y-68248000D02*
X175503200Y-53248000D01*
X175503200Y-53248000D02*
X174503200Y-52248000D01*
X174503200Y-52248000D02*
X158303200Y-52248000D01*
D15*
X75850000Y-66650000D02*
X73450000Y-66650000D01*
X73450000Y-66650000D02*
X72850000Y-67250000D01*
X72850000Y-67250000D02*
X72850000Y-69650000D01*
X72850000Y-69650000D02*
X75850000Y-69650000D01*
X75850000Y-69650000D02*
X75850000Y-66650000D01*
D11*
X67050000Y-50750000D02*
X70450000Y-50750000D01*
X70450000Y-50750000D02*
X70450000Y-60450000D01*
X70450000Y-60450000D02*
X66050000Y-60450000D01*
X66050000Y-60450000D02*
X66050000Y-51750000D01*
X66050000Y-51750000D02*
X67050000Y-50750000D01*
D10*
X55912500Y-60900000D02*
X55087500Y-60900000D01*
X55087500Y-60900000D02*
X55087500Y-59300000D01*
X55087500Y-59300000D02*
X55912500Y-59300000D01*
X55912500Y-59300000D02*
X55912500Y-60900000D01*
X94687500Y-41400000D02*
X95512500Y-41400000D01*
X95512500Y-41400000D02*
X95512500Y-43000000D01*
X95512500Y-43000000D02*
X94687500Y-43000000D01*
X94687500Y-43000000D02*
X94687500Y-41400000D01*
X98600000Y-48787500D02*
X98600000Y-49612500D01*
X98600000Y-49612500D02*
X97000000Y-49612500D01*
X97000000Y-49612500D02*
X97000000Y-48787500D01*
X97000000Y-48787500D02*
X98600000Y-48787500D01*
X94537500Y-44950000D02*
X95362500Y-44950000D01*
X95362500Y-44950000D02*
X95362500Y-46550000D01*
X95362500Y-46550000D02*
X94537500Y-46550000D01*
X94537500Y-46550000D02*
X94537500Y-44950000D01*
X92987500Y-41400000D02*
X93812500Y-41400000D01*
X93812500Y-41400000D02*
X93812500Y-43000000D01*
X93812500Y-43000000D02*
X92987500Y-43000000D01*
X92987500Y-43000000D02*
X92987500Y-41400000D01*
X193712500Y-74000000D02*
X192887500Y-74000000D01*
X192887500Y-74000000D02*
X192887500Y-72400000D01*
X192887500Y-72400000D02*
X193712500Y-72400000D01*
X193712500Y-72400000D02*
X193712500Y-74000000D01*
X97200000Y-85812500D02*
X97200000Y-84987500D01*
X97200000Y-84987500D02*
X98800000Y-84987500D01*
X98800000Y-84987500D02*
X98800000Y-85812500D01*
X98800000Y-85812500D02*
X97200000Y-85812500D01*
X90400000Y-86512500D02*
X90400000Y-85687500D01*
X90400000Y-85687500D02*
X92000000Y-85687500D01*
X92000000Y-85687500D02*
X92000000Y-86512500D01*
X92000000Y-86512500D02*
X90400000Y-86512500D01*
X90400000Y-83912500D02*
X90400000Y-83087500D01*
X90400000Y-83087500D02*
X92000000Y-83087500D01*
X92000000Y-83087500D02*
X92000000Y-83912500D01*
X92000000Y-83912500D02*
X90400000Y-83912500D01*
X98800000Y-83287500D02*
X98800000Y-84112500D01*
X98800000Y-84112500D02*
X97200000Y-84112500D01*
X97200000Y-84112500D02*
X97200000Y-83287500D01*
X97200000Y-83287500D02*
X98800000Y-83287500D01*
X56912500Y-54400000D02*
X56087500Y-54400000D01*
X56087500Y-54400000D02*
X56087500Y-52800000D01*
X56087500Y-52800000D02*
X56912500Y-52800000D01*
X56912500Y-52800000D02*
X56912500Y-54400000D01*
X56912500Y-57650000D02*
X56087500Y-57650000D01*
X56087500Y-57650000D02*
X56087500Y-56050000D01*
X56087500Y-56050000D02*
X56912500Y-56050000D01*
X56912500Y-56050000D02*
X56912500Y-57650000D01*
X57912500Y-60900000D02*
X57087500Y-60900000D01*
X57087500Y-60900000D02*
X57087500Y-59300000D01*
X57087500Y-59300000D02*
X57912500Y-59300000D01*
X57912500Y-59300000D02*
X57912500Y-60900000D01*
X55162500Y-54400000D02*
X54337500Y-54400000D01*
X54337500Y-54400000D02*
X54337500Y-52800000D01*
X54337500Y-52800000D02*
X55162500Y-52800000D01*
X55162500Y-52800000D02*
X55162500Y-54400000D01*
X94300000Y-66600000D02*
X94300000Y-65000000D01*
X94300000Y-65000000D02*
X97500000Y-65000000D01*
X97500000Y-65000000D02*
X97500000Y-66600000D01*
X97500000Y-66600000D02*
X94300000Y-66600000D01*
X69500000Y-62012500D02*
X69500000Y-61187500D01*
X69500000Y-61187500D02*
X71100000Y-61187500D01*
X71100000Y-61187500D02*
X71100000Y-62012500D01*
X71100000Y-62012500D02*
X69500000Y-62012500D01*
X78700000Y-69500000D02*
X79500000Y-69500000D01*
X79500000Y-69500000D02*
X79500000Y-71100000D01*
X79500000Y-71100000D02*
X78700000Y-71100000D01*
X78700000Y-71100000D02*
X78700000Y-69500000D01*
X78687500Y-65900000D02*
X79512500Y-65900000D01*
X79512500Y-65900000D02*
X79512500Y-67500000D01*
X79512500Y-67500000D02*
X78687500Y-67500000D01*
X78687500Y-67500000D02*
X78687500Y-65900000D01*
X81312500Y-52500000D02*
X80487500Y-52500000D01*
X80487500Y-52500000D02*
X80487500Y-50900000D01*
X80487500Y-50900000D02*
X81312500Y-50900000D01*
X81312500Y-50900000D02*
X81312500Y-52500000D01*
X89975000Y-47200000D02*
X91225000Y-47200000D01*
X91225000Y-47200000D02*
X91225000Y-49200000D01*
X91225000Y-49200000D02*
X89975000Y-49200000D01*
X89975000Y-49200000D02*
X89975000Y-47200000D01*
X76687500Y-71850000D02*
X77512500Y-71850000D01*
X77512500Y-71850000D02*
X77512500Y-73450000D01*
X77512500Y-73450000D02*
X76687500Y-73450000D01*
X76687500Y-73450000D02*
X76687500Y-71850000D01*
X75500000Y-53512500D02*
X75500000Y-52687500D01*
X75500000Y-52687500D02*
X77100000Y-52687500D01*
X77100000Y-52687500D02*
X77100000Y-53512500D01*
X77100000Y-53512500D02*
X75500000Y-53512500D01*
X77100000Y-54287500D02*
X77100000Y-55112500D01*
X77100000Y-55112500D02*
X75500000Y-55112500D01*
X75500000Y-55112500D02*
X75500000Y-54287500D01*
X75500000Y-54287500D02*
X77100000Y-54287500D01*
X62087500Y-58550000D02*
X62912500Y-58550000D01*
X62912500Y-58550000D02*
X62912500Y-60150000D01*
X62912500Y-60150000D02*
X62087500Y-60150000D01*
X62087500Y-60150000D02*
X62087500Y-58550000D01*
X72912500Y-49150000D02*
X72087500Y-49150000D01*
X72087500Y-49150000D02*
X72087500Y-47550000D01*
X72087500Y-47550000D02*
X72912500Y-47550000D01*
X72912500Y-47550000D02*
X72912500Y-49150000D01*
X62300000Y-55787500D02*
X62300000Y-56612500D01*
X62300000Y-56612500D02*
X60700000Y-56612500D01*
X60700000Y-56612500D02*
X60700000Y-55787500D01*
X60700000Y-55787500D02*
X62300000Y-55787500D01*
X59800000Y-53187500D02*
X59800000Y-54012500D01*
X59800000Y-54012500D02*
X58200000Y-54012500D01*
X58200000Y-54012500D02*
X58200000Y-53187500D01*
X58200000Y-53187500D02*
X59800000Y-53187500D01*
X58200000Y-52262500D02*
X58200000Y-51437500D01*
X58200000Y-51437500D02*
X59800000Y-51437500D01*
X59800000Y-51437500D02*
X59800000Y-52262500D01*
X59800000Y-52262500D02*
X58200000Y-52262500D01*
X51550000Y-57600000D02*
X54000000Y-57600000D01*
X50980000Y-57050000D02*
X50980000Y-56200000D01*
X51550000Y-57600000D02*
X50980000Y-57050000D01*
X50980000Y-56200000D02*
X54020000Y-56200000D01*
X54020000Y-57600000D02*
X54020000Y-56200000D01*
X83900000Y-48950000D02*
X83900000Y-51400000D01*
X84450000Y-48380000D02*
X85300000Y-48380000D01*
X83900000Y-48950000D02*
X84450000Y-48380000D01*
X85300000Y-48380000D02*
X85300000Y-51420000D01*
X83900000Y-51420000D02*
X85300000Y-51420000D01*
X45100000Y-71670000D02*
X41290000Y-71670000D01*
X41290000Y-71670000D02*
X41290000Y-46270000D01*
X41290000Y-46270000D02*
X46370000Y-46270000D01*
X46370000Y-46270000D02*
X46370000Y-70400000D01*
X46370000Y-70400000D02*
X45100000Y-71670000D01*
D15*
X48100000Y-81400000D02*
X48100000Y-60400000D01*
X48100000Y-60400000D02*
X47000000Y-60400000D01*
X47000000Y-60400000D02*
X47000000Y-57700000D01*
X47000000Y-57700000D02*
X48000000Y-57700000D01*
X48000000Y-57700000D02*
X48100000Y-57700000D01*
X48100000Y-57700000D02*
X48100000Y-36500000D01*
X48100000Y-36500000D02*
X39500000Y-36500000D01*
X39500000Y-36500000D02*
X39500000Y-81400000D01*
X39500000Y-81400000D02*
X48100000Y-81400000D01*
D10*
X189050000Y-74000000D02*
X189050000Y-72700000D01*
X189050000Y-72700000D02*
X188750000Y-72400000D01*
X188750000Y-72400000D02*
X188250000Y-72400000D01*
X188250000Y-72400000D02*
X188250000Y-74000000D01*
X188250000Y-74000000D02*
X189050000Y-74000000D01*
X190500000Y-72400000D02*
X190500000Y-73700000D01*
X190500000Y-73700000D02*
X190800000Y-74000000D01*
X190800000Y-74000000D02*
X191300000Y-74000000D01*
X191300000Y-74000000D02*
X191300000Y-72400000D01*
X191300000Y-72400000D02*
X190500000Y-72400000D01*
X83100000Y-63200000D02*
X87700000Y-63200000D01*
X87700000Y-63200000D02*
X87700000Y-67200000D01*
X83100000Y-67200000D02*
X83100000Y-63200000D01*
X83100000Y-67200000D02*
X87700000Y-67200000D01*
X86049440Y-65198980D02*
X86951140Y-65198980D01*
X84898820Y-65198980D02*
X83900600Y-65198980D01*
X86049440Y-65999080D02*
X86049440Y-64398880D01*
X84898820Y-64449680D02*
X84898820Y-65999080D01*
X86049440Y-65198980D02*
X84898820Y-64449680D01*
X86049440Y-65198980D02*
X84898820Y-65999080D01*
X55050000Y-69850000D02*
X55050000Y-67400000D01*
X54500000Y-70420000D02*
X53650000Y-70420000D01*
X55050000Y-69850000D02*
X54500000Y-70420000D01*
X53650000Y-70420000D02*
X53650000Y-67380000D01*
X55050000Y-67380000D02*
X53650000Y-67380000D01*
X74650000Y-74650000D02*
X70050000Y-74650000D01*
X70050000Y-74650000D02*
X70050000Y-70650000D01*
X74650000Y-70650000D02*
X74650000Y-74650000D01*
X74650000Y-70650000D02*
X70050000Y-70650000D01*
X71700560Y-72651020D02*
X70798860Y-72651020D01*
X72851180Y-72651020D02*
X73849400Y-72651020D01*
X71700560Y-71850920D02*
X71700560Y-73451120D01*
X72851180Y-73400320D02*
X72851180Y-71850920D01*
X71700560Y-72651020D02*
X72851180Y-73400320D01*
X71700560Y-72651020D02*
X72851180Y-71850920D01*
X60100000Y-48100000D02*
X59300000Y-48100000D01*
X59300000Y-48100000D02*
X59300000Y-46500000D01*
X59300000Y-46500000D02*
X60100000Y-46500000D01*
X60100000Y-46500000D02*
X60100000Y-48100000D01*
X104950000Y-35875000D02*
X107450000Y-35875000D01*
X107450000Y-35875000D02*
X107450000Y-39075000D01*
X107450000Y-39075000D02*
X104950000Y-39075000D01*
X104950000Y-39075000D02*
X104950000Y-35875000D01*
X191520800Y-58189600D02*
G75*
G03*
X191520800Y-58189600I-5000000J0D01*
G01*
X191670800Y-53039600D02*
X191670800Y-63339600D01*
X182370800Y-53039600D02*
X191670800Y-53039600D01*
X182370800Y-63339600D02*
X191670800Y-63339600D01*
X181370800Y-54039600D02*
X181370800Y-62339600D01*
X181370800Y-54039600D02*
X182370800Y-53039600D01*
X181370800Y-62339600D02*
X182370800Y-63339600D01*
X181962475Y-56489600D02*
X182962475Y-56489600D01*
X182462475Y-55989600D02*
X182462475Y-56989600D01*
X151888800Y-57988000D02*
G75*
G03*
X151888800Y-57988000I-5000000J0D01*
G01*
X141738800Y-63138000D02*
X141738800Y-52838000D01*
X151038800Y-63138000D02*
X141738800Y-63138000D01*
X151038800Y-52838000D02*
X141738800Y-52838000D01*
X152038800Y-62138000D02*
X152038800Y-53838000D01*
X152038800Y-62138000D02*
X151038800Y-63138000D01*
X152038800Y-53838000D02*
X151038800Y-52838000D01*
X151447125Y-59688000D02*
X150447125Y-59688000D01*
X150947125Y-60188000D02*
X150947125Y-59188000D01*
X104900000Y-62800000D02*
X104100000Y-62800000D01*
X104100000Y-62800000D02*
X104100000Y-61200000D01*
X104100000Y-61200000D02*
X104900000Y-61200000D01*
X104900000Y-61200000D02*
X104900000Y-62800000D01*
X89950000Y-65300000D02*
X92450000Y-65300000D01*
X92450000Y-65300000D02*
X92450000Y-68500000D01*
X92450000Y-68500000D02*
X89950000Y-68500000D01*
X89950000Y-68500000D02*
X89950000Y-65300000D01*
X55350000Y-71525000D02*
X55350000Y-72775000D01*
X55350000Y-72775000D02*
X53350000Y-72775000D01*
X53350000Y-72775000D02*
X53350000Y-71525000D01*
X53350000Y-71525000D02*
X55350000Y-71525000D01*
X71700000Y-75700000D02*
X71700000Y-76500000D01*
X71700000Y-76500000D02*
X70100000Y-76500000D01*
X70100000Y-76500000D02*
X70100000Y-75700000D01*
X70100000Y-75700000D02*
X71700000Y-75700000D01*
X70300000Y-67800000D02*
X69500000Y-67800000D01*
X69500000Y-67800000D02*
X69500000Y-66200000D01*
X69500000Y-66200000D02*
X70300000Y-66200000D01*
X70300000Y-66200000D02*
X70300000Y-67800000D01*
X58700000Y-56200000D02*
X59500000Y-56200000D01*
X59500000Y-56200000D02*
X59500000Y-57800000D01*
X59500000Y-57800000D02*
X58700000Y-57800000D01*
X58700000Y-57800000D02*
X58700000Y-56200000D01*
X74900000Y-49150000D02*
X74100000Y-49150000D01*
X74100000Y-49150000D02*
X74100000Y-47550000D01*
X74100000Y-47550000D02*
X74900000Y-47550000D01*
X74900000Y-47550000D02*
X74900000Y-49150000D01*
X60350000Y-58550000D02*
X61150000Y-58550000D01*
X61150000Y-58550000D02*
X61150000Y-60150000D01*
X61150000Y-60150000D02*
X60350000Y-60150000D01*
X60350000Y-60150000D02*
X60350000Y-58550000D01*
D11*
X34911180Y-69363733D02*
X35625466Y-69363733D01*
X35768323Y-69411352D01*
X35863561Y-69506590D01*
X35911180Y-69649447D01*
X35911180Y-69744685D01*
X34911180Y-68982780D02*
X34911180Y-68363733D01*
X35292133Y-68697066D01*
X35292133Y-68554209D01*
X35339752Y-68458971D01*
X35387371Y-68411352D01*
X35482609Y-68363733D01*
X35720704Y-68363733D01*
X35815942Y-68411352D01*
X35863561Y-68458971D01*
X35911180Y-68554209D01*
X35911180Y-68839923D01*
X35863561Y-68935161D01*
X35815942Y-68982780D01*
X55236666Y-85272380D02*
X55236666Y-85986666D01*
X55189047Y-86129523D01*
X55093809Y-86224761D01*
X54950952Y-86272380D01*
X54855714Y-86272380D01*
X56141428Y-85272380D02*
X55950952Y-85272380D01*
X55855714Y-85320000D01*
X55808095Y-85367619D01*
X55712857Y-85510476D01*
X55665238Y-85700952D01*
X55665238Y-86081904D01*
X55712857Y-86177142D01*
X55760476Y-86224761D01*
X55855714Y-86272380D01*
X56046190Y-86272380D01*
X56141428Y-86224761D01*
X56189047Y-86177142D01*
X56236666Y-86081904D01*
X56236666Y-85843809D01*
X56189047Y-85748571D01*
X56141428Y-85700952D01*
X56046190Y-85653333D01*
X55855714Y-85653333D01*
X55760476Y-85700952D01*
X55712857Y-85748571D01*
X55665238Y-85843809D01*
X115966666Y-59202380D02*
X115633333Y-58726190D01*
X115395238Y-59202380D02*
X115395238Y-58202380D01*
X115776190Y-58202380D01*
X115871428Y-58250000D01*
X115919047Y-58297619D01*
X115966666Y-58392857D01*
X115966666Y-58535714D01*
X115919047Y-58630952D01*
X115871428Y-58678571D01*
X115776190Y-58726190D01*
X115395238Y-58726190D01*
X116395238Y-58678571D02*
X116728571Y-58678571D01*
X116871428Y-59202380D02*
X116395238Y-59202380D01*
X116395238Y-58202380D01*
X116871428Y-58202380D01*
X117633333Y-58678571D02*
X117300000Y-58678571D01*
X117300000Y-59202380D02*
X117300000Y-58202380D01*
X117776190Y-58202380D01*
X118300000Y-58202380D02*
X118300000Y-58440476D01*
X118061904Y-58345238D02*
X118300000Y-58440476D01*
X118538095Y-58345238D01*
X118157142Y-58630952D02*
X118300000Y-58440476D01*
X118442857Y-58630952D01*
X119061904Y-58202380D02*
X119061904Y-58440476D01*
X118823809Y-58345238D02*
X119061904Y-58440476D01*
X119300000Y-58345238D01*
X118919047Y-58630952D02*
X119061904Y-58440476D01*
X119204761Y-58630952D01*
X173065142Y-40576457D02*
X173112761Y-40624076D01*
X173160380Y-40766933D01*
X173160380Y-40862171D01*
X173112761Y-41005028D01*
X173017523Y-41100266D01*
X172922285Y-41147885D01*
X172731809Y-41195504D01*
X172588952Y-41195504D01*
X172398476Y-41147885D01*
X172303238Y-41100266D01*
X172208000Y-41005028D01*
X172160380Y-40862171D01*
X172160380Y-40766933D01*
X172208000Y-40624076D01*
X172255619Y-40576457D01*
X173160380Y-39624076D02*
X173160380Y-40195504D01*
X173160380Y-39909790D02*
X172160380Y-39909790D01*
X172303238Y-40005028D01*
X172398476Y-40100266D01*
X172446095Y-40195504D01*
X173160380Y-39147885D02*
X173160380Y-38957409D01*
X173112761Y-38862171D01*
X173065142Y-38814552D01*
X172922285Y-38719314D01*
X172731809Y-38671695D01*
X172350857Y-38671695D01*
X172255619Y-38719314D01*
X172208000Y-38766933D01*
X172160380Y-38862171D01*
X172160380Y-39052647D01*
X172208000Y-39147885D01*
X172255619Y-39195504D01*
X172350857Y-39243123D01*
X172588952Y-39243123D01*
X172684190Y-39195504D01*
X172731809Y-39147885D01*
X172779428Y-39052647D01*
X172779428Y-38862171D01*
X172731809Y-38766933D01*
X172684190Y-38719314D01*
X172588952Y-38671695D01*
X161665142Y-40576457D02*
X161712761Y-40624076D01*
X161760380Y-40766933D01*
X161760380Y-40862171D01*
X161712761Y-41005028D01*
X161617523Y-41100266D01*
X161522285Y-41147885D01*
X161331809Y-41195504D01*
X161188952Y-41195504D01*
X160998476Y-41147885D01*
X160903238Y-41100266D01*
X160808000Y-41005028D01*
X160760380Y-40862171D01*
X160760380Y-40766933D01*
X160808000Y-40624076D01*
X160855619Y-40576457D01*
X161760380Y-39624076D02*
X161760380Y-40195504D01*
X161760380Y-39909790D02*
X160760380Y-39909790D01*
X160903238Y-40005028D01*
X160998476Y-40100266D01*
X161046095Y-40195504D01*
X161188952Y-39052647D02*
X161141333Y-39147885D01*
X161093714Y-39195504D01*
X160998476Y-39243123D01*
X160950857Y-39243123D01*
X160855619Y-39195504D01*
X160808000Y-39147885D01*
X160760380Y-39052647D01*
X160760380Y-38862171D01*
X160808000Y-38766933D01*
X160855619Y-38719314D01*
X160950857Y-38671695D01*
X160998476Y-38671695D01*
X161093714Y-38719314D01*
X161141333Y-38766933D01*
X161188952Y-38862171D01*
X161188952Y-39052647D01*
X161236571Y-39147885D01*
X161284190Y-39195504D01*
X161379428Y-39243123D01*
X161569904Y-39243123D01*
X161665142Y-39195504D01*
X161712761Y-39147885D01*
X161760380Y-39052647D01*
X161760380Y-38862171D01*
X161712761Y-38766933D01*
X161665142Y-38719314D01*
X161569904Y-38671695D01*
X161379428Y-38671695D01*
X161284190Y-38719314D01*
X161236571Y-38766933D01*
X161188952Y-38862171D01*
X185877942Y-47546742D02*
X185830323Y-47594361D01*
X185687466Y-47641980D01*
X185592228Y-47641980D01*
X185449371Y-47594361D01*
X185354133Y-47499123D01*
X185306514Y-47403885D01*
X185258895Y-47213409D01*
X185258895Y-47070552D01*
X185306514Y-46880076D01*
X185354133Y-46784838D01*
X185449371Y-46689600D01*
X185592228Y-46641980D01*
X185687466Y-46641980D01*
X185830323Y-46689600D01*
X185877942Y-46737219D01*
X186830323Y-47641980D02*
X186258895Y-47641980D01*
X186544609Y-47641980D02*
X186544609Y-46641980D01*
X186449371Y-46784838D01*
X186354133Y-46880076D01*
X186258895Y-46927695D01*
X187163657Y-46641980D02*
X187830323Y-46641980D01*
X187401752Y-47641980D01*
X146245942Y-47345142D02*
X146198323Y-47392761D01*
X146055466Y-47440380D01*
X145960228Y-47440380D01*
X145817371Y-47392761D01*
X145722133Y-47297523D01*
X145674514Y-47202285D01*
X145626895Y-47011809D01*
X145626895Y-46868952D01*
X145674514Y-46678476D01*
X145722133Y-46583238D01*
X145817371Y-46488000D01*
X145960228Y-46440380D01*
X146055466Y-46440380D01*
X146198323Y-46488000D01*
X146245942Y-46535619D01*
X147198323Y-47440380D02*
X146626895Y-47440380D01*
X146912609Y-47440380D02*
X146912609Y-46440380D01*
X146817371Y-46583238D01*
X146722133Y-46678476D01*
X146626895Y-46726095D01*
X148055466Y-46440380D02*
X147864990Y-46440380D01*
X147769752Y-46488000D01*
X147722133Y-46535619D01*
X147626895Y-46678476D01*
X147579276Y-46868952D01*
X147579276Y-47249904D01*
X147626895Y-47345142D01*
X147674514Y-47392761D01*
X147769752Y-47440380D01*
X147960228Y-47440380D01*
X148055466Y-47392761D01*
X148103085Y-47345142D01*
X148150704Y-47249904D01*
X148150704Y-47011809D01*
X148103085Y-46916571D01*
X148055466Y-46868952D01*
X147960228Y-46821333D01*
X147769752Y-46821333D01*
X147674514Y-46868952D01*
X147626895Y-46916571D01*
X147579276Y-47011809D01*
X197966666Y-82952380D02*
X197633333Y-82476190D01*
X197395238Y-82952380D02*
X197395238Y-81952380D01*
X197776190Y-81952380D01*
X197871428Y-82000000D01*
X197919047Y-82047619D01*
X197966666Y-82142857D01*
X197966666Y-82285714D01*
X197919047Y-82380952D01*
X197871428Y-82428571D01*
X197776190Y-82476190D01*
X197395238Y-82476190D01*
X198395238Y-82428571D02*
X198728571Y-82428571D01*
X198871428Y-82952380D02*
X198395238Y-82952380D01*
X198395238Y-81952380D01*
X198871428Y-81952380D01*
X199633333Y-82428571D02*
X199300000Y-82428571D01*
X199300000Y-82952380D02*
X199300000Y-81952380D01*
X199776190Y-81952380D01*
X200300000Y-81952380D02*
X200300000Y-82190476D01*
X200061904Y-82095238D02*
X200300000Y-82190476D01*
X200538095Y-82095238D01*
X200157142Y-82380952D02*
X200300000Y-82190476D01*
X200442857Y-82380952D01*
X201061904Y-81952380D02*
X201061904Y-82190476D01*
X200823809Y-82095238D02*
X201061904Y-82190476D01*
X201300000Y-82095238D01*
X200919047Y-82380952D02*
X201061904Y-82190476D01*
X201204761Y-82380952D01*
X197966666Y-35652380D02*
X197633333Y-35176190D01*
X197395238Y-35652380D02*
X197395238Y-34652380D01*
X197776190Y-34652380D01*
X197871428Y-34700000D01*
X197919047Y-34747619D01*
X197966666Y-34842857D01*
X197966666Y-34985714D01*
X197919047Y-35080952D01*
X197871428Y-35128571D01*
X197776190Y-35176190D01*
X197395238Y-35176190D01*
X198395238Y-35128571D02*
X198728571Y-35128571D01*
X198871428Y-35652380D02*
X198395238Y-35652380D01*
X198395238Y-34652380D01*
X198871428Y-34652380D01*
X199633333Y-35128571D02*
X199300000Y-35128571D01*
X199300000Y-35652380D02*
X199300000Y-34652380D01*
X199776190Y-34652380D01*
X200300000Y-34652380D02*
X200300000Y-34890476D01*
X200061904Y-34795238D02*
X200300000Y-34890476D01*
X200538095Y-34795238D01*
X200157142Y-35080952D02*
X200300000Y-34890476D01*
X200442857Y-35080952D01*
X201061904Y-34652380D02*
X201061904Y-34890476D01*
X200823809Y-34795238D02*
X201061904Y-34890476D01*
X201300000Y-34795238D01*
X200919047Y-35080952D02*
X201061904Y-34890476D01*
X201204761Y-35080952D01*
X34166666Y-35652380D02*
X33833333Y-35176190D01*
X33595238Y-35652380D02*
X33595238Y-34652380D01*
X33976190Y-34652380D01*
X34071428Y-34700000D01*
X34119047Y-34747619D01*
X34166666Y-34842857D01*
X34166666Y-34985714D01*
X34119047Y-35080952D01*
X34071428Y-35128571D01*
X33976190Y-35176190D01*
X33595238Y-35176190D01*
X34595238Y-35128571D02*
X34928571Y-35128571D01*
X35071428Y-35652380D02*
X34595238Y-35652380D01*
X34595238Y-34652380D01*
X35071428Y-34652380D01*
X35833333Y-35128571D02*
X35500000Y-35128571D01*
X35500000Y-35652380D02*
X35500000Y-34652380D01*
X35976190Y-34652380D01*
X36500000Y-34652380D02*
X36500000Y-34890476D01*
X36261904Y-34795238D02*
X36500000Y-34890476D01*
X36738095Y-34795238D01*
X36357142Y-35080952D02*
X36500000Y-34890476D01*
X36642857Y-35080952D01*
X37261904Y-34652380D02*
X37261904Y-34890476D01*
X37023809Y-34795238D02*
X37261904Y-34890476D01*
X37500000Y-34795238D01*
X37119047Y-35080952D02*
X37261904Y-34890476D01*
X37404761Y-35080952D01*
X34166666Y-82952380D02*
X33833333Y-82476190D01*
X33595238Y-82952380D02*
X33595238Y-81952380D01*
X33976190Y-81952380D01*
X34071428Y-82000000D01*
X34119047Y-82047619D01*
X34166666Y-82142857D01*
X34166666Y-82285714D01*
X34119047Y-82380952D01*
X34071428Y-82428571D01*
X33976190Y-82476190D01*
X33595238Y-82476190D01*
X34595238Y-82428571D02*
X34928571Y-82428571D01*
X35071428Y-82952380D02*
X34595238Y-82952380D01*
X34595238Y-81952380D01*
X35071428Y-81952380D01*
X35833333Y-82428571D02*
X35500000Y-82428571D01*
X35500000Y-82952380D02*
X35500000Y-81952380D01*
X35976190Y-81952380D01*
X36500000Y-81952380D02*
X36500000Y-82190476D01*
X36261904Y-82095238D02*
X36500000Y-82190476D01*
X36738095Y-82095238D01*
X36357142Y-82380952D02*
X36500000Y-82190476D01*
X36642857Y-82380952D01*
X37261904Y-81952380D02*
X37261904Y-82190476D01*
X37023809Y-82095238D02*
X37261904Y-82190476D01*
X37500000Y-82095238D01*
X37119047Y-82380952D02*
X37261904Y-82190476D01*
X37404761Y-82380952D01*
D17*
X76042857Y-56442857D02*
X76023809Y-56461904D01*
X75966666Y-56480952D01*
X75928571Y-56480952D01*
X75871428Y-56461904D01*
X75833333Y-56423809D01*
X75814285Y-56385714D01*
X75795238Y-56309523D01*
X75795238Y-56252380D01*
X75814285Y-56176190D01*
X75833333Y-56138095D01*
X75871428Y-56100000D01*
X75928571Y-56080952D01*
X75966666Y-56080952D01*
X76023809Y-56100000D01*
X76042857Y-56119047D01*
X76423809Y-56480952D02*
X76195238Y-56480952D01*
X76309523Y-56480952D02*
X76309523Y-56080952D01*
X76271428Y-56138095D01*
X76233333Y-56176190D01*
X76195238Y-56195238D01*
X76785714Y-56080952D02*
X76595238Y-56080952D01*
X76576190Y-56271428D01*
X76595238Y-56252380D01*
X76633333Y-56233333D01*
X76728571Y-56233333D01*
X76766666Y-56252380D01*
X76785714Y-56271428D01*
X76804761Y-56309523D01*
X76804761Y-56404761D01*
X76785714Y-56442857D01*
X76766666Y-56461904D01*
X76728571Y-56480952D01*
X76633333Y-56480952D01*
X76595238Y-56461904D01*
X76576190Y-56442857D01*
X74633333Y-51380952D02*
X74500000Y-51190476D01*
X74404761Y-51380952D02*
X74404761Y-50980952D01*
X74557142Y-50980952D01*
X74595238Y-51000000D01*
X74614285Y-51019047D01*
X74633333Y-51057142D01*
X74633333Y-51114285D01*
X74614285Y-51152380D01*
X74595238Y-51171428D01*
X74557142Y-51190476D01*
X74404761Y-51190476D01*
X74823809Y-51380952D02*
X74900000Y-51380952D01*
X74938095Y-51361904D01*
X74957142Y-51342857D01*
X74995238Y-51285714D01*
X75014285Y-51209523D01*
X75014285Y-51057142D01*
X74995238Y-51019047D01*
X74976190Y-51000000D01*
X74938095Y-50980952D01*
X74861904Y-50980952D01*
X74823809Y-51000000D01*
X74804761Y-51019047D01*
X74785714Y-51057142D01*
X74785714Y-51152380D01*
X74804761Y-51190476D01*
X74823809Y-51209523D01*
X74861904Y-51228571D01*
X74938095Y-51228571D01*
X74976190Y-51209523D01*
X74995238Y-51190476D01*
X75014285Y-51152380D01*
X163046057Y-48605142D02*
X163065104Y-48624190D01*
X163084152Y-48681333D01*
X163084152Y-48719428D01*
X163065104Y-48776571D01*
X163027009Y-48814666D01*
X162988914Y-48833714D01*
X162912723Y-48852761D01*
X162855580Y-48852761D01*
X162779390Y-48833714D01*
X162741295Y-48814666D01*
X162703200Y-48776571D01*
X162684152Y-48719428D01*
X162684152Y-48681333D01*
X162703200Y-48624190D01*
X162722247Y-48605142D01*
X163084152Y-48224190D02*
X163084152Y-48452761D01*
X163084152Y-48338476D02*
X162684152Y-48338476D01*
X162741295Y-48376571D01*
X162779390Y-48414666D01*
X162798438Y-48452761D01*
X162684152Y-47976571D02*
X162684152Y-47938476D01*
X162703200Y-47900380D01*
X162722247Y-47881333D01*
X162760342Y-47862285D01*
X162836533Y-47843238D01*
X162931771Y-47843238D01*
X163007961Y-47862285D01*
X163046057Y-47881333D01*
X163065104Y-47900380D01*
X163084152Y-47938476D01*
X163084152Y-47976571D01*
X163065104Y-48014666D01*
X163046057Y-48033714D01*
X163007961Y-48052761D01*
X162931771Y-48071809D01*
X162836533Y-48071809D01*
X162760342Y-48052761D01*
X162722247Y-48033714D01*
X162703200Y-48014666D01*
X162684152Y-47976571D01*
D11*
X120357142Y-33452380D02*
X120023809Y-32976190D01*
X119785714Y-33452380D02*
X119785714Y-32452380D01*
X120166666Y-32452380D01*
X120261904Y-32500000D01*
X120309523Y-32547619D01*
X120357142Y-32642857D01*
X120357142Y-32785714D01*
X120309523Y-32880952D01*
X120261904Y-32928571D01*
X120166666Y-32976190D01*
X119785714Y-32976190D01*
X120738095Y-32547619D02*
X120785714Y-32500000D01*
X120880952Y-32452380D01*
X121119047Y-32452380D01*
X121214285Y-32500000D01*
X121261904Y-32547619D01*
X121309523Y-32642857D01*
X121309523Y-32738095D01*
X121261904Y-32880952D01*
X120690476Y-33452380D01*
X121309523Y-33452380D01*
X122261904Y-33452380D02*
X121690476Y-33452380D01*
X121976190Y-33452380D02*
X121976190Y-32452380D01*
X121880952Y-32595238D01*
X121785714Y-32690476D01*
X121690476Y-32738095D01*
D17*
X119942857Y-41580952D02*
X119809523Y-41390476D01*
X119714285Y-41580952D02*
X119714285Y-41180952D01*
X119866666Y-41180952D01*
X119904761Y-41200000D01*
X119923809Y-41219047D01*
X119942857Y-41257142D01*
X119942857Y-41314285D01*
X119923809Y-41352380D01*
X119904761Y-41371428D01*
X119866666Y-41390476D01*
X119714285Y-41390476D01*
X120095238Y-41219047D02*
X120114285Y-41200000D01*
X120152380Y-41180952D01*
X120247619Y-41180952D01*
X120285714Y-41200000D01*
X120304761Y-41219047D01*
X120323809Y-41257142D01*
X120323809Y-41295238D01*
X120304761Y-41352380D01*
X120076190Y-41580952D01*
X120323809Y-41580952D01*
X120476190Y-41219047D02*
X120495238Y-41200000D01*
X120533333Y-41180952D01*
X120628571Y-41180952D01*
X120666666Y-41200000D01*
X120685714Y-41219047D01*
X120704761Y-41257142D01*
X120704761Y-41295238D01*
X120685714Y-41352380D01*
X120457142Y-41580952D01*
X120704761Y-41580952D01*
X120780952Y-38004761D02*
X121104761Y-38004761D01*
X121142857Y-37985714D01*
X121161904Y-37966666D01*
X121180952Y-37928571D01*
X121180952Y-37852380D01*
X121161904Y-37814285D01*
X121142857Y-37795238D01*
X121104761Y-37776190D01*
X120780952Y-37776190D01*
X120780952Y-37623809D02*
X120780952Y-37376190D01*
X120933333Y-37509523D01*
X120933333Y-37452380D01*
X120952380Y-37414285D01*
X120971428Y-37395238D01*
X121009523Y-37376190D01*
X121104761Y-37376190D01*
X121142857Y-37395238D01*
X121161904Y-37414285D01*
X121180952Y-37452380D01*
X121180952Y-37566666D01*
X121161904Y-37604761D01*
X121142857Y-37623809D01*
X56580952Y-47557142D02*
X56390476Y-47690476D01*
X56580952Y-47785714D02*
X56180952Y-47785714D01*
X56180952Y-47633333D01*
X56200000Y-47595238D01*
X56219047Y-47576190D01*
X56257142Y-47557142D01*
X56314285Y-47557142D01*
X56352380Y-47576190D01*
X56371428Y-47595238D01*
X56390476Y-47633333D01*
X56390476Y-47785714D01*
X56219047Y-47404761D02*
X56200000Y-47385714D01*
X56180952Y-47347619D01*
X56180952Y-47252380D01*
X56200000Y-47214285D01*
X56219047Y-47195238D01*
X56257142Y-47176190D01*
X56295238Y-47176190D01*
X56352380Y-47195238D01*
X56580952Y-47423809D01*
X56580952Y-47176190D01*
X56180952Y-47042857D02*
X56180952Y-46776190D01*
X56580952Y-46947619D01*
X116942857Y-38980952D02*
X116809523Y-38790476D01*
X116714285Y-38980952D02*
X116714285Y-38580952D01*
X116866666Y-38580952D01*
X116904761Y-38600000D01*
X116923809Y-38619047D01*
X116942857Y-38657142D01*
X116942857Y-38714285D01*
X116923809Y-38752380D01*
X116904761Y-38771428D01*
X116866666Y-38790476D01*
X116714285Y-38790476D01*
X117095238Y-38619047D02*
X117114285Y-38600000D01*
X117152380Y-38580952D01*
X117247619Y-38580952D01*
X117285714Y-38600000D01*
X117304761Y-38619047D01*
X117323809Y-38657142D01*
X117323809Y-38695238D01*
X117304761Y-38752380D01*
X117076190Y-38980952D01*
X117323809Y-38980952D01*
X117571428Y-38580952D02*
X117609523Y-38580952D01*
X117647619Y-38600000D01*
X117666666Y-38619047D01*
X117685714Y-38657142D01*
X117704761Y-38733333D01*
X117704761Y-38828571D01*
X117685714Y-38904761D01*
X117666666Y-38942857D01*
X117647619Y-38961904D01*
X117609523Y-38980952D01*
X117571428Y-38980952D01*
X117533333Y-38961904D01*
X117514285Y-38942857D01*
X117495238Y-38904761D01*
X117476190Y-38828571D01*
X117476190Y-38733333D01*
X117495238Y-38657142D01*
X117514285Y-38619047D01*
X117533333Y-38600000D01*
X117571428Y-38580952D01*
D18*
X61652380Y-78373809D02*
X61604761Y-78350000D01*
X61557142Y-78302380D01*
X61485714Y-78230952D01*
X61438095Y-78207142D01*
X61390476Y-78207142D01*
X61414285Y-78326190D02*
X61366666Y-78302380D01*
X61319047Y-78254761D01*
X61295238Y-78159523D01*
X61295238Y-77992857D01*
X61319047Y-77897619D01*
X61366666Y-77850000D01*
X61414285Y-77826190D01*
X61509523Y-77826190D01*
X61557142Y-77850000D01*
X61604761Y-77897619D01*
X61628571Y-77992857D01*
X61628571Y-78159523D01*
X61604761Y-78254761D01*
X61557142Y-78302380D01*
X61509523Y-78326190D01*
X61414285Y-78326190D01*
X62057142Y-77992857D02*
X62057142Y-78326190D01*
X61938095Y-77802380D02*
X61819047Y-78159523D01*
X62128571Y-78159523D01*
X54252380Y-78323809D02*
X54204761Y-78300000D01*
X54157142Y-78252380D01*
X54085714Y-78180952D01*
X54038095Y-78157142D01*
X53990476Y-78157142D01*
X54014285Y-78276190D02*
X53966666Y-78252380D01*
X53919047Y-78204761D01*
X53895238Y-78109523D01*
X53895238Y-77942857D01*
X53919047Y-77847619D01*
X53966666Y-77800000D01*
X54014285Y-77776190D01*
X54109523Y-77776190D01*
X54157142Y-77800000D01*
X54204761Y-77847619D01*
X54228571Y-77942857D01*
X54228571Y-78109523D01*
X54204761Y-78204761D01*
X54157142Y-78252380D01*
X54109523Y-78276190D01*
X54014285Y-78276190D01*
X54395238Y-77776190D02*
X54704761Y-77776190D01*
X54538095Y-77966666D01*
X54609523Y-77966666D01*
X54657142Y-77990476D01*
X54680952Y-78014285D01*
X54704761Y-78061904D01*
X54704761Y-78180952D01*
X54680952Y-78228571D01*
X54657142Y-78252380D01*
X54609523Y-78276190D01*
X54466666Y-78276190D01*
X54419047Y-78252380D01*
X54395238Y-78228571D01*
D11*
X62596666Y-85272380D02*
X62596666Y-85986666D01*
X62549047Y-86129523D01*
X62453809Y-86224761D01*
X62310952Y-86272380D01*
X62215714Y-86272380D01*
X62977619Y-85272380D02*
X63644285Y-85272380D01*
X63215714Y-86272380D01*
X101661904Y-69252380D02*
X101661904Y-68252380D01*
X101900000Y-68252380D01*
X102042857Y-68300000D01*
X102138095Y-68395238D01*
X102185714Y-68490476D01*
X102233333Y-68680952D01*
X102233333Y-68823809D01*
X102185714Y-69014285D01*
X102138095Y-69109523D01*
X102042857Y-69204761D01*
X101900000Y-69252380D01*
X101661904Y-69252380D01*
X103090476Y-68585714D02*
X103090476Y-69252380D01*
X102852380Y-68204761D02*
X102614285Y-68919047D01*
X103233333Y-68919047D01*
X85907142Y-57366666D02*
X85954761Y-57414285D01*
X86002380Y-57557142D01*
X86002380Y-57652380D01*
X85954761Y-57795238D01*
X85859523Y-57890476D01*
X85764285Y-57938095D01*
X85573809Y-57985714D01*
X85430952Y-57985714D01*
X85240476Y-57938095D01*
X85145238Y-57890476D01*
X85050000Y-57795238D01*
X85002380Y-57652380D01*
X85002380Y-57557142D01*
X85050000Y-57414285D01*
X85097619Y-57366666D01*
X85002380Y-56509523D02*
X85002380Y-56700000D01*
X85050000Y-56795238D01*
X85097619Y-56842857D01*
X85240476Y-56938095D01*
X85430952Y-56985714D01*
X85811904Y-56985714D01*
X85907142Y-56938095D01*
X85954761Y-56890476D01*
X86002380Y-56795238D01*
X86002380Y-56604761D01*
X85954761Y-56509523D01*
X85907142Y-56461904D01*
X85811904Y-56414285D01*
X85573809Y-56414285D01*
X85478571Y-56461904D01*
X85430952Y-56509523D01*
X85383333Y-56604761D01*
X85383333Y-56795238D01*
X85430952Y-56890476D01*
X85478571Y-56938095D01*
X85573809Y-56985714D01*
X96752380Y-57366666D02*
X96752380Y-57842857D01*
X95752380Y-57842857D01*
X96752380Y-56509523D02*
X96752380Y-57080952D01*
X96752380Y-56795238D02*
X95752380Y-56795238D01*
X95895238Y-56890476D01*
X95990476Y-56985714D01*
X96038095Y-57080952D01*
X62183333Y-70352380D02*
X61707142Y-70352380D01*
X61707142Y-69352380D01*
X62469047Y-69447619D02*
X62516666Y-69400000D01*
X62611904Y-69352380D01*
X62850000Y-69352380D01*
X62945238Y-69400000D01*
X62992857Y-69447619D01*
X63040476Y-69542857D01*
X63040476Y-69638095D01*
X62992857Y-69780952D01*
X62421428Y-70352380D01*
X63040476Y-70352380D01*
X100913333Y-36746666D02*
X101706666Y-36746666D01*
X101800000Y-36700000D01*
X101846666Y-36653333D01*
X101893333Y-36560000D01*
X101893333Y-36373333D01*
X101846666Y-36280000D01*
X101800000Y-36233333D01*
X101706666Y-36186666D01*
X100913333Y-36186666D01*
X101893333Y-35673333D02*
X101893333Y-35486666D01*
X101846666Y-35393333D01*
X101800000Y-35346666D01*
X101660000Y-35253333D01*
X101473333Y-35206666D01*
X101100000Y-35206666D01*
X101006666Y-35253333D01*
X100960000Y-35300000D01*
X100913333Y-35393333D01*
X100913333Y-35580000D01*
X100960000Y-35673333D01*
X101006666Y-35720000D01*
X101100000Y-35766666D01*
X101333333Y-35766666D01*
X101426666Y-35720000D01*
X101473333Y-35673333D01*
X101520000Y-35580000D01*
X101520000Y-35393333D01*
X101473333Y-35300000D01*
X101426666Y-35253333D01*
X101333333Y-35206666D01*
X95163333Y-36781667D02*
X95956666Y-36781667D01*
X96050000Y-36735001D01*
X96096666Y-36688334D01*
X96143333Y-36595001D01*
X96143333Y-36408334D01*
X96096666Y-36315001D01*
X96050000Y-36268334D01*
X95956666Y-36221667D01*
X95163333Y-36221667D01*
X95583333Y-35615001D02*
X95536666Y-35708334D01*
X95490000Y-35755001D01*
X95396666Y-35801667D01*
X95350000Y-35801667D01*
X95256666Y-35755001D01*
X95210000Y-35708334D01*
X95163333Y-35615001D01*
X95163333Y-35428334D01*
X95210000Y-35335001D01*
X95256666Y-35288334D01*
X95350000Y-35241667D01*
X95396666Y-35241667D01*
X95490000Y-35288334D01*
X95536666Y-35335001D01*
X95583333Y-35428334D01*
X95583333Y-35615001D01*
X95630000Y-35708334D01*
X95676666Y-35755001D01*
X95770000Y-35801667D01*
X95956666Y-35801667D01*
X96050000Y-35755001D01*
X96096666Y-35708334D01*
X96143333Y-35615001D01*
X96143333Y-35428334D01*
X96096666Y-35335001D01*
X96050000Y-35288334D01*
X95956666Y-35241667D01*
X95770000Y-35241667D01*
X95676666Y-35288334D01*
X95630000Y-35335001D01*
X95583333Y-35428334D01*
X100342857Y-45971428D02*
X100342857Y-46457142D01*
X100371428Y-46514285D01*
X100400000Y-46542857D01*
X100457142Y-46571428D01*
X100571428Y-46571428D01*
X100628571Y-46542857D01*
X100657142Y-46514285D01*
X100685714Y-46457142D01*
X100685714Y-45971428D01*
X100914285Y-45971428D02*
X101314285Y-45971428D01*
X101057142Y-46571428D01*
X166355580Y-61009904D02*
X167165104Y-61009904D01*
X167260342Y-60962285D01*
X167307961Y-60914666D01*
X167355580Y-60819428D01*
X167355580Y-60628952D01*
X167307961Y-60533714D01*
X167260342Y-60486095D01*
X167165104Y-60438476D01*
X166355580Y-60438476D01*
X166688914Y-59533714D02*
X167355580Y-59533714D01*
X166307961Y-59771809D02*
X167022247Y-60009904D01*
X167022247Y-59390857D01*
X67640476Y-55161904D02*
X67640476Y-55809523D01*
X67678571Y-55885714D01*
X67716666Y-55923809D01*
X67792857Y-55961904D01*
X67945238Y-55961904D01*
X68021428Y-55923809D01*
X68059523Y-55885714D01*
X68097619Y-55809523D01*
X68097619Y-55161904D01*
X68897619Y-55961904D02*
X68440476Y-55961904D01*
X68669047Y-55961904D02*
X68669047Y-55161904D01*
X68592857Y-55276190D01*
X68516666Y-55352380D01*
X68440476Y-55390476D01*
D17*
X55680952Y-60319047D02*
X55490476Y-60452380D01*
X55680952Y-60547619D02*
X55280952Y-60547619D01*
X55280952Y-60395238D01*
X55300000Y-60357142D01*
X55319047Y-60338095D01*
X55357142Y-60319047D01*
X55414285Y-60319047D01*
X55452380Y-60338095D01*
X55471428Y-60357142D01*
X55490476Y-60395238D01*
X55490476Y-60547619D01*
X55280952Y-60204761D02*
X55280952Y-59976190D01*
X55680952Y-60090476D02*
X55280952Y-60090476D01*
X55680952Y-59633333D02*
X55680952Y-59861904D01*
X55680952Y-59747619D02*
X55280952Y-59747619D01*
X55338095Y-59785714D01*
X55376190Y-59823809D01*
X55395238Y-59861904D01*
X95280952Y-42457142D02*
X95090476Y-42590476D01*
X95280952Y-42685714D02*
X94880952Y-42685714D01*
X94880952Y-42533333D01*
X94900000Y-42495238D01*
X94919047Y-42476190D01*
X94957142Y-42457142D01*
X95014285Y-42457142D01*
X95052380Y-42476190D01*
X95071428Y-42495238D01*
X95090476Y-42533333D01*
X95090476Y-42685714D01*
X94880952Y-42323809D02*
X94880952Y-42076190D01*
X95033333Y-42209523D01*
X95033333Y-42152380D01*
X95052380Y-42114285D01*
X95071428Y-42095238D01*
X95109523Y-42076190D01*
X95204761Y-42076190D01*
X95242857Y-42095238D01*
X95261904Y-42114285D01*
X95280952Y-42152380D01*
X95280952Y-42266666D01*
X95261904Y-42304761D01*
X95242857Y-42323809D01*
X95280952Y-41885714D02*
X95280952Y-41809523D01*
X95261904Y-41771428D01*
X95242857Y-41752380D01*
X95185714Y-41714285D01*
X95109523Y-41695238D01*
X94957142Y-41695238D01*
X94919047Y-41714285D01*
X94900000Y-41733333D01*
X94880952Y-41771428D01*
X94880952Y-41847619D01*
X94900000Y-41885714D01*
X94919047Y-41904761D01*
X94957142Y-41923809D01*
X95052380Y-41923809D01*
X95090476Y-41904761D01*
X95109523Y-41885714D01*
X95128571Y-41847619D01*
X95128571Y-41771428D01*
X95109523Y-41733333D01*
X95090476Y-41714285D01*
X95052380Y-41695238D01*
X97542857Y-49380952D02*
X97409523Y-49190476D01*
X97314285Y-49380952D02*
X97314285Y-48980952D01*
X97466666Y-48980952D01*
X97504761Y-49000000D01*
X97523809Y-49019047D01*
X97542857Y-49057142D01*
X97542857Y-49114285D01*
X97523809Y-49152380D01*
X97504761Y-49171428D01*
X97466666Y-49190476D01*
X97314285Y-49190476D01*
X97676190Y-48980952D02*
X97923809Y-48980952D01*
X97790476Y-49133333D01*
X97847619Y-49133333D01*
X97885714Y-49152380D01*
X97904761Y-49171428D01*
X97923809Y-49209523D01*
X97923809Y-49304761D01*
X97904761Y-49342857D01*
X97885714Y-49361904D01*
X97847619Y-49380952D01*
X97733333Y-49380952D01*
X97695238Y-49361904D01*
X97676190Y-49342857D01*
X98152380Y-49152380D02*
X98114285Y-49133333D01*
X98095238Y-49114285D01*
X98076190Y-49076190D01*
X98076190Y-49057142D01*
X98095238Y-49019047D01*
X98114285Y-49000000D01*
X98152380Y-48980952D01*
X98228571Y-48980952D01*
X98266666Y-49000000D01*
X98285714Y-49019047D01*
X98304761Y-49057142D01*
X98304761Y-49076190D01*
X98285714Y-49114285D01*
X98266666Y-49133333D01*
X98228571Y-49152380D01*
X98152380Y-49152380D01*
X98114285Y-49171428D01*
X98095238Y-49190476D01*
X98076190Y-49228571D01*
X98076190Y-49304761D01*
X98095238Y-49342857D01*
X98114285Y-49361904D01*
X98152380Y-49380952D01*
X98228571Y-49380952D01*
X98266666Y-49361904D01*
X98285714Y-49342857D01*
X98304761Y-49304761D01*
X98304761Y-49228571D01*
X98285714Y-49190476D01*
X98266666Y-49171428D01*
X98228571Y-49152380D01*
X95130952Y-46007142D02*
X94940476Y-46140476D01*
X95130952Y-46235714D02*
X94730952Y-46235714D01*
X94730952Y-46083333D01*
X94750000Y-46045238D01*
X94769047Y-46026190D01*
X94807142Y-46007142D01*
X94864285Y-46007142D01*
X94902380Y-46026190D01*
X94921428Y-46045238D01*
X94940476Y-46083333D01*
X94940476Y-46235714D01*
X94730952Y-45873809D02*
X94730952Y-45626190D01*
X94883333Y-45759523D01*
X94883333Y-45702380D01*
X94902380Y-45664285D01*
X94921428Y-45645238D01*
X94959523Y-45626190D01*
X95054761Y-45626190D01*
X95092857Y-45645238D01*
X95111904Y-45664285D01*
X95130952Y-45702380D01*
X95130952Y-45816666D01*
X95111904Y-45854761D01*
X95092857Y-45873809D01*
X94730952Y-45492857D02*
X94730952Y-45226190D01*
X95130952Y-45397619D01*
X93580952Y-42457142D02*
X93390476Y-42590476D01*
X93580952Y-42685714D02*
X93180952Y-42685714D01*
X93180952Y-42533333D01*
X93200000Y-42495238D01*
X93219047Y-42476190D01*
X93257142Y-42457142D01*
X93314285Y-42457142D01*
X93352380Y-42476190D01*
X93371428Y-42495238D01*
X93390476Y-42533333D01*
X93390476Y-42685714D01*
X93180952Y-42323809D02*
X93180952Y-42076190D01*
X93333333Y-42209523D01*
X93333333Y-42152380D01*
X93352380Y-42114285D01*
X93371428Y-42095238D01*
X93409523Y-42076190D01*
X93504761Y-42076190D01*
X93542857Y-42095238D01*
X93561904Y-42114285D01*
X93580952Y-42152380D01*
X93580952Y-42266666D01*
X93561904Y-42304761D01*
X93542857Y-42323809D01*
X93180952Y-41733333D02*
X93180952Y-41809523D01*
X93200000Y-41847619D01*
X93219047Y-41866666D01*
X93276190Y-41904761D01*
X93352380Y-41923809D01*
X93504761Y-41923809D01*
X93542857Y-41904761D01*
X93561904Y-41885714D01*
X93580952Y-41847619D01*
X93580952Y-41771428D01*
X93561904Y-41733333D01*
X93542857Y-41714285D01*
X93504761Y-41695238D01*
X93409523Y-41695238D01*
X93371428Y-41714285D01*
X93352380Y-41733333D01*
X93333333Y-41771428D01*
X93333333Y-41847619D01*
X93352380Y-41885714D01*
X93371428Y-41904761D01*
X93409523Y-41923809D01*
X193480952Y-73457142D02*
X193290476Y-73590476D01*
X193480952Y-73685714D02*
X193080952Y-73685714D01*
X193080952Y-73533333D01*
X193100000Y-73495238D01*
X193119047Y-73476190D01*
X193157142Y-73457142D01*
X193214285Y-73457142D01*
X193252380Y-73476190D01*
X193271428Y-73495238D01*
X193290476Y-73533333D01*
X193290476Y-73685714D01*
X193080952Y-73323809D02*
X193080952Y-73076190D01*
X193233333Y-73209523D01*
X193233333Y-73152380D01*
X193252380Y-73114285D01*
X193271428Y-73095238D01*
X193309523Y-73076190D01*
X193404761Y-73076190D01*
X193442857Y-73095238D01*
X193461904Y-73114285D01*
X193480952Y-73152380D01*
X193480952Y-73266666D01*
X193461904Y-73304761D01*
X193442857Y-73323809D01*
X193480952Y-72695238D02*
X193480952Y-72923809D01*
X193480952Y-72809523D02*
X193080952Y-72809523D01*
X193138095Y-72847619D01*
X193176190Y-72885714D01*
X193195238Y-72923809D01*
X97742857Y-85580952D02*
X97609523Y-85390476D01*
X97514285Y-85580952D02*
X97514285Y-85180952D01*
X97666666Y-85180952D01*
X97704761Y-85200000D01*
X97723809Y-85219047D01*
X97742857Y-85257142D01*
X97742857Y-85314285D01*
X97723809Y-85352380D01*
X97704761Y-85371428D01*
X97666666Y-85390476D01*
X97514285Y-85390476D01*
X97895238Y-85219047D02*
X97914285Y-85200000D01*
X97952380Y-85180952D01*
X98047619Y-85180952D01*
X98085714Y-85200000D01*
X98104761Y-85219047D01*
X98123809Y-85257142D01*
X98123809Y-85295238D01*
X98104761Y-85352380D01*
X97876190Y-85580952D01*
X98123809Y-85580952D01*
X98466666Y-85180952D02*
X98390476Y-85180952D01*
X98352380Y-85200000D01*
X98333333Y-85219047D01*
X98295238Y-85276190D01*
X98276190Y-85352380D01*
X98276190Y-85504761D01*
X98295238Y-85542857D01*
X98314285Y-85561904D01*
X98352380Y-85580952D01*
X98428571Y-85580952D01*
X98466666Y-85561904D01*
X98485714Y-85542857D01*
X98504761Y-85504761D01*
X98504761Y-85409523D01*
X98485714Y-85371428D01*
X98466666Y-85352380D01*
X98428571Y-85333333D01*
X98352380Y-85333333D01*
X98314285Y-85352380D01*
X98295238Y-85371428D01*
X98276190Y-85409523D01*
X90942857Y-86280952D02*
X90809523Y-86090476D01*
X90714285Y-86280952D02*
X90714285Y-85880952D01*
X90866666Y-85880952D01*
X90904761Y-85900000D01*
X90923809Y-85919047D01*
X90942857Y-85957142D01*
X90942857Y-86014285D01*
X90923809Y-86052380D01*
X90904761Y-86071428D01*
X90866666Y-86090476D01*
X90714285Y-86090476D01*
X91095238Y-85919047D02*
X91114285Y-85900000D01*
X91152380Y-85880952D01*
X91247619Y-85880952D01*
X91285714Y-85900000D01*
X91304761Y-85919047D01*
X91323809Y-85957142D01*
X91323809Y-85995238D01*
X91304761Y-86052380D01*
X91076190Y-86280952D01*
X91323809Y-86280952D01*
X91685714Y-85880952D02*
X91495238Y-85880952D01*
X91476190Y-86071428D01*
X91495238Y-86052380D01*
X91533333Y-86033333D01*
X91628571Y-86033333D01*
X91666666Y-86052380D01*
X91685714Y-86071428D01*
X91704761Y-86109523D01*
X91704761Y-86204761D01*
X91685714Y-86242857D01*
X91666666Y-86261904D01*
X91628571Y-86280952D01*
X91533333Y-86280952D01*
X91495238Y-86261904D01*
X91476190Y-86242857D01*
X90942857Y-83680952D02*
X90809523Y-83490476D01*
X90714285Y-83680952D02*
X90714285Y-83280952D01*
X90866666Y-83280952D01*
X90904761Y-83300000D01*
X90923809Y-83319047D01*
X90942857Y-83357142D01*
X90942857Y-83414285D01*
X90923809Y-83452380D01*
X90904761Y-83471428D01*
X90866666Y-83490476D01*
X90714285Y-83490476D01*
X91095238Y-83319047D02*
X91114285Y-83300000D01*
X91152380Y-83280952D01*
X91247619Y-83280952D01*
X91285714Y-83300000D01*
X91304761Y-83319047D01*
X91323809Y-83357142D01*
X91323809Y-83395238D01*
X91304761Y-83452380D01*
X91076190Y-83680952D01*
X91323809Y-83680952D01*
X91666666Y-83414285D02*
X91666666Y-83680952D01*
X91571428Y-83261904D02*
X91476190Y-83547619D01*
X91723809Y-83547619D01*
X97742857Y-83880952D02*
X97609523Y-83690476D01*
X97514285Y-83880952D02*
X97514285Y-83480952D01*
X97666666Y-83480952D01*
X97704761Y-83500000D01*
X97723809Y-83519047D01*
X97742857Y-83557142D01*
X97742857Y-83614285D01*
X97723809Y-83652380D01*
X97704761Y-83671428D01*
X97666666Y-83690476D01*
X97514285Y-83690476D01*
X97895238Y-83519047D02*
X97914285Y-83500000D01*
X97952380Y-83480952D01*
X98047619Y-83480952D01*
X98085714Y-83500000D01*
X98104761Y-83519047D01*
X98123809Y-83557142D01*
X98123809Y-83595238D01*
X98104761Y-83652380D01*
X97876190Y-83880952D01*
X98123809Y-83880952D01*
X98257142Y-83480952D02*
X98504761Y-83480952D01*
X98371428Y-83633333D01*
X98428571Y-83633333D01*
X98466666Y-83652380D01*
X98485714Y-83671428D01*
X98504761Y-83709523D01*
X98504761Y-83804761D01*
X98485714Y-83842857D01*
X98466666Y-83861904D01*
X98428571Y-83880952D01*
X98314285Y-83880952D01*
X98276190Y-83861904D01*
X98257142Y-83842857D01*
X56680952Y-53857142D02*
X56490476Y-53990476D01*
X56680952Y-54085714D02*
X56280952Y-54085714D01*
X56280952Y-53933333D01*
X56300000Y-53895238D01*
X56319047Y-53876190D01*
X56357142Y-53857142D01*
X56414285Y-53857142D01*
X56452380Y-53876190D01*
X56471428Y-53895238D01*
X56490476Y-53933333D01*
X56490476Y-54085714D01*
X56680952Y-53476190D02*
X56680952Y-53704761D01*
X56680952Y-53590476D02*
X56280952Y-53590476D01*
X56338095Y-53628571D01*
X56376190Y-53666666D01*
X56395238Y-53704761D01*
X56680952Y-53285714D02*
X56680952Y-53209523D01*
X56661904Y-53171428D01*
X56642857Y-53152380D01*
X56585714Y-53114285D01*
X56509523Y-53095238D01*
X56357142Y-53095238D01*
X56319047Y-53114285D01*
X56300000Y-53133333D01*
X56280952Y-53171428D01*
X56280952Y-53247619D01*
X56300000Y-53285714D01*
X56319047Y-53304761D01*
X56357142Y-53323809D01*
X56452380Y-53323809D01*
X56490476Y-53304761D01*
X56509523Y-53285714D01*
X56528571Y-53247619D01*
X56528571Y-53171428D01*
X56509523Y-53133333D01*
X56490476Y-53114285D01*
X56452380Y-53095238D01*
X56680952Y-57107142D02*
X56490476Y-57240476D01*
X56680952Y-57335714D02*
X56280952Y-57335714D01*
X56280952Y-57183333D01*
X56300000Y-57145238D01*
X56319047Y-57126190D01*
X56357142Y-57107142D01*
X56414285Y-57107142D01*
X56452380Y-57126190D01*
X56471428Y-57145238D01*
X56490476Y-57183333D01*
X56490476Y-57335714D01*
X56680952Y-56726190D02*
X56680952Y-56954761D01*
X56680952Y-56840476D02*
X56280952Y-56840476D01*
X56338095Y-56878571D01*
X56376190Y-56916666D01*
X56395238Y-56954761D01*
X56452380Y-56497619D02*
X56433333Y-56535714D01*
X56414285Y-56554761D01*
X56376190Y-56573809D01*
X56357142Y-56573809D01*
X56319047Y-56554761D01*
X56300000Y-56535714D01*
X56280952Y-56497619D01*
X56280952Y-56421428D01*
X56300000Y-56383333D01*
X56319047Y-56364285D01*
X56357142Y-56345238D01*
X56376190Y-56345238D01*
X56414285Y-56364285D01*
X56433333Y-56383333D01*
X56452380Y-56421428D01*
X56452380Y-56497619D01*
X56471428Y-56535714D01*
X56490476Y-56554761D01*
X56528571Y-56573809D01*
X56604761Y-56573809D01*
X56642857Y-56554761D01*
X56661904Y-56535714D01*
X56680952Y-56497619D01*
X56680952Y-56421428D01*
X56661904Y-56383333D01*
X56642857Y-56364285D01*
X56604761Y-56345238D01*
X56528571Y-56345238D01*
X56490476Y-56364285D01*
X56471428Y-56383333D01*
X56452380Y-56421428D01*
X57680952Y-60357142D02*
X57490476Y-60490476D01*
X57680952Y-60585714D02*
X57280952Y-60585714D01*
X57280952Y-60433333D01*
X57300000Y-60395238D01*
X57319047Y-60376190D01*
X57357142Y-60357142D01*
X57414285Y-60357142D01*
X57452380Y-60376190D01*
X57471428Y-60395238D01*
X57490476Y-60433333D01*
X57490476Y-60585714D01*
X57680952Y-59976190D02*
X57680952Y-60204761D01*
X57680952Y-60090476D02*
X57280952Y-60090476D01*
X57338095Y-60128571D01*
X57376190Y-60166666D01*
X57395238Y-60204761D01*
X57280952Y-59842857D02*
X57280952Y-59576190D01*
X57680952Y-59747619D01*
X54930952Y-53857142D02*
X54740476Y-53990476D01*
X54930952Y-54085714D02*
X54530952Y-54085714D01*
X54530952Y-53933333D01*
X54550000Y-53895238D01*
X54569047Y-53876190D01*
X54607142Y-53857142D01*
X54664285Y-53857142D01*
X54702380Y-53876190D01*
X54721428Y-53895238D01*
X54740476Y-53933333D01*
X54740476Y-54085714D01*
X54930952Y-53476190D02*
X54930952Y-53704761D01*
X54930952Y-53590476D02*
X54530952Y-53590476D01*
X54588095Y-53628571D01*
X54626190Y-53666666D01*
X54645238Y-53704761D01*
X54530952Y-53133333D02*
X54530952Y-53209523D01*
X54550000Y-53247619D01*
X54569047Y-53266666D01*
X54626190Y-53304761D01*
X54702380Y-53323809D01*
X54854761Y-53323809D01*
X54892857Y-53304761D01*
X54911904Y-53285714D01*
X54930952Y-53247619D01*
X54930952Y-53171428D01*
X54911904Y-53133333D01*
X54892857Y-53114285D01*
X54854761Y-53095238D01*
X54759523Y-53095238D01*
X54721428Y-53114285D01*
X54702380Y-53133333D01*
X54683333Y-53171428D01*
X54683333Y-53247619D01*
X54702380Y-53285714D01*
X54721428Y-53304761D01*
X54759523Y-53323809D01*
D15*
X95385714Y-66161904D02*
X95119047Y-65780952D01*
X94928571Y-66161904D02*
X94928571Y-65361904D01*
X95233333Y-65361904D01*
X95309523Y-65400000D01*
X95347619Y-65438095D01*
X95385714Y-65514285D01*
X95385714Y-65628571D01*
X95347619Y-65704761D01*
X95309523Y-65742857D01*
X95233333Y-65780952D01*
X94928571Y-65780952D01*
X96147619Y-66161904D02*
X95690476Y-66161904D01*
X95919047Y-66161904D02*
X95919047Y-65361904D01*
X95842857Y-65476190D01*
X95766666Y-65552380D01*
X95690476Y-65590476D01*
X96871428Y-65361904D02*
X96490476Y-65361904D01*
X96452380Y-65742857D01*
X96490476Y-65704761D01*
X96566666Y-65666666D01*
X96757142Y-65666666D01*
X96833333Y-65704761D01*
X96871428Y-65742857D01*
X96909523Y-65819047D01*
X96909523Y-66009523D01*
X96871428Y-66085714D01*
X96833333Y-66123809D01*
X96757142Y-66161904D01*
X96566666Y-66161904D01*
X96490476Y-66123809D01*
X96452380Y-66085714D01*
D17*
X70042857Y-61780952D02*
X69909523Y-61590476D01*
X69814285Y-61780952D02*
X69814285Y-61380952D01*
X69966666Y-61380952D01*
X70004761Y-61400000D01*
X70023809Y-61419047D01*
X70042857Y-61457142D01*
X70042857Y-61514285D01*
X70023809Y-61552380D01*
X70004761Y-61571428D01*
X69966666Y-61590476D01*
X69814285Y-61590476D01*
X70423809Y-61780952D02*
X70195238Y-61780952D01*
X70309523Y-61780952D02*
X70309523Y-61380952D01*
X70271428Y-61438095D01*
X70233333Y-61476190D01*
X70195238Y-61495238D01*
X70766666Y-61514285D02*
X70766666Y-61780952D01*
X70671428Y-61361904D02*
X70576190Y-61647619D01*
X70823809Y-61647619D01*
X79280952Y-70557142D02*
X79090476Y-70690476D01*
X79280952Y-70785714D02*
X78880952Y-70785714D01*
X78880952Y-70633333D01*
X78900000Y-70595238D01*
X78919047Y-70576190D01*
X78957142Y-70557142D01*
X79014285Y-70557142D01*
X79052380Y-70576190D01*
X79071428Y-70595238D01*
X79090476Y-70633333D01*
X79090476Y-70785714D01*
X79280952Y-70176190D02*
X79280952Y-70404761D01*
X79280952Y-70290476D02*
X78880952Y-70290476D01*
X78938095Y-70328571D01*
X78976190Y-70366666D01*
X78995238Y-70404761D01*
X78880952Y-70042857D02*
X78880952Y-69795238D01*
X79033333Y-69928571D01*
X79033333Y-69871428D01*
X79052380Y-69833333D01*
X79071428Y-69814285D01*
X79109523Y-69795238D01*
X79204761Y-69795238D01*
X79242857Y-69814285D01*
X79261904Y-69833333D01*
X79280952Y-69871428D01*
X79280952Y-69985714D01*
X79261904Y-70023809D01*
X79242857Y-70042857D01*
X79280952Y-66957142D02*
X79090476Y-67090476D01*
X79280952Y-67185714D02*
X78880952Y-67185714D01*
X78880952Y-67033333D01*
X78900000Y-66995238D01*
X78919047Y-66976190D01*
X78957142Y-66957142D01*
X79014285Y-66957142D01*
X79052380Y-66976190D01*
X79071428Y-66995238D01*
X79090476Y-67033333D01*
X79090476Y-67185714D01*
X79280952Y-66576190D02*
X79280952Y-66804761D01*
X79280952Y-66690476D02*
X78880952Y-66690476D01*
X78938095Y-66728571D01*
X78976190Y-66766666D01*
X78995238Y-66804761D01*
X78919047Y-66423809D02*
X78900000Y-66404761D01*
X78880952Y-66366666D01*
X78880952Y-66271428D01*
X78900000Y-66233333D01*
X78919047Y-66214285D01*
X78957142Y-66195238D01*
X78995238Y-66195238D01*
X79052380Y-66214285D01*
X79280952Y-66442857D01*
X79280952Y-66195238D01*
X81130952Y-51957142D02*
X80940476Y-52090476D01*
X81130952Y-52185714D02*
X80730952Y-52185714D01*
X80730952Y-52033333D01*
X80750000Y-51995238D01*
X80769047Y-51976190D01*
X80807142Y-51957142D01*
X80864285Y-51957142D01*
X80902380Y-51976190D01*
X80921428Y-51995238D01*
X80940476Y-52033333D01*
X80940476Y-52185714D01*
X81130952Y-51576190D02*
X81130952Y-51804761D01*
X81130952Y-51690476D02*
X80730952Y-51690476D01*
X80788095Y-51728571D01*
X80826190Y-51766666D01*
X80845238Y-51804761D01*
X81130952Y-51195238D02*
X81130952Y-51423809D01*
X81130952Y-51309523D02*
X80730952Y-51309523D01*
X80788095Y-51347619D01*
X80826190Y-51385714D01*
X80845238Y-51423809D01*
D19*
X90826190Y-48521428D02*
X90588095Y-48688095D01*
X90826190Y-48807142D02*
X90326190Y-48807142D01*
X90326190Y-48616666D01*
X90350000Y-48569047D01*
X90373809Y-48545238D01*
X90421428Y-48521428D01*
X90492857Y-48521428D01*
X90540476Y-48545238D01*
X90564285Y-48569047D01*
X90588095Y-48616666D01*
X90588095Y-48807142D01*
X90826190Y-48045238D02*
X90826190Y-48330952D01*
X90826190Y-48188095D02*
X90326190Y-48188095D01*
X90397619Y-48235714D01*
X90445238Y-48283333D01*
X90469047Y-48330952D01*
X90326190Y-47735714D02*
X90326190Y-47688095D01*
X90350000Y-47640476D01*
X90373809Y-47616666D01*
X90421428Y-47592857D01*
X90516666Y-47569047D01*
X90635714Y-47569047D01*
X90730952Y-47592857D01*
X90778571Y-47616666D01*
X90802380Y-47640476D01*
X90826190Y-47688095D01*
X90826190Y-47735714D01*
X90802380Y-47783333D01*
X90778571Y-47807142D01*
X90730952Y-47830952D01*
X90635714Y-47854761D01*
X90516666Y-47854761D01*
X90421428Y-47830952D01*
X90373809Y-47807142D01*
X90350000Y-47783333D01*
X90326190Y-47735714D01*
D17*
X77280952Y-72716666D02*
X77090476Y-72850000D01*
X77280952Y-72945238D02*
X76880952Y-72945238D01*
X76880952Y-72792857D01*
X76900000Y-72754761D01*
X76919047Y-72735714D01*
X76957142Y-72716666D01*
X77014285Y-72716666D01*
X77052380Y-72735714D01*
X77071428Y-72754761D01*
X77090476Y-72792857D01*
X77090476Y-72945238D01*
X77052380Y-72488095D02*
X77033333Y-72526190D01*
X77014285Y-72545238D01*
X76976190Y-72564285D01*
X76957142Y-72564285D01*
X76919047Y-72545238D01*
X76900000Y-72526190D01*
X76880952Y-72488095D01*
X76880952Y-72411904D01*
X76900000Y-72373809D01*
X76919047Y-72354761D01*
X76957142Y-72335714D01*
X76976190Y-72335714D01*
X77014285Y-72354761D01*
X77033333Y-72373809D01*
X77052380Y-72411904D01*
X77052380Y-72488095D01*
X77071428Y-72526190D01*
X77090476Y-72545238D01*
X77128571Y-72564285D01*
X77204761Y-72564285D01*
X77242857Y-72545238D01*
X77261904Y-72526190D01*
X77280952Y-72488095D01*
X77280952Y-72411904D01*
X77261904Y-72373809D01*
X77242857Y-72354761D01*
X77204761Y-72335714D01*
X77128571Y-72335714D01*
X77090476Y-72354761D01*
X77071428Y-72373809D01*
X77052380Y-72411904D01*
X76233333Y-53280952D02*
X76100000Y-53090476D01*
X76004761Y-53280952D02*
X76004761Y-52880952D01*
X76157142Y-52880952D01*
X76195238Y-52900000D01*
X76214285Y-52919047D01*
X76233333Y-52957142D01*
X76233333Y-53014285D01*
X76214285Y-53052380D01*
X76195238Y-53071428D01*
X76157142Y-53090476D01*
X76004761Y-53090476D01*
X76366666Y-52880952D02*
X76633333Y-52880952D01*
X76461904Y-53280952D01*
X76233333Y-54880952D02*
X76100000Y-54690476D01*
X76004761Y-54880952D02*
X76004761Y-54480952D01*
X76157142Y-54480952D01*
X76195238Y-54500000D01*
X76214285Y-54519047D01*
X76233333Y-54557142D01*
X76233333Y-54614285D01*
X76214285Y-54652380D01*
X76195238Y-54671428D01*
X76157142Y-54690476D01*
X76004761Y-54690476D01*
X76576190Y-54480952D02*
X76500000Y-54480952D01*
X76461904Y-54500000D01*
X76442857Y-54519047D01*
X76404761Y-54576190D01*
X76385714Y-54652380D01*
X76385714Y-54804761D01*
X76404761Y-54842857D01*
X76423809Y-54861904D01*
X76461904Y-54880952D01*
X76538095Y-54880952D01*
X76576190Y-54861904D01*
X76595238Y-54842857D01*
X76614285Y-54804761D01*
X76614285Y-54709523D01*
X76595238Y-54671428D01*
X76576190Y-54652380D01*
X76538095Y-54633333D01*
X76461904Y-54633333D01*
X76423809Y-54652380D01*
X76404761Y-54671428D01*
X76385714Y-54709523D01*
X62680952Y-59416666D02*
X62490476Y-59550000D01*
X62680952Y-59645238D02*
X62280952Y-59645238D01*
X62280952Y-59492857D01*
X62300000Y-59454761D01*
X62319047Y-59435714D01*
X62357142Y-59416666D01*
X62414285Y-59416666D01*
X62452380Y-59435714D01*
X62471428Y-59454761D01*
X62490476Y-59492857D01*
X62490476Y-59645238D01*
X62280952Y-59054761D02*
X62280952Y-59245238D01*
X62471428Y-59264285D01*
X62452380Y-59245238D01*
X62433333Y-59207142D01*
X62433333Y-59111904D01*
X62452380Y-59073809D01*
X62471428Y-59054761D01*
X62509523Y-59035714D01*
X62604761Y-59035714D01*
X62642857Y-59054761D01*
X62661904Y-59073809D01*
X62680952Y-59111904D01*
X62680952Y-59207142D01*
X62661904Y-59245238D01*
X62642857Y-59264285D01*
X72680952Y-48416666D02*
X72490476Y-48550000D01*
X72680952Y-48645238D02*
X72280952Y-48645238D01*
X72280952Y-48492857D01*
X72300000Y-48454761D01*
X72319047Y-48435714D01*
X72357142Y-48416666D01*
X72414285Y-48416666D01*
X72452380Y-48435714D01*
X72471428Y-48454761D01*
X72490476Y-48492857D01*
X72490476Y-48645238D01*
X72414285Y-48073809D02*
X72680952Y-48073809D01*
X72261904Y-48169047D02*
X72547619Y-48264285D01*
X72547619Y-48016666D01*
X61433333Y-56380952D02*
X61300000Y-56190476D01*
X61204761Y-56380952D02*
X61204761Y-55980952D01*
X61357142Y-55980952D01*
X61395238Y-56000000D01*
X61414285Y-56019047D01*
X61433333Y-56057142D01*
X61433333Y-56114285D01*
X61414285Y-56152380D01*
X61395238Y-56171428D01*
X61357142Y-56190476D01*
X61204761Y-56190476D01*
X61566666Y-55980952D02*
X61814285Y-55980952D01*
X61680952Y-56133333D01*
X61738095Y-56133333D01*
X61776190Y-56152380D01*
X61795238Y-56171428D01*
X61814285Y-56209523D01*
X61814285Y-56304761D01*
X61795238Y-56342857D01*
X61776190Y-56361904D01*
X61738095Y-56380952D01*
X61623809Y-56380952D01*
X61585714Y-56361904D01*
X61566666Y-56342857D01*
X58933333Y-53780952D02*
X58800000Y-53590476D01*
X58704761Y-53780952D02*
X58704761Y-53380952D01*
X58857142Y-53380952D01*
X58895238Y-53400000D01*
X58914285Y-53419047D01*
X58933333Y-53457142D01*
X58933333Y-53514285D01*
X58914285Y-53552380D01*
X58895238Y-53571428D01*
X58857142Y-53590476D01*
X58704761Y-53590476D01*
X59085714Y-53419047D02*
X59104761Y-53400000D01*
X59142857Y-53380952D01*
X59238095Y-53380952D01*
X59276190Y-53400000D01*
X59295238Y-53419047D01*
X59314285Y-53457142D01*
X59314285Y-53495238D01*
X59295238Y-53552380D01*
X59066666Y-53780952D01*
X59314285Y-53780952D01*
X58933333Y-52030952D02*
X58800000Y-51840476D01*
X58704761Y-52030952D02*
X58704761Y-51630952D01*
X58857142Y-51630952D01*
X58895238Y-51650000D01*
X58914285Y-51669047D01*
X58933333Y-51707142D01*
X58933333Y-51764285D01*
X58914285Y-51802380D01*
X58895238Y-51821428D01*
X58857142Y-51840476D01*
X58704761Y-51840476D01*
X59314285Y-52030952D02*
X59085714Y-52030952D01*
X59200000Y-52030952D02*
X59200000Y-51630952D01*
X59161904Y-51688095D01*
X59123809Y-51726190D01*
X59085714Y-51745238D01*
D18*
X52452380Y-57173809D02*
X52404761Y-57150000D01*
X52357142Y-57102380D01*
X52285714Y-57030952D01*
X52238095Y-57007142D01*
X52190476Y-57007142D01*
X52214285Y-57126190D02*
X52166666Y-57102380D01*
X52119047Y-57054761D01*
X52095238Y-56959523D01*
X52095238Y-56792857D01*
X52119047Y-56697619D01*
X52166666Y-56650000D01*
X52214285Y-56626190D01*
X52309523Y-56626190D01*
X52357142Y-56650000D01*
X52404761Y-56697619D01*
X52428571Y-56792857D01*
X52428571Y-56959523D01*
X52404761Y-57054761D01*
X52357142Y-57102380D01*
X52309523Y-57126190D01*
X52214285Y-57126190D01*
X52619047Y-56673809D02*
X52642857Y-56650000D01*
X52690476Y-56626190D01*
X52809523Y-56626190D01*
X52857142Y-56650000D01*
X52880952Y-56673809D01*
X52904761Y-56721428D01*
X52904761Y-56769047D01*
X52880952Y-56840476D01*
X52595238Y-57126190D01*
X52904761Y-57126190D01*
X84823809Y-49997619D02*
X84800000Y-50045238D01*
X84752380Y-50092857D01*
X84680952Y-50164285D01*
X84657142Y-50211904D01*
X84657142Y-50259523D01*
X84776190Y-50235714D02*
X84752380Y-50283333D01*
X84704761Y-50330952D01*
X84609523Y-50354761D01*
X84442857Y-50354761D01*
X84347619Y-50330952D01*
X84300000Y-50283333D01*
X84276190Y-50235714D01*
X84276190Y-50140476D01*
X84300000Y-50092857D01*
X84347619Y-50045238D01*
X84442857Y-50021428D01*
X84609523Y-50021428D01*
X84704761Y-50045238D01*
X84752380Y-50092857D01*
X84776190Y-50140476D01*
X84776190Y-50235714D01*
X84776190Y-49545238D02*
X84776190Y-49830952D01*
X84776190Y-49688095D02*
X84276190Y-49688095D01*
X84347619Y-49735714D01*
X84395238Y-49783333D01*
X84419047Y-49830952D01*
D11*
X43512380Y-59303333D02*
X44226666Y-59303333D01*
X44369523Y-59350952D01*
X44464761Y-59446190D01*
X44512380Y-59589047D01*
X44512380Y-59684285D01*
X43607619Y-58874761D02*
X43560000Y-58827142D01*
X43512380Y-58731904D01*
X43512380Y-58493809D01*
X43560000Y-58398571D01*
X43607619Y-58350952D01*
X43702857Y-58303333D01*
X43798095Y-58303333D01*
X43940952Y-58350952D01*
X44512380Y-58922380D01*
X44512380Y-58303333D01*
D17*
X188830952Y-73495238D02*
X188430952Y-73495238D01*
X188430952Y-73400000D01*
X188450000Y-73342857D01*
X188488095Y-73304761D01*
X188526190Y-73285714D01*
X188602380Y-73266666D01*
X188659523Y-73266666D01*
X188735714Y-73285714D01*
X188773809Y-73304761D01*
X188811904Y-73342857D01*
X188830952Y-73400000D01*
X188830952Y-73495238D01*
X188430952Y-72923809D02*
X188430952Y-73000000D01*
X188450000Y-73038095D01*
X188469047Y-73057142D01*
X188526190Y-73095238D01*
X188602380Y-73114285D01*
X188754761Y-73114285D01*
X188792857Y-73095238D01*
X188811904Y-73076190D01*
X188830952Y-73038095D01*
X188830952Y-72961904D01*
X188811904Y-72923809D01*
X188792857Y-72904761D01*
X188754761Y-72885714D01*
X188659523Y-72885714D01*
X188621428Y-72904761D01*
X188602380Y-72923809D01*
X188583333Y-72961904D01*
X188583333Y-73038095D01*
X188602380Y-73076190D01*
X188621428Y-73095238D01*
X188659523Y-73114285D01*
X191080952Y-73495238D02*
X190680952Y-73495238D01*
X190680952Y-73400000D01*
X190700000Y-73342857D01*
X190738095Y-73304761D01*
X190776190Y-73285714D01*
X190852380Y-73266666D01*
X190909523Y-73266666D01*
X190985714Y-73285714D01*
X191023809Y-73304761D01*
X191061904Y-73342857D01*
X191080952Y-73400000D01*
X191080952Y-73495238D01*
X190680952Y-72904761D02*
X190680952Y-73095238D01*
X190871428Y-73114285D01*
X190852380Y-73095238D01*
X190833333Y-73057142D01*
X190833333Y-72961904D01*
X190852380Y-72923809D01*
X190871428Y-72904761D01*
X190909523Y-72885714D01*
X191004761Y-72885714D01*
X191042857Y-72904761D01*
X191061904Y-72923809D01*
X191080952Y-72961904D01*
X191080952Y-73057142D01*
X191061904Y-73095238D01*
X191042857Y-73114285D01*
D11*
X84661904Y-68652380D02*
X84661904Y-67652380D01*
X84900000Y-67652380D01*
X85042857Y-67700000D01*
X85138095Y-67795238D01*
X85185714Y-67890476D01*
X85233333Y-68080952D01*
X85233333Y-68223809D01*
X85185714Y-68414285D01*
X85138095Y-68509523D01*
X85042857Y-68604761D01*
X84900000Y-68652380D01*
X84661904Y-68652380D01*
X85566666Y-67652380D02*
X86185714Y-67652380D01*
X85852380Y-68033333D01*
X85995238Y-68033333D01*
X86090476Y-68080952D01*
X86138095Y-68128571D01*
X86185714Y-68223809D01*
X86185714Y-68461904D01*
X86138095Y-68557142D01*
X86090476Y-68604761D01*
X85995238Y-68652380D01*
X85709523Y-68652380D01*
X85614285Y-68604761D01*
X85566666Y-68557142D01*
D18*
X54576190Y-69269047D02*
X54076190Y-69269047D01*
X54076190Y-69150000D01*
X54100000Y-69078571D01*
X54147619Y-69030952D01*
X54195238Y-69007142D01*
X54290476Y-68983333D01*
X54361904Y-68983333D01*
X54457142Y-69007142D01*
X54504761Y-69030952D01*
X54552380Y-69078571D01*
X54576190Y-69150000D01*
X54576190Y-69269047D01*
X54123809Y-68792857D02*
X54100000Y-68769047D01*
X54076190Y-68721428D01*
X54076190Y-68602380D01*
X54100000Y-68554761D01*
X54123809Y-68530952D01*
X54171428Y-68507142D01*
X54219047Y-68507142D01*
X54290476Y-68530952D01*
X54576190Y-68816666D01*
X54576190Y-68507142D01*
D11*
X71611904Y-70102380D02*
X71611904Y-69102380D01*
X71850000Y-69102380D01*
X71992857Y-69150000D01*
X72088095Y-69245238D01*
X72135714Y-69340476D01*
X72183333Y-69530952D01*
X72183333Y-69673809D01*
X72135714Y-69864285D01*
X72088095Y-69959523D01*
X71992857Y-70054761D01*
X71850000Y-70102380D01*
X71611904Y-70102380D01*
X73135714Y-70102380D02*
X72564285Y-70102380D01*
X72850000Y-70102380D02*
X72850000Y-69102380D01*
X72754761Y-69245238D01*
X72659523Y-69340476D01*
X72564285Y-69388095D01*
D17*
X59842857Y-47557142D02*
X59861904Y-47576190D01*
X59880952Y-47633333D01*
X59880952Y-47671428D01*
X59861904Y-47728571D01*
X59823809Y-47766666D01*
X59785714Y-47785714D01*
X59709523Y-47804761D01*
X59652380Y-47804761D01*
X59576190Y-47785714D01*
X59538095Y-47766666D01*
X59500000Y-47728571D01*
X59480952Y-47671428D01*
X59480952Y-47633333D01*
X59500000Y-47576190D01*
X59519047Y-47557142D01*
X59880952Y-47176190D02*
X59880952Y-47404761D01*
X59880952Y-47290476D02*
X59480952Y-47290476D01*
X59538095Y-47328571D01*
X59576190Y-47366666D01*
X59595238Y-47404761D01*
X59614285Y-46833333D02*
X59880952Y-46833333D01*
X59461904Y-46928571D02*
X59747619Y-47023809D01*
X59747619Y-46776190D01*
D15*
X106485714Y-37989285D02*
X106523809Y-38027380D01*
X106561904Y-38141666D01*
X106561904Y-38217857D01*
X106523809Y-38332142D01*
X106447619Y-38408333D01*
X106371428Y-38446428D01*
X106219047Y-38484523D01*
X106104761Y-38484523D01*
X105952380Y-38446428D01*
X105876190Y-38408333D01*
X105800000Y-38332142D01*
X105761904Y-38217857D01*
X105761904Y-38141666D01*
X105800000Y-38027380D01*
X105838095Y-37989285D01*
X106561904Y-37227380D02*
X106561904Y-37684523D01*
X106561904Y-37455952D02*
X105761904Y-37455952D01*
X105876190Y-37532142D01*
X105952380Y-37608333D01*
X105990476Y-37684523D01*
X105761904Y-36960714D02*
X105761904Y-36465476D01*
X106066666Y-36732142D01*
X106066666Y-36617857D01*
X106104761Y-36541666D01*
X106142857Y-36503571D01*
X106219047Y-36465476D01*
X106409523Y-36465476D01*
X106485714Y-36503571D01*
X106523809Y-36541666D01*
X106561904Y-36617857D01*
X106561904Y-36846428D01*
X106523809Y-36922619D01*
X106485714Y-36960714D01*
D11*
X185877942Y-58546742D02*
X185830323Y-58594361D01*
X185687466Y-58641980D01*
X185592228Y-58641980D01*
X185449371Y-58594361D01*
X185354133Y-58499123D01*
X185306514Y-58403885D01*
X185258895Y-58213409D01*
X185258895Y-58070552D01*
X185306514Y-57880076D01*
X185354133Y-57784838D01*
X185449371Y-57689600D01*
X185592228Y-57641980D01*
X185687466Y-57641980D01*
X185830323Y-57689600D01*
X185877942Y-57737219D01*
X186830323Y-58641980D02*
X186258895Y-58641980D01*
X186544609Y-58641980D02*
X186544609Y-57641980D01*
X186449371Y-57784838D01*
X186354133Y-57880076D01*
X186258895Y-57927695D01*
X187211276Y-57737219D02*
X187258895Y-57689600D01*
X187354133Y-57641980D01*
X187592228Y-57641980D01*
X187687466Y-57689600D01*
X187735085Y-57737219D01*
X187782704Y-57832457D01*
X187782704Y-57927695D01*
X187735085Y-58070552D01*
X187163657Y-58641980D01*
X187782704Y-58641980D01*
X153485142Y-53942057D02*
X153532761Y-53989676D01*
X153580380Y-54132533D01*
X153580380Y-54227771D01*
X153532761Y-54370628D01*
X153437523Y-54465866D01*
X153342285Y-54513485D01*
X153151809Y-54561104D01*
X153008952Y-54561104D01*
X152818476Y-54513485D01*
X152723238Y-54465866D01*
X152628000Y-54370628D01*
X152580380Y-54227771D01*
X152580380Y-54132533D01*
X152628000Y-53989676D01*
X152675619Y-53942057D01*
X153580380Y-52989676D02*
X153580380Y-53561104D01*
X153580380Y-53275390D02*
X152580380Y-53275390D01*
X152723238Y-53370628D01*
X152818476Y-53465866D01*
X152866095Y-53561104D01*
X153580380Y-52037295D02*
X153580380Y-52608723D01*
X153580380Y-52323009D02*
X152580380Y-52323009D01*
X152723238Y-52418247D01*
X152818476Y-52513485D01*
X152866095Y-52608723D01*
D17*
X104642857Y-62066666D02*
X104661904Y-62085714D01*
X104680952Y-62142857D01*
X104680952Y-62180952D01*
X104661904Y-62238095D01*
X104623809Y-62276190D01*
X104585714Y-62295238D01*
X104509523Y-62314285D01*
X104452380Y-62314285D01*
X104376190Y-62295238D01*
X104338095Y-62276190D01*
X104300000Y-62238095D01*
X104280952Y-62180952D01*
X104280952Y-62142857D01*
X104300000Y-62085714D01*
X104319047Y-62066666D01*
X104680952Y-61876190D02*
X104680952Y-61800000D01*
X104661904Y-61761904D01*
X104642857Y-61742857D01*
X104585714Y-61704761D01*
X104509523Y-61685714D01*
X104357142Y-61685714D01*
X104319047Y-61704761D01*
X104300000Y-61723809D01*
X104280952Y-61761904D01*
X104280952Y-61838095D01*
X104300000Y-61876190D01*
X104319047Y-61895238D01*
X104357142Y-61914285D01*
X104452380Y-61914285D01*
X104490476Y-61895238D01*
X104509523Y-61876190D01*
X104528571Y-61838095D01*
X104528571Y-61761904D01*
X104509523Y-61723809D01*
X104490476Y-61704761D01*
X104452380Y-61685714D01*
D15*
X91485714Y-67033333D02*
X91523809Y-67071428D01*
X91561904Y-67185714D01*
X91561904Y-67261904D01*
X91523809Y-67376190D01*
X91447619Y-67452380D01*
X91371428Y-67490476D01*
X91219047Y-67528571D01*
X91104761Y-67528571D01*
X90952380Y-67490476D01*
X90876190Y-67452380D01*
X90800000Y-67376190D01*
X90761904Y-67261904D01*
X90761904Y-67185714D01*
X90800000Y-67071428D01*
X90838095Y-67033333D01*
X91104761Y-66576190D02*
X91066666Y-66652380D01*
X91028571Y-66690476D01*
X90952380Y-66728571D01*
X90914285Y-66728571D01*
X90838095Y-66690476D01*
X90800000Y-66652380D01*
X90761904Y-66576190D01*
X90761904Y-66423809D01*
X90800000Y-66347619D01*
X90838095Y-66309523D01*
X90914285Y-66271428D01*
X90952380Y-66271428D01*
X91028571Y-66309523D01*
X91066666Y-66347619D01*
X91104761Y-66423809D01*
X91104761Y-66576190D01*
X91142857Y-66652380D01*
X91180952Y-66690476D01*
X91257142Y-66728571D01*
X91409523Y-66728571D01*
X91485714Y-66690476D01*
X91523809Y-66652380D01*
X91561904Y-66576190D01*
X91561904Y-66423809D01*
X91523809Y-66347619D01*
X91485714Y-66309523D01*
X91409523Y-66271428D01*
X91257142Y-66271428D01*
X91180952Y-66309523D01*
X91142857Y-66347619D01*
X91104761Y-66423809D01*
D19*
X54266666Y-72328571D02*
X54242857Y-72352380D01*
X54171428Y-72376190D01*
X54123809Y-72376190D01*
X54052380Y-72352380D01*
X54004761Y-72304761D01*
X53980952Y-72257142D01*
X53957142Y-72161904D01*
X53957142Y-72090476D01*
X53980952Y-71995238D01*
X54004761Y-71947619D01*
X54052380Y-71900000D01*
X54123809Y-71876190D01*
X54171428Y-71876190D01*
X54242857Y-71900000D01*
X54266666Y-71923809D01*
X54433333Y-71876190D02*
X54766666Y-71876190D01*
X54552380Y-72376190D01*
D17*
X70833333Y-76242857D02*
X70814285Y-76261904D01*
X70757142Y-76280952D01*
X70719047Y-76280952D01*
X70661904Y-76261904D01*
X70623809Y-76223809D01*
X70604761Y-76185714D01*
X70585714Y-76109523D01*
X70585714Y-76052380D01*
X70604761Y-75976190D01*
X70623809Y-75938095D01*
X70661904Y-75900000D01*
X70719047Y-75880952D01*
X70757142Y-75880952D01*
X70814285Y-75900000D01*
X70833333Y-75919047D01*
X71195238Y-75880952D02*
X71004761Y-75880952D01*
X70985714Y-76071428D01*
X71004761Y-76052380D01*
X71042857Y-76033333D01*
X71138095Y-76033333D01*
X71176190Y-76052380D01*
X71195238Y-76071428D01*
X71214285Y-76109523D01*
X71214285Y-76204761D01*
X71195238Y-76242857D01*
X71176190Y-76261904D01*
X71138095Y-76280952D01*
X71042857Y-76280952D01*
X71004761Y-76261904D01*
X70985714Y-76242857D01*
X70042857Y-67066666D02*
X70061904Y-67085714D01*
X70080952Y-67142857D01*
X70080952Y-67180952D01*
X70061904Y-67238095D01*
X70023809Y-67276190D01*
X69985714Y-67295238D01*
X69909523Y-67314285D01*
X69852380Y-67314285D01*
X69776190Y-67295238D01*
X69738095Y-67276190D01*
X69700000Y-67238095D01*
X69680952Y-67180952D01*
X69680952Y-67142857D01*
X69700000Y-67085714D01*
X69719047Y-67066666D01*
X69814285Y-66723809D02*
X70080952Y-66723809D01*
X69661904Y-66819047D02*
X69947619Y-66914285D01*
X69947619Y-66666666D01*
X59242857Y-57066666D02*
X59261904Y-57085714D01*
X59280952Y-57142857D01*
X59280952Y-57180952D01*
X59261904Y-57238095D01*
X59223809Y-57276190D01*
X59185714Y-57295238D01*
X59109523Y-57314285D01*
X59052380Y-57314285D01*
X58976190Y-57295238D01*
X58938095Y-57276190D01*
X58900000Y-57238095D01*
X58880952Y-57180952D01*
X58880952Y-57142857D01*
X58900000Y-57085714D01*
X58919047Y-57066666D01*
X58880952Y-56933333D02*
X58880952Y-56685714D01*
X59033333Y-56819047D01*
X59033333Y-56761904D01*
X59052380Y-56723809D01*
X59071428Y-56704761D01*
X59109523Y-56685714D01*
X59204761Y-56685714D01*
X59242857Y-56704761D01*
X59261904Y-56723809D01*
X59280952Y-56761904D01*
X59280952Y-56876190D01*
X59261904Y-56914285D01*
X59242857Y-56933333D01*
X74642857Y-48416666D02*
X74661904Y-48435714D01*
X74680952Y-48492857D01*
X74680952Y-48530952D01*
X74661904Y-48588095D01*
X74623809Y-48626190D01*
X74585714Y-48645238D01*
X74509523Y-48664285D01*
X74452380Y-48664285D01*
X74376190Y-48645238D01*
X74338095Y-48626190D01*
X74300000Y-48588095D01*
X74280952Y-48530952D01*
X74280952Y-48492857D01*
X74300000Y-48435714D01*
X74319047Y-48416666D01*
X74319047Y-48264285D02*
X74300000Y-48245238D01*
X74280952Y-48207142D01*
X74280952Y-48111904D01*
X74300000Y-48073809D01*
X74319047Y-48054761D01*
X74357142Y-48035714D01*
X74395238Y-48035714D01*
X74452380Y-48054761D01*
X74680952Y-48283333D01*
X74680952Y-48035714D01*
X60892857Y-59416666D02*
X60911904Y-59435714D01*
X60930952Y-59492857D01*
X60930952Y-59530952D01*
X60911904Y-59588095D01*
X60873809Y-59626190D01*
X60835714Y-59645238D01*
X60759523Y-59664285D01*
X60702380Y-59664285D01*
X60626190Y-59645238D01*
X60588095Y-59626190D01*
X60550000Y-59588095D01*
X60530952Y-59530952D01*
X60530952Y-59492857D01*
X60550000Y-59435714D01*
X60569047Y-59416666D01*
X60930952Y-59035714D02*
X60930952Y-59264285D01*
X60930952Y-59150000D02*
X60530952Y-59150000D01*
X60588095Y-59188095D01*
X60626190Y-59226190D01*
X60645238Y-59264285D01*
M02*
