%TF.GenerationSoftware,KiCad,Pcbnew,5.1.9-73d0e3b20d~88~ubuntu20.04.1*%
%TF.CreationDate,2020-12-31T12:36:01-05:00*%
%TF.ProjectId,OV_Power,4f565f50-6f77-4657-922e-6b696361645f,3.A*%
%TF.SameCoordinates,Original*%
%TF.FileFunction,Copper,L2,Bot*%
%TF.FilePolarity,Positive*%
%FSLAX46Y46*%
G04 Gerber Fmt 4.6, Leading zero omitted, Abs format (unit mm)*
G04 Created by KiCad (PCBNEW 5.1.9-73d0e3b20d~88~ubuntu20.04.1) date 2020-12-31 12:36:01*
%MOMM*%
%LPD*%
G01*
G04 APERTURE LIST*
%ADD10C,0.100000*%
%ADD11C,0.150000*%
%ADD12C,0.300000*%
%ADD13C,0.400000*%
%TA.AperFunction,NonConductor*%
%ADD14C,0.001000*%
%TD*%
%TA.AperFunction,ComponentPad*%
%ADD15C,2.100000*%
%TD*%
%TA.AperFunction,ComponentPad*%
%ADD16O,1.740000X2.190000*%
%TD*%
%TA.AperFunction,ComponentPad*%
%ADD17C,3.200000*%
%TD*%
%TA.AperFunction,ComponentPad*%
%ADD18O,1.200000X3.300000*%
%TD*%
%TA.AperFunction,ComponentPad*%
%ADD19O,2.800000X1.600000*%
%TD*%
%TA.AperFunction,ComponentPad*%
%ADD20C,1.900000*%
%TD*%
%TA.AperFunction,ComponentPad*%
%ADD21O,1.200000X1.800000*%
%TD*%
%TA.AperFunction,ComponentPad*%
%ADD22O,1.700000X1.700000*%
%TD*%
%TA.AperFunction,ComponentPad*%
%ADD23R,1.700000X1.700000*%
%TD*%
%TA.AperFunction,ComponentPad*%
%ADD24C,1.600200*%
%TD*%
%TA.AperFunction,ViaPad*%
%ADD25C,1.500000*%
%TD*%
%TA.AperFunction,ViaPad*%
%ADD26C,1.000000*%
%TD*%
%TA.AperFunction,ViaPad*%
%ADD27C,0.800000*%
%TD*%
%TA.AperFunction,Conductor*%
%ADD28C,0.750000*%
%TD*%
%TA.AperFunction,Conductor*%
%ADD29C,0.208000*%
%TD*%
%TA.AperFunction,Conductor*%
%ADD30C,0.500000*%
%TD*%
%TA.AperFunction,Conductor*%
%ADD31C,0.254000*%
%TD*%
%TA.AperFunction,Conductor*%
%ADD32C,0.100000*%
%TD*%
G04 APERTURE END LIST*
D10*
D11*
X177002200Y-166007200D02*
X177002200Y-198007200D01*
X285002200Y-198007200D01*
X285002200Y-166007200D01*
X177002200Y-166007200D01*
D10*
D11*
X10000000Y-10000000D02*
X10000000Y-200007200D01*
X287002200Y-200007200D01*
X287002200Y-10000000D01*
X10000000Y-10000000D01*
D10*
D11*
X12000000Y-12000000D02*
X12000000Y-198007200D01*
X285002200Y-198007200D01*
X285002200Y-12000000D01*
X12000000Y-12000000D01*
D10*
D11*
X60000000Y-12000000D02*
X60000000Y-10000000D01*
D10*
D11*
X110000000Y-12000000D02*
X110000000Y-10000000D01*
D10*
D11*
X160000000Y-12000000D02*
X160000000Y-10000000D01*
D10*
D11*
X210000000Y-12000000D02*
X210000000Y-10000000D01*
D10*
D11*
X260000000Y-12000000D02*
X260000000Y-10000000D01*
D10*
D11*
X36065476Y-11588095D02*
X35322619Y-11588095D01*
X35694047Y-11588095D02*
X35694047Y-10288095D01*
X35570238Y-10473809D01*
X35446428Y-10597619D01*
X35322619Y-10659523D01*
D10*
D11*
X85322619Y-10411904D02*
X85384523Y-10350000D01*
X85508333Y-10288095D01*
X85817857Y-10288095D01*
X85941666Y-10350000D01*
X86003571Y-10411904D01*
X86065476Y-10535714D01*
X86065476Y-10659523D01*
X86003571Y-10845238D01*
X85260714Y-11588095D01*
X86065476Y-11588095D01*
D10*
D11*
X135260714Y-10288095D02*
X136065476Y-10288095D01*
X135632142Y-10783333D01*
X135817857Y-10783333D01*
X135941666Y-10845238D01*
X136003571Y-10907142D01*
X136065476Y-11030952D01*
X136065476Y-11340476D01*
X136003571Y-11464285D01*
X135941666Y-11526190D01*
X135817857Y-11588095D01*
X135446428Y-11588095D01*
X135322619Y-11526190D01*
X135260714Y-11464285D01*
D10*
D11*
X185941666Y-10721428D02*
X185941666Y-11588095D01*
X185632142Y-10226190D02*
X185322619Y-11154761D01*
X186127380Y-11154761D01*
D10*
D11*
X236003571Y-10288095D02*
X235384523Y-10288095D01*
X235322619Y-10907142D01*
X235384523Y-10845238D01*
X235508333Y-10783333D01*
X235817857Y-10783333D01*
X235941666Y-10845238D01*
X236003571Y-10907142D01*
X236065476Y-11030952D01*
X236065476Y-11340476D01*
X236003571Y-11464285D01*
X235941666Y-11526190D01*
X235817857Y-11588095D01*
X235508333Y-11588095D01*
X235384523Y-11526190D01*
X235322619Y-11464285D01*
D10*
D11*
X285941666Y-10288095D02*
X285694047Y-10288095D01*
X285570238Y-10350000D01*
X285508333Y-10411904D01*
X285384523Y-10597619D01*
X285322619Y-10845238D01*
X285322619Y-11340476D01*
X285384523Y-11464285D01*
X285446428Y-11526190D01*
X285570238Y-11588095D01*
X285817857Y-11588095D01*
X285941666Y-11526190D01*
X286003571Y-11464285D01*
X286065476Y-11340476D01*
X286065476Y-11030952D01*
X286003571Y-10907142D01*
X285941666Y-10845238D01*
X285817857Y-10783333D01*
X285570238Y-10783333D01*
X285446428Y-10845238D01*
X285384523Y-10907142D01*
X285322619Y-11030952D01*
D10*
D11*
X60000000Y-198007200D02*
X60000000Y-200007200D01*
D10*
D11*
X110000000Y-198007200D02*
X110000000Y-200007200D01*
D10*
D11*
X160000000Y-198007200D02*
X160000000Y-200007200D01*
D10*
D11*
X210000000Y-198007200D02*
X210000000Y-200007200D01*
D10*
D11*
X260000000Y-198007200D02*
X260000000Y-200007200D01*
D10*
D11*
X36065476Y-199595295D02*
X35322619Y-199595295D01*
X35694047Y-199595295D02*
X35694047Y-198295295D01*
X35570238Y-198481009D01*
X35446428Y-198604819D01*
X35322619Y-198666723D01*
D10*
D11*
X85322619Y-198419104D02*
X85384523Y-198357200D01*
X85508333Y-198295295D01*
X85817857Y-198295295D01*
X85941666Y-198357200D01*
X86003571Y-198419104D01*
X86065476Y-198542914D01*
X86065476Y-198666723D01*
X86003571Y-198852438D01*
X85260714Y-199595295D01*
X86065476Y-199595295D01*
D10*
D11*
X135260714Y-198295295D02*
X136065476Y-198295295D01*
X135632142Y-198790533D01*
X135817857Y-198790533D01*
X135941666Y-198852438D01*
X136003571Y-198914342D01*
X136065476Y-199038152D01*
X136065476Y-199347676D01*
X136003571Y-199471485D01*
X135941666Y-199533390D01*
X135817857Y-199595295D01*
X135446428Y-199595295D01*
X135322619Y-199533390D01*
X135260714Y-199471485D01*
D10*
D11*
X185941666Y-198728628D02*
X185941666Y-199595295D01*
X185632142Y-198233390D02*
X185322619Y-199161961D01*
X186127380Y-199161961D01*
D10*
D11*
X236003571Y-198295295D02*
X235384523Y-198295295D01*
X235322619Y-198914342D01*
X235384523Y-198852438D01*
X235508333Y-198790533D01*
X235817857Y-198790533D01*
X235941666Y-198852438D01*
X236003571Y-198914342D01*
X236065476Y-199038152D01*
X236065476Y-199347676D01*
X236003571Y-199471485D01*
X235941666Y-199533390D01*
X235817857Y-199595295D01*
X235508333Y-199595295D01*
X235384523Y-199533390D01*
X235322619Y-199471485D01*
D10*
D11*
X285941666Y-198295295D02*
X285694047Y-198295295D01*
X285570238Y-198357200D01*
X285508333Y-198419104D01*
X285384523Y-198604819D01*
X285322619Y-198852438D01*
X285322619Y-199347676D01*
X285384523Y-199471485D01*
X285446428Y-199533390D01*
X285570238Y-199595295D01*
X285817857Y-199595295D01*
X285941666Y-199533390D01*
X286003571Y-199471485D01*
X286065476Y-199347676D01*
X286065476Y-199038152D01*
X286003571Y-198914342D01*
X285941666Y-198852438D01*
X285817857Y-198790533D01*
X285570238Y-198790533D01*
X285446428Y-198852438D01*
X285384523Y-198914342D01*
X285322619Y-199038152D01*
D10*
D11*
X10000000Y-60000000D02*
X12000000Y-60000000D01*
D10*
D11*
X10000000Y-110000000D02*
X12000000Y-110000000D01*
D10*
D11*
X10000000Y-160000000D02*
X12000000Y-160000000D01*
D10*
D11*
X10690476Y-35216666D02*
X11309523Y-35216666D01*
X10566666Y-35588095D02*
X11000000Y-34288095D01*
X11433333Y-35588095D01*
D10*
D11*
X11092857Y-84907142D02*
X11278571Y-84969047D01*
X11340476Y-85030952D01*
X11402380Y-85154761D01*
X11402380Y-85340476D01*
X11340476Y-85464285D01*
X11278571Y-85526190D01*
X11154761Y-85588095D01*
X10659523Y-85588095D01*
X10659523Y-84288095D01*
X11092857Y-84288095D01*
X11216666Y-84350000D01*
X11278571Y-84411904D01*
X11340476Y-84535714D01*
X11340476Y-84659523D01*
X11278571Y-84783333D01*
X11216666Y-84845238D01*
X11092857Y-84907142D01*
X10659523Y-84907142D01*
D10*
D11*
X11402380Y-135464285D02*
X11340476Y-135526190D01*
X11154761Y-135588095D01*
X11030952Y-135588095D01*
X10845238Y-135526190D01*
X10721428Y-135402380D01*
X10659523Y-135278571D01*
X10597619Y-135030952D01*
X10597619Y-134845238D01*
X10659523Y-134597619D01*
X10721428Y-134473809D01*
X10845238Y-134350000D01*
X11030952Y-134288095D01*
X11154761Y-134288095D01*
X11340476Y-134350000D01*
X11402380Y-134411904D01*
D10*
D11*
X10659523Y-185588095D02*
X10659523Y-184288095D01*
X10969047Y-184288095D01*
X11154761Y-184350000D01*
X11278571Y-184473809D01*
X11340476Y-184597619D01*
X11402380Y-184845238D01*
X11402380Y-185030952D01*
X11340476Y-185278571D01*
X11278571Y-185402380D01*
X11154761Y-185526190D01*
X10969047Y-185588095D01*
X10659523Y-185588095D01*
D10*
D11*
X287002200Y-60000000D02*
X285002200Y-60000000D01*
D10*
D11*
X287002200Y-110000000D02*
X285002200Y-110000000D01*
D10*
D11*
X287002200Y-160000000D02*
X285002200Y-160000000D01*
D10*
D11*
X285692676Y-35216666D02*
X286311723Y-35216666D01*
X285568866Y-35588095D02*
X286002200Y-34288095D01*
X286435533Y-35588095D01*
D10*
D11*
X286095057Y-84907142D02*
X286280771Y-84969047D01*
X286342676Y-85030952D01*
X286404580Y-85154761D01*
X286404580Y-85340476D01*
X286342676Y-85464285D01*
X286280771Y-85526190D01*
X286156961Y-85588095D01*
X285661723Y-85588095D01*
X285661723Y-84288095D01*
X286095057Y-84288095D01*
X286218866Y-84350000D01*
X286280771Y-84411904D01*
X286342676Y-84535714D01*
X286342676Y-84659523D01*
X286280771Y-84783333D01*
X286218866Y-84845238D01*
X286095057Y-84907142D01*
X285661723Y-84907142D01*
D10*
D11*
X286404580Y-135464285D02*
X286342676Y-135526190D01*
X286156961Y-135588095D01*
X286033152Y-135588095D01*
X285847438Y-135526190D01*
X285723628Y-135402380D01*
X285661723Y-135278571D01*
X285599819Y-135030952D01*
X285599819Y-134845238D01*
X285661723Y-134597619D01*
X285723628Y-134473809D01*
X285847438Y-134350000D01*
X286033152Y-134288095D01*
X286156961Y-134288095D01*
X286342676Y-134350000D01*
X286404580Y-134411904D01*
D10*
D11*
X285661723Y-185588095D02*
X285661723Y-184288095D01*
X285971247Y-184288095D01*
X286156961Y-184350000D01*
X286280771Y-184473809D01*
X286342676Y-184597619D01*
X286404580Y-184845238D01*
X286404580Y-185030952D01*
X286342676Y-185278571D01*
X286280771Y-185402380D01*
X286156961Y-185526190D01*
X285971247Y-185588095D01*
X285661723Y-185588095D01*
D10*
D11*
X200434342Y-193785771D02*
X200434342Y-192285771D01*
X200791485Y-192285771D01*
X201005771Y-192357200D01*
X201148628Y-192500057D01*
X201220057Y-192642914D01*
X201291485Y-192928628D01*
X201291485Y-193142914D01*
X201220057Y-193428628D01*
X201148628Y-193571485D01*
X201005771Y-193714342D01*
X200791485Y-193785771D01*
X200434342Y-193785771D01*
X202577200Y-193785771D02*
X202577200Y-193000057D01*
X202505771Y-192857200D01*
X202362914Y-192785771D01*
X202077200Y-192785771D01*
X201934342Y-192857200D01*
X202577200Y-193714342D02*
X202434342Y-193785771D01*
X202077200Y-193785771D01*
X201934342Y-193714342D01*
X201862914Y-193571485D01*
X201862914Y-193428628D01*
X201934342Y-193285771D01*
X202077200Y-193214342D01*
X202434342Y-193214342D01*
X202577200Y-193142914D01*
X203077200Y-192785771D02*
X203648628Y-192785771D01*
X203291485Y-192285771D02*
X203291485Y-193571485D01*
X203362914Y-193714342D01*
X203505771Y-193785771D01*
X203648628Y-193785771D01*
X204720057Y-193714342D02*
X204577200Y-193785771D01*
X204291485Y-193785771D01*
X204148628Y-193714342D01*
X204077200Y-193571485D01*
X204077200Y-193000057D01*
X204148628Y-192857200D01*
X204291485Y-192785771D01*
X204577200Y-192785771D01*
X204720057Y-192857200D01*
X204791485Y-193000057D01*
X204791485Y-193142914D01*
X204077200Y-193285771D01*
X205434342Y-193642914D02*
X205505771Y-193714342D01*
X205434342Y-193785771D01*
X205362914Y-193714342D01*
X205434342Y-193642914D01*
X205434342Y-193785771D01*
X205434342Y-192857200D02*
X205505771Y-192928628D01*
X205434342Y-193000057D01*
X205362914Y-192928628D01*
X205434342Y-192857200D01*
X205434342Y-193000057D01*
X207220057Y-192428628D02*
X207291485Y-192357200D01*
X207434342Y-192285771D01*
X207791485Y-192285771D01*
X207934342Y-192357200D01*
X208005771Y-192428628D01*
X208077200Y-192571485D01*
X208077200Y-192714342D01*
X208005771Y-192928628D01*
X207148628Y-193785771D01*
X208077200Y-193785771D01*
X209005771Y-192285771D02*
X209148628Y-192285771D01*
X209291485Y-192357200D01*
X209362914Y-192428628D01*
X209434342Y-192571485D01*
X209505771Y-192857200D01*
X209505771Y-193214342D01*
X209434342Y-193500057D01*
X209362914Y-193642914D01*
X209291485Y-193714342D01*
X209148628Y-193785771D01*
X209005771Y-193785771D01*
X208862914Y-193714342D01*
X208791485Y-193642914D01*
X208720057Y-193500057D01*
X208648628Y-193214342D01*
X208648628Y-192857200D01*
X208720057Y-192571485D01*
X208791485Y-192428628D01*
X208862914Y-192357200D01*
X209005771Y-192285771D01*
X210077200Y-192428628D02*
X210148628Y-192357200D01*
X210291485Y-192285771D01*
X210648628Y-192285771D01*
X210791485Y-192357200D01*
X210862914Y-192428628D01*
X210934342Y-192571485D01*
X210934342Y-192714342D01*
X210862914Y-192928628D01*
X210005771Y-193785771D01*
X210934342Y-193785771D01*
X211862914Y-192285771D02*
X212005771Y-192285771D01*
X212148628Y-192357200D01*
X212220057Y-192428628D01*
X212291485Y-192571485D01*
X212362914Y-192857200D01*
X212362914Y-193214342D01*
X212291485Y-193500057D01*
X212220057Y-193642914D01*
X212148628Y-193714342D01*
X212005771Y-193785771D01*
X211862914Y-193785771D01*
X211720057Y-193714342D01*
X211648628Y-193642914D01*
X211577200Y-193500057D01*
X211505771Y-193214342D01*
X211505771Y-192857200D01*
X211577200Y-192571485D01*
X211648628Y-192428628D01*
X211720057Y-192357200D01*
X211862914Y-192285771D01*
X213005771Y-193214342D02*
X214148628Y-193214342D01*
X215648628Y-193785771D02*
X214791485Y-193785771D01*
X215220057Y-193785771D02*
X215220057Y-192285771D01*
X215077200Y-192500057D01*
X214934342Y-192642914D01*
X214791485Y-192714342D01*
X216220057Y-192428628D02*
X216291485Y-192357200D01*
X216434342Y-192285771D01*
X216791485Y-192285771D01*
X216934342Y-192357200D01*
X217005771Y-192428628D01*
X217077200Y-192571485D01*
X217077200Y-192714342D01*
X217005771Y-192928628D01*
X216148628Y-193785771D01*
X217077200Y-193785771D01*
X217720057Y-193214342D02*
X218862914Y-193214342D01*
X219434342Y-192285771D02*
X220362914Y-192285771D01*
X219862914Y-192857200D01*
X220077200Y-192857200D01*
X220220057Y-192928628D01*
X220291485Y-193000057D01*
X220362914Y-193142914D01*
X220362914Y-193500057D01*
X220291485Y-193642914D01*
X220220057Y-193714342D01*
X220077200Y-193785771D01*
X219648628Y-193785771D01*
X219505771Y-193714342D01*
X219434342Y-193642914D01*
X221791485Y-193785771D02*
X220934342Y-193785771D01*
X221362914Y-193785771D02*
X221362914Y-192285771D01*
X221220057Y-192500057D01*
X221077200Y-192642914D01*
X220934342Y-192714342D01*
D10*
D11*
X177002200Y-194507200D02*
X285002200Y-194507200D01*
D10*
D11*
X178434342Y-196585771D02*
X178434342Y-195085771D01*
X179291485Y-196585771D02*
X178648628Y-195728628D01*
X179291485Y-195085771D02*
X178434342Y-195942914D01*
X179934342Y-196585771D02*
X179934342Y-195585771D01*
X179934342Y-195085771D02*
X179862914Y-195157200D01*
X179934342Y-195228628D01*
X180005771Y-195157200D01*
X179934342Y-195085771D01*
X179934342Y-195228628D01*
X181505771Y-196442914D02*
X181434342Y-196514342D01*
X181220057Y-196585771D01*
X181077200Y-196585771D01*
X180862914Y-196514342D01*
X180720057Y-196371485D01*
X180648628Y-196228628D01*
X180577200Y-195942914D01*
X180577200Y-195728628D01*
X180648628Y-195442914D01*
X180720057Y-195300057D01*
X180862914Y-195157200D01*
X181077200Y-195085771D01*
X181220057Y-195085771D01*
X181434342Y-195157200D01*
X181505771Y-195228628D01*
X182791485Y-196585771D02*
X182791485Y-195800057D01*
X182720057Y-195657200D01*
X182577200Y-195585771D01*
X182291485Y-195585771D01*
X182148628Y-195657200D01*
X182791485Y-196514342D02*
X182648628Y-196585771D01*
X182291485Y-196585771D01*
X182148628Y-196514342D01*
X182077200Y-196371485D01*
X182077200Y-196228628D01*
X182148628Y-196085771D01*
X182291485Y-196014342D01*
X182648628Y-196014342D01*
X182791485Y-195942914D01*
X184148628Y-196585771D02*
X184148628Y-195085771D01*
X184148628Y-196514342D02*
X184005771Y-196585771D01*
X183720057Y-196585771D01*
X183577200Y-196514342D01*
X183505771Y-196442914D01*
X183434342Y-196300057D01*
X183434342Y-195871485D01*
X183505771Y-195728628D01*
X183577200Y-195657200D01*
X183720057Y-195585771D01*
X184005771Y-195585771D01*
X184148628Y-195657200D01*
X186005771Y-195800057D02*
X186505771Y-195800057D01*
X186720057Y-196585771D02*
X186005771Y-196585771D01*
X186005771Y-195085771D01*
X186720057Y-195085771D01*
X187362914Y-196442914D02*
X187434342Y-196514342D01*
X187362914Y-196585771D01*
X187291485Y-196514342D01*
X187362914Y-196442914D01*
X187362914Y-196585771D01*
X188077200Y-196585771D02*
X188077200Y-195085771D01*
X188434342Y-195085771D01*
X188648628Y-195157200D01*
X188791485Y-195300057D01*
X188862914Y-195442914D01*
X188934342Y-195728628D01*
X188934342Y-195942914D01*
X188862914Y-196228628D01*
X188791485Y-196371485D01*
X188648628Y-196514342D01*
X188434342Y-196585771D01*
X188077200Y-196585771D01*
X189577200Y-196442914D02*
X189648628Y-196514342D01*
X189577200Y-196585771D01*
X189505771Y-196514342D01*
X189577200Y-196442914D01*
X189577200Y-196585771D01*
X190220057Y-196157200D02*
X190934342Y-196157200D01*
X190077200Y-196585771D02*
X190577200Y-195085771D01*
X191077200Y-196585771D01*
X191577200Y-196442914D02*
X191648628Y-196514342D01*
X191577200Y-196585771D01*
X191505771Y-196514342D01*
X191577200Y-196442914D01*
X191577200Y-196585771D01*
X194577200Y-196585771D02*
X194577200Y-195085771D01*
X194720057Y-196014342D02*
X195148628Y-196585771D01*
X195148628Y-195585771D02*
X194577200Y-196157200D01*
X195791485Y-196585771D02*
X195791485Y-195585771D01*
X195791485Y-195085771D02*
X195720057Y-195157200D01*
X195791485Y-195228628D01*
X195862914Y-195157200D01*
X195791485Y-195085771D01*
X195791485Y-195228628D01*
X197148628Y-196514342D02*
X197005771Y-196585771D01*
X196720057Y-196585771D01*
X196577200Y-196514342D01*
X196505771Y-196442914D01*
X196434342Y-196300057D01*
X196434342Y-195871485D01*
X196505771Y-195728628D01*
X196577200Y-195657200D01*
X196720057Y-195585771D01*
X197005771Y-195585771D01*
X197148628Y-195657200D01*
X198434342Y-196585771D02*
X198434342Y-195800057D01*
X198362914Y-195657200D01*
X198220057Y-195585771D01*
X197934342Y-195585771D01*
X197791485Y-195657200D01*
X198434342Y-196514342D02*
X198291485Y-196585771D01*
X197934342Y-196585771D01*
X197791485Y-196514342D01*
X197720057Y-196371485D01*
X197720057Y-196228628D01*
X197791485Y-196085771D01*
X197934342Y-196014342D01*
X198291485Y-196014342D01*
X198434342Y-195942914D01*
X199791485Y-196585771D02*
X199791485Y-195085771D01*
X199791485Y-196514342D02*
X199648628Y-196585771D01*
X199362914Y-196585771D01*
X199220057Y-196514342D01*
X199148628Y-196442914D01*
X199077200Y-196300057D01*
X199077200Y-195871485D01*
X199148628Y-195728628D01*
X199220057Y-195657200D01*
X199362914Y-195585771D01*
X199648628Y-195585771D01*
X199791485Y-195657200D01*
X202362914Y-195085771D02*
X201648628Y-195085771D01*
X201577200Y-195800057D01*
X201648628Y-195728628D01*
X201791485Y-195657200D01*
X202148628Y-195657200D01*
X202291485Y-195728628D01*
X202362914Y-195800057D01*
X202434342Y-195942914D01*
X202434342Y-196300057D01*
X202362914Y-196442914D01*
X202291485Y-196514342D01*
X202148628Y-196585771D01*
X201791485Y-196585771D01*
X201648628Y-196514342D01*
X201577200Y-196442914D01*
X203077200Y-196442914D02*
X203148628Y-196514342D01*
X203077200Y-196585771D01*
X203005771Y-196514342D01*
X203077200Y-196442914D01*
X203077200Y-196585771D01*
X204577200Y-196585771D02*
X203720057Y-196585771D01*
X204148628Y-196585771D02*
X204148628Y-195085771D01*
X204005771Y-195300057D01*
X203862914Y-195442914D01*
X203720057Y-195514342D01*
X205220057Y-196442914D02*
X205291485Y-196514342D01*
X205220057Y-196585771D01*
X205148628Y-196514342D01*
X205220057Y-196442914D01*
X205220057Y-196585771D01*
X206005771Y-196585771D02*
X206291485Y-196585771D01*
X206434342Y-196514342D01*
X206505771Y-196442914D01*
X206648628Y-196228628D01*
X206720057Y-195942914D01*
X206720057Y-195371485D01*
X206648628Y-195228628D01*
X206577200Y-195157200D01*
X206434342Y-195085771D01*
X206148628Y-195085771D01*
X206005771Y-195157200D01*
X205934342Y-195228628D01*
X205862914Y-195371485D01*
X205862914Y-195728628D01*
X205934342Y-195871485D01*
X206005771Y-195942914D01*
X206148628Y-196014342D01*
X206434342Y-196014342D01*
X206577200Y-195942914D01*
X206648628Y-195871485D01*
X206720057Y-195728628D01*
X207362914Y-196014342D02*
X208505771Y-196014342D01*
X209077200Y-195085771D02*
X210077200Y-195085771D01*
X209434342Y-196585771D01*
X210505771Y-195085771D02*
X211434342Y-195085771D01*
X210934342Y-195657200D01*
X211148628Y-195657200D01*
X211291485Y-195728628D01*
X211362914Y-195800057D01*
X211434342Y-195942914D01*
X211434342Y-196300057D01*
X211362914Y-196442914D01*
X211291485Y-196514342D01*
X211148628Y-196585771D01*
X210720057Y-196585771D01*
X210577200Y-196514342D01*
X210505771Y-196442914D01*
X212720057Y-196585771D02*
X212720057Y-195085771D01*
X212720057Y-196514342D02*
X212577200Y-196585771D01*
X212291485Y-196585771D01*
X212148628Y-196514342D01*
X212077200Y-196442914D01*
X212005771Y-196300057D01*
X212005771Y-195871485D01*
X212077200Y-195728628D01*
X212148628Y-195657200D01*
X212291485Y-195585771D01*
X212577200Y-195585771D01*
X212720057Y-195657200D01*
X213720057Y-195085771D02*
X213862914Y-195085771D01*
X214005771Y-195157200D01*
X214077200Y-195228628D01*
X214148628Y-195371485D01*
X214220057Y-195657200D01*
X214220057Y-196014342D01*
X214148628Y-196300057D01*
X214077200Y-196442914D01*
X214005771Y-196514342D01*
X213862914Y-196585771D01*
X213720057Y-196585771D01*
X213577200Y-196514342D01*
X213505771Y-196442914D01*
X213434342Y-196300057D01*
X213362914Y-196014342D01*
X213362914Y-195657200D01*
X213434342Y-195371485D01*
X213505771Y-195228628D01*
X213577200Y-195157200D01*
X213720057Y-195085771D01*
X215434342Y-196514342D02*
X215291485Y-196585771D01*
X215005771Y-196585771D01*
X214862914Y-196514342D01*
X214791485Y-196371485D01*
X214791485Y-195800057D01*
X214862914Y-195657200D01*
X215005771Y-195585771D01*
X215291485Y-195585771D01*
X215434342Y-195657200D01*
X215505771Y-195800057D01*
X215505771Y-195942914D01*
X214791485Y-196085771D01*
X216005771Y-195085771D02*
X216934342Y-195085771D01*
X216434342Y-195657200D01*
X216648628Y-195657200D01*
X216791485Y-195728628D01*
X216862914Y-195800057D01*
X216934342Y-195942914D01*
X216934342Y-196300057D01*
X216862914Y-196442914D01*
X216791485Y-196514342D01*
X216648628Y-196585771D01*
X216220057Y-196585771D01*
X216077200Y-196514342D01*
X216005771Y-196442914D01*
X217577200Y-196585771D02*
X217577200Y-195085771D01*
X217577200Y-195657200D02*
X217720057Y-195585771D01*
X218005771Y-195585771D01*
X218148628Y-195657200D01*
X218220057Y-195728628D01*
X218291485Y-195871485D01*
X218291485Y-196300057D01*
X218220057Y-196442914D01*
X218148628Y-196514342D01*
X218005771Y-196585771D01*
X217720057Y-196585771D01*
X217577200Y-196514342D01*
X218862914Y-195228628D02*
X218934342Y-195157200D01*
X219077200Y-195085771D01*
X219434342Y-195085771D01*
X219577200Y-195157200D01*
X219648628Y-195228628D01*
X219720057Y-195371485D01*
X219720057Y-195514342D01*
X219648628Y-195728628D01*
X218791485Y-196585771D01*
X219720057Y-196585771D01*
X220648628Y-195085771D02*
X220791485Y-195085771D01*
X220934342Y-195157200D01*
X221005771Y-195228628D01*
X221077200Y-195371485D01*
X221148628Y-195657200D01*
X221148628Y-196014342D01*
X221077200Y-196300057D01*
X221005771Y-196442914D01*
X220934342Y-196514342D01*
X220791485Y-196585771D01*
X220648628Y-196585771D01*
X220505771Y-196514342D01*
X220434342Y-196442914D01*
X220362914Y-196300057D01*
X220291485Y-196014342D01*
X220291485Y-195657200D01*
X220362914Y-195371485D01*
X220434342Y-195228628D01*
X220505771Y-195157200D01*
X220648628Y-195085771D01*
X222434342Y-196585771D02*
X222434342Y-195085771D01*
X222434342Y-196514342D02*
X222291485Y-196585771D01*
X222005771Y-196585771D01*
X221862914Y-196514342D01*
X221791485Y-196442914D01*
X221720057Y-196300057D01*
X221720057Y-195871485D01*
X221791485Y-195728628D01*
X221862914Y-195657200D01*
X222005771Y-195585771D01*
X222291485Y-195585771D01*
X222434342Y-195657200D01*
X222791485Y-194677200D02*
X224220057Y-194677200D01*
X223362914Y-195728628D02*
X223220057Y-195657200D01*
X223148628Y-195585771D01*
X223077200Y-195442914D01*
X223077200Y-195371485D01*
X223148628Y-195228628D01*
X223220057Y-195157200D01*
X223362914Y-195085771D01*
X223648628Y-195085771D01*
X223791485Y-195157200D01*
X223862914Y-195228628D01*
X223934342Y-195371485D01*
X223934342Y-195442914D01*
X223862914Y-195585771D01*
X223791485Y-195657200D01*
X223648628Y-195728628D01*
X223362914Y-195728628D01*
X223220057Y-195800057D01*
X223148628Y-195871485D01*
X223077200Y-196014342D01*
X223077200Y-196300057D01*
X223148628Y-196442914D01*
X223220057Y-196514342D01*
X223362914Y-196585771D01*
X223648628Y-196585771D01*
X223791485Y-196514342D01*
X223862914Y-196442914D01*
X223934342Y-196300057D01*
X223934342Y-196014342D01*
X223862914Y-195871485D01*
X223791485Y-195800057D01*
X223648628Y-195728628D01*
X224220057Y-194677200D02*
X225648628Y-194677200D01*
X224791485Y-195728628D02*
X224648628Y-195657200D01*
X224577200Y-195585771D01*
X224505771Y-195442914D01*
X224505771Y-195371485D01*
X224577200Y-195228628D01*
X224648628Y-195157200D01*
X224791485Y-195085771D01*
X225077200Y-195085771D01*
X225220057Y-195157200D01*
X225291485Y-195228628D01*
X225362914Y-195371485D01*
X225362914Y-195442914D01*
X225291485Y-195585771D01*
X225220057Y-195657200D01*
X225077200Y-195728628D01*
X224791485Y-195728628D01*
X224648628Y-195800057D01*
X224577200Y-195871485D01*
X224505771Y-196014342D01*
X224505771Y-196300057D01*
X224577200Y-196442914D01*
X224648628Y-196514342D01*
X224791485Y-196585771D01*
X225077200Y-196585771D01*
X225220057Y-196514342D01*
X225291485Y-196442914D01*
X225362914Y-196300057D01*
X225362914Y-196014342D01*
X225291485Y-195871485D01*
X225220057Y-195800057D01*
X225077200Y-195728628D01*
X226648628Y-195585771D02*
X226648628Y-196585771D01*
X226005771Y-195585771D02*
X226005771Y-196371485D01*
X226077199Y-196514342D01*
X226220057Y-196585771D01*
X226434342Y-196585771D01*
X226577199Y-196514342D01*
X226648628Y-196442914D01*
X227362914Y-196585771D02*
X227362914Y-195085771D01*
X227362914Y-195657200D02*
X227505771Y-195585771D01*
X227791485Y-195585771D01*
X227934342Y-195657200D01*
X228005771Y-195728628D01*
X228077200Y-195871485D01*
X228077200Y-196300057D01*
X228005771Y-196442914D01*
X227934342Y-196514342D01*
X227791485Y-196585771D01*
X227505771Y-196585771D01*
X227362914Y-196514342D01*
X229362914Y-195585771D02*
X229362914Y-196585771D01*
X228720057Y-195585771D02*
X228720057Y-196371485D01*
X228791485Y-196514342D01*
X228934342Y-196585771D01*
X229148628Y-196585771D01*
X229291485Y-196514342D01*
X229362914Y-196442914D01*
X230077200Y-195585771D02*
X230077200Y-196585771D01*
X230077200Y-195728628D02*
X230148628Y-195657200D01*
X230291485Y-195585771D01*
X230505771Y-195585771D01*
X230648628Y-195657200D01*
X230720057Y-195800057D01*
X230720057Y-196585771D01*
X231220057Y-195585771D02*
X231791485Y-195585771D01*
X231434342Y-195085771D02*
X231434342Y-196371485D01*
X231505771Y-196514342D01*
X231648628Y-196585771D01*
X231791485Y-196585771D01*
X232934342Y-195585771D02*
X232934342Y-196585771D01*
X232291485Y-195585771D02*
X232291485Y-196371485D01*
X232362914Y-196514342D01*
X232505771Y-196585771D01*
X232720057Y-196585771D01*
X232862914Y-196514342D01*
X232934342Y-196442914D01*
X233577200Y-195228628D02*
X233648628Y-195157200D01*
X233791485Y-195085771D01*
X234148628Y-195085771D01*
X234291485Y-195157200D01*
X234362914Y-195228628D01*
X234434342Y-195371485D01*
X234434342Y-195514342D01*
X234362914Y-195728628D01*
X233505771Y-196585771D01*
X234434342Y-196585771D01*
X235362914Y-195085771D02*
X235505771Y-195085771D01*
X235648628Y-195157200D01*
X235720057Y-195228628D01*
X235791485Y-195371485D01*
X235862914Y-195657200D01*
X235862914Y-196014342D01*
X235791485Y-196300057D01*
X235720057Y-196442914D01*
X235648628Y-196514342D01*
X235505771Y-196585771D01*
X235362914Y-196585771D01*
X235220057Y-196514342D01*
X235148628Y-196442914D01*
X235077200Y-196300057D01*
X235005771Y-196014342D01*
X235005771Y-195657200D01*
X235077200Y-195371485D01*
X235148628Y-195228628D01*
X235220057Y-195157200D01*
X235362914Y-195085771D01*
X236505771Y-196442914D02*
X236577199Y-196514342D01*
X236505771Y-196585771D01*
X236434342Y-196514342D01*
X236505771Y-196442914D01*
X236505771Y-196585771D01*
X237505771Y-195085771D02*
X237648628Y-195085771D01*
X237791485Y-195157200D01*
X237862914Y-195228628D01*
X237934342Y-195371485D01*
X238005771Y-195657200D01*
X238005771Y-196014342D01*
X237934342Y-196300057D01*
X237862914Y-196442914D01*
X237791485Y-196514342D01*
X237648628Y-196585771D01*
X237505771Y-196585771D01*
X237362914Y-196514342D01*
X237291485Y-196442914D01*
X237220057Y-196300057D01*
X237148628Y-196014342D01*
X237148628Y-195657200D01*
X237220057Y-195371485D01*
X237291485Y-195228628D01*
X237362914Y-195157200D01*
X237505771Y-195085771D01*
X239291485Y-195585771D02*
X239291485Y-196585771D01*
X238934342Y-195014342D02*
X238577199Y-196085771D01*
X239505771Y-196085771D01*
X240077199Y-196442914D02*
X240148628Y-196514342D01*
X240077199Y-196585771D01*
X240005771Y-196514342D01*
X240077199Y-196442914D01*
X240077199Y-196585771D01*
X241577199Y-196585771D02*
X240720057Y-196585771D01*
X241148628Y-196585771D02*
X241148628Y-195085771D01*
X241005771Y-195300057D01*
X240862914Y-195442914D01*
X240720057Y-195514342D01*
D10*
D11*
X177002200Y-191507200D02*
X285002200Y-191507200D01*
D10*
D12*
X264411485Y-193785771D02*
X263911485Y-193071485D01*
X263554342Y-193785771D02*
X263554342Y-192285771D01*
X264125771Y-192285771D01*
X264268628Y-192357200D01*
X264340057Y-192428628D01*
X264411485Y-192571485D01*
X264411485Y-192785771D01*
X264340057Y-192928628D01*
X264268628Y-193000057D01*
X264125771Y-193071485D01*
X263554342Y-193071485D01*
X265625771Y-193714342D02*
X265482914Y-193785771D01*
X265197200Y-193785771D01*
X265054342Y-193714342D01*
X264982914Y-193571485D01*
X264982914Y-193000057D01*
X265054342Y-192857200D01*
X265197200Y-192785771D01*
X265482914Y-192785771D01*
X265625771Y-192857200D01*
X265697200Y-193000057D01*
X265697200Y-193142914D01*
X264982914Y-193285771D01*
X266197200Y-192785771D02*
X266554342Y-193785771D01*
X266911485Y-192785771D01*
X267482914Y-193642914D02*
X267554342Y-193714342D01*
X267482914Y-193785771D01*
X267411485Y-193714342D01*
X267482914Y-193642914D01*
X267482914Y-193785771D01*
X267482914Y-192857200D02*
X267554342Y-192928628D01*
X267482914Y-193000057D01*
X267411485Y-192928628D01*
X267482914Y-192857200D01*
X267482914Y-193000057D01*
X269197200Y-192285771D02*
X270125771Y-192285771D01*
X269625771Y-192857200D01*
X269840057Y-192857200D01*
X269982914Y-192928628D01*
X270054342Y-193000057D01*
X270125771Y-193142914D01*
X270125771Y-193500057D01*
X270054342Y-193642914D01*
X269982914Y-193714342D01*
X269840057Y-193785771D01*
X269411485Y-193785771D01*
X269268628Y-193714342D01*
X269197200Y-193642914D01*
X270768628Y-193642914D02*
X270840057Y-193714342D01*
X270768628Y-193785771D01*
X270697200Y-193714342D01*
X270768628Y-193642914D01*
X270768628Y-193785771D01*
X271411485Y-193357200D02*
X272125771Y-193357200D01*
X271268628Y-193785771D02*
X271768628Y-192285771D01*
X272268628Y-193785771D01*
D10*
D11*
X178362914Y-193714342D02*
X178577200Y-193785771D01*
X178934342Y-193785771D01*
X179077200Y-193714342D01*
X179148628Y-193642914D01*
X179220057Y-193500057D01*
X179220057Y-193357200D01*
X179148628Y-193214342D01*
X179077200Y-193142914D01*
X178934342Y-193071485D01*
X178648628Y-193000057D01*
X178505771Y-192928628D01*
X178434342Y-192857200D01*
X178362914Y-192714342D01*
X178362914Y-192571485D01*
X178434342Y-192428628D01*
X178505771Y-192357200D01*
X178648628Y-192285771D01*
X179005771Y-192285771D01*
X179220057Y-192357200D01*
X179862914Y-193785771D02*
X179862914Y-192785771D01*
X179862914Y-192285771D02*
X179791485Y-192357200D01*
X179862914Y-192428628D01*
X179934342Y-192357200D01*
X179862914Y-192285771D01*
X179862914Y-192428628D01*
X180434342Y-192785771D02*
X181220057Y-192785771D01*
X180434342Y-193785771D01*
X181220057Y-193785771D01*
X182362914Y-193714342D02*
X182220057Y-193785771D01*
X181934342Y-193785771D01*
X181791485Y-193714342D01*
X181720057Y-193571485D01*
X181720057Y-193000057D01*
X181791485Y-192857200D01*
X181934342Y-192785771D01*
X182220057Y-192785771D01*
X182362914Y-192857200D01*
X182434342Y-193000057D01*
X182434342Y-193142914D01*
X181720057Y-193285771D01*
X183077200Y-193642914D02*
X183148628Y-193714342D01*
X183077200Y-193785771D01*
X183005771Y-193714342D01*
X183077200Y-193642914D01*
X183077200Y-193785771D01*
X183077200Y-192857200D02*
X183148628Y-192928628D01*
X183077200Y-193000057D01*
X183005771Y-192928628D01*
X183077200Y-192857200D01*
X183077200Y-193000057D01*
X184862914Y-193357200D02*
X185577200Y-193357200D01*
X184720057Y-193785771D02*
X185220057Y-192285771D01*
X185720057Y-193785771D01*
X186862914Y-192785771D02*
X186862914Y-193785771D01*
X186505771Y-192214342D02*
X186148628Y-193285771D01*
X187077200Y-193285771D01*
D10*
D11*
X263434342Y-196585771D02*
X263434342Y-195085771D01*
X264791485Y-196585771D02*
X264791485Y-195085771D01*
X264791485Y-196514342D02*
X264648628Y-196585771D01*
X264362914Y-196585771D01*
X264220057Y-196514342D01*
X264148628Y-196442914D01*
X264077200Y-196300057D01*
X264077200Y-195871485D01*
X264148628Y-195728628D01*
X264220057Y-195657200D01*
X264362914Y-195585771D01*
X264648628Y-195585771D01*
X264791485Y-195657200D01*
X265505771Y-196442914D02*
X265577200Y-196514342D01*
X265505771Y-196585771D01*
X265434342Y-196514342D01*
X265505771Y-196442914D01*
X265505771Y-196585771D01*
X265505771Y-195657200D02*
X265577200Y-195728628D01*
X265505771Y-195800057D01*
X265434342Y-195728628D01*
X265505771Y-195657200D01*
X265505771Y-195800057D01*
X268148628Y-196585771D02*
X267291485Y-196585771D01*
X267720057Y-196585771D02*
X267720057Y-195085771D01*
X267577200Y-195300057D01*
X267434342Y-195442914D01*
X267291485Y-195514342D01*
X269862914Y-195014342D02*
X268577200Y-196942914D01*
X271148628Y-196585771D02*
X270291485Y-196585771D01*
X270720057Y-196585771D02*
X270720057Y-195085771D01*
X270577200Y-195300057D01*
X270434342Y-195442914D01*
X270291485Y-195514342D01*
D10*
D11*
X177002200Y-187507200D02*
X285002200Y-187507200D01*
D10*
D13*
X178714580Y-188211961D02*
X179857438Y-188211961D01*
X179036009Y-190211961D02*
X179286009Y-188211961D01*
X180274104Y-190211961D02*
X180440771Y-188878628D01*
X180524104Y-188211961D02*
X180416961Y-188307200D01*
X180500295Y-188402438D01*
X180607438Y-188307200D01*
X180524104Y-188211961D01*
X180500295Y-188402438D01*
X181107438Y-188878628D02*
X181869342Y-188878628D01*
X181476485Y-188211961D02*
X181262200Y-189926247D01*
X181333628Y-190116723D01*
X181512200Y-190211961D01*
X181702676Y-190211961D01*
X182655057Y-190211961D02*
X182476485Y-190116723D01*
X182405057Y-189926247D01*
X182619342Y-188211961D01*
X184190771Y-190116723D02*
X183988390Y-190211961D01*
X183607438Y-190211961D01*
X183428866Y-190116723D01*
X183357438Y-189926247D01*
X183452676Y-189164342D01*
X183571723Y-188973866D01*
X183774104Y-188878628D01*
X184155057Y-188878628D01*
X184333628Y-188973866D01*
X184405057Y-189164342D01*
X184381247Y-189354819D01*
X183405057Y-189545295D01*
X185155057Y-190021485D02*
X185238390Y-190116723D01*
X185131247Y-190211961D01*
X185047914Y-190116723D01*
X185155057Y-190021485D01*
X185131247Y-190211961D01*
X185286009Y-188973866D02*
X185369342Y-189069104D01*
X185262200Y-189164342D01*
X185178866Y-189069104D01*
X185286009Y-188973866D01*
X185262200Y-189164342D01*
X187607438Y-190211961D02*
X187857438Y-188211961D01*
X188619342Y-188211961D01*
X188797914Y-188307200D01*
X188881247Y-188402438D01*
X188952676Y-188592914D01*
X188916961Y-188878628D01*
X188797914Y-189069104D01*
X188690771Y-189164342D01*
X188488390Y-189259580D01*
X187726485Y-189259580D01*
X189893152Y-190211961D02*
X189714580Y-190116723D01*
X189631247Y-190021485D01*
X189559819Y-189831009D01*
X189631247Y-189259580D01*
X189750295Y-189069104D01*
X189857438Y-188973866D01*
X190059819Y-188878628D01*
X190345533Y-188878628D01*
X190524104Y-188973866D01*
X190607438Y-189069104D01*
X190678866Y-189259580D01*
X190607438Y-189831009D01*
X190488390Y-190021485D01*
X190381247Y-190116723D01*
X190178866Y-190211961D01*
X189893152Y-190211961D01*
X191393152Y-188878628D02*
X191607438Y-190211961D01*
X192107438Y-189259580D01*
X192369342Y-190211961D01*
X192916961Y-188878628D01*
X194286009Y-190116723D02*
X194083628Y-190211961D01*
X193702676Y-190211961D01*
X193524104Y-190116723D01*
X193452676Y-189926247D01*
X193547914Y-189164342D01*
X193666961Y-188973866D01*
X193869342Y-188878628D01*
X194250295Y-188878628D01*
X194428866Y-188973866D01*
X194500295Y-189164342D01*
X194476485Y-189354819D01*
X193500295Y-189545295D01*
X195226485Y-190211961D02*
X195393152Y-188878628D01*
X195345533Y-189259580D02*
X195464580Y-189069104D01*
X195571723Y-188973866D01*
X195774104Y-188878628D01*
X195964580Y-188878628D01*
X198786009Y-189164342D02*
X199059819Y-189259580D01*
X199143152Y-189354819D01*
X199214580Y-189545295D01*
X199178866Y-189831009D01*
X199059819Y-190021485D01*
X198952676Y-190116723D01*
X198750295Y-190211961D01*
X197988390Y-190211961D01*
X198238390Y-188211961D01*
X198905057Y-188211961D01*
X199083628Y-188307200D01*
X199166961Y-188402438D01*
X199238390Y-188592914D01*
X199214580Y-188783390D01*
X199095533Y-188973866D01*
X198988390Y-189069104D01*
X198786009Y-189164342D01*
X198119342Y-189164342D01*
X200274104Y-190211961D02*
X200095533Y-190116723D01*
X200012200Y-190021485D01*
X199940771Y-189831009D01*
X200012200Y-189259580D01*
X200131247Y-189069104D01*
X200238390Y-188973866D01*
X200440771Y-188878628D01*
X200726485Y-188878628D01*
X200905057Y-188973866D01*
X200988390Y-189069104D01*
X201059819Y-189259580D01*
X200988390Y-189831009D01*
X200869342Y-190021485D01*
X200762200Y-190116723D01*
X200559819Y-190211961D01*
X200274104Y-190211961D01*
X202655057Y-190211961D02*
X202786009Y-189164342D01*
X202714580Y-188973866D01*
X202536009Y-188878628D01*
X202155057Y-188878628D01*
X201952676Y-188973866D01*
X202666961Y-190116723D02*
X202464580Y-190211961D01*
X201988390Y-190211961D01*
X201809819Y-190116723D01*
X201738390Y-189926247D01*
X201762200Y-189735771D01*
X201881247Y-189545295D01*
X202083628Y-189450057D01*
X202559819Y-189450057D01*
X202762200Y-189354819D01*
X203607438Y-190211961D02*
X203774104Y-188878628D01*
X203726485Y-189259580D02*
X203845533Y-189069104D01*
X203952676Y-188973866D01*
X204155057Y-188878628D01*
X204345533Y-188878628D01*
X205702676Y-190211961D02*
X205952676Y-188211961D01*
X205714580Y-190116723D02*
X205512200Y-190211961D01*
X205131247Y-190211961D01*
X204952676Y-190116723D01*
X204869342Y-190021485D01*
X204797914Y-189831009D01*
X204869342Y-189259580D01*
X204988390Y-189069104D01*
X205095533Y-188973866D01*
X205297914Y-188878628D01*
X205678866Y-188878628D01*
X205857438Y-188973866D01*
D10*
D11*
X178934342Y-185600057D02*
X178434342Y-185600057D01*
X178434342Y-186385771D02*
X178434342Y-184885771D01*
X179148628Y-184885771D01*
X179720057Y-186385771D02*
X179720057Y-185385771D01*
X179720057Y-184885771D02*
X179648628Y-184957200D01*
X179720057Y-185028628D01*
X179791485Y-184957200D01*
X179720057Y-184885771D01*
X179720057Y-185028628D01*
X180648628Y-186385771D02*
X180505771Y-186314342D01*
X180434342Y-186171485D01*
X180434342Y-184885771D01*
X181791485Y-186314342D02*
X181648628Y-186385771D01*
X181362914Y-186385771D01*
X181220057Y-186314342D01*
X181148628Y-186171485D01*
X181148628Y-185600057D01*
X181220057Y-185457200D01*
X181362914Y-185385771D01*
X181648628Y-185385771D01*
X181791485Y-185457200D01*
X181862914Y-185600057D01*
X181862914Y-185742914D01*
X181148628Y-185885771D01*
X182505771Y-186242914D02*
X182577200Y-186314342D01*
X182505771Y-186385771D01*
X182434342Y-186314342D01*
X182505771Y-186242914D01*
X182505771Y-186385771D01*
X182505771Y-185457200D02*
X182577200Y-185528628D01*
X182505771Y-185600057D01*
X182434342Y-185528628D01*
X182505771Y-185457200D01*
X182505771Y-185600057D01*
X184648628Y-184885771D02*
X184934342Y-184885771D01*
X185077200Y-184957200D01*
X185220057Y-185100057D01*
X185291485Y-185385771D01*
X185291485Y-185885771D01*
X185220057Y-186171485D01*
X185077200Y-186314342D01*
X184934342Y-186385771D01*
X184648628Y-186385771D01*
X184505771Y-186314342D01*
X184362914Y-186171485D01*
X184291485Y-185885771D01*
X184291485Y-185385771D01*
X184362914Y-185100057D01*
X184505771Y-184957200D01*
X184648628Y-184885771D01*
X185720057Y-184885771D02*
X186220057Y-186385771D01*
X186720057Y-184885771D01*
X186862914Y-186528628D02*
X188005771Y-186528628D01*
X188362914Y-186385771D02*
X188362914Y-184885771D01*
X188934342Y-184885771D01*
X189077200Y-184957200D01*
X189148628Y-185028628D01*
X189220057Y-185171485D01*
X189220057Y-185385771D01*
X189148628Y-185528628D01*
X189077200Y-185600057D01*
X188934342Y-185671485D01*
X188362914Y-185671485D01*
X190077200Y-186385771D02*
X189934342Y-186314342D01*
X189862914Y-186242914D01*
X189791485Y-186100057D01*
X189791485Y-185671485D01*
X189862914Y-185528628D01*
X189934342Y-185457200D01*
X190077200Y-185385771D01*
X190291485Y-185385771D01*
X190434342Y-185457200D01*
X190505771Y-185528628D01*
X190577200Y-185671485D01*
X190577200Y-186100057D01*
X190505771Y-186242914D01*
X190434342Y-186314342D01*
X190291485Y-186385771D01*
X190077200Y-186385771D01*
X191077200Y-185385771D02*
X191362914Y-186385771D01*
X191648628Y-185671485D01*
X191934342Y-186385771D01*
X192220057Y-185385771D01*
X193362914Y-186314342D02*
X193220057Y-186385771D01*
X192934342Y-186385771D01*
X192791485Y-186314342D01*
X192720057Y-186171485D01*
X192720057Y-185600057D01*
X192791485Y-185457200D01*
X192934342Y-185385771D01*
X193220057Y-185385771D01*
X193362914Y-185457200D01*
X193434342Y-185600057D01*
X193434342Y-185742914D01*
X192720057Y-185885771D01*
X194077200Y-186385771D02*
X194077200Y-185385771D01*
X194077200Y-185671485D02*
X194148628Y-185528628D01*
X194220057Y-185457200D01*
X194362914Y-185385771D01*
X194505771Y-185385771D01*
X195005771Y-186242914D02*
X195077200Y-186314342D01*
X195005771Y-186385771D01*
X194934342Y-186314342D01*
X195005771Y-186242914D01*
X195005771Y-186385771D01*
X195720057Y-186385771D02*
X195720057Y-184885771D01*
X195862914Y-185814342D02*
X196291485Y-186385771D01*
X196291485Y-185385771D02*
X195720057Y-185957200D01*
X196934342Y-186385771D02*
X196934342Y-185385771D01*
X196934342Y-184885771D02*
X196862914Y-184957200D01*
X196934342Y-185028628D01*
X197005771Y-184957200D01*
X196934342Y-184885771D01*
X196934342Y-185028628D01*
X198291485Y-186314342D02*
X198148628Y-186385771D01*
X197862914Y-186385771D01*
X197720057Y-186314342D01*
X197648628Y-186242914D01*
X197577200Y-186100057D01*
X197577200Y-185671485D01*
X197648628Y-185528628D01*
X197720057Y-185457200D01*
X197862914Y-185385771D01*
X198148628Y-185385771D01*
X198291485Y-185457200D01*
X199577200Y-186385771D02*
X199577200Y-185600057D01*
X199505771Y-185457200D01*
X199362914Y-185385771D01*
X199077200Y-185385771D01*
X198934342Y-185457200D01*
X199577200Y-186314342D02*
X199434342Y-186385771D01*
X199077200Y-186385771D01*
X198934342Y-186314342D01*
X198862914Y-186171485D01*
X198862914Y-186028628D01*
X198934342Y-185885771D01*
X199077200Y-185814342D01*
X199434342Y-185814342D01*
X199577200Y-185742914D01*
X200934342Y-186385771D02*
X200934342Y-184885771D01*
X200934342Y-186314342D02*
X200791485Y-186385771D01*
X200505771Y-186385771D01*
X200362914Y-186314342D01*
X200291485Y-186242914D01*
X200220057Y-186100057D01*
X200220057Y-185671485D01*
X200291485Y-185528628D01*
X200362914Y-185457200D01*
X200505771Y-185385771D01*
X200791485Y-185385771D01*
X200934342Y-185457200D01*
X201291485Y-186528628D02*
X202434342Y-186528628D01*
X202791485Y-185385771D02*
X202791485Y-186885771D01*
X202791485Y-185457200D02*
X202934342Y-185385771D01*
X203220057Y-185385771D01*
X203362914Y-185457200D01*
X203434342Y-185528628D01*
X203505771Y-185671485D01*
X203505771Y-186100057D01*
X203434342Y-186242914D01*
X203362914Y-186314342D01*
X203220057Y-186385771D01*
X202934342Y-186385771D01*
X202791485Y-186314342D01*
X204791485Y-186314342D02*
X204648628Y-186385771D01*
X204362914Y-186385771D01*
X204220057Y-186314342D01*
X204148628Y-186242914D01*
X204077200Y-186100057D01*
X204077200Y-185671485D01*
X204148628Y-185528628D01*
X204220057Y-185457200D01*
X204362914Y-185385771D01*
X204648628Y-185385771D01*
X204791485Y-185457200D01*
X205434342Y-186385771D02*
X205434342Y-184885771D01*
X205434342Y-185457200D02*
X205577200Y-185385771D01*
X205862914Y-185385771D01*
X206005771Y-185457200D01*
X206077200Y-185528628D01*
X206148628Y-185671485D01*
X206148628Y-186100057D01*
X206077200Y-186242914D01*
X206005771Y-186314342D01*
X205862914Y-186385771D01*
X205577200Y-186385771D01*
X205434342Y-186314342D01*
D10*
D11*
X177002200Y-181507200D02*
X285002200Y-181507200D01*
D10*
D11*
X178362914Y-183614342D02*
X178577200Y-183685771D01*
X178934342Y-183685771D01*
X179077200Y-183614342D01*
X179148628Y-183542914D01*
X179220057Y-183400057D01*
X179220057Y-183257200D01*
X179148628Y-183114342D01*
X179077200Y-183042914D01*
X178934342Y-182971485D01*
X178648628Y-182900057D01*
X178505771Y-182828628D01*
X178434342Y-182757200D01*
X178362914Y-182614342D01*
X178362914Y-182471485D01*
X178434342Y-182328628D01*
X178505771Y-182257200D01*
X178648628Y-182185771D01*
X179005771Y-182185771D01*
X179220057Y-182257200D01*
X179862914Y-183685771D02*
X179862914Y-182185771D01*
X180505771Y-183685771D02*
X180505771Y-182900057D01*
X180434342Y-182757200D01*
X180291485Y-182685771D01*
X180077200Y-182685771D01*
X179934342Y-182757200D01*
X179862914Y-182828628D01*
X181791485Y-183614342D02*
X181648628Y-183685771D01*
X181362914Y-183685771D01*
X181220057Y-183614342D01*
X181148628Y-183471485D01*
X181148628Y-182900057D01*
X181220057Y-182757200D01*
X181362914Y-182685771D01*
X181648628Y-182685771D01*
X181791485Y-182757200D01*
X181862914Y-182900057D01*
X181862914Y-183042914D01*
X181148628Y-183185771D01*
X183077200Y-183614342D02*
X182934342Y-183685771D01*
X182648628Y-183685771D01*
X182505771Y-183614342D01*
X182434342Y-183471485D01*
X182434342Y-182900057D01*
X182505771Y-182757200D01*
X182648628Y-182685771D01*
X182934342Y-182685771D01*
X183077200Y-182757200D01*
X183148628Y-182900057D01*
X183148628Y-183042914D01*
X182434342Y-183185771D01*
X183577200Y-182685771D02*
X184148628Y-182685771D01*
X183791485Y-182185771D02*
X183791485Y-183471485D01*
X183862914Y-183614342D01*
X184005771Y-183685771D01*
X184148628Y-183685771D01*
X184648628Y-183542914D02*
X184720057Y-183614342D01*
X184648628Y-183685771D01*
X184577200Y-183614342D01*
X184648628Y-183542914D01*
X184648628Y-183685771D01*
X184648628Y-182757200D02*
X184720057Y-182828628D01*
X184648628Y-182900057D01*
X184577200Y-182828628D01*
X184648628Y-182757200D01*
X184648628Y-182900057D01*
D10*
D12*
X178840057Y-179185771D02*
X179125771Y-179185771D01*
X179268628Y-179257200D01*
X179411485Y-179400057D01*
X179482914Y-179685771D01*
X179482914Y-180185771D01*
X179411485Y-180471485D01*
X179268628Y-180614342D01*
X179125771Y-180685771D01*
X178840057Y-180685771D01*
X178697200Y-180614342D01*
X178554342Y-180471485D01*
X178482914Y-180185771D01*
X178482914Y-179685771D01*
X178554342Y-179400057D01*
X178697200Y-179257200D01*
X178840057Y-179185771D01*
X180125771Y-179685771D02*
X180125771Y-181185771D01*
X180125771Y-179757200D02*
X180268628Y-179685771D01*
X180554342Y-179685771D01*
X180697200Y-179757200D01*
X180768628Y-179828628D01*
X180840057Y-179971485D01*
X180840057Y-180400057D01*
X180768628Y-180542914D01*
X180697200Y-180614342D01*
X180554342Y-180685771D01*
X180268628Y-180685771D01*
X180125771Y-180614342D01*
X182054342Y-180614342D02*
X181911485Y-180685771D01*
X181625771Y-180685771D01*
X181482914Y-180614342D01*
X181411485Y-180471485D01*
X181411485Y-179900057D01*
X181482914Y-179757200D01*
X181625771Y-179685771D01*
X181911485Y-179685771D01*
X182054342Y-179757200D01*
X182125771Y-179900057D01*
X182125771Y-180042914D01*
X181411485Y-180185771D01*
X182768628Y-179685771D02*
X182768628Y-180685771D01*
X182768628Y-179828628D02*
X182840057Y-179757200D01*
X182982914Y-179685771D01*
X183197200Y-179685771D01*
X183340057Y-179757200D01*
X183411485Y-179900057D01*
X183411485Y-180685771D01*
X183911485Y-179185771D02*
X184411485Y-180685771D01*
X184911485Y-179185771D01*
X185982914Y-180614342D02*
X185840057Y-180685771D01*
X185554342Y-180685771D01*
X185411485Y-180614342D01*
X185340057Y-180471485D01*
X185340057Y-179900057D01*
X185411485Y-179757200D01*
X185554342Y-179685771D01*
X185840057Y-179685771D01*
X185982914Y-179757200D01*
X186054342Y-179900057D01*
X186054342Y-180042914D01*
X185340057Y-180185771D01*
X186697200Y-179685771D02*
X186697200Y-180685771D01*
X186697200Y-179828628D02*
X186768628Y-179757200D01*
X186911485Y-179685771D01*
X187125771Y-179685771D01*
X187268628Y-179757200D01*
X187340057Y-179900057D01*
X187340057Y-180685771D01*
X187840057Y-179685771D02*
X188411485Y-179685771D01*
X188054342Y-179185771D02*
X188054342Y-180471485D01*
X188125771Y-180614342D01*
X188268628Y-180685771D01*
X188411485Y-180685771D01*
X190554342Y-179900057D02*
X190768628Y-179971485D01*
X190840057Y-180042914D01*
X190911485Y-180185771D01*
X190911485Y-180400057D01*
X190840057Y-180542914D01*
X190768628Y-180614342D01*
X190625771Y-180685771D01*
X190054342Y-180685771D01*
X190054342Y-179185771D01*
X190554342Y-179185771D01*
X190697200Y-179257200D01*
X190768628Y-179328628D01*
X190840057Y-179471485D01*
X190840057Y-179614342D01*
X190768628Y-179757200D01*
X190697200Y-179828628D01*
X190554342Y-179900057D01*
X190054342Y-179900057D01*
X191554342Y-180685771D02*
X191554342Y-179685771D01*
X191554342Y-179971485D02*
X191625771Y-179828628D01*
X191697200Y-179757200D01*
X191840057Y-179685771D01*
X191982914Y-179685771D01*
X192482914Y-180685771D02*
X192482914Y-179685771D01*
X192482914Y-179185771D02*
X192411485Y-179257200D01*
X192482914Y-179328628D01*
X192554342Y-179257200D01*
X192482914Y-179185771D01*
X192482914Y-179328628D01*
X193125771Y-180614342D02*
X193268628Y-180685771D01*
X193554342Y-180685771D01*
X193697200Y-180614342D01*
X193768628Y-180471485D01*
X193768628Y-180400057D01*
X193697200Y-180257200D01*
X193554342Y-180185771D01*
X193340057Y-180185771D01*
X193197200Y-180114342D01*
X193125771Y-179971485D01*
X193125771Y-179900057D01*
X193197200Y-179757200D01*
X193340057Y-179685771D01*
X193554342Y-179685771D01*
X193697200Y-179757200D01*
X194197200Y-179685771D02*
X194768628Y-179685771D01*
X194411485Y-179185771D02*
X194411485Y-180471485D01*
X194482914Y-180614342D01*
X194625771Y-180685771D01*
X194768628Y-180685771D01*
X195482914Y-180685771D02*
X195340057Y-180614342D01*
X195268628Y-180542914D01*
X195197200Y-180400057D01*
X195197200Y-179971485D01*
X195268628Y-179828628D01*
X195340057Y-179757200D01*
X195482914Y-179685771D01*
X195697200Y-179685771D01*
X195840057Y-179757200D01*
X195911485Y-179828628D01*
X195982914Y-179971485D01*
X195982914Y-180400057D01*
X195911485Y-180542914D01*
X195840057Y-180614342D01*
X195697200Y-180685771D01*
X195482914Y-180685771D01*
X196840057Y-180685771D02*
X196697200Y-180614342D01*
X196625771Y-180471485D01*
X196625771Y-179185771D01*
D10*
D11*
X197002200Y-191507200D02*
X197002200Y-194507200D01*
D10*
D11*
X261002200Y-191507200D02*
X261002200Y-198007200D01*
D14*
X38200000Y-82500000D02*
G75*
G03*
X38200000Y-82500000I-3000000J0D01*
G01*
X38200000Y-35200000D02*
G75*
G03*
X38200000Y-35200000I-3000000J0D01*
G01*
X120000000Y-58750000D02*
G75*
G03*
X120000000Y-58750000I-3000000J0D01*
G01*
X202000000Y-82500000D02*
G75*
G03*
X202000000Y-82500000I-3000000J0D01*
G01*
X202000000Y-35200000D02*
G75*
G03*
X202000000Y-35200000I-3000000J0D01*
G01*
D15*
X109200000Y-55540000D03*
X109200000Y-50460000D03*
X78560000Y-33700000D03*
X83640000Y-33700000D03*
D16*
X54300000Y-83600000D03*
%TA.AperFunction,ComponentPad*%
G36*
G01*
X57710000Y-82754999D02*
X57710000Y-84445001D01*
G75*
G02*
X57460001Y-84695000I-249999J0D01*
G01*
X56219999Y-84695000D01*
G75*
G02*
X55970000Y-84445001I0J249999D01*
G01*
X55970000Y-82754999D01*
G75*
G02*
X56219999Y-82505000I249999J0D01*
G01*
X57460001Y-82505000D01*
G75*
G02*
X57710000Y-82754999I0J-249999D01*
G01*
G37*
%TD.AperFunction*%
D17*
X55200000Y-33800000D03*
X70800000Y-33800000D03*
D18*
X55200000Y-42300000D03*
X70800000Y-42300000D03*
D19*
X63000000Y-31800000D03*
D18*
X60500000Y-37300000D03*
X65500000Y-37300000D03*
X60100000Y-40950000D03*
X65900000Y-40950000D03*
D16*
X61660000Y-83600000D03*
%TA.AperFunction,ComponentPad*%
G36*
G01*
X65070000Y-82754999D02*
X65070000Y-84445001D01*
G75*
G02*
X64820001Y-84695000I-249999J0D01*
G01*
X63579999Y-84695000D01*
G75*
G02*
X63330000Y-84445001I0J249999D01*
G01*
X63330000Y-82754999D01*
G75*
G02*
X63579999Y-82505000I249999J0D01*
G01*
X64820001Y-82505000D01*
G75*
G02*
X65070000Y-82754999I0J-249999D01*
G01*
G37*
%TD.AperFunction*%
D20*
X102150000Y-41700000D03*
X107250000Y-42900000D03*
D21*
X71400000Y-80600000D03*
X73400000Y-80600000D03*
X75400000Y-80600000D03*
X77400000Y-80600000D03*
X79400000Y-80600000D03*
%TA.AperFunction,ComponentPad*%
G36*
G01*
X82000000Y-79949999D02*
X82000000Y-81250001D01*
G75*
G02*
X81750001Y-81500000I-249999J0D01*
G01*
X81049999Y-81500000D01*
G75*
G02*
X80800000Y-81250001I0J249999D01*
G01*
X80800000Y-79949999D01*
G75*
G02*
X81049999Y-79700000I249999J0D01*
G01*
X81750001Y-79700000D01*
G75*
G02*
X82000000Y-79949999I0J-249999D01*
G01*
G37*
%TD.AperFunction*%
D22*
X42560000Y-47540000D03*
X45100000Y-47540000D03*
X42560000Y-50080000D03*
X45100000Y-50080000D03*
X42560000Y-52620000D03*
X45100000Y-52620000D03*
X42560000Y-55160000D03*
X45100000Y-55160000D03*
X42560000Y-57700000D03*
X45100000Y-57700000D03*
X42560000Y-60240000D03*
X45100000Y-60240000D03*
X42560000Y-62780000D03*
X45100000Y-62780000D03*
X42560000Y-65320000D03*
X45100000Y-65320000D03*
X42560000Y-67860000D03*
X45100000Y-67860000D03*
X42560000Y-70400000D03*
D23*
X45100000Y-70400000D03*
D24*
X112700000Y-78400000D03*
X110200000Y-78400000D03*
D25*
X105300000Y-40700000D03*
X107100000Y-40700000D03*
D26*
X150900000Y-54000000D03*
X150900000Y-56000000D03*
X150900000Y-55000000D03*
X150900000Y-62000000D03*
X150900000Y-63000000D03*
X150900000Y-64000000D03*
D25*
X168300000Y-33000000D03*
X179300000Y-33000000D03*
X190300000Y-53200000D03*
X190300000Y-64600000D03*
D27*
X121000000Y-40200000D03*
X174675000Y-56275000D03*
X97100000Y-46300000D03*
D26*
X104450000Y-55450000D03*
D27*
X104500000Y-59800000D03*
X88525000Y-68375000D03*
X75675000Y-47575000D03*
X80900000Y-53800000D03*
X78500000Y-53100000D03*
X78500000Y-56300000D03*
D25*
X165400000Y-81300000D03*
X182300000Y-81400000D03*
D27*
X98825000Y-82425000D03*
X51500000Y-77100000D03*
X59100000Y-77100000D03*
X52000000Y-71800000D03*
X71800000Y-70200000D03*
X74350000Y-70550000D03*
X68600000Y-65900000D03*
X79100000Y-72600000D03*
X56539025Y-51623959D03*
X62500000Y-61300000D03*
X59100000Y-59000000D03*
X53450000Y-59150000D03*
X63900000Y-59300000D03*
X67200000Y-52800000D03*
X69100000Y-52800000D03*
X68300000Y-52800000D03*
X68300000Y-58400000D03*
X67200000Y-58400000D03*
X69300000Y-58400000D03*
X58425000Y-46525000D03*
X64025000Y-53325000D03*
D26*
X173000000Y-66000000D03*
X161100000Y-67500000D03*
X172800000Y-52000000D03*
X161000000Y-50500000D03*
D27*
X87700000Y-86600000D03*
X89100000Y-86100000D03*
X86200000Y-85812010D03*
X172885600Y-58000000D03*
X173000015Y-61995462D03*
X93400000Y-83500000D03*
X172996532Y-63003468D03*
X93400000Y-86100000D03*
X173000169Y-56998520D03*
X173000000Y-60000000D03*
X100600000Y-85400000D03*
X99600000Y-42300000D03*
X100300000Y-46000000D03*
X65900000Y-75800000D03*
X62600000Y-75800000D03*
X62500000Y-52400000D03*
X65700000Y-49200000D03*
X41112010Y-72300000D03*
X39200000Y-58100000D03*
D28*
X171600000Y-67500000D02*
X173000000Y-66000000D01*
X161100000Y-67500000D02*
X171600000Y-67500000D01*
X171500000Y-50500000D02*
X172800000Y-52000000D01*
X161000000Y-50500000D02*
X171500000Y-50500000D01*
D29*
X42500000Y-57700000D02*
X42560000Y-57700000D01*
X40902400Y-57700000D02*
X42560000Y-57700000D01*
X37112000Y-61490400D02*
X40902400Y-57700000D01*
X37112000Y-79728113D02*
X37112000Y-61490400D01*
X44477487Y-87093600D02*
X37112000Y-79728113D01*
X87200800Y-87093600D02*
X44477487Y-87093600D01*
X87694400Y-86600000D02*
X87200800Y-87093600D01*
X87700000Y-86600000D02*
X87694400Y-86600000D01*
X40363200Y-59052000D02*
X43748000Y-59052000D01*
X37620000Y-61795200D02*
X40363200Y-59052000D01*
X37620000Y-79646594D02*
X37620000Y-61795200D01*
X44650995Y-86677589D02*
X37620000Y-79646594D01*
X86499211Y-86677589D02*
X44650995Y-86677589D01*
X88700001Y-85700001D02*
X87476799Y-85700001D01*
X89100000Y-86100000D02*
X88700001Y-85700001D01*
X43748000Y-59052000D02*
X45100000Y-57700000D01*
X87476799Y-85700001D02*
X86499211Y-86677589D01*
X40292800Y-60240000D02*
X38128000Y-62404800D01*
X38128000Y-79566266D02*
X44823312Y-86261578D01*
X38128000Y-62404800D02*
X38128000Y-79566266D01*
X85750432Y-86261578D02*
X86200000Y-85812010D01*
X44823312Y-86261578D02*
X85750432Y-86261578D01*
X42560000Y-60240000D02*
X40292800Y-60240000D01*
X174700000Y-86600000D02*
X175500000Y-85800000D01*
X93600000Y-85100000D02*
X95085600Y-86585600D01*
X122789600Y-76600000D02*
X132282400Y-76600000D01*
X85638400Y-85100000D02*
X93600000Y-85100000D01*
X173285599Y-58399999D02*
X172885600Y-58000000D01*
X43849600Y-61490400D02*
X40566400Y-61490400D01*
X38636000Y-79485938D02*
X44995629Y-85845567D01*
X121643200Y-77746400D02*
X122789600Y-76600000D01*
X135272000Y-86600000D02*
X174700000Y-86600000D01*
X95085600Y-86585600D02*
X120322400Y-86585600D01*
X38636000Y-63420800D02*
X38636000Y-79485938D01*
X121643200Y-85264800D02*
X121643200Y-77746400D01*
X132282400Y-76600000D02*
X133428800Y-77746400D01*
X44995629Y-85845567D02*
X84892833Y-85845567D01*
X175500000Y-60614400D02*
X173285599Y-58399999D01*
X133428800Y-84756800D02*
X135272000Y-86600000D01*
X175500000Y-85800000D02*
X175500000Y-60614400D01*
X84892833Y-85845567D02*
X85638400Y-85100000D01*
X40566400Y-61490400D02*
X38636000Y-63420800D01*
X120322400Y-86585600D02*
X121643200Y-85264800D01*
X45100000Y-60240000D02*
X43849600Y-61490400D01*
X133428800Y-77746400D02*
X133428800Y-84756800D01*
X42560000Y-62840000D02*
X42560000Y-62780000D01*
X86332800Y-84600000D02*
X85600000Y-84600000D01*
X40699200Y-62780000D02*
X42560000Y-62780000D01*
X40566400Y-62912800D02*
X40699200Y-62780000D01*
X39702800Y-63776400D02*
X40566400Y-62912800D01*
X85224000Y-84600000D02*
X86332800Y-84600000D01*
X45167946Y-85429556D02*
X84394444Y-85429556D01*
X39144000Y-79405610D02*
X45167946Y-85429556D01*
X84394444Y-85429556D02*
X85224000Y-84600000D01*
X39144000Y-64335200D02*
X39144000Y-79405610D01*
X40566400Y-62912800D02*
X39144000Y-64335200D01*
X174500000Y-63495447D02*
X173000015Y-61995462D01*
X86332800Y-84600000D02*
X100900000Y-84600000D01*
X100900000Y-84600000D02*
X101869600Y-85569600D01*
X135796482Y-85680810D02*
X174119190Y-85680810D01*
X101869600Y-85569600D02*
X120017600Y-85569600D01*
X120017600Y-85569600D02*
X120627200Y-84960000D01*
X134444800Y-84329128D02*
X135796482Y-85680810D01*
X134444800Y-77314400D02*
X134444800Y-84329128D01*
X174119190Y-85680810D02*
X174500000Y-85300000D01*
X120627200Y-84960000D02*
X120627200Y-77340000D01*
X120627200Y-77340000D02*
X122367200Y-75600000D01*
X122367200Y-75600000D02*
X132730400Y-75600000D01*
X132730400Y-75600000D02*
X134444800Y-77314400D01*
X174500000Y-85300000D02*
X174500000Y-63495447D01*
X94000000Y-84100000D02*
X93400000Y-83500000D01*
X101200000Y-84100000D02*
X94000000Y-84100000D01*
X135854800Y-85100000D02*
X134952800Y-84198000D01*
X174000000Y-64006936D02*
X174000000Y-85000000D01*
X174000000Y-85000000D02*
X173900000Y-85100000D01*
X134952800Y-77228800D02*
X132824000Y-75100000D01*
X173900000Y-85100000D02*
X135854800Y-85100000D01*
X102161600Y-85061600D02*
X101200000Y-84100000D01*
X134952800Y-84198000D02*
X134952800Y-77228800D01*
X132824000Y-75100000D02*
X122156000Y-75100000D01*
X122156000Y-75100000D02*
X120119200Y-77136800D01*
X120119200Y-77136800D02*
X120119200Y-84858400D01*
X172996532Y-63003468D02*
X174000000Y-64006936D01*
X120119200Y-84858400D02*
X119916000Y-85061600D01*
X119916000Y-85061600D02*
X102161600Y-85061600D01*
X122151200Y-77912296D02*
X122900506Y-77162990D01*
X132189338Y-77162990D02*
X132920800Y-77894452D01*
X132920800Y-84960000D02*
X135060800Y-87100000D01*
X135060800Y-87100000D02*
X174900000Y-87100000D01*
X174900000Y-87100000D02*
X176000000Y-86000000D01*
X122900506Y-77162990D02*
X132189338Y-77162990D01*
X93400000Y-86100000D02*
X94393600Y-87093600D01*
X132920800Y-77894452D02*
X132920800Y-84960000D01*
X176000000Y-59998351D02*
X173400168Y-57398519D01*
X176000000Y-86000000D02*
X176000000Y-59998351D01*
X94393600Y-87093600D02*
X120424000Y-87093600D01*
X173400168Y-57398519D02*
X173000169Y-56998520D01*
X120424000Y-87093600D02*
X122151200Y-85366400D01*
X122151200Y-85366400D02*
X122151200Y-77912296D01*
X101277600Y-86077600D02*
X100600000Y-85400000D01*
X121135200Y-77543200D02*
X121135200Y-85061600D01*
X132493600Y-76100000D02*
X122578400Y-76100000D01*
X133936800Y-77543200D02*
X132493600Y-76100000D01*
X122578400Y-76100000D02*
X121135200Y-77543200D01*
X133936800Y-84553600D02*
X133936800Y-77543200D01*
X174500000Y-86100000D02*
X135483200Y-86100000D01*
X175000000Y-85600000D02*
X174500000Y-86100000D01*
X175000000Y-62000000D02*
X175000000Y-85600000D01*
X120119200Y-86077600D02*
X101277600Y-86077600D01*
X121135200Y-85061600D02*
X120119200Y-86077600D01*
X135483200Y-86100000D02*
X133936800Y-84553600D01*
X173000000Y-60000000D02*
X175000000Y-62000000D01*
X99600000Y-42300000D02*
X99600000Y-45300000D01*
X99600000Y-45300000D02*
X100300000Y-46000000D01*
D30*
X65900000Y-75800000D02*
X62600000Y-75800000D01*
D29*
X62500000Y-52400000D02*
X65700000Y-49200000D01*
X42560000Y-67860000D02*
X41112010Y-69307990D01*
X41112010Y-69307990D02*
X41112010Y-72300000D01*
X39200000Y-58100000D02*
X40900000Y-56400000D01*
X43860000Y-56400000D02*
X45100000Y-55160000D01*
X40900000Y-56400000D02*
X43860000Y-56400000D01*
X43780000Y-64100000D02*
X45100000Y-62780000D01*
X42972800Y-64100000D02*
X43780000Y-64100000D01*
X41100000Y-64100000D02*
X42972800Y-64100000D01*
X41004800Y-64100000D02*
X42972800Y-64100000D01*
X45340263Y-85013545D02*
X39560011Y-79233293D01*
X39560011Y-65544789D02*
X41004800Y-64100000D01*
X76986455Y-85013545D02*
X45340263Y-85013545D01*
X39560011Y-79233293D02*
X39560011Y-65544789D01*
X81400000Y-80600000D02*
X76986455Y-85013545D01*
X39976022Y-79060976D02*
X39976022Y-66701897D01*
X53256790Y-82124810D02*
X50828000Y-84553600D01*
X50828000Y-84553600D02*
X45468646Y-84553600D01*
X66324810Y-82124810D02*
X53256790Y-82124810D01*
X41357919Y-65320000D02*
X42560000Y-65320000D01*
X39976022Y-66701897D02*
X41357919Y-65320000D01*
X45468646Y-84553600D02*
X39976022Y-79060976D01*
X68797534Y-84597534D02*
X66324810Y-82124810D01*
X76510466Y-84597534D02*
X68797534Y-84597534D01*
X79400000Y-81708000D02*
X76510466Y-84597534D01*
X79400000Y-80600000D02*
X79400000Y-81708000D01*
X43820000Y-66600000D02*
X45100000Y-65320000D01*
X40400000Y-78896626D02*
X40400000Y-68000000D01*
X40400000Y-68000000D02*
X41800000Y-66600000D01*
X45548974Y-84045600D02*
X40400000Y-78896626D01*
X41800000Y-66600000D02*
X43820000Y-66600000D01*
X50523200Y-84045600D02*
X45548974Y-84045600D01*
X52894071Y-81674729D02*
X50523200Y-84045600D01*
X52894071Y-81573129D02*
X52894071Y-81674729D01*
X66473129Y-81573129D02*
X52894071Y-81573129D01*
X74926477Y-84181523D02*
X69081523Y-84181523D01*
X69081523Y-84181523D02*
X66473129Y-81573129D01*
X77400000Y-81708000D02*
X74926477Y-84181523D01*
X77400000Y-80600000D02*
X77400000Y-81708000D01*
D31*
X203594000Y-87094000D02*
X175591893Y-87094000D01*
X176326104Y-86359790D01*
X176344606Y-86344606D01*
X176369031Y-86314844D01*
X176405213Y-86270756D01*
X176440246Y-86205213D01*
X176450249Y-86186499D01*
X176477982Y-86095076D01*
X176485000Y-86023820D01*
X176485000Y-86023817D01*
X176487346Y-86000000D01*
X176485000Y-85976183D01*
X176485000Y-82166595D01*
X195614879Y-82166595D01*
X195614879Y-82833405D01*
X195744967Y-83487403D01*
X196000145Y-84103456D01*
X196370605Y-84657889D01*
X196842111Y-85129395D01*
X197396544Y-85499855D01*
X198012597Y-85755033D01*
X198666595Y-85885121D01*
X199333405Y-85885121D01*
X199987403Y-85755033D01*
X200603456Y-85499855D01*
X201157889Y-85129395D01*
X201629395Y-84657889D01*
X201999855Y-84103456D01*
X202255033Y-83487403D01*
X202385121Y-82833405D01*
X202385121Y-82166595D01*
X202255033Y-81512597D01*
X201999855Y-80896544D01*
X201629395Y-80342111D01*
X201157889Y-79870605D01*
X200603456Y-79500145D01*
X199987403Y-79244967D01*
X199333405Y-79114879D01*
X198666595Y-79114879D01*
X198012597Y-79244967D01*
X197396544Y-79500145D01*
X196842111Y-79870605D01*
X196370605Y-80342111D01*
X196000145Y-80896544D01*
X195744967Y-81512597D01*
X195614879Y-82166595D01*
X176485000Y-82166595D01*
X176485000Y-60022168D01*
X176487346Y-59998351D01*
X176479932Y-59923078D01*
X176477982Y-59903275D01*
X176456703Y-59833130D01*
X176450249Y-59811851D01*
X176405213Y-59727595D01*
X176359790Y-59672247D01*
X176344606Y-59653745D01*
X176326104Y-59638561D01*
X173778152Y-57090610D01*
X173781169Y-57075442D01*
X173781169Y-56921598D01*
X173751156Y-56770711D01*
X173692282Y-56628578D01*
X173606811Y-56500661D01*
X173498028Y-56391878D01*
X173370111Y-56306407D01*
X173227978Y-56247533D01*
X173077091Y-56217520D01*
X172923247Y-56217520D01*
X172772360Y-56247533D01*
X172630227Y-56306407D01*
X172502310Y-56391878D01*
X172393527Y-56500661D01*
X172308056Y-56628578D01*
X172249182Y-56770711D01*
X172219169Y-56921598D01*
X172219169Y-57075442D01*
X172249182Y-57226329D01*
X172308056Y-57368462D01*
X172349945Y-57431154D01*
X172278958Y-57502141D01*
X172193487Y-57630058D01*
X172134613Y-57772191D01*
X172104600Y-57923078D01*
X172104600Y-58076922D01*
X172134613Y-58227809D01*
X172193487Y-58369942D01*
X172278958Y-58497859D01*
X172387741Y-58606642D01*
X172515658Y-58692113D01*
X172657791Y-58750987D01*
X172808678Y-58781000D01*
X172962522Y-58781000D01*
X172977690Y-58777983D01*
X175015001Y-60815295D01*
X175015001Y-61329108D01*
X173777983Y-60092090D01*
X173781000Y-60076922D01*
X173781000Y-59923078D01*
X173750987Y-59772191D01*
X173692113Y-59630058D01*
X173606642Y-59502141D01*
X173497859Y-59393358D01*
X173369942Y-59307887D01*
X173227809Y-59249013D01*
X173076922Y-59219000D01*
X172923078Y-59219000D01*
X172772191Y-59249013D01*
X172630058Y-59307887D01*
X172502141Y-59393358D01*
X172393358Y-59502141D01*
X172307887Y-59630058D01*
X172249013Y-59772191D01*
X172219000Y-59923078D01*
X172219000Y-60076922D01*
X172249013Y-60227809D01*
X172307887Y-60369942D01*
X172393358Y-60497859D01*
X172502141Y-60606642D01*
X172630058Y-60692113D01*
X172772191Y-60750987D01*
X172923078Y-60781000D01*
X173076922Y-60781000D01*
X173092090Y-60777983D01*
X174515000Y-62200893D01*
X174515000Y-62824554D01*
X173777998Y-62087552D01*
X173781015Y-62072384D01*
X173781015Y-61918540D01*
X173751002Y-61767653D01*
X173692128Y-61625520D01*
X173606657Y-61497603D01*
X173497874Y-61388820D01*
X173369957Y-61303349D01*
X173227824Y-61244475D01*
X173076937Y-61214462D01*
X172923093Y-61214462D01*
X172772206Y-61244475D01*
X172630073Y-61303349D01*
X172502156Y-61388820D01*
X172393373Y-61497603D01*
X172307902Y-61625520D01*
X172249028Y-61767653D01*
X172219015Y-61918540D01*
X172219015Y-62072384D01*
X172249028Y-62223271D01*
X172307902Y-62365404D01*
X172393373Y-62493321D01*
X172397776Y-62497724D01*
X172389890Y-62505609D01*
X172304419Y-62633526D01*
X172245545Y-62775659D01*
X172215532Y-62926546D01*
X172215532Y-63080390D01*
X172245545Y-63231277D01*
X172304419Y-63373410D01*
X172389890Y-63501327D01*
X172498673Y-63610110D01*
X172626590Y-63695581D01*
X172768723Y-63754455D01*
X172919610Y-63784468D01*
X173073454Y-63784468D01*
X173088622Y-63781451D01*
X173515000Y-64207830D01*
X173515000Y-65284542D01*
X173417310Y-65219268D01*
X173256978Y-65152856D01*
X173086771Y-65119000D01*
X172913229Y-65119000D01*
X172743022Y-65152856D01*
X172582690Y-65219268D01*
X172438395Y-65315682D01*
X172315682Y-65438395D01*
X172219268Y-65582690D01*
X172152856Y-65743022D01*
X172138537Y-65815009D01*
X171271479Y-66744000D01*
X161554324Y-66744000D01*
X161517310Y-66719268D01*
X161356978Y-66652856D01*
X161186771Y-66619000D01*
X161013229Y-66619000D01*
X160843022Y-66652856D01*
X160682690Y-66719268D01*
X160538395Y-66815682D01*
X160415682Y-66938395D01*
X160319268Y-67082690D01*
X160252856Y-67243022D01*
X160219000Y-67413229D01*
X160219000Y-67586771D01*
X160252856Y-67756978D01*
X160319268Y-67917310D01*
X160415682Y-68061605D01*
X160538395Y-68184318D01*
X160682690Y-68280732D01*
X160843022Y-68347144D01*
X161013229Y-68381000D01*
X161186771Y-68381000D01*
X161356978Y-68347144D01*
X161517310Y-68280732D01*
X161554324Y-68256000D01*
X171575925Y-68256000D01*
X171626179Y-68259206D01*
X171687072Y-68251081D01*
X171748202Y-68245060D01*
X171760772Y-68241247D01*
X171773790Y-68239510D01*
X171831911Y-68219668D01*
X171890708Y-68201832D01*
X171902295Y-68195638D01*
X171914722Y-68191396D01*
X171967843Y-68160602D01*
X172022043Y-68131632D01*
X172032203Y-68123294D01*
X172043559Y-68116711D01*
X172089634Y-68076162D01*
X172137159Y-68037159D01*
X172169122Y-67998212D01*
X173240370Y-66850447D01*
X173256978Y-66847144D01*
X173417310Y-66780732D01*
X173515000Y-66715458D01*
X173515001Y-84615000D01*
X136055694Y-84615000D01*
X135437800Y-83997107D01*
X135437800Y-77252617D01*
X135440146Y-77228800D01*
X135436269Y-77189435D01*
X135430782Y-77133724D01*
X135403049Y-77042301D01*
X135364293Y-76969794D01*
X135358013Y-76958044D01*
X135312590Y-76902696D01*
X135297406Y-76884194D01*
X135278904Y-76869010D01*
X133183794Y-74773901D01*
X133168606Y-74755394D01*
X133094755Y-74694787D01*
X133010499Y-74649751D01*
X132919076Y-74622018D01*
X132847820Y-74615000D01*
X132847817Y-74615000D01*
X132824000Y-74612654D01*
X132800183Y-74615000D01*
X122179816Y-74615000D01*
X122155999Y-74612654D01*
X122132182Y-74615000D01*
X122132180Y-74615000D01*
X122060924Y-74622018D01*
X121969501Y-74649751D01*
X121930280Y-74670715D01*
X121885244Y-74694787D01*
X121859752Y-74715708D01*
X121811394Y-74755394D01*
X121796206Y-74773901D01*
X119793101Y-76777006D01*
X119774594Y-76792194D01*
X119713987Y-76866045D01*
X119668951Y-76950302D01*
X119641218Y-77041725D01*
X119635902Y-77095700D01*
X119631854Y-77136800D01*
X119634200Y-77160617D01*
X119634201Y-84576600D01*
X102362494Y-84576600D01*
X101559794Y-83773901D01*
X101544606Y-83755394D01*
X101470755Y-83694787D01*
X101386499Y-83649751D01*
X101295076Y-83622018D01*
X101223820Y-83615000D01*
X101223817Y-83615000D01*
X101200000Y-83612654D01*
X101176183Y-83615000D01*
X94200893Y-83615000D01*
X94177983Y-83592090D01*
X94181000Y-83576922D01*
X94181000Y-83423078D01*
X94150987Y-83272191D01*
X94092113Y-83130058D01*
X94006642Y-83002141D01*
X93897859Y-82893358D01*
X93769942Y-82807887D01*
X93627809Y-82749013D01*
X93476922Y-82719000D01*
X93323078Y-82719000D01*
X93172191Y-82749013D01*
X93030058Y-82807887D01*
X92902141Y-82893358D01*
X92793358Y-83002141D01*
X92707887Y-83130058D01*
X92649013Y-83272191D01*
X92619000Y-83423078D01*
X92619000Y-83576922D01*
X92649013Y-83727809D01*
X92707887Y-83869942D01*
X92793358Y-83997859D01*
X92902141Y-84106642D01*
X92914650Y-84115000D01*
X85247816Y-84115000D01*
X85223999Y-84112654D01*
X85200182Y-84115000D01*
X85200180Y-84115000D01*
X85128924Y-84122018D01*
X85037501Y-84149751D01*
X84953245Y-84194787D01*
X84879394Y-84255394D01*
X84864206Y-84273901D01*
X84193551Y-84944556D01*
X77741337Y-84944556D01*
X80841121Y-81844772D01*
X80926538Y-81870683D01*
X81049999Y-81882843D01*
X81750001Y-81882843D01*
X81873462Y-81870683D01*
X81992179Y-81834671D01*
X82101589Y-81776190D01*
X82197488Y-81697488D01*
X82276190Y-81601589D01*
X82334671Y-81492179D01*
X82370683Y-81373462D01*
X82382843Y-81250001D01*
X82382843Y-79949999D01*
X82370683Y-79826538D01*
X82334671Y-79707821D01*
X82276190Y-79598411D01*
X82197488Y-79502512D01*
X82101589Y-79423810D01*
X81992179Y-79365329D01*
X81873462Y-79329317D01*
X81750001Y-79317157D01*
X81049999Y-79317157D01*
X80926538Y-79329317D01*
X80807821Y-79365329D01*
X80698411Y-79423810D01*
X80602512Y-79502512D01*
X80523810Y-79598411D01*
X80465329Y-79707821D01*
X80429317Y-79826538D01*
X80417157Y-79949999D01*
X80417157Y-80896950D01*
X80381000Y-80933107D01*
X80381000Y-80251814D01*
X80366805Y-80107691D01*
X80310711Y-79922771D01*
X80219618Y-79752349D01*
X80097028Y-79602972D01*
X79947651Y-79480382D01*
X79777229Y-79389289D01*
X79592310Y-79333195D01*
X79400000Y-79314254D01*
X79207691Y-79333195D01*
X79022772Y-79389289D01*
X78852350Y-79480382D01*
X78702973Y-79602972D01*
X78580383Y-79752349D01*
X78489290Y-79922771D01*
X78433195Y-80107690D01*
X78419000Y-80251813D01*
X78419000Y-80948186D01*
X78433195Y-81092309D01*
X78489289Y-81277228D01*
X78580382Y-81447651D01*
X78702972Y-81597028D01*
X78770039Y-81652068D01*
X76309573Y-84112534D01*
X75681359Y-84112534D01*
X77726104Y-82067790D01*
X77744606Y-82052606D01*
X77763376Y-82029734D01*
X77805213Y-81978756D01*
X77850248Y-81894500D01*
X77850249Y-81894499D01*
X77877982Y-81803076D01*
X77882787Y-81754288D01*
X77947651Y-81719618D01*
X78097028Y-81597028D01*
X78219618Y-81447651D01*
X78310711Y-81277229D01*
X78366805Y-81092310D01*
X78381000Y-80948187D01*
X78381000Y-80251814D01*
X78366805Y-80107691D01*
X78310711Y-79922771D01*
X78219618Y-79752349D01*
X78097028Y-79602972D01*
X77947651Y-79480382D01*
X77777229Y-79389289D01*
X77592310Y-79333195D01*
X77400000Y-79314254D01*
X77207691Y-79333195D01*
X77022772Y-79389289D01*
X76852350Y-79480382D01*
X76702973Y-79602972D01*
X76580383Y-79752349D01*
X76489290Y-79922771D01*
X76433195Y-80107690D01*
X76419000Y-80251813D01*
X76419000Y-80948186D01*
X76433195Y-81092309D01*
X76489289Y-81277228D01*
X76580382Y-81447651D01*
X76702972Y-81597028D01*
X76770038Y-81652068D01*
X74725584Y-83696523D01*
X69282416Y-83696523D01*
X66832923Y-81247030D01*
X66817735Y-81228523D01*
X66743884Y-81167916D01*
X66659628Y-81122880D01*
X66568205Y-81095147D01*
X66496949Y-81088129D01*
X66496946Y-81088129D01*
X66473129Y-81085783D01*
X66449312Y-81088129D01*
X52917891Y-81088129D01*
X52894071Y-81085783D01*
X52870251Y-81088129D01*
X52798995Y-81095147D01*
X52707572Y-81122880D01*
X52623316Y-81167916D01*
X52549465Y-81228523D01*
X52488858Y-81302374D01*
X52443822Y-81386630D01*
X52420982Y-81461925D01*
X50322307Y-83560600D01*
X45749868Y-83560600D01*
X43120024Y-80930756D01*
X43200855Y-80984766D01*
X43538625Y-81124675D01*
X43897200Y-81196000D01*
X44262800Y-81196000D01*
X44621375Y-81124675D01*
X44959145Y-80984766D01*
X45263131Y-80781649D01*
X45317780Y-80727000D01*
X70419000Y-80727000D01*
X70419000Y-81027000D01*
X70462626Y-81215943D01*
X70542275Y-81392745D01*
X70654886Y-81550611D01*
X70796131Y-81683474D01*
X70960582Y-81786229D01*
X71122393Y-81840902D01*
X71273000Y-81776598D01*
X71273000Y-80727000D01*
X71527000Y-80727000D01*
X71527000Y-81776598D01*
X71677607Y-81840902D01*
X71839418Y-81786229D01*
X72003869Y-81683474D01*
X72145114Y-81550611D01*
X72257725Y-81392745D01*
X72337374Y-81215943D01*
X72381000Y-81027000D01*
X72381000Y-80727000D01*
X72419000Y-80727000D01*
X72419000Y-81027000D01*
X72462626Y-81215943D01*
X72542275Y-81392745D01*
X72654886Y-81550611D01*
X72796131Y-81683474D01*
X72960582Y-81786229D01*
X73122393Y-81840902D01*
X73273000Y-81776598D01*
X73273000Y-80727000D01*
X73527000Y-80727000D01*
X73527000Y-81776598D01*
X73677607Y-81840902D01*
X73839418Y-81786229D01*
X74003869Y-81683474D01*
X74145114Y-81550611D01*
X74257725Y-81392745D01*
X74337374Y-81215943D01*
X74381000Y-81027000D01*
X74381000Y-80727000D01*
X74419000Y-80727000D01*
X74419000Y-81027000D01*
X74462626Y-81215943D01*
X74542275Y-81392745D01*
X74654886Y-81550611D01*
X74796131Y-81683474D01*
X74960582Y-81786229D01*
X75122393Y-81840902D01*
X75273000Y-81776598D01*
X75273000Y-80727000D01*
X75527000Y-80727000D01*
X75527000Y-81776598D01*
X75677607Y-81840902D01*
X75839418Y-81786229D01*
X76003869Y-81683474D01*
X76145114Y-81550611D01*
X76257725Y-81392745D01*
X76337374Y-81215943D01*
X76381000Y-81027000D01*
X76381000Y-80727000D01*
X75527000Y-80727000D01*
X75273000Y-80727000D01*
X74419000Y-80727000D01*
X74381000Y-80727000D01*
X73527000Y-80727000D01*
X73273000Y-80727000D01*
X72419000Y-80727000D01*
X72381000Y-80727000D01*
X71527000Y-80727000D01*
X71273000Y-80727000D01*
X70419000Y-80727000D01*
X45317780Y-80727000D01*
X45521649Y-80523131D01*
X45724766Y-80219145D01*
X45743879Y-80173000D01*
X70419000Y-80173000D01*
X70419000Y-80473000D01*
X71273000Y-80473000D01*
X71273000Y-79423402D01*
X71527000Y-79423402D01*
X71527000Y-80473000D01*
X72381000Y-80473000D01*
X72381000Y-80173000D01*
X72419000Y-80173000D01*
X72419000Y-80473000D01*
X73273000Y-80473000D01*
X73273000Y-79423402D01*
X73527000Y-79423402D01*
X73527000Y-80473000D01*
X74381000Y-80473000D01*
X74381000Y-80173000D01*
X74419000Y-80173000D01*
X74419000Y-80473000D01*
X75273000Y-80473000D01*
X75273000Y-79423402D01*
X75527000Y-79423402D01*
X75527000Y-80473000D01*
X76381000Y-80473000D01*
X76381000Y-80173000D01*
X76337374Y-79984057D01*
X76257725Y-79807255D01*
X76145114Y-79649389D01*
X76003869Y-79516526D01*
X75839418Y-79413771D01*
X75677607Y-79359098D01*
X75527000Y-79423402D01*
X75273000Y-79423402D01*
X75122393Y-79359098D01*
X74960582Y-79413771D01*
X74796131Y-79516526D01*
X74654886Y-79649389D01*
X74542275Y-79807255D01*
X74462626Y-79984057D01*
X74419000Y-80173000D01*
X74381000Y-80173000D01*
X74337374Y-79984057D01*
X74257725Y-79807255D01*
X74145114Y-79649389D01*
X74003869Y-79516526D01*
X73839418Y-79413771D01*
X73677607Y-79359098D01*
X73527000Y-79423402D01*
X73273000Y-79423402D01*
X73122393Y-79359098D01*
X72960582Y-79413771D01*
X72796131Y-79516526D01*
X72654886Y-79649389D01*
X72542275Y-79807255D01*
X72462626Y-79984057D01*
X72419000Y-80173000D01*
X72381000Y-80173000D01*
X72337374Y-79984057D01*
X72257725Y-79807255D01*
X72145114Y-79649389D01*
X72003869Y-79516526D01*
X71839418Y-79413771D01*
X71677607Y-79359098D01*
X71527000Y-79423402D01*
X71273000Y-79423402D01*
X71122393Y-79359098D01*
X70960582Y-79413771D01*
X70796131Y-79516526D01*
X70654886Y-79649389D01*
X70542275Y-79807255D01*
X70462626Y-79984057D01*
X70419000Y-80173000D01*
X45743879Y-80173000D01*
X45864675Y-79881375D01*
X45936000Y-79522800D01*
X45936000Y-79157200D01*
X45864675Y-78798625D01*
X45724766Y-78460855D01*
X45606377Y-78283672D01*
X109018900Y-78283672D01*
X109018900Y-78516328D01*
X109064289Y-78744514D01*
X109153323Y-78959461D01*
X109282580Y-79152907D01*
X109447093Y-79317420D01*
X109640539Y-79446677D01*
X109855486Y-79535711D01*
X110083672Y-79581100D01*
X110316328Y-79581100D01*
X110544514Y-79535711D01*
X110759461Y-79446677D01*
X110952907Y-79317420D01*
X111117420Y-79152907D01*
X111246677Y-78959461D01*
X111335711Y-78744514D01*
X111381100Y-78516328D01*
X111381100Y-78283672D01*
X111518900Y-78283672D01*
X111518900Y-78516328D01*
X111564289Y-78744514D01*
X111653323Y-78959461D01*
X111782580Y-79152907D01*
X111947093Y-79317420D01*
X112140539Y-79446677D01*
X112355486Y-79535711D01*
X112583672Y-79581100D01*
X112816328Y-79581100D01*
X113044514Y-79535711D01*
X113259461Y-79446677D01*
X113452907Y-79317420D01*
X113617420Y-79152907D01*
X113746677Y-78959461D01*
X113835711Y-78744514D01*
X113881100Y-78516328D01*
X113881100Y-78283672D01*
X113835711Y-78055486D01*
X113746677Y-77840539D01*
X113617420Y-77647093D01*
X113452907Y-77482580D01*
X113259461Y-77353323D01*
X113044514Y-77264289D01*
X112816328Y-77218900D01*
X112583672Y-77218900D01*
X112355486Y-77264289D01*
X112140539Y-77353323D01*
X111947093Y-77482580D01*
X111782580Y-77647093D01*
X111653323Y-77840539D01*
X111564289Y-78055486D01*
X111518900Y-78283672D01*
X111381100Y-78283672D01*
X111335711Y-78055486D01*
X111246677Y-77840539D01*
X111117420Y-77647093D01*
X110952907Y-77482580D01*
X110759461Y-77353323D01*
X110544514Y-77264289D01*
X110316328Y-77218900D01*
X110083672Y-77218900D01*
X109855486Y-77264289D01*
X109640539Y-77353323D01*
X109447093Y-77482580D01*
X109282580Y-77647093D01*
X109153323Y-77840539D01*
X109064289Y-78055486D01*
X109018900Y-78283672D01*
X45606377Y-78283672D01*
X45521649Y-78156869D01*
X45263131Y-77898351D01*
X44959145Y-77695234D01*
X44621375Y-77555325D01*
X44262800Y-77484000D01*
X43897200Y-77484000D01*
X43538625Y-77555325D01*
X43200855Y-77695234D01*
X42896869Y-77898351D01*
X42638351Y-78156869D01*
X42435234Y-78460855D01*
X42295325Y-78798625D01*
X42224000Y-79157200D01*
X42224000Y-79522800D01*
X42295325Y-79881375D01*
X42435234Y-80219145D01*
X42489244Y-80299977D01*
X40885000Y-78695733D01*
X40885000Y-75723078D01*
X61819000Y-75723078D01*
X61819000Y-75876922D01*
X61849013Y-76027809D01*
X61907887Y-76169942D01*
X61993358Y-76297859D01*
X62102141Y-76406642D01*
X62230058Y-76492113D01*
X62372191Y-76550987D01*
X62523078Y-76581000D01*
X62676922Y-76581000D01*
X62827809Y-76550987D01*
X62969942Y-76492113D01*
X63061405Y-76431000D01*
X65438595Y-76431000D01*
X65530058Y-76492113D01*
X65672191Y-76550987D01*
X65823078Y-76581000D01*
X65976922Y-76581000D01*
X66127809Y-76550987D01*
X66269942Y-76492113D01*
X66397859Y-76406642D01*
X66506642Y-76297859D01*
X66592113Y-76169942D01*
X66650987Y-76027809D01*
X66681000Y-75876922D01*
X66681000Y-75723078D01*
X66650987Y-75572191D01*
X66592113Y-75430058D01*
X66506642Y-75302141D01*
X66397859Y-75193358D01*
X66269942Y-75107887D01*
X66127809Y-75049013D01*
X65976922Y-75019000D01*
X65823078Y-75019000D01*
X65672191Y-75049013D01*
X65530058Y-75107887D01*
X65438595Y-75169000D01*
X63061405Y-75169000D01*
X62969942Y-75107887D01*
X62827809Y-75049013D01*
X62676922Y-75019000D01*
X62523078Y-75019000D01*
X62372191Y-75049013D01*
X62230058Y-75107887D01*
X62102141Y-75193358D01*
X61993358Y-75302141D01*
X61907887Y-75430058D01*
X61849013Y-75572191D01*
X61819000Y-75723078D01*
X40885000Y-75723078D01*
X40885000Y-73051146D01*
X41035088Y-73081000D01*
X41188932Y-73081000D01*
X41339819Y-73050987D01*
X41481952Y-72992113D01*
X41609869Y-72906642D01*
X41718652Y-72797859D01*
X41804123Y-72669942D01*
X41862997Y-72527809D01*
X41893010Y-72376922D01*
X41893010Y-72223078D01*
X41862997Y-72072191D01*
X41804123Y-71930058D01*
X41718652Y-71802141D01*
X41609869Y-71693358D01*
X41597010Y-71684766D01*
X41597010Y-71174525D01*
X41603820Y-71184717D01*
X41775283Y-71356180D01*
X41976903Y-71490898D01*
X42200931Y-71583693D01*
X42438757Y-71631000D01*
X42681243Y-71631000D01*
X42919069Y-71583693D01*
X43143097Y-71490898D01*
X43344717Y-71356180D01*
X43450897Y-71250000D01*
X43867157Y-71250000D01*
X43874513Y-71324689D01*
X43896299Y-71396508D01*
X43931678Y-71462696D01*
X43979289Y-71520711D01*
X44037304Y-71568322D01*
X44103492Y-71603701D01*
X44175311Y-71625487D01*
X44250000Y-71632843D01*
X44877750Y-71631000D01*
X44973000Y-71535750D01*
X44973000Y-70527000D01*
X45227000Y-70527000D01*
X45227000Y-71535750D01*
X45322250Y-71631000D01*
X45950000Y-71632843D01*
X46024689Y-71625487D01*
X46096508Y-71603701D01*
X46162696Y-71568322D01*
X46220711Y-71520711D01*
X46268322Y-71462696D01*
X46303701Y-71396508D01*
X46325487Y-71324689D01*
X46332843Y-71250000D01*
X46331000Y-70622250D01*
X46235750Y-70527000D01*
X45227000Y-70527000D01*
X44973000Y-70527000D01*
X43964250Y-70527000D01*
X43869000Y-70622250D01*
X43867157Y-71250000D01*
X43450897Y-71250000D01*
X43516180Y-71184717D01*
X43650898Y-70983097D01*
X43743693Y-70759069D01*
X43791000Y-70521243D01*
X43791000Y-70278757D01*
X43743693Y-70040931D01*
X43650898Y-69816903D01*
X43516180Y-69615283D01*
X43450897Y-69550000D01*
X43867157Y-69550000D01*
X43869000Y-70177750D01*
X43964250Y-70273000D01*
X44973000Y-70273000D01*
X44973000Y-69264250D01*
X45227000Y-69264250D01*
X45227000Y-70273000D01*
X46235750Y-70273000D01*
X46331000Y-70177750D01*
X46332843Y-69550000D01*
X46325487Y-69475311D01*
X46303701Y-69403492D01*
X46268322Y-69337304D01*
X46220711Y-69279289D01*
X46162696Y-69231678D01*
X46096508Y-69196299D01*
X46024689Y-69174513D01*
X45950000Y-69167157D01*
X45322250Y-69169000D01*
X45227000Y-69264250D01*
X44973000Y-69264250D01*
X44877750Y-69169000D01*
X44250000Y-69167157D01*
X44175311Y-69174513D01*
X44103492Y-69196299D01*
X44037304Y-69231678D01*
X43979289Y-69279289D01*
X43931678Y-69337304D01*
X43896299Y-69403492D01*
X43874513Y-69475311D01*
X43867157Y-69550000D01*
X43450897Y-69550000D01*
X43344717Y-69443820D01*
X43143097Y-69309102D01*
X42919069Y-69216307D01*
X42681243Y-69169000D01*
X42438757Y-69169000D01*
X42200931Y-69216307D01*
X41976903Y-69309102D01*
X41775283Y-69443820D01*
X41603820Y-69615283D01*
X41597010Y-69625475D01*
X41597010Y-69508883D01*
X42102834Y-69003060D01*
X42200931Y-69043693D01*
X42438757Y-69091000D01*
X42681243Y-69091000D01*
X42919069Y-69043693D01*
X43143097Y-68950898D01*
X43344717Y-68816180D01*
X43516180Y-68644717D01*
X43650898Y-68443097D01*
X43743693Y-68219069D01*
X43791000Y-67981243D01*
X43791000Y-67738757D01*
X43869000Y-67738757D01*
X43869000Y-67981243D01*
X43916307Y-68219069D01*
X44009102Y-68443097D01*
X44143820Y-68644717D01*
X44315283Y-68816180D01*
X44516903Y-68950898D01*
X44740931Y-69043693D01*
X44978757Y-69091000D01*
X45221243Y-69091000D01*
X45459069Y-69043693D01*
X45683097Y-68950898D01*
X45884717Y-68816180D01*
X46056180Y-68644717D01*
X46190898Y-68443097D01*
X46283693Y-68219069D01*
X46331000Y-67981243D01*
X46331000Y-67738757D01*
X46283693Y-67500931D01*
X46190898Y-67276903D01*
X46056180Y-67075283D01*
X45884717Y-66903820D01*
X45683097Y-66769102D01*
X45459069Y-66676307D01*
X45221243Y-66629000D01*
X44978757Y-66629000D01*
X44740931Y-66676307D01*
X44516903Y-66769102D01*
X44315283Y-66903820D01*
X44143820Y-67075283D01*
X44009102Y-67276903D01*
X43916307Y-67500931D01*
X43869000Y-67738757D01*
X43791000Y-67738757D01*
X43743693Y-67500931D01*
X43650898Y-67276903D01*
X43522673Y-67085000D01*
X43796183Y-67085000D01*
X43820000Y-67087346D01*
X43843817Y-67085000D01*
X43843820Y-67085000D01*
X43915076Y-67077982D01*
X44006499Y-67050249D01*
X44090755Y-67005213D01*
X44164606Y-66944606D01*
X44179794Y-66926099D01*
X44642833Y-66463060D01*
X44740931Y-66503693D01*
X44978757Y-66551000D01*
X45221243Y-66551000D01*
X45459069Y-66503693D01*
X45683097Y-66410898D01*
X45884717Y-66276180D01*
X46056180Y-66104717D01*
X46190898Y-65903097D01*
X46283693Y-65679069D01*
X46331000Y-65441243D01*
X46331000Y-65198757D01*
X46283693Y-64960931D01*
X46190898Y-64736903D01*
X46056180Y-64535283D01*
X45884717Y-64363820D01*
X45683097Y-64229102D01*
X45459069Y-64136307D01*
X45221243Y-64089000D01*
X44978757Y-64089000D01*
X44740931Y-64136307D01*
X44516903Y-64229102D01*
X44315283Y-64363820D01*
X44143820Y-64535283D01*
X44009102Y-64736903D01*
X43916307Y-64960931D01*
X43869000Y-65198757D01*
X43869000Y-65441243D01*
X43916307Y-65679069D01*
X43956940Y-65777167D01*
X43619107Y-66115000D01*
X43505897Y-66115000D01*
X43516180Y-66104717D01*
X43650898Y-65903097D01*
X43743693Y-65679069D01*
X43791000Y-65441243D01*
X43791000Y-65198757D01*
X43743693Y-64960931D01*
X43650898Y-64736903D01*
X43549400Y-64585000D01*
X43756183Y-64585000D01*
X43780000Y-64587346D01*
X43803817Y-64585000D01*
X43803820Y-64585000D01*
X43875076Y-64577982D01*
X43966499Y-64550249D01*
X44050755Y-64505213D01*
X44124606Y-64444606D01*
X44139794Y-64426099D01*
X44642834Y-63923060D01*
X44740931Y-63963693D01*
X44978757Y-64011000D01*
X45221243Y-64011000D01*
X45459069Y-63963693D01*
X45683097Y-63870898D01*
X45884717Y-63736180D01*
X46056180Y-63564717D01*
X46190898Y-63363097D01*
X46283693Y-63139069D01*
X46331000Y-62901243D01*
X46331000Y-62658757D01*
X46283693Y-62420931D01*
X46190898Y-62196903D01*
X46056180Y-61995283D01*
X45884717Y-61823820D01*
X45683097Y-61689102D01*
X45459069Y-61596307D01*
X45221243Y-61549000D01*
X44978757Y-61549000D01*
X44740931Y-61596307D01*
X44516903Y-61689102D01*
X44315283Y-61823820D01*
X44143820Y-61995283D01*
X44009102Y-62196903D01*
X43916307Y-62420931D01*
X43869000Y-62658757D01*
X43869000Y-62901243D01*
X43916307Y-63139069D01*
X43956940Y-63237166D01*
X43579107Y-63615000D01*
X43465897Y-63615000D01*
X43516180Y-63564717D01*
X43650898Y-63363097D01*
X43743693Y-63139069D01*
X43791000Y-62901243D01*
X43791000Y-62658757D01*
X43743693Y-62420931D01*
X43650898Y-62196903D01*
X43516180Y-61995283D01*
X43496297Y-61975400D01*
X43825783Y-61975400D01*
X43849600Y-61977746D01*
X43873417Y-61975400D01*
X43873420Y-61975400D01*
X43944676Y-61968382D01*
X44036099Y-61940649D01*
X44120355Y-61895613D01*
X44194206Y-61835006D01*
X44209394Y-61816499D01*
X44642833Y-61383060D01*
X44740931Y-61423693D01*
X44978757Y-61471000D01*
X45221243Y-61471000D01*
X45459069Y-61423693D01*
X45683097Y-61330898D01*
X45884717Y-61196180D01*
X46056180Y-61024717D01*
X46190898Y-60823097D01*
X46283693Y-60599069D01*
X46331000Y-60361243D01*
X46331000Y-60118757D01*
X46283693Y-59880931D01*
X46190898Y-59656903D01*
X46056180Y-59455283D01*
X45884717Y-59283820D01*
X45683097Y-59149102D01*
X45459069Y-59056307D01*
X45221243Y-59009000D01*
X44978757Y-59009000D01*
X44740931Y-59056307D01*
X44516903Y-59149102D01*
X44315283Y-59283820D01*
X44143820Y-59455283D01*
X44009102Y-59656903D01*
X43916307Y-59880931D01*
X43869000Y-60118757D01*
X43869000Y-60361243D01*
X43916307Y-60599069D01*
X43956940Y-60697167D01*
X43648707Y-61005400D01*
X43529087Y-61005400D01*
X43650898Y-60823097D01*
X43743693Y-60599069D01*
X43791000Y-60361243D01*
X43791000Y-60118757D01*
X43743693Y-59880931D01*
X43650898Y-59656903D01*
X43570781Y-59537000D01*
X43724183Y-59537000D01*
X43748000Y-59539346D01*
X43771817Y-59537000D01*
X43771820Y-59537000D01*
X43843076Y-59529982D01*
X43934499Y-59502249D01*
X44018755Y-59457213D01*
X44092606Y-59396606D01*
X44107794Y-59378099D01*
X44642834Y-58843060D01*
X44740931Y-58883693D01*
X44978757Y-58931000D01*
X45221243Y-58931000D01*
X45459069Y-58883693D01*
X45683097Y-58790898D01*
X45884717Y-58656180D01*
X46056180Y-58484717D01*
X46101697Y-58416595D01*
X113614879Y-58416595D01*
X113614879Y-59083405D01*
X113744967Y-59737403D01*
X114000145Y-60353456D01*
X114370605Y-60907889D01*
X114842111Y-61379395D01*
X115396544Y-61749855D01*
X116012597Y-62005033D01*
X116666595Y-62135121D01*
X117333405Y-62135121D01*
X117987403Y-62005033D01*
X118603456Y-61749855D01*
X119157889Y-61379395D01*
X119629395Y-60907889D01*
X119999855Y-60353456D01*
X120255033Y-59737403D01*
X120385121Y-59083405D01*
X120385121Y-58416595D01*
X120255033Y-57762597D01*
X119999855Y-57146544D01*
X119629395Y-56592111D01*
X119157889Y-56120605D01*
X118603456Y-55750145D01*
X117987403Y-55494967D01*
X117333405Y-55364879D01*
X116666595Y-55364879D01*
X116012597Y-55494967D01*
X115396544Y-55750145D01*
X114842111Y-56120605D01*
X114370605Y-56592111D01*
X114000145Y-57146544D01*
X113744967Y-57762597D01*
X113614879Y-58416595D01*
X46101697Y-58416595D01*
X46190898Y-58283097D01*
X46283693Y-58059069D01*
X46331000Y-57821243D01*
X46331000Y-57578757D01*
X46283693Y-57340931D01*
X46190898Y-57116903D01*
X46056180Y-56915283D01*
X45884717Y-56743820D01*
X45683097Y-56609102D01*
X45459069Y-56516307D01*
X45221243Y-56469000D01*
X44978757Y-56469000D01*
X44740931Y-56516307D01*
X44516903Y-56609102D01*
X44315283Y-56743820D01*
X44143820Y-56915283D01*
X44009102Y-57116903D01*
X43916307Y-57340931D01*
X43869000Y-57578757D01*
X43869000Y-57821243D01*
X43916307Y-58059069D01*
X43956940Y-58157166D01*
X43547107Y-58567000D01*
X43433897Y-58567000D01*
X43516180Y-58484717D01*
X43650898Y-58283097D01*
X43743693Y-58059069D01*
X43791000Y-57821243D01*
X43791000Y-57578757D01*
X43743693Y-57340931D01*
X43650898Y-57116903D01*
X43516180Y-56915283D01*
X43485897Y-56885000D01*
X43836183Y-56885000D01*
X43860000Y-56887346D01*
X43883817Y-56885000D01*
X43883820Y-56885000D01*
X43955076Y-56877982D01*
X44046499Y-56850249D01*
X44130755Y-56805213D01*
X44204606Y-56744606D01*
X44219794Y-56726099D01*
X44642833Y-56303060D01*
X44740931Y-56343693D01*
X44978757Y-56391000D01*
X45221243Y-56391000D01*
X45459069Y-56343693D01*
X45683097Y-56250898D01*
X45884717Y-56116180D01*
X46056180Y-55944717D01*
X46190898Y-55743097D01*
X46283693Y-55519069D01*
X46307564Y-55399059D01*
X107769000Y-55399059D01*
X107769000Y-55680941D01*
X107823993Y-55957407D01*
X107931864Y-56217833D01*
X108088470Y-56452209D01*
X108287791Y-56651530D01*
X108522167Y-56808136D01*
X108782593Y-56916007D01*
X109059059Y-56971000D01*
X109340941Y-56971000D01*
X109617407Y-56916007D01*
X109877833Y-56808136D01*
X110112209Y-56651530D01*
X110311530Y-56452209D01*
X110468136Y-56217833D01*
X110576007Y-55957407D01*
X110631000Y-55680941D01*
X110631000Y-55399059D01*
X110576007Y-55122593D01*
X110468136Y-54862167D01*
X110311530Y-54627791D01*
X110112209Y-54428470D01*
X109877833Y-54271864D01*
X109617407Y-54163993D01*
X109340941Y-54109000D01*
X109059059Y-54109000D01*
X108782593Y-54163993D01*
X108522167Y-54271864D01*
X108287791Y-54428470D01*
X108088470Y-54627791D01*
X107931864Y-54862167D01*
X107823993Y-55122593D01*
X107769000Y-55399059D01*
X46307564Y-55399059D01*
X46331000Y-55281243D01*
X46331000Y-55038757D01*
X46283693Y-54800931D01*
X46190898Y-54576903D01*
X46056180Y-54375283D01*
X45884717Y-54203820D01*
X45683097Y-54069102D01*
X45459069Y-53976307D01*
X45221243Y-53929000D01*
X44978757Y-53929000D01*
X44740931Y-53976307D01*
X44516903Y-54069102D01*
X44315283Y-54203820D01*
X44143820Y-54375283D01*
X44009102Y-54576903D01*
X43916307Y-54800931D01*
X43869000Y-55038757D01*
X43869000Y-55281243D01*
X43916307Y-55519069D01*
X43956940Y-55617167D01*
X43659107Y-55915000D01*
X43536036Y-55915000D01*
X43650898Y-55743097D01*
X43743693Y-55519069D01*
X43791000Y-55281243D01*
X43791000Y-55038757D01*
X43743693Y-54800931D01*
X43650898Y-54576903D01*
X43516180Y-54375283D01*
X43344717Y-54203820D01*
X43143097Y-54069102D01*
X42919069Y-53976307D01*
X42681243Y-53929000D01*
X42438757Y-53929000D01*
X42200931Y-53976307D01*
X41976903Y-54069102D01*
X41775283Y-54203820D01*
X41603820Y-54375283D01*
X41469102Y-54576903D01*
X41376307Y-54800931D01*
X41329000Y-55038757D01*
X41329000Y-55281243D01*
X41376307Y-55519069D01*
X41469102Y-55743097D01*
X41583964Y-55915000D01*
X40923816Y-55915000D01*
X40899999Y-55912654D01*
X40876182Y-55915000D01*
X40876180Y-55915000D01*
X40804924Y-55922018D01*
X40713501Y-55949751D01*
X40699178Y-55957407D01*
X40629244Y-55994787D01*
X40573896Y-56040210D01*
X40555394Y-56055394D01*
X40540210Y-56073896D01*
X39292090Y-57322017D01*
X39276922Y-57319000D01*
X39123078Y-57319000D01*
X38972191Y-57349013D01*
X38830058Y-57407887D01*
X38702141Y-57493358D01*
X38593358Y-57602141D01*
X38507887Y-57730058D01*
X38449013Y-57872191D01*
X38419000Y-58023078D01*
X38419000Y-58176922D01*
X38449013Y-58327809D01*
X38507887Y-58469942D01*
X38593358Y-58597859D01*
X38702141Y-58706642D01*
X38830058Y-58792113D01*
X38972191Y-58850987D01*
X39050035Y-58866471D01*
X36785897Y-61130610D01*
X36767395Y-61145794D01*
X36752211Y-61164296D01*
X36752210Y-61164297D01*
X36706787Y-61219645D01*
X36661752Y-61303901D01*
X36634019Y-61395324D01*
X36624654Y-61490400D01*
X36627001Y-61514227D01*
X36627000Y-79427054D01*
X36187403Y-79244967D01*
X35533405Y-79114879D01*
X34866595Y-79114879D01*
X34212597Y-79244967D01*
X33596544Y-79500145D01*
X33042111Y-79870605D01*
X32570605Y-80342111D01*
X32200145Y-80896544D01*
X31944967Y-81512597D01*
X31814879Y-82166595D01*
X31814879Y-82833405D01*
X31944967Y-83487403D01*
X32200145Y-84103456D01*
X32570605Y-84657889D01*
X33042111Y-85129395D01*
X33596544Y-85499855D01*
X34212597Y-85755033D01*
X34866595Y-85885121D01*
X35533405Y-85885121D01*
X36187403Y-85755033D01*
X36803456Y-85499855D01*
X37357889Y-85129395D01*
X37829395Y-84657889D01*
X38199855Y-84103456D01*
X38455033Y-83487403D01*
X38585121Y-82833405D01*
X38585121Y-82166595D01*
X38515729Y-81817735D01*
X43791993Y-87094000D01*
X30406000Y-87094000D01*
X30406000Y-52498757D01*
X41329000Y-52498757D01*
X41329000Y-52741243D01*
X41376307Y-52979069D01*
X41469102Y-53203097D01*
X41603820Y-53404717D01*
X41775283Y-53576180D01*
X41976903Y-53710898D01*
X42200931Y-53803693D01*
X42438757Y-53851000D01*
X42681243Y-53851000D01*
X42919069Y-53803693D01*
X43143097Y-53710898D01*
X43344717Y-53576180D01*
X43516180Y-53404717D01*
X43650898Y-53203097D01*
X43743693Y-52979069D01*
X43791000Y-52741243D01*
X43791000Y-52498757D01*
X43869000Y-52498757D01*
X43869000Y-52741243D01*
X43916307Y-52979069D01*
X44009102Y-53203097D01*
X44143820Y-53404717D01*
X44315283Y-53576180D01*
X44516903Y-53710898D01*
X44740931Y-53803693D01*
X44978757Y-53851000D01*
X45221243Y-53851000D01*
X45459069Y-53803693D01*
X45683097Y-53710898D01*
X45884717Y-53576180D01*
X46056180Y-53404717D01*
X46190898Y-53203097D01*
X46283693Y-52979069D01*
X46331000Y-52741243D01*
X46331000Y-52498757D01*
X46296055Y-52323078D01*
X61719000Y-52323078D01*
X61719000Y-52476922D01*
X61749013Y-52627809D01*
X61807887Y-52769942D01*
X61893358Y-52897859D01*
X62002141Y-53006642D01*
X62130058Y-53092113D01*
X62272191Y-53150987D01*
X62423078Y-53181000D01*
X62576922Y-53181000D01*
X62727809Y-53150987D01*
X62869942Y-53092113D01*
X62997859Y-53006642D01*
X63106642Y-52897859D01*
X63192113Y-52769942D01*
X63250987Y-52627809D01*
X63281000Y-52476922D01*
X63281000Y-52323078D01*
X63277983Y-52307910D01*
X65266834Y-50319059D01*
X107769000Y-50319059D01*
X107769000Y-50600941D01*
X107823993Y-50877407D01*
X107931864Y-51137833D01*
X108088470Y-51372209D01*
X108287791Y-51571530D01*
X108522167Y-51728136D01*
X108782593Y-51836007D01*
X109059059Y-51891000D01*
X109340941Y-51891000D01*
X109617407Y-51836007D01*
X109877833Y-51728136D01*
X110112209Y-51571530D01*
X110311530Y-51372209D01*
X110468136Y-51137833D01*
X110576007Y-50877407D01*
X110631000Y-50600941D01*
X110631000Y-50413229D01*
X160119000Y-50413229D01*
X160119000Y-50586771D01*
X160152856Y-50756978D01*
X160219268Y-50917310D01*
X160315682Y-51061605D01*
X160438395Y-51184318D01*
X160582690Y-51280732D01*
X160743022Y-51347144D01*
X160913229Y-51381000D01*
X161086771Y-51381000D01*
X161256978Y-51347144D01*
X161417310Y-51280732D01*
X161454324Y-51256000D01*
X171154790Y-51256000D01*
X171932169Y-52152978D01*
X171952856Y-52256978D01*
X172019268Y-52417310D01*
X172115682Y-52561605D01*
X172238395Y-52684318D01*
X172382690Y-52780732D01*
X172543022Y-52847144D01*
X172713229Y-52881000D01*
X172886771Y-52881000D01*
X173056978Y-52847144D01*
X173217310Y-52780732D01*
X173361605Y-52684318D01*
X173484318Y-52561605D01*
X173580732Y-52417310D01*
X173647144Y-52256978D01*
X173681000Y-52086771D01*
X173681000Y-51913229D01*
X173647144Y-51743022D01*
X173580732Y-51582690D01*
X173484318Y-51438395D01*
X173361605Y-51315682D01*
X173217310Y-51219268D01*
X173071395Y-51158828D01*
X172077948Y-50012543D01*
X172037159Y-49962841D01*
X172000432Y-49932700D01*
X171965971Y-49900043D01*
X171943023Y-49885585D01*
X171922043Y-49868368D01*
X171880151Y-49845977D01*
X171839973Y-49820664D01*
X171814638Y-49810959D01*
X171790708Y-49798168D01*
X171745256Y-49784381D01*
X171700908Y-49767392D01*
X171674164Y-49762815D01*
X171648202Y-49754940D01*
X171600944Y-49750285D01*
X171554123Y-49742273D01*
X171489867Y-49744000D01*
X161454324Y-49744000D01*
X161417310Y-49719268D01*
X161256978Y-49652856D01*
X161086771Y-49619000D01*
X160913229Y-49619000D01*
X160743022Y-49652856D01*
X160582690Y-49719268D01*
X160438395Y-49815682D01*
X160315682Y-49938395D01*
X160219268Y-50082690D01*
X160152856Y-50243022D01*
X160119000Y-50413229D01*
X110631000Y-50413229D01*
X110631000Y-50319059D01*
X110576007Y-50042593D01*
X110468136Y-49782167D01*
X110311530Y-49547791D01*
X110112209Y-49348470D01*
X109877833Y-49191864D01*
X109617407Y-49083993D01*
X109340941Y-49029000D01*
X109059059Y-49029000D01*
X108782593Y-49083993D01*
X108522167Y-49191864D01*
X108287791Y-49348470D01*
X108088470Y-49547791D01*
X107931864Y-49782167D01*
X107823993Y-50042593D01*
X107769000Y-50319059D01*
X65266834Y-50319059D01*
X65607910Y-49977983D01*
X65623078Y-49981000D01*
X65776922Y-49981000D01*
X65927809Y-49950987D01*
X66069942Y-49892113D01*
X66197859Y-49806642D01*
X66306642Y-49697859D01*
X66392113Y-49569942D01*
X66450987Y-49427809D01*
X66481000Y-49276922D01*
X66481000Y-49123078D01*
X66450987Y-48972191D01*
X66392113Y-48830058D01*
X66306642Y-48702141D01*
X66197859Y-48593358D01*
X66069942Y-48507887D01*
X65927809Y-48449013D01*
X65776922Y-48419000D01*
X65623078Y-48419000D01*
X65472191Y-48449013D01*
X65330058Y-48507887D01*
X65202141Y-48593358D01*
X65093358Y-48702141D01*
X65007887Y-48830058D01*
X64949013Y-48972191D01*
X64919000Y-49123078D01*
X64919000Y-49276922D01*
X64922017Y-49292090D01*
X62592090Y-51622017D01*
X62576922Y-51619000D01*
X62423078Y-51619000D01*
X62272191Y-51649013D01*
X62130058Y-51707887D01*
X62002141Y-51793358D01*
X61893358Y-51902141D01*
X61807887Y-52030058D01*
X61749013Y-52172191D01*
X61719000Y-52323078D01*
X46296055Y-52323078D01*
X46283693Y-52260931D01*
X46190898Y-52036903D01*
X46056180Y-51835283D01*
X45884717Y-51663820D01*
X45683097Y-51529102D01*
X45459069Y-51436307D01*
X45221243Y-51389000D01*
X44978757Y-51389000D01*
X44740931Y-51436307D01*
X44516903Y-51529102D01*
X44315283Y-51663820D01*
X44143820Y-51835283D01*
X44009102Y-52036903D01*
X43916307Y-52260931D01*
X43869000Y-52498757D01*
X43791000Y-52498757D01*
X43743693Y-52260931D01*
X43650898Y-52036903D01*
X43516180Y-51835283D01*
X43344717Y-51663820D01*
X43143097Y-51529102D01*
X42919069Y-51436307D01*
X42681243Y-51389000D01*
X42438757Y-51389000D01*
X42200931Y-51436307D01*
X41976903Y-51529102D01*
X41775283Y-51663820D01*
X41603820Y-51835283D01*
X41469102Y-52036903D01*
X41376307Y-52260931D01*
X41329000Y-52498757D01*
X30406000Y-52498757D01*
X30406000Y-49958757D01*
X41329000Y-49958757D01*
X41329000Y-50201243D01*
X41376307Y-50439069D01*
X41469102Y-50663097D01*
X41603820Y-50864717D01*
X41775283Y-51036180D01*
X41976903Y-51170898D01*
X42200931Y-51263693D01*
X42438757Y-51311000D01*
X42681243Y-51311000D01*
X42919069Y-51263693D01*
X43143097Y-51170898D01*
X43344717Y-51036180D01*
X43516180Y-50864717D01*
X43650898Y-50663097D01*
X43743693Y-50439069D01*
X43791000Y-50201243D01*
X43791000Y-49958757D01*
X43869000Y-49958757D01*
X43869000Y-50201243D01*
X43916307Y-50439069D01*
X44009102Y-50663097D01*
X44143820Y-50864717D01*
X44315283Y-51036180D01*
X44516903Y-51170898D01*
X44740931Y-51263693D01*
X44978757Y-51311000D01*
X45221243Y-51311000D01*
X45459069Y-51263693D01*
X45683097Y-51170898D01*
X45884717Y-51036180D01*
X46056180Y-50864717D01*
X46190898Y-50663097D01*
X46283693Y-50439069D01*
X46331000Y-50201243D01*
X46331000Y-49958757D01*
X46283693Y-49720931D01*
X46190898Y-49496903D01*
X46056180Y-49295283D01*
X45884717Y-49123820D01*
X45683097Y-48989102D01*
X45459069Y-48896307D01*
X45221243Y-48849000D01*
X44978757Y-48849000D01*
X44740931Y-48896307D01*
X44516903Y-48989102D01*
X44315283Y-49123820D01*
X44143820Y-49295283D01*
X44009102Y-49496903D01*
X43916307Y-49720931D01*
X43869000Y-49958757D01*
X43791000Y-49958757D01*
X43743693Y-49720931D01*
X43650898Y-49496903D01*
X43516180Y-49295283D01*
X43344717Y-49123820D01*
X43143097Y-48989102D01*
X42919069Y-48896307D01*
X42681243Y-48849000D01*
X42438757Y-48849000D01*
X42200931Y-48896307D01*
X41976903Y-48989102D01*
X41775283Y-49123820D01*
X41603820Y-49295283D01*
X41469102Y-49496903D01*
X41376307Y-49720931D01*
X41329000Y-49958757D01*
X30406000Y-49958757D01*
X30406000Y-47856980D01*
X41370511Y-47856980D01*
X41394866Y-47937288D01*
X41494761Y-48156961D01*
X41635592Y-48352924D01*
X41811948Y-48517647D01*
X42017051Y-48644799D01*
X42243019Y-48729495D01*
X42433000Y-48669187D01*
X42433000Y-47667000D01*
X42687000Y-47667000D01*
X42687000Y-48669187D01*
X42876981Y-48729495D01*
X43102949Y-48644799D01*
X43308052Y-48517647D01*
X43484408Y-48352924D01*
X43625239Y-48156961D01*
X43725134Y-47937288D01*
X43749489Y-47856980D01*
X43688627Y-47667000D01*
X42687000Y-47667000D01*
X42433000Y-47667000D01*
X41431373Y-47667000D01*
X41370511Y-47856980D01*
X30406000Y-47856980D01*
X30406000Y-47418757D01*
X43869000Y-47418757D01*
X43869000Y-47661243D01*
X43916307Y-47899069D01*
X44009102Y-48123097D01*
X44143820Y-48324717D01*
X44315283Y-48496180D01*
X44516903Y-48630898D01*
X44740931Y-48723693D01*
X44978757Y-48771000D01*
X45221243Y-48771000D01*
X45459069Y-48723693D01*
X45683097Y-48630898D01*
X45884717Y-48496180D01*
X46056180Y-48324717D01*
X46190898Y-48123097D01*
X46283693Y-47899069D01*
X46331000Y-47661243D01*
X46331000Y-47418757D01*
X46283693Y-47180931D01*
X46190898Y-46956903D01*
X46056180Y-46755283D01*
X45884717Y-46583820D01*
X45683097Y-46449102D01*
X45459069Y-46356307D01*
X45221243Y-46309000D01*
X44978757Y-46309000D01*
X44740931Y-46356307D01*
X44516903Y-46449102D01*
X44315283Y-46583820D01*
X44143820Y-46755283D01*
X44009102Y-46956903D01*
X43916307Y-47180931D01*
X43869000Y-47418757D01*
X30406000Y-47418757D01*
X30406000Y-47223020D01*
X41370511Y-47223020D01*
X41431373Y-47413000D01*
X42433000Y-47413000D01*
X42433000Y-46410813D01*
X42687000Y-46410813D01*
X42687000Y-47413000D01*
X43688627Y-47413000D01*
X43749489Y-47223020D01*
X43725134Y-47142712D01*
X43625239Y-46923039D01*
X43484408Y-46727076D01*
X43308052Y-46562353D01*
X43102949Y-46435201D01*
X42876981Y-46350505D01*
X42687000Y-46410813D01*
X42433000Y-46410813D01*
X42243019Y-46350505D01*
X42017051Y-46435201D01*
X41811948Y-46562353D01*
X41635592Y-46727076D01*
X41494761Y-46923039D01*
X41394866Y-47142712D01*
X41370511Y-47223020D01*
X30406000Y-47223020D01*
X30406000Y-42427000D01*
X54219000Y-42427000D01*
X54219000Y-43477000D01*
X54262626Y-43665943D01*
X54342275Y-43842745D01*
X54454886Y-44000611D01*
X54596131Y-44133474D01*
X54760582Y-44236229D01*
X54922393Y-44290902D01*
X55073000Y-44226598D01*
X55073000Y-42427000D01*
X55327000Y-42427000D01*
X55327000Y-44226598D01*
X55477607Y-44290902D01*
X55639418Y-44236229D01*
X55803869Y-44133474D01*
X55945114Y-44000611D01*
X56057725Y-43842745D01*
X56137374Y-43665943D01*
X56181000Y-43477000D01*
X56181000Y-42427000D01*
X55327000Y-42427000D01*
X55073000Y-42427000D01*
X54219000Y-42427000D01*
X30406000Y-42427000D01*
X30406000Y-41123000D01*
X54219000Y-41123000D01*
X54219000Y-42173000D01*
X55073000Y-42173000D01*
X55073000Y-40373402D01*
X55327000Y-40373402D01*
X55327000Y-42173000D01*
X56181000Y-42173000D01*
X56181000Y-41123000D01*
X56170379Y-41077000D01*
X59119000Y-41077000D01*
X59119000Y-42127000D01*
X59162626Y-42315943D01*
X59242275Y-42492745D01*
X59354886Y-42650611D01*
X59496131Y-42783474D01*
X59660582Y-42886229D01*
X59822393Y-42940902D01*
X59973000Y-42876598D01*
X59973000Y-41077000D01*
X60227000Y-41077000D01*
X60227000Y-42876598D01*
X60377607Y-42940902D01*
X60539418Y-42886229D01*
X60703869Y-42783474D01*
X60845114Y-42650611D01*
X60957725Y-42492745D01*
X61037374Y-42315943D01*
X61081000Y-42127000D01*
X61081000Y-41077000D01*
X60227000Y-41077000D01*
X59973000Y-41077000D01*
X59119000Y-41077000D01*
X56170379Y-41077000D01*
X56137374Y-40934057D01*
X56057725Y-40757255D01*
X55945114Y-40599389D01*
X55803869Y-40466526D01*
X55639418Y-40363771D01*
X55477607Y-40309098D01*
X55327000Y-40373402D01*
X55073000Y-40373402D01*
X54922393Y-40309098D01*
X54760582Y-40363771D01*
X54596131Y-40466526D01*
X54454886Y-40599389D01*
X54342275Y-40757255D01*
X54262626Y-40934057D01*
X54219000Y-41123000D01*
X30406000Y-41123000D01*
X30406000Y-34866595D01*
X31814879Y-34866595D01*
X31814879Y-35533405D01*
X31944967Y-36187403D01*
X32200145Y-36803456D01*
X32570605Y-37357889D01*
X33042111Y-37829395D01*
X33596544Y-38199855D01*
X34212597Y-38455033D01*
X34866595Y-38585121D01*
X35533405Y-38585121D01*
X36187403Y-38455033D01*
X36278739Y-38417200D01*
X42224000Y-38417200D01*
X42224000Y-38782800D01*
X42295325Y-39141375D01*
X42435234Y-39479145D01*
X42638351Y-39783131D01*
X42896869Y-40041649D01*
X43200855Y-40244766D01*
X43538625Y-40384675D01*
X43897200Y-40456000D01*
X44262800Y-40456000D01*
X44621375Y-40384675D01*
X44959145Y-40244766D01*
X45263131Y-40041649D01*
X45521649Y-39783131D01*
X45528418Y-39773000D01*
X59119000Y-39773000D01*
X59119000Y-40823000D01*
X59973000Y-40823000D01*
X59973000Y-40803000D01*
X60227000Y-40803000D01*
X60227000Y-40823000D01*
X61081000Y-40823000D01*
X61081000Y-39773000D01*
X61037374Y-39584057D01*
X60957725Y-39407255D01*
X60857467Y-39266706D01*
X60877229Y-39260711D01*
X61047651Y-39169618D01*
X61197028Y-39047028D01*
X61319618Y-38897651D01*
X61410711Y-38727229D01*
X61466805Y-38542310D01*
X61481000Y-38398187D01*
X61481000Y-37427000D01*
X64519000Y-37427000D01*
X64519000Y-38477000D01*
X64562626Y-38665943D01*
X64642275Y-38842745D01*
X64754886Y-39000611D01*
X64896131Y-39133474D01*
X65060582Y-39236229D01*
X65150692Y-39266676D01*
X65080382Y-39352349D01*
X64989289Y-39522772D01*
X64933195Y-39707691D01*
X64919000Y-39851814D01*
X64919001Y-42048187D01*
X64933196Y-42192310D01*
X64989290Y-42377229D01*
X65080383Y-42547651D01*
X65202973Y-42697028D01*
X65352350Y-42819618D01*
X65522772Y-42910711D01*
X65707691Y-42966805D01*
X65900000Y-42985746D01*
X66092310Y-42966805D01*
X66277229Y-42910711D01*
X66447651Y-42819618D01*
X66597028Y-42697028D01*
X66719618Y-42547651D01*
X66784107Y-42427000D01*
X69819000Y-42427000D01*
X69819000Y-43477000D01*
X69862626Y-43665943D01*
X69942275Y-43842745D01*
X70054886Y-44000611D01*
X70196131Y-44133474D01*
X70360582Y-44236229D01*
X70522393Y-44290902D01*
X70673000Y-44226598D01*
X70673000Y-42427000D01*
X70927000Y-42427000D01*
X70927000Y-44226598D01*
X71077607Y-44290902D01*
X71239418Y-44236229D01*
X71403869Y-44133474D01*
X71545114Y-44000611D01*
X71657725Y-43842745D01*
X71737374Y-43665943D01*
X71781000Y-43477000D01*
X71781000Y-42427000D01*
X70927000Y-42427000D01*
X70673000Y-42427000D01*
X69819000Y-42427000D01*
X66784107Y-42427000D01*
X66810711Y-42377229D01*
X66857471Y-42223078D01*
X98819000Y-42223078D01*
X98819000Y-42376922D01*
X98849013Y-42527809D01*
X98907887Y-42669942D01*
X98993358Y-42797859D01*
X99102141Y-42906642D01*
X99115000Y-42915234D01*
X99115001Y-45276173D01*
X99112654Y-45300000D01*
X99122019Y-45395076D01*
X99149752Y-45486499D01*
X99194787Y-45570755D01*
X99240210Y-45626103D01*
X99255395Y-45644606D01*
X99273897Y-45659790D01*
X99522017Y-45907910D01*
X99519000Y-45923078D01*
X99519000Y-46076922D01*
X99549013Y-46227809D01*
X99607887Y-46369942D01*
X99693358Y-46497859D01*
X99802141Y-46606642D01*
X99930058Y-46692113D01*
X100072191Y-46750987D01*
X100223078Y-46781000D01*
X100376922Y-46781000D01*
X100527809Y-46750987D01*
X100669942Y-46692113D01*
X100797859Y-46606642D01*
X100906642Y-46497859D01*
X100992113Y-46369942D01*
X101050987Y-46227809D01*
X101081000Y-46076922D01*
X101081000Y-45923078D01*
X101050987Y-45772191D01*
X100992113Y-45630058D01*
X100906642Y-45502141D01*
X100797859Y-45393358D01*
X100669942Y-45307887D01*
X100527809Y-45249013D01*
X100376922Y-45219000D01*
X100223078Y-45219000D01*
X100207910Y-45222017D01*
X100085000Y-45099107D01*
X100085000Y-42915234D01*
X100097859Y-42906642D01*
X100206642Y-42797859D01*
X100292113Y-42669942D01*
X100350987Y-42527809D01*
X100381000Y-42376922D01*
X100381000Y-42223078D01*
X100350987Y-42072191D01*
X100292113Y-41930058D01*
X100206642Y-41802141D01*
X100097859Y-41693358D01*
X99969942Y-41607887D01*
X99875840Y-41568908D01*
X100819000Y-41568908D01*
X100819000Y-41831092D01*
X100870150Y-42088238D01*
X100970483Y-42330465D01*
X101116145Y-42548463D01*
X101301537Y-42733855D01*
X101519535Y-42879517D01*
X101761762Y-42979850D01*
X102018908Y-43031000D01*
X102281092Y-43031000D01*
X102538238Y-42979850D01*
X102780465Y-42879517D01*
X102946002Y-42768908D01*
X105919000Y-42768908D01*
X105919000Y-43031092D01*
X105970150Y-43288238D01*
X106070483Y-43530465D01*
X106216145Y-43748463D01*
X106401537Y-43933855D01*
X106619535Y-44079517D01*
X106861762Y-44179850D01*
X107118908Y-44231000D01*
X107381092Y-44231000D01*
X107638238Y-44179850D01*
X107880465Y-44079517D01*
X108098463Y-43933855D01*
X108283855Y-43748463D01*
X108429517Y-43530465D01*
X108529850Y-43288238D01*
X108581000Y-43031092D01*
X108581000Y-42768908D01*
X108529850Y-42511762D01*
X108429517Y-42269535D01*
X108283855Y-42051537D01*
X108098463Y-41866145D01*
X107880465Y-41720483D01*
X107638238Y-41620150D01*
X107381092Y-41569000D01*
X107118908Y-41569000D01*
X106861762Y-41620150D01*
X106619535Y-41720483D01*
X106401537Y-41866145D01*
X106216145Y-42051537D01*
X106070483Y-42269535D01*
X105970150Y-42511762D01*
X105919000Y-42768908D01*
X102946002Y-42768908D01*
X102998463Y-42733855D01*
X103183855Y-42548463D01*
X103329517Y-42330465D01*
X103429850Y-42088238D01*
X103481000Y-41831092D01*
X103481000Y-41568908D01*
X103429850Y-41311762D01*
X103329517Y-41069535D01*
X103183855Y-40851537D01*
X102998463Y-40666145D01*
X102780465Y-40520483D01*
X102538238Y-40420150D01*
X102281092Y-40369000D01*
X102018908Y-40369000D01*
X101761762Y-40420150D01*
X101519535Y-40520483D01*
X101301537Y-40666145D01*
X101116145Y-40851537D01*
X100970483Y-41069535D01*
X100870150Y-41311762D01*
X100819000Y-41568908D01*
X99875840Y-41568908D01*
X99827809Y-41549013D01*
X99676922Y-41519000D01*
X99523078Y-41519000D01*
X99372191Y-41549013D01*
X99230058Y-41607887D01*
X99102141Y-41693358D01*
X98993358Y-41802141D01*
X98907887Y-41930058D01*
X98849013Y-42072191D01*
X98819000Y-42223078D01*
X66857471Y-42223078D01*
X66866805Y-42192310D01*
X66881000Y-42048187D01*
X66881000Y-41123000D01*
X69819000Y-41123000D01*
X69819000Y-42173000D01*
X70673000Y-42173000D01*
X70673000Y-40373402D01*
X70927000Y-40373402D01*
X70927000Y-42173000D01*
X71781000Y-42173000D01*
X71781000Y-41123000D01*
X71737374Y-40934057D01*
X71657725Y-40757255D01*
X71545114Y-40599389D01*
X71403869Y-40466526D01*
X71239418Y-40363771D01*
X71077607Y-40309098D01*
X70927000Y-40373402D01*
X70673000Y-40373402D01*
X70522393Y-40309098D01*
X70360582Y-40363771D01*
X70196131Y-40466526D01*
X70054886Y-40599389D01*
X69942275Y-40757255D01*
X69862626Y-40934057D01*
X69819000Y-41123000D01*
X66881000Y-41123000D01*
X66881000Y-39851813D01*
X66866805Y-39707690D01*
X66810711Y-39522771D01*
X66719618Y-39352349D01*
X66597028Y-39202972D01*
X66447651Y-39080382D01*
X66277228Y-38989289D01*
X66257466Y-38983294D01*
X66357725Y-38842745D01*
X66437374Y-38665943D01*
X66481000Y-38477000D01*
X66481000Y-37427000D01*
X65627000Y-37427000D01*
X65627000Y-37447000D01*
X65373000Y-37447000D01*
X65373000Y-37427000D01*
X64519000Y-37427000D01*
X61481000Y-37427000D01*
X61481000Y-36201813D01*
X61473238Y-36123000D01*
X64519000Y-36123000D01*
X64519000Y-37173000D01*
X65373000Y-37173000D01*
X65373000Y-35373402D01*
X65627000Y-35373402D01*
X65627000Y-37173000D01*
X66481000Y-37173000D01*
X66481000Y-36123000D01*
X66437374Y-35934057D01*
X66357725Y-35757255D01*
X66245114Y-35599389D01*
X66103869Y-35466526D01*
X65939418Y-35363771D01*
X65777607Y-35309098D01*
X65627000Y-35373402D01*
X65373000Y-35373402D01*
X65222393Y-35309098D01*
X65060582Y-35363771D01*
X64896131Y-35466526D01*
X64754886Y-35599389D01*
X64642275Y-35757255D01*
X64562626Y-35934057D01*
X64519000Y-36123000D01*
X61473238Y-36123000D01*
X61466805Y-36057690D01*
X61410711Y-35872771D01*
X61319618Y-35702349D01*
X61197028Y-35552972D01*
X61047651Y-35430382D01*
X60877228Y-35339289D01*
X60692309Y-35283195D01*
X60500000Y-35264254D01*
X60307690Y-35283195D01*
X60122771Y-35339289D01*
X59952349Y-35430382D01*
X59802972Y-35552972D01*
X59680382Y-35702349D01*
X59589289Y-35872772D01*
X59533195Y-36057691D01*
X59519000Y-36201814D01*
X59519001Y-38398187D01*
X59533196Y-38542310D01*
X59589290Y-38727229D01*
X59680383Y-38897651D01*
X59750693Y-38983324D01*
X59660582Y-39013771D01*
X59496131Y-39116526D01*
X59354886Y-39249389D01*
X59242275Y-39407255D01*
X59162626Y-39584057D01*
X59119000Y-39773000D01*
X45528418Y-39773000D01*
X45724766Y-39479145D01*
X45864675Y-39141375D01*
X45936000Y-38782800D01*
X45936000Y-38417200D01*
X45864675Y-38058625D01*
X45724766Y-37720855D01*
X45521649Y-37416869D01*
X45263131Y-37158351D01*
X44959145Y-36955234D01*
X44621375Y-36815325D01*
X44262800Y-36744000D01*
X43897200Y-36744000D01*
X43538625Y-36815325D01*
X43200855Y-36955234D01*
X42896869Y-37158351D01*
X42638351Y-37416869D01*
X42435234Y-37720855D01*
X42295325Y-38058625D01*
X42224000Y-38417200D01*
X36278739Y-38417200D01*
X36803456Y-38199855D01*
X37357889Y-37829395D01*
X37829395Y-37357889D01*
X38199855Y-36803456D01*
X38455033Y-36187403D01*
X38585121Y-35533405D01*
X38585121Y-35226995D01*
X53952611Y-35226995D01*
X54135092Y-35481785D01*
X54483654Y-35657223D01*
X54859744Y-35761289D01*
X55248911Y-35789984D01*
X55636198Y-35742205D01*
X56006722Y-35619788D01*
X56264908Y-35481785D01*
X56447389Y-35226995D01*
X69552611Y-35226995D01*
X69735092Y-35481785D01*
X70083654Y-35657223D01*
X70459744Y-35761289D01*
X70848911Y-35789984D01*
X71236198Y-35742205D01*
X71606722Y-35619788D01*
X71864908Y-35481785D01*
X72047389Y-35226995D01*
X70800000Y-33979605D01*
X69552611Y-35226995D01*
X56447389Y-35226995D01*
X55200000Y-33979605D01*
X53952611Y-35226995D01*
X38585121Y-35226995D01*
X38585121Y-34866595D01*
X38455033Y-34212597D01*
X38304390Y-33848911D01*
X53210016Y-33848911D01*
X53257795Y-34236198D01*
X53380212Y-34606722D01*
X53518215Y-34864908D01*
X53773005Y-35047389D01*
X55020395Y-33800000D01*
X55379605Y-33800000D01*
X56626995Y-35047389D01*
X56881785Y-34864908D01*
X57057223Y-34516346D01*
X57161289Y-34140256D01*
X57189984Y-33751089D01*
X57181061Y-33678757D01*
X59269000Y-33678757D01*
X59269000Y-33921243D01*
X59316307Y-34159069D01*
X59409102Y-34383097D01*
X59543820Y-34584717D01*
X59715283Y-34756180D01*
X59916903Y-34890898D01*
X60140931Y-34983693D01*
X60378757Y-35031000D01*
X60621243Y-35031000D01*
X60859069Y-34983693D01*
X61083097Y-34890898D01*
X61284717Y-34756180D01*
X61456180Y-34584717D01*
X61590898Y-34383097D01*
X61683693Y-34159069D01*
X61731000Y-33921243D01*
X61731000Y-33678757D01*
X64269000Y-33678757D01*
X64269000Y-33921243D01*
X64316307Y-34159069D01*
X64409102Y-34383097D01*
X64543820Y-34584717D01*
X64715283Y-34756180D01*
X64916903Y-34890898D01*
X65140931Y-34983693D01*
X65378757Y-35031000D01*
X65621243Y-35031000D01*
X65859069Y-34983693D01*
X66083097Y-34890898D01*
X66284717Y-34756180D01*
X66456180Y-34584717D01*
X66590898Y-34383097D01*
X66683693Y-34159069D01*
X66731000Y-33921243D01*
X66731000Y-33848911D01*
X68810016Y-33848911D01*
X68857795Y-34236198D01*
X68980212Y-34606722D01*
X69118215Y-34864908D01*
X69373005Y-35047389D01*
X70620395Y-33800000D01*
X70979605Y-33800000D01*
X72226995Y-35047389D01*
X72481785Y-34864908D01*
X72547190Y-34734960D01*
X77704645Y-34734960D01*
X77820857Y-34933408D01*
X78075685Y-35053908D01*
X78349125Y-35122378D01*
X78630669Y-35136187D01*
X78909497Y-35094804D01*
X79174894Y-34999820D01*
X79299143Y-34933408D01*
X79415355Y-34734960D01*
X82784645Y-34734960D01*
X82900857Y-34933408D01*
X83155685Y-35053908D01*
X83429125Y-35122378D01*
X83710669Y-35136187D01*
X83989497Y-35094804D01*
X84254894Y-34999820D01*
X84379143Y-34933408D01*
X84418268Y-34866595D01*
X195614879Y-34866595D01*
X195614879Y-35533405D01*
X195744967Y-36187403D01*
X196000145Y-36803456D01*
X196370605Y-37357889D01*
X196842111Y-37829395D01*
X197396544Y-38199855D01*
X198012597Y-38455033D01*
X198666595Y-38585121D01*
X199333405Y-38585121D01*
X199987403Y-38455033D01*
X200603456Y-38199855D01*
X201157889Y-37829395D01*
X201629395Y-37357889D01*
X201999855Y-36803456D01*
X202255033Y-36187403D01*
X202385121Y-35533405D01*
X202385121Y-34866595D01*
X202255033Y-34212597D01*
X201999855Y-33596544D01*
X201629395Y-33042111D01*
X201157889Y-32570605D01*
X200603456Y-32200145D01*
X199987403Y-31944967D01*
X199333405Y-31814879D01*
X198666595Y-31814879D01*
X198012597Y-31944967D01*
X197396544Y-32200145D01*
X196842111Y-32570605D01*
X196370605Y-33042111D01*
X196000145Y-33596544D01*
X195744967Y-34212597D01*
X195614879Y-34866595D01*
X84418268Y-34866595D01*
X84495355Y-34734960D01*
X83640000Y-33879605D01*
X82784645Y-34734960D01*
X79415355Y-34734960D01*
X78560000Y-33879605D01*
X77704645Y-34734960D01*
X72547190Y-34734960D01*
X72657223Y-34516346D01*
X72761289Y-34140256D01*
X72788540Y-33770669D01*
X77123813Y-33770669D01*
X77165196Y-34049497D01*
X77260180Y-34314894D01*
X77326592Y-34439143D01*
X77525040Y-34555355D01*
X78380395Y-33700000D01*
X78739605Y-33700000D01*
X79594960Y-34555355D01*
X79793408Y-34439143D01*
X79913908Y-34184315D01*
X79982378Y-33910875D01*
X79989254Y-33770669D01*
X82203813Y-33770669D01*
X82245196Y-34049497D01*
X82340180Y-34314894D01*
X82406592Y-34439143D01*
X82605040Y-34555355D01*
X83460395Y-33700000D01*
X83819605Y-33700000D01*
X84674960Y-34555355D01*
X84873408Y-34439143D01*
X84993908Y-34184315D01*
X85062378Y-33910875D01*
X85076187Y-33629331D01*
X85034804Y-33350503D01*
X84939820Y-33085106D01*
X84873408Y-32960857D01*
X84674960Y-32844645D01*
X83819605Y-33700000D01*
X83460395Y-33700000D01*
X82605040Y-32844645D01*
X82406592Y-32960857D01*
X82286092Y-33215685D01*
X82217622Y-33489125D01*
X82203813Y-33770669D01*
X79989254Y-33770669D01*
X79996187Y-33629331D01*
X79954804Y-33350503D01*
X79859820Y-33085106D01*
X79793408Y-32960857D01*
X79594960Y-32844645D01*
X78739605Y-33700000D01*
X78380395Y-33700000D01*
X77525040Y-32844645D01*
X77326592Y-32960857D01*
X77206092Y-33215685D01*
X77137622Y-33489125D01*
X77123813Y-33770669D01*
X72788540Y-33770669D01*
X72789984Y-33751089D01*
X72742205Y-33363802D01*
X72619788Y-32993278D01*
X72481785Y-32735092D01*
X72383975Y-32665040D01*
X77704645Y-32665040D01*
X78560000Y-33520395D01*
X79415355Y-32665040D01*
X82784645Y-32665040D01*
X83640000Y-33520395D01*
X84495355Y-32665040D01*
X84379143Y-32466592D01*
X84124315Y-32346092D01*
X83850875Y-32277622D01*
X83569331Y-32263813D01*
X83290503Y-32305196D01*
X83025106Y-32400180D01*
X82900857Y-32466592D01*
X82784645Y-32665040D01*
X79415355Y-32665040D01*
X79299143Y-32466592D01*
X79044315Y-32346092D01*
X78770875Y-32277622D01*
X78489331Y-32263813D01*
X78210503Y-32305196D01*
X77945106Y-32400180D01*
X77820857Y-32466592D01*
X77704645Y-32665040D01*
X72383975Y-32665040D01*
X72226995Y-32552611D01*
X70979605Y-33800000D01*
X70620395Y-33800000D01*
X69373005Y-32552611D01*
X69118215Y-32735092D01*
X68942777Y-33083654D01*
X68838711Y-33459744D01*
X68810016Y-33848911D01*
X66731000Y-33848911D01*
X66731000Y-33678757D01*
X66683693Y-33440931D01*
X66590898Y-33216903D01*
X66456180Y-33015283D01*
X66284717Y-32843820D01*
X66083097Y-32709102D01*
X65859069Y-32616307D01*
X65621243Y-32569000D01*
X65378757Y-32569000D01*
X65140931Y-32616307D01*
X64916903Y-32709102D01*
X64715283Y-32843820D01*
X64543820Y-33015283D01*
X64409102Y-33216903D01*
X64316307Y-33440931D01*
X64269000Y-33678757D01*
X61731000Y-33678757D01*
X61683693Y-33440931D01*
X61590898Y-33216903D01*
X61456180Y-33015283D01*
X61284717Y-32843820D01*
X61083097Y-32709102D01*
X60859069Y-32616307D01*
X60621243Y-32569000D01*
X60378757Y-32569000D01*
X60140931Y-32616307D01*
X59916903Y-32709102D01*
X59715283Y-32843820D01*
X59543820Y-33015283D01*
X59409102Y-33216903D01*
X59316307Y-33440931D01*
X59269000Y-33678757D01*
X57181061Y-33678757D01*
X57142205Y-33363802D01*
X57019788Y-32993278D01*
X56881785Y-32735092D01*
X56626995Y-32552611D01*
X55379605Y-33800000D01*
X55020395Y-33800000D01*
X53773005Y-32552611D01*
X53518215Y-32735092D01*
X53342777Y-33083654D01*
X53238711Y-33459744D01*
X53210016Y-33848911D01*
X38304390Y-33848911D01*
X38199855Y-33596544D01*
X37829395Y-33042111D01*
X37357889Y-32570605D01*
X37062160Y-32373005D01*
X53952611Y-32373005D01*
X55200000Y-33620395D01*
X56447389Y-32373005D01*
X56264908Y-32118215D01*
X55916346Y-31942777D01*
X55540256Y-31838711D01*
X55151089Y-31810016D01*
X54763802Y-31857795D01*
X54393278Y-31980212D01*
X54135092Y-32118215D01*
X53952611Y-32373005D01*
X37062160Y-32373005D01*
X36803456Y-32200145D01*
X36187403Y-31944967D01*
X35533405Y-31814879D01*
X34866595Y-31814879D01*
X34212597Y-31944967D01*
X33596544Y-32200145D01*
X33042111Y-32570605D01*
X32570605Y-33042111D01*
X32200145Y-33596544D01*
X31944967Y-34212597D01*
X31814879Y-34866595D01*
X30406000Y-34866595D01*
X30406000Y-31800000D01*
X61213286Y-31800000D01*
X61236088Y-32031516D01*
X61303619Y-32254136D01*
X61413283Y-32459303D01*
X61560866Y-32639134D01*
X61740697Y-32786717D01*
X61945864Y-32896381D01*
X62168484Y-32963912D01*
X62341984Y-32981000D01*
X63658016Y-32981000D01*
X63831516Y-32963912D01*
X64054136Y-32896381D01*
X64259303Y-32786717D01*
X64439134Y-32639134D01*
X64586717Y-32459303D01*
X64632844Y-32373005D01*
X69552611Y-32373005D01*
X70800000Y-33620395D01*
X72047389Y-32373005D01*
X71864908Y-32118215D01*
X71516346Y-31942777D01*
X71140256Y-31838711D01*
X70751089Y-31810016D01*
X70363802Y-31857795D01*
X69993278Y-31980212D01*
X69735092Y-32118215D01*
X69552611Y-32373005D01*
X64632844Y-32373005D01*
X64696381Y-32254136D01*
X64763912Y-32031516D01*
X64786714Y-31800000D01*
X64763912Y-31568484D01*
X64696381Y-31345864D01*
X64586717Y-31140697D01*
X64439134Y-30960866D01*
X64259303Y-30813283D01*
X64054136Y-30703619D01*
X63831516Y-30636088D01*
X63658016Y-30619000D01*
X62341984Y-30619000D01*
X62168484Y-30636088D01*
X61945864Y-30703619D01*
X61740697Y-30813283D01*
X61560866Y-30960866D01*
X61413283Y-31140697D01*
X61303619Y-31345864D01*
X61236088Y-31568484D01*
X61213286Y-31800000D01*
X30406000Y-31800000D01*
X30406000Y-30406000D01*
X203594001Y-30406000D01*
X203594000Y-87094000D01*
%TA.AperFunction,Conductor*%
D32*
G36*
X203594000Y-87094000D02*
G01*
X175591893Y-87094000D01*
X176326104Y-86359790D01*
X176344606Y-86344606D01*
X176369031Y-86314844D01*
X176405213Y-86270756D01*
X176440246Y-86205213D01*
X176450249Y-86186499D01*
X176477982Y-86095076D01*
X176485000Y-86023820D01*
X176485000Y-86023817D01*
X176487346Y-86000000D01*
X176485000Y-85976183D01*
X176485000Y-82166595D01*
X195614879Y-82166595D01*
X195614879Y-82833405D01*
X195744967Y-83487403D01*
X196000145Y-84103456D01*
X196370605Y-84657889D01*
X196842111Y-85129395D01*
X197396544Y-85499855D01*
X198012597Y-85755033D01*
X198666595Y-85885121D01*
X199333405Y-85885121D01*
X199987403Y-85755033D01*
X200603456Y-85499855D01*
X201157889Y-85129395D01*
X201629395Y-84657889D01*
X201999855Y-84103456D01*
X202255033Y-83487403D01*
X202385121Y-82833405D01*
X202385121Y-82166595D01*
X202255033Y-81512597D01*
X201999855Y-80896544D01*
X201629395Y-80342111D01*
X201157889Y-79870605D01*
X200603456Y-79500145D01*
X199987403Y-79244967D01*
X199333405Y-79114879D01*
X198666595Y-79114879D01*
X198012597Y-79244967D01*
X197396544Y-79500145D01*
X196842111Y-79870605D01*
X196370605Y-80342111D01*
X196000145Y-80896544D01*
X195744967Y-81512597D01*
X195614879Y-82166595D01*
X176485000Y-82166595D01*
X176485000Y-60022168D01*
X176487346Y-59998351D01*
X176479932Y-59923078D01*
X176477982Y-59903275D01*
X176456703Y-59833130D01*
X176450249Y-59811851D01*
X176405213Y-59727595D01*
X176359790Y-59672247D01*
X176344606Y-59653745D01*
X176326104Y-59638561D01*
X173778152Y-57090610D01*
X173781169Y-57075442D01*
X173781169Y-56921598D01*
X173751156Y-56770711D01*
X173692282Y-56628578D01*
X173606811Y-56500661D01*
X173498028Y-56391878D01*
X173370111Y-56306407D01*
X173227978Y-56247533D01*
X173077091Y-56217520D01*
X172923247Y-56217520D01*
X172772360Y-56247533D01*
X172630227Y-56306407D01*
X172502310Y-56391878D01*
X172393527Y-56500661D01*
X172308056Y-56628578D01*
X172249182Y-56770711D01*
X172219169Y-56921598D01*
X172219169Y-57075442D01*
X172249182Y-57226329D01*
X172308056Y-57368462D01*
X172349945Y-57431154D01*
X172278958Y-57502141D01*
X172193487Y-57630058D01*
X172134613Y-57772191D01*
X172104600Y-57923078D01*
X172104600Y-58076922D01*
X172134613Y-58227809D01*
X172193487Y-58369942D01*
X172278958Y-58497859D01*
X172387741Y-58606642D01*
X172515658Y-58692113D01*
X172657791Y-58750987D01*
X172808678Y-58781000D01*
X172962522Y-58781000D01*
X172977690Y-58777983D01*
X175015001Y-60815295D01*
X175015001Y-61329108D01*
X173777983Y-60092090D01*
X173781000Y-60076922D01*
X173781000Y-59923078D01*
X173750987Y-59772191D01*
X173692113Y-59630058D01*
X173606642Y-59502141D01*
X173497859Y-59393358D01*
X173369942Y-59307887D01*
X173227809Y-59249013D01*
X173076922Y-59219000D01*
X172923078Y-59219000D01*
X172772191Y-59249013D01*
X172630058Y-59307887D01*
X172502141Y-59393358D01*
X172393358Y-59502141D01*
X172307887Y-59630058D01*
X172249013Y-59772191D01*
X172219000Y-59923078D01*
X172219000Y-60076922D01*
X172249013Y-60227809D01*
X172307887Y-60369942D01*
X172393358Y-60497859D01*
X172502141Y-60606642D01*
X172630058Y-60692113D01*
X172772191Y-60750987D01*
X172923078Y-60781000D01*
X173076922Y-60781000D01*
X173092090Y-60777983D01*
X174515000Y-62200893D01*
X174515000Y-62824554D01*
X173777998Y-62087552D01*
X173781015Y-62072384D01*
X173781015Y-61918540D01*
X173751002Y-61767653D01*
X173692128Y-61625520D01*
X173606657Y-61497603D01*
X173497874Y-61388820D01*
X173369957Y-61303349D01*
X173227824Y-61244475D01*
X173076937Y-61214462D01*
X172923093Y-61214462D01*
X172772206Y-61244475D01*
X172630073Y-61303349D01*
X172502156Y-61388820D01*
X172393373Y-61497603D01*
X172307902Y-61625520D01*
X172249028Y-61767653D01*
X172219015Y-61918540D01*
X172219015Y-62072384D01*
X172249028Y-62223271D01*
X172307902Y-62365404D01*
X172393373Y-62493321D01*
X172397776Y-62497724D01*
X172389890Y-62505609D01*
X172304419Y-62633526D01*
X172245545Y-62775659D01*
X172215532Y-62926546D01*
X172215532Y-63080390D01*
X172245545Y-63231277D01*
X172304419Y-63373410D01*
X172389890Y-63501327D01*
X172498673Y-63610110D01*
X172626590Y-63695581D01*
X172768723Y-63754455D01*
X172919610Y-63784468D01*
X173073454Y-63784468D01*
X173088622Y-63781451D01*
X173515000Y-64207830D01*
X173515000Y-65284542D01*
X173417310Y-65219268D01*
X173256978Y-65152856D01*
X173086771Y-65119000D01*
X172913229Y-65119000D01*
X172743022Y-65152856D01*
X172582690Y-65219268D01*
X172438395Y-65315682D01*
X172315682Y-65438395D01*
X172219268Y-65582690D01*
X172152856Y-65743022D01*
X172138537Y-65815009D01*
X171271479Y-66744000D01*
X161554324Y-66744000D01*
X161517310Y-66719268D01*
X161356978Y-66652856D01*
X161186771Y-66619000D01*
X161013229Y-66619000D01*
X160843022Y-66652856D01*
X160682690Y-66719268D01*
X160538395Y-66815682D01*
X160415682Y-66938395D01*
X160319268Y-67082690D01*
X160252856Y-67243022D01*
X160219000Y-67413229D01*
X160219000Y-67586771D01*
X160252856Y-67756978D01*
X160319268Y-67917310D01*
X160415682Y-68061605D01*
X160538395Y-68184318D01*
X160682690Y-68280732D01*
X160843022Y-68347144D01*
X161013229Y-68381000D01*
X161186771Y-68381000D01*
X161356978Y-68347144D01*
X161517310Y-68280732D01*
X161554324Y-68256000D01*
X171575925Y-68256000D01*
X171626179Y-68259206D01*
X171687072Y-68251081D01*
X171748202Y-68245060D01*
X171760772Y-68241247D01*
X171773790Y-68239510D01*
X171831911Y-68219668D01*
X171890708Y-68201832D01*
X171902295Y-68195638D01*
X171914722Y-68191396D01*
X171967843Y-68160602D01*
X172022043Y-68131632D01*
X172032203Y-68123294D01*
X172043559Y-68116711D01*
X172089634Y-68076162D01*
X172137159Y-68037159D01*
X172169122Y-67998212D01*
X173240370Y-66850447D01*
X173256978Y-66847144D01*
X173417310Y-66780732D01*
X173515000Y-66715458D01*
X173515001Y-84615000D01*
X136055694Y-84615000D01*
X135437800Y-83997107D01*
X135437800Y-77252617D01*
X135440146Y-77228800D01*
X135436269Y-77189435D01*
X135430782Y-77133724D01*
X135403049Y-77042301D01*
X135364293Y-76969794D01*
X135358013Y-76958044D01*
X135312590Y-76902696D01*
X135297406Y-76884194D01*
X135278904Y-76869010D01*
X133183794Y-74773901D01*
X133168606Y-74755394D01*
X133094755Y-74694787D01*
X133010499Y-74649751D01*
X132919076Y-74622018D01*
X132847820Y-74615000D01*
X132847817Y-74615000D01*
X132824000Y-74612654D01*
X132800183Y-74615000D01*
X122179816Y-74615000D01*
X122155999Y-74612654D01*
X122132182Y-74615000D01*
X122132180Y-74615000D01*
X122060924Y-74622018D01*
X121969501Y-74649751D01*
X121930280Y-74670715D01*
X121885244Y-74694787D01*
X121859752Y-74715708D01*
X121811394Y-74755394D01*
X121796206Y-74773901D01*
X119793101Y-76777006D01*
X119774594Y-76792194D01*
X119713987Y-76866045D01*
X119668951Y-76950302D01*
X119641218Y-77041725D01*
X119635902Y-77095700D01*
X119631854Y-77136800D01*
X119634200Y-77160617D01*
X119634201Y-84576600D01*
X102362494Y-84576600D01*
X101559794Y-83773901D01*
X101544606Y-83755394D01*
X101470755Y-83694787D01*
X101386499Y-83649751D01*
X101295076Y-83622018D01*
X101223820Y-83615000D01*
X101223817Y-83615000D01*
X101200000Y-83612654D01*
X101176183Y-83615000D01*
X94200893Y-83615000D01*
X94177983Y-83592090D01*
X94181000Y-83576922D01*
X94181000Y-83423078D01*
X94150987Y-83272191D01*
X94092113Y-83130058D01*
X94006642Y-83002141D01*
X93897859Y-82893358D01*
X93769942Y-82807887D01*
X93627809Y-82749013D01*
X93476922Y-82719000D01*
X93323078Y-82719000D01*
X93172191Y-82749013D01*
X93030058Y-82807887D01*
X92902141Y-82893358D01*
X92793358Y-83002141D01*
X92707887Y-83130058D01*
X92649013Y-83272191D01*
X92619000Y-83423078D01*
X92619000Y-83576922D01*
X92649013Y-83727809D01*
X92707887Y-83869942D01*
X92793358Y-83997859D01*
X92902141Y-84106642D01*
X92914650Y-84115000D01*
X85247816Y-84115000D01*
X85223999Y-84112654D01*
X85200182Y-84115000D01*
X85200180Y-84115000D01*
X85128924Y-84122018D01*
X85037501Y-84149751D01*
X84953245Y-84194787D01*
X84879394Y-84255394D01*
X84864206Y-84273901D01*
X84193551Y-84944556D01*
X77741337Y-84944556D01*
X80841121Y-81844772D01*
X80926538Y-81870683D01*
X81049999Y-81882843D01*
X81750001Y-81882843D01*
X81873462Y-81870683D01*
X81992179Y-81834671D01*
X82101589Y-81776190D01*
X82197488Y-81697488D01*
X82276190Y-81601589D01*
X82334671Y-81492179D01*
X82370683Y-81373462D01*
X82382843Y-81250001D01*
X82382843Y-79949999D01*
X82370683Y-79826538D01*
X82334671Y-79707821D01*
X82276190Y-79598411D01*
X82197488Y-79502512D01*
X82101589Y-79423810D01*
X81992179Y-79365329D01*
X81873462Y-79329317D01*
X81750001Y-79317157D01*
X81049999Y-79317157D01*
X80926538Y-79329317D01*
X80807821Y-79365329D01*
X80698411Y-79423810D01*
X80602512Y-79502512D01*
X80523810Y-79598411D01*
X80465329Y-79707821D01*
X80429317Y-79826538D01*
X80417157Y-79949999D01*
X80417157Y-80896950D01*
X80381000Y-80933107D01*
X80381000Y-80251814D01*
X80366805Y-80107691D01*
X80310711Y-79922771D01*
X80219618Y-79752349D01*
X80097028Y-79602972D01*
X79947651Y-79480382D01*
X79777229Y-79389289D01*
X79592310Y-79333195D01*
X79400000Y-79314254D01*
X79207691Y-79333195D01*
X79022772Y-79389289D01*
X78852350Y-79480382D01*
X78702973Y-79602972D01*
X78580383Y-79752349D01*
X78489290Y-79922771D01*
X78433195Y-80107690D01*
X78419000Y-80251813D01*
X78419000Y-80948186D01*
X78433195Y-81092309D01*
X78489289Y-81277228D01*
X78580382Y-81447651D01*
X78702972Y-81597028D01*
X78770039Y-81652068D01*
X76309573Y-84112534D01*
X75681359Y-84112534D01*
X77726104Y-82067790D01*
X77744606Y-82052606D01*
X77763376Y-82029734D01*
X77805213Y-81978756D01*
X77850248Y-81894500D01*
X77850249Y-81894499D01*
X77877982Y-81803076D01*
X77882787Y-81754288D01*
X77947651Y-81719618D01*
X78097028Y-81597028D01*
X78219618Y-81447651D01*
X78310711Y-81277229D01*
X78366805Y-81092310D01*
X78381000Y-80948187D01*
X78381000Y-80251814D01*
X78366805Y-80107691D01*
X78310711Y-79922771D01*
X78219618Y-79752349D01*
X78097028Y-79602972D01*
X77947651Y-79480382D01*
X77777229Y-79389289D01*
X77592310Y-79333195D01*
X77400000Y-79314254D01*
X77207691Y-79333195D01*
X77022772Y-79389289D01*
X76852350Y-79480382D01*
X76702973Y-79602972D01*
X76580383Y-79752349D01*
X76489290Y-79922771D01*
X76433195Y-80107690D01*
X76419000Y-80251813D01*
X76419000Y-80948186D01*
X76433195Y-81092309D01*
X76489289Y-81277228D01*
X76580382Y-81447651D01*
X76702972Y-81597028D01*
X76770038Y-81652068D01*
X74725584Y-83696523D01*
X69282416Y-83696523D01*
X66832923Y-81247030D01*
X66817735Y-81228523D01*
X66743884Y-81167916D01*
X66659628Y-81122880D01*
X66568205Y-81095147D01*
X66496949Y-81088129D01*
X66496946Y-81088129D01*
X66473129Y-81085783D01*
X66449312Y-81088129D01*
X52917891Y-81088129D01*
X52894071Y-81085783D01*
X52870251Y-81088129D01*
X52798995Y-81095147D01*
X52707572Y-81122880D01*
X52623316Y-81167916D01*
X52549465Y-81228523D01*
X52488858Y-81302374D01*
X52443822Y-81386630D01*
X52420982Y-81461925D01*
X50322307Y-83560600D01*
X45749868Y-83560600D01*
X43120024Y-80930756D01*
X43200855Y-80984766D01*
X43538625Y-81124675D01*
X43897200Y-81196000D01*
X44262800Y-81196000D01*
X44621375Y-81124675D01*
X44959145Y-80984766D01*
X45263131Y-80781649D01*
X45317780Y-80727000D01*
X70419000Y-80727000D01*
X70419000Y-81027000D01*
X70462626Y-81215943D01*
X70542275Y-81392745D01*
X70654886Y-81550611D01*
X70796131Y-81683474D01*
X70960582Y-81786229D01*
X71122393Y-81840902D01*
X71273000Y-81776598D01*
X71273000Y-80727000D01*
X71527000Y-80727000D01*
X71527000Y-81776598D01*
X71677607Y-81840902D01*
X71839418Y-81786229D01*
X72003869Y-81683474D01*
X72145114Y-81550611D01*
X72257725Y-81392745D01*
X72337374Y-81215943D01*
X72381000Y-81027000D01*
X72381000Y-80727000D01*
X72419000Y-80727000D01*
X72419000Y-81027000D01*
X72462626Y-81215943D01*
X72542275Y-81392745D01*
X72654886Y-81550611D01*
X72796131Y-81683474D01*
X72960582Y-81786229D01*
X73122393Y-81840902D01*
X73273000Y-81776598D01*
X73273000Y-80727000D01*
X73527000Y-80727000D01*
X73527000Y-81776598D01*
X73677607Y-81840902D01*
X73839418Y-81786229D01*
X74003869Y-81683474D01*
X74145114Y-81550611D01*
X74257725Y-81392745D01*
X74337374Y-81215943D01*
X74381000Y-81027000D01*
X74381000Y-80727000D01*
X74419000Y-80727000D01*
X74419000Y-81027000D01*
X74462626Y-81215943D01*
X74542275Y-81392745D01*
X74654886Y-81550611D01*
X74796131Y-81683474D01*
X74960582Y-81786229D01*
X75122393Y-81840902D01*
X75273000Y-81776598D01*
X75273000Y-80727000D01*
X75527000Y-80727000D01*
X75527000Y-81776598D01*
X75677607Y-81840902D01*
X75839418Y-81786229D01*
X76003869Y-81683474D01*
X76145114Y-81550611D01*
X76257725Y-81392745D01*
X76337374Y-81215943D01*
X76381000Y-81027000D01*
X76381000Y-80727000D01*
X75527000Y-80727000D01*
X75273000Y-80727000D01*
X74419000Y-80727000D01*
X74381000Y-80727000D01*
X73527000Y-80727000D01*
X73273000Y-80727000D01*
X72419000Y-80727000D01*
X72381000Y-80727000D01*
X71527000Y-80727000D01*
X71273000Y-80727000D01*
X70419000Y-80727000D01*
X45317780Y-80727000D01*
X45521649Y-80523131D01*
X45724766Y-80219145D01*
X45743879Y-80173000D01*
X70419000Y-80173000D01*
X70419000Y-80473000D01*
X71273000Y-80473000D01*
X71273000Y-79423402D01*
X71527000Y-79423402D01*
X71527000Y-80473000D01*
X72381000Y-80473000D01*
X72381000Y-80173000D01*
X72419000Y-80173000D01*
X72419000Y-80473000D01*
X73273000Y-80473000D01*
X73273000Y-79423402D01*
X73527000Y-79423402D01*
X73527000Y-80473000D01*
X74381000Y-80473000D01*
X74381000Y-80173000D01*
X74419000Y-80173000D01*
X74419000Y-80473000D01*
X75273000Y-80473000D01*
X75273000Y-79423402D01*
X75527000Y-79423402D01*
X75527000Y-80473000D01*
X76381000Y-80473000D01*
X76381000Y-80173000D01*
X76337374Y-79984057D01*
X76257725Y-79807255D01*
X76145114Y-79649389D01*
X76003869Y-79516526D01*
X75839418Y-79413771D01*
X75677607Y-79359098D01*
X75527000Y-79423402D01*
X75273000Y-79423402D01*
X75122393Y-79359098D01*
X74960582Y-79413771D01*
X74796131Y-79516526D01*
X74654886Y-79649389D01*
X74542275Y-79807255D01*
X74462626Y-79984057D01*
X74419000Y-80173000D01*
X74381000Y-80173000D01*
X74337374Y-79984057D01*
X74257725Y-79807255D01*
X74145114Y-79649389D01*
X74003869Y-79516526D01*
X73839418Y-79413771D01*
X73677607Y-79359098D01*
X73527000Y-79423402D01*
X73273000Y-79423402D01*
X73122393Y-79359098D01*
X72960582Y-79413771D01*
X72796131Y-79516526D01*
X72654886Y-79649389D01*
X72542275Y-79807255D01*
X72462626Y-79984057D01*
X72419000Y-80173000D01*
X72381000Y-80173000D01*
X72337374Y-79984057D01*
X72257725Y-79807255D01*
X72145114Y-79649389D01*
X72003869Y-79516526D01*
X71839418Y-79413771D01*
X71677607Y-79359098D01*
X71527000Y-79423402D01*
X71273000Y-79423402D01*
X71122393Y-79359098D01*
X70960582Y-79413771D01*
X70796131Y-79516526D01*
X70654886Y-79649389D01*
X70542275Y-79807255D01*
X70462626Y-79984057D01*
X70419000Y-80173000D01*
X45743879Y-80173000D01*
X45864675Y-79881375D01*
X45936000Y-79522800D01*
X45936000Y-79157200D01*
X45864675Y-78798625D01*
X45724766Y-78460855D01*
X45606377Y-78283672D01*
X109018900Y-78283672D01*
X109018900Y-78516328D01*
X109064289Y-78744514D01*
X109153323Y-78959461D01*
X109282580Y-79152907D01*
X109447093Y-79317420D01*
X109640539Y-79446677D01*
X109855486Y-79535711D01*
X110083672Y-79581100D01*
X110316328Y-79581100D01*
X110544514Y-79535711D01*
X110759461Y-79446677D01*
X110952907Y-79317420D01*
X111117420Y-79152907D01*
X111246677Y-78959461D01*
X111335711Y-78744514D01*
X111381100Y-78516328D01*
X111381100Y-78283672D01*
X111518900Y-78283672D01*
X111518900Y-78516328D01*
X111564289Y-78744514D01*
X111653323Y-78959461D01*
X111782580Y-79152907D01*
X111947093Y-79317420D01*
X112140539Y-79446677D01*
X112355486Y-79535711D01*
X112583672Y-79581100D01*
X112816328Y-79581100D01*
X113044514Y-79535711D01*
X113259461Y-79446677D01*
X113452907Y-79317420D01*
X113617420Y-79152907D01*
X113746677Y-78959461D01*
X113835711Y-78744514D01*
X113881100Y-78516328D01*
X113881100Y-78283672D01*
X113835711Y-78055486D01*
X113746677Y-77840539D01*
X113617420Y-77647093D01*
X113452907Y-77482580D01*
X113259461Y-77353323D01*
X113044514Y-77264289D01*
X112816328Y-77218900D01*
X112583672Y-77218900D01*
X112355486Y-77264289D01*
X112140539Y-77353323D01*
X111947093Y-77482580D01*
X111782580Y-77647093D01*
X111653323Y-77840539D01*
X111564289Y-78055486D01*
X111518900Y-78283672D01*
X111381100Y-78283672D01*
X111335711Y-78055486D01*
X111246677Y-77840539D01*
X111117420Y-77647093D01*
X110952907Y-77482580D01*
X110759461Y-77353323D01*
X110544514Y-77264289D01*
X110316328Y-77218900D01*
X110083672Y-77218900D01*
X109855486Y-77264289D01*
X109640539Y-77353323D01*
X109447093Y-77482580D01*
X109282580Y-77647093D01*
X109153323Y-77840539D01*
X109064289Y-78055486D01*
X109018900Y-78283672D01*
X45606377Y-78283672D01*
X45521649Y-78156869D01*
X45263131Y-77898351D01*
X44959145Y-77695234D01*
X44621375Y-77555325D01*
X44262800Y-77484000D01*
X43897200Y-77484000D01*
X43538625Y-77555325D01*
X43200855Y-77695234D01*
X42896869Y-77898351D01*
X42638351Y-78156869D01*
X42435234Y-78460855D01*
X42295325Y-78798625D01*
X42224000Y-79157200D01*
X42224000Y-79522800D01*
X42295325Y-79881375D01*
X42435234Y-80219145D01*
X42489244Y-80299977D01*
X40885000Y-78695733D01*
X40885000Y-75723078D01*
X61819000Y-75723078D01*
X61819000Y-75876922D01*
X61849013Y-76027809D01*
X61907887Y-76169942D01*
X61993358Y-76297859D01*
X62102141Y-76406642D01*
X62230058Y-76492113D01*
X62372191Y-76550987D01*
X62523078Y-76581000D01*
X62676922Y-76581000D01*
X62827809Y-76550987D01*
X62969942Y-76492113D01*
X63061405Y-76431000D01*
X65438595Y-76431000D01*
X65530058Y-76492113D01*
X65672191Y-76550987D01*
X65823078Y-76581000D01*
X65976922Y-76581000D01*
X66127809Y-76550987D01*
X66269942Y-76492113D01*
X66397859Y-76406642D01*
X66506642Y-76297859D01*
X66592113Y-76169942D01*
X66650987Y-76027809D01*
X66681000Y-75876922D01*
X66681000Y-75723078D01*
X66650987Y-75572191D01*
X66592113Y-75430058D01*
X66506642Y-75302141D01*
X66397859Y-75193358D01*
X66269942Y-75107887D01*
X66127809Y-75049013D01*
X65976922Y-75019000D01*
X65823078Y-75019000D01*
X65672191Y-75049013D01*
X65530058Y-75107887D01*
X65438595Y-75169000D01*
X63061405Y-75169000D01*
X62969942Y-75107887D01*
X62827809Y-75049013D01*
X62676922Y-75019000D01*
X62523078Y-75019000D01*
X62372191Y-75049013D01*
X62230058Y-75107887D01*
X62102141Y-75193358D01*
X61993358Y-75302141D01*
X61907887Y-75430058D01*
X61849013Y-75572191D01*
X61819000Y-75723078D01*
X40885000Y-75723078D01*
X40885000Y-73051146D01*
X41035088Y-73081000D01*
X41188932Y-73081000D01*
X41339819Y-73050987D01*
X41481952Y-72992113D01*
X41609869Y-72906642D01*
X41718652Y-72797859D01*
X41804123Y-72669942D01*
X41862997Y-72527809D01*
X41893010Y-72376922D01*
X41893010Y-72223078D01*
X41862997Y-72072191D01*
X41804123Y-71930058D01*
X41718652Y-71802141D01*
X41609869Y-71693358D01*
X41597010Y-71684766D01*
X41597010Y-71174525D01*
X41603820Y-71184717D01*
X41775283Y-71356180D01*
X41976903Y-71490898D01*
X42200931Y-71583693D01*
X42438757Y-71631000D01*
X42681243Y-71631000D01*
X42919069Y-71583693D01*
X43143097Y-71490898D01*
X43344717Y-71356180D01*
X43450897Y-71250000D01*
X43867157Y-71250000D01*
X43874513Y-71324689D01*
X43896299Y-71396508D01*
X43931678Y-71462696D01*
X43979289Y-71520711D01*
X44037304Y-71568322D01*
X44103492Y-71603701D01*
X44175311Y-71625487D01*
X44250000Y-71632843D01*
X44877750Y-71631000D01*
X44973000Y-71535750D01*
X44973000Y-70527000D01*
X45227000Y-70527000D01*
X45227000Y-71535750D01*
X45322250Y-71631000D01*
X45950000Y-71632843D01*
X46024689Y-71625487D01*
X46096508Y-71603701D01*
X46162696Y-71568322D01*
X46220711Y-71520711D01*
X46268322Y-71462696D01*
X46303701Y-71396508D01*
X46325487Y-71324689D01*
X46332843Y-71250000D01*
X46331000Y-70622250D01*
X46235750Y-70527000D01*
X45227000Y-70527000D01*
X44973000Y-70527000D01*
X43964250Y-70527000D01*
X43869000Y-70622250D01*
X43867157Y-71250000D01*
X43450897Y-71250000D01*
X43516180Y-71184717D01*
X43650898Y-70983097D01*
X43743693Y-70759069D01*
X43791000Y-70521243D01*
X43791000Y-70278757D01*
X43743693Y-70040931D01*
X43650898Y-69816903D01*
X43516180Y-69615283D01*
X43450897Y-69550000D01*
X43867157Y-69550000D01*
X43869000Y-70177750D01*
X43964250Y-70273000D01*
X44973000Y-70273000D01*
X44973000Y-69264250D01*
X45227000Y-69264250D01*
X45227000Y-70273000D01*
X46235750Y-70273000D01*
X46331000Y-70177750D01*
X46332843Y-69550000D01*
X46325487Y-69475311D01*
X46303701Y-69403492D01*
X46268322Y-69337304D01*
X46220711Y-69279289D01*
X46162696Y-69231678D01*
X46096508Y-69196299D01*
X46024689Y-69174513D01*
X45950000Y-69167157D01*
X45322250Y-69169000D01*
X45227000Y-69264250D01*
X44973000Y-69264250D01*
X44877750Y-69169000D01*
X44250000Y-69167157D01*
X44175311Y-69174513D01*
X44103492Y-69196299D01*
X44037304Y-69231678D01*
X43979289Y-69279289D01*
X43931678Y-69337304D01*
X43896299Y-69403492D01*
X43874513Y-69475311D01*
X43867157Y-69550000D01*
X43450897Y-69550000D01*
X43344717Y-69443820D01*
X43143097Y-69309102D01*
X42919069Y-69216307D01*
X42681243Y-69169000D01*
X42438757Y-69169000D01*
X42200931Y-69216307D01*
X41976903Y-69309102D01*
X41775283Y-69443820D01*
X41603820Y-69615283D01*
X41597010Y-69625475D01*
X41597010Y-69508883D01*
X42102834Y-69003060D01*
X42200931Y-69043693D01*
X42438757Y-69091000D01*
X42681243Y-69091000D01*
X42919069Y-69043693D01*
X43143097Y-68950898D01*
X43344717Y-68816180D01*
X43516180Y-68644717D01*
X43650898Y-68443097D01*
X43743693Y-68219069D01*
X43791000Y-67981243D01*
X43791000Y-67738757D01*
X43869000Y-67738757D01*
X43869000Y-67981243D01*
X43916307Y-68219069D01*
X44009102Y-68443097D01*
X44143820Y-68644717D01*
X44315283Y-68816180D01*
X44516903Y-68950898D01*
X44740931Y-69043693D01*
X44978757Y-69091000D01*
X45221243Y-69091000D01*
X45459069Y-69043693D01*
X45683097Y-68950898D01*
X45884717Y-68816180D01*
X46056180Y-68644717D01*
X46190898Y-68443097D01*
X46283693Y-68219069D01*
X46331000Y-67981243D01*
X46331000Y-67738757D01*
X46283693Y-67500931D01*
X46190898Y-67276903D01*
X46056180Y-67075283D01*
X45884717Y-66903820D01*
X45683097Y-66769102D01*
X45459069Y-66676307D01*
X45221243Y-66629000D01*
X44978757Y-66629000D01*
X44740931Y-66676307D01*
X44516903Y-66769102D01*
X44315283Y-66903820D01*
X44143820Y-67075283D01*
X44009102Y-67276903D01*
X43916307Y-67500931D01*
X43869000Y-67738757D01*
X43791000Y-67738757D01*
X43743693Y-67500931D01*
X43650898Y-67276903D01*
X43522673Y-67085000D01*
X43796183Y-67085000D01*
X43820000Y-67087346D01*
X43843817Y-67085000D01*
X43843820Y-67085000D01*
X43915076Y-67077982D01*
X44006499Y-67050249D01*
X44090755Y-67005213D01*
X44164606Y-66944606D01*
X44179794Y-66926099D01*
X44642833Y-66463060D01*
X44740931Y-66503693D01*
X44978757Y-66551000D01*
X45221243Y-66551000D01*
X45459069Y-66503693D01*
X45683097Y-66410898D01*
X45884717Y-66276180D01*
X46056180Y-66104717D01*
X46190898Y-65903097D01*
X46283693Y-65679069D01*
X46331000Y-65441243D01*
X46331000Y-65198757D01*
X46283693Y-64960931D01*
X46190898Y-64736903D01*
X46056180Y-64535283D01*
X45884717Y-64363820D01*
X45683097Y-64229102D01*
X45459069Y-64136307D01*
X45221243Y-64089000D01*
X44978757Y-64089000D01*
X44740931Y-64136307D01*
X44516903Y-64229102D01*
X44315283Y-64363820D01*
X44143820Y-64535283D01*
X44009102Y-64736903D01*
X43916307Y-64960931D01*
X43869000Y-65198757D01*
X43869000Y-65441243D01*
X43916307Y-65679069D01*
X43956940Y-65777167D01*
X43619107Y-66115000D01*
X43505897Y-66115000D01*
X43516180Y-66104717D01*
X43650898Y-65903097D01*
X43743693Y-65679069D01*
X43791000Y-65441243D01*
X43791000Y-65198757D01*
X43743693Y-64960931D01*
X43650898Y-64736903D01*
X43549400Y-64585000D01*
X43756183Y-64585000D01*
X43780000Y-64587346D01*
X43803817Y-64585000D01*
X43803820Y-64585000D01*
X43875076Y-64577982D01*
X43966499Y-64550249D01*
X44050755Y-64505213D01*
X44124606Y-64444606D01*
X44139794Y-64426099D01*
X44642834Y-63923060D01*
X44740931Y-63963693D01*
X44978757Y-64011000D01*
X45221243Y-64011000D01*
X45459069Y-63963693D01*
X45683097Y-63870898D01*
X45884717Y-63736180D01*
X46056180Y-63564717D01*
X46190898Y-63363097D01*
X46283693Y-63139069D01*
X46331000Y-62901243D01*
X46331000Y-62658757D01*
X46283693Y-62420931D01*
X46190898Y-62196903D01*
X46056180Y-61995283D01*
X45884717Y-61823820D01*
X45683097Y-61689102D01*
X45459069Y-61596307D01*
X45221243Y-61549000D01*
X44978757Y-61549000D01*
X44740931Y-61596307D01*
X44516903Y-61689102D01*
X44315283Y-61823820D01*
X44143820Y-61995283D01*
X44009102Y-62196903D01*
X43916307Y-62420931D01*
X43869000Y-62658757D01*
X43869000Y-62901243D01*
X43916307Y-63139069D01*
X43956940Y-63237166D01*
X43579107Y-63615000D01*
X43465897Y-63615000D01*
X43516180Y-63564717D01*
X43650898Y-63363097D01*
X43743693Y-63139069D01*
X43791000Y-62901243D01*
X43791000Y-62658757D01*
X43743693Y-62420931D01*
X43650898Y-62196903D01*
X43516180Y-61995283D01*
X43496297Y-61975400D01*
X43825783Y-61975400D01*
X43849600Y-61977746D01*
X43873417Y-61975400D01*
X43873420Y-61975400D01*
X43944676Y-61968382D01*
X44036099Y-61940649D01*
X44120355Y-61895613D01*
X44194206Y-61835006D01*
X44209394Y-61816499D01*
X44642833Y-61383060D01*
X44740931Y-61423693D01*
X44978757Y-61471000D01*
X45221243Y-61471000D01*
X45459069Y-61423693D01*
X45683097Y-61330898D01*
X45884717Y-61196180D01*
X46056180Y-61024717D01*
X46190898Y-60823097D01*
X46283693Y-60599069D01*
X46331000Y-60361243D01*
X46331000Y-60118757D01*
X46283693Y-59880931D01*
X46190898Y-59656903D01*
X46056180Y-59455283D01*
X45884717Y-59283820D01*
X45683097Y-59149102D01*
X45459069Y-59056307D01*
X45221243Y-59009000D01*
X44978757Y-59009000D01*
X44740931Y-59056307D01*
X44516903Y-59149102D01*
X44315283Y-59283820D01*
X44143820Y-59455283D01*
X44009102Y-59656903D01*
X43916307Y-59880931D01*
X43869000Y-60118757D01*
X43869000Y-60361243D01*
X43916307Y-60599069D01*
X43956940Y-60697167D01*
X43648707Y-61005400D01*
X43529087Y-61005400D01*
X43650898Y-60823097D01*
X43743693Y-60599069D01*
X43791000Y-60361243D01*
X43791000Y-60118757D01*
X43743693Y-59880931D01*
X43650898Y-59656903D01*
X43570781Y-59537000D01*
X43724183Y-59537000D01*
X43748000Y-59539346D01*
X43771817Y-59537000D01*
X43771820Y-59537000D01*
X43843076Y-59529982D01*
X43934499Y-59502249D01*
X44018755Y-59457213D01*
X44092606Y-59396606D01*
X44107794Y-59378099D01*
X44642834Y-58843060D01*
X44740931Y-58883693D01*
X44978757Y-58931000D01*
X45221243Y-58931000D01*
X45459069Y-58883693D01*
X45683097Y-58790898D01*
X45884717Y-58656180D01*
X46056180Y-58484717D01*
X46101697Y-58416595D01*
X113614879Y-58416595D01*
X113614879Y-59083405D01*
X113744967Y-59737403D01*
X114000145Y-60353456D01*
X114370605Y-60907889D01*
X114842111Y-61379395D01*
X115396544Y-61749855D01*
X116012597Y-62005033D01*
X116666595Y-62135121D01*
X117333405Y-62135121D01*
X117987403Y-62005033D01*
X118603456Y-61749855D01*
X119157889Y-61379395D01*
X119629395Y-60907889D01*
X119999855Y-60353456D01*
X120255033Y-59737403D01*
X120385121Y-59083405D01*
X120385121Y-58416595D01*
X120255033Y-57762597D01*
X119999855Y-57146544D01*
X119629395Y-56592111D01*
X119157889Y-56120605D01*
X118603456Y-55750145D01*
X117987403Y-55494967D01*
X117333405Y-55364879D01*
X116666595Y-55364879D01*
X116012597Y-55494967D01*
X115396544Y-55750145D01*
X114842111Y-56120605D01*
X114370605Y-56592111D01*
X114000145Y-57146544D01*
X113744967Y-57762597D01*
X113614879Y-58416595D01*
X46101697Y-58416595D01*
X46190898Y-58283097D01*
X46283693Y-58059069D01*
X46331000Y-57821243D01*
X46331000Y-57578757D01*
X46283693Y-57340931D01*
X46190898Y-57116903D01*
X46056180Y-56915283D01*
X45884717Y-56743820D01*
X45683097Y-56609102D01*
X45459069Y-56516307D01*
X45221243Y-56469000D01*
X44978757Y-56469000D01*
X44740931Y-56516307D01*
X44516903Y-56609102D01*
X44315283Y-56743820D01*
X44143820Y-56915283D01*
X44009102Y-57116903D01*
X43916307Y-57340931D01*
X43869000Y-57578757D01*
X43869000Y-57821243D01*
X43916307Y-58059069D01*
X43956940Y-58157166D01*
X43547107Y-58567000D01*
X43433897Y-58567000D01*
X43516180Y-58484717D01*
X43650898Y-58283097D01*
X43743693Y-58059069D01*
X43791000Y-57821243D01*
X43791000Y-57578757D01*
X43743693Y-57340931D01*
X43650898Y-57116903D01*
X43516180Y-56915283D01*
X43485897Y-56885000D01*
X43836183Y-56885000D01*
X43860000Y-56887346D01*
X43883817Y-56885000D01*
X43883820Y-56885000D01*
X43955076Y-56877982D01*
X44046499Y-56850249D01*
X44130755Y-56805213D01*
X44204606Y-56744606D01*
X44219794Y-56726099D01*
X44642833Y-56303060D01*
X44740931Y-56343693D01*
X44978757Y-56391000D01*
X45221243Y-56391000D01*
X45459069Y-56343693D01*
X45683097Y-56250898D01*
X45884717Y-56116180D01*
X46056180Y-55944717D01*
X46190898Y-55743097D01*
X46283693Y-55519069D01*
X46307564Y-55399059D01*
X107769000Y-55399059D01*
X107769000Y-55680941D01*
X107823993Y-55957407D01*
X107931864Y-56217833D01*
X108088470Y-56452209D01*
X108287791Y-56651530D01*
X108522167Y-56808136D01*
X108782593Y-56916007D01*
X109059059Y-56971000D01*
X109340941Y-56971000D01*
X109617407Y-56916007D01*
X109877833Y-56808136D01*
X110112209Y-56651530D01*
X110311530Y-56452209D01*
X110468136Y-56217833D01*
X110576007Y-55957407D01*
X110631000Y-55680941D01*
X110631000Y-55399059D01*
X110576007Y-55122593D01*
X110468136Y-54862167D01*
X110311530Y-54627791D01*
X110112209Y-54428470D01*
X109877833Y-54271864D01*
X109617407Y-54163993D01*
X109340941Y-54109000D01*
X109059059Y-54109000D01*
X108782593Y-54163993D01*
X108522167Y-54271864D01*
X108287791Y-54428470D01*
X108088470Y-54627791D01*
X107931864Y-54862167D01*
X107823993Y-55122593D01*
X107769000Y-55399059D01*
X46307564Y-55399059D01*
X46331000Y-55281243D01*
X46331000Y-55038757D01*
X46283693Y-54800931D01*
X46190898Y-54576903D01*
X46056180Y-54375283D01*
X45884717Y-54203820D01*
X45683097Y-54069102D01*
X45459069Y-53976307D01*
X45221243Y-53929000D01*
X44978757Y-53929000D01*
X44740931Y-53976307D01*
X44516903Y-54069102D01*
X44315283Y-54203820D01*
X44143820Y-54375283D01*
X44009102Y-54576903D01*
X43916307Y-54800931D01*
X43869000Y-55038757D01*
X43869000Y-55281243D01*
X43916307Y-55519069D01*
X43956940Y-55617167D01*
X43659107Y-55915000D01*
X43536036Y-55915000D01*
X43650898Y-55743097D01*
X43743693Y-55519069D01*
X43791000Y-55281243D01*
X43791000Y-55038757D01*
X43743693Y-54800931D01*
X43650898Y-54576903D01*
X43516180Y-54375283D01*
X43344717Y-54203820D01*
X43143097Y-54069102D01*
X42919069Y-53976307D01*
X42681243Y-53929000D01*
X42438757Y-53929000D01*
X42200931Y-53976307D01*
X41976903Y-54069102D01*
X41775283Y-54203820D01*
X41603820Y-54375283D01*
X41469102Y-54576903D01*
X41376307Y-54800931D01*
X41329000Y-55038757D01*
X41329000Y-55281243D01*
X41376307Y-55519069D01*
X41469102Y-55743097D01*
X41583964Y-55915000D01*
X40923816Y-55915000D01*
X40899999Y-55912654D01*
X40876182Y-55915000D01*
X40876180Y-55915000D01*
X40804924Y-55922018D01*
X40713501Y-55949751D01*
X40699178Y-55957407D01*
X40629244Y-55994787D01*
X40573896Y-56040210D01*
X40555394Y-56055394D01*
X40540210Y-56073896D01*
X39292090Y-57322017D01*
X39276922Y-57319000D01*
X39123078Y-57319000D01*
X38972191Y-57349013D01*
X38830058Y-57407887D01*
X38702141Y-57493358D01*
X38593358Y-57602141D01*
X38507887Y-57730058D01*
X38449013Y-57872191D01*
X38419000Y-58023078D01*
X38419000Y-58176922D01*
X38449013Y-58327809D01*
X38507887Y-58469942D01*
X38593358Y-58597859D01*
X38702141Y-58706642D01*
X38830058Y-58792113D01*
X38972191Y-58850987D01*
X39050035Y-58866471D01*
X36785897Y-61130610D01*
X36767395Y-61145794D01*
X36752211Y-61164296D01*
X36752210Y-61164297D01*
X36706787Y-61219645D01*
X36661752Y-61303901D01*
X36634019Y-61395324D01*
X36624654Y-61490400D01*
X36627001Y-61514227D01*
X36627000Y-79427054D01*
X36187403Y-79244967D01*
X35533405Y-79114879D01*
X34866595Y-79114879D01*
X34212597Y-79244967D01*
X33596544Y-79500145D01*
X33042111Y-79870605D01*
X32570605Y-80342111D01*
X32200145Y-80896544D01*
X31944967Y-81512597D01*
X31814879Y-82166595D01*
X31814879Y-82833405D01*
X31944967Y-83487403D01*
X32200145Y-84103456D01*
X32570605Y-84657889D01*
X33042111Y-85129395D01*
X33596544Y-85499855D01*
X34212597Y-85755033D01*
X34866595Y-85885121D01*
X35533405Y-85885121D01*
X36187403Y-85755033D01*
X36803456Y-85499855D01*
X37357889Y-85129395D01*
X37829395Y-84657889D01*
X38199855Y-84103456D01*
X38455033Y-83487403D01*
X38585121Y-82833405D01*
X38585121Y-82166595D01*
X38515729Y-81817735D01*
X43791993Y-87094000D01*
X30406000Y-87094000D01*
X30406000Y-52498757D01*
X41329000Y-52498757D01*
X41329000Y-52741243D01*
X41376307Y-52979069D01*
X41469102Y-53203097D01*
X41603820Y-53404717D01*
X41775283Y-53576180D01*
X41976903Y-53710898D01*
X42200931Y-53803693D01*
X42438757Y-53851000D01*
X42681243Y-53851000D01*
X42919069Y-53803693D01*
X43143097Y-53710898D01*
X43344717Y-53576180D01*
X43516180Y-53404717D01*
X43650898Y-53203097D01*
X43743693Y-52979069D01*
X43791000Y-52741243D01*
X43791000Y-52498757D01*
X43869000Y-52498757D01*
X43869000Y-52741243D01*
X43916307Y-52979069D01*
X44009102Y-53203097D01*
X44143820Y-53404717D01*
X44315283Y-53576180D01*
X44516903Y-53710898D01*
X44740931Y-53803693D01*
X44978757Y-53851000D01*
X45221243Y-53851000D01*
X45459069Y-53803693D01*
X45683097Y-53710898D01*
X45884717Y-53576180D01*
X46056180Y-53404717D01*
X46190898Y-53203097D01*
X46283693Y-52979069D01*
X46331000Y-52741243D01*
X46331000Y-52498757D01*
X46296055Y-52323078D01*
X61719000Y-52323078D01*
X61719000Y-52476922D01*
X61749013Y-52627809D01*
X61807887Y-52769942D01*
X61893358Y-52897859D01*
X62002141Y-53006642D01*
X62130058Y-53092113D01*
X62272191Y-53150987D01*
X62423078Y-53181000D01*
X62576922Y-53181000D01*
X62727809Y-53150987D01*
X62869942Y-53092113D01*
X62997859Y-53006642D01*
X63106642Y-52897859D01*
X63192113Y-52769942D01*
X63250987Y-52627809D01*
X63281000Y-52476922D01*
X63281000Y-52323078D01*
X63277983Y-52307910D01*
X65266834Y-50319059D01*
X107769000Y-50319059D01*
X107769000Y-50600941D01*
X107823993Y-50877407D01*
X107931864Y-51137833D01*
X108088470Y-51372209D01*
X108287791Y-51571530D01*
X108522167Y-51728136D01*
X108782593Y-51836007D01*
X109059059Y-51891000D01*
X109340941Y-51891000D01*
X109617407Y-51836007D01*
X109877833Y-51728136D01*
X110112209Y-51571530D01*
X110311530Y-51372209D01*
X110468136Y-51137833D01*
X110576007Y-50877407D01*
X110631000Y-50600941D01*
X110631000Y-50413229D01*
X160119000Y-50413229D01*
X160119000Y-50586771D01*
X160152856Y-50756978D01*
X160219268Y-50917310D01*
X160315682Y-51061605D01*
X160438395Y-51184318D01*
X160582690Y-51280732D01*
X160743022Y-51347144D01*
X160913229Y-51381000D01*
X161086771Y-51381000D01*
X161256978Y-51347144D01*
X161417310Y-51280732D01*
X161454324Y-51256000D01*
X171154790Y-51256000D01*
X171932169Y-52152978D01*
X171952856Y-52256978D01*
X172019268Y-52417310D01*
X172115682Y-52561605D01*
X172238395Y-52684318D01*
X172382690Y-52780732D01*
X172543022Y-52847144D01*
X172713229Y-52881000D01*
X172886771Y-52881000D01*
X173056978Y-52847144D01*
X173217310Y-52780732D01*
X173361605Y-52684318D01*
X173484318Y-52561605D01*
X173580732Y-52417310D01*
X173647144Y-52256978D01*
X173681000Y-52086771D01*
X173681000Y-51913229D01*
X173647144Y-51743022D01*
X173580732Y-51582690D01*
X173484318Y-51438395D01*
X173361605Y-51315682D01*
X173217310Y-51219268D01*
X173071395Y-51158828D01*
X172077948Y-50012543D01*
X172037159Y-49962841D01*
X172000432Y-49932700D01*
X171965971Y-49900043D01*
X171943023Y-49885585D01*
X171922043Y-49868368D01*
X171880151Y-49845977D01*
X171839973Y-49820664D01*
X171814638Y-49810959D01*
X171790708Y-49798168D01*
X171745256Y-49784381D01*
X171700908Y-49767392D01*
X171674164Y-49762815D01*
X171648202Y-49754940D01*
X171600944Y-49750285D01*
X171554123Y-49742273D01*
X171489867Y-49744000D01*
X161454324Y-49744000D01*
X161417310Y-49719268D01*
X161256978Y-49652856D01*
X161086771Y-49619000D01*
X160913229Y-49619000D01*
X160743022Y-49652856D01*
X160582690Y-49719268D01*
X160438395Y-49815682D01*
X160315682Y-49938395D01*
X160219268Y-50082690D01*
X160152856Y-50243022D01*
X160119000Y-50413229D01*
X110631000Y-50413229D01*
X110631000Y-50319059D01*
X110576007Y-50042593D01*
X110468136Y-49782167D01*
X110311530Y-49547791D01*
X110112209Y-49348470D01*
X109877833Y-49191864D01*
X109617407Y-49083993D01*
X109340941Y-49029000D01*
X109059059Y-49029000D01*
X108782593Y-49083993D01*
X108522167Y-49191864D01*
X108287791Y-49348470D01*
X108088470Y-49547791D01*
X107931864Y-49782167D01*
X107823993Y-50042593D01*
X107769000Y-50319059D01*
X65266834Y-50319059D01*
X65607910Y-49977983D01*
X65623078Y-49981000D01*
X65776922Y-49981000D01*
X65927809Y-49950987D01*
X66069942Y-49892113D01*
X66197859Y-49806642D01*
X66306642Y-49697859D01*
X66392113Y-49569942D01*
X66450987Y-49427809D01*
X66481000Y-49276922D01*
X66481000Y-49123078D01*
X66450987Y-48972191D01*
X66392113Y-48830058D01*
X66306642Y-48702141D01*
X66197859Y-48593358D01*
X66069942Y-48507887D01*
X65927809Y-48449013D01*
X65776922Y-48419000D01*
X65623078Y-48419000D01*
X65472191Y-48449013D01*
X65330058Y-48507887D01*
X65202141Y-48593358D01*
X65093358Y-48702141D01*
X65007887Y-48830058D01*
X64949013Y-48972191D01*
X64919000Y-49123078D01*
X64919000Y-49276922D01*
X64922017Y-49292090D01*
X62592090Y-51622017D01*
X62576922Y-51619000D01*
X62423078Y-51619000D01*
X62272191Y-51649013D01*
X62130058Y-51707887D01*
X62002141Y-51793358D01*
X61893358Y-51902141D01*
X61807887Y-52030058D01*
X61749013Y-52172191D01*
X61719000Y-52323078D01*
X46296055Y-52323078D01*
X46283693Y-52260931D01*
X46190898Y-52036903D01*
X46056180Y-51835283D01*
X45884717Y-51663820D01*
X45683097Y-51529102D01*
X45459069Y-51436307D01*
X45221243Y-51389000D01*
X44978757Y-51389000D01*
X44740931Y-51436307D01*
X44516903Y-51529102D01*
X44315283Y-51663820D01*
X44143820Y-51835283D01*
X44009102Y-52036903D01*
X43916307Y-52260931D01*
X43869000Y-52498757D01*
X43791000Y-52498757D01*
X43743693Y-52260931D01*
X43650898Y-52036903D01*
X43516180Y-51835283D01*
X43344717Y-51663820D01*
X43143097Y-51529102D01*
X42919069Y-51436307D01*
X42681243Y-51389000D01*
X42438757Y-51389000D01*
X42200931Y-51436307D01*
X41976903Y-51529102D01*
X41775283Y-51663820D01*
X41603820Y-51835283D01*
X41469102Y-52036903D01*
X41376307Y-52260931D01*
X41329000Y-52498757D01*
X30406000Y-52498757D01*
X30406000Y-49958757D01*
X41329000Y-49958757D01*
X41329000Y-50201243D01*
X41376307Y-50439069D01*
X41469102Y-50663097D01*
X41603820Y-50864717D01*
X41775283Y-51036180D01*
X41976903Y-51170898D01*
X42200931Y-51263693D01*
X42438757Y-51311000D01*
X42681243Y-51311000D01*
X42919069Y-51263693D01*
X43143097Y-51170898D01*
X43344717Y-51036180D01*
X43516180Y-50864717D01*
X43650898Y-50663097D01*
X43743693Y-50439069D01*
X43791000Y-50201243D01*
X43791000Y-49958757D01*
X43869000Y-49958757D01*
X43869000Y-50201243D01*
X43916307Y-50439069D01*
X44009102Y-50663097D01*
X44143820Y-50864717D01*
X44315283Y-51036180D01*
X44516903Y-51170898D01*
X44740931Y-51263693D01*
X44978757Y-51311000D01*
X45221243Y-51311000D01*
X45459069Y-51263693D01*
X45683097Y-51170898D01*
X45884717Y-51036180D01*
X46056180Y-50864717D01*
X46190898Y-50663097D01*
X46283693Y-50439069D01*
X46331000Y-50201243D01*
X46331000Y-49958757D01*
X46283693Y-49720931D01*
X46190898Y-49496903D01*
X46056180Y-49295283D01*
X45884717Y-49123820D01*
X45683097Y-48989102D01*
X45459069Y-48896307D01*
X45221243Y-48849000D01*
X44978757Y-48849000D01*
X44740931Y-48896307D01*
X44516903Y-48989102D01*
X44315283Y-49123820D01*
X44143820Y-49295283D01*
X44009102Y-49496903D01*
X43916307Y-49720931D01*
X43869000Y-49958757D01*
X43791000Y-49958757D01*
X43743693Y-49720931D01*
X43650898Y-49496903D01*
X43516180Y-49295283D01*
X43344717Y-49123820D01*
X43143097Y-48989102D01*
X42919069Y-48896307D01*
X42681243Y-48849000D01*
X42438757Y-48849000D01*
X42200931Y-48896307D01*
X41976903Y-48989102D01*
X41775283Y-49123820D01*
X41603820Y-49295283D01*
X41469102Y-49496903D01*
X41376307Y-49720931D01*
X41329000Y-49958757D01*
X30406000Y-49958757D01*
X30406000Y-47856980D01*
X41370511Y-47856980D01*
X41394866Y-47937288D01*
X41494761Y-48156961D01*
X41635592Y-48352924D01*
X41811948Y-48517647D01*
X42017051Y-48644799D01*
X42243019Y-48729495D01*
X42433000Y-48669187D01*
X42433000Y-47667000D01*
X42687000Y-47667000D01*
X42687000Y-48669187D01*
X42876981Y-48729495D01*
X43102949Y-48644799D01*
X43308052Y-48517647D01*
X43484408Y-48352924D01*
X43625239Y-48156961D01*
X43725134Y-47937288D01*
X43749489Y-47856980D01*
X43688627Y-47667000D01*
X42687000Y-47667000D01*
X42433000Y-47667000D01*
X41431373Y-47667000D01*
X41370511Y-47856980D01*
X30406000Y-47856980D01*
X30406000Y-47418757D01*
X43869000Y-47418757D01*
X43869000Y-47661243D01*
X43916307Y-47899069D01*
X44009102Y-48123097D01*
X44143820Y-48324717D01*
X44315283Y-48496180D01*
X44516903Y-48630898D01*
X44740931Y-48723693D01*
X44978757Y-48771000D01*
X45221243Y-48771000D01*
X45459069Y-48723693D01*
X45683097Y-48630898D01*
X45884717Y-48496180D01*
X46056180Y-48324717D01*
X46190898Y-48123097D01*
X46283693Y-47899069D01*
X46331000Y-47661243D01*
X46331000Y-47418757D01*
X46283693Y-47180931D01*
X46190898Y-46956903D01*
X46056180Y-46755283D01*
X45884717Y-46583820D01*
X45683097Y-46449102D01*
X45459069Y-46356307D01*
X45221243Y-46309000D01*
X44978757Y-46309000D01*
X44740931Y-46356307D01*
X44516903Y-46449102D01*
X44315283Y-46583820D01*
X44143820Y-46755283D01*
X44009102Y-46956903D01*
X43916307Y-47180931D01*
X43869000Y-47418757D01*
X30406000Y-47418757D01*
X30406000Y-47223020D01*
X41370511Y-47223020D01*
X41431373Y-47413000D01*
X42433000Y-47413000D01*
X42433000Y-46410813D01*
X42687000Y-46410813D01*
X42687000Y-47413000D01*
X43688627Y-47413000D01*
X43749489Y-47223020D01*
X43725134Y-47142712D01*
X43625239Y-46923039D01*
X43484408Y-46727076D01*
X43308052Y-46562353D01*
X43102949Y-46435201D01*
X42876981Y-46350505D01*
X42687000Y-46410813D01*
X42433000Y-46410813D01*
X42243019Y-46350505D01*
X42017051Y-46435201D01*
X41811948Y-46562353D01*
X41635592Y-46727076D01*
X41494761Y-46923039D01*
X41394866Y-47142712D01*
X41370511Y-47223020D01*
X30406000Y-47223020D01*
X30406000Y-42427000D01*
X54219000Y-42427000D01*
X54219000Y-43477000D01*
X54262626Y-43665943D01*
X54342275Y-43842745D01*
X54454886Y-44000611D01*
X54596131Y-44133474D01*
X54760582Y-44236229D01*
X54922393Y-44290902D01*
X55073000Y-44226598D01*
X55073000Y-42427000D01*
X55327000Y-42427000D01*
X55327000Y-44226598D01*
X55477607Y-44290902D01*
X55639418Y-44236229D01*
X55803869Y-44133474D01*
X55945114Y-44000611D01*
X56057725Y-43842745D01*
X56137374Y-43665943D01*
X56181000Y-43477000D01*
X56181000Y-42427000D01*
X55327000Y-42427000D01*
X55073000Y-42427000D01*
X54219000Y-42427000D01*
X30406000Y-42427000D01*
X30406000Y-41123000D01*
X54219000Y-41123000D01*
X54219000Y-42173000D01*
X55073000Y-42173000D01*
X55073000Y-40373402D01*
X55327000Y-40373402D01*
X55327000Y-42173000D01*
X56181000Y-42173000D01*
X56181000Y-41123000D01*
X56170379Y-41077000D01*
X59119000Y-41077000D01*
X59119000Y-42127000D01*
X59162626Y-42315943D01*
X59242275Y-42492745D01*
X59354886Y-42650611D01*
X59496131Y-42783474D01*
X59660582Y-42886229D01*
X59822393Y-42940902D01*
X59973000Y-42876598D01*
X59973000Y-41077000D01*
X60227000Y-41077000D01*
X60227000Y-42876598D01*
X60377607Y-42940902D01*
X60539418Y-42886229D01*
X60703869Y-42783474D01*
X60845114Y-42650611D01*
X60957725Y-42492745D01*
X61037374Y-42315943D01*
X61081000Y-42127000D01*
X61081000Y-41077000D01*
X60227000Y-41077000D01*
X59973000Y-41077000D01*
X59119000Y-41077000D01*
X56170379Y-41077000D01*
X56137374Y-40934057D01*
X56057725Y-40757255D01*
X55945114Y-40599389D01*
X55803869Y-40466526D01*
X55639418Y-40363771D01*
X55477607Y-40309098D01*
X55327000Y-40373402D01*
X55073000Y-40373402D01*
X54922393Y-40309098D01*
X54760582Y-40363771D01*
X54596131Y-40466526D01*
X54454886Y-40599389D01*
X54342275Y-40757255D01*
X54262626Y-40934057D01*
X54219000Y-41123000D01*
X30406000Y-41123000D01*
X30406000Y-34866595D01*
X31814879Y-34866595D01*
X31814879Y-35533405D01*
X31944967Y-36187403D01*
X32200145Y-36803456D01*
X32570605Y-37357889D01*
X33042111Y-37829395D01*
X33596544Y-38199855D01*
X34212597Y-38455033D01*
X34866595Y-38585121D01*
X35533405Y-38585121D01*
X36187403Y-38455033D01*
X36278739Y-38417200D01*
X42224000Y-38417200D01*
X42224000Y-38782800D01*
X42295325Y-39141375D01*
X42435234Y-39479145D01*
X42638351Y-39783131D01*
X42896869Y-40041649D01*
X43200855Y-40244766D01*
X43538625Y-40384675D01*
X43897200Y-40456000D01*
X44262800Y-40456000D01*
X44621375Y-40384675D01*
X44959145Y-40244766D01*
X45263131Y-40041649D01*
X45521649Y-39783131D01*
X45528418Y-39773000D01*
X59119000Y-39773000D01*
X59119000Y-40823000D01*
X59973000Y-40823000D01*
X59973000Y-40803000D01*
X60227000Y-40803000D01*
X60227000Y-40823000D01*
X61081000Y-40823000D01*
X61081000Y-39773000D01*
X61037374Y-39584057D01*
X60957725Y-39407255D01*
X60857467Y-39266706D01*
X60877229Y-39260711D01*
X61047651Y-39169618D01*
X61197028Y-39047028D01*
X61319618Y-38897651D01*
X61410711Y-38727229D01*
X61466805Y-38542310D01*
X61481000Y-38398187D01*
X61481000Y-37427000D01*
X64519000Y-37427000D01*
X64519000Y-38477000D01*
X64562626Y-38665943D01*
X64642275Y-38842745D01*
X64754886Y-39000611D01*
X64896131Y-39133474D01*
X65060582Y-39236229D01*
X65150692Y-39266676D01*
X65080382Y-39352349D01*
X64989289Y-39522772D01*
X64933195Y-39707691D01*
X64919000Y-39851814D01*
X64919001Y-42048187D01*
X64933196Y-42192310D01*
X64989290Y-42377229D01*
X65080383Y-42547651D01*
X65202973Y-42697028D01*
X65352350Y-42819618D01*
X65522772Y-42910711D01*
X65707691Y-42966805D01*
X65900000Y-42985746D01*
X66092310Y-42966805D01*
X66277229Y-42910711D01*
X66447651Y-42819618D01*
X66597028Y-42697028D01*
X66719618Y-42547651D01*
X66784107Y-42427000D01*
X69819000Y-42427000D01*
X69819000Y-43477000D01*
X69862626Y-43665943D01*
X69942275Y-43842745D01*
X70054886Y-44000611D01*
X70196131Y-44133474D01*
X70360582Y-44236229D01*
X70522393Y-44290902D01*
X70673000Y-44226598D01*
X70673000Y-42427000D01*
X70927000Y-42427000D01*
X70927000Y-44226598D01*
X71077607Y-44290902D01*
X71239418Y-44236229D01*
X71403869Y-44133474D01*
X71545114Y-44000611D01*
X71657725Y-43842745D01*
X71737374Y-43665943D01*
X71781000Y-43477000D01*
X71781000Y-42427000D01*
X70927000Y-42427000D01*
X70673000Y-42427000D01*
X69819000Y-42427000D01*
X66784107Y-42427000D01*
X66810711Y-42377229D01*
X66857471Y-42223078D01*
X98819000Y-42223078D01*
X98819000Y-42376922D01*
X98849013Y-42527809D01*
X98907887Y-42669942D01*
X98993358Y-42797859D01*
X99102141Y-42906642D01*
X99115000Y-42915234D01*
X99115001Y-45276173D01*
X99112654Y-45300000D01*
X99122019Y-45395076D01*
X99149752Y-45486499D01*
X99194787Y-45570755D01*
X99240210Y-45626103D01*
X99255395Y-45644606D01*
X99273897Y-45659790D01*
X99522017Y-45907910D01*
X99519000Y-45923078D01*
X99519000Y-46076922D01*
X99549013Y-46227809D01*
X99607887Y-46369942D01*
X99693358Y-46497859D01*
X99802141Y-46606642D01*
X99930058Y-46692113D01*
X100072191Y-46750987D01*
X100223078Y-46781000D01*
X100376922Y-46781000D01*
X100527809Y-46750987D01*
X100669942Y-46692113D01*
X100797859Y-46606642D01*
X100906642Y-46497859D01*
X100992113Y-46369942D01*
X101050987Y-46227809D01*
X101081000Y-46076922D01*
X101081000Y-45923078D01*
X101050987Y-45772191D01*
X100992113Y-45630058D01*
X100906642Y-45502141D01*
X100797859Y-45393358D01*
X100669942Y-45307887D01*
X100527809Y-45249013D01*
X100376922Y-45219000D01*
X100223078Y-45219000D01*
X100207910Y-45222017D01*
X100085000Y-45099107D01*
X100085000Y-42915234D01*
X100097859Y-42906642D01*
X100206642Y-42797859D01*
X100292113Y-42669942D01*
X100350987Y-42527809D01*
X100381000Y-42376922D01*
X100381000Y-42223078D01*
X100350987Y-42072191D01*
X100292113Y-41930058D01*
X100206642Y-41802141D01*
X100097859Y-41693358D01*
X99969942Y-41607887D01*
X99875840Y-41568908D01*
X100819000Y-41568908D01*
X100819000Y-41831092D01*
X100870150Y-42088238D01*
X100970483Y-42330465D01*
X101116145Y-42548463D01*
X101301537Y-42733855D01*
X101519535Y-42879517D01*
X101761762Y-42979850D01*
X102018908Y-43031000D01*
X102281092Y-43031000D01*
X102538238Y-42979850D01*
X102780465Y-42879517D01*
X102946002Y-42768908D01*
X105919000Y-42768908D01*
X105919000Y-43031092D01*
X105970150Y-43288238D01*
X106070483Y-43530465D01*
X106216145Y-43748463D01*
X106401537Y-43933855D01*
X106619535Y-44079517D01*
X106861762Y-44179850D01*
X107118908Y-44231000D01*
X107381092Y-44231000D01*
X107638238Y-44179850D01*
X107880465Y-44079517D01*
X108098463Y-43933855D01*
X108283855Y-43748463D01*
X108429517Y-43530465D01*
X108529850Y-43288238D01*
X108581000Y-43031092D01*
X108581000Y-42768908D01*
X108529850Y-42511762D01*
X108429517Y-42269535D01*
X108283855Y-42051537D01*
X108098463Y-41866145D01*
X107880465Y-41720483D01*
X107638238Y-41620150D01*
X107381092Y-41569000D01*
X107118908Y-41569000D01*
X106861762Y-41620150D01*
X106619535Y-41720483D01*
X106401537Y-41866145D01*
X106216145Y-42051537D01*
X106070483Y-42269535D01*
X105970150Y-42511762D01*
X105919000Y-42768908D01*
X102946002Y-42768908D01*
X102998463Y-42733855D01*
X103183855Y-42548463D01*
X103329517Y-42330465D01*
X103429850Y-42088238D01*
X103481000Y-41831092D01*
X103481000Y-41568908D01*
X103429850Y-41311762D01*
X103329517Y-41069535D01*
X103183855Y-40851537D01*
X102998463Y-40666145D01*
X102780465Y-40520483D01*
X102538238Y-40420150D01*
X102281092Y-40369000D01*
X102018908Y-40369000D01*
X101761762Y-40420150D01*
X101519535Y-40520483D01*
X101301537Y-40666145D01*
X101116145Y-40851537D01*
X100970483Y-41069535D01*
X100870150Y-41311762D01*
X100819000Y-41568908D01*
X99875840Y-41568908D01*
X99827809Y-41549013D01*
X99676922Y-41519000D01*
X99523078Y-41519000D01*
X99372191Y-41549013D01*
X99230058Y-41607887D01*
X99102141Y-41693358D01*
X98993358Y-41802141D01*
X98907887Y-41930058D01*
X98849013Y-42072191D01*
X98819000Y-42223078D01*
X66857471Y-42223078D01*
X66866805Y-42192310D01*
X66881000Y-42048187D01*
X66881000Y-41123000D01*
X69819000Y-41123000D01*
X69819000Y-42173000D01*
X70673000Y-42173000D01*
X70673000Y-40373402D01*
X70927000Y-40373402D01*
X70927000Y-42173000D01*
X71781000Y-42173000D01*
X71781000Y-41123000D01*
X71737374Y-40934057D01*
X71657725Y-40757255D01*
X71545114Y-40599389D01*
X71403869Y-40466526D01*
X71239418Y-40363771D01*
X71077607Y-40309098D01*
X70927000Y-40373402D01*
X70673000Y-40373402D01*
X70522393Y-40309098D01*
X70360582Y-40363771D01*
X70196131Y-40466526D01*
X70054886Y-40599389D01*
X69942275Y-40757255D01*
X69862626Y-40934057D01*
X69819000Y-41123000D01*
X66881000Y-41123000D01*
X66881000Y-39851813D01*
X66866805Y-39707690D01*
X66810711Y-39522771D01*
X66719618Y-39352349D01*
X66597028Y-39202972D01*
X66447651Y-39080382D01*
X66277228Y-38989289D01*
X66257466Y-38983294D01*
X66357725Y-38842745D01*
X66437374Y-38665943D01*
X66481000Y-38477000D01*
X66481000Y-37427000D01*
X65627000Y-37427000D01*
X65627000Y-37447000D01*
X65373000Y-37447000D01*
X65373000Y-37427000D01*
X64519000Y-37427000D01*
X61481000Y-37427000D01*
X61481000Y-36201813D01*
X61473238Y-36123000D01*
X64519000Y-36123000D01*
X64519000Y-37173000D01*
X65373000Y-37173000D01*
X65373000Y-35373402D01*
X65627000Y-35373402D01*
X65627000Y-37173000D01*
X66481000Y-37173000D01*
X66481000Y-36123000D01*
X66437374Y-35934057D01*
X66357725Y-35757255D01*
X66245114Y-35599389D01*
X66103869Y-35466526D01*
X65939418Y-35363771D01*
X65777607Y-35309098D01*
X65627000Y-35373402D01*
X65373000Y-35373402D01*
X65222393Y-35309098D01*
X65060582Y-35363771D01*
X64896131Y-35466526D01*
X64754886Y-35599389D01*
X64642275Y-35757255D01*
X64562626Y-35934057D01*
X64519000Y-36123000D01*
X61473238Y-36123000D01*
X61466805Y-36057690D01*
X61410711Y-35872771D01*
X61319618Y-35702349D01*
X61197028Y-35552972D01*
X61047651Y-35430382D01*
X60877228Y-35339289D01*
X60692309Y-35283195D01*
X60500000Y-35264254D01*
X60307690Y-35283195D01*
X60122771Y-35339289D01*
X59952349Y-35430382D01*
X59802972Y-35552972D01*
X59680382Y-35702349D01*
X59589289Y-35872772D01*
X59533195Y-36057691D01*
X59519000Y-36201814D01*
X59519001Y-38398187D01*
X59533196Y-38542310D01*
X59589290Y-38727229D01*
X59680383Y-38897651D01*
X59750693Y-38983324D01*
X59660582Y-39013771D01*
X59496131Y-39116526D01*
X59354886Y-39249389D01*
X59242275Y-39407255D01*
X59162626Y-39584057D01*
X59119000Y-39773000D01*
X45528418Y-39773000D01*
X45724766Y-39479145D01*
X45864675Y-39141375D01*
X45936000Y-38782800D01*
X45936000Y-38417200D01*
X45864675Y-38058625D01*
X45724766Y-37720855D01*
X45521649Y-37416869D01*
X45263131Y-37158351D01*
X44959145Y-36955234D01*
X44621375Y-36815325D01*
X44262800Y-36744000D01*
X43897200Y-36744000D01*
X43538625Y-36815325D01*
X43200855Y-36955234D01*
X42896869Y-37158351D01*
X42638351Y-37416869D01*
X42435234Y-37720855D01*
X42295325Y-38058625D01*
X42224000Y-38417200D01*
X36278739Y-38417200D01*
X36803456Y-38199855D01*
X37357889Y-37829395D01*
X37829395Y-37357889D01*
X38199855Y-36803456D01*
X38455033Y-36187403D01*
X38585121Y-35533405D01*
X38585121Y-35226995D01*
X53952611Y-35226995D01*
X54135092Y-35481785D01*
X54483654Y-35657223D01*
X54859744Y-35761289D01*
X55248911Y-35789984D01*
X55636198Y-35742205D01*
X56006722Y-35619788D01*
X56264908Y-35481785D01*
X56447389Y-35226995D01*
X69552611Y-35226995D01*
X69735092Y-35481785D01*
X70083654Y-35657223D01*
X70459744Y-35761289D01*
X70848911Y-35789984D01*
X71236198Y-35742205D01*
X71606722Y-35619788D01*
X71864908Y-35481785D01*
X72047389Y-35226995D01*
X70800000Y-33979605D01*
X69552611Y-35226995D01*
X56447389Y-35226995D01*
X55200000Y-33979605D01*
X53952611Y-35226995D01*
X38585121Y-35226995D01*
X38585121Y-34866595D01*
X38455033Y-34212597D01*
X38304390Y-33848911D01*
X53210016Y-33848911D01*
X53257795Y-34236198D01*
X53380212Y-34606722D01*
X53518215Y-34864908D01*
X53773005Y-35047389D01*
X55020395Y-33800000D01*
X55379605Y-33800000D01*
X56626995Y-35047389D01*
X56881785Y-34864908D01*
X57057223Y-34516346D01*
X57161289Y-34140256D01*
X57189984Y-33751089D01*
X57181061Y-33678757D01*
X59269000Y-33678757D01*
X59269000Y-33921243D01*
X59316307Y-34159069D01*
X59409102Y-34383097D01*
X59543820Y-34584717D01*
X59715283Y-34756180D01*
X59916903Y-34890898D01*
X60140931Y-34983693D01*
X60378757Y-35031000D01*
X60621243Y-35031000D01*
X60859069Y-34983693D01*
X61083097Y-34890898D01*
X61284717Y-34756180D01*
X61456180Y-34584717D01*
X61590898Y-34383097D01*
X61683693Y-34159069D01*
X61731000Y-33921243D01*
X61731000Y-33678757D01*
X64269000Y-33678757D01*
X64269000Y-33921243D01*
X64316307Y-34159069D01*
X64409102Y-34383097D01*
X64543820Y-34584717D01*
X64715283Y-34756180D01*
X64916903Y-34890898D01*
X65140931Y-34983693D01*
X65378757Y-35031000D01*
X65621243Y-35031000D01*
X65859069Y-34983693D01*
X66083097Y-34890898D01*
X66284717Y-34756180D01*
X66456180Y-34584717D01*
X66590898Y-34383097D01*
X66683693Y-34159069D01*
X66731000Y-33921243D01*
X66731000Y-33848911D01*
X68810016Y-33848911D01*
X68857795Y-34236198D01*
X68980212Y-34606722D01*
X69118215Y-34864908D01*
X69373005Y-35047389D01*
X70620395Y-33800000D01*
X70979605Y-33800000D01*
X72226995Y-35047389D01*
X72481785Y-34864908D01*
X72547190Y-34734960D01*
X77704645Y-34734960D01*
X77820857Y-34933408D01*
X78075685Y-35053908D01*
X78349125Y-35122378D01*
X78630669Y-35136187D01*
X78909497Y-35094804D01*
X79174894Y-34999820D01*
X79299143Y-34933408D01*
X79415355Y-34734960D01*
X82784645Y-34734960D01*
X82900857Y-34933408D01*
X83155685Y-35053908D01*
X83429125Y-35122378D01*
X83710669Y-35136187D01*
X83989497Y-35094804D01*
X84254894Y-34999820D01*
X84379143Y-34933408D01*
X84418268Y-34866595D01*
X195614879Y-34866595D01*
X195614879Y-35533405D01*
X195744967Y-36187403D01*
X196000145Y-36803456D01*
X196370605Y-37357889D01*
X196842111Y-37829395D01*
X197396544Y-38199855D01*
X198012597Y-38455033D01*
X198666595Y-38585121D01*
X199333405Y-38585121D01*
X199987403Y-38455033D01*
X200603456Y-38199855D01*
X201157889Y-37829395D01*
X201629395Y-37357889D01*
X201999855Y-36803456D01*
X202255033Y-36187403D01*
X202385121Y-35533405D01*
X202385121Y-34866595D01*
X202255033Y-34212597D01*
X201999855Y-33596544D01*
X201629395Y-33042111D01*
X201157889Y-32570605D01*
X200603456Y-32200145D01*
X199987403Y-31944967D01*
X199333405Y-31814879D01*
X198666595Y-31814879D01*
X198012597Y-31944967D01*
X197396544Y-32200145D01*
X196842111Y-32570605D01*
X196370605Y-33042111D01*
X196000145Y-33596544D01*
X195744967Y-34212597D01*
X195614879Y-34866595D01*
X84418268Y-34866595D01*
X84495355Y-34734960D01*
X83640000Y-33879605D01*
X82784645Y-34734960D01*
X79415355Y-34734960D01*
X78560000Y-33879605D01*
X77704645Y-34734960D01*
X72547190Y-34734960D01*
X72657223Y-34516346D01*
X72761289Y-34140256D01*
X72788540Y-33770669D01*
X77123813Y-33770669D01*
X77165196Y-34049497D01*
X77260180Y-34314894D01*
X77326592Y-34439143D01*
X77525040Y-34555355D01*
X78380395Y-33700000D01*
X78739605Y-33700000D01*
X79594960Y-34555355D01*
X79793408Y-34439143D01*
X79913908Y-34184315D01*
X79982378Y-33910875D01*
X79989254Y-33770669D01*
X82203813Y-33770669D01*
X82245196Y-34049497D01*
X82340180Y-34314894D01*
X82406592Y-34439143D01*
X82605040Y-34555355D01*
X83460395Y-33700000D01*
X83819605Y-33700000D01*
X84674960Y-34555355D01*
X84873408Y-34439143D01*
X84993908Y-34184315D01*
X85062378Y-33910875D01*
X85076187Y-33629331D01*
X85034804Y-33350503D01*
X84939820Y-33085106D01*
X84873408Y-32960857D01*
X84674960Y-32844645D01*
X83819605Y-33700000D01*
X83460395Y-33700000D01*
X82605040Y-32844645D01*
X82406592Y-32960857D01*
X82286092Y-33215685D01*
X82217622Y-33489125D01*
X82203813Y-33770669D01*
X79989254Y-33770669D01*
X79996187Y-33629331D01*
X79954804Y-33350503D01*
X79859820Y-33085106D01*
X79793408Y-32960857D01*
X79594960Y-32844645D01*
X78739605Y-33700000D01*
X78380395Y-33700000D01*
X77525040Y-32844645D01*
X77326592Y-32960857D01*
X77206092Y-33215685D01*
X77137622Y-33489125D01*
X77123813Y-33770669D01*
X72788540Y-33770669D01*
X72789984Y-33751089D01*
X72742205Y-33363802D01*
X72619788Y-32993278D01*
X72481785Y-32735092D01*
X72383975Y-32665040D01*
X77704645Y-32665040D01*
X78560000Y-33520395D01*
X79415355Y-32665040D01*
X82784645Y-32665040D01*
X83640000Y-33520395D01*
X84495355Y-32665040D01*
X84379143Y-32466592D01*
X84124315Y-32346092D01*
X83850875Y-32277622D01*
X83569331Y-32263813D01*
X83290503Y-32305196D01*
X83025106Y-32400180D01*
X82900857Y-32466592D01*
X82784645Y-32665040D01*
X79415355Y-32665040D01*
X79299143Y-32466592D01*
X79044315Y-32346092D01*
X78770875Y-32277622D01*
X78489331Y-32263813D01*
X78210503Y-32305196D01*
X77945106Y-32400180D01*
X77820857Y-32466592D01*
X77704645Y-32665040D01*
X72383975Y-32665040D01*
X72226995Y-32552611D01*
X70979605Y-33800000D01*
X70620395Y-33800000D01*
X69373005Y-32552611D01*
X69118215Y-32735092D01*
X68942777Y-33083654D01*
X68838711Y-33459744D01*
X68810016Y-33848911D01*
X66731000Y-33848911D01*
X66731000Y-33678757D01*
X66683693Y-33440931D01*
X66590898Y-33216903D01*
X66456180Y-33015283D01*
X66284717Y-32843820D01*
X66083097Y-32709102D01*
X65859069Y-32616307D01*
X65621243Y-32569000D01*
X65378757Y-32569000D01*
X65140931Y-32616307D01*
X64916903Y-32709102D01*
X64715283Y-32843820D01*
X64543820Y-33015283D01*
X64409102Y-33216903D01*
X64316307Y-33440931D01*
X64269000Y-33678757D01*
X61731000Y-33678757D01*
X61683693Y-33440931D01*
X61590898Y-33216903D01*
X61456180Y-33015283D01*
X61284717Y-32843820D01*
X61083097Y-32709102D01*
X60859069Y-32616307D01*
X60621243Y-32569000D01*
X60378757Y-32569000D01*
X60140931Y-32616307D01*
X59916903Y-32709102D01*
X59715283Y-32843820D01*
X59543820Y-33015283D01*
X59409102Y-33216903D01*
X59316307Y-33440931D01*
X59269000Y-33678757D01*
X57181061Y-33678757D01*
X57142205Y-33363802D01*
X57019788Y-32993278D01*
X56881785Y-32735092D01*
X56626995Y-32552611D01*
X55379605Y-33800000D01*
X55020395Y-33800000D01*
X53773005Y-32552611D01*
X53518215Y-32735092D01*
X53342777Y-33083654D01*
X53238711Y-33459744D01*
X53210016Y-33848911D01*
X38304390Y-33848911D01*
X38199855Y-33596544D01*
X37829395Y-33042111D01*
X37357889Y-32570605D01*
X37062160Y-32373005D01*
X53952611Y-32373005D01*
X55200000Y-33620395D01*
X56447389Y-32373005D01*
X56264908Y-32118215D01*
X55916346Y-31942777D01*
X55540256Y-31838711D01*
X55151089Y-31810016D01*
X54763802Y-31857795D01*
X54393278Y-31980212D01*
X54135092Y-32118215D01*
X53952611Y-32373005D01*
X37062160Y-32373005D01*
X36803456Y-32200145D01*
X36187403Y-31944967D01*
X35533405Y-31814879D01*
X34866595Y-31814879D01*
X34212597Y-31944967D01*
X33596544Y-32200145D01*
X33042111Y-32570605D01*
X32570605Y-33042111D01*
X32200145Y-33596544D01*
X31944967Y-34212597D01*
X31814879Y-34866595D01*
X30406000Y-34866595D01*
X30406000Y-31800000D01*
X61213286Y-31800000D01*
X61236088Y-32031516D01*
X61303619Y-32254136D01*
X61413283Y-32459303D01*
X61560866Y-32639134D01*
X61740697Y-32786717D01*
X61945864Y-32896381D01*
X62168484Y-32963912D01*
X62341984Y-32981000D01*
X63658016Y-32981000D01*
X63831516Y-32963912D01*
X64054136Y-32896381D01*
X64259303Y-32786717D01*
X64439134Y-32639134D01*
X64586717Y-32459303D01*
X64632844Y-32373005D01*
X69552611Y-32373005D01*
X70800000Y-33620395D01*
X72047389Y-32373005D01*
X71864908Y-32118215D01*
X71516346Y-31942777D01*
X71140256Y-31838711D01*
X70751089Y-31810016D01*
X70363802Y-31857795D01*
X69993278Y-31980212D01*
X69735092Y-32118215D01*
X69552611Y-32373005D01*
X64632844Y-32373005D01*
X64696381Y-32254136D01*
X64763912Y-32031516D01*
X64786714Y-31800000D01*
X64763912Y-31568484D01*
X64696381Y-31345864D01*
X64586717Y-31140697D01*
X64439134Y-30960866D01*
X64259303Y-30813283D01*
X64054136Y-30703619D01*
X63831516Y-30636088D01*
X63658016Y-30619000D01*
X62341984Y-30619000D01*
X62168484Y-30636088D01*
X61945864Y-30703619D01*
X61740697Y-30813283D01*
X61560866Y-30960866D01*
X61413283Y-31140697D01*
X61303619Y-31345864D01*
X61236088Y-31568484D01*
X61213286Y-31800000D01*
X30406000Y-31800000D01*
X30406000Y-30406000D01*
X203594001Y-30406000D01*
X203594000Y-87094000D01*
G37*
%TD.AperFunction*%
M02*
