%TF.GenerationSoftware,KiCad,Pcbnew,5.1.9-73d0e3b20d~88~ubuntu20.04.1*%
%TF.CreationDate,2020-12-30T17:27:21-05:00*%
%TF.ProjectId,OV_Power,4f565f50-6f77-4657-922e-6b696361645f,rev?*%
%TF.SameCoordinates,Original*%
%TF.FileFunction,Legend,Top*%
%TF.FilePolarity,Positive*%
%FSLAX46Y46*%
G04 Gerber Fmt 4.6, Leading zero omitted, Abs format (unit mm)*
G04 Created by KiCad (PCBNEW 5.1.9-73d0e3b20d~88~ubuntu20.04.1) date 2020-12-30 17:27:21*
%MOMM*%
%LPD*%
G01*
G04 APERTURE LIST*
%ADD10C,0.100000*%
%ADD11C,0.150000*%
%ADD12C,0.300000*%
%ADD13C,0.400000*%
%ADD14C,0.120000*%
%ADD15C,0.127000*%
%ADD16C,0.152400*%
%ADD17C,2.100000*%
%ADD18O,1.740000X2.190000*%
%ADD19C,3.400000*%
%ADD20C,3.200000*%
%ADD21O,1.200000X3.300000*%
%ADD22C,1.700000*%
%ADD23O,2.800000X1.600000*%
%ADD24R,0.800000X0.900000*%
%ADD25R,2.500000X1.800000*%
%ADD26C,1.900000*%
%ADD27O,1.200000X1.800000*%
%ADD28R,6.310000X2.070000*%
%ADD29R,4.000000X2.000000*%
%ADD30R,1.800000X3.600000*%
%ADD31R,1.400000X0.300000*%
%ADD32R,5.250000X6.230000*%
%ADD33R,5.250000X10.300000*%
%ADD34R,1.350000X0.660000*%
%ADD35R,2.083000X2.794000*%
%ADD36R,0.889000X0.420000*%
%ADD37R,1.370000X1.187500*%
%ADD38R,1.100000X0.400000*%
%ADD39R,0.900000X0.800000*%
%ADD40C,2.950000*%
%ADD41O,1.700000X1.700000*%
%ADD42R,1.700000X1.700000*%
%ADD43R,2.500000X2.300000*%
%ADD44C,1.600200*%
%ADD45C,1.500000*%
%ADD46C,1.000000*%
%ADD47C,0.800000*%
G04 APERTURE END LIST*
D10*
D11*
X177002200Y-166007200D02*
X177002200Y-198007200D01*
X285002200Y-198007200D01*
X285002200Y-166007200D01*
X177002200Y-166007200D01*
D10*
D11*
X10000000Y-10000000D02*
X10000000Y-200007200D01*
X287002200Y-200007200D01*
X287002200Y-10000000D01*
X10000000Y-10000000D01*
D10*
D11*
X12000000Y-12000000D02*
X12000000Y-198007200D01*
X285002200Y-198007200D01*
X285002200Y-12000000D01*
X12000000Y-12000000D01*
D10*
D11*
X60000000Y-12000000D02*
X60000000Y-10000000D01*
D10*
D11*
X110000000Y-12000000D02*
X110000000Y-10000000D01*
D10*
D11*
X160000000Y-12000000D02*
X160000000Y-10000000D01*
D10*
D11*
X210000000Y-12000000D02*
X210000000Y-10000000D01*
D10*
D11*
X260000000Y-12000000D02*
X260000000Y-10000000D01*
D10*
D11*
X36065476Y-11588095D02*
X35322619Y-11588095D01*
X35694047Y-11588095D02*
X35694047Y-10288095D01*
X35570238Y-10473809D01*
X35446428Y-10597619D01*
X35322619Y-10659523D01*
D10*
D11*
X85322619Y-10411904D02*
X85384523Y-10350000D01*
X85508333Y-10288095D01*
X85817857Y-10288095D01*
X85941666Y-10350000D01*
X86003571Y-10411904D01*
X86065476Y-10535714D01*
X86065476Y-10659523D01*
X86003571Y-10845238D01*
X85260714Y-11588095D01*
X86065476Y-11588095D01*
D10*
D11*
X135260714Y-10288095D02*
X136065476Y-10288095D01*
X135632142Y-10783333D01*
X135817857Y-10783333D01*
X135941666Y-10845238D01*
X136003571Y-10907142D01*
X136065476Y-11030952D01*
X136065476Y-11340476D01*
X136003571Y-11464285D01*
X135941666Y-11526190D01*
X135817857Y-11588095D01*
X135446428Y-11588095D01*
X135322619Y-11526190D01*
X135260714Y-11464285D01*
D10*
D11*
X185941666Y-10721428D02*
X185941666Y-11588095D01*
X185632142Y-10226190D02*
X185322619Y-11154761D01*
X186127380Y-11154761D01*
D10*
D11*
X236003571Y-10288095D02*
X235384523Y-10288095D01*
X235322619Y-10907142D01*
X235384523Y-10845238D01*
X235508333Y-10783333D01*
X235817857Y-10783333D01*
X235941666Y-10845238D01*
X236003571Y-10907142D01*
X236065476Y-11030952D01*
X236065476Y-11340476D01*
X236003571Y-11464285D01*
X235941666Y-11526190D01*
X235817857Y-11588095D01*
X235508333Y-11588095D01*
X235384523Y-11526190D01*
X235322619Y-11464285D01*
D10*
D11*
X285941666Y-10288095D02*
X285694047Y-10288095D01*
X285570238Y-10350000D01*
X285508333Y-10411904D01*
X285384523Y-10597619D01*
X285322619Y-10845238D01*
X285322619Y-11340476D01*
X285384523Y-11464285D01*
X285446428Y-11526190D01*
X285570238Y-11588095D01*
X285817857Y-11588095D01*
X285941666Y-11526190D01*
X286003571Y-11464285D01*
X286065476Y-11340476D01*
X286065476Y-11030952D01*
X286003571Y-10907142D01*
X285941666Y-10845238D01*
X285817857Y-10783333D01*
X285570238Y-10783333D01*
X285446428Y-10845238D01*
X285384523Y-10907142D01*
X285322619Y-11030952D01*
D10*
D11*
X60000000Y-198007200D02*
X60000000Y-200007200D01*
D10*
D11*
X110000000Y-198007200D02*
X110000000Y-200007200D01*
D10*
D11*
X160000000Y-198007200D02*
X160000000Y-200007200D01*
D10*
D11*
X210000000Y-198007200D02*
X210000000Y-200007200D01*
D10*
D11*
X260000000Y-198007200D02*
X260000000Y-200007200D01*
D10*
D11*
X36065476Y-199595295D02*
X35322619Y-199595295D01*
X35694047Y-199595295D02*
X35694047Y-198295295D01*
X35570238Y-198481009D01*
X35446428Y-198604819D01*
X35322619Y-198666723D01*
D10*
D11*
X85322619Y-198419104D02*
X85384523Y-198357200D01*
X85508333Y-198295295D01*
X85817857Y-198295295D01*
X85941666Y-198357200D01*
X86003571Y-198419104D01*
X86065476Y-198542914D01*
X86065476Y-198666723D01*
X86003571Y-198852438D01*
X85260714Y-199595295D01*
X86065476Y-199595295D01*
D10*
D11*
X135260714Y-198295295D02*
X136065476Y-198295295D01*
X135632142Y-198790533D01*
X135817857Y-198790533D01*
X135941666Y-198852438D01*
X136003571Y-198914342D01*
X136065476Y-199038152D01*
X136065476Y-199347676D01*
X136003571Y-199471485D01*
X135941666Y-199533390D01*
X135817857Y-199595295D01*
X135446428Y-199595295D01*
X135322619Y-199533390D01*
X135260714Y-199471485D01*
D10*
D11*
X185941666Y-198728628D02*
X185941666Y-199595295D01*
X185632142Y-198233390D02*
X185322619Y-199161961D01*
X186127380Y-199161961D01*
D10*
D11*
X236003571Y-198295295D02*
X235384523Y-198295295D01*
X235322619Y-198914342D01*
X235384523Y-198852438D01*
X235508333Y-198790533D01*
X235817857Y-198790533D01*
X235941666Y-198852438D01*
X236003571Y-198914342D01*
X236065476Y-199038152D01*
X236065476Y-199347676D01*
X236003571Y-199471485D01*
X235941666Y-199533390D01*
X235817857Y-199595295D01*
X235508333Y-199595295D01*
X235384523Y-199533390D01*
X235322619Y-199471485D01*
D10*
D11*
X285941666Y-198295295D02*
X285694047Y-198295295D01*
X285570238Y-198357200D01*
X285508333Y-198419104D01*
X285384523Y-198604819D01*
X285322619Y-198852438D01*
X285322619Y-199347676D01*
X285384523Y-199471485D01*
X285446428Y-199533390D01*
X285570238Y-199595295D01*
X285817857Y-199595295D01*
X285941666Y-199533390D01*
X286003571Y-199471485D01*
X286065476Y-199347676D01*
X286065476Y-199038152D01*
X286003571Y-198914342D01*
X285941666Y-198852438D01*
X285817857Y-198790533D01*
X285570238Y-198790533D01*
X285446428Y-198852438D01*
X285384523Y-198914342D01*
X285322619Y-199038152D01*
D10*
D11*
X10000000Y-60000000D02*
X12000000Y-60000000D01*
D10*
D11*
X10000000Y-110000000D02*
X12000000Y-110000000D01*
D10*
D11*
X10000000Y-160000000D02*
X12000000Y-160000000D01*
D10*
D11*
X10690476Y-35216666D02*
X11309523Y-35216666D01*
X10566666Y-35588095D02*
X11000000Y-34288095D01*
X11433333Y-35588095D01*
D10*
D11*
X11092857Y-84907142D02*
X11278571Y-84969047D01*
X11340476Y-85030952D01*
X11402380Y-85154761D01*
X11402380Y-85340476D01*
X11340476Y-85464285D01*
X11278571Y-85526190D01*
X11154761Y-85588095D01*
X10659523Y-85588095D01*
X10659523Y-84288095D01*
X11092857Y-84288095D01*
X11216666Y-84350000D01*
X11278571Y-84411904D01*
X11340476Y-84535714D01*
X11340476Y-84659523D01*
X11278571Y-84783333D01*
X11216666Y-84845238D01*
X11092857Y-84907142D01*
X10659523Y-84907142D01*
D10*
D11*
X11402380Y-135464285D02*
X11340476Y-135526190D01*
X11154761Y-135588095D01*
X11030952Y-135588095D01*
X10845238Y-135526190D01*
X10721428Y-135402380D01*
X10659523Y-135278571D01*
X10597619Y-135030952D01*
X10597619Y-134845238D01*
X10659523Y-134597619D01*
X10721428Y-134473809D01*
X10845238Y-134350000D01*
X11030952Y-134288095D01*
X11154761Y-134288095D01*
X11340476Y-134350000D01*
X11402380Y-134411904D01*
D10*
D11*
X10659523Y-185588095D02*
X10659523Y-184288095D01*
X10969047Y-184288095D01*
X11154761Y-184350000D01*
X11278571Y-184473809D01*
X11340476Y-184597619D01*
X11402380Y-184845238D01*
X11402380Y-185030952D01*
X11340476Y-185278571D01*
X11278571Y-185402380D01*
X11154761Y-185526190D01*
X10969047Y-185588095D01*
X10659523Y-185588095D01*
D10*
D11*
X287002200Y-60000000D02*
X285002200Y-60000000D01*
D10*
D11*
X287002200Y-110000000D02*
X285002200Y-110000000D01*
D10*
D11*
X287002200Y-160000000D02*
X285002200Y-160000000D01*
D10*
D11*
X285692676Y-35216666D02*
X286311723Y-35216666D01*
X285568866Y-35588095D02*
X286002200Y-34288095D01*
X286435533Y-35588095D01*
D10*
D11*
X286095057Y-84907142D02*
X286280771Y-84969047D01*
X286342676Y-85030952D01*
X286404580Y-85154761D01*
X286404580Y-85340476D01*
X286342676Y-85464285D01*
X286280771Y-85526190D01*
X286156961Y-85588095D01*
X285661723Y-85588095D01*
X285661723Y-84288095D01*
X286095057Y-84288095D01*
X286218866Y-84350000D01*
X286280771Y-84411904D01*
X286342676Y-84535714D01*
X286342676Y-84659523D01*
X286280771Y-84783333D01*
X286218866Y-84845238D01*
X286095057Y-84907142D01*
X285661723Y-84907142D01*
D10*
D11*
X286404580Y-135464285D02*
X286342676Y-135526190D01*
X286156961Y-135588095D01*
X286033152Y-135588095D01*
X285847438Y-135526190D01*
X285723628Y-135402380D01*
X285661723Y-135278571D01*
X285599819Y-135030952D01*
X285599819Y-134845238D01*
X285661723Y-134597619D01*
X285723628Y-134473809D01*
X285847438Y-134350000D01*
X286033152Y-134288095D01*
X286156961Y-134288095D01*
X286342676Y-134350000D01*
X286404580Y-134411904D01*
D10*
D11*
X285661723Y-185588095D02*
X285661723Y-184288095D01*
X285971247Y-184288095D01*
X286156961Y-184350000D01*
X286280771Y-184473809D01*
X286342676Y-184597619D01*
X286404580Y-184845238D01*
X286404580Y-185030952D01*
X286342676Y-185278571D01*
X286280771Y-185402380D01*
X286156961Y-185526190D01*
X285971247Y-185588095D01*
X285661723Y-185588095D01*
D10*
D11*
X200434342Y-193785771D02*
X200434342Y-192285771D01*
X200791485Y-192285771D01*
X201005771Y-192357200D01*
X201148628Y-192500057D01*
X201220057Y-192642914D01*
X201291485Y-192928628D01*
X201291485Y-193142914D01*
X201220057Y-193428628D01*
X201148628Y-193571485D01*
X201005771Y-193714342D01*
X200791485Y-193785771D01*
X200434342Y-193785771D01*
X202577200Y-193785771D02*
X202577200Y-193000057D01*
X202505771Y-192857200D01*
X202362914Y-192785771D01*
X202077200Y-192785771D01*
X201934342Y-192857200D01*
X202577200Y-193714342D02*
X202434342Y-193785771D01*
X202077200Y-193785771D01*
X201934342Y-193714342D01*
X201862914Y-193571485D01*
X201862914Y-193428628D01*
X201934342Y-193285771D01*
X202077200Y-193214342D01*
X202434342Y-193214342D01*
X202577200Y-193142914D01*
X203077200Y-192785771D02*
X203648628Y-192785771D01*
X203291485Y-192285771D02*
X203291485Y-193571485D01*
X203362914Y-193714342D01*
X203505771Y-193785771D01*
X203648628Y-193785771D01*
X204720057Y-193714342D02*
X204577200Y-193785771D01*
X204291485Y-193785771D01*
X204148628Y-193714342D01*
X204077200Y-193571485D01*
X204077200Y-193000057D01*
X204148628Y-192857200D01*
X204291485Y-192785771D01*
X204577200Y-192785771D01*
X204720057Y-192857200D01*
X204791485Y-193000057D01*
X204791485Y-193142914D01*
X204077200Y-193285771D01*
X205434342Y-193642914D02*
X205505771Y-193714342D01*
X205434342Y-193785771D01*
X205362914Y-193714342D01*
X205434342Y-193642914D01*
X205434342Y-193785771D01*
X205434342Y-192857200D02*
X205505771Y-192928628D01*
X205434342Y-193000057D01*
X205362914Y-192928628D01*
X205434342Y-192857200D01*
X205434342Y-193000057D01*
D10*
D11*
X177002200Y-194507200D02*
X285002200Y-194507200D01*
D10*
D11*
X178434342Y-196585771D02*
X178434342Y-195085771D01*
X179291485Y-196585771D02*
X178648628Y-195728628D01*
X179291485Y-195085771D02*
X178434342Y-195942914D01*
X179934342Y-196585771D02*
X179934342Y-195585771D01*
X179934342Y-195085771D02*
X179862914Y-195157200D01*
X179934342Y-195228628D01*
X180005771Y-195157200D01*
X179934342Y-195085771D01*
X179934342Y-195228628D01*
X181505771Y-196442914D02*
X181434342Y-196514342D01*
X181220057Y-196585771D01*
X181077200Y-196585771D01*
X180862914Y-196514342D01*
X180720057Y-196371485D01*
X180648628Y-196228628D01*
X180577200Y-195942914D01*
X180577200Y-195728628D01*
X180648628Y-195442914D01*
X180720057Y-195300057D01*
X180862914Y-195157200D01*
X181077200Y-195085771D01*
X181220057Y-195085771D01*
X181434342Y-195157200D01*
X181505771Y-195228628D01*
X182791485Y-196585771D02*
X182791485Y-195800057D01*
X182720057Y-195657200D01*
X182577200Y-195585771D01*
X182291485Y-195585771D01*
X182148628Y-195657200D01*
X182791485Y-196514342D02*
X182648628Y-196585771D01*
X182291485Y-196585771D01*
X182148628Y-196514342D01*
X182077200Y-196371485D01*
X182077200Y-196228628D01*
X182148628Y-196085771D01*
X182291485Y-196014342D01*
X182648628Y-196014342D01*
X182791485Y-195942914D01*
X184148628Y-196585771D02*
X184148628Y-195085771D01*
X184148628Y-196514342D02*
X184005771Y-196585771D01*
X183720057Y-196585771D01*
X183577200Y-196514342D01*
X183505771Y-196442914D01*
X183434342Y-196300057D01*
X183434342Y-195871485D01*
X183505771Y-195728628D01*
X183577200Y-195657200D01*
X183720057Y-195585771D01*
X184005771Y-195585771D01*
X184148628Y-195657200D01*
X186005771Y-195800057D02*
X186505771Y-195800057D01*
X186720057Y-196585771D02*
X186005771Y-196585771D01*
X186005771Y-195085771D01*
X186720057Y-195085771D01*
X187362914Y-196442914D02*
X187434342Y-196514342D01*
X187362914Y-196585771D01*
X187291485Y-196514342D01*
X187362914Y-196442914D01*
X187362914Y-196585771D01*
X188077200Y-196585771D02*
X188077200Y-195085771D01*
X188434342Y-195085771D01*
X188648628Y-195157200D01*
X188791485Y-195300057D01*
X188862914Y-195442914D01*
X188934342Y-195728628D01*
X188934342Y-195942914D01*
X188862914Y-196228628D01*
X188791485Y-196371485D01*
X188648628Y-196514342D01*
X188434342Y-196585771D01*
X188077200Y-196585771D01*
X189577200Y-196442914D02*
X189648628Y-196514342D01*
X189577200Y-196585771D01*
X189505771Y-196514342D01*
X189577200Y-196442914D01*
X189577200Y-196585771D01*
X190220057Y-196157200D02*
X190934342Y-196157200D01*
X190077200Y-196585771D02*
X190577200Y-195085771D01*
X191077200Y-196585771D01*
X191577200Y-196442914D02*
X191648628Y-196514342D01*
X191577200Y-196585771D01*
X191505771Y-196514342D01*
X191577200Y-196442914D01*
X191577200Y-196585771D01*
X194577200Y-196585771D02*
X194577200Y-195085771D01*
X194720057Y-196014342D02*
X195148628Y-196585771D01*
X195148628Y-195585771D02*
X194577200Y-196157200D01*
X195791485Y-196585771D02*
X195791485Y-195585771D01*
X195791485Y-195085771D02*
X195720057Y-195157200D01*
X195791485Y-195228628D01*
X195862914Y-195157200D01*
X195791485Y-195085771D01*
X195791485Y-195228628D01*
X197148628Y-196514342D02*
X197005771Y-196585771D01*
X196720057Y-196585771D01*
X196577200Y-196514342D01*
X196505771Y-196442914D01*
X196434342Y-196300057D01*
X196434342Y-195871485D01*
X196505771Y-195728628D01*
X196577200Y-195657200D01*
X196720057Y-195585771D01*
X197005771Y-195585771D01*
X197148628Y-195657200D01*
X198434342Y-196585771D02*
X198434342Y-195800057D01*
X198362914Y-195657200D01*
X198220057Y-195585771D01*
X197934342Y-195585771D01*
X197791485Y-195657200D01*
X198434342Y-196514342D02*
X198291485Y-196585771D01*
X197934342Y-196585771D01*
X197791485Y-196514342D01*
X197720057Y-196371485D01*
X197720057Y-196228628D01*
X197791485Y-196085771D01*
X197934342Y-196014342D01*
X198291485Y-196014342D01*
X198434342Y-195942914D01*
X199791485Y-196585771D02*
X199791485Y-195085771D01*
X199791485Y-196514342D02*
X199648628Y-196585771D01*
X199362914Y-196585771D01*
X199220057Y-196514342D01*
X199148628Y-196442914D01*
X199077200Y-196300057D01*
X199077200Y-195871485D01*
X199148628Y-195728628D01*
X199220057Y-195657200D01*
X199362914Y-195585771D01*
X199648628Y-195585771D01*
X199791485Y-195657200D01*
X202362914Y-195085771D02*
X201648628Y-195085771D01*
X201577200Y-195800057D01*
X201648628Y-195728628D01*
X201791485Y-195657200D01*
X202148628Y-195657200D01*
X202291485Y-195728628D01*
X202362914Y-195800057D01*
X202434342Y-195942914D01*
X202434342Y-196300057D01*
X202362914Y-196442914D01*
X202291485Y-196514342D01*
X202148628Y-196585771D01*
X201791485Y-196585771D01*
X201648628Y-196514342D01*
X201577200Y-196442914D01*
X203077200Y-196442914D02*
X203148628Y-196514342D01*
X203077200Y-196585771D01*
X203005771Y-196514342D01*
X203077200Y-196442914D01*
X203077200Y-196585771D01*
X204577200Y-196585771D02*
X203720057Y-196585771D01*
X204148628Y-196585771D02*
X204148628Y-195085771D01*
X204005771Y-195300057D01*
X203862914Y-195442914D01*
X203720057Y-195514342D01*
X205220057Y-196442914D02*
X205291485Y-196514342D01*
X205220057Y-196585771D01*
X205148628Y-196514342D01*
X205220057Y-196442914D01*
X205220057Y-196585771D01*
X206005771Y-196585771D02*
X206291485Y-196585771D01*
X206434342Y-196514342D01*
X206505771Y-196442914D01*
X206648628Y-196228628D01*
X206720057Y-195942914D01*
X206720057Y-195371485D01*
X206648628Y-195228628D01*
X206577200Y-195157200D01*
X206434342Y-195085771D01*
X206148628Y-195085771D01*
X206005771Y-195157200D01*
X205934342Y-195228628D01*
X205862914Y-195371485D01*
X205862914Y-195728628D01*
X205934342Y-195871485D01*
X206005771Y-195942914D01*
X206148628Y-196014342D01*
X206434342Y-196014342D01*
X206577200Y-195942914D01*
X206648628Y-195871485D01*
X206720057Y-195728628D01*
X207362914Y-196014342D02*
X208505771Y-196014342D01*
X209077200Y-195085771D02*
X210077200Y-195085771D01*
X209434342Y-196585771D01*
X210505771Y-195085771D02*
X211434342Y-195085771D01*
X210934342Y-195657200D01*
X211148628Y-195657200D01*
X211291485Y-195728628D01*
X211362914Y-195800057D01*
X211434342Y-195942914D01*
X211434342Y-196300057D01*
X211362914Y-196442914D01*
X211291485Y-196514342D01*
X211148628Y-196585771D01*
X210720057Y-196585771D01*
X210577200Y-196514342D01*
X210505771Y-196442914D01*
X212720057Y-196585771D02*
X212720057Y-195085771D01*
X212720057Y-196514342D02*
X212577200Y-196585771D01*
X212291485Y-196585771D01*
X212148628Y-196514342D01*
X212077200Y-196442914D01*
X212005771Y-196300057D01*
X212005771Y-195871485D01*
X212077200Y-195728628D01*
X212148628Y-195657200D01*
X212291485Y-195585771D01*
X212577200Y-195585771D01*
X212720057Y-195657200D01*
X213720057Y-195085771D02*
X213862914Y-195085771D01*
X214005771Y-195157200D01*
X214077200Y-195228628D01*
X214148628Y-195371485D01*
X214220057Y-195657200D01*
X214220057Y-196014342D01*
X214148628Y-196300057D01*
X214077200Y-196442914D01*
X214005771Y-196514342D01*
X213862914Y-196585771D01*
X213720057Y-196585771D01*
X213577200Y-196514342D01*
X213505771Y-196442914D01*
X213434342Y-196300057D01*
X213362914Y-196014342D01*
X213362914Y-195657200D01*
X213434342Y-195371485D01*
X213505771Y-195228628D01*
X213577200Y-195157200D01*
X213720057Y-195085771D01*
X215434342Y-196514342D02*
X215291485Y-196585771D01*
X215005771Y-196585771D01*
X214862914Y-196514342D01*
X214791485Y-196371485D01*
X214791485Y-195800057D01*
X214862914Y-195657200D01*
X215005771Y-195585771D01*
X215291485Y-195585771D01*
X215434342Y-195657200D01*
X215505771Y-195800057D01*
X215505771Y-195942914D01*
X214791485Y-196085771D01*
X216005771Y-195085771D02*
X216934342Y-195085771D01*
X216434342Y-195657200D01*
X216648628Y-195657200D01*
X216791485Y-195728628D01*
X216862914Y-195800057D01*
X216934342Y-195942914D01*
X216934342Y-196300057D01*
X216862914Y-196442914D01*
X216791485Y-196514342D01*
X216648628Y-196585771D01*
X216220057Y-196585771D01*
X216077200Y-196514342D01*
X216005771Y-196442914D01*
X217577200Y-196585771D02*
X217577200Y-195085771D01*
X217577200Y-195657200D02*
X217720057Y-195585771D01*
X218005771Y-195585771D01*
X218148628Y-195657200D01*
X218220057Y-195728628D01*
X218291485Y-195871485D01*
X218291485Y-196300057D01*
X218220057Y-196442914D01*
X218148628Y-196514342D01*
X218005771Y-196585771D01*
X217720057Y-196585771D01*
X217577200Y-196514342D01*
X218862914Y-195228628D02*
X218934342Y-195157200D01*
X219077200Y-195085771D01*
X219434342Y-195085771D01*
X219577200Y-195157200D01*
X219648628Y-195228628D01*
X219720057Y-195371485D01*
X219720057Y-195514342D01*
X219648628Y-195728628D01*
X218791485Y-196585771D01*
X219720057Y-196585771D01*
X220648628Y-195085771D02*
X220791485Y-195085771D01*
X220934342Y-195157200D01*
X221005771Y-195228628D01*
X221077200Y-195371485D01*
X221148628Y-195657200D01*
X221148628Y-196014342D01*
X221077200Y-196300057D01*
X221005771Y-196442914D01*
X220934342Y-196514342D01*
X220791485Y-196585771D01*
X220648628Y-196585771D01*
X220505771Y-196514342D01*
X220434342Y-196442914D01*
X220362914Y-196300057D01*
X220291485Y-196014342D01*
X220291485Y-195657200D01*
X220362914Y-195371485D01*
X220434342Y-195228628D01*
X220505771Y-195157200D01*
X220648628Y-195085771D01*
X222434342Y-196585771D02*
X222434342Y-195085771D01*
X222434342Y-196514342D02*
X222291485Y-196585771D01*
X222005771Y-196585771D01*
X221862914Y-196514342D01*
X221791485Y-196442914D01*
X221720057Y-196300057D01*
X221720057Y-195871485D01*
X221791485Y-195728628D01*
X221862914Y-195657200D01*
X222005771Y-195585771D01*
X222291485Y-195585771D01*
X222434342Y-195657200D01*
X222791485Y-194677200D02*
X224220057Y-194677200D01*
X223362914Y-195728628D02*
X223220057Y-195657200D01*
X223148628Y-195585771D01*
X223077200Y-195442914D01*
X223077200Y-195371485D01*
X223148628Y-195228628D01*
X223220057Y-195157200D01*
X223362914Y-195085771D01*
X223648628Y-195085771D01*
X223791485Y-195157200D01*
X223862914Y-195228628D01*
X223934342Y-195371485D01*
X223934342Y-195442914D01*
X223862914Y-195585771D01*
X223791485Y-195657200D01*
X223648628Y-195728628D01*
X223362914Y-195728628D01*
X223220057Y-195800057D01*
X223148628Y-195871485D01*
X223077200Y-196014342D01*
X223077200Y-196300057D01*
X223148628Y-196442914D01*
X223220057Y-196514342D01*
X223362914Y-196585771D01*
X223648628Y-196585771D01*
X223791485Y-196514342D01*
X223862914Y-196442914D01*
X223934342Y-196300057D01*
X223934342Y-196014342D01*
X223862914Y-195871485D01*
X223791485Y-195800057D01*
X223648628Y-195728628D01*
X224220057Y-194677200D02*
X225648628Y-194677200D01*
X224791485Y-195728628D02*
X224648628Y-195657200D01*
X224577200Y-195585771D01*
X224505771Y-195442914D01*
X224505771Y-195371485D01*
X224577200Y-195228628D01*
X224648628Y-195157200D01*
X224791485Y-195085771D01*
X225077200Y-195085771D01*
X225220057Y-195157200D01*
X225291485Y-195228628D01*
X225362914Y-195371485D01*
X225362914Y-195442914D01*
X225291485Y-195585771D01*
X225220057Y-195657200D01*
X225077200Y-195728628D01*
X224791485Y-195728628D01*
X224648628Y-195800057D01*
X224577200Y-195871485D01*
X224505771Y-196014342D01*
X224505771Y-196300057D01*
X224577200Y-196442914D01*
X224648628Y-196514342D01*
X224791485Y-196585771D01*
X225077200Y-196585771D01*
X225220057Y-196514342D01*
X225291485Y-196442914D01*
X225362914Y-196300057D01*
X225362914Y-196014342D01*
X225291485Y-195871485D01*
X225220057Y-195800057D01*
X225077200Y-195728628D01*
X226648628Y-195585771D02*
X226648628Y-196585771D01*
X226005771Y-195585771D02*
X226005771Y-196371485D01*
X226077199Y-196514342D01*
X226220057Y-196585771D01*
X226434342Y-196585771D01*
X226577199Y-196514342D01*
X226648628Y-196442914D01*
X227362914Y-196585771D02*
X227362914Y-195085771D01*
X227362914Y-195657200D02*
X227505771Y-195585771D01*
X227791485Y-195585771D01*
X227934342Y-195657200D01*
X228005771Y-195728628D01*
X228077200Y-195871485D01*
X228077200Y-196300057D01*
X228005771Y-196442914D01*
X227934342Y-196514342D01*
X227791485Y-196585771D01*
X227505771Y-196585771D01*
X227362914Y-196514342D01*
X229362914Y-195585771D02*
X229362914Y-196585771D01*
X228720057Y-195585771D02*
X228720057Y-196371485D01*
X228791485Y-196514342D01*
X228934342Y-196585771D01*
X229148628Y-196585771D01*
X229291485Y-196514342D01*
X229362914Y-196442914D01*
X230077200Y-195585771D02*
X230077200Y-196585771D01*
X230077200Y-195728628D02*
X230148628Y-195657200D01*
X230291485Y-195585771D01*
X230505771Y-195585771D01*
X230648628Y-195657200D01*
X230720057Y-195800057D01*
X230720057Y-196585771D01*
X231220057Y-195585771D02*
X231791485Y-195585771D01*
X231434342Y-195085771D02*
X231434342Y-196371485D01*
X231505771Y-196514342D01*
X231648628Y-196585771D01*
X231791485Y-196585771D01*
X232934342Y-195585771D02*
X232934342Y-196585771D01*
X232291485Y-195585771D02*
X232291485Y-196371485D01*
X232362914Y-196514342D01*
X232505771Y-196585771D01*
X232720057Y-196585771D01*
X232862914Y-196514342D01*
X232934342Y-196442914D01*
X233577200Y-195228628D02*
X233648628Y-195157200D01*
X233791485Y-195085771D01*
X234148628Y-195085771D01*
X234291485Y-195157200D01*
X234362914Y-195228628D01*
X234434342Y-195371485D01*
X234434342Y-195514342D01*
X234362914Y-195728628D01*
X233505771Y-196585771D01*
X234434342Y-196585771D01*
X235362914Y-195085771D02*
X235505771Y-195085771D01*
X235648628Y-195157200D01*
X235720057Y-195228628D01*
X235791485Y-195371485D01*
X235862914Y-195657200D01*
X235862914Y-196014342D01*
X235791485Y-196300057D01*
X235720057Y-196442914D01*
X235648628Y-196514342D01*
X235505771Y-196585771D01*
X235362914Y-196585771D01*
X235220057Y-196514342D01*
X235148628Y-196442914D01*
X235077200Y-196300057D01*
X235005771Y-196014342D01*
X235005771Y-195657200D01*
X235077200Y-195371485D01*
X235148628Y-195228628D01*
X235220057Y-195157200D01*
X235362914Y-195085771D01*
X236505771Y-196442914D02*
X236577199Y-196514342D01*
X236505771Y-196585771D01*
X236434342Y-196514342D01*
X236505771Y-196442914D01*
X236505771Y-196585771D01*
X237505771Y-195085771D02*
X237648628Y-195085771D01*
X237791485Y-195157200D01*
X237862914Y-195228628D01*
X237934342Y-195371485D01*
X238005771Y-195657200D01*
X238005771Y-196014342D01*
X237934342Y-196300057D01*
X237862914Y-196442914D01*
X237791485Y-196514342D01*
X237648628Y-196585771D01*
X237505771Y-196585771D01*
X237362914Y-196514342D01*
X237291485Y-196442914D01*
X237220057Y-196300057D01*
X237148628Y-196014342D01*
X237148628Y-195657200D01*
X237220057Y-195371485D01*
X237291485Y-195228628D01*
X237362914Y-195157200D01*
X237505771Y-195085771D01*
X239291485Y-195585771D02*
X239291485Y-196585771D01*
X238934342Y-195014342D02*
X238577199Y-196085771D01*
X239505771Y-196085771D01*
X240077199Y-196442914D02*
X240148628Y-196514342D01*
X240077199Y-196585771D01*
X240005771Y-196514342D01*
X240077199Y-196442914D01*
X240077199Y-196585771D01*
X241577199Y-196585771D02*
X240720057Y-196585771D01*
X241148628Y-196585771D02*
X241148628Y-195085771D01*
X241005771Y-195300057D01*
X240862914Y-195442914D01*
X240720057Y-195514342D01*
D10*
D11*
X177002200Y-191507200D02*
X285002200Y-191507200D01*
D10*
D12*
X264411485Y-193785771D02*
X263911485Y-193071485D01*
X263554342Y-193785771D02*
X263554342Y-192285771D01*
X264125771Y-192285771D01*
X264268628Y-192357200D01*
X264340057Y-192428628D01*
X264411485Y-192571485D01*
X264411485Y-192785771D01*
X264340057Y-192928628D01*
X264268628Y-193000057D01*
X264125771Y-193071485D01*
X263554342Y-193071485D01*
X265625771Y-193714342D02*
X265482914Y-193785771D01*
X265197200Y-193785771D01*
X265054342Y-193714342D01*
X264982914Y-193571485D01*
X264982914Y-193000057D01*
X265054342Y-192857200D01*
X265197200Y-192785771D01*
X265482914Y-192785771D01*
X265625771Y-192857200D01*
X265697200Y-193000057D01*
X265697200Y-193142914D01*
X264982914Y-193285771D01*
X266197200Y-192785771D02*
X266554342Y-193785771D01*
X266911485Y-192785771D01*
X267482914Y-193642914D02*
X267554342Y-193714342D01*
X267482914Y-193785771D01*
X267411485Y-193714342D01*
X267482914Y-193642914D01*
X267482914Y-193785771D01*
X267482914Y-192857200D02*
X267554342Y-192928628D01*
X267482914Y-193000057D01*
X267411485Y-192928628D01*
X267482914Y-192857200D01*
X267482914Y-193000057D01*
D10*
D11*
X178362914Y-193714342D02*
X178577200Y-193785771D01*
X178934342Y-193785771D01*
X179077200Y-193714342D01*
X179148628Y-193642914D01*
X179220057Y-193500057D01*
X179220057Y-193357200D01*
X179148628Y-193214342D01*
X179077200Y-193142914D01*
X178934342Y-193071485D01*
X178648628Y-193000057D01*
X178505771Y-192928628D01*
X178434342Y-192857200D01*
X178362914Y-192714342D01*
X178362914Y-192571485D01*
X178434342Y-192428628D01*
X178505771Y-192357200D01*
X178648628Y-192285771D01*
X179005771Y-192285771D01*
X179220057Y-192357200D01*
X179862914Y-193785771D02*
X179862914Y-192785771D01*
X179862914Y-192285771D02*
X179791485Y-192357200D01*
X179862914Y-192428628D01*
X179934342Y-192357200D01*
X179862914Y-192285771D01*
X179862914Y-192428628D01*
X180434342Y-192785771D02*
X181220057Y-192785771D01*
X180434342Y-193785771D01*
X181220057Y-193785771D01*
X182362914Y-193714342D02*
X182220057Y-193785771D01*
X181934342Y-193785771D01*
X181791485Y-193714342D01*
X181720057Y-193571485D01*
X181720057Y-193000057D01*
X181791485Y-192857200D01*
X181934342Y-192785771D01*
X182220057Y-192785771D01*
X182362914Y-192857200D01*
X182434342Y-193000057D01*
X182434342Y-193142914D01*
X181720057Y-193285771D01*
X183077200Y-193642914D02*
X183148628Y-193714342D01*
X183077200Y-193785771D01*
X183005771Y-193714342D01*
X183077200Y-193642914D01*
X183077200Y-193785771D01*
X183077200Y-192857200D02*
X183148628Y-192928628D01*
X183077200Y-193000057D01*
X183005771Y-192928628D01*
X183077200Y-192857200D01*
X183077200Y-193000057D01*
X184862914Y-193357200D02*
X185577200Y-193357200D01*
X184720057Y-193785771D02*
X185220057Y-192285771D01*
X185720057Y-193785771D01*
X186862914Y-192785771D02*
X186862914Y-193785771D01*
X186505771Y-192214342D02*
X186148628Y-193285771D01*
X187077200Y-193285771D01*
D10*
D11*
X263434342Y-196585771D02*
X263434342Y-195085771D01*
X264791485Y-196585771D02*
X264791485Y-195085771D01*
X264791485Y-196514342D02*
X264648628Y-196585771D01*
X264362914Y-196585771D01*
X264220057Y-196514342D01*
X264148628Y-196442914D01*
X264077200Y-196300057D01*
X264077200Y-195871485D01*
X264148628Y-195728628D01*
X264220057Y-195657200D01*
X264362914Y-195585771D01*
X264648628Y-195585771D01*
X264791485Y-195657200D01*
X265505771Y-196442914D02*
X265577200Y-196514342D01*
X265505771Y-196585771D01*
X265434342Y-196514342D01*
X265505771Y-196442914D01*
X265505771Y-196585771D01*
X265505771Y-195657200D02*
X265577200Y-195728628D01*
X265505771Y-195800057D01*
X265434342Y-195728628D01*
X265505771Y-195657200D01*
X265505771Y-195800057D01*
X268148628Y-196585771D02*
X267291485Y-196585771D01*
X267720057Y-196585771D02*
X267720057Y-195085771D01*
X267577200Y-195300057D01*
X267434342Y-195442914D01*
X267291485Y-195514342D01*
X269862914Y-195014342D02*
X268577200Y-196942914D01*
X271148628Y-196585771D02*
X270291485Y-196585771D01*
X270720057Y-196585771D02*
X270720057Y-195085771D01*
X270577200Y-195300057D01*
X270434342Y-195442914D01*
X270291485Y-195514342D01*
D10*
D11*
X177002200Y-187507200D02*
X285002200Y-187507200D01*
D10*
D13*
X178714580Y-188211961D02*
X179857438Y-188211961D01*
X179036009Y-190211961D02*
X179286009Y-188211961D01*
X180274104Y-190211961D02*
X180440771Y-188878628D01*
X180524104Y-188211961D02*
X180416961Y-188307200D01*
X180500295Y-188402438D01*
X180607438Y-188307200D01*
X180524104Y-188211961D01*
X180500295Y-188402438D01*
X181107438Y-188878628D02*
X181869342Y-188878628D01*
X181476485Y-188211961D02*
X181262200Y-189926247D01*
X181333628Y-190116723D01*
X181512200Y-190211961D01*
X181702676Y-190211961D01*
X182655057Y-190211961D02*
X182476485Y-190116723D01*
X182405057Y-189926247D01*
X182619342Y-188211961D01*
X184190771Y-190116723D02*
X183988390Y-190211961D01*
X183607438Y-190211961D01*
X183428866Y-190116723D01*
X183357438Y-189926247D01*
X183452676Y-189164342D01*
X183571723Y-188973866D01*
X183774104Y-188878628D01*
X184155057Y-188878628D01*
X184333628Y-188973866D01*
X184405057Y-189164342D01*
X184381247Y-189354819D01*
X183405057Y-189545295D01*
X185155057Y-190021485D02*
X185238390Y-190116723D01*
X185131247Y-190211961D01*
X185047914Y-190116723D01*
X185155057Y-190021485D01*
X185131247Y-190211961D01*
X185286009Y-188973866D02*
X185369342Y-189069104D01*
X185262200Y-189164342D01*
X185178866Y-189069104D01*
X185286009Y-188973866D01*
X185262200Y-189164342D01*
D10*
D11*
X178934342Y-185600057D02*
X178434342Y-185600057D01*
X178434342Y-186385771D02*
X178434342Y-184885771D01*
X179148628Y-184885771D01*
X179720057Y-186385771D02*
X179720057Y-185385771D01*
X179720057Y-184885771D02*
X179648628Y-184957200D01*
X179720057Y-185028628D01*
X179791485Y-184957200D01*
X179720057Y-184885771D01*
X179720057Y-185028628D01*
X180648628Y-186385771D02*
X180505771Y-186314342D01*
X180434342Y-186171485D01*
X180434342Y-184885771D01*
X181791485Y-186314342D02*
X181648628Y-186385771D01*
X181362914Y-186385771D01*
X181220057Y-186314342D01*
X181148628Y-186171485D01*
X181148628Y-185600057D01*
X181220057Y-185457200D01*
X181362914Y-185385771D01*
X181648628Y-185385771D01*
X181791485Y-185457200D01*
X181862914Y-185600057D01*
X181862914Y-185742914D01*
X181148628Y-185885771D01*
X182505771Y-186242914D02*
X182577200Y-186314342D01*
X182505771Y-186385771D01*
X182434342Y-186314342D01*
X182505771Y-186242914D01*
X182505771Y-186385771D01*
X182505771Y-185457200D02*
X182577200Y-185528628D01*
X182505771Y-185600057D01*
X182434342Y-185528628D01*
X182505771Y-185457200D01*
X182505771Y-185600057D01*
X184648628Y-184885771D02*
X184934342Y-184885771D01*
X185077200Y-184957200D01*
X185220057Y-185100057D01*
X185291485Y-185385771D01*
X185291485Y-185885771D01*
X185220057Y-186171485D01*
X185077200Y-186314342D01*
X184934342Y-186385771D01*
X184648628Y-186385771D01*
X184505771Y-186314342D01*
X184362914Y-186171485D01*
X184291485Y-185885771D01*
X184291485Y-185385771D01*
X184362914Y-185100057D01*
X184505771Y-184957200D01*
X184648628Y-184885771D01*
X185720057Y-184885771D02*
X186220057Y-186385771D01*
X186720057Y-184885771D01*
X186862914Y-186528628D02*
X188005771Y-186528628D01*
X188362914Y-186385771D02*
X188362914Y-184885771D01*
X188934342Y-184885771D01*
X189077200Y-184957200D01*
X189148628Y-185028628D01*
X189220057Y-185171485D01*
X189220057Y-185385771D01*
X189148628Y-185528628D01*
X189077200Y-185600057D01*
X188934342Y-185671485D01*
X188362914Y-185671485D01*
X190077200Y-186385771D02*
X189934342Y-186314342D01*
X189862914Y-186242914D01*
X189791485Y-186100057D01*
X189791485Y-185671485D01*
X189862914Y-185528628D01*
X189934342Y-185457200D01*
X190077200Y-185385771D01*
X190291485Y-185385771D01*
X190434342Y-185457200D01*
X190505771Y-185528628D01*
X190577200Y-185671485D01*
X190577200Y-186100057D01*
X190505771Y-186242914D01*
X190434342Y-186314342D01*
X190291485Y-186385771D01*
X190077200Y-186385771D01*
X191077200Y-185385771D02*
X191362914Y-186385771D01*
X191648628Y-185671485D01*
X191934342Y-186385771D01*
X192220057Y-185385771D01*
X193362914Y-186314342D02*
X193220057Y-186385771D01*
X192934342Y-186385771D01*
X192791485Y-186314342D01*
X192720057Y-186171485D01*
X192720057Y-185600057D01*
X192791485Y-185457200D01*
X192934342Y-185385771D01*
X193220057Y-185385771D01*
X193362914Y-185457200D01*
X193434342Y-185600057D01*
X193434342Y-185742914D01*
X192720057Y-185885771D01*
X194077200Y-186385771D02*
X194077200Y-185385771D01*
X194077200Y-185671485D02*
X194148628Y-185528628D01*
X194220057Y-185457200D01*
X194362914Y-185385771D01*
X194505771Y-185385771D01*
X195005771Y-186242914D02*
X195077200Y-186314342D01*
X195005771Y-186385771D01*
X194934342Y-186314342D01*
X195005771Y-186242914D01*
X195005771Y-186385771D01*
X195720057Y-186385771D02*
X195720057Y-184885771D01*
X195862914Y-185814342D02*
X196291485Y-186385771D01*
X196291485Y-185385771D02*
X195720057Y-185957200D01*
X196934342Y-186385771D02*
X196934342Y-185385771D01*
X196934342Y-184885771D02*
X196862914Y-184957200D01*
X196934342Y-185028628D01*
X197005771Y-184957200D01*
X196934342Y-184885771D01*
X196934342Y-185028628D01*
X198291485Y-186314342D02*
X198148628Y-186385771D01*
X197862914Y-186385771D01*
X197720057Y-186314342D01*
X197648628Y-186242914D01*
X197577200Y-186100057D01*
X197577200Y-185671485D01*
X197648628Y-185528628D01*
X197720057Y-185457200D01*
X197862914Y-185385771D01*
X198148628Y-185385771D01*
X198291485Y-185457200D01*
X199577200Y-186385771D02*
X199577200Y-185600057D01*
X199505771Y-185457200D01*
X199362914Y-185385771D01*
X199077200Y-185385771D01*
X198934342Y-185457200D01*
X199577200Y-186314342D02*
X199434342Y-186385771D01*
X199077200Y-186385771D01*
X198934342Y-186314342D01*
X198862914Y-186171485D01*
X198862914Y-186028628D01*
X198934342Y-185885771D01*
X199077200Y-185814342D01*
X199434342Y-185814342D01*
X199577200Y-185742914D01*
X200934342Y-186385771D02*
X200934342Y-184885771D01*
X200934342Y-186314342D02*
X200791485Y-186385771D01*
X200505771Y-186385771D01*
X200362914Y-186314342D01*
X200291485Y-186242914D01*
X200220057Y-186100057D01*
X200220057Y-185671485D01*
X200291485Y-185528628D01*
X200362914Y-185457200D01*
X200505771Y-185385771D01*
X200791485Y-185385771D01*
X200934342Y-185457200D01*
X201291485Y-186528628D02*
X202434342Y-186528628D01*
X202791485Y-185385771D02*
X202791485Y-186885771D01*
X202791485Y-185457200D02*
X202934342Y-185385771D01*
X203220057Y-185385771D01*
X203362914Y-185457200D01*
X203434342Y-185528628D01*
X203505771Y-185671485D01*
X203505771Y-186100057D01*
X203434342Y-186242914D01*
X203362914Y-186314342D01*
X203220057Y-186385771D01*
X202934342Y-186385771D01*
X202791485Y-186314342D01*
X204791485Y-186314342D02*
X204648628Y-186385771D01*
X204362914Y-186385771D01*
X204220057Y-186314342D01*
X204148628Y-186242914D01*
X204077200Y-186100057D01*
X204077200Y-185671485D01*
X204148628Y-185528628D01*
X204220057Y-185457200D01*
X204362914Y-185385771D01*
X204648628Y-185385771D01*
X204791485Y-185457200D01*
X205434342Y-186385771D02*
X205434342Y-184885771D01*
X205434342Y-185457200D02*
X205577200Y-185385771D01*
X205862914Y-185385771D01*
X206005771Y-185457200D01*
X206077200Y-185528628D01*
X206148628Y-185671485D01*
X206148628Y-186100057D01*
X206077200Y-186242914D01*
X206005771Y-186314342D01*
X205862914Y-186385771D01*
X205577200Y-186385771D01*
X205434342Y-186314342D01*
D10*
D11*
X177002200Y-181507200D02*
X285002200Y-181507200D01*
D10*
D11*
X178362914Y-183614342D02*
X178577200Y-183685771D01*
X178934342Y-183685771D01*
X179077200Y-183614342D01*
X179148628Y-183542914D01*
X179220057Y-183400057D01*
X179220057Y-183257200D01*
X179148628Y-183114342D01*
X179077200Y-183042914D01*
X178934342Y-182971485D01*
X178648628Y-182900057D01*
X178505771Y-182828628D01*
X178434342Y-182757200D01*
X178362914Y-182614342D01*
X178362914Y-182471485D01*
X178434342Y-182328628D01*
X178505771Y-182257200D01*
X178648628Y-182185771D01*
X179005771Y-182185771D01*
X179220057Y-182257200D01*
X179862914Y-183685771D02*
X179862914Y-182185771D01*
X180505771Y-183685771D02*
X180505771Y-182900057D01*
X180434342Y-182757200D01*
X180291485Y-182685771D01*
X180077200Y-182685771D01*
X179934342Y-182757200D01*
X179862914Y-182828628D01*
X181791485Y-183614342D02*
X181648628Y-183685771D01*
X181362914Y-183685771D01*
X181220057Y-183614342D01*
X181148628Y-183471485D01*
X181148628Y-182900057D01*
X181220057Y-182757200D01*
X181362914Y-182685771D01*
X181648628Y-182685771D01*
X181791485Y-182757200D01*
X181862914Y-182900057D01*
X181862914Y-183042914D01*
X181148628Y-183185771D01*
X183077200Y-183614342D02*
X182934342Y-183685771D01*
X182648628Y-183685771D01*
X182505771Y-183614342D01*
X182434342Y-183471485D01*
X182434342Y-182900057D01*
X182505771Y-182757200D01*
X182648628Y-182685771D01*
X182934342Y-182685771D01*
X183077200Y-182757200D01*
X183148628Y-182900057D01*
X183148628Y-183042914D01*
X182434342Y-183185771D01*
X183577200Y-182685771D02*
X184148628Y-182685771D01*
X183791485Y-182185771D02*
X183791485Y-183471485D01*
X183862914Y-183614342D01*
X184005771Y-183685771D01*
X184148628Y-183685771D01*
X184648628Y-183542914D02*
X184720057Y-183614342D01*
X184648628Y-183685771D01*
X184577200Y-183614342D01*
X184648628Y-183542914D01*
X184648628Y-183685771D01*
X184648628Y-182757200D02*
X184720057Y-182828628D01*
X184648628Y-182900057D01*
X184577200Y-182828628D01*
X184648628Y-182757200D01*
X184648628Y-182900057D01*
D10*
D11*
X197002200Y-191507200D02*
X197002200Y-194507200D01*
D10*
D11*
X261002200Y-191507200D02*
X261002200Y-198007200D01*
D12*
X137514285Y-73703571D02*
X137800000Y-73703571D01*
X137942857Y-73775000D01*
X138085714Y-73917857D01*
X138157142Y-74203571D01*
X138157142Y-74703571D01*
X138085714Y-74989285D01*
X137942857Y-75132142D01*
X137800000Y-75203571D01*
X137514285Y-75203571D01*
X137371428Y-75132142D01*
X137228571Y-74989285D01*
X137157142Y-74703571D01*
X137157142Y-74203571D01*
X137228571Y-73917857D01*
X137371428Y-73775000D01*
X137514285Y-73703571D01*
X138800000Y-74203571D02*
X138800000Y-75703571D01*
X138800000Y-74275000D02*
X138942857Y-74203571D01*
X139228571Y-74203571D01*
X139371428Y-74275000D01*
X139442857Y-74346428D01*
X139514285Y-74489285D01*
X139514285Y-74917857D01*
X139442857Y-75060714D01*
X139371428Y-75132142D01*
X139228571Y-75203571D01*
X138942857Y-75203571D01*
X138800000Y-75132142D01*
X140728571Y-75132142D02*
X140585714Y-75203571D01*
X140300000Y-75203571D01*
X140157142Y-75132142D01*
X140085714Y-74989285D01*
X140085714Y-74417857D01*
X140157142Y-74275000D01*
X140300000Y-74203571D01*
X140585714Y-74203571D01*
X140728571Y-74275000D01*
X140800000Y-74417857D01*
X140800000Y-74560714D01*
X140085714Y-74703571D01*
X141442857Y-74203571D02*
X141442857Y-75203571D01*
X141442857Y-74346428D02*
X141514285Y-74275000D01*
X141657142Y-74203571D01*
X141871428Y-74203571D01*
X142014285Y-74275000D01*
X142085714Y-74417857D01*
X142085714Y-75203571D01*
X142585714Y-73703571D02*
X143085714Y-75203571D01*
X143585714Y-73703571D01*
X144657142Y-75132142D02*
X144514285Y-75203571D01*
X144228571Y-75203571D01*
X144085714Y-75132142D01*
X144014285Y-74989285D01*
X144014285Y-74417857D01*
X144085714Y-74275000D01*
X144228571Y-74203571D01*
X144514285Y-74203571D01*
X144657142Y-74275000D01*
X144728571Y-74417857D01*
X144728571Y-74560714D01*
X144014285Y-74703571D01*
X145371428Y-74203571D02*
X145371428Y-75203571D01*
X145371428Y-74346428D02*
X145442857Y-74275000D01*
X145585714Y-74203571D01*
X145800000Y-74203571D01*
X145942857Y-74275000D01*
X146014285Y-74417857D01*
X146014285Y-75203571D01*
X146514285Y-74203571D02*
X147085714Y-74203571D01*
X146728571Y-73703571D02*
X146728571Y-74989285D01*
X146800000Y-75132142D01*
X146942857Y-75203571D01*
X147085714Y-75203571D01*
X149228571Y-74417857D02*
X149442857Y-74489285D01*
X149514285Y-74560714D01*
X149585714Y-74703571D01*
X149585714Y-74917857D01*
X149514285Y-75060714D01*
X149442857Y-75132142D01*
X149300000Y-75203571D01*
X148728571Y-75203571D01*
X148728571Y-73703571D01*
X149228571Y-73703571D01*
X149371428Y-73775000D01*
X149442857Y-73846428D01*
X149514285Y-73989285D01*
X149514285Y-74132142D01*
X149442857Y-74275000D01*
X149371428Y-74346428D01*
X149228571Y-74417857D01*
X148728571Y-74417857D01*
X150228571Y-75203571D02*
X150228571Y-74203571D01*
X150228571Y-74489285D02*
X150300000Y-74346428D01*
X150371428Y-74275000D01*
X150514285Y-74203571D01*
X150657142Y-74203571D01*
X151157142Y-75203571D02*
X151157142Y-74203571D01*
X151157142Y-73703571D02*
X151085714Y-73775000D01*
X151157142Y-73846428D01*
X151228571Y-73775000D01*
X151157142Y-73703571D01*
X151157142Y-73846428D01*
X151800000Y-75132142D02*
X151942857Y-75203571D01*
X152228571Y-75203571D01*
X152371428Y-75132142D01*
X152442857Y-74989285D01*
X152442857Y-74917857D01*
X152371428Y-74775000D01*
X152228571Y-74703571D01*
X152014285Y-74703571D01*
X151871428Y-74632142D01*
X151800000Y-74489285D01*
X151800000Y-74417857D01*
X151871428Y-74275000D01*
X152014285Y-74203571D01*
X152228571Y-74203571D01*
X152371428Y-74275000D01*
X152871428Y-74203571D02*
X153442857Y-74203571D01*
X153085714Y-73703571D02*
X153085714Y-74989285D01*
X153157142Y-75132142D01*
X153300000Y-75203571D01*
X153442857Y-75203571D01*
X154157142Y-75203571D02*
X154014285Y-75132142D01*
X153942857Y-75060714D01*
X153871428Y-74917857D01*
X153871428Y-74489285D01*
X153942857Y-74346428D01*
X154014285Y-74275000D01*
X154157142Y-74203571D01*
X154371428Y-74203571D01*
X154514285Y-74275000D01*
X154585714Y-74346428D01*
X154657142Y-74489285D01*
X154657142Y-74917857D01*
X154585714Y-75060714D01*
X154514285Y-75132142D01*
X154371428Y-75203571D01*
X154157142Y-75203571D01*
X155514285Y-75203571D02*
X155371428Y-75132142D01*
X155300000Y-74989285D01*
X155300000Y-73703571D01*
X136514285Y-77753571D02*
X136514285Y-76253571D01*
X137085714Y-76253571D01*
X137228571Y-76325000D01*
X137300000Y-76396428D01*
X137371428Y-76539285D01*
X137371428Y-76753571D01*
X137300000Y-76896428D01*
X137228571Y-76967857D01*
X137085714Y-77039285D01*
X136514285Y-77039285D01*
X138228571Y-77753571D02*
X138085714Y-77682142D01*
X138014285Y-77610714D01*
X137942857Y-77467857D01*
X137942857Y-77039285D01*
X138014285Y-76896428D01*
X138085714Y-76825000D01*
X138228571Y-76753571D01*
X138442857Y-76753571D01*
X138585714Y-76825000D01*
X138657142Y-76896428D01*
X138728571Y-77039285D01*
X138728571Y-77467857D01*
X138657142Y-77610714D01*
X138585714Y-77682142D01*
X138442857Y-77753571D01*
X138228571Y-77753571D01*
X139228571Y-76753571D02*
X139514285Y-77753571D01*
X139800000Y-77039285D01*
X140085714Y-77753571D01*
X140371428Y-76753571D01*
X141514285Y-77682142D02*
X141371428Y-77753571D01*
X141085714Y-77753571D01*
X140942857Y-77682142D01*
X140871428Y-77539285D01*
X140871428Y-76967857D01*
X140942857Y-76825000D01*
X141085714Y-76753571D01*
X141371428Y-76753571D01*
X141514285Y-76825000D01*
X141585714Y-76967857D01*
X141585714Y-77110714D01*
X140871428Y-77253571D01*
X142228571Y-77753571D02*
X142228571Y-76753571D01*
X142228571Y-77039285D02*
X142300000Y-76896428D01*
X142371428Y-76825000D01*
X142514285Y-76753571D01*
X142657142Y-76753571D01*
X144800000Y-76967857D02*
X145014285Y-77039285D01*
X145085714Y-77110714D01*
X145157142Y-77253571D01*
X145157142Y-77467857D01*
X145085714Y-77610714D01*
X145014285Y-77682142D01*
X144871428Y-77753571D01*
X144300000Y-77753571D01*
X144300000Y-76253571D01*
X144800000Y-76253571D01*
X144942857Y-76325000D01*
X145014285Y-76396428D01*
X145085714Y-76539285D01*
X145085714Y-76682142D01*
X145014285Y-76825000D01*
X144942857Y-76896428D01*
X144800000Y-76967857D01*
X144300000Y-76967857D01*
X146014285Y-77753571D02*
X145871428Y-77682142D01*
X145800000Y-77610714D01*
X145728571Y-77467857D01*
X145728571Y-77039285D01*
X145800000Y-76896428D01*
X145871428Y-76825000D01*
X146014285Y-76753571D01*
X146228571Y-76753571D01*
X146371428Y-76825000D01*
X146442857Y-76896428D01*
X146514285Y-77039285D01*
X146514285Y-77467857D01*
X146442857Y-77610714D01*
X146371428Y-77682142D01*
X146228571Y-77753571D01*
X146014285Y-77753571D01*
X147800000Y-77753571D02*
X147800000Y-76967857D01*
X147728571Y-76825000D01*
X147585714Y-76753571D01*
X147300000Y-76753571D01*
X147157142Y-76825000D01*
X147800000Y-77682142D02*
X147657142Y-77753571D01*
X147300000Y-77753571D01*
X147157142Y-77682142D01*
X147085714Y-77539285D01*
X147085714Y-77396428D01*
X147157142Y-77253571D01*
X147300000Y-77182142D01*
X147657142Y-77182142D01*
X147800000Y-77110714D01*
X148514285Y-77753571D02*
X148514285Y-76753571D01*
X148514285Y-77039285D02*
X148585714Y-76896428D01*
X148657142Y-76825000D01*
X148800000Y-76753571D01*
X148942857Y-76753571D01*
X150085714Y-77753571D02*
X150085714Y-76253571D01*
X150085714Y-77682142D02*
X149942857Y-77753571D01*
X149657142Y-77753571D01*
X149514285Y-77682142D01*
X149442857Y-77610714D01*
X149371428Y-77467857D01*
X149371428Y-77039285D01*
X149442857Y-76896428D01*
X149514285Y-76825000D01*
X149657142Y-76753571D01*
X149942857Y-76753571D01*
X150085714Y-76825000D01*
X151728571Y-76253571D02*
X152228571Y-77753571D01*
X152728571Y-76253571D01*
X153085714Y-76253571D02*
X154014285Y-76253571D01*
X153514285Y-76825000D01*
X153728571Y-76825000D01*
X153871428Y-76896428D01*
X153942857Y-76967857D01*
X154014285Y-77110714D01*
X154014285Y-77467857D01*
X153942857Y-77610714D01*
X153871428Y-77682142D01*
X153728571Y-77753571D01*
X153300000Y-77753571D01*
X153157142Y-77682142D01*
X153085714Y-77610714D01*
X154657142Y-77610714D02*
X154728571Y-77682142D01*
X154657142Y-77753571D01*
X154585714Y-77682142D01*
X154657142Y-77610714D01*
X154657142Y-77753571D01*
X155657142Y-76253571D02*
X155800000Y-76253571D01*
X155942857Y-76325000D01*
X156014285Y-76396428D01*
X156085714Y-76539285D01*
X156157142Y-76825000D01*
X156157142Y-77182142D01*
X156085714Y-77467857D01*
X156014285Y-77610714D01*
X155942857Y-77682142D01*
X155800000Y-77753571D01*
X155657142Y-77753571D01*
X155514285Y-77682142D01*
X155442857Y-77610714D01*
X155371428Y-77467857D01*
X155300000Y-77182142D01*
X155300000Y-76825000D01*
X155371428Y-76539285D01*
X155442857Y-76396428D01*
X155514285Y-76325000D01*
X155657142Y-76253571D01*
D13*
X104058971Y-71855085D02*
X104058971Y-70055085D01*
X104658971Y-71340800D01*
X105258971Y-70055085D01*
X105258971Y-71855085D01*
X106458971Y-70055085D02*
X106801828Y-70055085D01*
X106973257Y-70140800D01*
X107144685Y-70312228D01*
X107230400Y-70655085D01*
X107230400Y-71255085D01*
X107144685Y-71597942D01*
X106973257Y-71769371D01*
X106801828Y-71855085D01*
X106458971Y-71855085D01*
X106287542Y-71769371D01*
X106116114Y-71597942D01*
X106030400Y-71255085D01*
X106030400Y-70655085D01*
X106116114Y-70312228D01*
X106287542Y-70140800D01*
X106458971Y-70055085D01*
X107744685Y-70055085D02*
X108773257Y-70055085D01*
X108258971Y-71855085D02*
X108258971Y-70055085D01*
X109716114Y-70055085D02*
X110058971Y-70055085D01*
X110230400Y-70140800D01*
X110401828Y-70312228D01*
X110487542Y-70655085D01*
X110487542Y-71255085D01*
X110401828Y-71597942D01*
X110230400Y-71769371D01*
X110058971Y-71855085D01*
X109716114Y-71855085D01*
X109544685Y-71769371D01*
X109373257Y-71597942D01*
X109287542Y-71255085D01*
X109287542Y-70655085D01*
X109373257Y-70312228D01*
X109544685Y-70140800D01*
X109716114Y-70055085D01*
X112287542Y-71855085D02*
X111687542Y-70997942D01*
X111258971Y-71855085D02*
X111258971Y-70055085D01*
X111944685Y-70055085D01*
X112116114Y-70140800D01*
X112201828Y-70226514D01*
X112287542Y-70397942D01*
X112287542Y-70655085D01*
X112201828Y-70826514D01*
X112116114Y-70912228D01*
X111944685Y-70997942D01*
X111258971Y-70997942D01*
D12*
X77486323Y-77454209D02*
X76724419Y-77454209D01*
X76724419Y-75854209D01*
X78019657Y-77454209D02*
X78019657Y-75854209D01*
X78781561Y-77454209D02*
X78781561Y-75854209D01*
X79314895Y-76997066D01*
X79848228Y-75854209D01*
X79848228Y-77454209D01*
X80610133Y-77454209D02*
X80610133Y-75854209D01*
X81143466Y-75854209D02*
X82057752Y-75854209D01*
X81600609Y-77454209D02*
X81600609Y-75854209D01*
X83733942Y-77378019D02*
X83962514Y-77454209D01*
X84343466Y-77454209D01*
X84495847Y-77378019D01*
X84572038Y-77301828D01*
X84648228Y-77149447D01*
X84648228Y-76997066D01*
X84572038Y-76844685D01*
X84495847Y-76768495D01*
X84343466Y-76692304D01*
X84038704Y-76616114D01*
X83886323Y-76539923D01*
X83810133Y-76463733D01*
X83733942Y-76311352D01*
X83733942Y-76158971D01*
X83810133Y-76006590D01*
X83886323Y-75930400D01*
X84038704Y-75854209D01*
X84419657Y-75854209D01*
X84648228Y-75930400D01*
X85181561Y-75854209D02*
X85562514Y-77454209D01*
X85867276Y-76311352D01*
X86172038Y-77454209D01*
X86552990Y-75854209D01*
X87162514Y-77454209D02*
X87162514Y-75854209D01*
X87695847Y-75854209D02*
X88610133Y-75854209D01*
X88152990Y-77454209D02*
X88152990Y-75854209D01*
X90057752Y-77301828D02*
X89981561Y-77378019D01*
X89752990Y-77454209D01*
X89600609Y-77454209D01*
X89372038Y-77378019D01*
X89219657Y-77225638D01*
X89143466Y-77073257D01*
X89067276Y-76768495D01*
X89067276Y-76539923D01*
X89143466Y-76235161D01*
X89219657Y-76082780D01*
X89372038Y-75930400D01*
X89600609Y-75854209D01*
X89752990Y-75854209D01*
X89981561Y-75930400D01*
X90057752Y-76006590D01*
X90743466Y-77454209D02*
X90743466Y-75854209D01*
X90743466Y-76616114D02*
X91657752Y-76616114D01*
X91657752Y-77454209D02*
X91657752Y-75854209D01*
X92419657Y-76616114D02*
X92952990Y-76616114D01*
X93181561Y-77454209D02*
X92419657Y-77454209D01*
X92419657Y-75854209D01*
X93181561Y-75854209D01*
X93791085Y-77378019D02*
X94019657Y-77454209D01*
X94400609Y-77454209D01*
X94552990Y-77378019D01*
X94629180Y-77301828D01*
X94705371Y-77149447D01*
X94705371Y-76997066D01*
X94629180Y-76844685D01*
X94552990Y-76768495D01*
X94400609Y-76692304D01*
X94095847Y-76616114D01*
X93943466Y-76539923D01*
X93867276Y-76463733D01*
X93791085Y-76311352D01*
X93791085Y-76158971D01*
X93867276Y-76006590D01*
X93943466Y-75930400D01*
X94095847Y-75854209D01*
X94476800Y-75854209D01*
X94705371Y-75930400D01*
D13*
X78408114Y-38603428D02*
X78665257Y-38689142D01*
X78750971Y-38774857D01*
X78836685Y-38946285D01*
X78836685Y-39203428D01*
X78750971Y-39374857D01*
X78665257Y-39460571D01*
X78493828Y-39546285D01*
X77808114Y-39546285D01*
X77808114Y-37746285D01*
X78408114Y-37746285D01*
X78579542Y-37832000D01*
X78665257Y-37917714D01*
X78750971Y-38089142D01*
X78750971Y-38260571D01*
X78665257Y-38432000D01*
X78579542Y-38517714D01*
X78408114Y-38603428D01*
X77808114Y-38603428D01*
X79522400Y-39032000D02*
X80379542Y-39032000D01*
X79350971Y-39546285D02*
X79950971Y-37746285D01*
X80550971Y-39546285D01*
X80893828Y-37746285D02*
X81922400Y-37746285D01*
X81408114Y-39546285D02*
X81408114Y-37746285D01*
X82265257Y-37746285D02*
X83293828Y-37746285D01*
X82779542Y-39546285D02*
X82779542Y-37746285D01*
X85265257Y-38860571D02*
X86636685Y-38860571D01*
X67233600Y-85644228D02*
X66633599Y-85644228D01*
X66633599Y-86587085D02*
X66633599Y-84787085D01*
X67490742Y-84787085D01*
X68090742Y-86072800D02*
X68947885Y-86072800D01*
X67919314Y-86587085D02*
X68519314Y-84787085D01*
X69119314Y-86587085D01*
X69719314Y-86587085D02*
X69719314Y-84787085D01*
X70747885Y-86587085D01*
X70747885Y-84787085D01*
X72890742Y-84958514D02*
X72976457Y-84872800D01*
X73147885Y-84787085D01*
X73576457Y-84787085D01*
X73747885Y-84872800D01*
X73833600Y-84958514D01*
X73919314Y-85129942D01*
X73919314Y-85301371D01*
X73833600Y-85558514D01*
X72805028Y-86587085D01*
X73919314Y-86587085D01*
X45186399Y-85441028D02*
X44586399Y-85441028D01*
X44586399Y-86383885D02*
X44586399Y-84583885D01*
X45443542Y-84583885D01*
X46043542Y-85869600D02*
X46900685Y-85869600D01*
X45872114Y-86383885D02*
X46472114Y-84583885D01*
X47072114Y-86383885D01*
X47672114Y-86383885D02*
X47672114Y-84583885D01*
X48700685Y-86383885D01*
X48700685Y-84583885D01*
X51872114Y-86383885D02*
X50843542Y-86383885D01*
X51357828Y-86383885D02*
X51357828Y-84583885D01*
X51186399Y-84841028D01*
X51014971Y-85012457D01*
X50843542Y-85098171D01*
D14*
X55400000Y-51000000D02*
X56000000Y-52000000D01*
D13*
X112545714Y-52827428D02*
X112802857Y-52913142D01*
X112888571Y-52998857D01*
X112974285Y-53170285D01*
X112974285Y-53427428D01*
X112888571Y-53598857D01*
X112802857Y-53684571D01*
X112631428Y-53770285D01*
X111945714Y-53770285D01*
X111945714Y-51970285D01*
X112545714Y-51970285D01*
X112717142Y-52056000D01*
X112802857Y-52141714D01*
X112888571Y-52313142D01*
X112888571Y-52484571D01*
X112802857Y-52656000D01*
X112717142Y-52741714D01*
X112545714Y-52827428D01*
X111945714Y-52827428D01*
X113660000Y-53256000D02*
X114517142Y-53256000D01*
X113488571Y-53770285D02*
X114088571Y-51970285D01*
X114688571Y-53770285D01*
X115031428Y-51970285D02*
X116060000Y-51970285D01*
X115545714Y-53770285D02*
X115545714Y-51970285D01*
X116402857Y-51970285D02*
X117431428Y-51970285D01*
X116917142Y-53770285D02*
X116917142Y-51970285D01*
X119402857Y-53084571D02*
X120774285Y-53084571D01*
X120088571Y-53770285D02*
X120088571Y-52398857D01*
D14*
X94600000Y-40100000D02*
X95100000Y-40600000D01*
X92600000Y-40100000D02*
X94600000Y-40100000D01*
D15*
X110760000Y-56960000D02*
X107640000Y-56960000D01*
X110760000Y-49040000D02*
X110760000Y-56960000D01*
X107640000Y-49040000D02*
X110760000Y-49040000D01*
X107640000Y-56960000D02*
X107640000Y-49040000D01*
X77140000Y-35260000D02*
X77140000Y-32140000D01*
X85060000Y-35260000D02*
X77140000Y-35260000D01*
X85060000Y-32140000D02*
X85060000Y-35260000D01*
X77140000Y-32140000D02*
X85060000Y-32140000D01*
D14*
X58220000Y-86630000D02*
X58220000Y-80610000D01*
X58220000Y-80610000D02*
X52920000Y-80610000D01*
X52920000Y-80610000D02*
X52920000Y-86630000D01*
X52920000Y-86630000D02*
X58220000Y-86630000D01*
X58510000Y-85600000D02*
X58510000Y-81600000D01*
X56840000Y-80610000D02*
X56840000Y-81610000D01*
X56840000Y-81610000D02*
X54300000Y-81610000D01*
X54300000Y-81610000D02*
X54300000Y-80610000D01*
X56840000Y-81610000D02*
X56590000Y-82140000D01*
X56590000Y-82140000D02*
X54550000Y-82140000D01*
X54550000Y-82140000D02*
X54300000Y-81610000D01*
X56590000Y-80610000D02*
X56590000Y-81610000D01*
X54550000Y-80610000D02*
X54550000Y-81610000D01*
X57640000Y-86630000D02*
X57640000Y-86030000D01*
X57640000Y-86030000D02*
X56040000Y-86030000D01*
X56040000Y-86030000D02*
X56040000Y-86630000D01*
X55100000Y-86630000D02*
X55100000Y-86030000D01*
X55100000Y-86030000D02*
X53500000Y-86030000D01*
X53500000Y-86030000D02*
X53500000Y-86630000D01*
X187660000Y-69860000D02*
X187660000Y-66110000D01*
X187660000Y-59340000D02*
X187660000Y-63090000D01*
X178204437Y-59340000D02*
X187660000Y-59340000D01*
X178204437Y-69860000D02*
X187660000Y-69860000D01*
X177140000Y-68795563D02*
X177140000Y-66110000D01*
X177140000Y-60404437D02*
X177140000Y-63090000D01*
X177140000Y-60404437D02*
X178204437Y-59340000D01*
X177140000Y-68795563D02*
X178204437Y-69860000D01*
X175650000Y-61840000D02*
X176900000Y-61840000D01*
X176275000Y-61215000D02*
X176275000Y-62465000D01*
X187660000Y-58460000D02*
X187660000Y-54710000D01*
X187660000Y-47940000D02*
X187660000Y-51690000D01*
X178204437Y-47940000D02*
X187660000Y-47940000D01*
X178204437Y-58460000D02*
X187660000Y-58460000D01*
X177140000Y-57395563D02*
X177140000Y-54710000D01*
X177140000Y-49004437D02*
X177140000Y-51690000D01*
X177140000Y-49004437D02*
X178204437Y-47940000D01*
X177140000Y-57395563D02*
X178204437Y-58460000D01*
X175650000Y-50440000D02*
X176900000Y-50440000D01*
X176275000Y-49815000D02*
X176275000Y-51065000D01*
X174040000Y-82560000D02*
X177790000Y-82560000D01*
X184560000Y-82560000D02*
X180810000Y-82560000D01*
X184560000Y-73104437D02*
X184560000Y-82560000D01*
X174040000Y-73104437D02*
X174040000Y-82560000D01*
X175104437Y-72040000D02*
X177790000Y-72040000D01*
X183495563Y-72040000D02*
X180810000Y-72040000D01*
X183495563Y-72040000D02*
X184560000Y-73104437D01*
X175104437Y-72040000D02*
X174040000Y-73104437D01*
X182060000Y-70550000D02*
X182060000Y-71800000D01*
X182685000Y-71175000D02*
X181435000Y-71175000D01*
X184560000Y-35440000D02*
X180810000Y-35440000D01*
X174040000Y-35440000D02*
X177790000Y-35440000D01*
X174040000Y-44895563D02*
X174040000Y-35440000D01*
X184560000Y-44895563D02*
X184560000Y-35440000D01*
X183495563Y-45960000D02*
X180810000Y-45960000D01*
X175104437Y-45960000D02*
X177790000Y-45960000D01*
X175104437Y-45960000D02*
X174040000Y-44895563D01*
X183495563Y-45960000D02*
X184560000Y-44895563D01*
X176540000Y-47450000D02*
X176540000Y-46200000D01*
X175915000Y-46825000D02*
X177165000Y-46825000D01*
X71350000Y-44000000D02*
X71350000Y-30700000D01*
X54650000Y-44000000D02*
X71350000Y-44000000D01*
X54650000Y-30850000D02*
X54650000Y-44000000D01*
X76159420Y-55790000D02*
X76440580Y-55790000D01*
X76159420Y-56810000D02*
X76440580Y-56810000D01*
X74937258Y-51722500D02*
X74462742Y-51722500D01*
X74937258Y-50677500D02*
X74462742Y-50677500D01*
X173759420Y-54490000D02*
X174040580Y-54490000D01*
X173759420Y-55510000D02*
X174040580Y-55510000D01*
X118822936Y-31290000D02*
X123177064Y-31290000D01*
X118822936Y-34710000D02*
X123177064Y-34710000D01*
X119962742Y-40877500D02*
X120437258Y-40877500D01*
X119962742Y-41922500D02*
X120437258Y-41922500D01*
X119440000Y-37700000D02*
X119440000Y-39500000D01*
X119440000Y-37700000D02*
X119440000Y-36900000D01*
X122560000Y-37700000D02*
X122560000Y-38500000D01*
X122560000Y-37700000D02*
X122560000Y-36900000D01*
X101437258Y-48677500D02*
X100962742Y-48677500D01*
X101437258Y-49722500D02*
X100962742Y-49722500D01*
X116962742Y-39322500D02*
X117437258Y-39322500D01*
X116962742Y-38277500D02*
X117437258Y-38277500D01*
X60120000Y-78860000D02*
X61050000Y-78860000D01*
X63280000Y-78860000D02*
X62350000Y-78860000D01*
X63280000Y-78860000D02*
X63280000Y-76700000D01*
X60120000Y-78860000D02*
X60120000Y-77400000D01*
X52720000Y-78860000D02*
X53650000Y-78860000D01*
X55880000Y-78860000D02*
X54950000Y-78860000D01*
X55880000Y-78860000D02*
X55880000Y-76700000D01*
X52720000Y-78860000D02*
X52720000Y-77400000D01*
X65580000Y-86630000D02*
X65580000Y-80610000D01*
X65580000Y-80610000D02*
X60280000Y-80610000D01*
X60280000Y-80610000D02*
X60280000Y-86630000D01*
X60280000Y-86630000D02*
X65580000Y-86630000D01*
X65870000Y-85600000D02*
X65870000Y-81600000D01*
X64200000Y-80610000D02*
X64200000Y-81610000D01*
X64200000Y-81610000D02*
X61660000Y-81610000D01*
X61660000Y-81610000D02*
X61660000Y-80610000D01*
X64200000Y-81610000D02*
X63950000Y-82140000D01*
X63950000Y-82140000D02*
X61910000Y-82140000D01*
X61910000Y-82140000D02*
X61660000Y-81610000D01*
X63950000Y-80610000D02*
X63950000Y-81610000D01*
X61910000Y-80610000D02*
X61910000Y-81610000D01*
X65000000Y-86630000D02*
X65000000Y-86030000D01*
X65000000Y-86030000D02*
X63400000Y-86030000D01*
X63400000Y-86030000D02*
X63400000Y-86630000D01*
X62460000Y-86630000D02*
X62460000Y-86030000D01*
X62460000Y-86030000D02*
X60860000Y-86030000D01*
X60860000Y-86030000D02*
X60860000Y-86630000D01*
X105800000Y-67950000D02*
X105800000Y-64650000D01*
X105800000Y-64650000D02*
X100400000Y-64650000D01*
X105800000Y-67950000D02*
X100400000Y-67950000D01*
X113100000Y-43950000D02*
X113100000Y-40650000D01*
X113100000Y-40650000D02*
X96300000Y-40650000D01*
X96300000Y-40650000D02*
X96300000Y-43950000D01*
X96300000Y-43950000D02*
X113100000Y-43950000D01*
X83510000Y-82210000D02*
X83510000Y-78340000D01*
X83510000Y-78340000D02*
X69290000Y-78340000D01*
X69290000Y-78340000D02*
X69290000Y-82210000D01*
X69290000Y-82210000D02*
X83510000Y-82210000D01*
X81510000Y-82510000D02*
X83810000Y-82510000D01*
X83810000Y-82510000D02*
X83810000Y-80210000D01*
X83510000Y-79800000D02*
X83110000Y-79800000D01*
X69290000Y-79800000D02*
X69690000Y-79800000D01*
X76400000Y-81810000D02*
X83110000Y-81810000D01*
X83110000Y-81810000D02*
X83110000Y-80600000D01*
X83110000Y-80600000D02*
X82710000Y-80600000D01*
X82710000Y-80600000D02*
X82710000Y-80200000D01*
X82710000Y-80200000D02*
X83110000Y-80200000D01*
X83110000Y-80200000D02*
X83110000Y-78340000D01*
X76400000Y-81810000D02*
X69690000Y-81810000D01*
X69690000Y-81810000D02*
X69690000Y-80600000D01*
X69690000Y-80600000D02*
X70090000Y-80600000D01*
X70090000Y-80600000D02*
X70090000Y-80200000D01*
X70090000Y-80200000D02*
X69690000Y-80200000D01*
X69690000Y-80200000D02*
X69690000Y-78340000D01*
D15*
X88700000Y-55430000D02*
X88700000Y-58970000D01*
X82400000Y-55430000D02*
X82400000Y-58970000D01*
D14*
X89800000Y-63700000D02*
X102800000Y-63700000D01*
X102800000Y-63700000D02*
X102800000Y-50700000D01*
X102800000Y-50700000D02*
X89800000Y-50700000D01*
X89800000Y-50700000D02*
X89800000Y-63700000D01*
X67550000Y-71900000D02*
X67550000Y-72100000D01*
X67550000Y-72100000D02*
X64550000Y-75100000D01*
X64550000Y-75100000D02*
X60150000Y-75100000D01*
X60150000Y-75100000D02*
X57150000Y-72100000D01*
X57150000Y-72100000D02*
X57150000Y-71900000D01*
X67550000Y-67900000D02*
X67550000Y-67700000D01*
X67550000Y-67700000D02*
X64550000Y-64700000D01*
X64550000Y-64700000D02*
X64550000Y-64700000D01*
X64550000Y-64700000D02*
X60150000Y-64700000D01*
X60150000Y-64700000D02*
X57150000Y-67700000D01*
X57150000Y-67700000D02*
X57150000Y-67900000D01*
X104010000Y-36000000D02*
X104010000Y-34050000D01*
X104010000Y-36000000D02*
X104010000Y-37950000D01*
X98890000Y-36000000D02*
X98890000Y-34050000D01*
X98890000Y-36000000D02*
X98890000Y-39450000D01*
X98260000Y-36000000D02*
X98260000Y-34050000D01*
X98260000Y-36000000D02*
X98260000Y-37950000D01*
X93140000Y-36000000D02*
X93140000Y-34050000D01*
X93140000Y-36000000D02*
X93140000Y-39450000D01*
D11*
X99125000Y-44625000D02*
X99125000Y-44850000D01*
X102475000Y-44625000D02*
X102475000Y-44925000D01*
X102475000Y-47975000D02*
X102475000Y-47675000D01*
X99125000Y-47975000D02*
X99125000Y-47675000D01*
X99125000Y-44625000D02*
X102475000Y-44625000D01*
X99125000Y-47975000D02*
X102475000Y-47975000D01*
X99125000Y-44850000D02*
X97900000Y-44850000D01*
D14*
X154000000Y-67700000D02*
X153900000Y-67700000D01*
X153900000Y-67700000D02*
X153900000Y-66500000D01*
X154000000Y-50300000D02*
X153900000Y-50300000D01*
X153900000Y-50300000D02*
X153900000Y-51500000D01*
X154000000Y-50300000D02*
X170100000Y-50300000D01*
X170100000Y-50300000D02*
X170100000Y-51500000D01*
X154000000Y-67700000D02*
X170000000Y-67700000D01*
X170000000Y-67700000D02*
X170100000Y-67700000D01*
X170100000Y-67700000D02*
X170100000Y-66500000D01*
X170100000Y-66500000D02*
X171800000Y-66500000D01*
X76050000Y-66650000D02*
X77150000Y-66650000D01*
X77150000Y-66650000D02*
X77150000Y-69550000D01*
X77150000Y-69550000D02*
X77150000Y-69650000D01*
X77150000Y-69650000D02*
X76050000Y-69650000D01*
X72650000Y-66650000D02*
X71950000Y-66650000D01*
X71950000Y-66650000D02*
X71850000Y-66650000D01*
X71850000Y-66650000D02*
X71550000Y-66950000D01*
X71550000Y-66950000D02*
X71550000Y-69550000D01*
X71550000Y-69550000D02*
X71550000Y-69650000D01*
X71550000Y-69650000D02*
X72650000Y-69650000D01*
D11*
X65925000Y-50625000D02*
X65925000Y-50850000D01*
X70575000Y-50625000D02*
X70575000Y-50950000D01*
X70575000Y-60575000D02*
X70575000Y-60250000D01*
X65925000Y-60575000D02*
X65925000Y-60250000D01*
X65925000Y-50625000D02*
X70575000Y-50625000D01*
X65925000Y-60575000D02*
X70575000Y-60575000D01*
X65925000Y-50850000D02*
X64850000Y-50850000D01*
D14*
X54977500Y-60337258D02*
X54977500Y-59862742D01*
X56022500Y-60337258D02*
X56022500Y-59862742D01*
X95622500Y-41962742D02*
X95622500Y-42437258D01*
X94577500Y-41962742D02*
X94577500Y-42437258D01*
X98037258Y-49722500D02*
X97562742Y-49722500D01*
X98037258Y-48677500D02*
X97562742Y-48677500D01*
X95472500Y-45512742D02*
X95472500Y-45987258D01*
X94427500Y-45512742D02*
X94427500Y-45987258D01*
X93922500Y-41962742D02*
X93922500Y-42437258D01*
X92877500Y-41962742D02*
X92877500Y-42437258D01*
X103977500Y-75237258D02*
X103977500Y-74762742D01*
X105022500Y-75237258D02*
X105022500Y-74762742D01*
X97762742Y-84877500D02*
X98237258Y-84877500D01*
X97762742Y-85922500D02*
X98237258Y-85922500D01*
X90962742Y-85577500D02*
X91437258Y-85577500D01*
X90962742Y-86622500D02*
X91437258Y-86622500D01*
X90962742Y-82977500D02*
X91437258Y-82977500D01*
X90962742Y-84022500D02*
X91437258Y-84022500D01*
X98237258Y-84222500D02*
X97762742Y-84222500D01*
X98237258Y-83177500D02*
X97762742Y-83177500D01*
X55977500Y-53837258D02*
X55977500Y-53362742D01*
X57022500Y-53837258D02*
X57022500Y-53362742D01*
X55977500Y-57087258D02*
X55977500Y-56612742D01*
X57022500Y-57087258D02*
X57022500Y-56612742D01*
X56977500Y-60337258D02*
X56977500Y-59862742D01*
X58022500Y-60337258D02*
X58022500Y-59862742D01*
X54227500Y-53837258D02*
X54227500Y-53362742D01*
X55272500Y-53837258D02*
X55272500Y-53362742D01*
X95172936Y-64890000D02*
X96627064Y-64890000D01*
X95172936Y-66710000D02*
X96627064Y-66710000D01*
X70062742Y-61077500D02*
X70537258Y-61077500D01*
X70062742Y-62122500D02*
X70537258Y-62122500D01*
X79610000Y-70159420D02*
X79610000Y-70440580D01*
X78590000Y-70159420D02*
X78590000Y-70440580D01*
X79622500Y-66462742D02*
X79622500Y-66937258D01*
X78577500Y-66462742D02*
X78577500Y-66937258D01*
X80377500Y-51937258D02*
X80377500Y-51462742D01*
X81422500Y-51937258D02*
X81422500Y-51462742D01*
X91335000Y-47972936D02*
X91335000Y-48427064D01*
X89865000Y-47972936D02*
X89865000Y-48427064D01*
X77622500Y-72412742D02*
X77622500Y-72887258D01*
X76577500Y-72412742D02*
X76577500Y-72887258D01*
X76062742Y-52577500D02*
X76537258Y-52577500D01*
X76062742Y-53622500D02*
X76537258Y-53622500D01*
X76537258Y-55222500D02*
X76062742Y-55222500D01*
X76537258Y-54177500D02*
X76062742Y-54177500D01*
X63022500Y-59112742D02*
X63022500Y-59587258D01*
X61977500Y-59112742D02*
X61977500Y-59587258D01*
X71977500Y-48587258D02*
X71977500Y-48112742D01*
X73022500Y-48587258D02*
X73022500Y-48112742D01*
X61737258Y-56722500D02*
X61262742Y-56722500D01*
X61737258Y-55677500D02*
X61262742Y-55677500D01*
X59237258Y-54122500D02*
X58762742Y-54122500D01*
X59237258Y-53077500D02*
X58762742Y-53077500D01*
X58762742Y-51327500D02*
X59237258Y-51327500D01*
X58762742Y-52372500D02*
X59237258Y-52372500D01*
X54080000Y-56140000D02*
X53150000Y-56140000D01*
X50920000Y-56140000D02*
X51850000Y-56140000D01*
X50920000Y-56140000D02*
X50920000Y-58300000D01*
X54080000Y-56140000D02*
X54080000Y-57600000D01*
X85360000Y-51480000D02*
X85360000Y-50550000D01*
X85360000Y-48320000D02*
X85360000Y-49250000D01*
X85360000Y-48320000D02*
X83200000Y-48320000D01*
X85360000Y-51480000D02*
X83900000Y-51480000D01*
X46430000Y-46210000D02*
X41230000Y-46210000D01*
X46430000Y-69130000D02*
X46430000Y-46210000D01*
X41230000Y-71730000D02*
X41230000Y-46210000D01*
X46430000Y-69130000D02*
X43830000Y-69130000D01*
X43830000Y-69130000D02*
X43830000Y-71730000D01*
X43830000Y-71730000D02*
X41230000Y-71730000D01*
X46430000Y-70400000D02*
X46430000Y-71730000D01*
X46430000Y-71730000D02*
X45100000Y-71730000D01*
X48300000Y-79400000D02*
X48300000Y-81600000D01*
X48300000Y-81600000D02*
X39300000Y-81600000D01*
X39300000Y-81600000D02*
X39300000Y-79400000D01*
D10*
G36*
X48100000Y-70500000D02*
G01*
X48100000Y-70400000D01*
X49000000Y-69400000D01*
X49000000Y-71400000D01*
X48100000Y-70500000D01*
G37*
X48100000Y-70500000D02*
X48100000Y-70400000D01*
X49000000Y-69400000D01*
X49000000Y-71400000D01*
X48100000Y-70500000D01*
D14*
X48300000Y-38600000D02*
X48300000Y-36300000D01*
X48300000Y-36300000D02*
X39300000Y-36300000D01*
X39300000Y-36300000D02*
X39300000Y-38600000D01*
X100585000Y-75800000D02*
X100585000Y-73515000D01*
X100585000Y-73515000D02*
X99115000Y-73515000D01*
X99115000Y-73515000D02*
X99115000Y-75800000D01*
X101365000Y-74200000D02*
X101365000Y-76485000D01*
X101365000Y-76485000D02*
X102835000Y-76485000D01*
X102835000Y-76485000D02*
X102835000Y-74200000D01*
X88950000Y-67350000D02*
X88950000Y-63050000D01*
X88950000Y-63050000D02*
X83250000Y-63050000D01*
X88950000Y-67350000D02*
X83250000Y-67350000D01*
X53590000Y-67320000D02*
X53590000Y-68250000D01*
X53590000Y-70480000D02*
X53590000Y-69550000D01*
X53590000Y-70480000D02*
X55750000Y-70480000D01*
X53590000Y-67320000D02*
X55050000Y-67320000D01*
X68800000Y-70500000D02*
X68800000Y-74800000D01*
X68800000Y-74800000D02*
X74500000Y-74800000D01*
X68800000Y-70500000D02*
X74500000Y-70500000D01*
D16*
X107474900Y-87483200D02*
X115425100Y-87483200D01*
X115425100Y-87483200D02*
X115425100Y-75723000D01*
X115425100Y-75723000D02*
X107474900Y-75723000D01*
X107474900Y-75723000D02*
X107474900Y-87483200D01*
X106077900Y-78400000D02*
G75*
G03*
X106077900Y-78400000I-381000J0D01*
G01*
D14*
X59190000Y-47440580D02*
X59190000Y-47159420D01*
X60210000Y-47440580D02*
X60210000Y-47159420D01*
X107560000Y-36763748D02*
X107560000Y-38186252D01*
X104840000Y-36763748D02*
X104840000Y-38186252D01*
X163040000Y-82560000D02*
X166790000Y-82560000D01*
X173560000Y-82560000D02*
X169810000Y-82560000D01*
X173560000Y-73104437D02*
X173560000Y-82560000D01*
X163040000Y-73104437D02*
X163040000Y-82560000D01*
X164104437Y-72040000D02*
X166790000Y-72040000D01*
X172495563Y-72040000D02*
X169810000Y-72040000D01*
X172495563Y-72040000D02*
X173560000Y-73104437D01*
X164104437Y-72040000D02*
X163040000Y-73104437D01*
X171060000Y-70550000D02*
X171060000Y-71800000D01*
X171685000Y-71175000D02*
X170435000Y-71175000D01*
X173560000Y-35440000D02*
X169810000Y-35440000D01*
X163040000Y-35440000D02*
X166790000Y-35440000D01*
X163040000Y-44895563D02*
X163040000Y-35440000D01*
X173560000Y-44895563D02*
X173560000Y-35440000D01*
X172495563Y-45960000D02*
X169810000Y-45960000D01*
X164104437Y-45960000D02*
X166790000Y-45960000D01*
X164104437Y-45960000D02*
X163040000Y-44895563D01*
X172495563Y-45960000D02*
X173560000Y-44895563D01*
X165540000Y-47450000D02*
X165540000Y-46200000D01*
X164915000Y-46825000D02*
X166165000Y-46825000D01*
X103990000Y-62140580D02*
X103990000Y-61859420D01*
X105010000Y-62140580D02*
X105010000Y-61859420D01*
X92560000Y-66188748D02*
X92560000Y-67611252D01*
X89840000Y-66188748D02*
X89840000Y-67611252D01*
X54611252Y-72885000D02*
X54088748Y-72885000D01*
X54611252Y-71415000D02*
X54088748Y-71415000D01*
X71040580Y-76610000D02*
X70759420Y-76610000D01*
X71040580Y-75590000D02*
X70759420Y-75590000D01*
X69390000Y-67140580D02*
X69390000Y-66859420D01*
X70410000Y-67140580D02*
X70410000Y-66859420D01*
X59610000Y-56859420D02*
X59610000Y-57140580D01*
X58590000Y-56859420D02*
X58590000Y-57140580D01*
X73990000Y-48490580D02*
X73990000Y-48209420D01*
X75010000Y-48490580D02*
X75010000Y-48209420D01*
X61260000Y-59209420D02*
X61260000Y-59490580D01*
X60240000Y-59209420D02*
X60240000Y-59490580D01*
D11*
X111666666Y-49452380D02*
X111666666Y-50166666D01*
X111619047Y-50309523D01*
X111523809Y-50404761D01*
X111380952Y-50452380D01*
X111285714Y-50452380D01*
X112571428Y-49785714D02*
X112571428Y-50452380D01*
X112333333Y-49404761D02*
X112095238Y-50119047D01*
X112714285Y-50119047D01*
X80766666Y-30652380D02*
X80766666Y-31366666D01*
X80719047Y-31509523D01*
X80623809Y-31604761D01*
X80480952Y-31652380D01*
X80385714Y-31652380D01*
X81719047Y-30652380D02*
X81242857Y-30652380D01*
X81195238Y-31128571D01*
X81242857Y-31080952D01*
X81338095Y-31033333D01*
X81576190Y-31033333D01*
X81671428Y-31080952D01*
X81719047Y-31128571D01*
X81766666Y-31223809D01*
X81766666Y-31461904D01*
X81719047Y-31557142D01*
X81671428Y-31604761D01*
X81576190Y-31652380D01*
X81338095Y-31652380D01*
X81242857Y-31604761D01*
X81195238Y-31557142D01*
X51266666Y-82652380D02*
X51266666Y-83366666D01*
X51219047Y-83509523D01*
X51123809Y-83604761D01*
X50980952Y-83652380D01*
X50885714Y-83652380D01*
X52171428Y-82652380D02*
X51980952Y-82652380D01*
X51885714Y-82700000D01*
X51838095Y-82747619D01*
X51742857Y-82890476D01*
X51695238Y-83080952D01*
X51695238Y-83461904D01*
X51742857Y-83557142D01*
X51790476Y-83604761D01*
X51885714Y-83652380D01*
X52076190Y-83652380D01*
X52171428Y-83604761D01*
X52219047Y-83557142D01*
X52266666Y-83461904D01*
X52266666Y-83223809D01*
X52219047Y-83128571D01*
X52171428Y-83080952D01*
X52076190Y-83033333D01*
X51885714Y-83033333D01*
X51790476Y-83080952D01*
X51742857Y-83128571D01*
X51695238Y-83223809D01*
X189157142Y-62257142D02*
X189109523Y-62304761D01*
X188966666Y-62352380D01*
X188871428Y-62352380D01*
X188728571Y-62304761D01*
X188633333Y-62209523D01*
X188585714Y-62114285D01*
X188538095Y-61923809D01*
X188538095Y-61780952D01*
X188585714Y-61590476D01*
X188633333Y-61495238D01*
X188728571Y-61400000D01*
X188871428Y-61352380D01*
X188966666Y-61352380D01*
X189109523Y-61400000D01*
X189157142Y-61447619D01*
X190109523Y-62352380D02*
X189538095Y-62352380D01*
X189823809Y-62352380D02*
X189823809Y-61352380D01*
X189728571Y-61495238D01*
X189633333Y-61590476D01*
X189538095Y-61638095D01*
X190585714Y-62352380D02*
X190776190Y-62352380D01*
X190871428Y-62304761D01*
X190919047Y-62257142D01*
X191014285Y-62114285D01*
X191061904Y-61923809D01*
X191061904Y-61542857D01*
X191014285Y-61447619D01*
X190966666Y-61400000D01*
X190871428Y-61352380D01*
X190680952Y-61352380D01*
X190585714Y-61400000D01*
X190538095Y-61447619D01*
X190490476Y-61542857D01*
X190490476Y-61780952D01*
X190538095Y-61876190D01*
X190585714Y-61923809D01*
X190680952Y-61971428D01*
X190871428Y-61971428D01*
X190966666Y-61923809D01*
X191014285Y-61876190D01*
X191061904Y-61780952D01*
X189457142Y-50757142D02*
X189409523Y-50804761D01*
X189266666Y-50852380D01*
X189171428Y-50852380D01*
X189028571Y-50804761D01*
X188933333Y-50709523D01*
X188885714Y-50614285D01*
X188838095Y-50423809D01*
X188838095Y-50280952D01*
X188885714Y-50090476D01*
X188933333Y-49995238D01*
X189028571Y-49900000D01*
X189171428Y-49852380D01*
X189266666Y-49852380D01*
X189409523Y-49900000D01*
X189457142Y-49947619D01*
X190409523Y-50852380D02*
X189838095Y-50852380D01*
X190123809Y-50852380D02*
X190123809Y-49852380D01*
X190028571Y-49995238D01*
X189933333Y-50090476D01*
X189838095Y-50138095D01*
X190980952Y-50280952D02*
X190885714Y-50233333D01*
X190838095Y-50185714D01*
X190790476Y-50090476D01*
X190790476Y-50042857D01*
X190838095Y-49947619D01*
X190885714Y-49900000D01*
X190980952Y-49852380D01*
X191171428Y-49852380D01*
X191266666Y-49900000D01*
X191314285Y-49947619D01*
X191361904Y-50042857D01*
X191361904Y-50090476D01*
X191314285Y-50185714D01*
X191266666Y-50233333D01*
X191171428Y-50280952D01*
X190980952Y-50280952D01*
X190885714Y-50328571D01*
X190838095Y-50376190D01*
X190790476Y-50471428D01*
X190790476Y-50661904D01*
X190838095Y-50757142D01*
X190885714Y-50804761D01*
X190980952Y-50852380D01*
X191171428Y-50852380D01*
X191266666Y-50804761D01*
X191314285Y-50757142D01*
X191361904Y-50661904D01*
X191361904Y-50471428D01*
X191314285Y-50376190D01*
X191266666Y-50328571D01*
X191171428Y-50280952D01*
X185757142Y-78057142D02*
X185709523Y-78104761D01*
X185566666Y-78152380D01*
X185471428Y-78152380D01*
X185328571Y-78104761D01*
X185233333Y-78009523D01*
X185185714Y-77914285D01*
X185138095Y-77723809D01*
X185138095Y-77580952D01*
X185185714Y-77390476D01*
X185233333Y-77295238D01*
X185328571Y-77200000D01*
X185471428Y-77152380D01*
X185566666Y-77152380D01*
X185709523Y-77200000D01*
X185757142Y-77247619D01*
X186709523Y-78152380D02*
X186138095Y-78152380D01*
X186423809Y-78152380D02*
X186423809Y-77152380D01*
X186328571Y-77295238D01*
X186233333Y-77390476D01*
X186138095Y-77438095D01*
X187042857Y-77152380D02*
X187709523Y-77152380D01*
X187280952Y-78152380D01*
X185957142Y-40857142D02*
X185909523Y-40904761D01*
X185766666Y-40952380D01*
X185671428Y-40952380D01*
X185528571Y-40904761D01*
X185433333Y-40809523D01*
X185385714Y-40714285D01*
X185338095Y-40523809D01*
X185338095Y-40380952D01*
X185385714Y-40190476D01*
X185433333Y-40095238D01*
X185528571Y-40000000D01*
X185671428Y-39952380D01*
X185766666Y-39952380D01*
X185909523Y-40000000D01*
X185957142Y-40047619D01*
X186909523Y-40952380D02*
X186338095Y-40952380D01*
X186623809Y-40952380D02*
X186623809Y-39952380D01*
X186528571Y-40095238D01*
X186433333Y-40190476D01*
X186338095Y-40238095D01*
X187766666Y-39952380D02*
X187576190Y-39952380D01*
X187480952Y-40000000D01*
X187433333Y-40047619D01*
X187338095Y-40190476D01*
X187290476Y-40380952D01*
X187290476Y-40761904D01*
X187338095Y-40857142D01*
X187385714Y-40904761D01*
X187480952Y-40952380D01*
X187671428Y-40952380D01*
X187766666Y-40904761D01*
X187814285Y-40857142D01*
X187861904Y-40761904D01*
X187861904Y-40523809D01*
X187814285Y-40428571D01*
X187766666Y-40380952D01*
X187671428Y-40333333D01*
X187480952Y-40333333D01*
X187385714Y-40380952D01*
X187338095Y-40428571D01*
X187290476Y-40523809D01*
X62666666Y-31752380D02*
X62666666Y-32466666D01*
X62619047Y-32609523D01*
X62523809Y-32704761D01*
X62380952Y-32752380D01*
X62285714Y-32752380D01*
X63666666Y-32752380D02*
X63095238Y-32752380D01*
X63380952Y-32752380D02*
X63380952Y-31752380D01*
X63285714Y-31895238D01*
X63190476Y-31990476D01*
X63095238Y-32038095D01*
X75557142Y-58257142D02*
X75509523Y-58304761D01*
X75366666Y-58352380D01*
X75271428Y-58352380D01*
X75128571Y-58304761D01*
X75033333Y-58209523D01*
X74985714Y-58114285D01*
X74938095Y-57923809D01*
X74938095Y-57780952D01*
X74985714Y-57590476D01*
X75033333Y-57495238D01*
X75128571Y-57400000D01*
X75271428Y-57352380D01*
X75366666Y-57352380D01*
X75509523Y-57400000D01*
X75557142Y-57447619D01*
X76509523Y-58352380D02*
X75938095Y-58352380D01*
X76223809Y-58352380D02*
X76223809Y-57352380D01*
X76128571Y-57495238D01*
X76033333Y-57590476D01*
X75938095Y-57638095D01*
X77414285Y-57352380D02*
X76938095Y-57352380D01*
X76890476Y-57828571D01*
X76938095Y-57780952D01*
X77033333Y-57733333D01*
X77271428Y-57733333D01*
X77366666Y-57780952D01*
X77414285Y-57828571D01*
X77461904Y-57923809D01*
X77461904Y-58161904D01*
X77414285Y-58257142D01*
X77366666Y-58304761D01*
X77271428Y-58352380D01*
X77033333Y-58352380D01*
X76938095Y-58304761D01*
X76890476Y-58257142D01*
X76233333Y-50352380D02*
X75900000Y-49876190D01*
X75661904Y-50352380D02*
X75661904Y-49352380D01*
X76042857Y-49352380D01*
X76138095Y-49400000D01*
X76185714Y-49447619D01*
X76233333Y-49542857D01*
X76233333Y-49685714D01*
X76185714Y-49780952D01*
X76138095Y-49828571D01*
X76042857Y-49876190D01*
X75661904Y-49876190D01*
X76709523Y-50352380D02*
X76900000Y-50352380D01*
X76995238Y-50304761D01*
X77042857Y-50257142D01*
X77138095Y-50114285D01*
X77185714Y-49923809D01*
X77185714Y-49542857D01*
X77138095Y-49447619D01*
X77090476Y-49400000D01*
X76995238Y-49352380D01*
X76804761Y-49352380D01*
X76709523Y-49400000D01*
X76661904Y-49447619D01*
X76614285Y-49542857D01*
X76614285Y-49780952D01*
X76661904Y-49876190D01*
X76709523Y-49923809D01*
X76804761Y-49971428D01*
X76995238Y-49971428D01*
X77090476Y-49923809D01*
X77138095Y-49876190D01*
X77185714Y-49780952D01*
X173257142Y-53927142D02*
X173209523Y-53974761D01*
X173066666Y-54022380D01*
X172971428Y-54022380D01*
X172828571Y-53974761D01*
X172733333Y-53879523D01*
X172685714Y-53784285D01*
X172638095Y-53593809D01*
X172638095Y-53450952D01*
X172685714Y-53260476D01*
X172733333Y-53165238D01*
X172828571Y-53070000D01*
X172971428Y-53022380D01*
X173066666Y-53022380D01*
X173209523Y-53070000D01*
X173257142Y-53117619D01*
X174209523Y-54022380D02*
X173638095Y-54022380D01*
X173923809Y-54022380D02*
X173923809Y-53022380D01*
X173828571Y-53165238D01*
X173733333Y-53260476D01*
X173638095Y-53308095D01*
X174828571Y-53022380D02*
X174923809Y-53022380D01*
X175019047Y-53070000D01*
X175066666Y-53117619D01*
X175114285Y-53212857D01*
X175161904Y-53403333D01*
X175161904Y-53641428D01*
X175114285Y-53831904D01*
X175066666Y-53927142D01*
X175019047Y-53974761D01*
X174923809Y-54022380D01*
X174828571Y-54022380D01*
X174733333Y-53974761D01*
X174685714Y-53927142D01*
X174638095Y-53831904D01*
X174590476Y-53641428D01*
X174590476Y-53403333D01*
X174638095Y-53212857D01*
X174685714Y-53117619D01*
X174733333Y-53070000D01*
X174828571Y-53022380D01*
X115257142Y-33252380D02*
X114923809Y-32776190D01*
X114685714Y-33252380D02*
X114685714Y-32252380D01*
X115066666Y-32252380D01*
X115161904Y-32300000D01*
X115209523Y-32347619D01*
X115257142Y-32442857D01*
X115257142Y-32585714D01*
X115209523Y-32680952D01*
X115161904Y-32728571D01*
X115066666Y-32776190D01*
X114685714Y-32776190D01*
X115638095Y-32347619D02*
X115685714Y-32300000D01*
X115780952Y-32252380D01*
X116019047Y-32252380D01*
X116114285Y-32300000D01*
X116161904Y-32347619D01*
X116209523Y-32442857D01*
X116209523Y-32538095D01*
X116161904Y-32680952D01*
X115590476Y-33252380D01*
X116209523Y-33252380D01*
X117161904Y-33252380D02*
X116590476Y-33252380D01*
X116876190Y-33252380D02*
X116876190Y-32252380D01*
X116780952Y-32395238D01*
X116685714Y-32490476D01*
X116590476Y-32538095D01*
X119657142Y-43352380D02*
X119323809Y-42876190D01*
X119085714Y-43352380D02*
X119085714Y-42352380D01*
X119466666Y-42352380D01*
X119561904Y-42400000D01*
X119609523Y-42447619D01*
X119657142Y-42542857D01*
X119657142Y-42685714D01*
X119609523Y-42780952D01*
X119561904Y-42828571D01*
X119466666Y-42876190D01*
X119085714Y-42876190D01*
X120038095Y-42447619D02*
X120085714Y-42400000D01*
X120180952Y-42352380D01*
X120419047Y-42352380D01*
X120514285Y-42400000D01*
X120561904Y-42447619D01*
X120609523Y-42542857D01*
X120609523Y-42638095D01*
X120561904Y-42780952D01*
X119990476Y-43352380D01*
X120609523Y-43352380D01*
X120990476Y-42447619D02*
X121038095Y-42400000D01*
X121133333Y-42352380D01*
X121371428Y-42352380D01*
X121466666Y-42400000D01*
X121514285Y-42447619D01*
X121561904Y-42542857D01*
X121561904Y-42638095D01*
X121514285Y-42780952D01*
X120942857Y-43352380D01*
X121561904Y-43352380D01*
X123052380Y-38361904D02*
X123861904Y-38361904D01*
X123957142Y-38314285D01*
X124004761Y-38266666D01*
X124052380Y-38171428D01*
X124052380Y-37980952D01*
X124004761Y-37885714D01*
X123957142Y-37838095D01*
X123861904Y-37790476D01*
X123052380Y-37790476D01*
X123052380Y-37409523D02*
X123052380Y-36790476D01*
X123433333Y-37123809D01*
X123433333Y-36980952D01*
X123480952Y-36885714D01*
X123528571Y-36838095D01*
X123623809Y-36790476D01*
X123861904Y-36790476D01*
X123957142Y-36838095D01*
X124004761Y-36885714D01*
X124052380Y-36980952D01*
X124052380Y-37266666D01*
X124004761Y-37361904D01*
X123957142Y-37409523D01*
X103657142Y-49752380D02*
X103323809Y-49276190D01*
X103085714Y-49752380D02*
X103085714Y-48752380D01*
X103466666Y-48752380D01*
X103561904Y-48800000D01*
X103609523Y-48847619D01*
X103657142Y-48942857D01*
X103657142Y-49085714D01*
X103609523Y-49180952D01*
X103561904Y-49228571D01*
X103466666Y-49276190D01*
X103085714Y-49276190D01*
X104038095Y-48847619D02*
X104085714Y-48800000D01*
X104180952Y-48752380D01*
X104419047Y-48752380D01*
X104514285Y-48800000D01*
X104561904Y-48847619D01*
X104609523Y-48942857D01*
X104609523Y-49038095D01*
X104561904Y-49180952D01*
X103990476Y-49752380D01*
X104609523Y-49752380D01*
X104942857Y-48752380D02*
X105609523Y-48752380D01*
X105180952Y-49752380D01*
X115557142Y-37752380D02*
X115223809Y-37276190D01*
X114985714Y-37752380D02*
X114985714Y-36752380D01*
X115366666Y-36752380D01*
X115461904Y-36800000D01*
X115509523Y-36847619D01*
X115557142Y-36942857D01*
X115557142Y-37085714D01*
X115509523Y-37180952D01*
X115461904Y-37228571D01*
X115366666Y-37276190D01*
X114985714Y-37276190D01*
X115938095Y-36847619D02*
X115985714Y-36800000D01*
X116080952Y-36752380D01*
X116319047Y-36752380D01*
X116414285Y-36800000D01*
X116461904Y-36847619D01*
X116509523Y-36942857D01*
X116509523Y-37038095D01*
X116461904Y-37180952D01*
X115890476Y-37752380D01*
X116509523Y-37752380D01*
X117128571Y-36752380D02*
X117223809Y-36752380D01*
X117319047Y-36800000D01*
X117366666Y-36847619D01*
X117414285Y-36942857D01*
X117461904Y-37133333D01*
X117461904Y-37371428D01*
X117414285Y-37561904D01*
X117366666Y-37657142D01*
X117319047Y-37704761D01*
X117223809Y-37752380D01*
X117128571Y-37752380D01*
X117033333Y-37704761D01*
X116985714Y-37657142D01*
X116938095Y-37561904D01*
X116890476Y-37371428D01*
X116890476Y-37133333D01*
X116938095Y-36942857D01*
X116985714Y-36847619D01*
X117033333Y-36800000D01*
X117128571Y-36752380D01*
X64504761Y-79047619D02*
X64409523Y-79000000D01*
X64314285Y-78904761D01*
X64171428Y-78761904D01*
X64076190Y-78714285D01*
X63980952Y-78714285D01*
X64028571Y-78952380D02*
X63933333Y-78904761D01*
X63838095Y-78809523D01*
X63790476Y-78619047D01*
X63790476Y-78285714D01*
X63838095Y-78095238D01*
X63933333Y-78000000D01*
X64028571Y-77952380D01*
X64219047Y-77952380D01*
X64314285Y-78000000D01*
X64409523Y-78095238D01*
X64457142Y-78285714D01*
X64457142Y-78619047D01*
X64409523Y-78809523D01*
X64314285Y-78904761D01*
X64219047Y-78952380D01*
X64028571Y-78952380D01*
X65314285Y-78285714D02*
X65314285Y-78952380D01*
X65076190Y-77904761D02*
X64838095Y-78619047D01*
X65457142Y-78619047D01*
X51404761Y-79047619D02*
X51309523Y-79000000D01*
X51214285Y-78904761D01*
X51071428Y-78761904D01*
X50976190Y-78714285D01*
X50880952Y-78714285D01*
X50928571Y-78952380D02*
X50833333Y-78904761D01*
X50738095Y-78809523D01*
X50690476Y-78619047D01*
X50690476Y-78285714D01*
X50738095Y-78095238D01*
X50833333Y-78000000D01*
X50928571Y-77952380D01*
X51119047Y-77952380D01*
X51214285Y-78000000D01*
X51309523Y-78095238D01*
X51357142Y-78285714D01*
X51357142Y-78619047D01*
X51309523Y-78809523D01*
X51214285Y-78904761D01*
X51119047Y-78952380D01*
X50928571Y-78952380D01*
X51690476Y-77952380D02*
X52309523Y-77952380D01*
X51976190Y-78333333D01*
X52119047Y-78333333D01*
X52214285Y-78380952D01*
X52261904Y-78428571D01*
X52309523Y-78523809D01*
X52309523Y-78761904D01*
X52261904Y-78857142D01*
X52214285Y-78904761D01*
X52119047Y-78952380D01*
X51833333Y-78952380D01*
X51738095Y-78904761D01*
X51690476Y-78857142D01*
X66666666Y-83252380D02*
X66666666Y-83966666D01*
X66619047Y-84109523D01*
X66523809Y-84204761D01*
X66380952Y-84252380D01*
X66285714Y-84252380D01*
X67047619Y-83252380D02*
X67714285Y-83252380D01*
X67285714Y-84252380D01*
X101561904Y-69352380D02*
X101561904Y-68352380D01*
X101800000Y-68352380D01*
X101942857Y-68400000D01*
X102038095Y-68495238D01*
X102085714Y-68590476D01*
X102133333Y-68780952D01*
X102133333Y-68923809D01*
X102085714Y-69114285D01*
X102038095Y-69209523D01*
X101942857Y-69304761D01*
X101800000Y-69352380D01*
X101561904Y-69352380D01*
X102990476Y-68685714D02*
X102990476Y-69352380D01*
X102752380Y-68304761D02*
X102514285Y-69019047D01*
X103133333Y-69019047D01*
X110641866Y-44858171D02*
X110308533Y-44858171D01*
X110308533Y-45381980D02*
X110308533Y-44381980D01*
X110784723Y-44381980D01*
X111689485Y-45381980D02*
X111118057Y-45381980D01*
X111403771Y-45381980D02*
X111403771Y-44381980D01*
X111308533Y-44524838D01*
X111213295Y-44620076D01*
X111118057Y-44667695D01*
X85166666Y-79752380D02*
X85166666Y-80466666D01*
X85119047Y-80609523D01*
X85023809Y-80704761D01*
X84880952Y-80752380D01*
X84785714Y-80752380D01*
X85547619Y-79752380D02*
X86166666Y-79752380D01*
X85833333Y-80133333D01*
X85976190Y-80133333D01*
X86071428Y-80180952D01*
X86119047Y-80228571D01*
X86166666Y-80323809D01*
X86166666Y-80561904D01*
X86119047Y-80657142D01*
X86071428Y-80704761D01*
X85976190Y-80752380D01*
X85690476Y-80752380D01*
X85595238Y-80704761D01*
X85547619Y-80657142D01*
X81757142Y-60066666D02*
X81804761Y-60114285D01*
X81852380Y-60257142D01*
X81852380Y-60352380D01*
X81804761Y-60495238D01*
X81709523Y-60590476D01*
X81614285Y-60638095D01*
X81423809Y-60685714D01*
X81280952Y-60685714D01*
X81090476Y-60638095D01*
X80995238Y-60590476D01*
X80900000Y-60495238D01*
X80852380Y-60352380D01*
X80852380Y-60257142D01*
X80900000Y-60114285D01*
X80947619Y-60066666D01*
X80852380Y-59209523D02*
X80852380Y-59400000D01*
X80900000Y-59495238D01*
X80947619Y-59542857D01*
X81090476Y-59638095D01*
X81280952Y-59685714D01*
X81661904Y-59685714D01*
X81757142Y-59638095D01*
X81804761Y-59590476D01*
X81852380Y-59495238D01*
X81852380Y-59304761D01*
X81804761Y-59209523D01*
X81757142Y-59161904D01*
X81661904Y-59114285D01*
X81423809Y-59114285D01*
X81328571Y-59161904D01*
X81280952Y-59209523D01*
X81233333Y-59304761D01*
X81233333Y-59495238D01*
X81280952Y-59590476D01*
X81328571Y-59638095D01*
X81423809Y-59685714D01*
X104133333Y-53402380D02*
X103657142Y-53402380D01*
X103657142Y-52402380D01*
X104990476Y-53402380D02*
X104419047Y-53402380D01*
X104704761Y-53402380D02*
X104704761Y-52402380D01*
X104609523Y-52545238D01*
X104514285Y-52640476D01*
X104419047Y-52688095D01*
X57433333Y-74852380D02*
X56957142Y-74852380D01*
X56957142Y-73852380D01*
X57719047Y-73947619D02*
X57766666Y-73900000D01*
X57861904Y-73852380D01*
X58100000Y-73852380D01*
X58195238Y-73900000D01*
X58242857Y-73947619D01*
X58290476Y-74042857D01*
X58290476Y-74138095D01*
X58242857Y-74280952D01*
X57671428Y-74852380D01*
X58290476Y-74852380D01*
X104638095Y-33752380D02*
X104638095Y-34561904D01*
X104685714Y-34657142D01*
X104733333Y-34704761D01*
X104828571Y-34752380D01*
X105019047Y-34752380D01*
X105114285Y-34704761D01*
X105161904Y-34657142D01*
X105209523Y-34561904D01*
X105209523Y-33752380D01*
X105733333Y-34752380D02*
X105923809Y-34752380D01*
X106019047Y-34704761D01*
X106066666Y-34657142D01*
X106161904Y-34514285D01*
X106209523Y-34323809D01*
X106209523Y-33942857D01*
X106161904Y-33847619D01*
X106114285Y-33800000D01*
X106019047Y-33752380D01*
X105828571Y-33752380D01*
X105733333Y-33800000D01*
X105685714Y-33847619D01*
X105638095Y-33942857D01*
X105638095Y-34180952D01*
X105685714Y-34276190D01*
X105733333Y-34323809D01*
X105828571Y-34371428D01*
X106019047Y-34371428D01*
X106114285Y-34323809D01*
X106161904Y-34276190D01*
X106209523Y-34180952D01*
X91038095Y-38052380D02*
X91038095Y-38861904D01*
X91085714Y-38957142D01*
X91133333Y-39004761D01*
X91228571Y-39052380D01*
X91419047Y-39052380D01*
X91514285Y-39004761D01*
X91561904Y-38957142D01*
X91609523Y-38861904D01*
X91609523Y-38052380D01*
X92228571Y-38480952D02*
X92133333Y-38433333D01*
X92085714Y-38385714D01*
X92038095Y-38290476D01*
X92038095Y-38242857D01*
X92085714Y-38147619D01*
X92133333Y-38100000D01*
X92228571Y-38052380D01*
X92419047Y-38052380D01*
X92514285Y-38100000D01*
X92561904Y-38147619D01*
X92609523Y-38242857D01*
X92609523Y-38290476D01*
X92561904Y-38385714D01*
X92514285Y-38433333D01*
X92419047Y-38480952D01*
X92228571Y-38480952D01*
X92133333Y-38528571D01*
X92085714Y-38576190D01*
X92038095Y-38671428D01*
X92038095Y-38861904D01*
X92085714Y-38957142D01*
X92133333Y-39004761D01*
X92228571Y-39052380D01*
X92419047Y-39052380D01*
X92514285Y-39004761D01*
X92561904Y-38957142D01*
X92609523Y-38861904D01*
X92609523Y-38671428D01*
X92561904Y-38576190D01*
X92514285Y-38528571D01*
X92419047Y-38480952D01*
X104523695Y-44991580D02*
X104523695Y-45801104D01*
X104571314Y-45896342D01*
X104618933Y-45943961D01*
X104714171Y-45991580D01*
X104904647Y-45991580D01*
X104999885Y-45943961D01*
X105047504Y-45896342D01*
X105095123Y-45801104D01*
X105095123Y-44991580D01*
X105476076Y-44991580D02*
X106142742Y-44991580D01*
X105714171Y-45991580D01*
X155738095Y-48552380D02*
X155738095Y-49361904D01*
X155785714Y-49457142D01*
X155833333Y-49504761D01*
X155928571Y-49552380D01*
X156119047Y-49552380D01*
X156214285Y-49504761D01*
X156261904Y-49457142D01*
X156309523Y-49361904D01*
X156309523Y-48552380D01*
X157214285Y-48885714D02*
X157214285Y-49552380D01*
X156976190Y-48504761D02*
X156738095Y-49219047D01*
X157357142Y-49219047D01*
X73538095Y-65252380D02*
X73538095Y-66061904D01*
X73585714Y-66157142D01*
X73633333Y-66204761D01*
X73728571Y-66252380D01*
X73919047Y-66252380D01*
X74014285Y-66204761D01*
X74061904Y-66157142D01*
X74109523Y-66061904D01*
X74109523Y-65252380D01*
X74538095Y-65347619D02*
X74585714Y-65300000D01*
X74680952Y-65252380D01*
X74919047Y-65252380D01*
X75014285Y-65300000D01*
X75061904Y-65347619D01*
X75109523Y-65442857D01*
X75109523Y-65538095D01*
X75061904Y-65680952D01*
X74490476Y-66252380D01*
X75109523Y-66252380D01*
X67488095Y-49152380D02*
X67488095Y-49961904D01*
X67535714Y-50057142D01*
X67583333Y-50104761D01*
X67678571Y-50152380D01*
X67869047Y-50152380D01*
X67964285Y-50104761D01*
X68011904Y-50057142D01*
X68059523Y-49961904D01*
X68059523Y-49152380D01*
X69059523Y-50152380D02*
X68488095Y-50152380D01*
X68773809Y-50152380D02*
X68773809Y-49152380D01*
X68678571Y-49295238D01*
X68583333Y-49390476D01*
X68488095Y-49438095D01*
X54552380Y-61447619D02*
X54076190Y-61780952D01*
X54552380Y-62019047D02*
X53552380Y-62019047D01*
X53552380Y-61638095D01*
X53600000Y-61542857D01*
X53647619Y-61495238D01*
X53742857Y-61447619D01*
X53885714Y-61447619D01*
X53980952Y-61495238D01*
X54028571Y-61542857D01*
X54076190Y-61638095D01*
X54076190Y-62019047D01*
X53552380Y-61161904D02*
X53552380Y-60590476D01*
X54552380Y-60876190D02*
X53552380Y-60876190D01*
X54552380Y-59733333D02*
X54552380Y-60304761D01*
X54552380Y-60019047D02*
X53552380Y-60019047D01*
X53695238Y-60114285D01*
X53790476Y-60209523D01*
X53838095Y-60304761D01*
X90457142Y-40452380D02*
X90123809Y-39976190D01*
X89885714Y-40452380D02*
X89885714Y-39452380D01*
X90266666Y-39452380D01*
X90361904Y-39500000D01*
X90409523Y-39547619D01*
X90457142Y-39642857D01*
X90457142Y-39785714D01*
X90409523Y-39880952D01*
X90361904Y-39928571D01*
X90266666Y-39976190D01*
X89885714Y-39976190D01*
X90790476Y-39452380D02*
X91409523Y-39452380D01*
X91076190Y-39833333D01*
X91219047Y-39833333D01*
X91314285Y-39880952D01*
X91361904Y-39928571D01*
X91409523Y-40023809D01*
X91409523Y-40261904D01*
X91361904Y-40357142D01*
X91314285Y-40404761D01*
X91219047Y-40452380D01*
X90933333Y-40452380D01*
X90838095Y-40404761D01*
X90790476Y-40357142D01*
X91885714Y-40452380D02*
X92076190Y-40452380D01*
X92171428Y-40404761D01*
X92219047Y-40357142D01*
X92314285Y-40214285D01*
X92361904Y-40023809D01*
X92361904Y-39642857D01*
X92314285Y-39547619D01*
X92266666Y-39500000D01*
X92171428Y-39452380D01*
X91980952Y-39452380D01*
X91885714Y-39500000D01*
X91838095Y-39547619D01*
X91790476Y-39642857D01*
X91790476Y-39880952D01*
X91838095Y-39976190D01*
X91885714Y-40023809D01*
X91980952Y-40071428D01*
X92171428Y-40071428D01*
X92266666Y-40023809D01*
X92314285Y-39976190D01*
X92361904Y-39880952D01*
X94157142Y-49652380D02*
X93823809Y-49176190D01*
X93585714Y-49652380D02*
X93585714Y-48652380D01*
X93966666Y-48652380D01*
X94061904Y-48700000D01*
X94109523Y-48747619D01*
X94157142Y-48842857D01*
X94157142Y-48985714D01*
X94109523Y-49080952D01*
X94061904Y-49128571D01*
X93966666Y-49176190D01*
X93585714Y-49176190D01*
X94490476Y-48652380D02*
X95109523Y-48652380D01*
X94776190Y-49033333D01*
X94919047Y-49033333D01*
X95014285Y-49080952D01*
X95061904Y-49128571D01*
X95109523Y-49223809D01*
X95109523Y-49461904D01*
X95061904Y-49557142D01*
X95014285Y-49604761D01*
X94919047Y-49652380D01*
X94633333Y-49652380D01*
X94538095Y-49604761D01*
X94490476Y-49557142D01*
X95680952Y-49080952D02*
X95585714Y-49033333D01*
X95538095Y-48985714D01*
X95490476Y-48890476D01*
X95490476Y-48842857D01*
X95538095Y-48747619D01*
X95585714Y-48700000D01*
X95680952Y-48652380D01*
X95871428Y-48652380D01*
X95966666Y-48700000D01*
X96014285Y-48747619D01*
X96061904Y-48842857D01*
X96061904Y-48890476D01*
X96014285Y-48985714D01*
X95966666Y-49033333D01*
X95871428Y-49080952D01*
X95680952Y-49080952D01*
X95585714Y-49128571D01*
X95538095Y-49176190D01*
X95490476Y-49271428D01*
X95490476Y-49461904D01*
X95538095Y-49557142D01*
X95585714Y-49604761D01*
X95680952Y-49652380D01*
X95871428Y-49652380D01*
X95966666Y-49604761D01*
X96014285Y-49557142D01*
X96061904Y-49461904D01*
X96061904Y-49271428D01*
X96014285Y-49176190D01*
X95966666Y-49128571D01*
X95871428Y-49080952D01*
X91857142Y-45252380D02*
X91523809Y-44776190D01*
X91285714Y-45252380D02*
X91285714Y-44252380D01*
X91666666Y-44252380D01*
X91761904Y-44300000D01*
X91809523Y-44347619D01*
X91857142Y-44442857D01*
X91857142Y-44585714D01*
X91809523Y-44680952D01*
X91761904Y-44728571D01*
X91666666Y-44776190D01*
X91285714Y-44776190D01*
X92190476Y-44252380D02*
X92809523Y-44252380D01*
X92476190Y-44633333D01*
X92619047Y-44633333D01*
X92714285Y-44680952D01*
X92761904Y-44728571D01*
X92809523Y-44823809D01*
X92809523Y-45061904D01*
X92761904Y-45157142D01*
X92714285Y-45204761D01*
X92619047Y-45252380D01*
X92333333Y-45252380D01*
X92238095Y-45204761D01*
X92190476Y-45157142D01*
X93142857Y-44252380D02*
X93809523Y-44252380D01*
X93380952Y-45252380D01*
X92502380Y-42842857D02*
X92026190Y-43176190D01*
X92502380Y-43414285D02*
X91502380Y-43414285D01*
X91502380Y-43033333D01*
X91550000Y-42938095D01*
X91597619Y-42890476D01*
X91692857Y-42842857D01*
X91835714Y-42842857D01*
X91930952Y-42890476D01*
X91978571Y-42938095D01*
X92026190Y-43033333D01*
X92026190Y-43414285D01*
X91502380Y-42509523D02*
X91502380Y-41890476D01*
X91883333Y-42223809D01*
X91883333Y-42080952D01*
X91930952Y-41985714D01*
X91978571Y-41938095D01*
X92073809Y-41890476D01*
X92311904Y-41890476D01*
X92407142Y-41938095D01*
X92454761Y-41985714D01*
X92502380Y-42080952D01*
X92502380Y-42366666D01*
X92454761Y-42461904D01*
X92407142Y-42509523D01*
X91502380Y-41033333D02*
X91502380Y-41223809D01*
X91550000Y-41319047D01*
X91597619Y-41366666D01*
X91740476Y-41461904D01*
X91930952Y-41509523D01*
X92311904Y-41509523D01*
X92407142Y-41461904D01*
X92454761Y-41414285D01*
X92502380Y-41319047D01*
X92502380Y-41128571D01*
X92454761Y-41033333D01*
X92407142Y-40985714D01*
X92311904Y-40938095D01*
X92073809Y-40938095D01*
X91978571Y-40985714D01*
X91930952Y-41033333D01*
X91883333Y-41128571D01*
X91883333Y-41319047D01*
X91930952Y-41414285D01*
X91978571Y-41461904D01*
X92073809Y-41509523D01*
X104952380Y-78642857D02*
X104476190Y-78976190D01*
X104952380Y-79214285D02*
X103952380Y-79214285D01*
X103952380Y-78833333D01*
X104000000Y-78738095D01*
X104047619Y-78690476D01*
X104142857Y-78642857D01*
X104285714Y-78642857D01*
X104380952Y-78690476D01*
X104428571Y-78738095D01*
X104476190Y-78833333D01*
X104476190Y-79214285D01*
X103952380Y-78309523D02*
X103952380Y-77690476D01*
X104333333Y-78023809D01*
X104333333Y-77880952D01*
X104380952Y-77785714D01*
X104428571Y-77738095D01*
X104523809Y-77690476D01*
X104761904Y-77690476D01*
X104857142Y-77738095D01*
X104904761Y-77785714D01*
X104952380Y-77880952D01*
X104952380Y-78166666D01*
X104904761Y-78261904D01*
X104857142Y-78309523D01*
X104952380Y-76738095D02*
X104952380Y-77309523D01*
X104952380Y-77023809D02*
X103952380Y-77023809D01*
X104095238Y-77119047D01*
X104190476Y-77214285D01*
X104238095Y-77309523D01*
X94457142Y-85852380D02*
X94123809Y-85376190D01*
X93885714Y-85852380D02*
X93885714Y-84852380D01*
X94266666Y-84852380D01*
X94361904Y-84900000D01*
X94409523Y-84947619D01*
X94457142Y-85042857D01*
X94457142Y-85185714D01*
X94409523Y-85280952D01*
X94361904Y-85328571D01*
X94266666Y-85376190D01*
X93885714Y-85376190D01*
X94838095Y-84947619D02*
X94885714Y-84900000D01*
X94980952Y-84852380D01*
X95219047Y-84852380D01*
X95314285Y-84900000D01*
X95361904Y-84947619D01*
X95409523Y-85042857D01*
X95409523Y-85138095D01*
X95361904Y-85280952D01*
X94790476Y-85852380D01*
X95409523Y-85852380D01*
X96266666Y-84852380D02*
X96076190Y-84852380D01*
X95980952Y-84900000D01*
X95933333Y-84947619D01*
X95838095Y-85090476D01*
X95790476Y-85280952D01*
X95790476Y-85661904D01*
X95838095Y-85757142D01*
X95885714Y-85804761D01*
X95980952Y-85852380D01*
X96171428Y-85852380D01*
X96266666Y-85804761D01*
X96314285Y-85757142D01*
X96361904Y-85661904D01*
X96361904Y-85423809D01*
X96314285Y-85328571D01*
X96266666Y-85280952D01*
X96171428Y-85233333D01*
X95980952Y-85233333D01*
X95885714Y-85280952D01*
X95838095Y-85328571D01*
X95790476Y-85423809D01*
X87657142Y-85352380D02*
X87323809Y-84876190D01*
X87085714Y-85352380D02*
X87085714Y-84352380D01*
X87466666Y-84352380D01*
X87561904Y-84400000D01*
X87609523Y-84447619D01*
X87657142Y-84542857D01*
X87657142Y-84685714D01*
X87609523Y-84780952D01*
X87561904Y-84828571D01*
X87466666Y-84876190D01*
X87085714Y-84876190D01*
X88038095Y-84447619D02*
X88085714Y-84400000D01*
X88180952Y-84352380D01*
X88419047Y-84352380D01*
X88514285Y-84400000D01*
X88561904Y-84447619D01*
X88609523Y-84542857D01*
X88609523Y-84638095D01*
X88561904Y-84780952D01*
X87990476Y-85352380D01*
X88609523Y-85352380D01*
X89514285Y-84352380D02*
X89038095Y-84352380D01*
X88990476Y-84828571D01*
X89038095Y-84780952D01*
X89133333Y-84733333D01*
X89371428Y-84733333D01*
X89466666Y-84780952D01*
X89514285Y-84828571D01*
X89561904Y-84923809D01*
X89561904Y-85161904D01*
X89514285Y-85257142D01*
X89466666Y-85304761D01*
X89371428Y-85352380D01*
X89133333Y-85352380D01*
X89038095Y-85304761D01*
X88990476Y-85257142D01*
X90557142Y-82522380D02*
X90223809Y-82046190D01*
X89985714Y-82522380D02*
X89985714Y-81522380D01*
X90366666Y-81522380D01*
X90461904Y-81570000D01*
X90509523Y-81617619D01*
X90557142Y-81712857D01*
X90557142Y-81855714D01*
X90509523Y-81950952D01*
X90461904Y-81998571D01*
X90366666Y-82046190D01*
X89985714Y-82046190D01*
X90938095Y-81617619D02*
X90985714Y-81570000D01*
X91080952Y-81522380D01*
X91319047Y-81522380D01*
X91414285Y-81570000D01*
X91461904Y-81617619D01*
X91509523Y-81712857D01*
X91509523Y-81808095D01*
X91461904Y-81950952D01*
X90890476Y-82522380D01*
X91509523Y-82522380D01*
X92366666Y-81855714D02*
X92366666Y-82522380D01*
X92128571Y-81474761D02*
X91890476Y-82189047D01*
X92509523Y-82189047D01*
X96357142Y-82752380D02*
X96023809Y-82276190D01*
X95785714Y-82752380D02*
X95785714Y-81752380D01*
X96166666Y-81752380D01*
X96261904Y-81800000D01*
X96309523Y-81847619D01*
X96357142Y-81942857D01*
X96357142Y-82085714D01*
X96309523Y-82180952D01*
X96261904Y-82228571D01*
X96166666Y-82276190D01*
X95785714Y-82276190D01*
X96738095Y-81847619D02*
X96785714Y-81800000D01*
X96880952Y-81752380D01*
X97119047Y-81752380D01*
X97214285Y-81800000D01*
X97261904Y-81847619D01*
X97309523Y-81942857D01*
X97309523Y-82038095D01*
X97261904Y-82180952D01*
X96690476Y-82752380D01*
X97309523Y-82752380D01*
X97642857Y-81752380D02*
X98261904Y-81752380D01*
X97928571Y-82133333D01*
X98071428Y-82133333D01*
X98166666Y-82180952D01*
X98214285Y-82228571D01*
X98261904Y-82323809D01*
X98261904Y-82561904D01*
X98214285Y-82657142D01*
X98166666Y-82704761D01*
X98071428Y-82752380D01*
X97785714Y-82752380D01*
X97690476Y-82704761D01*
X97642857Y-82657142D01*
X53457142Y-50852380D02*
X53123809Y-50376190D01*
X52885714Y-50852380D02*
X52885714Y-49852380D01*
X53266666Y-49852380D01*
X53361904Y-49900000D01*
X53409523Y-49947619D01*
X53457142Y-50042857D01*
X53457142Y-50185714D01*
X53409523Y-50280952D01*
X53361904Y-50328571D01*
X53266666Y-50376190D01*
X52885714Y-50376190D01*
X54409523Y-50852380D02*
X53838095Y-50852380D01*
X54123809Y-50852380D02*
X54123809Y-49852380D01*
X54028571Y-49995238D01*
X53933333Y-50090476D01*
X53838095Y-50138095D01*
X54885714Y-50852380D02*
X55076190Y-50852380D01*
X55171428Y-50804761D01*
X55219047Y-50757142D01*
X55314285Y-50614285D01*
X55361904Y-50423809D01*
X55361904Y-50042857D01*
X55314285Y-49947619D01*
X55266666Y-49900000D01*
X55171428Y-49852380D01*
X54980952Y-49852380D01*
X54885714Y-49900000D01*
X54838095Y-49947619D01*
X54790476Y-50042857D01*
X54790476Y-50280952D01*
X54838095Y-50376190D01*
X54885714Y-50423809D01*
X54980952Y-50471428D01*
X55171428Y-50471428D01*
X55266666Y-50423809D01*
X55314285Y-50376190D01*
X55361904Y-50280952D01*
X55522380Y-57492857D02*
X55046190Y-57826190D01*
X55522380Y-58064285D02*
X54522380Y-58064285D01*
X54522380Y-57683333D01*
X54570000Y-57588095D01*
X54617619Y-57540476D01*
X54712857Y-57492857D01*
X54855714Y-57492857D01*
X54950952Y-57540476D01*
X54998571Y-57588095D01*
X55046190Y-57683333D01*
X55046190Y-58064285D01*
X55522380Y-56540476D02*
X55522380Y-57111904D01*
X55522380Y-56826190D02*
X54522380Y-56826190D01*
X54665238Y-56921428D01*
X54760476Y-57016666D01*
X54808095Y-57111904D01*
X54950952Y-55969047D02*
X54903333Y-56064285D01*
X54855714Y-56111904D01*
X54760476Y-56159523D01*
X54712857Y-56159523D01*
X54617619Y-56111904D01*
X54570000Y-56064285D01*
X54522380Y-55969047D01*
X54522380Y-55778571D01*
X54570000Y-55683333D01*
X54617619Y-55635714D01*
X54712857Y-55588095D01*
X54760476Y-55588095D01*
X54855714Y-55635714D01*
X54903333Y-55683333D01*
X54950952Y-55778571D01*
X54950952Y-55969047D01*
X54998571Y-56064285D01*
X55046190Y-56111904D01*
X55141428Y-56159523D01*
X55331904Y-56159523D01*
X55427142Y-56111904D01*
X55474761Y-56064285D01*
X55522380Y-55969047D01*
X55522380Y-55778571D01*
X55474761Y-55683333D01*
X55427142Y-55635714D01*
X55331904Y-55588095D01*
X55141428Y-55588095D01*
X55046190Y-55635714D01*
X54998571Y-55683333D01*
X54950952Y-55778571D01*
X58052380Y-63842857D02*
X57576190Y-64176190D01*
X58052380Y-64414285D02*
X57052380Y-64414285D01*
X57052380Y-64033333D01*
X57100000Y-63938095D01*
X57147619Y-63890476D01*
X57242857Y-63842857D01*
X57385714Y-63842857D01*
X57480952Y-63890476D01*
X57528571Y-63938095D01*
X57576190Y-64033333D01*
X57576190Y-64414285D01*
X58052380Y-62890476D02*
X58052380Y-63461904D01*
X58052380Y-63176190D02*
X57052380Y-63176190D01*
X57195238Y-63271428D01*
X57290476Y-63366666D01*
X57338095Y-63461904D01*
X57052380Y-62557142D02*
X57052380Y-61890476D01*
X58052380Y-62319047D01*
X53652380Y-54042857D02*
X53176190Y-54376190D01*
X53652380Y-54614285D02*
X52652380Y-54614285D01*
X52652380Y-54233333D01*
X52700000Y-54138095D01*
X52747619Y-54090476D01*
X52842857Y-54042857D01*
X52985714Y-54042857D01*
X53080952Y-54090476D01*
X53128571Y-54138095D01*
X53176190Y-54233333D01*
X53176190Y-54614285D01*
X53652380Y-53090476D02*
X53652380Y-53661904D01*
X53652380Y-53376190D02*
X52652380Y-53376190D01*
X52795238Y-53471428D01*
X52890476Y-53566666D01*
X52938095Y-53661904D01*
X52652380Y-52233333D02*
X52652380Y-52423809D01*
X52700000Y-52519047D01*
X52747619Y-52566666D01*
X52890476Y-52661904D01*
X53080952Y-52709523D01*
X53461904Y-52709523D01*
X53557142Y-52661904D01*
X53604761Y-52614285D01*
X53652380Y-52519047D01*
X53652380Y-52328571D01*
X53604761Y-52233333D01*
X53557142Y-52185714D01*
X53461904Y-52138095D01*
X53223809Y-52138095D01*
X53128571Y-52185714D01*
X53080952Y-52233333D01*
X53033333Y-52328571D01*
X53033333Y-52519047D01*
X53080952Y-52614285D01*
X53128571Y-52661904D01*
X53223809Y-52709523D01*
X95257142Y-68252380D02*
X94923809Y-67776190D01*
X94685714Y-68252380D02*
X94685714Y-67252380D01*
X95066666Y-67252380D01*
X95161904Y-67300000D01*
X95209523Y-67347619D01*
X95257142Y-67442857D01*
X95257142Y-67585714D01*
X95209523Y-67680952D01*
X95161904Y-67728571D01*
X95066666Y-67776190D01*
X94685714Y-67776190D01*
X96209523Y-68252380D02*
X95638095Y-68252380D01*
X95923809Y-68252380D02*
X95923809Y-67252380D01*
X95828571Y-67395238D01*
X95733333Y-67490476D01*
X95638095Y-67538095D01*
X97114285Y-67252380D02*
X96638095Y-67252380D01*
X96590476Y-67728571D01*
X96638095Y-67680952D01*
X96733333Y-67633333D01*
X96971428Y-67633333D01*
X97066666Y-67680952D01*
X97114285Y-67728571D01*
X97161904Y-67823809D01*
X97161904Y-68061904D01*
X97114285Y-68157142D01*
X97066666Y-68204761D01*
X96971428Y-68252380D01*
X96733333Y-68252380D01*
X96638095Y-68204761D01*
X96590476Y-68157142D01*
X69657142Y-63552380D02*
X69323809Y-63076190D01*
X69085714Y-63552380D02*
X69085714Y-62552380D01*
X69466666Y-62552380D01*
X69561904Y-62600000D01*
X69609523Y-62647619D01*
X69657142Y-62742857D01*
X69657142Y-62885714D01*
X69609523Y-62980952D01*
X69561904Y-63028571D01*
X69466666Y-63076190D01*
X69085714Y-63076190D01*
X70609523Y-63552380D02*
X70038095Y-63552380D01*
X70323809Y-63552380D02*
X70323809Y-62552380D01*
X70228571Y-62695238D01*
X70133333Y-62790476D01*
X70038095Y-62838095D01*
X71466666Y-62885714D02*
X71466666Y-63552380D01*
X71228571Y-62504761D02*
X70990476Y-63219047D01*
X71609523Y-63219047D01*
X81152380Y-71042857D02*
X80676190Y-71376190D01*
X81152380Y-71614285D02*
X80152380Y-71614285D01*
X80152380Y-71233333D01*
X80200000Y-71138095D01*
X80247619Y-71090476D01*
X80342857Y-71042857D01*
X80485714Y-71042857D01*
X80580952Y-71090476D01*
X80628571Y-71138095D01*
X80676190Y-71233333D01*
X80676190Y-71614285D01*
X81152380Y-70090476D02*
X81152380Y-70661904D01*
X81152380Y-70376190D02*
X80152380Y-70376190D01*
X80295238Y-70471428D01*
X80390476Y-70566666D01*
X80438095Y-70661904D01*
X80152380Y-69757142D02*
X80152380Y-69138095D01*
X80533333Y-69471428D01*
X80533333Y-69328571D01*
X80580952Y-69233333D01*
X80628571Y-69185714D01*
X80723809Y-69138095D01*
X80961904Y-69138095D01*
X81057142Y-69185714D01*
X81104761Y-69233333D01*
X81152380Y-69328571D01*
X81152380Y-69614285D01*
X81104761Y-69709523D01*
X81057142Y-69757142D01*
X81052380Y-67442857D02*
X80576190Y-67776190D01*
X81052380Y-68014285D02*
X80052380Y-68014285D01*
X80052380Y-67633333D01*
X80100000Y-67538095D01*
X80147619Y-67490476D01*
X80242857Y-67442857D01*
X80385714Y-67442857D01*
X80480952Y-67490476D01*
X80528571Y-67538095D01*
X80576190Y-67633333D01*
X80576190Y-68014285D01*
X81052380Y-66490476D02*
X81052380Y-67061904D01*
X81052380Y-66776190D02*
X80052380Y-66776190D01*
X80195238Y-66871428D01*
X80290476Y-66966666D01*
X80338095Y-67061904D01*
X80147619Y-66109523D02*
X80100000Y-66061904D01*
X80052380Y-65966666D01*
X80052380Y-65728571D01*
X80100000Y-65633333D01*
X80147619Y-65585714D01*
X80242857Y-65538095D01*
X80338095Y-65538095D01*
X80480952Y-65585714D01*
X81052380Y-66157142D01*
X81052380Y-65538095D01*
X79952380Y-51642857D02*
X79476190Y-51976190D01*
X79952380Y-52214285D02*
X78952380Y-52214285D01*
X78952380Y-51833333D01*
X79000000Y-51738095D01*
X79047619Y-51690476D01*
X79142857Y-51642857D01*
X79285714Y-51642857D01*
X79380952Y-51690476D01*
X79428571Y-51738095D01*
X79476190Y-51833333D01*
X79476190Y-52214285D01*
X79952380Y-50690476D02*
X79952380Y-51261904D01*
X79952380Y-50976190D02*
X78952380Y-50976190D01*
X79095238Y-51071428D01*
X79190476Y-51166666D01*
X79238095Y-51261904D01*
X79952380Y-49738095D02*
X79952380Y-50309523D01*
X79952380Y-50023809D02*
X78952380Y-50023809D01*
X79095238Y-50119047D01*
X79190476Y-50214285D01*
X79238095Y-50309523D01*
X89352380Y-48942857D02*
X88876190Y-49276190D01*
X89352380Y-49514285D02*
X88352380Y-49514285D01*
X88352380Y-49133333D01*
X88400000Y-49038095D01*
X88447619Y-48990476D01*
X88542857Y-48942857D01*
X88685714Y-48942857D01*
X88780952Y-48990476D01*
X88828571Y-49038095D01*
X88876190Y-49133333D01*
X88876190Y-49514285D01*
X89352380Y-47990476D02*
X89352380Y-48561904D01*
X89352380Y-48276190D02*
X88352380Y-48276190D01*
X88495238Y-48371428D01*
X88590476Y-48466666D01*
X88638095Y-48561904D01*
X88352380Y-47371428D02*
X88352380Y-47276190D01*
X88400000Y-47180952D01*
X88447619Y-47133333D01*
X88542857Y-47085714D01*
X88733333Y-47038095D01*
X88971428Y-47038095D01*
X89161904Y-47085714D01*
X89257142Y-47133333D01*
X89304761Y-47180952D01*
X89352380Y-47276190D01*
X89352380Y-47371428D01*
X89304761Y-47466666D01*
X89257142Y-47514285D01*
X89161904Y-47561904D01*
X88971428Y-47609523D01*
X88733333Y-47609523D01*
X88542857Y-47561904D01*
X88447619Y-47514285D01*
X88400000Y-47466666D01*
X88352380Y-47371428D01*
X76933333Y-75352380D02*
X76600000Y-74876190D01*
X76361904Y-75352380D02*
X76361904Y-74352380D01*
X76742857Y-74352380D01*
X76838095Y-74400000D01*
X76885714Y-74447619D01*
X76933333Y-74542857D01*
X76933333Y-74685714D01*
X76885714Y-74780952D01*
X76838095Y-74828571D01*
X76742857Y-74876190D01*
X76361904Y-74876190D01*
X77504761Y-74780952D02*
X77409523Y-74733333D01*
X77361904Y-74685714D01*
X77314285Y-74590476D01*
X77314285Y-74542857D01*
X77361904Y-74447619D01*
X77409523Y-74400000D01*
X77504761Y-74352380D01*
X77695238Y-74352380D01*
X77790476Y-74400000D01*
X77838095Y-74447619D01*
X77885714Y-74542857D01*
X77885714Y-74590476D01*
X77838095Y-74685714D01*
X77790476Y-74733333D01*
X77695238Y-74780952D01*
X77504761Y-74780952D01*
X77409523Y-74828571D01*
X77361904Y-74876190D01*
X77314285Y-74971428D01*
X77314285Y-75161904D01*
X77361904Y-75257142D01*
X77409523Y-75304761D01*
X77504761Y-75352380D01*
X77695238Y-75352380D01*
X77790476Y-75304761D01*
X77838095Y-75257142D01*
X77885714Y-75161904D01*
X77885714Y-74971428D01*
X77838095Y-74876190D01*
X77790476Y-74828571D01*
X77695238Y-74780952D01*
X77233333Y-52152380D02*
X76900000Y-51676190D01*
X76661904Y-52152380D02*
X76661904Y-51152380D01*
X77042857Y-51152380D01*
X77138095Y-51200000D01*
X77185714Y-51247619D01*
X77233333Y-51342857D01*
X77233333Y-51485714D01*
X77185714Y-51580952D01*
X77138095Y-51628571D01*
X77042857Y-51676190D01*
X76661904Y-51676190D01*
X77566666Y-51152380D02*
X78233333Y-51152380D01*
X77804761Y-52152380D01*
X78633333Y-55252380D02*
X78300000Y-54776190D01*
X78061904Y-55252380D02*
X78061904Y-54252380D01*
X78442857Y-54252380D01*
X78538095Y-54300000D01*
X78585714Y-54347619D01*
X78633333Y-54442857D01*
X78633333Y-54585714D01*
X78585714Y-54680952D01*
X78538095Y-54728571D01*
X78442857Y-54776190D01*
X78061904Y-54776190D01*
X79490476Y-54252380D02*
X79300000Y-54252380D01*
X79204761Y-54300000D01*
X79157142Y-54347619D01*
X79061904Y-54490476D01*
X79014285Y-54680952D01*
X79014285Y-55061904D01*
X79061904Y-55157142D01*
X79109523Y-55204761D01*
X79204761Y-55252380D01*
X79395238Y-55252380D01*
X79490476Y-55204761D01*
X79538095Y-55157142D01*
X79585714Y-55061904D01*
X79585714Y-54823809D01*
X79538095Y-54728571D01*
X79490476Y-54680952D01*
X79395238Y-54633333D01*
X79204761Y-54633333D01*
X79109523Y-54680952D01*
X79061904Y-54728571D01*
X79014285Y-54823809D01*
X64152380Y-61866666D02*
X63676190Y-62200000D01*
X64152380Y-62438095D02*
X63152380Y-62438095D01*
X63152380Y-62057142D01*
X63200000Y-61961904D01*
X63247619Y-61914285D01*
X63342857Y-61866666D01*
X63485714Y-61866666D01*
X63580952Y-61914285D01*
X63628571Y-61961904D01*
X63676190Y-62057142D01*
X63676190Y-62438095D01*
X63152380Y-60961904D02*
X63152380Y-61438095D01*
X63628571Y-61485714D01*
X63580952Y-61438095D01*
X63533333Y-61342857D01*
X63533333Y-61104761D01*
X63580952Y-61009523D01*
X63628571Y-60961904D01*
X63723809Y-60914285D01*
X63961904Y-60914285D01*
X64057142Y-60961904D01*
X64104761Y-61009523D01*
X64152380Y-61104761D01*
X64152380Y-61342857D01*
X64104761Y-61438095D01*
X64057142Y-61485714D01*
X71452380Y-48766666D02*
X70976190Y-49100000D01*
X71452380Y-49338095D02*
X70452380Y-49338095D01*
X70452380Y-48957142D01*
X70500000Y-48861904D01*
X70547619Y-48814285D01*
X70642857Y-48766666D01*
X70785714Y-48766666D01*
X70880952Y-48814285D01*
X70928571Y-48861904D01*
X70976190Y-48957142D01*
X70976190Y-49338095D01*
X70785714Y-47909523D02*
X71452380Y-47909523D01*
X70404761Y-48147619D02*
X71119047Y-48385714D01*
X71119047Y-47766666D01*
X62833333Y-55352380D02*
X62500000Y-54876190D01*
X62261904Y-55352380D02*
X62261904Y-54352380D01*
X62642857Y-54352380D01*
X62738095Y-54400000D01*
X62785714Y-54447619D01*
X62833333Y-54542857D01*
X62833333Y-54685714D01*
X62785714Y-54780952D01*
X62738095Y-54828571D01*
X62642857Y-54876190D01*
X62261904Y-54876190D01*
X63166666Y-54352380D02*
X63785714Y-54352380D01*
X63452380Y-54733333D01*
X63595238Y-54733333D01*
X63690476Y-54780952D01*
X63738095Y-54828571D01*
X63785714Y-54923809D01*
X63785714Y-55161904D01*
X63738095Y-55257142D01*
X63690476Y-55304761D01*
X63595238Y-55352380D01*
X63309523Y-55352380D01*
X63214285Y-55304761D01*
X63166666Y-55257142D01*
X61233333Y-53852380D02*
X60900000Y-53376190D01*
X60661904Y-53852380D02*
X60661904Y-52852380D01*
X61042857Y-52852380D01*
X61138095Y-52900000D01*
X61185714Y-52947619D01*
X61233333Y-53042857D01*
X61233333Y-53185714D01*
X61185714Y-53280952D01*
X61138095Y-53328571D01*
X61042857Y-53376190D01*
X60661904Y-53376190D01*
X61614285Y-52947619D02*
X61661904Y-52900000D01*
X61757142Y-52852380D01*
X61995238Y-52852380D01*
X62090476Y-52900000D01*
X62138095Y-52947619D01*
X62185714Y-53042857D01*
X62185714Y-53138095D01*
X62138095Y-53280952D01*
X61566666Y-53852380D01*
X62185714Y-53852380D01*
X58833333Y-50872380D02*
X58500000Y-50396190D01*
X58261904Y-50872380D02*
X58261904Y-49872380D01*
X58642857Y-49872380D01*
X58738095Y-49920000D01*
X58785714Y-49967619D01*
X58833333Y-50062857D01*
X58833333Y-50205714D01*
X58785714Y-50300952D01*
X58738095Y-50348571D01*
X58642857Y-50396190D01*
X58261904Y-50396190D01*
X59785714Y-50872380D02*
X59214285Y-50872380D01*
X59500000Y-50872380D02*
X59500000Y-49872380D01*
X59404761Y-50015238D01*
X59309523Y-50110476D01*
X59214285Y-50158095D01*
X49604761Y-57347619D02*
X49509523Y-57300000D01*
X49414285Y-57204761D01*
X49271428Y-57061904D01*
X49176190Y-57014285D01*
X49080952Y-57014285D01*
X49128571Y-57252380D02*
X49033333Y-57204761D01*
X48938095Y-57109523D01*
X48890476Y-56919047D01*
X48890476Y-56585714D01*
X48938095Y-56395238D01*
X49033333Y-56300000D01*
X49128571Y-56252380D01*
X49319047Y-56252380D01*
X49414285Y-56300000D01*
X49509523Y-56395238D01*
X49557142Y-56585714D01*
X49557142Y-56919047D01*
X49509523Y-57109523D01*
X49414285Y-57204761D01*
X49319047Y-57252380D01*
X49128571Y-57252380D01*
X49938095Y-56347619D02*
X49985714Y-56300000D01*
X50080952Y-56252380D01*
X50319047Y-56252380D01*
X50414285Y-56300000D01*
X50461904Y-56347619D01*
X50509523Y-56442857D01*
X50509523Y-56538095D01*
X50461904Y-56680952D01*
X49890476Y-57252380D01*
X50509523Y-57252380D01*
X84504761Y-47947619D02*
X84409523Y-47900000D01*
X84314285Y-47804761D01*
X84171428Y-47661904D01*
X84076190Y-47614285D01*
X83980952Y-47614285D01*
X84028571Y-47852380D02*
X83933333Y-47804761D01*
X83838095Y-47709523D01*
X83790476Y-47519047D01*
X83790476Y-47185714D01*
X83838095Y-46995238D01*
X83933333Y-46900000D01*
X84028571Y-46852380D01*
X84219047Y-46852380D01*
X84314285Y-46900000D01*
X84409523Y-46995238D01*
X84457142Y-47185714D01*
X84457142Y-47519047D01*
X84409523Y-47709523D01*
X84314285Y-47804761D01*
X84219047Y-47852380D01*
X84028571Y-47852380D01*
X85409523Y-47852380D02*
X84838095Y-47852380D01*
X85123809Y-47852380D02*
X85123809Y-46852380D01*
X85028571Y-46995238D01*
X84933333Y-47090476D01*
X84838095Y-47138095D01*
X37083466Y-59520380D02*
X37083466Y-60234666D01*
X37035847Y-60377523D01*
X36940609Y-60472761D01*
X36797752Y-60520380D01*
X36702514Y-60520380D01*
X37512038Y-59615619D02*
X37559657Y-59568000D01*
X37654895Y-59520380D01*
X37892990Y-59520380D01*
X37988228Y-59568000D01*
X38035847Y-59615619D01*
X38083466Y-59710857D01*
X38083466Y-59806095D01*
X38035847Y-59948952D01*
X37464419Y-60520380D01*
X38083466Y-60520380D01*
X100302380Y-78488095D02*
X99302380Y-78488095D01*
X99302380Y-78250000D01*
X99350000Y-78107142D01*
X99445238Y-78011904D01*
X99540476Y-77964285D01*
X99730952Y-77916666D01*
X99873809Y-77916666D01*
X100064285Y-77964285D01*
X100159523Y-78011904D01*
X100254761Y-78107142D01*
X100302380Y-78250000D01*
X100302380Y-78488095D01*
X99302380Y-77059523D02*
X99302380Y-77250000D01*
X99350000Y-77345238D01*
X99397619Y-77392857D01*
X99540476Y-77488095D01*
X99730952Y-77535714D01*
X100111904Y-77535714D01*
X100207142Y-77488095D01*
X100254761Y-77440476D01*
X100302380Y-77345238D01*
X100302380Y-77154761D01*
X100254761Y-77059523D01*
X100207142Y-77011904D01*
X100111904Y-76964285D01*
X99873809Y-76964285D01*
X99778571Y-77011904D01*
X99730952Y-77059523D01*
X99683333Y-77154761D01*
X99683333Y-77345238D01*
X99730952Y-77440476D01*
X99778571Y-77488095D01*
X99873809Y-77535714D01*
X102552380Y-78488095D02*
X101552380Y-78488095D01*
X101552380Y-78250000D01*
X101600000Y-78107142D01*
X101695238Y-78011904D01*
X101790476Y-77964285D01*
X101980952Y-77916666D01*
X102123809Y-77916666D01*
X102314285Y-77964285D01*
X102409523Y-78011904D01*
X102504761Y-78107142D01*
X102552380Y-78250000D01*
X102552380Y-78488095D01*
X101552380Y-77011904D02*
X101552380Y-77488095D01*
X102028571Y-77535714D01*
X101980952Y-77488095D01*
X101933333Y-77392857D01*
X101933333Y-77154761D01*
X101980952Y-77059523D01*
X102028571Y-77011904D01*
X102123809Y-76964285D01*
X102361904Y-76964285D01*
X102457142Y-77011904D01*
X102504761Y-77059523D01*
X102552380Y-77154761D01*
X102552380Y-77392857D01*
X102504761Y-77488095D01*
X102457142Y-77535714D01*
X84661904Y-68652380D02*
X84661904Y-67652380D01*
X84900000Y-67652380D01*
X85042857Y-67700000D01*
X85138095Y-67795238D01*
X85185714Y-67890476D01*
X85233333Y-68080952D01*
X85233333Y-68223809D01*
X85185714Y-68414285D01*
X85138095Y-68509523D01*
X85042857Y-68604761D01*
X84900000Y-68652380D01*
X84661904Y-68652380D01*
X85566666Y-67652380D02*
X86185714Y-67652380D01*
X85852380Y-68033333D01*
X85995238Y-68033333D01*
X86090476Y-68080952D01*
X86138095Y-68128571D01*
X86185714Y-68223809D01*
X86185714Y-68461904D01*
X86138095Y-68557142D01*
X86090476Y-68604761D01*
X85995238Y-68652380D01*
X85709523Y-68652380D01*
X85614285Y-68604761D01*
X85566666Y-68557142D01*
X50361904Y-69602380D02*
X50361904Y-68602380D01*
X50600000Y-68602380D01*
X50742857Y-68650000D01*
X50838095Y-68745238D01*
X50885714Y-68840476D01*
X50933333Y-69030952D01*
X50933333Y-69173809D01*
X50885714Y-69364285D01*
X50838095Y-69459523D01*
X50742857Y-69554761D01*
X50600000Y-69602380D01*
X50361904Y-69602380D01*
X51314285Y-68697619D02*
X51361904Y-68650000D01*
X51457142Y-68602380D01*
X51695238Y-68602380D01*
X51790476Y-68650000D01*
X51838095Y-68697619D01*
X51885714Y-68792857D01*
X51885714Y-68888095D01*
X51838095Y-69030952D01*
X51266666Y-69602380D01*
X51885714Y-69602380D01*
X66961904Y-74152380D02*
X66961904Y-73152380D01*
X67200000Y-73152380D01*
X67342857Y-73200000D01*
X67438095Y-73295238D01*
X67485714Y-73390476D01*
X67533333Y-73580952D01*
X67533333Y-73723809D01*
X67485714Y-73914285D01*
X67438095Y-74009523D01*
X67342857Y-74104761D01*
X67200000Y-74152380D01*
X66961904Y-74152380D01*
X68485714Y-74152380D02*
X67914285Y-74152380D01*
X68200000Y-74152380D02*
X68200000Y-73152380D01*
X68104761Y-73295238D01*
X68009523Y-73390476D01*
X67914285Y-73438095D01*
X110509523Y-74757142D02*
X110461904Y-74804761D01*
X110319047Y-74852380D01*
X110223809Y-74852380D01*
X110080952Y-74804761D01*
X109985714Y-74709523D01*
X109938095Y-74614285D01*
X109890476Y-74423809D01*
X109890476Y-74280952D01*
X109938095Y-74090476D01*
X109985714Y-73995238D01*
X110080952Y-73900000D01*
X110223809Y-73852380D01*
X110319047Y-73852380D01*
X110461904Y-73900000D01*
X110509523Y-73947619D01*
X110938095Y-74852380D02*
X110938095Y-73852380D01*
X111509523Y-74852380D01*
X111509523Y-73852380D01*
X112509523Y-74852380D02*
X111938095Y-74852380D01*
X112223809Y-74852380D02*
X112223809Y-73852380D01*
X112128571Y-73995238D01*
X112033333Y-74090476D01*
X111938095Y-74138095D01*
X110200000Y-77852380D02*
X110200000Y-78090476D01*
X109961904Y-77995238D02*
X110200000Y-78090476D01*
X110438095Y-77995238D01*
X110057142Y-78280952D02*
X110200000Y-78090476D01*
X110342857Y-78280952D01*
X61557142Y-48042857D02*
X61604761Y-48090476D01*
X61652380Y-48233333D01*
X61652380Y-48328571D01*
X61604761Y-48471428D01*
X61509523Y-48566666D01*
X61414285Y-48614285D01*
X61223809Y-48661904D01*
X61080952Y-48661904D01*
X60890476Y-48614285D01*
X60795238Y-48566666D01*
X60700000Y-48471428D01*
X60652380Y-48328571D01*
X60652380Y-48233333D01*
X60700000Y-48090476D01*
X60747619Y-48042857D01*
X61652380Y-47090476D02*
X61652380Y-47661904D01*
X61652380Y-47376190D02*
X60652380Y-47376190D01*
X60795238Y-47471428D01*
X60890476Y-47566666D01*
X60938095Y-47661904D01*
X60985714Y-46233333D02*
X61652380Y-46233333D01*
X60604761Y-46471428D02*
X61319047Y-46709523D01*
X61319047Y-46090476D01*
X108857142Y-38117857D02*
X108904761Y-38165476D01*
X108952380Y-38308333D01*
X108952380Y-38403571D01*
X108904761Y-38546428D01*
X108809523Y-38641666D01*
X108714285Y-38689285D01*
X108523809Y-38736904D01*
X108380952Y-38736904D01*
X108190476Y-38689285D01*
X108095238Y-38641666D01*
X108000000Y-38546428D01*
X107952380Y-38403571D01*
X107952380Y-38308333D01*
X108000000Y-38165476D01*
X108047619Y-38117857D01*
X108952380Y-37165476D02*
X108952380Y-37736904D01*
X108952380Y-37451190D02*
X107952380Y-37451190D01*
X108095238Y-37546428D01*
X108190476Y-37641666D01*
X108238095Y-37736904D01*
X107952380Y-36832142D02*
X107952380Y-36213095D01*
X108333333Y-36546428D01*
X108333333Y-36403571D01*
X108380952Y-36308333D01*
X108428571Y-36260714D01*
X108523809Y-36213095D01*
X108761904Y-36213095D01*
X108857142Y-36260714D01*
X108904761Y-36308333D01*
X108952380Y-36403571D01*
X108952380Y-36689285D01*
X108904761Y-36784523D01*
X108857142Y-36832142D01*
X160557142Y-77357142D02*
X160509523Y-77404761D01*
X160366666Y-77452380D01*
X160271428Y-77452380D01*
X160128571Y-77404761D01*
X160033333Y-77309523D01*
X159985714Y-77214285D01*
X159938095Y-77023809D01*
X159938095Y-76880952D01*
X159985714Y-76690476D01*
X160033333Y-76595238D01*
X160128571Y-76500000D01*
X160271428Y-76452380D01*
X160366666Y-76452380D01*
X160509523Y-76500000D01*
X160557142Y-76547619D01*
X161509523Y-77452380D02*
X160938095Y-77452380D01*
X161223809Y-77452380D02*
X161223809Y-76452380D01*
X161128571Y-76595238D01*
X161033333Y-76690476D01*
X160938095Y-76738095D01*
X161890476Y-76547619D02*
X161938095Y-76500000D01*
X162033333Y-76452380D01*
X162271428Y-76452380D01*
X162366666Y-76500000D01*
X162414285Y-76547619D01*
X162461904Y-76642857D01*
X162461904Y-76738095D01*
X162414285Y-76880952D01*
X161842857Y-77452380D01*
X162461904Y-77452380D01*
X160857142Y-40557142D02*
X160809523Y-40604761D01*
X160666666Y-40652380D01*
X160571428Y-40652380D01*
X160428571Y-40604761D01*
X160333333Y-40509523D01*
X160285714Y-40414285D01*
X160238095Y-40223809D01*
X160238095Y-40080952D01*
X160285714Y-39890476D01*
X160333333Y-39795238D01*
X160428571Y-39700000D01*
X160571428Y-39652380D01*
X160666666Y-39652380D01*
X160809523Y-39700000D01*
X160857142Y-39747619D01*
X161809523Y-40652380D02*
X161238095Y-40652380D01*
X161523809Y-40652380D02*
X161523809Y-39652380D01*
X161428571Y-39795238D01*
X161333333Y-39890476D01*
X161238095Y-39938095D01*
X162761904Y-40652380D02*
X162190476Y-40652380D01*
X162476190Y-40652380D02*
X162476190Y-39652380D01*
X162380952Y-39795238D01*
X162285714Y-39890476D01*
X162190476Y-39938095D01*
X106357142Y-61916666D02*
X106404761Y-61964285D01*
X106452380Y-62107142D01*
X106452380Y-62202380D01*
X106404761Y-62345238D01*
X106309523Y-62440476D01*
X106214285Y-62488095D01*
X106023809Y-62535714D01*
X105880952Y-62535714D01*
X105690476Y-62488095D01*
X105595238Y-62440476D01*
X105500000Y-62345238D01*
X105452380Y-62202380D01*
X105452380Y-62107142D01*
X105500000Y-61964285D01*
X105547619Y-61916666D01*
X106452380Y-61440476D02*
X106452380Y-61250000D01*
X106404761Y-61154761D01*
X106357142Y-61107142D01*
X106214285Y-61011904D01*
X106023809Y-60964285D01*
X105642857Y-60964285D01*
X105547619Y-61011904D01*
X105500000Y-61059523D01*
X105452380Y-61154761D01*
X105452380Y-61345238D01*
X105500000Y-61440476D01*
X105547619Y-61488095D01*
X105642857Y-61535714D01*
X105880952Y-61535714D01*
X105976190Y-61488095D01*
X106023809Y-61440476D01*
X106071428Y-61345238D01*
X106071428Y-61154761D01*
X106023809Y-61059523D01*
X105976190Y-61011904D01*
X105880952Y-60964285D01*
X91133333Y-70357142D02*
X91085714Y-70404761D01*
X90942857Y-70452380D01*
X90847619Y-70452380D01*
X90704761Y-70404761D01*
X90609523Y-70309523D01*
X90561904Y-70214285D01*
X90514285Y-70023809D01*
X90514285Y-69880952D01*
X90561904Y-69690476D01*
X90609523Y-69595238D01*
X90704761Y-69500000D01*
X90847619Y-69452380D01*
X90942857Y-69452380D01*
X91085714Y-69500000D01*
X91133333Y-69547619D01*
X91704761Y-69880952D02*
X91609523Y-69833333D01*
X91561904Y-69785714D01*
X91514285Y-69690476D01*
X91514285Y-69642857D01*
X91561904Y-69547619D01*
X91609523Y-69500000D01*
X91704761Y-69452380D01*
X91895238Y-69452380D01*
X91990476Y-69500000D01*
X92038095Y-69547619D01*
X92085714Y-69642857D01*
X92085714Y-69690476D01*
X92038095Y-69785714D01*
X91990476Y-69833333D01*
X91895238Y-69880952D01*
X91704761Y-69880952D01*
X91609523Y-69928571D01*
X91561904Y-69976190D01*
X91514285Y-70071428D01*
X91514285Y-70261904D01*
X91561904Y-70357142D01*
X91609523Y-70404761D01*
X91704761Y-70452380D01*
X91895238Y-70452380D01*
X91990476Y-70404761D01*
X92038095Y-70357142D01*
X92085714Y-70261904D01*
X92085714Y-70071428D01*
X92038095Y-69976190D01*
X91990476Y-69928571D01*
X91895238Y-69880952D01*
X50433333Y-72507142D02*
X50385714Y-72554761D01*
X50242857Y-72602380D01*
X50147619Y-72602380D01*
X50004761Y-72554761D01*
X49909523Y-72459523D01*
X49861904Y-72364285D01*
X49814285Y-72173809D01*
X49814285Y-72030952D01*
X49861904Y-71840476D01*
X49909523Y-71745238D01*
X50004761Y-71650000D01*
X50147619Y-71602380D01*
X50242857Y-71602380D01*
X50385714Y-71650000D01*
X50433333Y-71697619D01*
X50766666Y-71602380D02*
X51433333Y-71602380D01*
X51004761Y-72602380D01*
X73533333Y-76757142D02*
X73485714Y-76804761D01*
X73342857Y-76852380D01*
X73247619Y-76852380D01*
X73104761Y-76804761D01*
X73009523Y-76709523D01*
X72961904Y-76614285D01*
X72914285Y-76423809D01*
X72914285Y-76280952D01*
X72961904Y-76090476D01*
X73009523Y-75995238D01*
X73104761Y-75900000D01*
X73247619Y-75852380D01*
X73342857Y-75852380D01*
X73485714Y-75900000D01*
X73533333Y-75947619D01*
X74438095Y-75852380D02*
X73961904Y-75852380D01*
X73914285Y-76328571D01*
X73961904Y-76280952D01*
X74057142Y-76233333D01*
X74295238Y-76233333D01*
X74390476Y-76280952D01*
X74438095Y-76328571D01*
X74485714Y-76423809D01*
X74485714Y-76661904D01*
X74438095Y-76757142D01*
X74390476Y-76804761D01*
X74295238Y-76852380D01*
X74057142Y-76852380D01*
X73961904Y-76804761D01*
X73914285Y-76757142D01*
X69133333Y-65257142D02*
X69085714Y-65304761D01*
X68942857Y-65352380D01*
X68847619Y-65352380D01*
X68704761Y-65304761D01*
X68609523Y-65209523D01*
X68561904Y-65114285D01*
X68514285Y-64923809D01*
X68514285Y-64780952D01*
X68561904Y-64590476D01*
X68609523Y-64495238D01*
X68704761Y-64400000D01*
X68847619Y-64352380D01*
X68942857Y-64352380D01*
X69085714Y-64400000D01*
X69133333Y-64447619D01*
X69990476Y-64685714D02*
X69990476Y-65352380D01*
X69752380Y-64304761D02*
X69514285Y-65019047D01*
X70133333Y-65019047D01*
X59557142Y-60466666D02*
X59604761Y-60514285D01*
X59652380Y-60657142D01*
X59652380Y-60752380D01*
X59604761Y-60895238D01*
X59509523Y-60990476D01*
X59414285Y-61038095D01*
X59223809Y-61085714D01*
X59080952Y-61085714D01*
X58890476Y-61038095D01*
X58795238Y-60990476D01*
X58700000Y-60895238D01*
X58652380Y-60752380D01*
X58652380Y-60657142D01*
X58700000Y-60514285D01*
X58747619Y-60466666D01*
X58652380Y-60133333D02*
X58652380Y-59514285D01*
X59033333Y-59847619D01*
X59033333Y-59704761D01*
X59080952Y-59609523D01*
X59128571Y-59561904D01*
X59223809Y-59514285D01*
X59461904Y-59514285D01*
X59557142Y-59561904D01*
X59604761Y-59609523D01*
X59652380Y-59704761D01*
X59652380Y-59990476D01*
X59604761Y-60085714D01*
X59557142Y-60133333D01*
X75057142Y-45766666D02*
X75104761Y-45814285D01*
X75152380Y-45957142D01*
X75152380Y-46052380D01*
X75104761Y-46195238D01*
X75009523Y-46290476D01*
X74914285Y-46338095D01*
X74723809Y-46385714D01*
X74580952Y-46385714D01*
X74390476Y-46338095D01*
X74295238Y-46290476D01*
X74200000Y-46195238D01*
X74152380Y-46052380D01*
X74152380Y-45957142D01*
X74200000Y-45814285D01*
X74247619Y-45766666D01*
X74247619Y-45385714D02*
X74200000Y-45338095D01*
X74152380Y-45242857D01*
X74152380Y-45004761D01*
X74200000Y-44909523D01*
X74247619Y-44861904D01*
X74342857Y-44814285D01*
X74438095Y-44814285D01*
X74580952Y-44861904D01*
X75152380Y-45433333D01*
X75152380Y-44814285D01*
X61107142Y-62016666D02*
X61154761Y-62064285D01*
X61202380Y-62207142D01*
X61202380Y-62302380D01*
X61154761Y-62445238D01*
X61059523Y-62540476D01*
X60964285Y-62588095D01*
X60773809Y-62635714D01*
X60630952Y-62635714D01*
X60440476Y-62588095D01*
X60345238Y-62540476D01*
X60250000Y-62445238D01*
X60202380Y-62302380D01*
X60202380Y-62207142D01*
X60250000Y-62064285D01*
X60297619Y-62016666D01*
X61202380Y-61064285D02*
X61202380Y-61635714D01*
X61202380Y-61350000D02*
X60202380Y-61350000D01*
X60345238Y-61445238D01*
X60440476Y-61540476D01*
X60488095Y-61635714D01*
%LPC*%
D17*
X109200000Y-55540000D03*
X109200000Y-50460000D03*
X78560000Y-33700000D03*
X83640000Y-33700000D03*
D18*
X54300000Y-83600000D03*
G36*
G01*
X57710000Y-82754999D02*
X57710000Y-84445001D01*
G75*
G02*
X57460001Y-84695000I-249999J0D01*
G01*
X56219999Y-84695000D01*
G75*
G02*
X55970000Y-84445001I0J249999D01*
G01*
X55970000Y-82754999D01*
G75*
G02*
X56219999Y-82505000I249999J0D01*
G01*
X57460001Y-82505000D01*
G75*
G02*
X57710000Y-82754999I0J-249999D01*
G01*
G37*
D19*
X117000000Y-58750000D03*
G36*
G01*
X184400000Y-65600000D02*
X184400000Y-63600000D01*
G75*
G02*
X184650000Y-63350000I250000J0D01*
G01*
X188150000Y-63350000D01*
G75*
G02*
X188400000Y-63600000I0J-250000D01*
G01*
X188400000Y-65600000D01*
G75*
G02*
X188150000Y-65850000I-250000J0D01*
G01*
X184650000Y-65850000D01*
G75*
G02*
X184400000Y-65600000I0J250000D01*
G01*
G37*
G36*
G01*
X176400000Y-65600000D02*
X176400000Y-63600000D01*
G75*
G02*
X176650000Y-63350000I250000J0D01*
G01*
X180150000Y-63350000D01*
G75*
G02*
X180400000Y-63600000I0J-250000D01*
G01*
X180400000Y-65600000D01*
G75*
G02*
X180150000Y-65850000I-250000J0D01*
G01*
X176650000Y-65850000D01*
G75*
G02*
X176400000Y-65600000I0J250000D01*
G01*
G37*
G36*
G01*
X184400000Y-54200000D02*
X184400000Y-52200000D01*
G75*
G02*
X184650000Y-51950000I250000J0D01*
G01*
X188150000Y-51950000D01*
G75*
G02*
X188400000Y-52200000I0J-250000D01*
G01*
X188400000Y-54200000D01*
G75*
G02*
X188150000Y-54450000I-250000J0D01*
G01*
X184650000Y-54450000D01*
G75*
G02*
X184400000Y-54200000I0J250000D01*
G01*
G37*
G36*
G01*
X176400000Y-54200000D02*
X176400000Y-52200000D01*
G75*
G02*
X176650000Y-51950000I250000J0D01*
G01*
X180150000Y-51950000D01*
G75*
G02*
X180400000Y-52200000I0J-250000D01*
G01*
X180400000Y-54200000D01*
G75*
G02*
X180150000Y-54450000I-250000J0D01*
G01*
X176650000Y-54450000D01*
G75*
G02*
X176400000Y-54200000I0J250000D01*
G01*
G37*
G36*
G01*
X178300000Y-79300000D02*
X180300000Y-79300000D01*
G75*
G02*
X180550000Y-79550000I0J-250000D01*
G01*
X180550000Y-83050000D01*
G75*
G02*
X180300000Y-83300000I-250000J0D01*
G01*
X178300000Y-83300000D01*
G75*
G02*
X178050000Y-83050000I0J250000D01*
G01*
X178050000Y-79550000D01*
G75*
G02*
X178300000Y-79300000I250000J0D01*
G01*
G37*
G36*
G01*
X178300000Y-71300000D02*
X180300000Y-71300000D01*
G75*
G02*
X180550000Y-71550000I0J-250000D01*
G01*
X180550000Y-75050000D01*
G75*
G02*
X180300000Y-75300000I-250000J0D01*
G01*
X178300000Y-75300000D01*
G75*
G02*
X178050000Y-75050000I0J250000D01*
G01*
X178050000Y-71550000D01*
G75*
G02*
X178300000Y-71300000I250000J0D01*
G01*
G37*
G36*
G01*
X180300000Y-38700000D02*
X178300000Y-38700000D01*
G75*
G02*
X178050000Y-38450000I0J250000D01*
G01*
X178050000Y-34950000D01*
G75*
G02*
X178300000Y-34700000I250000J0D01*
G01*
X180300000Y-34700000D01*
G75*
G02*
X180550000Y-34950000I0J-250000D01*
G01*
X180550000Y-38450000D01*
G75*
G02*
X180300000Y-38700000I-250000J0D01*
G01*
G37*
G36*
G01*
X180300000Y-46700000D02*
X178300000Y-46700000D01*
G75*
G02*
X178050000Y-46450000I0J250000D01*
G01*
X178050000Y-42950000D01*
G75*
G02*
X178300000Y-42700000I250000J0D01*
G01*
X180300000Y-42700000D01*
G75*
G02*
X180550000Y-42950000I0J-250000D01*
G01*
X180550000Y-46450000D01*
G75*
G02*
X180300000Y-46700000I-250000J0D01*
G01*
G37*
X199000000Y-82500000D03*
X199000000Y-35200000D03*
X35200000Y-35200000D03*
X35200000Y-82500000D03*
D20*
X55200000Y-33800000D03*
X70800000Y-33800000D03*
D21*
X55200000Y-42300000D03*
X70800000Y-42300000D03*
D22*
X65500000Y-33800000D03*
X60500000Y-33800000D03*
D23*
X63000000Y-31800000D03*
D21*
X60500000Y-37300000D03*
X65500000Y-37300000D03*
X60100000Y-40950000D03*
X65900000Y-40950000D03*
G36*
G01*
X76625000Y-56550000D02*
X76625000Y-56050000D01*
G75*
G02*
X76850000Y-55825000I225000J0D01*
G01*
X77300000Y-55825000D01*
G75*
G02*
X77525000Y-56050000I0J-225000D01*
G01*
X77525000Y-56550000D01*
G75*
G02*
X77300000Y-56775000I-225000J0D01*
G01*
X76850000Y-56775000D01*
G75*
G02*
X76625000Y-56550000I0J225000D01*
G01*
G37*
G36*
G01*
X75075000Y-56550000D02*
X75075000Y-56050000D01*
G75*
G02*
X75300000Y-55825000I225000J0D01*
G01*
X75750000Y-55825000D01*
G75*
G02*
X75975000Y-56050000I0J-225000D01*
G01*
X75975000Y-56550000D01*
G75*
G02*
X75750000Y-56775000I-225000J0D01*
G01*
X75300000Y-56775000D01*
G75*
G02*
X75075000Y-56550000I0J225000D01*
G01*
G37*
G36*
G01*
X74275000Y-50925000D02*
X74275000Y-51475000D01*
G75*
G02*
X74075000Y-51675000I-200000J0D01*
G01*
X73675000Y-51675000D01*
G75*
G02*
X73475000Y-51475000I0J200000D01*
G01*
X73475000Y-50925000D01*
G75*
G02*
X73675000Y-50725000I200000J0D01*
G01*
X74075000Y-50725000D01*
G75*
G02*
X74275000Y-50925000I0J-200000D01*
G01*
G37*
G36*
G01*
X75925000Y-50925000D02*
X75925000Y-51475000D01*
G75*
G02*
X75725000Y-51675000I-200000J0D01*
G01*
X75325000Y-51675000D01*
G75*
G02*
X75125000Y-51475000I0J200000D01*
G01*
X75125000Y-50925000D01*
G75*
G02*
X75325000Y-50725000I200000J0D01*
G01*
X75725000Y-50725000D01*
G75*
G02*
X75925000Y-50925000I0J-200000D01*
G01*
G37*
G36*
G01*
X174225000Y-55250000D02*
X174225000Y-54750000D01*
G75*
G02*
X174450000Y-54525000I225000J0D01*
G01*
X174900000Y-54525000D01*
G75*
G02*
X175125000Y-54750000I0J-225000D01*
G01*
X175125000Y-55250000D01*
G75*
G02*
X174900000Y-55475000I-225000J0D01*
G01*
X174450000Y-55475000D01*
G75*
G02*
X174225000Y-55250000I0J225000D01*
G01*
G37*
G36*
G01*
X172675000Y-55250000D02*
X172675000Y-54750000D01*
G75*
G02*
X172900000Y-54525000I225000J0D01*
G01*
X173350000Y-54525000D01*
G75*
G02*
X173575000Y-54750000I0J-225000D01*
G01*
X173575000Y-55250000D01*
G75*
G02*
X173350000Y-55475000I-225000J0D01*
G01*
X172900000Y-55475000D01*
G75*
G02*
X172675000Y-55250000I0J225000D01*
G01*
G37*
G36*
G01*
X123350000Y-34425000D02*
X123350000Y-31575000D01*
G75*
G02*
X123600000Y-31325000I250000J0D01*
G01*
X124325000Y-31325000D01*
G75*
G02*
X124575000Y-31575000I0J-250000D01*
G01*
X124575000Y-34425000D01*
G75*
G02*
X124325000Y-34675000I-250000J0D01*
G01*
X123600000Y-34675000D01*
G75*
G02*
X123350000Y-34425000I0J250000D01*
G01*
G37*
G36*
G01*
X117425000Y-34425000D02*
X117425000Y-31575000D01*
G75*
G02*
X117675000Y-31325000I250000J0D01*
G01*
X118400000Y-31325000D01*
G75*
G02*
X118650000Y-31575000I0J-250000D01*
G01*
X118650000Y-34425000D01*
G75*
G02*
X118400000Y-34675000I-250000J0D01*
G01*
X117675000Y-34675000D01*
G75*
G02*
X117425000Y-34425000I0J250000D01*
G01*
G37*
G36*
G01*
X120625000Y-41675000D02*
X120625000Y-41125000D01*
G75*
G02*
X120825000Y-40925000I200000J0D01*
G01*
X121225000Y-40925000D01*
G75*
G02*
X121425000Y-41125000I0J-200000D01*
G01*
X121425000Y-41675000D01*
G75*
G02*
X121225000Y-41875000I-200000J0D01*
G01*
X120825000Y-41875000D01*
G75*
G02*
X120625000Y-41675000I0J200000D01*
G01*
G37*
G36*
G01*
X118975000Y-41675000D02*
X118975000Y-41125000D01*
G75*
G02*
X119175000Y-40925000I200000J0D01*
G01*
X119575000Y-40925000D01*
G75*
G02*
X119775000Y-41125000I0J-200000D01*
G01*
X119775000Y-41675000D01*
G75*
G02*
X119575000Y-41875000I-200000J0D01*
G01*
X119175000Y-41875000D01*
G75*
G02*
X118975000Y-41675000I0J200000D01*
G01*
G37*
G36*
G01*
X120200000Y-37225000D02*
X119900000Y-37225000D01*
G75*
G02*
X119750000Y-37075000I0J150000D01*
G01*
X119750000Y-36050000D01*
G75*
G02*
X119900000Y-35900000I150000J0D01*
G01*
X120200000Y-35900000D01*
G75*
G02*
X120350000Y-36050000I0J-150000D01*
G01*
X120350000Y-37075000D01*
G75*
G02*
X120200000Y-37225000I-150000J0D01*
G01*
G37*
G36*
G01*
X122100000Y-37225000D02*
X121800000Y-37225000D01*
G75*
G02*
X121650000Y-37075000I0J150000D01*
G01*
X121650000Y-36050000D01*
G75*
G02*
X121800000Y-35900000I150000J0D01*
G01*
X122100000Y-35900000D01*
G75*
G02*
X122250000Y-36050000I0J-150000D01*
G01*
X122250000Y-37075000D01*
G75*
G02*
X122100000Y-37225000I-150000J0D01*
G01*
G37*
G36*
G01*
X122100000Y-39500000D02*
X121800000Y-39500000D01*
G75*
G02*
X121650000Y-39350000I0J150000D01*
G01*
X121650000Y-38325000D01*
G75*
G02*
X121800000Y-38175000I150000J0D01*
G01*
X122100000Y-38175000D01*
G75*
G02*
X122250000Y-38325000I0J-150000D01*
G01*
X122250000Y-39350000D01*
G75*
G02*
X122100000Y-39500000I-150000J0D01*
G01*
G37*
G36*
G01*
X121150000Y-39500000D02*
X120850000Y-39500000D01*
G75*
G02*
X120700000Y-39350000I0J150000D01*
G01*
X120700000Y-38325000D01*
G75*
G02*
X120850000Y-38175000I150000J0D01*
G01*
X121150000Y-38175000D01*
G75*
G02*
X121300000Y-38325000I0J-150000D01*
G01*
X121300000Y-39350000D01*
G75*
G02*
X121150000Y-39500000I-150000J0D01*
G01*
G37*
G36*
G01*
X120200000Y-39500000D02*
X119900000Y-39500000D01*
G75*
G02*
X119750000Y-39350000I0J150000D01*
G01*
X119750000Y-38325000D01*
G75*
G02*
X119900000Y-38175000I150000J0D01*
G01*
X120200000Y-38175000D01*
G75*
G02*
X120350000Y-38325000I0J-150000D01*
G01*
X120350000Y-39350000D01*
G75*
G02*
X120200000Y-39500000I-150000J0D01*
G01*
G37*
G36*
G01*
X100775000Y-48925000D02*
X100775000Y-49475000D01*
G75*
G02*
X100575000Y-49675000I-200000J0D01*
G01*
X100175000Y-49675000D01*
G75*
G02*
X99975000Y-49475000I0J200000D01*
G01*
X99975000Y-48925000D01*
G75*
G02*
X100175000Y-48725000I200000J0D01*
G01*
X100575000Y-48725000D01*
G75*
G02*
X100775000Y-48925000I0J-200000D01*
G01*
G37*
G36*
G01*
X102425000Y-48925000D02*
X102425000Y-49475000D01*
G75*
G02*
X102225000Y-49675000I-200000J0D01*
G01*
X101825000Y-49675000D01*
G75*
G02*
X101625000Y-49475000I0J200000D01*
G01*
X101625000Y-48925000D01*
G75*
G02*
X101825000Y-48725000I200000J0D01*
G01*
X102225000Y-48725000D01*
G75*
G02*
X102425000Y-48925000I0J-200000D01*
G01*
G37*
G36*
G01*
X117625000Y-39075000D02*
X117625000Y-38525000D01*
G75*
G02*
X117825000Y-38325000I200000J0D01*
G01*
X118225000Y-38325000D01*
G75*
G02*
X118425000Y-38525000I0J-200000D01*
G01*
X118425000Y-39075000D01*
G75*
G02*
X118225000Y-39275000I-200000J0D01*
G01*
X117825000Y-39275000D01*
G75*
G02*
X117625000Y-39075000I0J200000D01*
G01*
G37*
G36*
G01*
X115975000Y-39075000D02*
X115975000Y-38525000D01*
G75*
G02*
X116175000Y-38325000I200000J0D01*
G01*
X116575000Y-38325000D01*
G75*
G02*
X116775000Y-38525000I0J-200000D01*
G01*
X116775000Y-39075000D01*
G75*
G02*
X116575000Y-39275000I-200000J0D01*
G01*
X116175000Y-39275000D01*
G75*
G02*
X115975000Y-39075000I0J200000D01*
G01*
G37*
D24*
X61700000Y-79100000D03*
X60750000Y-77100000D03*
X62650000Y-77100000D03*
X54300000Y-79100000D03*
X53350000Y-77100000D03*
X55250000Y-77100000D03*
D18*
X61660000Y-83600000D03*
G36*
G01*
X65070000Y-82754999D02*
X65070000Y-84445001D01*
G75*
G02*
X64820001Y-84695000I-249999J0D01*
G01*
X63579999Y-84695000D01*
G75*
G02*
X63330000Y-84445001I0J249999D01*
G01*
X63330000Y-82754999D01*
G75*
G02*
X63579999Y-82505000I249999J0D01*
G01*
X64820001Y-82505000D01*
G75*
G02*
X65070000Y-82754999I0J-249999D01*
G01*
G37*
D25*
X100400000Y-66300000D03*
X104400000Y-66300000D03*
D26*
X102150000Y-41700000D03*
X107250000Y-42900000D03*
D27*
X71400000Y-80600000D03*
X73400000Y-80600000D03*
X75400000Y-80600000D03*
X77400000Y-80600000D03*
X79400000Y-80600000D03*
G36*
G01*
X82000000Y-79949999D02*
X82000000Y-81250001D01*
G75*
G02*
X81750001Y-81500000I-249999J0D01*
G01*
X81049999Y-81500000D01*
G75*
G02*
X80800000Y-81250001I0J249999D01*
G01*
X80800000Y-79949999D01*
G75*
G02*
X81049999Y-79700000I249999J0D01*
G01*
X81750001Y-79700000D01*
G75*
G02*
X82000000Y-79949999I0J-249999D01*
G01*
G37*
D28*
X85550000Y-60321000D03*
X85550000Y-54079000D03*
D29*
X100550000Y-55450000D03*
X100550000Y-58950000D03*
X92050000Y-58950000D03*
X92050000Y-55450000D03*
D30*
X57850000Y-69900000D03*
X66850000Y-69900000D03*
G36*
G01*
X99695000Y-34500000D02*
X99395000Y-34500000D01*
G75*
G02*
X99245000Y-34350000I0J150000D01*
G01*
X99245000Y-32700000D01*
G75*
G02*
X99395000Y-32550000I150000J0D01*
G01*
X99695000Y-32550000D01*
G75*
G02*
X99845000Y-32700000I0J-150000D01*
G01*
X99845000Y-34350000D01*
G75*
G02*
X99695000Y-34500000I-150000J0D01*
G01*
G37*
G36*
G01*
X100965000Y-34500000D02*
X100665000Y-34500000D01*
G75*
G02*
X100515000Y-34350000I0J150000D01*
G01*
X100515000Y-32700000D01*
G75*
G02*
X100665000Y-32550000I150000J0D01*
G01*
X100965000Y-32550000D01*
G75*
G02*
X101115000Y-32700000I0J-150000D01*
G01*
X101115000Y-34350000D01*
G75*
G02*
X100965000Y-34500000I-150000J0D01*
G01*
G37*
G36*
G01*
X102235000Y-34500000D02*
X101935000Y-34500000D01*
G75*
G02*
X101785000Y-34350000I0J150000D01*
G01*
X101785000Y-32700000D01*
G75*
G02*
X101935000Y-32550000I150000J0D01*
G01*
X102235000Y-32550000D01*
G75*
G02*
X102385000Y-32700000I0J-150000D01*
G01*
X102385000Y-34350000D01*
G75*
G02*
X102235000Y-34500000I-150000J0D01*
G01*
G37*
G36*
G01*
X103505000Y-34500000D02*
X103205000Y-34500000D01*
G75*
G02*
X103055000Y-34350000I0J150000D01*
G01*
X103055000Y-32700000D01*
G75*
G02*
X103205000Y-32550000I150000J0D01*
G01*
X103505000Y-32550000D01*
G75*
G02*
X103655000Y-32700000I0J-150000D01*
G01*
X103655000Y-34350000D01*
G75*
G02*
X103505000Y-34500000I-150000J0D01*
G01*
G37*
G36*
G01*
X103505000Y-39450000D02*
X103205000Y-39450000D01*
G75*
G02*
X103055000Y-39300000I0J150000D01*
G01*
X103055000Y-37650000D01*
G75*
G02*
X103205000Y-37500000I150000J0D01*
G01*
X103505000Y-37500000D01*
G75*
G02*
X103655000Y-37650000I0J-150000D01*
G01*
X103655000Y-39300000D01*
G75*
G02*
X103505000Y-39450000I-150000J0D01*
G01*
G37*
G36*
G01*
X102235000Y-39450000D02*
X101935000Y-39450000D01*
G75*
G02*
X101785000Y-39300000I0J150000D01*
G01*
X101785000Y-37650000D01*
G75*
G02*
X101935000Y-37500000I150000J0D01*
G01*
X102235000Y-37500000D01*
G75*
G02*
X102385000Y-37650000I0J-150000D01*
G01*
X102385000Y-39300000D01*
G75*
G02*
X102235000Y-39450000I-150000J0D01*
G01*
G37*
G36*
G01*
X100965000Y-39450000D02*
X100665000Y-39450000D01*
G75*
G02*
X100515000Y-39300000I0J150000D01*
G01*
X100515000Y-37650000D01*
G75*
G02*
X100665000Y-37500000I150000J0D01*
G01*
X100965000Y-37500000D01*
G75*
G02*
X101115000Y-37650000I0J-150000D01*
G01*
X101115000Y-39300000D01*
G75*
G02*
X100965000Y-39450000I-150000J0D01*
G01*
G37*
G36*
G01*
X99695000Y-39450000D02*
X99395000Y-39450000D01*
G75*
G02*
X99245000Y-39300000I0J150000D01*
G01*
X99245000Y-37650000D01*
G75*
G02*
X99395000Y-37500000I150000J0D01*
G01*
X99695000Y-37500000D01*
G75*
G02*
X99845000Y-37650000I0J-150000D01*
G01*
X99845000Y-39300000D01*
G75*
G02*
X99695000Y-39450000I-150000J0D01*
G01*
G37*
G36*
G01*
X93945000Y-34500000D02*
X93645000Y-34500000D01*
G75*
G02*
X93495000Y-34350000I0J150000D01*
G01*
X93495000Y-32700000D01*
G75*
G02*
X93645000Y-32550000I150000J0D01*
G01*
X93945000Y-32550000D01*
G75*
G02*
X94095000Y-32700000I0J-150000D01*
G01*
X94095000Y-34350000D01*
G75*
G02*
X93945000Y-34500000I-150000J0D01*
G01*
G37*
G36*
G01*
X95215000Y-34500000D02*
X94915000Y-34500000D01*
G75*
G02*
X94765000Y-34350000I0J150000D01*
G01*
X94765000Y-32700000D01*
G75*
G02*
X94915000Y-32550000I150000J0D01*
G01*
X95215000Y-32550000D01*
G75*
G02*
X95365000Y-32700000I0J-150000D01*
G01*
X95365000Y-34350000D01*
G75*
G02*
X95215000Y-34500000I-150000J0D01*
G01*
G37*
G36*
G01*
X96485000Y-34500000D02*
X96185000Y-34500000D01*
G75*
G02*
X96035000Y-34350000I0J150000D01*
G01*
X96035000Y-32700000D01*
G75*
G02*
X96185000Y-32550000I150000J0D01*
G01*
X96485000Y-32550000D01*
G75*
G02*
X96635000Y-32700000I0J-150000D01*
G01*
X96635000Y-34350000D01*
G75*
G02*
X96485000Y-34500000I-150000J0D01*
G01*
G37*
G36*
G01*
X97755000Y-34500000D02*
X97455000Y-34500000D01*
G75*
G02*
X97305000Y-34350000I0J150000D01*
G01*
X97305000Y-32700000D01*
G75*
G02*
X97455000Y-32550000I150000J0D01*
G01*
X97755000Y-32550000D01*
G75*
G02*
X97905000Y-32700000I0J-150000D01*
G01*
X97905000Y-34350000D01*
G75*
G02*
X97755000Y-34500000I-150000J0D01*
G01*
G37*
G36*
G01*
X97755000Y-39450000D02*
X97455000Y-39450000D01*
G75*
G02*
X97305000Y-39300000I0J150000D01*
G01*
X97305000Y-37650000D01*
G75*
G02*
X97455000Y-37500000I150000J0D01*
G01*
X97755000Y-37500000D01*
G75*
G02*
X97905000Y-37650000I0J-150000D01*
G01*
X97905000Y-39300000D01*
G75*
G02*
X97755000Y-39450000I-150000J0D01*
G01*
G37*
G36*
G01*
X96485000Y-39450000D02*
X96185000Y-39450000D01*
G75*
G02*
X96035000Y-39300000I0J150000D01*
G01*
X96035000Y-37650000D01*
G75*
G02*
X96185000Y-37500000I150000J0D01*
G01*
X96485000Y-37500000D01*
G75*
G02*
X96635000Y-37650000I0J-150000D01*
G01*
X96635000Y-39300000D01*
G75*
G02*
X96485000Y-39450000I-150000J0D01*
G01*
G37*
G36*
G01*
X95215000Y-39450000D02*
X94915000Y-39450000D01*
G75*
G02*
X94765000Y-39300000I0J150000D01*
G01*
X94765000Y-37650000D01*
G75*
G02*
X94915000Y-37500000I150000J0D01*
G01*
X95215000Y-37500000D01*
G75*
G02*
X95365000Y-37650000I0J-150000D01*
G01*
X95365000Y-39300000D01*
G75*
G02*
X95215000Y-39450000I-150000J0D01*
G01*
G37*
G36*
G01*
X93945000Y-39450000D02*
X93645000Y-39450000D01*
G75*
G02*
X93495000Y-39300000I0J150000D01*
G01*
X93495000Y-37650000D01*
G75*
G02*
X93645000Y-37500000I150000J0D01*
G01*
X93945000Y-37500000D01*
G75*
G02*
X94095000Y-37650000I0J-150000D01*
G01*
X94095000Y-39300000D01*
G75*
G02*
X93945000Y-39450000I-150000J0D01*
G01*
G37*
D31*
X103000000Y-45300000D03*
X103000000Y-45800000D03*
X103000000Y-46300000D03*
X103000000Y-46800000D03*
X103000000Y-47300000D03*
X98600000Y-47300000D03*
X98600000Y-46800000D03*
X98600000Y-46300000D03*
X98600000Y-45800000D03*
X98600000Y-45300000D03*
D32*
X158950000Y-63165000D03*
D33*
X165050000Y-59000000D03*
D34*
X152875000Y-66000000D03*
X171125000Y-66000000D03*
X152875000Y-65000000D03*
X171125000Y-65000000D03*
X152875000Y-64000000D03*
X171125000Y-64000000D03*
X152875000Y-63000000D03*
X171125000Y-63000000D03*
X152875000Y-62000000D03*
X171125000Y-62000000D03*
X152875000Y-61000000D03*
X171125000Y-61000000D03*
X152875000Y-60000000D03*
X171125000Y-60000000D03*
X152875000Y-59000000D03*
X171125000Y-59000000D03*
X152875000Y-58000000D03*
X171125000Y-58000000D03*
X152875000Y-57000000D03*
X171125000Y-57000000D03*
X152875000Y-56000000D03*
X171125000Y-56000000D03*
X152875000Y-55000000D03*
X171125000Y-55000000D03*
X152875000Y-54000000D03*
X171125000Y-54000000D03*
X152875000Y-53000000D03*
X171125000Y-53000000D03*
X152875000Y-52000000D03*
X171125000Y-52000000D03*
D32*
X158950000Y-54835000D03*
D35*
X74350000Y-68150000D03*
D36*
X76520000Y-67175000D03*
X76520000Y-67825000D03*
X76520000Y-68475000D03*
X76520000Y-69125000D03*
X72180000Y-69125000D03*
X72180000Y-68475000D03*
X72180000Y-67825000D03*
X72180000Y-67175000D03*
D37*
X67565000Y-53818750D03*
X67565000Y-55006250D03*
X67565000Y-56193750D03*
X67565000Y-57381250D03*
X68935000Y-53818750D03*
X68935000Y-55006250D03*
X68935000Y-56193750D03*
X68935000Y-57381250D03*
D38*
X71100000Y-51375000D03*
X71100000Y-52025000D03*
X71100000Y-52675000D03*
X71100000Y-53325000D03*
X71100000Y-53975000D03*
X71100000Y-54625000D03*
X71100000Y-55275000D03*
X71100000Y-55925000D03*
X71100000Y-56575000D03*
X71100000Y-57225000D03*
X71100000Y-57875000D03*
X71100000Y-58525000D03*
X71100000Y-59175000D03*
X71100000Y-59825000D03*
X65400000Y-59825000D03*
X65400000Y-59175000D03*
X65400000Y-58525000D03*
X65400000Y-57875000D03*
X65400000Y-57225000D03*
X65400000Y-56575000D03*
X65400000Y-55925000D03*
X65400000Y-55275000D03*
X65400000Y-54625000D03*
X65400000Y-53975000D03*
X65400000Y-53325000D03*
X65400000Y-52675000D03*
X65400000Y-52025000D03*
X65400000Y-51375000D03*
G36*
G01*
X55775000Y-59675000D02*
X55225000Y-59675000D01*
G75*
G02*
X55025000Y-59475000I0J200000D01*
G01*
X55025000Y-59075000D01*
G75*
G02*
X55225000Y-58875000I200000J0D01*
G01*
X55775000Y-58875000D01*
G75*
G02*
X55975000Y-59075000I0J-200000D01*
G01*
X55975000Y-59475000D01*
G75*
G02*
X55775000Y-59675000I-200000J0D01*
G01*
G37*
G36*
G01*
X55775000Y-61325000D02*
X55225000Y-61325000D01*
G75*
G02*
X55025000Y-61125000I0J200000D01*
G01*
X55025000Y-60725000D01*
G75*
G02*
X55225000Y-60525000I200000J0D01*
G01*
X55775000Y-60525000D01*
G75*
G02*
X55975000Y-60725000I0J-200000D01*
G01*
X55975000Y-61125000D01*
G75*
G02*
X55775000Y-61325000I-200000J0D01*
G01*
G37*
G36*
G01*
X94825000Y-42625000D02*
X95375000Y-42625000D01*
G75*
G02*
X95575000Y-42825000I0J-200000D01*
G01*
X95575000Y-43225000D01*
G75*
G02*
X95375000Y-43425000I-200000J0D01*
G01*
X94825000Y-43425000D01*
G75*
G02*
X94625000Y-43225000I0J200000D01*
G01*
X94625000Y-42825000D01*
G75*
G02*
X94825000Y-42625000I200000J0D01*
G01*
G37*
G36*
G01*
X94825000Y-40975000D02*
X95375000Y-40975000D01*
G75*
G02*
X95575000Y-41175000I0J-200000D01*
G01*
X95575000Y-41575000D01*
G75*
G02*
X95375000Y-41775000I-200000J0D01*
G01*
X94825000Y-41775000D01*
G75*
G02*
X94625000Y-41575000I0J200000D01*
G01*
X94625000Y-41175000D01*
G75*
G02*
X94825000Y-40975000I200000J0D01*
G01*
G37*
G36*
G01*
X97375000Y-48925000D02*
X97375000Y-49475000D01*
G75*
G02*
X97175000Y-49675000I-200000J0D01*
G01*
X96775000Y-49675000D01*
G75*
G02*
X96575000Y-49475000I0J200000D01*
G01*
X96575000Y-48925000D01*
G75*
G02*
X96775000Y-48725000I200000J0D01*
G01*
X97175000Y-48725000D01*
G75*
G02*
X97375000Y-48925000I0J-200000D01*
G01*
G37*
G36*
G01*
X99025000Y-48925000D02*
X99025000Y-49475000D01*
G75*
G02*
X98825000Y-49675000I-200000J0D01*
G01*
X98425000Y-49675000D01*
G75*
G02*
X98225000Y-49475000I0J200000D01*
G01*
X98225000Y-48925000D01*
G75*
G02*
X98425000Y-48725000I200000J0D01*
G01*
X98825000Y-48725000D01*
G75*
G02*
X99025000Y-48925000I0J-200000D01*
G01*
G37*
G36*
G01*
X94675000Y-46175000D02*
X95225000Y-46175000D01*
G75*
G02*
X95425000Y-46375000I0J-200000D01*
G01*
X95425000Y-46775000D01*
G75*
G02*
X95225000Y-46975000I-200000J0D01*
G01*
X94675000Y-46975000D01*
G75*
G02*
X94475000Y-46775000I0J200000D01*
G01*
X94475000Y-46375000D01*
G75*
G02*
X94675000Y-46175000I200000J0D01*
G01*
G37*
G36*
G01*
X94675000Y-44525000D02*
X95225000Y-44525000D01*
G75*
G02*
X95425000Y-44725000I0J-200000D01*
G01*
X95425000Y-45125000D01*
G75*
G02*
X95225000Y-45325000I-200000J0D01*
G01*
X94675000Y-45325000D01*
G75*
G02*
X94475000Y-45125000I0J200000D01*
G01*
X94475000Y-44725000D01*
G75*
G02*
X94675000Y-44525000I200000J0D01*
G01*
G37*
G36*
G01*
X93125000Y-42625000D02*
X93675000Y-42625000D01*
G75*
G02*
X93875000Y-42825000I0J-200000D01*
G01*
X93875000Y-43225000D01*
G75*
G02*
X93675000Y-43425000I-200000J0D01*
G01*
X93125000Y-43425000D01*
G75*
G02*
X92925000Y-43225000I0J200000D01*
G01*
X92925000Y-42825000D01*
G75*
G02*
X93125000Y-42625000I200000J0D01*
G01*
G37*
G36*
G01*
X93125000Y-40975000D02*
X93675000Y-40975000D01*
G75*
G02*
X93875000Y-41175000I0J-200000D01*
G01*
X93875000Y-41575000D01*
G75*
G02*
X93675000Y-41775000I-200000J0D01*
G01*
X93125000Y-41775000D01*
G75*
G02*
X92925000Y-41575000I0J200000D01*
G01*
X92925000Y-41175000D01*
G75*
G02*
X93125000Y-40975000I200000J0D01*
G01*
G37*
G36*
G01*
X104775000Y-74575000D02*
X104225000Y-74575000D01*
G75*
G02*
X104025000Y-74375000I0J200000D01*
G01*
X104025000Y-73975000D01*
G75*
G02*
X104225000Y-73775000I200000J0D01*
G01*
X104775000Y-73775000D01*
G75*
G02*
X104975000Y-73975000I0J-200000D01*
G01*
X104975000Y-74375000D01*
G75*
G02*
X104775000Y-74575000I-200000J0D01*
G01*
G37*
G36*
G01*
X104775000Y-76225000D02*
X104225000Y-76225000D01*
G75*
G02*
X104025000Y-76025000I0J200000D01*
G01*
X104025000Y-75625000D01*
G75*
G02*
X104225000Y-75425000I200000J0D01*
G01*
X104775000Y-75425000D01*
G75*
G02*
X104975000Y-75625000I0J-200000D01*
G01*
X104975000Y-76025000D01*
G75*
G02*
X104775000Y-76225000I-200000J0D01*
G01*
G37*
G36*
G01*
X98425000Y-85675000D02*
X98425000Y-85125000D01*
G75*
G02*
X98625000Y-84925000I200000J0D01*
G01*
X99025000Y-84925000D01*
G75*
G02*
X99225000Y-85125000I0J-200000D01*
G01*
X99225000Y-85675000D01*
G75*
G02*
X99025000Y-85875000I-200000J0D01*
G01*
X98625000Y-85875000D01*
G75*
G02*
X98425000Y-85675000I0J200000D01*
G01*
G37*
G36*
G01*
X96775000Y-85675000D02*
X96775000Y-85125000D01*
G75*
G02*
X96975000Y-84925000I200000J0D01*
G01*
X97375000Y-84925000D01*
G75*
G02*
X97575000Y-85125000I0J-200000D01*
G01*
X97575000Y-85675000D01*
G75*
G02*
X97375000Y-85875000I-200000J0D01*
G01*
X96975000Y-85875000D01*
G75*
G02*
X96775000Y-85675000I0J200000D01*
G01*
G37*
G36*
G01*
X91625000Y-86375000D02*
X91625000Y-85825000D01*
G75*
G02*
X91825000Y-85625000I200000J0D01*
G01*
X92225000Y-85625000D01*
G75*
G02*
X92425000Y-85825000I0J-200000D01*
G01*
X92425000Y-86375000D01*
G75*
G02*
X92225000Y-86575000I-200000J0D01*
G01*
X91825000Y-86575000D01*
G75*
G02*
X91625000Y-86375000I0J200000D01*
G01*
G37*
G36*
G01*
X89975000Y-86375000D02*
X89975000Y-85825000D01*
G75*
G02*
X90175000Y-85625000I200000J0D01*
G01*
X90575000Y-85625000D01*
G75*
G02*
X90775000Y-85825000I0J-200000D01*
G01*
X90775000Y-86375000D01*
G75*
G02*
X90575000Y-86575000I-200000J0D01*
G01*
X90175000Y-86575000D01*
G75*
G02*
X89975000Y-86375000I0J200000D01*
G01*
G37*
G36*
G01*
X91625000Y-83775000D02*
X91625000Y-83225000D01*
G75*
G02*
X91825000Y-83025000I200000J0D01*
G01*
X92225000Y-83025000D01*
G75*
G02*
X92425000Y-83225000I0J-200000D01*
G01*
X92425000Y-83775000D01*
G75*
G02*
X92225000Y-83975000I-200000J0D01*
G01*
X91825000Y-83975000D01*
G75*
G02*
X91625000Y-83775000I0J200000D01*
G01*
G37*
G36*
G01*
X89975000Y-83775000D02*
X89975000Y-83225000D01*
G75*
G02*
X90175000Y-83025000I200000J0D01*
G01*
X90575000Y-83025000D01*
G75*
G02*
X90775000Y-83225000I0J-200000D01*
G01*
X90775000Y-83775000D01*
G75*
G02*
X90575000Y-83975000I-200000J0D01*
G01*
X90175000Y-83975000D01*
G75*
G02*
X89975000Y-83775000I0J200000D01*
G01*
G37*
G36*
G01*
X97575000Y-83425000D02*
X97575000Y-83975000D01*
G75*
G02*
X97375000Y-84175000I-200000J0D01*
G01*
X96975000Y-84175000D01*
G75*
G02*
X96775000Y-83975000I0J200000D01*
G01*
X96775000Y-83425000D01*
G75*
G02*
X96975000Y-83225000I200000J0D01*
G01*
X97375000Y-83225000D01*
G75*
G02*
X97575000Y-83425000I0J-200000D01*
G01*
G37*
G36*
G01*
X99225000Y-83425000D02*
X99225000Y-83975000D01*
G75*
G02*
X99025000Y-84175000I-200000J0D01*
G01*
X98625000Y-84175000D01*
G75*
G02*
X98425000Y-83975000I0J200000D01*
G01*
X98425000Y-83425000D01*
G75*
G02*
X98625000Y-83225000I200000J0D01*
G01*
X99025000Y-83225000D01*
G75*
G02*
X99225000Y-83425000I0J-200000D01*
G01*
G37*
G36*
G01*
X56775000Y-53175000D02*
X56225000Y-53175000D01*
G75*
G02*
X56025000Y-52975000I0J200000D01*
G01*
X56025000Y-52575000D01*
G75*
G02*
X56225000Y-52375000I200000J0D01*
G01*
X56775000Y-52375000D01*
G75*
G02*
X56975000Y-52575000I0J-200000D01*
G01*
X56975000Y-52975000D01*
G75*
G02*
X56775000Y-53175000I-200000J0D01*
G01*
G37*
G36*
G01*
X56775000Y-54825000D02*
X56225000Y-54825000D01*
G75*
G02*
X56025000Y-54625000I0J200000D01*
G01*
X56025000Y-54225000D01*
G75*
G02*
X56225000Y-54025000I200000J0D01*
G01*
X56775000Y-54025000D01*
G75*
G02*
X56975000Y-54225000I0J-200000D01*
G01*
X56975000Y-54625000D01*
G75*
G02*
X56775000Y-54825000I-200000J0D01*
G01*
G37*
G36*
G01*
X56775000Y-56425000D02*
X56225000Y-56425000D01*
G75*
G02*
X56025000Y-56225000I0J200000D01*
G01*
X56025000Y-55825000D01*
G75*
G02*
X56225000Y-55625000I200000J0D01*
G01*
X56775000Y-55625000D01*
G75*
G02*
X56975000Y-55825000I0J-200000D01*
G01*
X56975000Y-56225000D01*
G75*
G02*
X56775000Y-56425000I-200000J0D01*
G01*
G37*
G36*
G01*
X56775000Y-58075000D02*
X56225000Y-58075000D01*
G75*
G02*
X56025000Y-57875000I0J200000D01*
G01*
X56025000Y-57475000D01*
G75*
G02*
X56225000Y-57275000I200000J0D01*
G01*
X56775000Y-57275000D01*
G75*
G02*
X56975000Y-57475000I0J-200000D01*
G01*
X56975000Y-57875000D01*
G75*
G02*
X56775000Y-58075000I-200000J0D01*
G01*
G37*
G36*
G01*
X57775000Y-59675000D02*
X57225000Y-59675000D01*
G75*
G02*
X57025000Y-59475000I0J200000D01*
G01*
X57025000Y-59075000D01*
G75*
G02*
X57225000Y-58875000I200000J0D01*
G01*
X57775000Y-58875000D01*
G75*
G02*
X57975000Y-59075000I0J-200000D01*
G01*
X57975000Y-59475000D01*
G75*
G02*
X57775000Y-59675000I-200000J0D01*
G01*
G37*
G36*
G01*
X57775000Y-61325000D02*
X57225000Y-61325000D01*
G75*
G02*
X57025000Y-61125000I0J200000D01*
G01*
X57025000Y-60725000D01*
G75*
G02*
X57225000Y-60525000I200000J0D01*
G01*
X57775000Y-60525000D01*
G75*
G02*
X57975000Y-60725000I0J-200000D01*
G01*
X57975000Y-61125000D01*
G75*
G02*
X57775000Y-61325000I-200000J0D01*
G01*
G37*
G36*
G01*
X55025000Y-53175000D02*
X54475000Y-53175000D01*
G75*
G02*
X54275000Y-52975000I0J200000D01*
G01*
X54275000Y-52575000D01*
G75*
G02*
X54475000Y-52375000I200000J0D01*
G01*
X55025000Y-52375000D01*
G75*
G02*
X55225000Y-52575000I0J-200000D01*
G01*
X55225000Y-52975000D01*
G75*
G02*
X55025000Y-53175000I-200000J0D01*
G01*
G37*
G36*
G01*
X55025000Y-54825000D02*
X54475000Y-54825000D01*
G75*
G02*
X54275000Y-54625000I0J200000D01*
G01*
X54275000Y-54225000D01*
G75*
G02*
X54475000Y-54025000I200000J0D01*
G01*
X55025000Y-54025000D01*
G75*
G02*
X55225000Y-54225000I0J-200000D01*
G01*
X55225000Y-54625000D01*
G75*
G02*
X55025000Y-54825000I-200000J0D01*
G01*
G37*
G36*
G01*
X96800000Y-66425001D02*
X96800000Y-65174999D01*
G75*
G02*
X97049999Y-64925000I249999J0D01*
G01*
X97675001Y-64925000D01*
G75*
G02*
X97925000Y-65174999I0J-249999D01*
G01*
X97925000Y-66425001D01*
G75*
G02*
X97675001Y-66675000I-249999J0D01*
G01*
X97049999Y-66675000D01*
G75*
G02*
X96800000Y-66425001I0J249999D01*
G01*
G37*
G36*
G01*
X93875000Y-66425001D02*
X93875000Y-65174999D01*
G75*
G02*
X94124999Y-64925000I249999J0D01*
G01*
X94750001Y-64925000D01*
G75*
G02*
X95000000Y-65174999I0J-249999D01*
G01*
X95000000Y-66425001D01*
G75*
G02*
X94750001Y-66675000I-249999J0D01*
G01*
X94124999Y-66675000D01*
G75*
G02*
X93875000Y-66425001I0J249999D01*
G01*
G37*
G36*
G01*
X70725000Y-61875000D02*
X70725000Y-61325000D01*
G75*
G02*
X70925000Y-61125000I200000J0D01*
G01*
X71325000Y-61125000D01*
G75*
G02*
X71525000Y-61325000I0J-200000D01*
G01*
X71525000Y-61875000D01*
G75*
G02*
X71325000Y-62075000I-200000J0D01*
G01*
X70925000Y-62075000D01*
G75*
G02*
X70725000Y-61875000I0J200000D01*
G01*
G37*
G36*
G01*
X69075000Y-61875000D02*
X69075000Y-61325000D01*
G75*
G02*
X69275000Y-61125000I200000J0D01*
G01*
X69675000Y-61125000D01*
G75*
G02*
X69875000Y-61325000I0J-200000D01*
G01*
X69875000Y-61875000D01*
G75*
G02*
X69675000Y-62075000I-200000J0D01*
G01*
X69275000Y-62075000D01*
G75*
G02*
X69075000Y-61875000I0J200000D01*
G01*
G37*
G36*
G01*
X78850000Y-70625000D02*
X79350000Y-70625000D01*
G75*
G02*
X79575000Y-70850000I0J-225000D01*
G01*
X79575000Y-71300000D01*
G75*
G02*
X79350000Y-71525000I-225000J0D01*
G01*
X78850000Y-71525000D01*
G75*
G02*
X78625000Y-71300000I0J225000D01*
G01*
X78625000Y-70850000D01*
G75*
G02*
X78850000Y-70625000I225000J0D01*
G01*
G37*
G36*
G01*
X78850000Y-69075000D02*
X79350000Y-69075000D01*
G75*
G02*
X79575000Y-69300000I0J-225000D01*
G01*
X79575000Y-69750000D01*
G75*
G02*
X79350000Y-69975000I-225000J0D01*
G01*
X78850000Y-69975000D01*
G75*
G02*
X78625000Y-69750000I0J225000D01*
G01*
X78625000Y-69300000D01*
G75*
G02*
X78850000Y-69075000I225000J0D01*
G01*
G37*
G36*
G01*
X78825000Y-67125000D02*
X79375000Y-67125000D01*
G75*
G02*
X79575000Y-67325000I0J-200000D01*
G01*
X79575000Y-67725000D01*
G75*
G02*
X79375000Y-67925000I-200000J0D01*
G01*
X78825000Y-67925000D01*
G75*
G02*
X78625000Y-67725000I0J200000D01*
G01*
X78625000Y-67325000D01*
G75*
G02*
X78825000Y-67125000I200000J0D01*
G01*
G37*
G36*
G01*
X78825000Y-65475000D02*
X79375000Y-65475000D01*
G75*
G02*
X79575000Y-65675000I0J-200000D01*
G01*
X79575000Y-66075000D01*
G75*
G02*
X79375000Y-66275000I-200000J0D01*
G01*
X78825000Y-66275000D01*
G75*
G02*
X78625000Y-66075000I0J200000D01*
G01*
X78625000Y-65675000D01*
G75*
G02*
X78825000Y-65475000I200000J0D01*
G01*
G37*
G36*
G01*
X81175000Y-51275000D02*
X80625000Y-51275000D01*
G75*
G02*
X80425000Y-51075000I0J200000D01*
G01*
X80425000Y-50675000D01*
G75*
G02*
X80625000Y-50475000I200000J0D01*
G01*
X81175000Y-50475000D01*
G75*
G02*
X81375000Y-50675000I0J-200000D01*
G01*
X81375000Y-51075000D01*
G75*
G02*
X81175000Y-51275000I-200000J0D01*
G01*
G37*
G36*
G01*
X81175000Y-52925000D02*
X80625000Y-52925000D01*
G75*
G02*
X80425000Y-52725000I0J200000D01*
G01*
X80425000Y-52325000D01*
G75*
G02*
X80625000Y-52125000I200000J0D01*
G01*
X81175000Y-52125000D01*
G75*
G02*
X81375000Y-52325000I0J-200000D01*
G01*
X81375000Y-52725000D01*
G75*
G02*
X81175000Y-52925000I-200000J0D01*
G01*
G37*
G36*
G01*
X90149999Y-48600000D02*
X91050001Y-48600000D01*
G75*
G02*
X91300000Y-48849999I0J-249999D01*
G01*
X91300000Y-49375001D01*
G75*
G02*
X91050001Y-49625000I-249999J0D01*
G01*
X90149999Y-49625000D01*
G75*
G02*
X89900000Y-49375001I0J249999D01*
G01*
X89900000Y-48849999D01*
G75*
G02*
X90149999Y-48600000I249999J0D01*
G01*
G37*
G36*
G01*
X90149999Y-46775000D02*
X91050001Y-46775000D01*
G75*
G02*
X91300000Y-47024999I0J-249999D01*
G01*
X91300000Y-47550001D01*
G75*
G02*
X91050001Y-47800000I-249999J0D01*
G01*
X90149999Y-47800000D01*
G75*
G02*
X89900000Y-47550001I0J249999D01*
G01*
X89900000Y-47024999D01*
G75*
G02*
X90149999Y-46775000I249999J0D01*
G01*
G37*
G36*
G01*
X76825000Y-73075000D02*
X77375000Y-73075000D01*
G75*
G02*
X77575000Y-73275000I0J-200000D01*
G01*
X77575000Y-73675000D01*
G75*
G02*
X77375000Y-73875000I-200000J0D01*
G01*
X76825000Y-73875000D01*
G75*
G02*
X76625000Y-73675000I0J200000D01*
G01*
X76625000Y-73275000D01*
G75*
G02*
X76825000Y-73075000I200000J0D01*
G01*
G37*
G36*
G01*
X76825000Y-71425000D02*
X77375000Y-71425000D01*
G75*
G02*
X77575000Y-71625000I0J-200000D01*
G01*
X77575000Y-72025000D01*
G75*
G02*
X77375000Y-72225000I-200000J0D01*
G01*
X76825000Y-72225000D01*
G75*
G02*
X76625000Y-72025000I0J200000D01*
G01*
X76625000Y-71625000D01*
G75*
G02*
X76825000Y-71425000I200000J0D01*
G01*
G37*
G36*
G01*
X76725000Y-53375000D02*
X76725000Y-52825000D01*
G75*
G02*
X76925000Y-52625000I200000J0D01*
G01*
X77325000Y-52625000D01*
G75*
G02*
X77525000Y-52825000I0J-200000D01*
G01*
X77525000Y-53375000D01*
G75*
G02*
X77325000Y-53575000I-200000J0D01*
G01*
X76925000Y-53575000D01*
G75*
G02*
X76725000Y-53375000I0J200000D01*
G01*
G37*
G36*
G01*
X75075000Y-53375000D02*
X75075000Y-52825000D01*
G75*
G02*
X75275000Y-52625000I200000J0D01*
G01*
X75675000Y-52625000D01*
G75*
G02*
X75875000Y-52825000I0J-200000D01*
G01*
X75875000Y-53375000D01*
G75*
G02*
X75675000Y-53575000I-200000J0D01*
G01*
X75275000Y-53575000D01*
G75*
G02*
X75075000Y-53375000I0J200000D01*
G01*
G37*
G36*
G01*
X75875000Y-54425000D02*
X75875000Y-54975000D01*
G75*
G02*
X75675000Y-55175000I-200000J0D01*
G01*
X75275000Y-55175000D01*
G75*
G02*
X75075000Y-54975000I0J200000D01*
G01*
X75075000Y-54425000D01*
G75*
G02*
X75275000Y-54225000I200000J0D01*
G01*
X75675000Y-54225000D01*
G75*
G02*
X75875000Y-54425000I0J-200000D01*
G01*
G37*
G36*
G01*
X77525000Y-54425000D02*
X77525000Y-54975000D01*
G75*
G02*
X77325000Y-55175000I-200000J0D01*
G01*
X76925000Y-55175000D01*
G75*
G02*
X76725000Y-54975000I0J200000D01*
G01*
X76725000Y-54425000D01*
G75*
G02*
X76925000Y-54225000I200000J0D01*
G01*
X77325000Y-54225000D01*
G75*
G02*
X77525000Y-54425000I0J-200000D01*
G01*
G37*
G36*
G01*
X62225000Y-59775000D02*
X62775000Y-59775000D01*
G75*
G02*
X62975000Y-59975000I0J-200000D01*
G01*
X62975000Y-60375000D01*
G75*
G02*
X62775000Y-60575000I-200000J0D01*
G01*
X62225000Y-60575000D01*
G75*
G02*
X62025000Y-60375000I0J200000D01*
G01*
X62025000Y-59975000D01*
G75*
G02*
X62225000Y-59775000I200000J0D01*
G01*
G37*
G36*
G01*
X62225000Y-58125000D02*
X62775000Y-58125000D01*
G75*
G02*
X62975000Y-58325000I0J-200000D01*
G01*
X62975000Y-58725000D01*
G75*
G02*
X62775000Y-58925000I-200000J0D01*
G01*
X62225000Y-58925000D01*
G75*
G02*
X62025000Y-58725000I0J200000D01*
G01*
X62025000Y-58325000D01*
G75*
G02*
X62225000Y-58125000I200000J0D01*
G01*
G37*
G36*
G01*
X72775000Y-47925000D02*
X72225000Y-47925000D01*
G75*
G02*
X72025000Y-47725000I0J200000D01*
G01*
X72025000Y-47325000D01*
G75*
G02*
X72225000Y-47125000I200000J0D01*
G01*
X72775000Y-47125000D01*
G75*
G02*
X72975000Y-47325000I0J-200000D01*
G01*
X72975000Y-47725000D01*
G75*
G02*
X72775000Y-47925000I-200000J0D01*
G01*
G37*
G36*
G01*
X72775000Y-49575000D02*
X72225000Y-49575000D01*
G75*
G02*
X72025000Y-49375000I0J200000D01*
G01*
X72025000Y-48975000D01*
G75*
G02*
X72225000Y-48775000I200000J0D01*
G01*
X72775000Y-48775000D01*
G75*
G02*
X72975000Y-48975000I0J-200000D01*
G01*
X72975000Y-49375000D01*
G75*
G02*
X72775000Y-49575000I-200000J0D01*
G01*
G37*
G36*
G01*
X61075000Y-55925000D02*
X61075000Y-56475000D01*
G75*
G02*
X60875000Y-56675000I-200000J0D01*
G01*
X60475000Y-56675000D01*
G75*
G02*
X60275000Y-56475000I0J200000D01*
G01*
X60275000Y-55925000D01*
G75*
G02*
X60475000Y-55725000I200000J0D01*
G01*
X60875000Y-55725000D01*
G75*
G02*
X61075000Y-55925000I0J-200000D01*
G01*
G37*
G36*
G01*
X62725000Y-55925000D02*
X62725000Y-56475000D01*
G75*
G02*
X62525000Y-56675000I-200000J0D01*
G01*
X62125000Y-56675000D01*
G75*
G02*
X61925000Y-56475000I0J200000D01*
G01*
X61925000Y-55925000D01*
G75*
G02*
X62125000Y-55725000I200000J0D01*
G01*
X62525000Y-55725000D01*
G75*
G02*
X62725000Y-55925000I0J-200000D01*
G01*
G37*
G36*
G01*
X58575000Y-53325000D02*
X58575000Y-53875000D01*
G75*
G02*
X58375000Y-54075000I-200000J0D01*
G01*
X57975000Y-54075000D01*
G75*
G02*
X57775000Y-53875000I0J200000D01*
G01*
X57775000Y-53325000D01*
G75*
G02*
X57975000Y-53125000I200000J0D01*
G01*
X58375000Y-53125000D01*
G75*
G02*
X58575000Y-53325000I0J-200000D01*
G01*
G37*
G36*
G01*
X60225000Y-53325000D02*
X60225000Y-53875000D01*
G75*
G02*
X60025000Y-54075000I-200000J0D01*
G01*
X59625000Y-54075000D01*
G75*
G02*
X59425000Y-53875000I0J200000D01*
G01*
X59425000Y-53325000D01*
G75*
G02*
X59625000Y-53125000I200000J0D01*
G01*
X60025000Y-53125000D01*
G75*
G02*
X60225000Y-53325000I0J-200000D01*
G01*
G37*
G36*
G01*
X59425000Y-52125000D02*
X59425000Y-51575000D01*
G75*
G02*
X59625000Y-51375000I200000J0D01*
G01*
X60025000Y-51375000D01*
G75*
G02*
X60225000Y-51575000I0J-200000D01*
G01*
X60225000Y-52125000D01*
G75*
G02*
X60025000Y-52325000I-200000J0D01*
G01*
X59625000Y-52325000D01*
G75*
G02*
X59425000Y-52125000I0J200000D01*
G01*
G37*
G36*
G01*
X57775000Y-52125000D02*
X57775000Y-51575000D01*
G75*
G02*
X57975000Y-51375000I200000J0D01*
G01*
X58375000Y-51375000D01*
G75*
G02*
X58575000Y-51575000I0J-200000D01*
G01*
X58575000Y-52125000D01*
G75*
G02*
X58375000Y-52325000I-200000J0D01*
G01*
X57975000Y-52325000D01*
G75*
G02*
X57775000Y-52125000I0J200000D01*
G01*
G37*
D24*
X52500000Y-55900000D03*
X53450000Y-57900000D03*
X51550000Y-57900000D03*
D39*
X85600000Y-49900000D03*
X83600000Y-50850000D03*
X83600000Y-48950000D03*
D40*
X44080000Y-38600000D03*
X44080000Y-79340000D03*
D41*
X42560000Y-47540000D03*
X45100000Y-47540000D03*
X42560000Y-50080000D03*
X45100000Y-50080000D03*
X42560000Y-52620000D03*
X45100000Y-52620000D03*
X42560000Y-55160000D03*
X45100000Y-55160000D03*
X42560000Y-57700000D03*
X45100000Y-57700000D03*
X42560000Y-60240000D03*
X45100000Y-60240000D03*
X42560000Y-62780000D03*
X45100000Y-62780000D03*
X42560000Y-65320000D03*
X45100000Y-65320000D03*
X42560000Y-67860000D03*
X45100000Y-67860000D03*
X42560000Y-70400000D03*
D42*
X45100000Y-70400000D03*
G36*
G01*
X99593750Y-75350000D02*
X100106250Y-75350000D01*
G75*
G02*
X100325000Y-75568750I0J-218750D01*
G01*
X100325000Y-76006250D01*
G75*
G02*
X100106250Y-76225000I-218750J0D01*
G01*
X99593750Y-76225000D01*
G75*
G02*
X99375000Y-76006250I0J218750D01*
G01*
X99375000Y-75568750D01*
G75*
G02*
X99593750Y-75350000I218750J0D01*
G01*
G37*
G36*
G01*
X99593750Y-73775000D02*
X100106250Y-73775000D01*
G75*
G02*
X100325000Y-73993750I0J-218750D01*
G01*
X100325000Y-74431250D01*
G75*
G02*
X100106250Y-74650000I-218750J0D01*
G01*
X99593750Y-74650000D01*
G75*
G02*
X99375000Y-74431250I0J218750D01*
G01*
X99375000Y-73993750D01*
G75*
G02*
X99593750Y-73775000I218750J0D01*
G01*
G37*
G36*
G01*
X102356250Y-74650000D02*
X101843750Y-74650000D01*
G75*
G02*
X101625000Y-74431250I0J218750D01*
G01*
X101625000Y-73993750D01*
G75*
G02*
X101843750Y-73775000I218750J0D01*
G01*
X102356250Y-73775000D01*
G75*
G02*
X102575000Y-73993750I0J-218750D01*
G01*
X102575000Y-74431250D01*
G75*
G02*
X102356250Y-74650000I-218750J0D01*
G01*
G37*
G36*
G01*
X102356250Y-76225000D02*
X101843750Y-76225000D01*
G75*
G02*
X101625000Y-76006250I0J218750D01*
G01*
X101625000Y-75568750D01*
G75*
G02*
X101843750Y-75350000I218750J0D01*
G01*
X102356250Y-75350000D01*
G75*
G02*
X102575000Y-75568750I0J-218750D01*
G01*
X102575000Y-76006250D01*
G75*
G02*
X102356250Y-76225000I-218750J0D01*
G01*
G37*
D43*
X83250000Y-65200000D03*
X87550000Y-65200000D03*
D39*
X53350000Y-68900000D03*
X55350000Y-67950000D03*
X55350000Y-69850000D03*
D43*
X74500000Y-72650000D03*
X70200000Y-72650000D03*
D44*
X112700000Y-78400000D03*
X110200000Y-78400000D03*
G36*
G01*
X59950000Y-46975000D02*
X59450000Y-46975000D01*
G75*
G02*
X59225000Y-46750000I0J225000D01*
G01*
X59225000Y-46300000D01*
G75*
G02*
X59450000Y-46075000I225000J0D01*
G01*
X59950000Y-46075000D01*
G75*
G02*
X60175000Y-46300000I0J-225000D01*
G01*
X60175000Y-46750000D01*
G75*
G02*
X59950000Y-46975000I-225000J0D01*
G01*
G37*
G36*
G01*
X59950000Y-48525000D02*
X59450000Y-48525000D01*
G75*
G02*
X59225000Y-48300000I0J225000D01*
G01*
X59225000Y-47850000D01*
G75*
G02*
X59450000Y-47625000I225000J0D01*
G01*
X59950000Y-47625000D01*
G75*
G02*
X60175000Y-47850000I0J-225000D01*
G01*
X60175000Y-48300000D01*
G75*
G02*
X59950000Y-48525000I-225000J0D01*
G01*
G37*
G36*
G01*
X105099999Y-38375000D02*
X107300001Y-38375000D01*
G75*
G02*
X107550000Y-38624999I0J-249999D01*
G01*
X107550000Y-39275001D01*
G75*
G02*
X107300001Y-39525000I-249999J0D01*
G01*
X105099999Y-39525000D01*
G75*
G02*
X104850000Y-39275001I0J249999D01*
G01*
X104850000Y-38624999D01*
G75*
G02*
X105099999Y-38375000I249999J0D01*
G01*
G37*
G36*
G01*
X105099999Y-35425000D02*
X107300001Y-35425000D01*
G75*
G02*
X107550000Y-35674999I0J-249999D01*
G01*
X107550000Y-36325001D01*
G75*
G02*
X107300001Y-36575000I-249999J0D01*
G01*
X105099999Y-36575000D01*
G75*
G02*
X104850000Y-36325001I0J249999D01*
G01*
X104850000Y-35674999D01*
G75*
G02*
X105099999Y-35425000I249999J0D01*
G01*
G37*
G36*
G01*
X167300000Y-79300000D02*
X169300000Y-79300000D01*
G75*
G02*
X169550000Y-79550000I0J-250000D01*
G01*
X169550000Y-83050000D01*
G75*
G02*
X169300000Y-83300000I-250000J0D01*
G01*
X167300000Y-83300000D01*
G75*
G02*
X167050000Y-83050000I0J250000D01*
G01*
X167050000Y-79550000D01*
G75*
G02*
X167300000Y-79300000I250000J0D01*
G01*
G37*
G36*
G01*
X167300000Y-71300000D02*
X169300000Y-71300000D01*
G75*
G02*
X169550000Y-71550000I0J-250000D01*
G01*
X169550000Y-75050000D01*
G75*
G02*
X169300000Y-75300000I-250000J0D01*
G01*
X167300000Y-75300000D01*
G75*
G02*
X167050000Y-75050000I0J250000D01*
G01*
X167050000Y-71550000D01*
G75*
G02*
X167300000Y-71300000I250000J0D01*
G01*
G37*
G36*
G01*
X169300000Y-38700000D02*
X167300000Y-38700000D01*
G75*
G02*
X167050000Y-38450000I0J250000D01*
G01*
X167050000Y-34950000D01*
G75*
G02*
X167300000Y-34700000I250000J0D01*
G01*
X169300000Y-34700000D01*
G75*
G02*
X169550000Y-34950000I0J-250000D01*
G01*
X169550000Y-38450000D01*
G75*
G02*
X169300000Y-38700000I-250000J0D01*
G01*
G37*
G36*
G01*
X169300000Y-46700000D02*
X167300000Y-46700000D01*
G75*
G02*
X167050000Y-46450000I0J250000D01*
G01*
X167050000Y-42950000D01*
G75*
G02*
X167300000Y-42700000I250000J0D01*
G01*
X169300000Y-42700000D01*
G75*
G02*
X169550000Y-42950000I0J-250000D01*
G01*
X169550000Y-46450000D01*
G75*
G02*
X169300000Y-46700000I-250000J0D01*
G01*
G37*
G36*
G01*
X104750000Y-61675000D02*
X104250000Y-61675000D01*
G75*
G02*
X104025000Y-61450000I0J225000D01*
G01*
X104025000Y-61000000D01*
G75*
G02*
X104250000Y-60775000I225000J0D01*
G01*
X104750000Y-60775000D01*
G75*
G02*
X104975000Y-61000000I0J-225000D01*
G01*
X104975000Y-61450000D01*
G75*
G02*
X104750000Y-61675000I-225000J0D01*
G01*
G37*
G36*
G01*
X104750000Y-63225000D02*
X104250000Y-63225000D01*
G75*
G02*
X104025000Y-63000000I0J225000D01*
G01*
X104025000Y-62550000D01*
G75*
G02*
X104250000Y-62325000I225000J0D01*
G01*
X104750000Y-62325000D01*
G75*
G02*
X104975000Y-62550000I0J-225000D01*
G01*
X104975000Y-63000000D01*
G75*
G02*
X104750000Y-63225000I-225000J0D01*
G01*
G37*
G36*
G01*
X90099999Y-67800000D02*
X92300001Y-67800000D01*
G75*
G02*
X92550000Y-68049999I0J-249999D01*
G01*
X92550000Y-68700001D01*
G75*
G02*
X92300001Y-68950000I-249999J0D01*
G01*
X90099999Y-68950000D01*
G75*
G02*
X89850000Y-68700001I0J249999D01*
G01*
X89850000Y-68049999D01*
G75*
G02*
X90099999Y-67800000I249999J0D01*
G01*
G37*
G36*
G01*
X90099999Y-64850000D02*
X92300001Y-64850000D01*
G75*
G02*
X92550000Y-65099999I0J-249999D01*
G01*
X92550000Y-65750001D01*
G75*
G02*
X92300001Y-66000000I-249999J0D01*
G01*
X90099999Y-66000000D01*
G75*
G02*
X89850000Y-65750001I0J249999D01*
G01*
X89850000Y-65099999D01*
G75*
G02*
X90099999Y-64850000I249999J0D01*
G01*
G37*
G36*
G01*
X53900000Y-71675000D02*
X53900000Y-72625000D01*
G75*
G02*
X53650000Y-72875000I-250000J0D01*
G01*
X53150000Y-72875000D01*
G75*
G02*
X52900000Y-72625000I0J250000D01*
G01*
X52900000Y-71675000D01*
G75*
G02*
X53150000Y-71425000I250000J0D01*
G01*
X53650000Y-71425000D01*
G75*
G02*
X53900000Y-71675000I0J-250000D01*
G01*
G37*
G36*
G01*
X55800000Y-71675000D02*
X55800000Y-72625000D01*
G75*
G02*
X55550000Y-72875000I-250000J0D01*
G01*
X55050000Y-72875000D01*
G75*
G02*
X54800000Y-72625000I0J250000D01*
G01*
X54800000Y-71675000D01*
G75*
G02*
X55050000Y-71425000I250000J0D01*
G01*
X55550000Y-71425000D01*
G75*
G02*
X55800000Y-71675000I0J-250000D01*
G01*
G37*
G36*
G01*
X70575000Y-75850000D02*
X70575000Y-76350000D01*
G75*
G02*
X70350000Y-76575000I-225000J0D01*
G01*
X69900000Y-76575000D01*
G75*
G02*
X69675000Y-76350000I0J225000D01*
G01*
X69675000Y-75850000D01*
G75*
G02*
X69900000Y-75625000I225000J0D01*
G01*
X70350000Y-75625000D01*
G75*
G02*
X70575000Y-75850000I0J-225000D01*
G01*
G37*
G36*
G01*
X72125000Y-75850000D02*
X72125000Y-76350000D01*
G75*
G02*
X71900000Y-76575000I-225000J0D01*
G01*
X71450000Y-76575000D01*
G75*
G02*
X71225000Y-76350000I0J225000D01*
G01*
X71225000Y-75850000D01*
G75*
G02*
X71450000Y-75625000I225000J0D01*
G01*
X71900000Y-75625000D01*
G75*
G02*
X72125000Y-75850000I0J-225000D01*
G01*
G37*
G36*
G01*
X70150000Y-66675000D02*
X69650000Y-66675000D01*
G75*
G02*
X69425000Y-66450000I0J225000D01*
G01*
X69425000Y-66000000D01*
G75*
G02*
X69650000Y-65775000I225000J0D01*
G01*
X70150000Y-65775000D01*
G75*
G02*
X70375000Y-66000000I0J-225000D01*
G01*
X70375000Y-66450000D01*
G75*
G02*
X70150000Y-66675000I-225000J0D01*
G01*
G37*
G36*
G01*
X70150000Y-68225000D02*
X69650000Y-68225000D01*
G75*
G02*
X69425000Y-68000000I0J225000D01*
G01*
X69425000Y-67550000D01*
G75*
G02*
X69650000Y-67325000I225000J0D01*
G01*
X70150000Y-67325000D01*
G75*
G02*
X70375000Y-67550000I0J-225000D01*
G01*
X70375000Y-68000000D01*
G75*
G02*
X70150000Y-68225000I-225000J0D01*
G01*
G37*
G36*
G01*
X58850000Y-57325000D02*
X59350000Y-57325000D01*
G75*
G02*
X59575000Y-57550000I0J-225000D01*
G01*
X59575000Y-58000000D01*
G75*
G02*
X59350000Y-58225000I-225000J0D01*
G01*
X58850000Y-58225000D01*
G75*
G02*
X58625000Y-58000000I0J225000D01*
G01*
X58625000Y-57550000D01*
G75*
G02*
X58850000Y-57325000I225000J0D01*
G01*
G37*
G36*
G01*
X58850000Y-55775000D02*
X59350000Y-55775000D01*
G75*
G02*
X59575000Y-56000000I0J-225000D01*
G01*
X59575000Y-56450000D01*
G75*
G02*
X59350000Y-56675000I-225000J0D01*
G01*
X58850000Y-56675000D01*
G75*
G02*
X58625000Y-56450000I0J225000D01*
G01*
X58625000Y-56000000D01*
G75*
G02*
X58850000Y-55775000I225000J0D01*
G01*
G37*
G36*
G01*
X74750000Y-48025000D02*
X74250000Y-48025000D01*
G75*
G02*
X74025000Y-47800000I0J225000D01*
G01*
X74025000Y-47350000D01*
G75*
G02*
X74250000Y-47125000I225000J0D01*
G01*
X74750000Y-47125000D01*
G75*
G02*
X74975000Y-47350000I0J-225000D01*
G01*
X74975000Y-47800000D01*
G75*
G02*
X74750000Y-48025000I-225000J0D01*
G01*
G37*
G36*
G01*
X74750000Y-49575000D02*
X74250000Y-49575000D01*
G75*
G02*
X74025000Y-49350000I0J225000D01*
G01*
X74025000Y-48900000D01*
G75*
G02*
X74250000Y-48675000I225000J0D01*
G01*
X74750000Y-48675000D01*
G75*
G02*
X74975000Y-48900000I0J-225000D01*
G01*
X74975000Y-49350000D01*
G75*
G02*
X74750000Y-49575000I-225000J0D01*
G01*
G37*
G36*
G01*
X60500000Y-59675000D02*
X61000000Y-59675000D01*
G75*
G02*
X61225000Y-59900000I0J-225000D01*
G01*
X61225000Y-60350000D01*
G75*
G02*
X61000000Y-60575000I-225000J0D01*
G01*
X60500000Y-60575000D01*
G75*
G02*
X60275000Y-60350000I0J225000D01*
G01*
X60275000Y-59900000D01*
G75*
G02*
X60500000Y-59675000I225000J0D01*
G01*
G37*
G36*
G01*
X60500000Y-58125000D02*
X61000000Y-58125000D01*
G75*
G02*
X61225000Y-58350000I0J-225000D01*
G01*
X61225000Y-58800000D01*
G75*
G02*
X61000000Y-59025000I-225000J0D01*
G01*
X60500000Y-59025000D01*
G75*
G02*
X60275000Y-58800000I0J225000D01*
G01*
X60275000Y-58350000D01*
G75*
G02*
X60500000Y-58125000I225000J0D01*
G01*
G37*
D45*
X105300000Y-40700000D03*
X107100000Y-40700000D03*
D46*
X150900000Y-54000000D03*
X150900000Y-56000000D03*
X150900000Y-55000000D03*
X150900000Y-62000000D03*
X150900000Y-63000000D03*
X150900000Y-64000000D03*
D45*
X168300000Y-33000000D03*
X179300000Y-33000000D03*
X190300000Y-53200000D03*
X190300000Y-64600000D03*
D47*
X121000000Y-40200000D03*
X174675000Y-56275000D03*
X97100000Y-46300000D03*
D46*
X104450000Y-55450000D03*
D47*
X104500000Y-59800000D03*
X88525000Y-68375000D03*
X75675000Y-47575000D03*
X80900000Y-53800000D03*
X78500000Y-53100000D03*
X78500000Y-56300000D03*
D45*
X165400000Y-81300000D03*
X182300000Y-81400000D03*
D47*
X98825000Y-82425000D03*
X51500000Y-77100000D03*
X59100000Y-77100000D03*
X52000000Y-71800000D03*
X71800000Y-70200000D03*
X74350000Y-70550000D03*
X68600000Y-65900000D03*
X79100000Y-72600000D03*
X56539025Y-51623959D03*
X62500000Y-61300000D03*
X59100000Y-59000000D03*
X53450000Y-59150000D03*
X63900000Y-59300000D03*
X67200000Y-52800000D03*
X69100000Y-52800000D03*
X68300000Y-52800000D03*
X68300000Y-58400000D03*
X67200000Y-58400000D03*
X69300000Y-58400000D03*
X58425000Y-46525000D03*
X64025000Y-53325000D03*
D46*
X173000000Y-66000000D03*
X161100000Y-67500000D03*
X172800000Y-52000000D03*
X161000000Y-50500000D03*
D47*
X87700000Y-86600000D03*
X89100000Y-86100000D03*
X86200000Y-85812010D03*
X172885600Y-58000000D03*
X173000015Y-61995462D03*
X93400000Y-83500000D03*
X172996532Y-63003468D03*
X93400000Y-86100000D03*
X173000169Y-56998520D03*
X173000000Y-60000000D03*
X100600000Y-85400000D03*
X99600000Y-42300000D03*
X100300000Y-46000000D03*
X65900000Y-75800000D03*
X62600000Y-75800000D03*
X62500000Y-52400000D03*
X65700000Y-49200000D03*
X41112010Y-72300000D03*
X39200000Y-58100000D03*
X68900000Y-45900000D03*
X88800000Y-45900000D03*
X92200000Y-45900000D03*
X63496532Y-48903468D03*
M02*
