%TF.GenerationSoftware,KiCad,Pcbnew,5.1.9-73d0e3b20d~88~ubuntu20.04.1*%
%TF.CreationDate,2021-03-10T23:10:45+08:00*%
%TF.ProjectId,OV_Power,4f565f50-6f77-4657-922e-6b696361645f,3.A*%
%TF.SameCoordinates,Original*%
%TF.FileFunction,Paste,Top*%
%TF.FilePolarity,Positive*%
%FSLAX46Y46*%
G04 Gerber Fmt 4.6, Leading zero omitted, Abs format (unit mm)*
G04 Created by KiCad (PCBNEW 5.1.9-73d0e3b20d~88~ubuntu20.04.1) date 2021-03-10 23:10:45*
%MOMM*%
%LPD*%
G01*
G04 APERTURE LIST*
%ADD10C,0.100000*%
%ADD11C,0.150000*%
%ADD12C,0.300000*%
%ADD13C,0.400000*%
%TA.AperFunction,Profile*%
%ADD14C,0.050000*%
%TD*%
%ADD15R,0.800000X0.900000*%
%ADD16R,2.500000X1.800000*%
%ADD17R,6.310000X2.070000*%
%ADD18R,4.000000X2.000000*%
%ADD19R,1.800000X3.600000*%
%ADD20R,1.400000X0.300000*%
%ADD21R,3.730000X2.750000*%
%ADD22R,7.800000X2.750000*%
%ADD23R,0.660000X1.350000*%
%ADD24R,1.249800X1.676400*%
%ADD25R,0.889000X0.420000*%
%ADD26R,0.822000X0.712500*%
%ADD27R,1.100000X0.400000*%
%ADD28R,0.900000X0.800000*%
%ADD29R,2.500000X2.300000*%
G04 APERTURE END LIST*
D10*
D11*
X177002200Y-166007200D02*
X177002200Y-198007200D01*
X285002200Y-198007200D01*
X285002200Y-166007200D01*
X177002200Y-166007200D01*
D10*
D11*
X10000000Y-10000000D02*
X10000000Y-200007200D01*
X287002200Y-200007200D01*
X287002200Y-10000000D01*
X10000000Y-10000000D01*
D10*
D11*
X12000000Y-12000000D02*
X12000000Y-198007200D01*
X285002200Y-198007200D01*
X285002200Y-12000000D01*
X12000000Y-12000000D01*
D10*
D11*
X60000000Y-12000000D02*
X60000000Y-10000000D01*
D10*
D11*
X110000000Y-12000000D02*
X110000000Y-10000000D01*
D10*
D11*
X160000000Y-12000000D02*
X160000000Y-10000000D01*
D10*
D11*
X210000000Y-12000000D02*
X210000000Y-10000000D01*
D10*
D11*
X260000000Y-12000000D02*
X260000000Y-10000000D01*
D10*
D11*
X36065476Y-11588095D02*
X35322619Y-11588095D01*
X35694047Y-11588095D02*
X35694047Y-10288095D01*
X35570238Y-10473809D01*
X35446428Y-10597619D01*
X35322619Y-10659523D01*
D10*
D11*
X85322619Y-10411904D02*
X85384523Y-10350000D01*
X85508333Y-10288095D01*
X85817857Y-10288095D01*
X85941666Y-10350000D01*
X86003571Y-10411904D01*
X86065476Y-10535714D01*
X86065476Y-10659523D01*
X86003571Y-10845238D01*
X85260714Y-11588095D01*
X86065476Y-11588095D01*
D10*
D11*
X135260714Y-10288095D02*
X136065476Y-10288095D01*
X135632142Y-10783333D01*
X135817857Y-10783333D01*
X135941666Y-10845238D01*
X136003571Y-10907142D01*
X136065476Y-11030952D01*
X136065476Y-11340476D01*
X136003571Y-11464285D01*
X135941666Y-11526190D01*
X135817857Y-11588095D01*
X135446428Y-11588095D01*
X135322619Y-11526190D01*
X135260714Y-11464285D01*
D10*
D11*
X185941666Y-10721428D02*
X185941666Y-11588095D01*
X185632142Y-10226190D02*
X185322619Y-11154761D01*
X186127380Y-11154761D01*
D10*
D11*
X236003571Y-10288095D02*
X235384523Y-10288095D01*
X235322619Y-10907142D01*
X235384523Y-10845238D01*
X235508333Y-10783333D01*
X235817857Y-10783333D01*
X235941666Y-10845238D01*
X236003571Y-10907142D01*
X236065476Y-11030952D01*
X236065476Y-11340476D01*
X236003571Y-11464285D01*
X235941666Y-11526190D01*
X235817857Y-11588095D01*
X235508333Y-11588095D01*
X235384523Y-11526190D01*
X235322619Y-11464285D01*
D10*
D11*
X285941666Y-10288095D02*
X285694047Y-10288095D01*
X285570238Y-10350000D01*
X285508333Y-10411904D01*
X285384523Y-10597619D01*
X285322619Y-10845238D01*
X285322619Y-11340476D01*
X285384523Y-11464285D01*
X285446428Y-11526190D01*
X285570238Y-11588095D01*
X285817857Y-11588095D01*
X285941666Y-11526190D01*
X286003571Y-11464285D01*
X286065476Y-11340476D01*
X286065476Y-11030952D01*
X286003571Y-10907142D01*
X285941666Y-10845238D01*
X285817857Y-10783333D01*
X285570238Y-10783333D01*
X285446428Y-10845238D01*
X285384523Y-10907142D01*
X285322619Y-11030952D01*
D10*
D11*
X60000000Y-198007200D02*
X60000000Y-200007200D01*
D10*
D11*
X110000000Y-198007200D02*
X110000000Y-200007200D01*
D10*
D11*
X160000000Y-198007200D02*
X160000000Y-200007200D01*
D10*
D11*
X210000000Y-198007200D02*
X210000000Y-200007200D01*
D10*
D11*
X260000000Y-198007200D02*
X260000000Y-200007200D01*
D10*
D11*
X36065476Y-199595295D02*
X35322619Y-199595295D01*
X35694047Y-199595295D02*
X35694047Y-198295295D01*
X35570238Y-198481009D01*
X35446428Y-198604819D01*
X35322619Y-198666723D01*
D10*
D11*
X85322619Y-198419104D02*
X85384523Y-198357200D01*
X85508333Y-198295295D01*
X85817857Y-198295295D01*
X85941666Y-198357200D01*
X86003571Y-198419104D01*
X86065476Y-198542914D01*
X86065476Y-198666723D01*
X86003571Y-198852438D01*
X85260714Y-199595295D01*
X86065476Y-199595295D01*
D10*
D11*
X135260714Y-198295295D02*
X136065476Y-198295295D01*
X135632142Y-198790533D01*
X135817857Y-198790533D01*
X135941666Y-198852438D01*
X136003571Y-198914342D01*
X136065476Y-199038152D01*
X136065476Y-199347676D01*
X136003571Y-199471485D01*
X135941666Y-199533390D01*
X135817857Y-199595295D01*
X135446428Y-199595295D01*
X135322619Y-199533390D01*
X135260714Y-199471485D01*
D10*
D11*
X185941666Y-198728628D02*
X185941666Y-199595295D01*
X185632142Y-198233390D02*
X185322619Y-199161961D01*
X186127380Y-199161961D01*
D10*
D11*
X236003571Y-198295295D02*
X235384523Y-198295295D01*
X235322619Y-198914342D01*
X235384523Y-198852438D01*
X235508333Y-198790533D01*
X235817857Y-198790533D01*
X235941666Y-198852438D01*
X236003571Y-198914342D01*
X236065476Y-199038152D01*
X236065476Y-199347676D01*
X236003571Y-199471485D01*
X235941666Y-199533390D01*
X235817857Y-199595295D01*
X235508333Y-199595295D01*
X235384523Y-199533390D01*
X235322619Y-199471485D01*
D10*
D11*
X285941666Y-198295295D02*
X285694047Y-198295295D01*
X285570238Y-198357200D01*
X285508333Y-198419104D01*
X285384523Y-198604819D01*
X285322619Y-198852438D01*
X285322619Y-199347676D01*
X285384523Y-199471485D01*
X285446428Y-199533390D01*
X285570238Y-199595295D01*
X285817857Y-199595295D01*
X285941666Y-199533390D01*
X286003571Y-199471485D01*
X286065476Y-199347676D01*
X286065476Y-199038152D01*
X286003571Y-198914342D01*
X285941666Y-198852438D01*
X285817857Y-198790533D01*
X285570238Y-198790533D01*
X285446428Y-198852438D01*
X285384523Y-198914342D01*
X285322619Y-199038152D01*
D10*
D11*
X10000000Y-60000000D02*
X12000000Y-60000000D01*
D10*
D11*
X10000000Y-110000000D02*
X12000000Y-110000000D01*
D10*
D11*
X10000000Y-160000000D02*
X12000000Y-160000000D01*
D10*
D11*
X10690476Y-35216666D02*
X11309523Y-35216666D01*
X10566666Y-35588095D02*
X11000000Y-34288095D01*
X11433333Y-35588095D01*
D10*
D11*
X11092857Y-84907142D02*
X11278571Y-84969047D01*
X11340476Y-85030952D01*
X11402380Y-85154761D01*
X11402380Y-85340476D01*
X11340476Y-85464285D01*
X11278571Y-85526190D01*
X11154761Y-85588095D01*
X10659523Y-85588095D01*
X10659523Y-84288095D01*
X11092857Y-84288095D01*
X11216666Y-84350000D01*
X11278571Y-84411904D01*
X11340476Y-84535714D01*
X11340476Y-84659523D01*
X11278571Y-84783333D01*
X11216666Y-84845238D01*
X11092857Y-84907142D01*
X10659523Y-84907142D01*
D10*
D11*
X11402380Y-135464285D02*
X11340476Y-135526190D01*
X11154761Y-135588095D01*
X11030952Y-135588095D01*
X10845238Y-135526190D01*
X10721428Y-135402380D01*
X10659523Y-135278571D01*
X10597619Y-135030952D01*
X10597619Y-134845238D01*
X10659523Y-134597619D01*
X10721428Y-134473809D01*
X10845238Y-134350000D01*
X11030952Y-134288095D01*
X11154761Y-134288095D01*
X11340476Y-134350000D01*
X11402380Y-134411904D01*
D10*
D11*
X10659523Y-185588095D02*
X10659523Y-184288095D01*
X10969047Y-184288095D01*
X11154761Y-184350000D01*
X11278571Y-184473809D01*
X11340476Y-184597619D01*
X11402380Y-184845238D01*
X11402380Y-185030952D01*
X11340476Y-185278571D01*
X11278571Y-185402380D01*
X11154761Y-185526190D01*
X10969047Y-185588095D01*
X10659523Y-185588095D01*
D10*
D11*
X287002200Y-60000000D02*
X285002200Y-60000000D01*
D10*
D11*
X287002200Y-110000000D02*
X285002200Y-110000000D01*
D10*
D11*
X287002200Y-160000000D02*
X285002200Y-160000000D01*
D10*
D11*
X285692676Y-35216666D02*
X286311723Y-35216666D01*
X285568866Y-35588095D02*
X286002200Y-34288095D01*
X286435533Y-35588095D01*
D10*
D11*
X286095057Y-84907142D02*
X286280771Y-84969047D01*
X286342676Y-85030952D01*
X286404580Y-85154761D01*
X286404580Y-85340476D01*
X286342676Y-85464285D01*
X286280771Y-85526190D01*
X286156961Y-85588095D01*
X285661723Y-85588095D01*
X285661723Y-84288095D01*
X286095057Y-84288095D01*
X286218866Y-84350000D01*
X286280771Y-84411904D01*
X286342676Y-84535714D01*
X286342676Y-84659523D01*
X286280771Y-84783333D01*
X286218866Y-84845238D01*
X286095057Y-84907142D01*
X285661723Y-84907142D01*
D10*
D11*
X286404580Y-135464285D02*
X286342676Y-135526190D01*
X286156961Y-135588095D01*
X286033152Y-135588095D01*
X285847438Y-135526190D01*
X285723628Y-135402380D01*
X285661723Y-135278571D01*
X285599819Y-135030952D01*
X285599819Y-134845238D01*
X285661723Y-134597619D01*
X285723628Y-134473809D01*
X285847438Y-134350000D01*
X286033152Y-134288095D01*
X286156961Y-134288095D01*
X286342676Y-134350000D01*
X286404580Y-134411904D01*
D10*
D11*
X285661723Y-185588095D02*
X285661723Y-184288095D01*
X285971247Y-184288095D01*
X286156961Y-184350000D01*
X286280771Y-184473809D01*
X286342676Y-184597619D01*
X286404580Y-184845238D01*
X286404580Y-185030952D01*
X286342676Y-185278571D01*
X286280771Y-185402380D01*
X286156961Y-185526190D01*
X285971247Y-185588095D01*
X285661723Y-185588095D01*
D10*
D11*
X200434342Y-193785771D02*
X200434342Y-192285771D01*
X200791485Y-192285771D01*
X201005771Y-192357200D01*
X201148628Y-192500057D01*
X201220057Y-192642914D01*
X201291485Y-192928628D01*
X201291485Y-193142914D01*
X201220057Y-193428628D01*
X201148628Y-193571485D01*
X201005771Y-193714342D01*
X200791485Y-193785771D01*
X200434342Y-193785771D01*
X202577200Y-193785771D02*
X202577200Y-193000057D01*
X202505771Y-192857200D01*
X202362914Y-192785771D01*
X202077200Y-192785771D01*
X201934342Y-192857200D01*
X202577200Y-193714342D02*
X202434342Y-193785771D01*
X202077200Y-193785771D01*
X201934342Y-193714342D01*
X201862914Y-193571485D01*
X201862914Y-193428628D01*
X201934342Y-193285771D01*
X202077200Y-193214342D01*
X202434342Y-193214342D01*
X202577200Y-193142914D01*
X203077200Y-192785771D02*
X203648628Y-192785771D01*
X203291485Y-192285771D02*
X203291485Y-193571485D01*
X203362914Y-193714342D01*
X203505771Y-193785771D01*
X203648628Y-193785771D01*
X204720057Y-193714342D02*
X204577200Y-193785771D01*
X204291485Y-193785771D01*
X204148628Y-193714342D01*
X204077200Y-193571485D01*
X204077200Y-193000057D01*
X204148628Y-192857200D01*
X204291485Y-192785771D01*
X204577200Y-192785771D01*
X204720057Y-192857200D01*
X204791485Y-193000057D01*
X204791485Y-193142914D01*
X204077200Y-193285771D01*
X205434342Y-193642914D02*
X205505771Y-193714342D01*
X205434342Y-193785771D01*
X205362914Y-193714342D01*
X205434342Y-193642914D01*
X205434342Y-193785771D01*
X205434342Y-192857200D02*
X205505771Y-192928628D01*
X205434342Y-193000057D01*
X205362914Y-192928628D01*
X205434342Y-192857200D01*
X205434342Y-193000057D01*
X207220057Y-192428628D02*
X207291485Y-192357200D01*
X207434342Y-192285771D01*
X207791485Y-192285771D01*
X207934342Y-192357200D01*
X208005771Y-192428628D01*
X208077200Y-192571485D01*
X208077200Y-192714342D01*
X208005771Y-192928628D01*
X207148628Y-193785771D01*
X208077200Y-193785771D01*
X209005771Y-192285771D02*
X209148628Y-192285771D01*
X209291485Y-192357200D01*
X209362914Y-192428628D01*
X209434342Y-192571485D01*
X209505771Y-192857200D01*
X209505771Y-193214342D01*
X209434342Y-193500057D01*
X209362914Y-193642914D01*
X209291485Y-193714342D01*
X209148628Y-193785771D01*
X209005771Y-193785771D01*
X208862914Y-193714342D01*
X208791485Y-193642914D01*
X208720057Y-193500057D01*
X208648628Y-193214342D01*
X208648628Y-192857200D01*
X208720057Y-192571485D01*
X208791485Y-192428628D01*
X208862914Y-192357200D01*
X209005771Y-192285771D01*
X210077200Y-192428628D02*
X210148628Y-192357200D01*
X210291485Y-192285771D01*
X210648628Y-192285771D01*
X210791485Y-192357200D01*
X210862914Y-192428628D01*
X210934342Y-192571485D01*
X210934342Y-192714342D01*
X210862914Y-192928628D01*
X210005771Y-193785771D01*
X210934342Y-193785771D01*
X212362914Y-193785771D02*
X211505771Y-193785771D01*
X211934342Y-193785771D02*
X211934342Y-192285771D01*
X211791485Y-192500057D01*
X211648628Y-192642914D01*
X211505771Y-192714342D01*
X213005771Y-193214342D02*
X214148628Y-193214342D01*
X215148628Y-192285771D02*
X215291485Y-192285771D01*
X215434342Y-192357200D01*
X215505771Y-192428628D01*
X215577200Y-192571485D01*
X215648628Y-192857200D01*
X215648628Y-193214342D01*
X215577200Y-193500057D01*
X215505771Y-193642914D01*
X215434342Y-193714342D01*
X215291485Y-193785771D01*
X215148628Y-193785771D01*
X215005771Y-193714342D01*
X214934342Y-193642914D01*
X214862914Y-193500057D01*
X214791485Y-193214342D01*
X214791485Y-192857200D01*
X214862914Y-192571485D01*
X214934342Y-192428628D01*
X215005771Y-192357200D01*
X215148628Y-192285771D01*
X217077200Y-193785771D02*
X216220057Y-193785771D01*
X216648628Y-193785771D02*
X216648628Y-192285771D01*
X216505771Y-192500057D01*
X216362914Y-192642914D01*
X216220057Y-192714342D01*
X217720057Y-193214342D02*
X218862914Y-193214342D01*
X220362914Y-193785771D02*
X219505771Y-193785771D01*
X219934342Y-193785771D02*
X219934342Y-192285771D01*
X219791485Y-192500057D01*
X219648628Y-192642914D01*
X219505771Y-192714342D01*
X221291485Y-192285771D02*
X221434342Y-192285771D01*
X221577200Y-192357200D01*
X221648628Y-192428628D01*
X221720057Y-192571485D01*
X221791485Y-192857200D01*
X221791485Y-193214342D01*
X221720057Y-193500057D01*
X221648628Y-193642914D01*
X221577200Y-193714342D01*
X221434342Y-193785771D01*
X221291485Y-193785771D01*
X221148628Y-193714342D01*
X221077200Y-193642914D01*
X221005771Y-193500057D01*
X220934342Y-193214342D01*
X220934342Y-192857200D01*
X221005771Y-192571485D01*
X221077200Y-192428628D01*
X221148628Y-192357200D01*
X221291485Y-192285771D01*
D10*
D11*
X177002200Y-194507200D02*
X285002200Y-194507200D01*
D10*
D11*
X178434342Y-196585771D02*
X178434342Y-195085771D01*
X179291485Y-196585771D02*
X178648628Y-195728628D01*
X179291485Y-195085771D02*
X178434342Y-195942914D01*
X179934342Y-196585771D02*
X179934342Y-195585771D01*
X179934342Y-195085771D02*
X179862914Y-195157200D01*
X179934342Y-195228628D01*
X180005771Y-195157200D01*
X179934342Y-195085771D01*
X179934342Y-195228628D01*
X181505771Y-196442914D02*
X181434342Y-196514342D01*
X181220057Y-196585771D01*
X181077200Y-196585771D01*
X180862914Y-196514342D01*
X180720057Y-196371485D01*
X180648628Y-196228628D01*
X180577200Y-195942914D01*
X180577200Y-195728628D01*
X180648628Y-195442914D01*
X180720057Y-195300057D01*
X180862914Y-195157200D01*
X181077200Y-195085771D01*
X181220057Y-195085771D01*
X181434342Y-195157200D01*
X181505771Y-195228628D01*
X182791485Y-196585771D02*
X182791485Y-195800057D01*
X182720057Y-195657200D01*
X182577200Y-195585771D01*
X182291485Y-195585771D01*
X182148628Y-195657200D01*
X182791485Y-196514342D02*
X182648628Y-196585771D01*
X182291485Y-196585771D01*
X182148628Y-196514342D01*
X182077200Y-196371485D01*
X182077200Y-196228628D01*
X182148628Y-196085771D01*
X182291485Y-196014342D01*
X182648628Y-196014342D01*
X182791485Y-195942914D01*
X184148628Y-196585771D02*
X184148628Y-195085771D01*
X184148628Y-196514342D02*
X184005771Y-196585771D01*
X183720057Y-196585771D01*
X183577200Y-196514342D01*
X183505771Y-196442914D01*
X183434342Y-196300057D01*
X183434342Y-195871485D01*
X183505771Y-195728628D01*
X183577200Y-195657200D01*
X183720057Y-195585771D01*
X184005771Y-195585771D01*
X184148628Y-195657200D01*
X186005771Y-195800057D02*
X186505771Y-195800057D01*
X186720057Y-196585771D02*
X186005771Y-196585771D01*
X186005771Y-195085771D01*
X186720057Y-195085771D01*
X187362914Y-196442914D02*
X187434342Y-196514342D01*
X187362914Y-196585771D01*
X187291485Y-196514342D01*
X187362914Y-196442914D01*
X187362914Y-196585771D01*
X188077200Y-196585771D02*
X188077200Y-195085771D01*
X188434342Y-195085771D01*
X188648628Y-195157200D01*
X188791485Y-195300057D01*
X188862914Y-195442914D01*
X188934342Y-195728628D01*
X188934342Y-195942914D01*
X188862914Y-196228628D01*
X188791485Y-196371485D01*
X188648628Y-196514342D01*
X188434342Y-196585771D01*
X188077200Y-196585771D01*
X189577200Y-196442914D02*
X189648628Y-196514342D01*
X189577200Y-196585771D01*
X189505771Y-196514342D01*
X189577200Y-196442914D01*
X189577200Y-196585771D01*
X190220057Y-196157200D02*
X190934342Y-196157200D01*
X190077200Y-196585771D02*
X190577200Y-195085771D01*
X191077200Y-196585771D01*
X191577200Y-196442914D02*
X191648628Y-196514342D01*
X191577200Y-196585771D01*
X191505771Y-196514342D01*
X191577200Y-196442914D01*
X191577200Y-196585771D01*
X194577200Y-196585771D02*
X194577200Y-195085771D01*
X194720057Y-196014342D02*
X195148628Y-196585771D01*
X195148628Y-195585771D02*
X194577200Y-196157200D01*
X195791485Y-196585771D02*
X195791485Y-195585771D01*
X195791485Y-195085771D02*
X195720057Y-195157200D01*
X195791485Y-195228628D01*
X195862914Y-195157200D01*
X195791485Y-195085771D01*
X195791485Y-195228628D01*
X197148628Y-196514342D02*
X197005771Y-196585771D01*
X196720057Y-196585771D01*
X196577200Y-196514342D01*
X196505771Y-196442914D01*
X196434342Y-196300057D01*
X196434342Y-195871485D01*
X196505771Y-195728628D01*
X196577200Y-195657200D01*
X196720057Y-195585771D01*
X197005771Y-195585771D01*
X197148628Y-195657200D01*
X198434342Y-196585771D02*
X198434342Y-195800057D01*
X198362914Y-195657200D01*
X198220057Y-195585771D01*
X197934342Y-195585771D01*
X197791485Y-195657200D01*
X198434342Y-196514342D02*
X198291485Y-196585771D01*
X197934342Y-196585771D01*
X197791485Y-196514342D01*
X197720057Y-196371485D01*
X197720057Y-196228628D01*
X197791485Y-196085771D01*
X197934342Y-196014342D01*
X198291485Y-196014342D01*
X198434342Y-195942914D01*
X199791485Y-196585771D02*
X199791485Y-195085771D01*
X199791485Y-196514342D02*
X199648628Y-196585771D01*
X199362914Y-196585771D01*
X199220057Y-196514342D01*
X199148628Y-196442914D01*
X199077200Y-196300057D01*
X199077200Y-195871485D01*
X199148628Y-195728628D01*
X199220057Y-195657200D01*
X199362914Y-195585771D01*
X199648628Y-195585771D01*
X199791485Y-195657200D01*
X202362914Y-195085771D02*
X201648628Y-195085771D01*
X201577200Y-195800057D01*
X201648628Y-195728628D01*
X201791485Y-195657200D01*
X202148628Y-195657200D01*
X202291485Y-195728628D01*
X202362914Y-195800057D01*
X202434342Y-195942914D01*
X202434342Y-196300057D01*
X202362914Y-196442914D01*
X202291485Y-196514342D01*
X202148628Y-196585771D01*
X201791485Y-196585771D01*
X201648628Y-196514342D01*
X201577200Y-196442914D01*
X203077200Y-196442914D02*
X203148628Y-196514342D01*
X203077200Y-196585771D01*
X203005771Y-196514342D01*
X203077200Y-196442914D01*
X203077200Y-196585771D01*
X204577200Y-196585771D02*
X203720057Y-196585771D01*
X204148628Y-196585771D02*
X204148628Y-195085771D01*
X204005771Y-195300057D01*
X203862914Y-195442914D01*
X203720057Y-195514342D01*
X205220057Y-196442914D02*
X205291485Y-196514342D01*
X205220057Y-196585771D01*
X205148628Y-196514342D01*
X205220057Y-196442914D01*
X205220057Y-196585771D01*
X206005771Y-196585771D02*
X206291485Y-196585771D01*
X206434342Y-196514342D01*
X206505771Y-196442914D01*
X206648628Y-196228628D01*
X206720057Y-195942914D01*
X206720057Y-195371485D01*
X206648628Y-195228628D01*
X206577200Y-195157200D01*
X206434342Y-195085771D01*
X206148628Y-195085771D01*
X206005771Y-195157200D01*
X205934342Y-195228628D01*
X205862914Y-195371485D01*
X205862914Y-195728628D01*
X205934342Y-195871485D01*
X206005771Y-195942914D01*
X206148628Y-196014342D01*
X206434342Y-196014342D01*
X206577200Y-195942914D01*
X206648628Y-195871485D01*
X206720057Y-195728628D01*
X207362914Y-196014342D02*
X208505771Y-196014342D01*
X209077200Y-195085771D02*
X210077200Y-195085771D01*
X209434342Y-196585771D01*
X210505771Y-195085771D02*
X211434342Y-195085771D01*
X210934342Y-195657200D01*
X211148628Y-195657200D01*
X211291485Y-195728628D01*
X211362914Y-195800057D01*
X211434342Y-195942914D01*
X211434342Y-196300057D01*
X211362914Y-196442914D01*
X211291485Y-196514342D01*
X211148628Y-196585771D01*
X210720057Y-196585771D01*
X210577200Y-196514342D01*
X210505771Y-196442914D01*
X212720057Y-196585771D02*
X212720057Y-195085771D01*
X212720057Y-196514342D02*
X212577200Y-196585771D01*
X212291485Y-196585771D01*
X212148628Y-196514342D01*
X212077200Y-196442914D01*
X212005771Y-196300057D01*
X212005771Y-195871485D01*
X212077200Y-195728628D01*
X212148628Y-195657200D01*
X212291485Y-195585771D01*
X212577200Y-195585771D01*
X212720057Y-195657200D01*
X213720057Y-195085771D02*
X213862914Y-195085771D01*
X214005771Y-195157200D01*
X214077200Y-195228628D01*
X214148628Y-195371485D01*
X214220057Y-195657200D01*
X214220057Y-196014342D01*
X214148628Y-196300057D01*
X214077200Y-196442914D01*
X214005771Y-196514342D01*
X213862914Y-196585771D01*
X213720057Y-196585771D01*
X213577200Y-196514342D01*
X213505771Y-196442914D01*
X213434342Y-196300057D01*
X213362914Y-196014342D01*
X213362914Y-195657200D01*
X213434342Y-195371485D01*
X213505771Y-195228628D01*
X213577200Y-195157200D01*
X213720057Y-195085771D01*
X215434342Y-196514342D02*
X215291485Y-196585771D01*
X215005771Y-196585771D01*
X214862914Y-196514342D01*
X214791485Y-196371485D01*
X214791485Y-195800057D01*
X214862914Y-195657200D01*
X215005771Y-195585771D01*
X215291485Y-195585771D01*
X215434342Y-195657200D01*
X215505771Y-195800057D01*
X215505771Y-195942914D01*
X214791485Y-196085771D01*
X216005771Y-195085771D02*
X216934342Y-195085771D01*
X216434342Y-195657200D01*
X216648628Y-195657200D01*
X216791485Y-195728628D01*
X216862914Y-195800057D01*
X216934342Y-195942914D01*
X216934342Y-196300057D01*
X216862914Y-196442914D01*
X216791485Y-196514342D01*
X216648628Y-196585771D01*
X216220057Y-196585771D01*
X216077200Y-196514342D01*
X216005771Y-196442914D01*
X217577200Y-196585771D02*
X217577200Y-195085771D01*
X217577200Y-195657200D02*
X217720057Y-195585771D01*
X218005771Y-195585771D01*
X218148628Y-195657200D01*
X218220057Y-195728628D01*
X218291485Y-195871485D01*
X218291485Y-196300057D01*
X218220057Y-196442914D01*
X218148628Y-196514342D01*
X218005771Y-196585771D01*
X217720057Y-196585771D01*
X217577200Y-196514342D01*
X218862914Y-195228628D02*
X218934342Y-195157200D01*
X219077200Y-195085771D01*
X219434342Y-195085771D01*
X219577200Y-195157200D01*
X219648628Y-195228628D01*
X219720057Y-195371485D01*
X219720057Y-195514342D01*
X219648628Y-195728628D01*
X218791485Y-196585771D01*
X219720057Y-196585771D01*
X220648628Y-195085771D02*
X220791485Y-195085771D01*
X220934342Y-195157200D01*
X221005771Y-195228628D01*
X221077200Y-195371485D01*
X221148628Y-195657200D01*
X221148628Y-196014342D01*
X221077200Y-196300057D01*
X221005771Y-196442914D01*
X220934342Y-196514342D01*
X220791485Y-196585771D01*
X220648628Y-196585771D01*
X220505771Y-196514342D01*
X220434342Y-196442914D01*
X220362914Y-196300057D01*
X220291485Y-196014342D01*
X220291485Y-195657200D01*
X220362914Y-195371485D01*
X220434342Y-195228628D01*
X220505771Y-195157200D01*
X220648628Y-195085771D01*
X222434342Y-196585771D02*
X222434342Y-195085771D01*
X222434342Y-196514342D02*
X222291485Y-196585771D01*
X222005771Y-196585771D01*
X221862914Y-196514342D01*
X221791485Y-196442914D01*
X221720057Y-196300057D01*
X221720057Y-195871485D01*
X221791485Y-195728628D01*
X221862914Y-195657200D01*
X222005771Y-195585771D01*
X222291485Y-195585771D01*
X222434342Y-195657200D01*
X222791485Y-194677200D02*
X224220057Y-194677200D01*
X223362914Y-195728628D02*
X223220057Y-195657200D01*
X223148628Y-195585771D01*
X223077200Y-195442914D01*
X223077200Y-195371485D01*
X223148628Y-195228628D01*
X223220057Y-195157200D01*
X223362914Y-195085771D01*
X223648628Y-195085771D01*
X223791485Y-195157200D01*
X223862914Y-195228628D01*
X223934342Y-195371485D01*
X223934342Y-195442914D01*
X223862914Y-195585771D01*
X223791485Y-195657200D01*
X223648628Y-195728628D01*
X223362914Y-195728628D01*
X223220057Y-195800057D01*
X223148628Y-195871485D01*
X223077200Y-196014342D01*
X223077200Y-196300057D01*
X223148628Y-196442914D01*
X223220057Y-196514342D01*
X223362914Y-196585771D01*
X223648628Y-196585771D01*
X223791485Y-196514342D01*
X223862914Y-196442914D01*
X223934342Y-196300057D01*
X223934342Y-196014342D01*
X223862914Y-195871485D01*
X223791485Y-195800057D01*
X223648628Y-195728628D01*
X224220057Y-194677200D02*
X225648628Y-194677200D01*
X224791485Y-195728628D02*
X224648628Y-195657200D01*
X224577200Y-195585771D01*
X224505771Y-195442914D01*
X224505771Y-195371485D01*
X224577200Y-195228628D01*
X224648628Y-195157200D01*
X224791485Y-195085771D01*
X225077200Y-195085771D01*
X225220057Y-195157200D01*
X225291485Y-195228628D01*
X225362914Y-195371485D01*
X225362914Y-195442914D01*
X225291485Y-195585771D01*
X225220057Y-195657200D01*
X225077200Y-195728628D01*
X224791485Y-195728628D01*
X224648628Y-195800057D01*
X224577200Y-195871485D01*
X224505771Y-196014342D01*
X224505771Y-196300057D01*
X224577200Y-196442914D01*
X224648628Y-196514342D01*
X224791485Y-196585771D01*
X225077200Y-196585771D01*
X225220057Y-196514342D01*
X225291485Y-196442914D01*
X225362914Y-196300057D01*
X225362914Y-196014342D01*
X225291485Y-195871485D01*
X225220057Y-195800057D01*
X225077200Y-195728628D01*
X226648628Y-195585771D02*
X226648628Y-196585771D01*
X226005771Y-195585771D02*
X226005771Y-196371485D01*
X226077199Y-196514342D01*
X226220057Y-196585771D01*
X226434342Y-196585771D01*
X226577199Y-196514342D01*
X226648628Y-196442914D01*
X227362914Y-196585771D02*
X227362914Y-195085771D01*
X227362914Y-195657200D02*
X227505771Y-195585771D01*
X227791485Y-195585771D01*
X227934342Y-195657200D01*
X228005771Y-195728628D01*
X228077200Y-195871485D01*
X228077200Y-196300057D01*
X228005771Y-196442914D01*
X227934342Y-196514342D01*
X227791485Y-196585771D01*
X227505771Y-196585771D01*
X227362914Y-196514342D01*
X229362914Y-195585771D02*
X229362914Y-196585771D01*
X228720057Y-195585771D02*
X228720057Y-196371485D01*
X228791485Y-196514342D01*
X228934342Y-196585771D01*
X229148628Y-196585771D01*
X229291485Y-196514342D01*
X229362914Y-196442914D01*
X230077200Y-195585771D02*
X230077200Y-196585771D01*
X230077200Y-195728628D02*
X230148628Y-195657200D01*
X230291485Y-195585771D01*
X230505771Y-195585771D01*
X230648628Y-195657200D01*
X230720057Y-195800057D01*
X230720057Y-196585771D01*
X231220057Y-195585771D02*
X231791485Y-195585771D01*
X231434342Y-195085771D02*
X231434342Y-196371485D01*
X231505771Y-196514342D01*
X231648628Y-196585771D01*
X231791485Y-196585771D01*
X232934342Y-195585771D02*
X232934342Y-196585771D01*
X232291485Y-195585771D02*
X232291485Y-196371485D01*
X232362914Y-196514342D01*
X232505771Y-196585771D01*
X232720057Y-196585771D01*
X232862914Y-196514342D01*
X232934342Y-196442914D01*
X233577200Y-195228628D02*
X233648628Y-195157200D01*
X233791485Y-195085771D01*
X234148628Y-195085771D01*
X234291485Y-195157200D01*
X234362914Y-195228628D01*
X234434342Y-195371485D01*
X234434342Y-195514342D01*
X234362914Y-195728628D01*
X233505771Y-196585771D01*
X234434342Y-196585771D01*
X235362914Y-195085771D02*
X235505771Y-195085771D01*
X235648628Y-195157200D01*
X235720057Y-195228628D01*
X235791485Y-195371485D01*
X235862914Y-195657200D01*
X235862914Y-196014342D01*
X235791485Y-196300057D01*
X235720057Y-196442914D01*
X235648628Y-196514342D01*
X235505771Y-196585771D01*
X235362914Y-196585771D01*
X235220057Y-196514342D01*
X235148628Y-196442914D01*
X235077200Y-196300057D01*
X235005771Y-196014342D01*
X235005771Y-195657200D01*
X235077200Y-195371485D01*
X235148628Y-195228628D01*
X235220057Y-195157200D01*
X235362914Y-195085771D01*
X236505771Y-196442914D02*
X236577199Y-196514342D01*
X236505771Y-196585771D01*
X236434342Y-196514342D01*
X236505771Y-196442914D01*
X236505771Y-196585771D01*
X237505771Y-195085771D02*
X237648628Y-195085771D01*
X237791485Y-195157200D01*
X237862914Y-195228628D01*
X237934342Y-195371485D01*
X238005771Y-195657200D01*
X238005771Y-196014342D01*
X237934342Y-196300057D01*
X237862914Y-196442914D01*
X237791485Y-196514342D01*
X237648628Y-196585771D01*
X237505771Y-196585771D01*
X237362914Y-196514342D01*
X237291485Y-196442914D01*
X237220057Y-196300057D01*
X237148628Y-196014342D01*
X237148628Y-195657200D01*
X237220057Y-195371485D01*
X237291485Y-195228628D01*
X237362914Y-195157200D01*
X237505771Y-195085771D01*
X239291485Y-195585771D02*
X239291485Y-196585771D01*
X238934342Y-195014342D02*
X238577199Y-196085771D01*
X239505771Y-196085771D01*
X240077199Y-196442914D02*
X240148628Y-196514342D01*
X240077199Y-196585771D01*
X240005771Y-196514342D01*
X240077199Y-196442914D01*
X240077199Y-196585771D01*
X241577199Y-196585771D02*
X240720057Y-196585771D01*
X241148628Y-196585771D02*
X241148628Y-195085771D01*
X241005771Y-195300057D01*
X240862914Y-195442914D01*
X240720057Y-195514342D01*
D10*
D11*
X177002200Y-191507200D02*
X285002200Y-191507200D01*
D10*
D12*
X264411485Y-193785771D02*
X263911485Y-193071485D01*
X263554342Y-193785771D02*
X263554342Y-192285771D01*
X264125771Y-192285771D01*
X264268628Y-192357200D01*
X264340057Y-192428628D01*
X264411485Y-192571485D01*
X264411485Y-192785771D01*
X264340057Y-192928628D01*
X264268628Y-193000057D01*
X264125771Y-193071485D01*
X263554342Y-193071485D01*
X265625771Y-193714342D02*
X265482914Y-193785771D01*
X265197200Y-193785771D01*
X265054342Y-193714342D01*
X264982914Y-193571485D01*
X264982914Y-193000057D01*
X265054342Y-192857200D01*
X265197200Y-192785771D01*
X265482914Y-192785771D01*
X265625771Y-192857200D01*
X265697200Y-193000057D01*
X265697200Y-193142914D01*
X264982914Y-193285771D01*
X266197200Y-192785771D02*
X266554342Y-193785771D01*
X266911485Y-192785771D01*
X267482914Y-193642914D02*
X267554342Y-193714342D01*
X267482914Y-193785771D01*
X267411485Y-193714342D01*
X267482914Y-193642914D01*
X267482914Y-193785771D01*
X267482914Y-192857200D02*
X267554342Y-192928628D01*
X267482914Y-193000057D01*
X267411485Y-192928628D01*
X267482914Y-192857200D01*
X267482914Y-193000057D01*
X269197200Y-192285771D02*
X270125771Y-192285771D01*
X269625771Y-192857200D01*
X269840057Y-192857200D01*
X269982914Y-192928628D01*
X270054342Y-193000057D01*
X270125771Y-193142914D01*
X270125771Y-193500057D01*
X270054342Y-193642914D01*
X269982914Y-193714342D01*
X269840057Y-193785771D01*
X269411485Y-193785771D01*
X269268628Y-193714342D01*
X269197200Y-193642914D01*
X270768628Y-193642914D02*
X270840057Y-193714342D01*
X270768628Y-193785771D01*
X270697200Y-193714342D01*
X270768628Y-193642914D01*
X270768628Y-193785771D01*
X271411485Y-193357200D02*
X272125771Y-193357200D01*
X271268628Y-193785771D02*
X271768628Y-192285771D01*
X272268628Y-193785771D01*
D10*
D11*
X178362914Y-193714342D02*
X178577200Y-193785771D01*
X178934342Y-193785771D01*
X179077200Y-193714342D01*
X179148628Y-193642914D01*
X179220057Y-193500057D01*
X179220057Y-193357200D01*
X179148628Y-193214342D01*
X179077200Y-193142914D01*
X178934342Y-193071485D01*
X178648628Y-193000057D01*
X178505771Y-192928628D01*
X178434342Y-192857200D01*
X178362914Y-192714342D01*
X178362914Y-192571485D01*
X178434342Y-192428628D01*
X178505771Y-192357200D01*
X178648628Y-192285771D01*
X179005771Y-192285771D01*
X179220057Y-192357200D01*
X179862914Y-193785771D02*
X179862914Y-192785771D01*
X179862914Y-192285771D02*
X179791485Y-192357200D01*
X179862914Y-192428628D01*
X179934342Y-192357200D01*
X179862914Y-192285771D01*
X179862914Y-192428628D01*
X180434342Y-192785771D02*
X181220057Y-192785771D01*
X180434342Y-193785771D01*
X181220057Y-193785771D01*
X182362914Y-193714342D02*
X182220057Y-193785771D01*
X181934342Y-193785771D01*
X181791485Y-193714342D01*
X181720057Y-193571485D01*
X181720057Y-193000057D01*
X181791485Y-192857200D01*
X181934342Y-192785771D01*
X182220057Y-192785771D01*
X182362914Y-192857200D01*
X182434342Y-193000057D01*
X182434342Y-193142914D01*
X181720057Y-193285771D01*
X183077200Y-193642914D02*
X183148628Y-193714342D01*
X183077200Y-193785771D01*
X183005771Y-193714342D01*
X183077200Y-193642914D01*
X183077200Y-193785771D01*
X183077200Y-192857200D02*
X183148628Y-192928628D01*
X183077200Y-193000057D01*
X183005771Y-192928628D01*
X183077200Y-192857200D01*
X183077200Y-193000057D01*
X184862914Y-193357200D02*
X185577200Y-193357200D01*
X184720057Y-193785771D02*
X185220057Y-192285771D01*
X185720057Y-193785771D01*
X186862914Y-192785771D02*
X186862914Y-193785771D01*
X186505771Y-192214342D02*
X186148628Y-193285771D01*
X187077200Y-193285771D01*
D10*
D11*
X263434342Y-196585771D02*
X263434342Y-195085771D01*
X264791485Y-196585771D02*
X264791485Y-195085771D01*
X264791485Y-196514342D02*
X264648628Y-196585771D01*
X264362914Y-196585771D01*
X264220057Y-196514342D01*
X264148628Y-196442914D01*
X264077200Y-196300057D01*
X264077200Y-195871485D01*
X264148628Y-195728628D01*
X264220057Y-195657200D01*
X264362914Y-195585771D01*
X264648628Y-195585771D01*
X264791485Y-195657200D01*
X265505771Y-196442914D02*
X265577200Y-196514342D01*
X265505771Y-196585771D01*
X265434342Y-196514342D01*
X265505771Y-196442914D01*
X265505771Y-196585771D01*
X265505771Y-195657200D02*
X265577200Y-195728628D01*
X265505771Y-195800057D01*
X265434342Y-195728628D01*
X265505771Y-195657200D01*
X265505771Y-195800057D01*
X268148628Y-196585771D02*
X267291485Y-196585771D01*
X267720057Y-196585771D02*
X267720057Y-195085771D01*
X267577200Y-195300057D01*
X267434342Y-195442914D01*
X267291485Y-195514342D01*
X269862914Y-195014342D02*
X268577200Y-196942914D01*
X271148628Y-196585771D02*
X270291485Y-196585771D01*
X270720057Y-196585771D02*
X270720057Y-195085771D01*
X270577200Y-195300057D01*
X270434342Y-195442914D01*
X270291485Y-195514342D01*
D10*
D11*
X177002200Y-187507200D02*
X285002200Y-187507200D01*
D10*
D13*
X178714580Y-188211961D02*
X179857438Y-188211961D01*
X179036009Y-190211961D02*
X179286009Y-188211961D01*
X180274104Y-190211961D02*
X180440771Y-188878628D01*
X180524104Y-188211961D02*
X180416961Y-188307200D01*
X180500295Y-188402438D01*
X180607438Y-188307200D01*
X180524104Y-188211961D01*
X180500295Y-188402438D01*
X181107438Y-188878628D02*
X181869342Y-188878628D01*
X181476485Y-188211961D02*
X181262200Y-189926247D01*
X181333628Y-190116723D01*
X181512200Y-190211961D01*
X181702676Y-190211961D01*
X182655057Y-190211961D02*
X182476485Y-190116723D01*
X182405057Y-189926247D01*
X182619342Y-188211961D01*
X184190771Y-190116723D02*
X183988390Y-190211961D01*
X183607438Y-190211961D01*
X183428866Y-190116723D01*
X183357438Y-189926247D01*
X183452676Y-189164342D01*
X183571723Y-188973866D01*
X183774104Y-188878628D01*
X184155057Y-188878628D01*
X184333628Y-188973866D01*
X184405057Y-189164342D01*
X184381247Y-189354819D01*
X183405057Y-189545295D01*
X185155057Y-190021485D02*
X185238390Y-190116723D01*
X185131247Y-190211961D01*
X185047914Y-190116723D01*
X185155057Y-190021485D01*
X185131247Y-190211961D01*
X185286009Y-188973866D02*
X185369342Y-189069104D01*
X185262200Y-189164342D01*
X185178866Y-189069104D01*
X185286009Y-188973866D01*
X185262200Y-189164342D01*
X187607438Y-190211961D02*
X187857438Y-188211961D01*
X188619342Y-188211961D01*
X188797914Y-188307200D01*
X188881247Y-188402438D01*
X188952676Y-188592914D01*
X188916961Y-188878628D01*
X188797914Y-189069104D01*
X188690771Y-189164342D01*
X188488390Y-189259580D01*
X187726485Y-189259580D01*
X189893152Y-190211961D02*
X189714580Y-190116723D01*
X189631247Y-190021485D01*
X189559819Y-189831009D01*
X189631247Y-189259580D01*
X189750295Y-189069104D01*
X189857438Y-188973866D01*
X190059819Y-188878628D01*
X190345533Y-188878628D01*
X190524104Y-188973866D01*
X190607438Y-189069104D01*
X190678866Y-189259580D01*
X190607438Y-189831009D01*
X190488390Y-190021485D01*
X190381247Y-190116723D01*
X190178866Y-190211961D01*
X189893152Y-190211961D01*
X191393152Y-188878628D02*
X191607438Y-190211961D01*
X192107438Y-189259580D01*
X192369342Y-190211961D01*
X192916961Y-188878628D01*
X194286009Y-190116723D02*
X194083628Y-190211961D01*
X193702676Y-190211961D01*
X193524104Y-190116723D01*
X193452676Y-189926247D01*
X193547914Y-189164342D01*
X193666961Y-188973866D01*
X193869342Y-188878628D01*
X194250295Y-188878628D01*
X194428866Y-188973866D01*
X194500295Y-189164342D01*
X194476485Y-189354819D01*
X193500295Y-189545295D01*
X195226485Y-190211961D02*
X195393152Y-188878628D01*
X195345533Y-189259580D02*
X195464580Y-189069104D01*
X195571723Y-188973866D01*
X195774104Y-188878628D01*
X195964580Y-188878628D01*
X198786009Y-189164342D02*
X199059819Y-189259580D01*
X199143152Y-189354819D01*
X199214580Y-189545295D01*
X199178866Y-189831009D01*
X199059819Y-190021485D01*
X198952676Y-190116723D01*
X198750295Y-190211961D01*
X197988390Y-190211961D01*
X198238390Y-188211961D01*
X198905057Y-188211961D01*
X199083628Y-188307200D01*
X199166961Y-188402438D01*
X199238390Y-188592914D01*
X199214580Y-188783390D01*
X199095533Y-188973866D01*
X198988390Y-189069104D01*
X198786009Y-189164342D01*
X198119342Y-189164342D01*
X200274104Y-190211961D02*
X200095533Y-190116723D01*
X200012200Y-190021485D01*
X199940771Y-189831009D01*
X200012200Y-189259580D01*
X200131247Y-189069104D01*
X200238390Y-188973866D01*
X200440771Y-188878628D01*
X200726485Y-188878628D01*
X200905057Y-188973866D01*
X200988390Y-189069104D01*
X201059819Y-189259580D01*
X200988390Y-189831009D01*
X200869342Y-190021485D01*
X200762200Y-190116723D01*
X200559819Y-190211961D01*
X200274104Y-190211961D01*
X202655057Y-190211961D02*
X202786009Y-189164342D01*
X202714580Y-188973866D01*
X202536009Y-188878628D01*
X202155057Y-188878628D01*
X201952676Y-188973866D01*
X202666961Y-190116723D02*
X202464580Y-190211961D01*
X201988390Y-190211961D01*
X201809819Y-190116723D01*
X201738390Y-189926247D01*
X201762200Y-189735771D01*
X201881247Y-189545295D01*
X202083628Y-189450057D01*
X202559819Y-189450057D01*
X202762200Y-189354819D01*
X203607438Y-190211961D02*
X203774104Y-188878628D01*
X203726485Y-189259580D02*
X203845533Y-189069104D01*
X203952676Y-188973866D01*
X204155057Y-188878628D01*
X204345533Y-188878628D01*
X205702676Y-190211961D02*
X205952676Y-188211961D01*
X205714580Y-190116723D02*
X205512200Y-190211961D01*
X205131247Y-190211961D01*
X204952676Y-190116723D01*
X204869342Y-190021485D01*
X204797914Y-189831009D01*
X204869342Y-189259580D01*
X204988390Y-189069104D01*
X205095533Y-188973866D01*
X205297914Y-188878628D01*
X205678866Y-188878628D01*
X205857438Y-188973866D01*
D10*
D11*
X178934342Y-185600057D02*
X178434342Y-185600057D01*
X178434342Y-186385771D02*
X178434342Y-184885771D01*
X179148628Y-184885771D01*
X179720057Y-186385771D02*
X179720057Y-185385771D01*
X179720057Y-184885771D02*
X179648628Y-184957200D01*
X179720057Y-185028628D01*
X179791485Y-184957200D01*
X179720057Y-184885771D01*
X179720057Y-185028628D01*
X180648628Y-186385771D02*
X180505771Y-186314342D01*
X180434342Y-186171485D01*
X180434342Y-184885771D01*
X181791485Y-186314342D02*
X181648628Y-186385771D01*
X181362914Y-186385771D01*
X181220057Y-186314342D01*
X181148628Y-186171485D01*
X181148628Y-185600057D01*
X181220057Y-185457200D01*
X181362914Y-185385771D01*
X181648628Y-185385771D01*
X181791485Y-185457200D01*
X181862914Y-185600057D01*
X181862914Y-185742914D01*
X181148628Y-185885771D01*
X182505771Y-186242914D02*
X182577200Y-186314342D01*
X182505771Y-186385771D01*
X182434342Y-186314342D01*
X182505771Y-186242914D01*
X182505771Y-186385771D01*
X182505771Y-185457200D02*
X182577200Y-185528628D01*
X182505771Y-185600057D01*
X182434342Y-185528628D01*
X182505771Y-185457200D01*
X182505771Y-185600057D01*
X184648628Y-184885771D02*
X184934342Y-184885771D01*
X185077200Y-184957200D01*
X185220057Y-185100057D01*
X185291485Y-185385771D01*
X185291485Y-185885771D01*
X185220057Y-186171485D01*
X185077200Y-186314342D01*
X184934342Y-186385771D01*
X184648628Y-186385771D01*
X184505771Y-186314342D01*
X184362914Y-186171485D01*
X184291485Y-185885771D01*
X184291485Y-185385771D01*
X184362914Y-185100057D01*
X184505771Y-184957200D01*
X184648628Y-184885771D01*
X185720057Y-184885771D02*
X186220057Y-186385771D01*
X186720057Y-184885771D01*
X186862914Y-186528628D02*
X188005771Y-186528628D01*
X188362914Y-186385771D02*
X188362914Y-184885771D01*
X188934342Y-184885771D01*
X189077200Y-184957200D01*
X189148628Y-185028628D01*
X189220057Y-185171485D01*
X189220057Y-185385771D01*
X189148628Y-185528628D01*
X189077200Y-185600057D01*
X188934342Y-185671485D01*
X188362914Y-185671485D01*
X190077200Y-186385771D02*
X189934342Y-186314342D01*
X189862914Y-186242914D01*
X189791485Y-186100057D01*
X189791485Y-185671485D01*
X189862914Y-185528628D01*
X189934342Y-185457200D01*
X190077200Y-185385771D01*
X190291485Y-185385771D01*
X190434342Y-185457200D01*
X190505771Y-185528628D01*
X190577200Y-185671485D01*
X190577200Y-186100057D01*
X190505771Y-186242914D01*
X190434342Y-186314342D01*
X190291485Y-186385771D01*
X190077200Y-186385771D01*
X191077200Y-185385771D02*
X191362914Y-186385771D01*
X191648628Y-185671485D01*
X191934342Y-186385771D01*
X192220057Y-185385771D01*
X193362914Y-186314342D02*
X193220057Y-186385771D01*
X192934342Y-186385771D01*
X192791485Y-186314342D01*
X192720057Y-186171485D01*
X192720057Y-185600057D01*
X192791485Y-185457200D01*
X192934342Y-185385771D01*
X193220057Y-185385771D01*
X193362914Y-185457200D01*
X193434342Y-185600057D01*
X193434342Y-185742914D01*
X192720057Y-185885771D01*
X194077200Y-186385771D02*
X194077200Y-185385771D01*
X194077200Y-185671485D02*
X194148628Y-185528628D01*
X194220057Y-185457200D01*
X194362914Y-185385771D01*
X194505771Y-185385771D01*
X195005771Y-186242914D02*
X195077200Y-186314342D01*
X195005771Y-186385771D01*
X194934342Y-186314342D01*
X195005771Y-186242914D01*
X195005771Y-186385771D01*
X195720057Y-186385771D02*
X195720057Y-184885771D01*
X195862914Y-185814342D02*
X196291485Y-186385771D01*
X196291485Y-185385771D02*
X195720057Y-185957200D01*
X196934342Y-186385771D02*
X196934342Y-185385771D01*
X196934342Y-184885771D02*
X196862914Y-184957200D01*
X196934342Y-185028628D01*
X197005771Y-184957200D01*
X196934342Y-184885771D01*
X196934342Y-185028628D01*
X198291485Y-186314342D02*
X198148628Y-186385771D01*
X197862914Y-186385771D01*
X197720057Y-186314342D01*
X197648628Y-186242914D01*
X197577200Y-186100057D01*
X197577200Y-185671485D01*
X197648628Y-185528628D01*
X197720057Y-185457200D01*
X197862914Y-185385771D01*
X198148628Y-185385771D01*
X198291485Y-185457200D01*
X199577200Y-186385771D02*
X199577200Y-185600057D01*
X199505771Y-185457200D01*
X199362914Y-185385771D01*
X199077200Y-185385771D01*
X198934342Y-185457200D01*
X199577200Y-186314342D02*
X199434342Y-186385771D01*
X199077200Y-186385771D01*
X198934342Y-186314342D01*
X198862914Y-186171485D01*
X198862914Y-186028628D01*
X198934342Y-185885771D01*
X199077200Y-185814342D01*
X199434342Y-185814342D01*
X199577200Y-185742914D01*
X200934342Y-186385771D02*
X200934342Y-184885771D01*
X200934342Y-186314342D02*
X200791485Y-186385771D01*
X200505771Y-186385771D01*
X200362914Y-186314342D01*
X200291485Y-186242914D01*
X200220057Y-186100057D01*
X200220057Y-185671485D01*
X200291485Y-185528628D01*
X200362914Y-185457200D01*
X200505771Y-185385771D01*
X200791485Y-185385771D01*
X200934342Y-185457200D01*
X201291485Y-186528628D02*
X202434342Y-186528628D01*
X202791485Y-185385771D02*
X202791485Y-186885771D01*
X202791485Y-185457200D02*
X202934342Y-185385771D01*
X203220057Y-185385771D01*
X203362914Y-185457200D01*
X203434342Y-185528628D01*
X203505771Y-185671485D01*
X203505771Y-186100057D01*
X203434342Y-186242914D01*
X203362914Y-186314342D01*
X203220057Y-186385771D01*
X202934342Y-186385771D01*
X202791485Y-186314342D01*
X204791485Y-186314342D02*
X204648628Y-186385771D01*
X204362914Y-186385771D01*
X204220057Y-186314342D01*
X204148628Y-186242914D01*
X204077200Y-186100057D01*
X204077200Y-185671485D01*
X204148628Y-185528628D01*
X204220057Y-185457200D01*
X204362914Y-185385771D01*
X204648628Y-185385771D01*
X204791485Y-185457200D01*
X205434342Y-186385771D02*
X205434342Y-184885771D01*
X205434342Y-185457200D02*
X205577200Y-185385771D01*
X205862914Y-185385771D01*
X206005771Y-185457200D01*
X206077200Y-185528628D01*
X206148628Y-185671485D01*
X206148628Y-186100057D01*
X206077200Y-186242914D01*
X206005771Y-186314342D01*
X205862914Y-186385771D01*
X205577200Y-186385771D01*
X205434342Y-186314342D01*
D10*
D11*
X177002200Y-181507200D02*
X285002200Y-181507200D01*
D10*
D11*
X178362914Y-183614342D02*
X178577200Y-183685771D01*
X178934342Y-183685771D01*
X179077200Y-183614342D01*
X179148628Y-183542914D01*
X179220057Y-183400057D01*
X179220057Y-183257200D01*
X179148628Y-183114342D01*
X179077200Y-183042914D01*
X178934342Y-182971485D01*
X178648628Y-182900057D01*
X178505771Y-182828628D01*
X178434342Y-182757200D01*
X178362914Y-182614342D01*
X178362914Y-182471485D01*
X178434342Y-182328628D01*
X178505771Y-182257200D01*
X178648628Y-182185771D01*
X179005771Y-182185771D01*
X179220057Y-182257200D01*
X179862914Y-183685771D02*
X179862914Y-182185771D01*
X180505771Y-183685771D02*
X180505771Y-182900057D01*
X180434342Y-182757200D01*
X180291485Y-182685771D01*
X180077200Y-182685771D01*
X179934342Y-182757200D01*
X179862914Y-182828628D01*
X181791485Y-183614342D02*
X181648628Y-183685771D01*
X181362914Y-183685771D01*
X181220057Y-183614342D01*
X181148628Y-183471485D01*
X181148628Y-182900057D01*
X181220057Y-182757200D01*
X181362914Y-182685771D01*
X181648628Y-182685771D01*
X181791485Y-182757200D01*
X181862914Y-182900057D01*
X181862914Y-183042914D01*
X181148628Y-183185771D01*
X183077200Y-183614342D02*
X182934342Y-183685771D01*
X182648628Y-183685771D01*
X182505771Y-183614342D01*
X182434342Y-183471485D01*
X182434342Y-182900057D01*
X182505771Y-182757200D01*
X182648628Y-182685771D01*
X182934342Y-182685771D01*
X183077200Y-182757200D01*
X183148628Y-182900057D01*
X183148628Y-183042914D01*
X182434342Y-183185771D01*
X183577200Y-182685771D02*
X184148628Y-182685771D01*
X183791485Y-182185771D02*
X183791485Y-183471485D01*
X183862914Y-183614342D01*
X184005771Y-183685771D01*
X184148628Y-183685771D01*
X184648628Y-183542914D02*
X184720057Y-183614342D01*
X184648628Y-183685771D01*
X184577200Y-183614342D01*
X184648628Y-183542914D01*
X184648628Y-183685771D01*
X184648628Y-182757200D02*
X184720057Y-182828628D01*
X184648628Y-182900057D01*
X184577200Y-182828628D01*
X184648628Y-182757200D01*
X184648628Y-182900057D01*
D10*
D12*
X178840057Y-179185771D02*
X179125771Y-179185771D01*
X179268628Y-179257200D01*
X179411485Y-179400057D01*
X179482914Y-179685771D01*
X179482914Y-180185771D01*
X179411485Y-180471485D01*
X179268628Y-180614342D01*
X179125771Y-180685771D01*
X178840057Y-180685771D01*
X178697200Y-180614342D01*
X178554342Y-180471485D01*
X178482914Y-180185771D01*
X178482914Y-179685771D01*
X178554342Y-179400057D01*
X178697200Y-179257200D01*
X178840057Y-179185771D01*
X180125771Y-179685771D02*
X180125771Y-181185771D01*
X180125771Y-179757200D02*
X180268628Y-179685771D01*
X180554342Y-179685771D01*
X180697200Y-179757200D01*
X180768628Y-179828628D01*
X180840057Y-179971485D01*
X180840057Y-180400057D01*
X180768628Y-180542914D01*
X180697200Y-180614342D01*
X180554342Y-180685771D01*
X180268628Y-180685771D01*
X180125771Y-180614342D01*
X182054342Y-180614342D02*
X181911485Y-180685771D01*
X181625771Y-180685771D01*
X181482914Y-180614342D01*
X181411485Y-180471485D01*
X181411485Y-179900057D01*
X181482914Y-179757200D01*
X181625771Y-179685771D01*
X181911485Y-179685771D01*
X182054342Y-179757200D01*
X182125771Y-179900057D01*
X182125771Y-180042914D01*
X181411485Y-180185771D01*
X182768628Y-179685771D02*
X182768628Y-180685771D01*
X182768628Y-179828628D02*
X182840057Y-179757200D01*
X182982914Y-179685771D01*
X183197200Y-179685771D01*
X183340057Y-179757200D01*
X183411485Y-179900057D01*
X183411485Y-180685771D01*
X183911485Y-179185771D02*
X184411485Y-180685771D01*
X184911485Y-179185771D01*
X185982914Y-180614342D02*
X185840057Y-180685771D01*
X185554342Y-180685771D01*
X185411485Y-180614342D01*
X185340057Y-180471485D01*
X185340057Y-179900057D01*
X185411485Y-179757200D01*
X185554342Y-179685771D01*
X185840057Y-179685771D01*
X185982914Y-179757200D01*
X186054342Y-179900057D01*
X186054342Y-180042914D01*
X185340057Y-180185771D01*
X186697200Y-179685771D02*
X186697200Y-180685771D01*
X186697200Y-179828628D02*
X186768628Y-179757200D01*
X186911485Y-179685771D01*
X187125771Y-179685771D01*
X187268628Y-179757200D01*
X187340057Y-179900057D01*
X187340057Y-180685771D01*
X187840057Y-179685771D02*
X188411485Y-179685771D01*
X188054342Y-179185771D02*
X188054342Y-180471485D01*
X188125771Y-180614342D01*
X188268628Y-180685771D01*
X188411485Y-180685771D01*
X190554342Y-179900057D02*
X190768628Y-179971485D01*
X190840057Y-180042914D01*
X190911485Y-180185771D01*
X190911485Y-180400057D01*
X190840057Y-180542914D01*
X190768628Y-180614342D01*
X190625771Y-180685771D01*
X190054342Y-180685771D01*
X190054342Y-179185771D01*
X190554342Y-179185771D01*
X190697200Y-179257200D01*
X190768628Y-179328628D01*
X190840057Y-179471485D01*
X190840057Y-179614342D01*
X190768628Y-179757200D01*
X190697200Y-179828628D01*
X190554342Y-179900057D01*
X190054342Y-179900057D01*
X191554342Y-180685771D02*
X191554342Y-179685771D01*
X191554342Y-179971485D02*
X191625771Y-179828628D01*
X191697200Y-179757200D01*
X191840057Y-179685771D01*
X191982914Y-179685771D01*
X192482914Y-180685771D02*
X192482914Y-179685771D01*
X192482914Y-179185771D02*
X192411485Y-179257200D01*
X192482914Y-179328628D01*
X192554342Y-179257200D01*
X192482914Y-179185771D01*
X192482914Y-179328628D01*
X193125771Y-180614342D02*
X193268628Y-180685771D01*
X193554342Y-180685771D01*
X193697200Y-180614342D01*
X193768628Y-180471485D01*
X193768628Y-180400057D01*
X193697200Y-180257200D01*
X193554342Y-180185771D01*
X193340057Y-180185771D01*
X193197200Y-180114342D01*
X193125771Y-179971485D01*
X193125771Y-179900057D01*
X193197200Y-179757200D01*
X193340057Y-179685771D01*
X193554342Y-179685771D01*
X193697200Y-179757200D01*
X194197200Y-179685771D02*
X194768628Y-179685771D01*
X194411485Y-179185771D02*
X194411485Y-180471485D01*
X194482914Y-180614342D01*
X194625771Y-180685771D01*
X194768628Y-180685771D01*
X195482914Y-180685771D02*
X195340057Y-180614342D01*
X195268628Y-180542914D01*
X195197200Y-180400057D01*
X195197200Y-179971485D01*
X195268628Y-179828628D01*
X195340057Y-179757200D01*
X195482914Y-179685771D01*
X195697200Y-179685771D01*
X195840057Y-179757200D01*
X195911485Y-179828628D01*
X195982914Y-179971485D01*
X195982914Y-180400057D01*
X195911485Y-180542914D01*
X195840057Y-180614342D01*
X195697200Y-180685771D01*
X195482914Y-180685771D01*
X196840057Y-180685771D02*
X196697200Y-180614342D01*
X196625771Y-180471485D01*
X196625771Y-179185771D01*
D10*
D11*
X197002200Y-191507200D02*
X197002200Y-194507200D01*
D10*
D11*
X261002200Y-191507200D02*
X261002200Y-198007200D01*
D14*
X132500000Y-87500000D02*
X204000000Y-87500000D01*
X122500000Y-78700000D02*
G75*
G02*
X123700000Y-77500000I1200000J0D01*
G01*
X131300000Y-77500000D02*
G75*
G02*
X132500000Y-78700000I0J-1200000D01*
G01*
X132500000Y-78700000D02*
X132500000Y-87500000D01*
X123700000Y-77500000D02*
X131300000Y-77500000D01*
X122500000Y-87500000D02*
X122500000Y-78700000D01*
X30000000Y-87500000D02*
X122500000Y-87500000D01*
X30000000Y-30000000D02*
X30000000Y-87500000D01*
X204000000Y-30000000D02*
X30000000Y-30000000D01*
X204000000Y-87500000D02*
X204000000Y-30000000D01*
G36*
G01*
X173708000Y-37933600D02*
X171708000Y-37933600D01*
G75*
G02*
X171458000Y-37683600I0J250000D01*
G01*
X171458000Y-34183600D01*
G75*
G02*
X171708000Y-33933600I250000J0D01*
G01*
X173708000Y-33933600D01*
G75*
G02*
X173958000Y-34183600I0J-250000D01*
G01*
X173958000Y-37683600D01*
G75*
G02*
X173708000Y-37933600I-250000J0D01*
G01*
G37*
G36*
G01*
X173708000Y-45933600D02*
X171708000Y-45933600D01*
G75*
G02*
X171458000Y-45683600I0J250000D01*
G01*
X171458000Y-42183600D01*
G75*
G02*
X171708000Y-41933600I250000J0D01*
G01*
X173708000Y-41933600D01*
G75*
G02*
X173958000Y-42183600I0J-250000D01*
G01*
X173958000Y-45683600D01*
G75*
G02*
X173708000Y-45933600I-250000J0D01*
G01*
G37*
G36*
G01*
X162308000Y-37933600D02*
X160308000Y-37933600D01*
G75*
G02*
X160058000Y-37683600I0J250000D01*
G01*
X160058000Y-34183600D01*
G75*
G02*
X160308000Y-33933600I250000J0D01*
G01*
X162308000Y-33933600D01*
G75*
G02*
X162558000Y-34183600I0J-250000D01*
G01*
X162558000Y-37683600D01*
G75*
G02*
X162308000Y-37933600I-250000J0D01*
G01*
G37*
G36*
G01*
X162308000Y-45933600D02*
X160308000Y-45933600D01*
G75*
G02*
X160058000Y-45683600I0J250000D01*
G01*
X160058000Y-42183600D01*
G75*
G02*
X160308000Y-41933600I250000J0D01*
G01*
X162308000Y-41933600D01*
G75*
G02*
X162558000Y-42183600I0J-250000D01*
G01*
X162558000Y-45683600D01*
G75*
G02*
X162308000Y-45933600I-250000J0D01*
G01*
G37*
G36*
G01*
X188520800Y-48189600D02*
X188520800Y-46189600D01*
G75*
G02*
X188770800Y-45939600I250000J0D01*
G01*
X192270800Y-45939600D01*
G75*
G02*
X192520800Y-46189600I0J-250000D01*
G01*
X192520800Y-48189600D01*
G75*
G02*
X192270800Y-48439600I-250000J0D01*
G01*
X188770800Y-48439600D01*
G75*
G02*
X188520800Y-48189600I0J250000D01*
G01*
G37*
G36*
G01*
X180520800Y-48189600D02*
X180520800Y-46189600D01*
G75*
G02*
X180770800Y-45939600I250000J0D01*
G01*
X184270800Y-45939600D01*
G75*
G02*
X184520800Y-46189600I0J-250000D01*
G01*
X184520800Y-48189600D01*
G75*
G02*
X184270800Y-48439600I-250000J0D01*
G01*
X180770800Y-48439600D01*
G75*
G02*
X180520800Y-48189600I0J250000D01*
G01*
G37*
G36*
G01*
X144888800Y-45988000D02*
X144888800Y-47988000D01*
G75*
G02*
X144638800Y-48238000I-250000J0D01*
G01*
X141138800Y-48238000D01*
G75*
G02*
X140888800Y-47988000I0J250000D01*
G01*
X140888800Y-45988000D01*
G75*
G02*
X141138800Y-45738000I250000J0D01*
G01*
X144638800Y-45738000D01*
G75*
G02*
X144888800Y-45988000I0J-250000D01*
G01*
G37*
G36*
G01*
X152888800Y-45988000D02*
X152888800Y-47988000D01*
G75*
G02*
X152638800Y-48238000I-250000J0D01*
G01*
X149138800Y-48238000D01*
G75*
G02*
X148888800Y-47988000I0J250000D01*
G01*
X148888800Y-45988000D01*
G75*
G02*
X149138800Y-45738000I250000J0D01*
G01*
X152638800Y-45738000D01*
G75*
G02*
X152888800Y-45988000I0J-250000D01*
G01*
G37*
G36*
G01*
X76625000Y-56550000D02*
X76625000Y-56050000D01*
G75*
G02*
X76850000Y-55825000I225000J0D01*
G01*
X77300000Y-55825000D01*
G75*
G02*
X77525000Y-56050000I0J-225000D01*
G01*
X77525000Y-56550000D01*
G75*
G02*
X77300000Y-56775000I-225000J0D01*
G01*
X76850000Y-56775000D01*
G75*
G02*
X76625000Y-56550000I0J225000D01*
G01*
G37*
G36*
G01*
X75075000Y-56550000D02*
X75075000Y-56050000D01*
G75*
G02*
X75300000Y-55825000I225000J0D01*
G01*
X75750000Y-55825000D01*
G75*
G02*
X75975000Y-56050000I0J-225000D01*
G01*
X75975000Y-56550000D01*
G75*
G02*
X75750000Y-56775000I-225000J0D01*
G01*
X75300000Y-56775000D01*
G75*
G02*
X75075000Y-56550000I0J225000D01*
G01*
G37*
G36*
G01*
X74275000Y-50925000D02*
X74275000Y-51475000D01*
G75*
G02*
X74075000Y-51675000I-200000J0D01*
G01*
X73675000Y-51675000D01*
G75*
G02*
X73475000Y-51475000I0J200000D01*
G01*
X73475000Y-50925000D01*
G75*
G02*
X73675000Y-50725000I200000J0D01*
G01*
X74075000Y-50725000D01*
G75*
G02*
X74275000Y-50925000I0J-200000D01*
G01*
G37*
G36*
G01*
X75925000Y-50925000D02*
X75925000Y-51475000D01*
G75*
G02*
X75725000Y-51675000I-200000J0D01*
G01*
X75325000Y-51675000D01*
G75*
G02*
X75125000Y-51475000I0J200000D01*
G01*
X75125000Y-50925000D01*
G75*
G02*
X75325000Y-50725000I200000J0D01*
G01*
X75725000Y-50725000D01*
G75*
G02*
X75925000Y-50925000I0J-200000D01*
G01*
G37*
G36*
G01*
X163153200Y-48023000D02*
X162653200Y-48023000D01*
G75*
G02*
X162428200Y-47798000I0J225000D01*
G01*
X162428200Y-47348000D01*
G75*
G02*
X162653200Y-47123000I225000J0D01*
G01*
X163153200Y-47123000D01*
G75*
G02*
X163378200Y-47348000I0J-225000D01*
G01*
X163378200Y-47798000D01*
G75*
G02*
X163153200Y-48023000I-225000J0D01*
G01*
G37*
G36*
G01*
X163153200Y-49573000D02*
X162653200Y-49573000D01*
G75*
G02*
X162428200Y-49348000I0J225000D01*
G01*
X162428200Y-48898000D01*
G75*
G02*
X162653200Y-48673000I225000J0D01*
G01*
X163153200Y-48673000D01*
G75*
G02*
X163378200Y-48898000I0J-225000D01*
G01*
X163378200Y-49348000D01*
G75*
G02*
X163153200Y-49573000I-225000J0D01*
G01*
G37*
G36*
G01*
X123350000Y-34425001D02*
X123350000Y-31574999D01*
G75*
G02*
X123599999Y-31325000I249999J0D01*
G01*
X124325001Y-31325000D01*
G75*
G02*
X124575000Y-31574999I0J-249999D01*
G01*
X124575000Y-34425001D01*
G75*
G02*
X124325001Y-34675000I-249999J0D01*
G01*
X123599999Y-34675000D01*
G75*
G02*
X123350000Y-34425001I0J249999D01*
G01*
G37*
G36*
G01*
X117425000Y-34425001D02*
X117425000Y-31574999D01*
G75*
G02*
X117674999Y-31325000I249999J0D01*
G01*
X118400001Y-31325000D01*
G75*
G02*
X118650000Y-31574999I0J-249999D01*
G01*
X118650000Y-34425001D01*
G75*
G02*
X118400001Y-34675000I-249999J0D01*
G01*
X117674999Y-34675000D01*
G75*
G02*
X117425000Y-34425001I0J249999D01*
G01*
G37*
G36*
G01*
X120625000Y-41675000D02*
X120625000Y-41125000D01*
G75*
G02*
X120825000Y-40925000I200000J0D01*
G01*
X121225000Y-40925000D01*
G75*
G02*
X121425000Y-41125000I0J-200000D01*
G01*
X121425000Y-41675000D01*
G75*
G02*
X121225000Y-41875000I-200000J0D01*
G01*
X120825000Y-41875000D01*
G75*
G02*
X120625000Y-41675000I0J200000D01*
G01*
G37*
G36*
G01*
X118975000Y-41675000D02*
X118975000Y-41125000D01*
G75*
G02*
X119175000Y-40925000I200000J0D01*
G01*
X119575000Y-40925000D01*
G75*
G02*
X119775000Y-41125000I0J-200000D01*
G01*
X119775000Y-41675000D01*
G75*
G02*
X119575000Y-41875000I-200000J0D01*
G01*
X119175000Y-41875000D01*
G75*
G02*
X118975000Y-41675000I0J200000D01*
G01*
G37*
G36*
G01*
X120200000Y-37225000D02*
X119900000Y-37225000D01*
G75*
G02*
X119750000Y-37075000I0J150000D01*
G01*
X119750000Y-36050000D01*
G75*
G02*
X119900000Y-35900000I150000J0D01*
G01*
X120200000Y-35900000D01*
G75*
G02*
X120350000Y-36050000I0J-150000D01*
G01*
X120350000Y-37075000D01*
G75*
G02*
X120200000Y-37225000I-150000J0D01*
G01*
G37*
G36*
G01*
X122100000Y-37225000D02*
X121800000Y-37225000D01*
G75*
G02*
X121650000Y-37075000I0J150000D01*
G01*
X121650000Y-36050000D01*
G75*
G02*
X121800000Y-35900000I150000J0D01*
G01*
X122100000Y-35900000D01*
G75*
G02*
X122250000Y-36050000I0J-150000D01*
G01*
X122250000Y-37075000D01*
G75*
G02*
X122100000Y-37225000I-150000J0D01*
G01*
G37*
G36*
G01*
X122100000Y-39500000D02*
X121800000Y-39500000D01*
G75*
G02*
X121650000Y-39350000I0J150000D01*
G01*
X121650000Y-38325000D01*
G75*
G02*
X121800000Y-38175000I150000J0D01*
G01*
X122100000Y-38175000D01*
G75*
G02*
X122250000Y-38325000I0J-150000D01*
G01*
X122250000Y-39350000D01*
G75*
G02*
X122100000Y-39500000I-150000J0D01*
G01*
G37*
G36*
G01*
X121150000Y-39500000D02*
X120850000Y-39500000D01*
G75*
G02*
X120700000Y-39350000I0J150000D01*
G01*
X120700000Y-38325000D01*
G75*
G02*
X120850000Y-38175000I150000J0D01*
G01*
X121150000Y-38175000D01*
G75*
G02*
X121300000Y-38325000I0J-150000D01*
G01*
X121300000Y-39350000D01*
G75*
G02*
X121150000Y-39500000I-150000J0D01*
G01*
G37*
G36*
G01*
X120200000Y-39500000D02*
X119900000Y-39500000D01*
G75*
G02*
X119750000Y-39350000I0J150000D01*
G01*
X119750000Y-38325000D01*
G75*
G02*
X119900000Y-38175000I150000J0D01*
G01*
X120200000Y-38175000D01*
G75*
G02*
X120350000Y-38325000I0J-150000D01*
G01*
X120350000Y-39350000D01*
G75*
G02*
X120200000Y-39500000I-150000J0D01*
G01*
G37*
G36*
G01*
X56675000Y-46875000D02*
X56125000Y-46875000D01*
G75*
G02*
X55925000Y-46675000I0J200000D01*
G01*
X55925000Y-46275000D01*
G75*
G02*
X56125000Y-46075000I200000J0D01*
G01*
X56675000Y-46075000D01*
G75*
G02*
X56875000Y-46275000I0J-200000D01*
G01*
X56875000Y-46675000D01*
G75*
G02*
X56675000Y-46875000I-200000J0D01*
G01*
G37*
G36*
G01*
X56675000Y-48525000D02*
X56125000Y-48525000D01*
G75*
G02*
X55925000Y-48325000I0J200000D01*
G01*
X55925000Y-47925000D01*
G75*
G02*
X56125000Y-47725000I200000J0D01*
G01*
X56675000Y-47725000D01*
G75*
G02*
X56875000Y-47925000I0J-200000D01*
G01*
X56875000Y-48325000D01*
G75*
G02*
X56675000Y-48525000I-200000J0D01*
G01*
G37*
G36*
G01*
X117625000Y-39075000D02*
X117625000Y-38525000D01*
G75*
G02*
X117825000Y-38325000I200000J0D01*
G01*
X118225000Y-38325000D01*
G75*
G02*
X118425000Y-38525000I0J-200000D01*
G01*
X118425000Y-39075000D01*
G75*
G02*
X118225000Y-39275000I-200000J0D01*
G01*
X117825000Y-39275000D01*
G75*
G02*
X117625000Y-39075000I0J200000D01*
G01*
G37*
G36*
G01*
X115975000Y-39075000D02*
X115975000Y-38525000D01*
G75*
G02*
X116175000Y-38325000I200000J0D01*
G01*
X116575000Y-38325000D01*
G75*
G02*
X116775000Y-38525000I0J-200000D01*
G01*
X116775000Y-39075000D01*
G75*
G02*
X116575000Y-39275000I-200000J0D01*
G01*
X116175000Y-39275000D01*
G75*
G02*
X115975000Y-39075000I0J200000D01*
G01*
G37*
D15*
X61700000Y-79100000D03*
X60750000Y-77100000D03*
X62650000Y-77100000D03*
X54300000Y-79100000D03*
X53350000Y-77100000D03*
X55250000Y-77100000D03*
D16*
X100400000Y-66300000D03*
X104400000Y-66300000D03*
D17*
X85550000Y-60321000D03*
X85550000Y-54079000D03*
D18*
X100550000Y-55450000D03*
X100550000Y-58950000D03*
X92050000Y-58950000D03*
X92050000Y-55450000D03*
D19*
X57850000Y-69900000D03*
X66850000Y-69900000D03*
G36*
G01*
X99695000Y-34500000D02*
X99395000Y-34500000D01*
G75*
G02*
X99245000Y-34350000I0J150000D01*
G01*
X99245000Y-32700000D01*
G75*
G02*
X99395000Y-32550000I150000J0D01*
G01*
X99695000Y-32550000D01*
G75*
G02*
X99845000Y-32700000I0J-150000D01*
G01*
X99845000Y-34350000D01*
G75*
G02*
X99695000Y-34500000I-150000J0D01*
G01*
G37*
G36*
G01*
X100965000Y-34500000D02*
X100665000Y-34500000D01*
G75*
G02*
X100515000Y-34350000I0J150000D01*
G01*
X100515000Y-32700000D01*
G75*
G02*
X100665000Y-32550000I150000J0D01*
G01*
X100965000Y-32550000D01*
G75*
G02*
X101115000Y-32700000I0J-150000D01*
G01*
X101115000Y-34350000D01*
G75*
G02*
X100965000Y-34500000I-150000J0D01*
G01*
G37*
G36*
G01*
X102235000Y-34500000D02*
X101935000Y-34500000D01*
G75*
G02*
X101785000Y-34350000I0J150000D01*
G01*
X101785000Y-32700000D01*
G75*
G02*
X101935000Y-32550000I150000J0D01*
G01*
X102235000Y-32550000D01*
G75*
G02*
X102385000Y-32700000I0J-150000D01*
G01*
X102385000Y-34350000D01*
G75*
G02*
X102235000Y-34500000I-150000J0D01*
G01*
G37*
G36*
G01*
X103505000Y-34500000D02*
X103205000Y-34500000D01*
G75*
G02*
X103055000Y-34350000I0J150000D01*
G01*
X103055000Y-32700000D01*
G75*
G02*
X103205000Y-32550000I150000J0D01*
G01*
X103505000Y-32550000D01*
G75*
G02*
X103655000Y-32700000I0J-150000D01*
G01*
X103655000Y-34350000D01*
G75*
G02*
X103505000Y-34500000I-150000J0D01*
G01*
G37*
G36*
G01*
X103505000Y-39450000D02*
X103205000Y-39450000D01*
G75*
G02*
X103055000Y-39300000I0J150000D01*
G01*
X103055000Y-37650000D01*
G75*
G02*
X103205000Y-37500000I150000J0D01*
G01*
X103505000Y-37500000D01*
G75*
G02*
X103655000Y-37650000I0J-150000D01*
G01*
X103655000Y-39300000D01*
G75*
G02*
X103505000Y-39450000I-150000J0D01*
G01*
G37*
G36*
G01*
X102235000Y-39450000D02*
X101935000Y-39450000D01*
G75*
G02*
X101785000Y-39300000I0J150000D01*
G01*
X101785000Y-37650000D01*
G75*
G02*
X101935000Y-37500000I150000J0D01*
G01*
X102235000Y-37500000D01*
G75*
G02*
X102385000Y-37650000I0J-150000D01*
G01*
X102385000Y-39300000D01*
G75*
G02*
X102235000Y-39450000I-150000J0D01*
G01*
G37*
G36*
G01*
X100965000Y-39450000D02*
X100665000Y-39450000D01*
G75*
G02*
X100515000Y-39300000I0J150000D01*
G01*
X100515000Y-37650000D01*
G75*
G02*
X100665000Y-37500000I150000J0D01*
G01*
X100965000Y-37500000D01*
G75*
G02*
X101115000Y-37650000I0J-150000D01*
G01*
X101115000Y-39300000D01*
G75*
G02*
X100965000Y-39450000I-150000J0D01*
G01*
G37*
G36*
G01*
X99695000Y-39450000D02*
X99395000Y-39450000D01*
G75*
G02*
X99245000Y-39300000I0J150000D01*
G01*
X99245000Y-37650000D01*
G75*
G02*
X99395000Y-37500000I150000J0D01*
G01*
X99695000Y-37500000D01*
G75*
G02*
X99845000Y-37650000I0J-150000D01*
G01*
X99845000Y-39300000D01*
G75*
G02*
X99695000Y-39450000I-150000J0D01*
G01*
G37*
G36*
G01*
X93945000Y-34500000D02*
X93645000Y-34500000D01*
G75*
G02*
X93495000Y-34350000I0J150000D01*
G01*
X93495000Y-32700000D01*
G75*
G02*
X93645000Y-32550000I150000J0D01*
G01*
X93945000Y-32550000D01*
G75*
G02*
X94095000Y-32700000I0J-150000D01*
G01*
X94095000Y-34350000D01*
G75*
G02*
X93945000Y-34500000I-150000J0D01*
G01*
G37*
G36*
G01*
X95215000Y-34500000D02*
X94915000Y-34500000D01*
G75*
G02*
X94765000Y-34350000I0J150000D01*
G01*
X94765000Y-32700000D01*
G75*
G02*
X94915000Y-32550000I150000J0D01*
G01*
X95215000Y-32550000D01*
G75*
G02*
X95365000Y-32700000I0J-150000D01*
G01*
X95365000Y-34350000D01*
G75*
G02*
X95215000Y-34500000I-150000J0D01*
G01*
G37*
G36*
G01*
X96485000Y-34500000D02*
X96185000Y-34500000D01*
G75*
G02*
X96035000Y-34350000I0J150000D01*
G01*
X96035000Y-32700000D01*
G75*
G02*
X96185000Y-32550000I150000J0D01*
G01*
X96485000Y-32550000D01*
G75*
G02*
X96635000Y-32700000I0J-150000D01*
G01*
X96635000Y-34350000D01*
G75*
G02*
X96485000Y-34500000I-150000J0D01*
G01*
G37*
G36*
G01*
X97755000Y-34500000D02*
X97455000Y-34500000D01*
G75*
G02*
X97305000Y-34350000I0J150000D01*
G01*
X97305000Y-32700000D01*
G75*
G02*
X97455000Y-32550000I150000J0D01*
G01*
X97755000Y-32550000D01*
G75*
G02*
X97905000Y-32700000I0J-150000D01*
G01*
X97905000Y-34350000D01*
G75*
G02*
X97755000Y-34500000I-150000J0D01*
G01*
G37*
G36*
G01*
X97755000Y-39450000D02*
X97455000Y-39450000D01*
G75*
G02*
X97305000Y-39300000I0J150000D01*
G01*
X97305000Y-37650000D01*
G75*
G02*
X97455000Y-37500000I150000J0D01*
G01*
X97755000Y-37500000D01*
G75*
G02*
X97905000Y-37650000I0J-150000D01*
G01*
X97905000Y-39300000D01*
G75*
G02*
X97755000Y-39450000I-150000J0D01*
G01*
G37*
G36*
G01*
X96485000Y-39450000D02*
X96185000Y-39450000D01*
G75*
G02*
X96035000Y-39300000I0J150000D01*
G01*
X96035000Y-37650000D01*
G75*
G02*
X96185000Y-37500000I150000J0D01*
G01*
X96485000Y-37500000D01*
G75*
G02*
X96635000Y-37650000I0J-150000D01*
G01*
X96635000Y-39300000D01*
G75*
G02*
X96485000Y-39450000I-150000J0D01*
G01*
G37*
G36*
G01*
X95215000Y-39450000D02*
X94915000Y-39450000D01*
G75*
G02*
X94765000Y-39300000I0J150000D01*
G01*
X94765000Y-37650000D01*
G75*
G02*
X94915000Y-37500000I150000J0D01*
G01*
X95215000Y-37500000D01*
G75*
G02*
X95365000Y-37650000I0J-150000D01*
G01*
X95365000Y-39300000D01*
G75*
G02*
X95215000Y-39450000I-150000J0D01*
G01*
G37*
G36*
G01*
X93945000Y-39450000D02*
X93645000Y-39450000D01*
G75*
G02*
X93495000Y-39300000I0J150000D01*
G01*
X93495000Y-37650000D01*
G75*
G02*
X93645000Y-37500000I150000J0D01*
G01*
X93945000Y-37500000D01*
G75*
G02*
X94095000Y-37650000I0J-150000D01*
G01*
X94095000Y-39300000D01*
G75*
G02*
X93945000Y-39450000I-150000J0D01*
G01*
G37*
D20*
X103000000Y-45300000D03*
X103000000Y-45800000D03*
X103000000Y-46300000D03*
X103000000Y-46800000D03*
X103000000Y-47300000D03*
X98600000Y-47300000D03*
X98600000Y-46800000D03*
X98600000Y-46300000D03*
X98600000Y-45800000D03*
X98600000Y-45300000D03*
D21*
X171068200Y-63298000D03*
D22*
X166903200Y-57198000D03*
D23*
X173903200Y-69373000D03*
X173903200Y-51123000D03*
X172903200Y-69373000D03*
X172903200Y-51123000D03*
X171903200Y-69373000D03*
X171903200Y-51123000D03*
X170903200Y-69373000D03*
X170903200Y-51123000D03*
X169903200Y-69373000D03*
X169903200Y-51123000D03*
X168903200Y-69373000D03*
X168903200Y-51123000D03*
X167903200Y-69373000D03*
X167903200Y-51123000D03*
X166903200Y-69373000D03*
X166903200Y-51123000D03*
X165903200Y-69373000D03*
X165903200Y-51123000D03*
X164903200Y-69373000D03*
X164903200Y-51123000D03*
X163903200Y-69373000D03*
X163903200Y-51123000D03*
X162903200Y-69373000D03*
X162903200Y-51123000D03*
X161903200Y-69373000D03*
X161903200Y-51123000D03*
X160903200Y-69373000D03*
X160903200Y-51123000D03*
X159903200Y-69373000D03*
X159903200Y-51123000D03*
D21*
X162738200Y-63298000D03*
D24*
X74350000Y-68150000D03*
D25*
X76520000Y-67175000D03*
X76520000Y-67825000D03*
X76520000Y-68475000D03*
X76520000Y-69125000D03*
X72180000Y-69125000D03*
X72180000Y-68475000D03*
X72180000Y-67825000D03*
X72180000Y-67175000D03*
D26*
X67565000Y-53818750D03*
X67565000Y-55006250D03*
X67565000Y-56193750D03*
X67565000Y-57381250D03*
X68935000Y-53818750D03*
X68935000Y-55006250D03*
X68935000Y-56193750D03*
X68935000Y-57381250D03*
D27*
X71100000Y-51375000D03*
X71100000Y-52025000D03*
X71100000Y-52675000D03*
X71100000Y-53325000D03*
X71100000Y-53975000D03*
X71100000Y-54625000D03*
X71100000Y-55275000D03*
X71100000Y-55925000D03*
X71100000Y-56575000D03*
X71100000Y-57225000D03*
X71100000Y-57875000D03*
X71100000Y-58525000D03*
X71100000Y-59175000D03*
X71100000Y-59825000D03*
X65400000Y-59825000D03*
X65400000Y-59175000D03*
X65400000Y-58525000D03*
X65400000Y-57875000D03*
X65400000Y-57225000D03*
X65400000Y-56575000D03*
X65400000Y-55925000D03*
X65400000Y-55275000D03*
X65400000Y-54625000D03*
X65400000Y-53975000D03*
X65400000Y-53325000D03*
X65400000Y-52675000D03*
X65400000Y-52025000D03*
X65400000Y-51375000D03*
G36*
G01*
X55775000Y-59675000D02*
X55225000Y-59675000D01*
G75*
G02*
X55025000Y-59475000I0J200000D01*
G01*
X55025000Y-59075000D01*
G75*
G02*
X55225000Y-58875000I200000J0D01*
G01*
X55775000Y-58875000D01*
G75*
G02*
X55975000Y-59075000I0J-200000D01*
G01*
X55975000Y-59475000D01*
G75*
G02*
X55775000Y-59675000I-200000J0D01*
G01*
G37*
G36*
G01*
X55775000Y-61325000D02*
X55225000Y-61325000D01*
G75*
G02*
X55025000Y-61125000I0J200000D01*
G01*
X55025000Y-60725000D01*
G75*
G02*
X55225000Y-60525000I200000J0D01*
G01*
X55775000Y-60525000D01*
G75*
G02*
X55975000Y-60725000I0J-200000D01*
G01*
X55975000Y-61125000D01*
G75*
G02*
X55775000Y-61325000I-200000J0D01*
G01*
G37*
G36*
G01*
X94825000Y-42625000D02*
X95375000Y-42625000D01*
G75*
G02*
X95575000Y-42825000I0J-200000D01*
G01*
X95575000Y-43225000D01*
G75*
G02*
X95375000Y-43425000I-200000J0D01*
G01*
X94825000Y-43425000D01*
G75*
G02*
X94625000Y-43225000I0J200000D01*
G01*
X94625000Y-42825000D01*
G75*
G02*
X94825000Y-42625000I200000J0D01*
G01*
G37*
G36*
G01*
X94825000Y-40975000D02*
X95375000Y-40975000D01*
G75*
G02*
X95575000Y-41175000I0J-200000D01*
G01*
X95575000Y-41575000D01*
G75*
G02*
X95375000Y-41775000I-200000J0D01*
G01*
X94825000Y-41775000D01*
G75*
G02*
X94625000Y-41575000I0J200000D01*
G01*
X94625000Y-41175000D01*
G75*
G02*
X94825000Y-40975000I200000J0D01*
G01*
G37*
G36*
G01*
X97375000Y-48925000D02*
X97375000Y-49475000D01*
G75*
G02*
X97175000Y-49675000I-200000J0D01*
G01*
X96775000Y-49675000D01*
G75*
G02*
X96575000Y-49475000I0J200000D01*
G01*
X96575000Y-48925000D01*
G75*
G02*
X96775000Y-48725000I200000J0D01*
G01*
X97175000Y-48725000D01*
G75*
G02*
X97375000Y-48925000I0J-200000D01*
G01*
G37*
G36*
G01*
X99025000Y-48925000D02*
X99025000Y-49475000D01*
G75*
G02*
X98825000Y-49675000I-200000J0D01*
G01*
X98425000Y-49675000D01*
G75*
G02*
X98225000Y-49475000I0J200000D01*
G01*
X98225000Y-48925000D01*
G75*
G02*
X98425000Y-48725000I200000J0D01*
G01*
X98825000Y-48725000D01*
G75*
G02*
X99025000Y-48925000I0J-200000D01*
G01*
G37*
G36*
G01*
X94675000Y-46175000D02*
X95225000Y-46175000D01*
G75*
G02*
X95425000Y-46375000I0J-200000D01*
G01*
X95425000Y-46775000D01*
G75*
G02*
X95225000Y-46975000I-200000J0D01*
G01*
X94675000Y-46975000D01*
G75*
G02*
X94475000Y-46775000I0J200000D01*
G01*
X94475000Y-46375000D01*
G75*
G02*
X94675000Y-46175000I200000J0D01*
G01*
G37*
G36*
G01*
X94675000Y-44525000D02*
X95225000Y-44525000D01*
G75*
G02*
X95425000Y-44725000I0J-200000D01*
G01*
X95425000Y-45125000D01*
G75*
G02*
X95225000Y-45325000I-200000J0D01*
G01*
X94675000Y-45325000D01*
G75*
G02*
X94475000Y-45125000I0J200000D01*
G01*
X94475000Y-44725000D01*
G75*
G02*
X94675000Y-44525000I200000J0D01*
G01*
G37*
G36*
G01*
X93125000Y-42625000D02*
X93675000Y-42625000D01*
G75*
G02*
X93875000Y-42825000I0J-200000D01*
G01*
X93875000Y-43225000D01*
G75*
G02*
X93675000Y-43425000I-200000J0D01*
G01*
X93125000Y-43425000D01*
G75*
G02*
X92925000Y-43225000I0J200000D01*
G01*
X92925000Y-42825000D01*
G75*
G02*
X93125000Y-42625000I200000J0D01*
G01*
G37*
G36*
G01*
X93125000Y-40975000D02*
X93675000Y-40975000D01*
G75*
G02*
X93875000Y-41175000I0J-200000D01*
G01*
X93875000Y-41575000D01*
G75*
G02*
X93675000Y-41775000I-200000J0D01*
G01*
X93125000Y-41775000D01*
G75*
G02*
X92925000Y-41575000I0J200000D01*
G01*
X92925000Y-41175000D01*
G75*
G02*
X93125000Y-40975000I200000J0D01*
G01*
G37*
G36*
G01*
X193575000Y-72775000D02*
X193025000Y-72775000D01*
G75*
G02*
X192825000Y-72575000I0J200000D01*
G01*
X192825000Y-72175000D01*
G75*
G02*
X193025000Y-71975000I200000J0D01*
G01*
X193575000Y-71975000D01*
G75*
G02*
X193775000Y-72175000I0J-200000D01*
G01*
X193775000Y-72575000D01*
G75*
G02*
X193575000Y-72775000I-200000J0D01*
G01*
G37*
G36*
G01*
X193575000Y-74425000D02*
X193025000Y-74425000D01*
G75*
G02*
X192825000Y-74225000I0J200000D01*
G01*
X192825000Y-73825000D01*
G75*
G02*
X193025000Y-73625000I200000J0D01*
G01*
X193575000Y-73625000D01*
G75*
G02*
X193775000Y-73825000I0J-200000D01*
G01*
X193775000Y-74225000D01*
G75*
G02*
X193575000Y-74425000I-200000J0D01*
G01*
G37*
G36*
G01*
X98425000Y-85675000D02*
X98425000Y-85125000D01*
G75*
G02*
X98625000Y-84925000I200000J0D01*
G01*
X99025000Y-84925000D01*
G75*
G02*
X99225000Y-85125000I0J-200000D01*
G01*
X99225000Y-85675000D01*
G75*
G02*
X99025000Y-85875000I-200000J0D01*
G01*
X98625000Y-85875000D01*
G75*
G02*
X98425000Y-85675000I0J200000D01*
G01*
G37*
G36*
G01*
X96775000Y-85675000D02*
X96775000Y-85125000D01*
G75*
G02*
X96975000Y-84925000I200000J0D01*
G01*
X97375000Y-84925000D01*
G75*
G02*
X97575000Y-85125000I0J-200000D01*
G01*
X97575000Y-85675000D01*
G75*
G02*
X97375000Y-85875000I-200000J0D01*
G01*
X96975000Y-85875000D01*
G75*
G02*
X96775000Y-85675000I0J200000D01*
G01*
G37*
G36*
G01*
X91625000Y-86375000D02*
X91625000Y-85825000D01*
G75*
G02*
X91825000Y-85625000I200000J0D01*
G01*
X92225000Y-85625000D01*
G75*
G02*
X92425000Y-85825000I0J-200000D01*
G01*
X92425000Y-86375000D01*
G75*
G02*
X92225000Y-86575000I-200000J0D01*
G01*
X91825000Y-86575000D01*
G75*
G02*
X91625000Y-86375000I0J200000D01*
G01*
G37*
G36*
G01*
X89975000Y-86375000D02*
X89975000Y-85825000D01*
G75*
G02*
X90175000Y-85625000I200000J0D01*
G01*
X90575000Y-85625000D01*
G75*
G02*
X90775000Y-85825000I0J-200000D01*
G01*
X90775000Y-86375000D01*
G75*
G02*
X90575000Y-86575000I-200000J0D01*
G01*
X90175000Y-86575000D01*
G75*
G02*
X89975000Y-86375000I0J200000D01*
G01*
G37*
G36*
G01*
X91625000Y-83775000D02*
X91625000Y-83225000D01*
G75*
G02*
X91825000Y-83025000I200000J0D01*
G01*
X92225000Y-83025000D01*
G75*
G02*
X92425000Y-83225000I0J-200000D01*
G01*
X92425000Y-83775000D01*
G75*
G02*
X92225000Y-83975000I-200000J0D01*
G01*
X91825000Y-83975000D01*
G75*
G02*
X91625000Y-83775000I0J200000D01*
G01*
G37*
G36*
G01*
X89975000Y-83775000D02*
X89975000Y-83225000D01*
G75*
G02*
X90175000Y-83025000I200000J0D01*
G01*
X90575000Y-83025000D01*
G75*
G02*
X90775000Y-83225000I0J-200000D01*
G01*
X90775000Y-83775000D01*
G75*
G02*
X90575000Y-83975000I-200000J0D01*
G01*
X90175000Y-83975000D01*
G75*
G02*
X89975000Y-83775000I0J200000D01*
G01*
G37*
G36*
G01*
X97575000Y-83425000D02*
X97575000Y-83975000D01*
G75*
G02*
X97375000Y-84175000I-200000J0D01*
G01*
X96975000Y-84175000D01*
G75*
G02*
X96775000Y-83975000I0J200000D01*
G01*
X96775000Y-83425000D01*
G75*
G02*
X96975000Y-83225000I200000J0D01*
G01*
X97375000Y-83225000D01*
G75*
G02*
X97575000Y-83425000I0J-200000D01*
G01*
G37*
G36*
G01*
X99225000Y-83425000D02*
X99225000Y-83975000D01*
G75*
G02*
X99025000Y-84175000I-200000J0D01*
G01*
X98625000Y-84175000D01*
G75*
G02*
X98425000Y-83975000I0J200000D01*
G01*
X98425000Y-83425000D01*
G75*
G02*
X98625000Y-83225000I200000J0D01*
G01*
X99025000Y-83225000D01*
G75*
G02*
X99225000Y-83425000I0J-200000D01*
G01*
G37*
G36*
G01*
X56775000Y-53175000D02*
X56225000Y-53175000D01*
G75*
G02*
X56025000Y-52975000I0J200000D01*
G01*
X56025000Y-52575000D01*
G75*
G02*
X56225000Y-52375000I200000J0D01*
G01*
X56775000Y-52375000D01*
G75*
G02*
X56975000Y-52575000I0J-200000D01*
G01*
X56975000Y-52975000D01*
G75*
G02*
X56775000Y-53175000I-200000J0D01*
G01*
G37*
G36*
G01*
X56775000Y-54825000D02*
X56225000Y-54825000D01*
G75*
G02*
X56025000Y-54625000I0J200000D01*
G01*
X56025000Y-54225000D01*
G75*
G02*
X56225000Y-54025000I200000J0D01*
G01*
X56775000Y-54025000D01*
G75*
G02*
X56975000Y-54225000I0J-200000D01*
G01*
X56975000Y-54625000D01*
G75*
G02*
X56775000Y-54825000I-200000J0D01*
G01*
G37*
G36*
G01*
X56775000Y-56425000D02*
X56225000Y-56425000D01*
G75*
G02*
X56025000Y-56225000I0J200000D01*
G01*
X56025000Y-55825000D01*
G75*
G02*
X56225000Y-55625000I200000J0D01*
G01*
X56775000Y-55625000D01*
G75*
G02*
X56975000Y-55825000I0J-200000D01*
G01*
X56975000Y-56225000D01*
G75*
G02*
X56775000Y-56425000I-200000J0D01*
G01*
G37*
G36*
G01*
X56775000Y-58075000D02*
X56225000Y-58075000D01*
G75*
G02*
X56025000Y-57875000I0J200000D01*
G01*
X56025000Y-57475000D01*
G75*
G02*
X56225000Y-57275000I200000J0D01*
G01*
X56775000Y-57275000D01*
G75*
G02*
X56975000Y-57475000I0J-200000D01*
G01*
X56975000Y-57875000D01*
G75*
G02*
X56775000Y-58075000I-200000J0D01*
G01*
G37*
G36*
G01*
X57775000Y-59675000D02*
X57225000Y-59675000D01*
G75*
G02*
X57025000Y-59475000I0J200000D01*
G01*
X57025000Y-59075000D01*
G75*
G02*
X57225000Y-58875000I200000J0D01*
G01*
X57775000Y-58875000D01*
G75*
G02*
X57975000Y-59075000I0J-200000D01*
G01*
X57975000Y-59475000D01*
G75*
G02*
X57775000Y-59675000I-200000J0D01*
G01*
G37*
G36*
G01*
X57775000Y-61325000D02*
X57225000Y-61325000D01*
G75*
G02*
X57025000Y-61125000I0J200000D01*
G01*
X57025000Y-60725000D01*
G75*
G02*
X57225000Y-60525000I200000J0D01*
G01*
X57775000Y-60525000D01*
G75*
G02*
X57975000Y-60725000I0J-200000D01*
G01*
X57975000Y-61125000D01*
G75*
G02*
X57775000Y-61325000I-200000J0D01*
G01*
G37*
G36*
G01*
X55025000Y-53175000D02*
X54475000Y-53175000D01*
G75*
G02*
X54275000Y-52975000I0J200000D01*
G01*
X54275000Y-52575000D01*
G75*
G02*
X54475000Y-52375000I200000J0D01*
G01*
X55025000Y-52375000D01*
G75*
G02*
X55225000Y-52575000I0J-200000D01*
G01*
X55225000Y-52975000D01*
G75*
G02*
X55025000Y-53175000I-200000J0D01*
G01*
G37*
G36*
G01*
X55025000Y-54825000D02*
X54475000Y-54825000D01*
G75*
G02*
X54275000Y-54625000I0J200000D01*
G01*
X54275000Y-54225000D01*
G75*
G02*
X54475000Y-54025000I200000J0D01*
G01*
X55025000Y-54025000D01*
G75*
G02*
X55225000Y-54225000I0J-200000D01*
G01*
X55225000Y-54625000D01*
G75*
G02*
X55025000Y-54825000I-200000J0D01*
G01*
G37*
G36*
G01*
X96800000Y-66425003D02*
X96800000Y-65174997D01*
G75*
G02*
X97049997Y-64925000I249997J0D01*
G01*
X97675003Y-64925000D01*
G75*
G02*
X97925000Y-65174997I0J-249997D01*
G01*
X97925000Y-66425003D01*
G75*
G02*
X97675003Y-66675000I-249997J0D01*
G01*
X97049997Y-66675000D01*
G75*
G02*
X96800000Y-66425003I0J249997D01*
G01*
G37*
G36*
G01*
X93875000Y-66425003D02*
X93875000Y-65174997D01*
G75*
G02*
X94124997Y-64925000I249997J0D01*
G01*
X94750003Y-64925000D01*
G75*
G02*
X95000000Y-65174997I0J-249997D01*
G01*
X95000000Y-66425003D01*
G75*
G02*
X94750003Y-66675000I-249997J0D01*
G01*
X94124997Y-66675000D01*
G75*
G02*
X93875000Y-66425003I0J249997D01*
G01*
G37*
G36*
G01*
X70725000Y-61875000D02*
X70725000Y-61325000D01*
G75*
G02*
X70925000Y-61125000I200000J0D01*
G01*
X71325000Y-61125000D01*
G75*
G02*
X71525000Y-61325000I0J-200000D01*
G01*
X71525000Y-61875000D01*
G75*
G02*
X71325000Y-62075000I-200000J0D01*
G01*
X70925000Y-62075000D01*
G75*
G02*
X70725000Y-61875000I0J200000D01*
G01*
G37*
G36*
G01*
X69075000Y-61875000D02*
X69075000Y-61325000D01*
G75*
G02*
X69275000Y-61125000I200000J0D01*
G01*
X69675000Y-61125000D01*
G75*
G02*
X69875000Y-61325000I0J-200000D01*
G01*
X69875000Y-61875000D01*
G75*
G02*
X69675000Y-62075000I-200000J0D01*
G01*
X69275000Y-62075000D01*
G75*
G02*
X69075000Y-61875000I0J200000D01*
G01*
G37*
G36*
G01*
X78850000Y-70625000D02*
X79350000Y-70625000D01*
G75*
G02*
X79575000Y-70850000I0J-225000D01*
G01*
X79575000Y-71300000D01*
G75*
G02*
X79350000Y-71525000I-225000J0D01*
G01*
X78850000Y-71525000D01*
G75*
G02*
X78625000Y-71300000I0J225000D01*
G01*
X78625000Y-70850000D01*
G75*
G02*
X78850000Y-70625000I225000J0D01*
G01*
G37*
G36*
G01*
X78850000Y-69075000D02*
X79350000Y-69075000D01*
G75*
G02*
X79575000Y-69300000I0J-225000D01*
G01*
X79575000Y-69750000D01*
G75*
G02*
X79350000Y-69975000I-225000J0D01*
G01*
X78850000Y-69975000D01*
G75*
G02*
X78625000Y-69750000I0J225000D01*
G01*
X78625000Y-69300000D01*
G75*
G02*
X78850000Y-69075000I225000J0D01*
G01*
G37*
G36*
G01*
X78825000Y-67125000D02*
X79375000Y-67125000D01*
G75*
G02*
X79575000Y-67325000I0J-200000D01*
G01*
X79575000Y-67725000D01*
G75*
G02*
X79375000Y-67925000I-200000J0D01*
G01*
X78825000Y-67925000D01*
G75*
G02*
X78625000Y-67725000I0J200000D01*
G01*
X78625000Y-67325000D01*
G75*
G02*
X78825000Y-67125000I200000J0D01*
G01*
G37*
G36*
G01*
X78825000Y-65475000D02*
X79375000Y-65475000D01*
G75*
G02*
X79575000Y-65675000I0J-200000D01*
G01*
X79575000Y-66075000D01*
G75*
G02*
X79375000Y-66275000I-200000J0D01*
G01*
X78825000Y-66275000D01*
G75*
G02*
X78625000Y-66075000I0J200000D01*
G01*
X78625000Y-65675000D01*
G75*
G02*
X78825000Y-65475000I200000J0D01*
G01*
G37*
G36*
G01*
X81175000Y-51275000D02*
X80625000Y-51275000D01*
G75*
G02*
X80425000Y-51075000I0J200000D01*
G01*
X80425000Y-50675000D01*
G75*
G02*
X80625000Y-50475000I200000J0D01*
G01*
X81175000Y-50475000D01*
G75*
G02*
X81375000Y-50675000I0J-200000D01*
G01*
X81375000Y-51075000D01*
G75*
G02*
X81175000Y-51275000I-200000J0D01*
G01*
G37*
G36*
G01*
X81175000Y-52925000D02*
X80625000Y-52925000D01*
G75*
G02*
X80425000Y-52725000I0J200000D01*
G01*
X80425000Y-52325000D01*
G75*
G02*
X80625000Y-52125000I200000J0D01*
G01*
X81175000Y-52125000D01*
G75*
G02*
X81375000Y-52325000I0J-200000D01*
G01*
X81375000Y-52725000D01*
G75*
G02*
X81175000Y-52925000I-200000J0D01*
G01*
G37*
G36*
G01*
X90149998Y-48600000D02*
X91050002Y-48600000D01*
G75*
G02*
X91300000Y-48849998I0J-249998D01*
G01*
X91300000Y-49375002D01*
G75*
G02*
X91050002Y-49625000I-249998J0D01*
G01*
X90149998Y-49625000D01*
G75*
G02*
X89900000Y-49375002I0J249998D01*
G01*
X89900000Y-48849998D01*
G75*
G02*
X90149998Y-48600000I249998J0D01*
G01*
G37*
G36*
G01*
X90149998Y-46775000D02*
X91050002Y-46775000D01*
G75*
G02*
X91300000Y-47024998I0J-249998D01*
G01*
X91300000Y-47550002D01*
G75*
G02*
X91050002Y-47800000I-249998J0D01*
G01*
X90149998Y-47800000D01*
G75*
G02*
X89900000Y-47550002I0J249998D01*
G01*
X89900000Y-47024998D01*
G75*
G02*
X90149998Y-46775000I249998J0D01*
G01*
G37*
G36*
G01*
X76825000Y-73075000D02*
X77375000Y-73075000D01*
G75*
G02*
X77575000Y-73275000I0J-200000D01*
G01*
X77575000Y-73675000D01*
G75*
G02*
X77375000Y-73875000I-200000J0D01*
G01*
X76825000Y-73875000D01*
G75*
G02*
X76625000Y-73675000I0J200000D01*
G01*
X76625000Y-73275000D01*
G75*
G02*
X76825000Y-73075000I200000J0D01*
G01*
G37*
G36*
G01*
X76825000Y-71425000D02*
X77375000Y-71425000D01*
G75*
G02*
X77575000Y-71625000I0J-200000D01*
G01*
X77575000Y-72025000D01*
G75*
G02*
X77375000Y-72225000I-200000J0D01*
G01*
X76825000Y-72225000D01*
G75*
G02*
X76625000Y-72025000I0J200000D01*
G01*
X76625000Y-71625000D01*
G75*
G02*
X76825000Y-71425000I200000J0D01*
G01*
G37*
G36*
G01*
X76725000Y-53375000D02*
X76725000Y-52825000D01*
G75*
G02*
X76925000Y-52625000I200000J0D01*
G01*
X77325000Y-52625000D01*
G75*
G02*
X77525000Y-52825000I0J-200000D01*
G01*
X77525000Y-53375000D01*
G75*
G02*
X77325000Y-53575000I-200000J0D01*
G01*
X76925000Y-53575000D01*
G75*
G02*
X76725000Y-53375000I0J200000D01*
G01*
G37*
G36*
G01*
X75075000Y-53375000D02*
X75075000Y-52825000D01*
G75*
G02*
X75275000Y-52625000I200000J0D01*
G01*
X75675000Y-52625000D01*
G75*
G02*
X75875000Y-52825000I0J-200000D01*
G01*
X75875000Y-53375000D01*
G75*
G02*
X75675000Y-53575000I-200000J0D01*
G01*
X75275000Y-53575000D01*
G75*
G02*
X75075000Y-53375000I0J200000D01*
G01*
G37*
G36*
G01*
X75875000Y-54425000D02*
X75875000Y-54975000D01*
G75*
G02*
X75675000Y-55175000I-200000J0D01*
G01*
X75275000Y-55175000D01*
G75*
G02*
X75075000Y-54975000I0J200000D01*
G01*
X75075000Y-54425000D01*
G75*
G02*
X75275000Y-54225000I200000J0D01*
G01*
X75675000Y-54225000D01*
G75*
G02*
X75875000Y-54425000I0J-200000D01*
G01*
G37*
G36*
G01*
X77525000Y-54425000D02*
X77525000Y-54975000D01*
G75*
G02*
X77325000Y-55175000I-200000J0D01*
G01*
X76925000Y-55175000D01*
G75*
G02*
X76725000Y-54975000I0J200000D01*
G01*
X76725000Y-54425000D01*
G75*
G02*
X76925000Y-54225000I200000J0D01*
G01*
X77325000Y-54225000D01*
G75*
G02*
X77525000Y-54425000I0J-200000D01*
G01*
G37*
G36*
G01*
X62225000Y-59775000D02*
X62775000Y-59775000D01*
G75*
G02*
X62975000Y-59975000I0J-200000D01*
G01*
X62975000Y-60375000D01*
G75*
G02*
X62775000Y-60575000I-200000J0D01*
G01*
X62225000Y-60575000D01*
G75*
G02*
X62025000Y-60375000I0J200000D01*
G01*
X62025000Y-59975000D01*
G75*
G02*
X62225000Y-59775000I200000J0D01*
G01*
G37*
G36*
G01*
X62225000Y-58125000D02*
X62775000Y-58125000D01*
G75*
G02*
X62975000Y-58325000I0J-200000D01*
G01*
X62975000Y-58725000D01*
G75*
G02*
X62775000Y-58925000I-200000J0D01*
G01*
X62225000Y-58925000D01*
G75*
G02*
X62025000Y-58725000I0J200000D01*
G01*
X62025000Y-58325000D01*
G75*
G02*
X62225000Y-58125000I200000J0D01*
G01*
G37*
G36*
G01*
X72775000Y-47925000D02*
X72225000Y-47925000D01*
G75*
G02*
X72025000Y-47725000I0J200000D01*
G01*
X72025000Y-47325000D01*
G75*
G02*
X72225000Y-47125000I200000J0D01*
G01*
X72775000Y-47125000D01*
G75*
G02*
X72975000Y-47325000I0J-200000D01*
G01*
X72975000Y-47725000D01*
G75*
G02*
X72775000Y-47925000I-200000J0D01*
G01*
G37*
G36*
G01*
X72775000Y-49575000D02*
X72225000Y-49575000D01*
G75*
G02*
X72025000Y-49375000I0J200000D01*
G01*
X72025000Y-48975000D01*
G75*
G02*
X72225000Y-48775000I200000J0D01*
G01*
X72775000Y-48775000D01*
G75*
G02*
X72975000Y-48975000I0J-200000D01*
G01*
X72975000Y-49375000D01*
G75*
G02*
X72775000Y-49575000I-200000J0D01*
G01*
G37*
G36*
G01*
X61075000Y-55925000D02*
X61075000Y-56475000D01*
G75*
G02*
X60875000Y-56675000I-200000J0D01*
G01*
X60475000Y-56675000D01*
G75*
G02*
X60275000Y-56475000I0J200000D01*
G01*
X60275000Y-55925000D01*
G75*
G02*
X60475000Y-55725000I200000J0D01*
G01*
X60875000Y-55725000D01*
G75*
G02*
X61075000Y-55925000I0J-200000D01*
G01*
G37*
G36*
G01*
X62725000Y-55925000D02*
X62725000Y-56475000D01*
G75*
G02*
X62525000Y-56675000I-200000J0D01*
G01*
X62125000Y-56675000D01*
G75*
G02*
X61925000Y-56475000I0J200000D01*
G01*
X61925000Y-55925000D01*
G75*
G02*
X62125000Y-55725000I200000J0D01*
G01*
X62525000Y-55725000D01*
G75*
G02*
X62725000Y-55925000I0J-200000D01*
G01*
G37*
G36*
G01*
X58575000Y-53325000D02*
X58575000Y-53875000D01*
G75*
G02*
X58375000Y-54075000I-200000J0D01*
G01*
X57975000Y-54075000D01*
G75*
G02*
X57775000Y-53875000I0J200000D01*
G01*
X57775000Y-53325000D01*
G75*
G02*
X57975000Y-53125000I200000J0D01*
G01*
X58375000Y-53125000D01*
G75*
G02*
X58575000Y-53325000I0J-200000D01*
G01*
G37*
G36*
G01*
X60225000Y-53325000D02*
X60225000Y-53875000D01*
G75*
G02*
X60025000Y-54075000I-200000J0D01*
G01*
X59625000Y-54075000D01*
G75*
G02*
X59425000Y-53875000I0J200000D01*
G01*
X59425000Y-53325000D01*
G75*
G02*
X59625000Y-53125000I200000J0D01*
G01*
X60025000Y-53125000D01*
G75*
G02*
X60225000Y-53325000I0J-200000D01*
G01*
G37*
G36*
G01*
X59425000Y-52125000D02*
X59425000Y-51575000D01*
G75*
G02*
X59625000Y-51375000I200000J0D01*
G01*
X60025000Y-51375000D01*
G75*
G02*
X60225000Y-51575000I0J-200000D01*
G01*
X60225000Y-52125000D01*
G75*
G02*
X60025000Y-52325000I-200000J0D01*
G01*
X59625000Y-52325000D01*
G75*
G02*
X59425000Y-52125000I0J200000D01*
G01*
G37*
G36*
G01*
X57775000Y-52125000D02*
X57775000Y-51575000D01*
G75*
G02*
X57975000Y-51375000I200000J0D01*
G01*
X58375000Y-51375000D01*
G75*
G02*
X58575000Y-51575000I0J-200000D01*
G01*
X58575000Y-52125000D01*
G75*
G02*
X58375000Y-52325000I-200000J0D01*
G01*
X57975000Y-52325000D01*
G75*
G02*
X57775000Y-52125000I0J200000D01*
G01*
G37*
D15*
X52500000Y-55900000D03*
X53450000Y-57900000D03*
X51550000Y-57900000D03*
D28*
X85600000Y-49900000D03*
X83600000Y-50850000D03*
X83600000Y-48950000D03*
G36*
G01*
X188393750Y-73550000D02*
X188906250Y-73550000D01*
G75*
G02*
X189125000Y-73768750I0J-218750D01*
G01*
X189125000Y-74206250D01*
G75*
G02*
X188906250Y-74425000I-218750J0D01*
G01*
X188393750Y-74425000D01*
G75*
G02*
X188175000Y-74206250I0J218750D01*
G01*
X188175000Y-73768750D01*
G75*
G02*
X188393750Y-73550000I218750J0D01*
G01*
G37*
G36*
G01*
X188393750Y-71975000D02*
X188906250Y-71975000D01*
G75*
G02*
X189125000Y-72193750I0J-218750D01*
G01*
X189125000Y-72631250D01*
G75*
G02*
X188906250Y-72850000I-218750J0D01*
G01*
X188393750Y-72850000D01*
G75*
G02*
X188175000Y-72631250I0J218750D01*
G01*
X188175000Y-72193750D01*
G75*
G02*
X188393750Y-71975000I218750J0D01*
G01*
G37*
G36*
G01*
X191156250Y-72850000D02*
X190643750Y-72850000D01*
G75*
G02*
X190425000Y-72631250I0J218750D01*
G01*
X190425000Y-72193750D01*
G75*
G02*
X190643750Y-71975000I218750J0D01*
G01*
X191156250Y-71975000D01*
G75*
G02*
X191375000Y-72193750I0J-218750D01*
G01*
X191375000Y-72631250D01*
G75*
G02*
X191156250Y-72850000I-218750J0D01*
G01*
G37*
G36*
G01*
X191156250Y-74425000D02*
X190643750Y-74425000D01*
G75*
G02*
X190425000Y-74206250I0J218750D01*
G01*
X190425000Y-73768750D01*
G75*
G02*
X190643750Y-73550000I218750J0D01*
G01*
X191156250Y-73550000D01*
G75*
G02*
X191375000Y-73768750I0J-218750D01*
G01*
X191375000Y-74206250D01*
G75*
G02*
X191156250Y-74425000I-218750J0D01*
G01*
G37*
D29*
X83250000Y-65200000D03*
X87550000Y-65200000D03*
D28*
X53350000Y-68900000D03*
X55350000Y-67950000D03*
X55350000Y-69850000D03*
D29*
X74500000Y-72650000D03*
X70200000Y-72650000D03*
G36*
G01*
X59950000Y-46975000D02*
X59450000Y-46975000D01*
G75*
G02*
X59225000Y-46750000I0J225000D01*
G01*
X59225000Y-46300000D01*
G75*
G02*
X59450000Y-46075000I225000J0D01*
G01*
X59950000Y-46075000D01*
G75*
G02*
X60175000Y-46300000I0J-225000D01*
G01*
X60175000Y-46750000D01*
G75*
G02*
X59950000Y-46975000I-225000J0D01*
G01*
G37*
G36*
G01*
X59950000Y-48525000D02*
X59450000Y-48525000D01*
G75*
G02*
X59225000Y-48300000I0J225000D01*
G01*
X59225000Y-47850000D01*
G75*
G02*
X59450000Y-47625000I225000J0D01*
G01*
X59950000Y-47625000D01*
G75*
G02*
X60175000Y-47850000I0J-225000D01*
G01*
X60175000Y-48300000D01*
G75*
G02*
X59950000Y-48525000I-225000J0D01*
G01*
G37*
G36*
G01*
X105099999Y-38375000D02*
X107300001Y-38375000D01*
G75*
G02*
X107550000Y-38624999I0J-249999D01*
G01*
X107550000Y-39275001D01*
G75*
G02*
X107300001Y-39525000I-249999J0D01*
G01*
X105099999Y-39525000D01*
G75*
G02*
X104850000Y-39275001I0J249999D01*
G01*
X104850000Y-38624999D01*
G75*
G02*
X105099999Y-38375000I249999J0D01*
G01*
G37*
G36*
G01*
X105099999Y-35425000D02*
X107300001Y-35425000D01*
G75*
G02*
X107550000Y-35674999I0J-249999D01*
G01*
X107550000Y-36325001D01*
G75*
G02*
X107300001Y-36575000I-249999J0D01*
G01*
X105099999Y-36575000D01*
G75*
G02*
X104850000Y-36325001I0J249999D01*
G01*
X104850000Y-35674999D01*
G75*
G02*
X105099999Y-35425000I249999J0D01*
G01*
G37*
G36*
G01*
X188520800Y-59189600D02*
X188520800Y-57189600D01*
G75*
G02*
X188770800Y-56939600I250000J0D01*
G01*
X192270800Y-56939600D01*
G75*
G02*
X192520800Y-57189600I0J-250000D01*
G01*
X192520800Y-59189600D01*
G75*
G02*
X192270800Y-59439600I-250000J0D01*
G01*
X188770800Y-59439600D01*
G75*
G02*
X188520800Y-59189600I0J250000D01*
G01*
G37*
G36*
G01*
X180520800Y-59189600D02*
X180520800Y-57189600D01*
G75*
G02*
X180770800Y-56939600I250000J0D01*
G01*
X184270800Y-56939600D01*
G75*
G02*
X184520800Y-57189600I0J-250000D01*
G01*
X184520800Y-59189600D01*
G75*
G02*
X184270800Y-59439600I-250000J0D01*
G01*
X180770800Y-59439600D01*
G75*
G02*
X180520800Y-59189600I0J250000D01*
G01*
G37*
G36*
G01*
X144888800Y-56988000D02*
X144888800Y-58988000D01*
G75*
G02*
X144638800Y-59238000I-250000J0D01*
G01*
X141138800Y-59238000D01*
G75*
G02*
X140888800Y-58988000I0J250000D01*
G01*
X140888800Y-56988000D01*
G75*
G02*
X141138800Y-56738000I250000J0D01*
G01*
X144638800Y-56738000D01*
G75*
G02*
X144888800Y-56988000I0J-250000D01*
G01*
G37*
G36*
G01*
X152888800Y-56988000D02*
X152888800Y-58988000D01*
G75*
G02*
X152638800Y-59238000I-250000J0D01*
G01*
X149138800Y-59238000D01*
G75*
G02*
X148888800Y-58988000I0J250000D01*
G01*
X148888800Y-56988000D01*
G75*
G02*
X149138800Y-56738000I250000J0D01*
G01*
X152638800Y-56738000D01*
G75*
G02*
X152888800Y-56988000I0J-250000D01*
G01*
G37*
G36*
G01*
X104750000Y-61675000D02*
X104250000Y-61675000D01*
G75*
G02*
X104025000Y-61450000I0J225000D01*
G01*
X104025000Y-61000000D01*
G75*
G02*
X104250000Y-60775000I225000J0D01*
G01*
X104750000Y-60775000D01*
G75*
G02*
X104975000Y-61000000I0J-225000D01*
G01*
X104975000Y-61450000D01*
G75*
G02*
X104750000Y-61675000I-225000J0D01*
G01*
G37*
G36*
G01*
X104750000Y-63225000D02*
X104250000Y-63225000D01*
G75*
G02*
X104025000Y-63000000I0J225000D01*
G01*
X104025000Y-62550000D01*
G75*
G02*
X104250000Y-62325000I225000J0D01*
G01*
X104750000Y-62325000D01*
G75*
G02*
X104975000Y-62550000I0J-225000D01*
G01*
X104975000Y-63000000D01*
G75*
G02*
X104750000Y-63225000I-225000J0D01*
G01*
G37*
G36*
G01*
X90099999Y-67800000D02*
X92300001Y-67800000D01*
G75*
G02*
X92550000Y-68049999I0J-249999D01*
G01*
X92550000Y-68700001D01*
G75*
G02*
X92300001Y-68950000I-249999J0D01*
G01*
X90099999Y-68950000D01*
G75*
G02*
X89850000Y-68700001I0J249999D01*
G01*
X89850000Y-68049999D01*
G75*
G02*
X90099999Y-67800000I249999J0D01*
G01*
G37*
G36*
G01*
X90099999Y-64850000D02*
X92300001Y-64850000D01*
G75*
G02*
X92550000Y-65099999I0J-249999D01*
G01*
X92550000Y-65750001D01*
G75*
G02*
X92300001Y-66000000I-249999J0D01*
G01*
X90099999Y-66000000D01*
G75*
G02*
X89850000Y-65750001I0J249999D01*
G01*
X89850000Y-65099999D01*
G75*
G02*
X90099999Y-64850000I249999J0D01*
G01*
G37*
G36*
G01*
X53900000Y-71675000D02*
X53900000Y-72625000D01*
G75*
G02*
X53650000Y-72875000I-250000J0D01*
G01*
X53150000Y-72875000D01*
G75*
G02*
X52900000Y-72625000I0J250000D01*
G01*
X52900000Y-71675000D01*
G75*
G02*
X53150000Y-71425000I250000J0D01*
G01*
X53650000Y-71425000D01*
G75*
G02*
X53900000Y-71675000I0J-250000D01*
G01*
G37*
G36*
G01*
X55800000Y-71675000D02*
X55800000Y-72625000D01*
G75*
G02*
X55550000Y-72875000I-250000J0D01*
G01*
X55050000Y-72875000D01*
G75*
G02*
X54800000Y-72625000I0J250000D01*
G01*
X54800000Y-71675000D01*
G75*
G02*
X55050000Y-71425000I250000J0D01*
G01*
X55550000Y-71425000D01*
G75*
G02*
X55800000Y-71675000I0J-250000D01*
G01*
G37*
G36*
G01*
X70575000Y-75850000D02*
X70575000Y-76350000D01*
G75*
G02*
X70350000Y-76575000I-225000J0D01*
G01*
X69900000Y-76575000D01*
G75*
G02*
X69675000Y-76350000I0J225000D01*
G01*
X69675000Y-75850000D01*
G75*
G02*
X69900000Y-75625000I225000J0D01*
G01*
X70350000Y-75625000D01*
G75*
G02*
X70575000Y-75850000I0J-225000D01*
G01*
G37*
G36*
G01*
X72125000Y-75850000D02*
X72125000Y-76350000D01*
G75*
G02*
X71900000Y-76575000I-225000J0D01*
G01*
X71450000Y-76575000D01*
G75*
G02*
X71225000Y-76350000I0J225000D01*
G01*
X71225000Y-75850000D01*
G75*
G02*
X71450000Y-75625000I225000J0D01*
G01*
X71900000Y-75625000D01*
G75*
G02*
X72125000Y-75850000I0J-225000D01*
G01*
G37*
G36*
G01*
X70150000Y-66675000D02*
X69650000Y-66675000D01*
G75*
G02*
X69425000Y-66450000I0J225000D01*
G01*
X69425000Y-66000000D01*
G75*
G02*
X69650000Y-65775000I225000J0D01*
G01*
X70150000Y-65775000D01*
G75*
G02*
X70375000Y-66000000I0J-225000D01*
G01*
X70375000Y-66450000D01*
G75*
G02*
X70150000Y-66675000I-225000J0D01*
G01*
G37*
G36*
G01*
X70150000Y-68225000D02*
X69650000Y-68225000D01*
G75*
G02*
X69425000Y-68000000I0J225000D01*
G01*
X69425000Y-67550000D01*
G75*
G02*
X69650000Y-67325000I225000J0D01*
G01*
X70150000Y-67325000D01*
G75*
G02*
X70375000Y-67550000I0J-225000D01*
G01*
X70375000Y-68000000D01*
G75*
G02*
X70150000Y-68225000I-225000J0D01*
G01*
G37*
G36*
G01*
X58850000Y-57325000D02*
X59350000Y-57325000D01*
G75*
G02*
X59575000Y-57550000I0J-225000D01*
G01*
X59575000Y-58000000D01*
G75*
G02*
X59350000Y-58225000I-225000J0D01*
G01*
X58850000Y-58225000D01*
G75*
G02*
X58625000Y-58000000I0J225000D01*
G01*
X58625000Y-57550000D01*
G75*
G02*
X58850000Y-57325000I225000J0D01*
G01*
G37*
G36*
G01*
X58850000Y-55775000D02*
X59350000Y-55775000D01*
G75*
G02*
X59575000Y-56000000I0J-225000D01*
G01*
X59575000Y-56450000D01*
G75*
G02*
X59350000Y-56675000I-225000J0D01*
G01*
X58850000Y-56675000D01*
G75*
G02*
X58625000Y-56450000I0J225000D01*
G01*
X58625000Y-56000000D01*
G75*
G02*
X58850000Y-55775000I225000J0D01*
G01*
G37*
G36*
G01*
X74750000Y-48025000D02*
X74250000Y-48025000D01*
G75*
G02*
X74025000Y-47800000I0J225000D01*
G01*
X74025000Y-47350000D01*
G75*
G02*
X74250000Y-47125000I225000J0D01*
G01*
X74750000Y-47125000D01*
G75*
G02*
X74975000Y-47350000I0J-225000D01*
G01*
X74975000Y-47800000D01*
G75*
G02*
X74750000Y-48025000I-225000J0D01*
G01*
G37*
G36*
G01*
X74750000Y-49575000D02*
X74250000Y-49575000D01*
G75*
G02*
X74025000Y-49350000I0J225000D01*
G01*
X74025000Y-48900000D01*
G75*
G02*
X74250000Y-48675000I225000J0D01*
G01*
X74750000Y-48675000D01*
G75*
G02*
X74975000Y-48900000I0J-225000D01*
G01*
X74975000Y-49350000D01*
G75*
G02*
X74750000Y-49575000I-225000J0D01*
G01*
G37*
G36*
G01*
X60500000Y-59675000D02*
X61000000Y-59675000D01*
G75*
G02*
X61225000Y-59900000I0J-225000D01*
G01*
X61225000Y-60350000D01*
G75*
G02*
X61000000Y-60575000I-225000J0D01*
G01*
X60500000Y-60575000D01*
G75*
G02*
X60275000Y-60350000I0J225000D01*
G01*
X60275000Y-59900000D01*
G75*
G02*
X60500000Y-59675000I225000J0D01*
G01*
G37*
G36*
G01*
X60500000Y-58125000D02*
X61000000Y-58125000D01*
G75*
G02*
X61225000Y-58350000I0J-225000D01*
G01*
X61225000Y-58800000D01*
G75*
G02*
X61000000Y-59025000I-225000J0D01*
G01*
X60500000Y-59025000D01*
G75*
G02*
X60275000Y-58800000I0J225000D01*
G01*
X60275000Y-58350000D01*
G75*
G02*
X60500000Y-58125000I225000J0D01*
G01*
G37*
M02*
